<svg width="790" height="790" viewBox="0 0 790 790" fill="none" xmlns="http://www.w3.org/2000/svg">
<path d="M401.05 288.46C399.09 286.5 396.16 286.5 393.23 287.48H392.25C388.34 287.48 384.43 285.52 381.49 282.59L377.58 279.66C376.6 278.68 374.65 277.7 372.69 277.7L362.91 272.81C361.93 272.81 360.95 271.83 359.98 271.83C359.98 271.83 359 272.81 358.02 272.81C355.09 274.77 352.15 274.77 349.22 273.79C349.22 272.81 348.24 272.81 348.24 272.81V271.83C348.24 270.85 348.24 270.85 349.22 270.85H353.13C354.11 270.85 354.11 269.87 355.09 269.87C354.11 269.87 354.11 268.89 354.11 268.89L344.33 264C342.37 262.04 340.42 262.04 337.49 264C335.53 264.98 333.58 266.93 330.65 267.91C328.69 268.89 326.74 269.87 326.74 272.8L323.81 276.71L312.08 289.42L307.19 296.26L301.32 303.1L289.59 318.75C288.61 321.68 286.66 322.66 284.7 325.59C282.74 329.5 279.81 333.41 276.88 337.32L268.08 350.03L261.24 358.83L252.44 370.56L248.53 376.43C246.57 380.34 243.64 384.25 240.71 387.19L231.91 398.92C229.95 402.83 227.02 406.74 224.09 410.65L221.16 416.52C218.23 421.41 217.25 425.32 214.32 429.23C212.36 432.16 211.39 436.07 210.41 439.01C208.45 443.9 206.5 447.81 205.52 451.72L200.63 468.34C200.63 470.3 200.63 473.23 199.65 475.18C199.65 478.11 198.67 480.07 198.67 482.02C198.67 484.95 197.69 486.91 197.69 489.84C196.71 492.77 196.71 495.71 196.71 498.64C195.73 500.6 195.73 502.55 195.73 504.51C195.73 506.47 194.75 508.42 194.75 509.4V510.38C194.75 513.31 194.75 515.27 193.77 518.2V527C192.79 528.96 192.79 530.91 192.79 531.89C192.79 536.78 192.79 540.69 191.81 544.6V553.4C191.81 557.31 190.83 561.22 190.83 565.13C188.87 576.86 189.85 588.6 189.85 601.31V632.6C188.87 633.58 188.87 635.53 188.87 636.51C188.87 640.42 187.89 643.35 188.87 647.27C188.87 650.2 188.87 653.14 191.8 655.09L203.53 662.91C203.53 662.91 205.49 663.89 206.46 663.89C210.37 664.87 214.28 665.85 218.19 667.8C220.15 667.8 221.12 668.78 223.08 667.8H226.01C228.94 667.8 230.9 668.78 231.88 670.73L234.81 673.66L239.7 676.59C242.63 676.59 244.59 678.55 246.54 678.55C251.43 681.48 256.32 682.46 261.21 683.44C266.1 685.4 270.99 686.37 275.88 687.35C277.84 688.33 280.77 688.33 282.72 688.33L292.5 690.29C295.43 691.27 298.37 691.27 301.3 691.27C304.23 691.27 307.17 692.25 311.08 693.23C312.06 693.23 314.01 693.23 315.97 694.21H324.77C326.73 694.21 329.66 695.19 331.61 695.19C334.54 696.17 337.48 696.17 340.41 696.17H352.14C354.1 697.15 356.05 696.17 358.01 696.17H383.43C386.36 696.17 390.27 695.19 393.21 696.17H404.94C405.92 695.19 406.9 696.17 408.85 695.19C412.76 695.19 416.67 694.21 419.61 693.23C423.52 693.23 427.43 692.25 430.37 693.23H434.28C438.19 692.25 441.12 692.25 444.06 692.25C446.99 692.25 448.95 691.27 450.9 691.27H451.88C454.81 690.29 457.75 691.27 461.66 690.29C463.62 689.31 466.55 690.29 469.48 689.31H474.37C477.3 689.31 481.21 689.31 484.15 688.33H491.97C493.93 688.33 496.86 688.33 499.79 687.35L512.5 685.39L530.1 681.48H531.08V680.5C527.17 680.5 524.24 678.54 521.3 675.61C519.34 674.63 517.39 672.68 515.43 670.72C514.45 670.72 513.47 669.74 512.5 669.74C510.54 668.76 508.59 668.76 506.63 668.76C505.65 668.76 505.65 668.76 504.67 667.78C504.67 667.78 505.65 666.8 506.63 666.8C510.54 666.8 514.45 667.78 517.39 669.73C521.3 672.66 525.21 674.62 529.12 676.57C530.1 676.57 531.08 676.57 532.05 677.55C533.03 677.55 534.98 678.53 536.94 678.53C538.9 678.53 540.85 677.55 541.83 677.55C543.79 676.57 544.76 676.57 546.72 676.57V675.59C542.81 674.61 539.88 672.66 535.96 669.72C532.05 665.81 527.16 662.88 522.27 660.92C520.31 660.92 518.36 659.94 516.4 659.94V658.96C517.38 657.98 519.33 657.98 520.31 657.98C524.22 658.96 528.13 659.94 531.07 661.89L541.83 667.76C543.79 669.72 546.72 670.69 548.67 670.69L554.54 672.65C557.47 673.63 559.43 673.63 562.36 673.63C566.27 672.65 571.16 671.67 575.07 669.72L583.87 665.81C585.83 664.83 587.78 663.85 589.74 663.85C590.72 663.85 591.7 663.85 590.72 664.83C590.72 666.79 589.74 667.76 589.74 667.76L584.85 671.67C578.98 674.6 574.09 677.54 569.21 678.51C566.28 679.49 563.34 680.47 560.41 680.47C559.43 680.47 559.43 680.47 558.45 681.45L540.85 688.29L524.23 694.16C520.32 696.12 515.43 697.09 510.54 698.07L502.72 700.03C500.76 701.01 498.81 701.01 496.85 701.01L488.05 702.97H475.34C474.36 702.97 472.41 703.95 471.43 702.97H470.45C463.61 703.95 456.76 702.97 449.92 702.97C446.01 703.95 441.12 703.95 436.23 703.95H427.43C421.56 704.93 414.72 703.95 408.85 704.93H386.36C382.45 705.91 378.54 705.91 374.63 705.91H365.83C363.87 705.91 361.92 705.91 359.96 704.93H342.36C340.4 704.93 339.43 703.95 337.47 703.95C332.58 703.95 327.69 703.95 323.78 704.93H316.94C313.03 705.91 310.1 704.93 306.18 705.91C296.4 706.89 286.62 705.91 277.82 705.91H254.35L242.62 703.95C239.69 703.95 235.78 702.97 232.84 702.97C231.86 702.97 230.88 701.99 228.93 701.99L214.26 697.1C209.37 695.14 204.48 693.19 199.59 690.26C197.63 689.28 195.68 687.33 193.72 684.39C192.74 682.43 191.76 680.48 194.7 677.55C198.61 674.62 203.5 671.68 209.37 671.68V670.7C207.41 670.7 206.44 670.7 204.48 669.72C203.5 669.72 202.52 669.72 201.55 668.74C197.64 667.76 194.71 665.81 192.75 662.87L187.86 658.96C186.88 657.98 184.93 657 184.93 655.05C182.97 652.12 182 648.21 182 644.29V634.51L183.96 624.73V622.77C183.96 616.9 182.98 610.06 183.96 603.21V568.99C183.96 568.01 184.94 567.03 184.94 565.08V559.21C184.94 554.32 184.94 548.45 185.92 543.56V534.76C186.9 531.83 185.92 528.89 186.9 526.94V525.96C186.9 523.03 186.9 520.09 187.88 517.16C187.88 515.2 187.88 513.25 188.86 511.29V506.4C188.86 503.47 189.84 499.56 189.84 496.62L191.8 483.91L194.73 473.15C195.71 467.28 196.69 462.39 198.64 457.5C199.62 453.59 201.57 450.66 202.55 447.72L206.46 438.92L209.39 431.1L211.35 428.17L215.26 419.37C217.22 415.46 218.19 411.55 221.13 407.64C224.06 402.75 226.02 397.86 228.95 393.95C231.88 388.08 234.82 384.17 238.73 379.28C241.66 375.37 244.6 371.46 246.55 366.57C248.51 364.61 250.46 362.66 251.44 360.7L260.24 348.97C261.22 346.04 264.15 344.08 266.11 341.15C269.04 337.24 271.98 334.31 273.93 330.39C275.89 326.48 278.82 323.55 281.75 320.61C283.71 317.68 285.66 314.74 288.59 311.81L293.48 304.97L302.28 295.19C304.24 294.21 304.24 292.26 306.19 291.28C307.17 289.32 309.12 287.37 311.08 285.41C313.04 283.45 314.99 280.52 317.92 278.57L319.88 274.66C321.84 273.68 321.84 271.73 322.81 269.77C322.81 268.79 323.79 267.81 323.79 266.84C324.77 266.84 324.77 266.84 324.77 265.86H323.79C320.86 264.88 319.88 262.93 317.92 260.97L315.96 255.1C315.96 253.14 316.94 252.17 316.94 251.19V248.26C314.98 246.3 314.01 244.35 314.01 241.42C314.01 239.46 315.97 237.51 316.94 235.55H317.92C318.9 234.57 319.88 233.59 319.88 232.62C320.86 228.71 322.81 225.78 325.75 224.8L326.73 223.82C322.82 220.89 318.91 218.93 315.97 216C313.04 214.04 310.1 212.09 306.19 211.11L299.35 205.24C295.44 202.31 291.53 200.35 287.62 199.37L279.8 196.44C278.82 196.44 277.84 195.46 276.87 195.46C273.94 192.53 270.03 191.55 266.11 189.59C263.18 188.61 260.24 186.66 258.29 184.7C254.38 182.74 251.45 180.79 247.53 179.81L239.71 175.9C238.73 174.92 238.73 172.97 238.73 171.99C238.73 169.06 238.73 166.12 239.71 164.17C240.69 161.24 242.64 159.28 244.6 158.3C247.53 156.34 250.47 154.39 254.38 153.41C255.36 152.43 256.34 152.43 258.29 153.41L264.16 156.34C265.14 157.32 267.09 157.32 268.07 156.34C270.03 153.41 272.96 150.47 274.91 146.56L277.84 141.67C278.82 140.69 279.8 138.74 281.75 138.74L289.57 135.81H297.39C299.35 136.79 302.28 135.81 304.23 134.83L315.96 126.03L322.8 120.16C326.71 115.27 331.6 112.34 335.51 108.43C337.47 105.5 340.4 103.54 342.35 101.59C345.28 98.6601 348.22 96.7001 352.13 95.7201C355.06 95.7201 358.97 95.7201 361.91 96.7001C365.82 97.6801 368.75 98.66 371.69 98.66C373.65 99.64 376.58 99.64 378.53 99.64H390.26C392.22 98.66 395.15 98.66 398.08 98.66C401.01 98.66 402.97 99.64 405.9 99.64C407.86 99.64 410.79 99.64 412.74 100.62H417.63L422.52 103.55C422.52 104.53 423.5 104.53 423.5 105.51H426.43C427.41 105.51 427.41 106.49 428.39 106.49C429.37 106.49 430.35 105.51 431.32 105.51C434.25 102.58 435.23 99.6401 437.19 97.6901C438.17 94.7601 440.12 93.7801 441.1 91.8201L456.74 84.9801C461.63 84.0001 465.54 84 470.43 84C473.36 84 476.3 84.0001 478.25 84.9801C480.21 85.9601 482.16 87.91 483.14 89.87C485.1 91.83 486.07 95.74 487.05 98.67C487.05 100.63 488.03 103.56 487.05 106.49C487.05 108.45 487.05 111.38 488.03 113.33C488.03 114.31 489.01 116.26 489.98 117.24L493.89 122.13C495.85 126.04 498.78 129.95 501.71 132.89C502.69 134.85 503.67 135.82 505.62 136.8L508.55 139.73L510.51 143.64C511.49 144.62 512.47 145.6 512.47 146.57V149.5C512.47 150.48 512.47 150.48 511.49 150.48C510.51 149.5 510.51 148.52 510.51 148.52C511.49 146.57 510.51 144.61 508.55 143.63C507.57 143.63 507.57 142.65 507.57 142.65L498.77 133.85C494.86 129.94 490.95 125.05 488.01 120.16C486.05 118.2 485.08 116.25 485.08 114.29C484.1 112.33 484.1 111.36 484.1 109.4V103.53C484.1 100.6 483.12 96.69 482.14 93.75C481.16 90.82 479.21 89.8401 478.23 88.8601H477.25C474.32 88.8601 471.38 87.88 469.43 87.88C467.47 88.86 465.52 88.8601 463.56 88.8601C460.63 89.8401 458.67 90.8201 455.74 90.8201L449.87 93.75C446.94 94.73 444.98 96.68 443.03 97.66L441.07 99.62L438.14 105.49C436.18 107.45 435.21 110.38 434.23 112.33V114.29L436.19 117.22C436.19 118.2 437.17 119.18 437.17 120.15C437.17 120.15 437.17 121.13 436.19 121.13H434.23C434.23 120.15 433.25 120.15 432.27 119.17C432.27 118.19 431.29 116.24 431.29 115.26C431.29 114.28 430.31 113.3 429.33 113.3L422.49 108.41C421.51 108.41 420.53 106.45 419.56 106.45C418.58 105.47 416.63 104.49 414.67 105.47C411.74 106.45 408.8 106.45 405.87 105.47C401.96 105.47 398.05 104.49 394.14 104.49H375.62C371.71 104.49 367.8 103.51 362.91 102.53C361.93 102.53 360.95 101.55 359 100.57C356.07 99.5901 353.13 100.57 350.2 101.55C348.24 101.55 346.29 102.53 345.31 104.48C342.38 107.41 339.44 109.37 336.51 111.32L327.71 119.14L325.75 122.07C324.77 125.98 322.82 127.94 320.86 129.89C316.95 133.8 313.04 136.73 308.15 139.67C305.22 141.63 302.28 142.6 299.35 142.6C298.37 142.6 297.39 142.6 296.42 141.62C291.53 140.64 287.62 141.62 283.71 142.6C282.73 143.58 280.78 144.56 280.78 145.53L277.85 149.44L274.92 154.33L271.99 157.26C271.01 160.19 269.06 161.17 267.1 162.15C265.14 163.13 263.19 163.13 261.23 162.15C259.27 160.19 257.32 159.22 254.39 158.24C254.39 157.26 253.41 157.26 252.43 158.24C250.47 158.24 248.52 160.2 245.59 161.17L243.63 164.1C243.63 165.08 243.63 167.03 242.65 168.01V168.99C242.65 170.95 242.65 170.95 243.63 171.92C245.59 172.9 247.54 173.88 249.5 173.88C253.41 175.84 257.32 176.81 260.26 178.77L266.13 181.7L274.93 186.59C277.86 187.57 280.8 189.52 282.75 191.48C283.73 192.46 285.68 193.44 286.66 193.44L297.42 200.28L309.15 206.15C312.08 207.13 315.99 209.08 318.93 212.02L328.71 217.89L331.64 221.8H332.62C334.58 221.8 337.51 221.8 339.46 220.82H359.02V219.84C358.04 217.88 357.06 215.93 355.11 213.97L344.35 201.26C344.35 200.28 343.37 199.3 342.39 198.33C339.46 195.4 338.48 192.46 336.52 189.53C333.59 186.6 331.63 183.66 329.68 179.75L325.77 175.84L319.9 168.02C319.9 168.02 318.92 167.04 318.92 166.06H319.9L325.77 171.93L334.57 183.66C338.48 186.59 342.39 189.53 345.33 193.44L351.2 200.28L354.13 203.21C355.11 203.21 355.11 204.19 356.09 203.21C356.09 203.21 357.07 202.23 356.09 202.23C356.09 200.27 355.11 198.32 355.11 196.36L352.18 184.63C351.2 182.67 351.2 180.72 351.2 178.76L348.27 167.03C348.27 166.05 347.29 166.05 347.29 165.07C347.29 164.09 347.29 164.09 348.27 164.09C349.25 164.09 349.25 165.07 349.25 166.05L353.16 173.87L356.09 181.69C356.09 182.67 356.09 184.62 357.07 184.62L364.89 206.13C365.87 210.04 367.82 213.95 368.8 218.84C368.8 219.82 368.8 219.82 369.78 219.82C369.78 218.84 370.76 218.84 371.74 218.84H374.67V215.91C374.67 214.93 375.65 213.95 376.63 213.95L383.47 216.88C384.45 217.86 384.45 217.86 385.43 217.86H393.25V216.88C391.29 215.9 388.36 213.95 385.43 213.95C381.52 212.97 377.61 211.99 374.67 208.08V207.1H375.65C375.65 207.1 376.63 207.1 376.63 208.08C377.61 208.08 379.56 209.06 380.54 209.06C382.5 210.04 383.47 210.04 384.45 210.04C389.34 209.06 394.23 210.04 398.14 213.95C399.12 213.95 400.1 214.93 400.1 215.91C400.1 216.89 401.08 217.87 402.06 217.87H410.86V216.89L413.79 208.09L417.7 199.29C418.68 194.4 419.66 189.51 421.61 184.62L424.54 176.8L427.47 166.04C427.47 166.04 428.45 165.06 428.45 164.08C429.43 164.08 429.43 165.06 429.43 165.06C429.43 166.04 428.45 167.02 428.45 167.99C428.45 169.95 428.45 170.92 427.47 172.88C427.47 176.79 427.47 180.7 425.52 184.61C425.52 185.59 425.52 185.59 426.5 185.59C428.46 184.61 430.41 185.59 433.34 186.57C434.32 187.55 436.27 188.53 438.23 188.53H440.19C440.19 189.51 439.21 190.49 438.23 190.49H433.34C432.36 190.49 430.41 189.51 428.45 189.51C427.47 190.49 425.52 189.51 424.54 189.51H423.56C423.56 191.47 422.58 193.42 422.58 195.38C424.54 194.4 425.51 194.4 427.47 194.4C429.43 195.38 431.38 195.38 432.36 195.38C434.32 196.36 434.32 196.36 436.27 196.36H437.25C438.23 196.36 438.23 197.34 438.23 197.34C438.23 197.34 438.23 198.32 437.25 198.32H435.29C434.31 198.32 432.36 197.34 430.4 197.34C430.4 197.34 429.42 197.34 428.44 198.32C427.46 198.32 425.51 199.3 424.53 199.3H422.57C421.59 198.32 421.59 198.32 420.61 199.3V202.23H421.59C425.5 203.21 429.41 203.21 433.32 203.21H434.3L436.26 205.17C435.28 206.15 434.3 205.17 434.3 205.17C432.34 204.19 430.39 205.17 428.43 205.17C425.5 206.15 423.54 206.15 420.61 205.17C419.63 205.17 419.63 205.17 419.63 206.15C418.65 209.08 418.65 209.08 421.59 209.08H425.5C428.43 209.08 431.37 210.06 433.32 212.01C434.3 212.01 434.3 212.01 434.3 212.99V213.97H433.32C432.34 213.97 432.34 212.99 431.36 212.99C430.38 212.01 429.4 212.01 428.43 212.01C425.5 212.99 422.56 213.97 419.63 212.99C418.65 212.01 417.67 212.99 417.67 213.97V214.95C416.69 215.93 417.67 215.93 417.67 215.93H422.56C424.52 214.95 426.47 215.93 427.45 215.93C428.43 216.91 430.38 216.91 431.36 216.91C432.34 216.91 432.34 216.91 433.32 217.89C434.3 218.87 435.28 219.85 435.28 220.82C436.26 220.82 436.26 221.8 436.26 221.8C436.26 222.78 436.26 222.78 437.24 222.78H441.15C441.15 219.85 443.11 218.87 444.08 216.91C445.06 215.93 446.04 215.93 446.04 214.95C448 213.97 448.97 212.02 448.97 211.04C449.95 208.11 451.9 206.15 453.86 204.2C457.77 199.31 462.66 195.4 466.57 191.49L477.33 181.71C481.24 177.8 486.13 172.91 491.02 169.98L502.75 160.2C503.73 159.22 504.71 158.24 505.68 158.24C506.65 158.24 506.66 158.24 506.66 157.26C507.64 156.28 507.64 155.3 507.64 155.3C507.64 155.3 507.64 154.32 508.62 153.34C508.62 153.34 509.6 152.36 510.58 153.34C510.58 153.34 510.58 154.32 509.6 155.3C509.6 156.28 508.62 157.26 508.62 158.23L506.66 160.19L502.75 163.12L499.82 167.03L495.91 169.96L489.07 175.83L487.11 177.79L479.29 184.63L475.38 188.54L467.56 197.34L460.72 203.21L457.79 206.14L451.92 213.96C451.92 214.94 451.92 215.92 450.94 216.89C448.98 218.85 448.01 220.8 447.03 222.76L446.05 223.74C447.03 224.72 447.03 224.72 448.01 224.72L450.94 227.65L454.85 232.54C455.83 234.5 454.85 238.41 452.89 239.38L449.96 241.34C450.94 242.32 450.94 242.32 450.94 243.3C451.92 246.23 451.92 248.19 451.92 251.12L449.96 254.05C448.98 256.01 448.98 256.98 449.96 257.96C450.94 260.89 452.89 262.85 454.85 263.83L457.78 268.72L463.65 275.56C466.58 279.47 470.49 282.4 474.41 285.34C475.39 286.32 477.34 287.3 478.32 289.25H479.3L491.03 291.21C492.99 291.21 494.94 292.19 496.9 294.14H498.86C501.79 296.1 503.75 301.96 500.82 305.87C499.84 306.85 498.86 307.83 498.86 308.8C498.86 309.78 499.84 311.73 499.84 313.69C499.84 313.69 499.84 314.67 500.82 314.67C504.73 318.58 506.69 322.49 510.6 327.38L516.47 336.18L525.27 349.87C525.27 351.83 526.25 352.8 527.23 354.76L530.16 365.52C530.16 367.48 531.14 369.43 532.12 370.41L537.99 382.14L543.86 395.83C545.82 400.72 547.77 405.61 550.7 410.5C551.68 413.43 552.65 416.37 554.61 419.3C554.61 420.28 555.59 421.26 555.59 422.23C557.55 425.16 558.52 428.1 559.5 431.03L563.41 441.79L569.28 463.3C570.26 467.21 571.24 472.1 573.19 476.01C573.19 478.94 574.17 481.88 574.17 484.81L578.08 500.46L580.04 512.19L583.95 523.92L586.88 536.63L590.79 551.3L594.7 566.95L600.57 587.48L604.48 602.15C605.46 605.08 606.44 608.99 606.44 610.95C607.42 614.86 607.42 617.79 607.42 620.73V627.57C607.42 631.48 607.42 634.41 606.44 637.35C605.46 641.26 604.48 645.17 602.53 649.08C601.55 650.06 600.57 651.04 600.57 652.01C599.59 652.99 599.59 652.99 598.61 652.99H597.63V647.12C598.61 645.16 599.59 642.23 599.59 639.3C600.57 637.34 600.57 635.39 600.57 634.41V632.45C600.57 628.54 601.55 624.63 600.57 619.74V612.9C599.59 609.97 598.61 607.03 598.61 604.1C596.65 599.21 595.68 594.32 594.7 589.43C591.77 581.61 589.81 573.79 587.86 565.96L581.99 543.47L579.06 529.78C578.08 526.85 577.1 524.89 577.1 521.96C576.12 517.07 575.14 512.18 573.19 508.27C573.19 505.34 572.21 502.4 571.23 500.45C571.23 497.52 571.23 494.58 570.25 491.65C570.25 489.69 569.27 486.76 569.27 483.83L566.34 474.05C565.36 468.18 564.38 463.29 562.43 458.41L558.52 443.74L553.63 430.05C552.65 427.12 551.67 423.21 549.72 420.27C548.74 417.34 547.76 414.4 545.81 411.47L541.9 400.71L537.01 388.98L531.14 372.36C530.16 369.43 529.18 367.47 527.23 365.52L524.3 360.63C522.34 355.74 519.41 351.83 516.48 347.92L511.59 340.1C509.63 337.17 507.68 335.21 506.7 331.3L500.83 322.5L494.96 314.68C492.03 313.7 491.05 311.75 489.09 311.75C488.11 310.77 486.16 310.77 485.18 310.77C483.22 310.77 482.25 309.79 480.29 309.79C479.31 309.79 478.33 308.81 477.36 308.81C474.43 308.81 471.49 307.83 469.54 307.83C468.56 307.83 467.58 306.85 465.63 306.85C463.67 306.85 462.7 307.83 461.72 309.78C459.76 311.74 459.76 311.74 461.72 314.67L462.7 315.65H463.68C465.64 314.67 468.57 313.69 470.52 310.76C470.52 310.76 471.5 309.78 471.5 310.76C472.48 310.76 472.48 311.74 472.48 312.72C471.5 314.68 470.52 316.63 468.57 317.61L465.64 319.57C466.62 320.55 466.62 321.53 467.6 321.53C467.6 322.51 468.58 323.49 468.58 324.46H470.54L477.38 318.59C477.38 317.61 477.38 317.61 478.36 317.61C478.36 316.63 479.34 316.63 479.34 316.63C480.32 316.63 480.32 318.59 480.32 318.59C479.34 321.52 478.36 322.5 476.41 324.46L472.5 327.39C471.52 327.39 471.52 328.37 471.52 328.37L477.39 335.21L480.32 339.12C484.23 343.03 488.14 348.9 492.05 353.79C494.01 357.7 495.96 360.63 498.89 363.57L501.82 369.44V373.35C501.82 373.35 500.84 373.35 500.84 372.37L497.91 369.44C495.95 366.51 494 363.57 491.07 360.64L481.29 347.93L475.42 341.09C473.46 339.13 472.49 337.18 470.53 336.2L452.93 309.8C452.93 308.82 451.95 307.84 451.95 306.87C451.95 305.89 450.97 304.91 449.99 304.91C449.01 304.91 447.06 304.91 446.08 305.89L440.21 308.82C439.23 308.82 437.28 307.84 435.32 307.84C432.39 306.86 429.45 305.88 427.5 302.95C427.5 300.99 425.55 300.02 424.57 298.06C424.57 298.06 423.59 297.08 422.61 297.08L408.92 291.21L401.05 288.46C402.03 290.42 402.03 291.39 400.07 292.37C398.11 293.35 397.14 294.33 394.2 294.33C389.31 295.31 384.42 293.35 380.51 291.4C380.51 290.42 379.53 290.42 378.55 289.44H377.57L378.55 288.46H380.51C384.42 291.39 388.33 291.39 392.24 290.42C394.2 290.42 395.17 289.44 397.13 289.44C398.11 288.46 400.07 288.46 401.05 288.46ZM200.6 612.12L199.62 613.1C197.66 613.1 194.73 610.17 194.73 608.21C193.75 607.23 194.73 606.25 196.69 606.25C196.69 606.25 196.69 607.23 197.67 607.23L200.6 612.12ZM196.68 618.96V617C196.68 616.02 196.68 616.02 197.66 616.02C197.66 617 198.64 617 198.64 617C200.6 618.96 202.55 620.91 204.51 621.89L205.49 622.87C205.49 623.85 204.51 623.85 204.51 623.85H203.53C202.55 623.85 200.6 622.87 198.64 620.92L196.68 618.96ZM210.37 636.56C206.46 636.56 203.53 634.6 200.59 631.67C199.61 630.69 199.61 629.71 199.61 628.74C200.59 627.76 201.57 627.76 202.54 628.74C204.5 629.72 206.45 631.67 208.41 633.63L211.34 635.59V636.57H210.37V636.56ZM205.49 644.39C205.49 643.41 204.51 642.43 205.49 641.46C205.49 640.48 206.47 640.48 207.45 640.48C207.45 640.48 208.43 640.48 208.43 641.46L219.19 648.3V649.28H217.23C214.3 649.28 212.34 648.3 210.39 647.32L205.49 644.39ZM210.37 655.14V653.18C211.35 652.2 211.35 652.2 212.33 653.18C213.31 653.18 214.29 653.18 215.26 654.16L225.04 659.05C226.02 659.05 226.02 660.03 226.02 660.03H225.04C225.04 661.01 223.08 660.03 222.11 661.01C218.2 660.03 214.29 658.08 211.35 655.14H210.37ZM218.2 575.94C219.18 575.94 219.18 575.94 220.16 576.92L223.09 578.88C223.09 579.86 224.07 580.84 224.07 580.84C224.07 581.82 223.09 581.82 222.11 581.82C220.15 582.8 218.2 580.84 217.22 578.89C217.22 577.9 218.2 576.92 218.2 575.94ZM220.15 562.25C221.13 562.25 222.11 563.23 223.08 563.23C224.06 564.21 224.06 564.21 223.08 565.19C222.1 565.19 220.15 565.19 219.17 564.21C218.19 564.21 218.19 564.21 218.19 563.23C218.2 562.25 219.17 561.27 220.15 562.25ZM220.15 545.63C222.11 545.63 224.06 546.61 225.04 547.59C225.04 548.57 224.06 549.55 222.11 549.55C222.11 549.55 221.13 548.57 220.15 548.57C219.17 547.59 219.17 546.61 220.15 546.61V545.63ZM225.04 595.5C226.02 597.46 225.04 597.46 225.04 597.46H223.08C222.1 597.46 221.12 597.46 220.15 596.48V593.55C220.15 593.55 222.11 592.57 222.11 593.55C223.09 594.52 225.04 594.52 225.04 595.5ZM223.09 531.94H224.07C225.05 532.92 226.03 532.92 225.05 533.9C225.05 534.88 224.07 534.88 224.07 534.88C222.11 534.88 221.14 533.9 221.14 532.92C221.13 531.94 222.11 530.96 223.09 531.94ZM224.06 516.29C225.04 516.29 227.97 518.25 228.95 519.22H226.99C226.01 519.22 224.06 519.22 223.08 518.24C223.09 517.27 223.09 516.29 224.06 516.29ZM229.93 615.05L228.95 616.03C226.99 615.05 225.04 615.05 224.06 614.07C224.06 613.09 223.08 613.09 223.08 612.11C223.08 612.11 223.08 611.13 224.06 610.15H226.02L229.93 614.06V615.05ZM230.91 503.58V504.56C230.91 505.54 229.93 505.54 229.93 505.54H228.95C227.97 505.54 226.99 505.54 226.02 504.56C225.04 504.56 225.04 504.56 225.04 503.58C224.06 502.6 225.04 501.62 226.02 501.62C227.97 501.63 228.95 502.6 230.91 503.58ZM234.82 488.91C233.84 488.91 232.86 489.89 231.89 489.89C229.93 489.89 228.96 488.91 228.96 487.93C228.96 486.95 229.94 486.95 229.94 486.95C230.92 485.97 233.85 486.95 234.83 487.93V488.91H234.82ZM232.86 631.68C231.88 631.68 230.9 631.68 229.93 630.7C228.95 629.72 228.95 628.74 229.93 627.77H231.89C232.87 627.77 233.85 628.75 234.82 629.73C234.82 630.71 234.82 631.69 233.84 631.69H232.86V631.68ZM234.82 476.2C233.84 476.2 232.86 475.22 233.84 474.24C233.84 473.26 233.84 473.26 234.82 473.26H237.75C237.75 474.24 238.73 475.22 237.75 475.22C237.75 476.2 237.75 476.2 236.77 476.2H234.82ZM234.82 644.39C234.82 643.41 235.8 642.43 236.78 642.43H237.76C239.72 643.41 240.69 645.36 240.69 646.34C241.67 646.34 240.69 647.32 240.69 647.32H239.71C238.73 647.32 237.75 646.34 235.8 646.34C235.8 645.36 234.82 645.36 234.82 644.39ZM239.71 464.47C238.73 464.47 237.75 464.47 236.78 463.49C236.78 463.49 235.8 462.51 236.78 461.53C237.76 460.55 238.74 460.55 238.74 460.55C239.72 461.53 240.7 461.53 240.7 462.51C241.68 462.51 241.68 463.49 241.68 464.47H239.71ZM240.69 657.1V656.12C240.69 655.14 241.67 654.16 242.65 655.14C243.63 655.14 243.63 655.14 244.61 656.12C244.61 656.12 245.59 657.1 244.61 658.08C244.61 659.06 243.63 659.06 242.65 659.06C241.66 659.05 241.66 658.08 240.69 657.1ZM244.6 451.76C242.64 451.76 241.67 451.76 241.67 449.8C240.69 448.82 241.67 446.87 243.63 447.84H244.61C245.59 447.84 247.54 448.82 247.54 450.77C246.55 451.76 245.58 451.76 244.6 451.76ZM247.53 439.05C246.55 438.07 246.55 437.09 246.55 436.12C246.55 435.14 248.51 434.16 248.51 435.14C249.49 436.12 250.47 437.1 251.44 437.1C251.44 439.06 251.44 439.06 249.48 439.06H247.53V439.05ZM253.4 425.36C254.38 425.36 255.36 426.34 256.33 427.32V428.3H254.37C253.39 428.3 252.41 428.3 252.41 427.32C251.43 426.34 251.43 426.34 251.43 425.36H253.4ZM271.98 400.91C273.94 401.89 273.94 402.87 274.91 403.84V404.82C272.95 404.82 271.98 403.84 271 402.86C270.02 402.86 270.02 401.88 270.02 401.88C271 401.88 271 400.9 271 400.9H271.98V400.91ZM278.82 172.1V173.08H277.84C275.88 172.1 272.95 171.12 271.97 169.17V168.19C271.97 167.21 272.95 167.21 272.95 167.21C273.93 167.21 273.93 168.19 274.91 168.19C275.89 170.15 277.84 171.13 278.82 172.1ZM275.89 572.03C275.89 570.07 276.87 569.1 277.85 570.07C279.81 571.05 280.78 571.05 281.76 573C281.76 573 281.76 573.98 280.78 573.98C279.8 574.96 275.89 573.98 275.89 573V572.03ZM275.89 586.7C276.87 585.72 276.87 584.74 277.85 584.74C279.81 584.74 280.78 585.72 281.76 586.7C281.76 587.68 282.74 588.66 282.74 588.66C281.76 589.64 280.78 589.64 279.81 589.64C278.83 589.64 277.85 588.66 276.88 588.66C275.89 588.65 275.89 587.67 275.89 586.7ZM280.78 608.21C279.8 608.21 277.85 608.21 276.87 606.25V604.29C277.85 603.31 277.85 603.31 278.83 603.31C280.79 603.31 282.74 604.29 282.74 606.24C283.72 608.2 283.72 608.2 281.76 608.2H280.78V608.21ZM282.73 391.13C282.73 391.13 282.73 392.11 281.75 392.11H280.77C279.79 392.11 278.81 392.11 277.84 391.13C276.86 390.15 276.86 388.2 277.84 388.2C278.82 387.22 279.8 387.22 280.77 387.22C281.75 388.2 282.73 389.18 282.73 391.13ZM278.82 554.43C280.78 554.43 281.75 554.43 282.73 556.39C282.73 556.39 282.73 557.37 281.75 557.37H280.77C279.79 557.37 278.81 557.37 277.84 556.39C277.84 556.39 276.86 555.41 277.84 555.41C277.84 554.43 277.84 554.43 278.82 554.43ZM278.82 539.76C278.82 537.8 279.8 537.8 280.78 537.8L281.76 538.78C281.76 539.76 282.74 540.74 282.74 540.74C282.74 541.72 281.76 541.72 280.78 541.72C278.82 541.72 278.82 540.74 278.82 539.76ZM284.69 524.12C285.67 525.1 285.67 525.1 284.69 525.1H281.76C280.78 524.12 280.78 523.14 280.78 523.14C281.76 522.16 281.76 522.16 282.74 522.16C283.71 523.14 284.69 523.14 284.69 524.12ZM280.78 623.85C280.78 621.89 281.76 621.89 282.74 622.87L287.63 626.78V628.74H286.65C284.69 628.74 282.74 627.76 281.76 626.78C280.78 625.81 280.78 624.83 280.78 623.85ZM321.84 199.48C320.86 200.46 320.86 200.46 321.84 200.46C322.82 201.44 323.8 203.39 325.75 204.37C325.75 203.39 326.73 202.41 326.73 202.41C327.71 202.41 327.71 201.43 328.69 202.41C329.67 202.41 329.67 203.39 329.67 204.37C329.67 205.35 329.67 206.33 328.69 206.33L331.62 209.26C332.6 209.26 332.6 209.26 332.6 208.28C334.56 207.3 335.53 208.28 336.51 209.26V210.24C336.51 211.22 336.51 211.22 337.49 212.2C338.47 212.2 338.47 213.18 338.47 214.16C338.47 215.14 338.47 215.14 337.49 215.14C336.51 215.14 335.53 216.12 334.56 214.16C334.56 213.18 333.58 214.16 333.58 214.16C332.6 214.16 331.62 213.18 331.62 213.18C331.62 212.2 330.64 212.2 330.64 212.2L322.82 206.33L315 202.42C311.09 200.46 308.16 197.53 305.22 195.58C302.29 192.65 299.35 191.67 297.4 189.71L294.47 186.78C290.56 183.85 288.6 180.91 284.69 178.96C283.71 177.98 282.73 177.98 282.73 177C283.71 176.02 284.69 177 285.66 177L290.55 180.91C292.51 182.87 294.46 184.82 297.39 185.8C302.28 187.76 307.17 190.69 312.06 193.62C314.02 194.6 314.99 196.55 317.93 197.53H318.91C319.89 195.57 321.84 195.57 322.82 195.57C323.8 196.55 323.8 196.55 323.8 197.53L321.84 199.48ZM288.6 648.3C286.64 647.32 284.69 646.34 283.71 643.41C282.73 642.43 283.71 641.45 283.71 640.48H285.67C286.65 640.48 286.65 640.48 286.65 641.46L290.56 644.39C291.54 645.37 291.54 646.35 291.54 647.32C291.54 648.3 291.54 649.28 290.56 648.3H288.6ZM290.55 379.4C291.53 380.38 291.53 381.36 291.53 381.36C291.53 382.34 290.55 382.34 290.55 382.34L286.64 380.38C284.68 379.4 284.68 378.42 285.66 377.45C286.64 376.47 287.62 376.47 288.59 377.45C288.59 377.45 289.57 377.45 289.57 378.43C290.55 378.42 290.55 379.4 290.55 379.4ZM285.67 486.96C285.67 486.96 284.69 486.96 285.67 485.98C285.67 485.98 285.67 485 286.65 485C286.65 485 287.63 485.98 287.63 486.96H285.67ZM290.55 160.37C290.55 161.35 289.57 161.35 288.59 161.35V160.37C288.59 159.39 289.57 158.41 290.55 158.41V160.37ZM292.51 469.36C292.51 470.34 292.51 470.34 291.53 470.34C290.55 470.34 289.57 469.36 289.57 468.38C289.57 467.4 289.57 467.4 290.55 467.4C291.53 467.4 292.51 468.38 292.51 469.36ZM290.55 661.01C289.57 661.01 289.57 660.03 289.57 660.03C289.57 659.05 289.57 658.07 291.53 658.07H292.51C294.47 660.03 296.42 661 297.4 662.96C297.4 663.94 296.42 664.92 296.42 664.92C293.49 663.94 291.53 662.97 290.55 661.01ZM292.51 167.22C292.51 167.22 292.51 165.26 293.49 165.26H295.45V166.24C295.45 166.24 294.47 168.2 293.49 168.2C293.49 168.19 292.51 168.19 292.51 167.22ZM292.51 446.87H294.47C295.45 446.87 295.45 446.87 296.43 447.85V448.83L295.45 449.81H293.49C293.49 448.83 292.51 448.83 292.51 448.83V446.87ZM298.38 368.64C299.36 369.62 298.38 370.6 297.4 370.6C295.44 370.6 294.47 370.6 293.49 369.62C292.51 368.64 292.51 366.69 294.47 365.71C294.47 364.73 295.45 365.71 295.45 365.71C297.4 365.71 297.4 367.67 298.38 368.64ZM299.35 426.34V427.32C298.37 428.3 297.39 428.3 297.39 428.3C295.43 428.3 295.43 427.32 295.43 426.34C295.43 425.36 296.41 425.36 296.41 425.36C297.4 425.36 298.38 425.36 299.35 426.34ZM297.4 670.79C297.4 670.79 297.4 669.81 298.38 669.81C298.38 669.81 299.36 669.81 299.36 670.79C300.34 670.79 301.32 671.77 302.29 672.75V673.73H301.31C300.33 673.73 299.35 672.75 298.38 672.75C297.4 671.77 297.4 671.77 297.4 670.79ZM299.35 174.06C298.37 174.06 298.37 174.06 298.37 173.08C299.35 173.08 299.35 172.1 300.33 172.1H301.31C302.29 172.1 302.29 173.08 302.29 173.08C301.31 174.06 301.31 175.04 300.33 175.04C300.33 175.04 299.35 175.04 299.35 174.06ZM300.33 411.67C300.33 411.67 299.35 410.69 300.33 410.69C300.33 408.73 301.31 408.73 301.31 408.73C302.29 409.71 303.27 409.71 303.27 410.69C304.25 410.69 304.25 410.69 304.25 411.67H300.33ZM306.2 359.84C306.2 360.82 305.22 360.82 304.24 360.82C303.26 360.82 301.31 359.84 300.33 357.89V356.91C300.33 355.93 301.31 354.95 302.29 354.95C303.27 355.93 303.27 355.93 304.25 355.93C304.25 356.91 305.23 356.91 305.23 357.89C306.2 357.89 307.18 358.87 306.2 359.84ZM309.13 150.59L306.2 153.52H304.24V151.56C304.24 150.58 307.17 149.6 308.15 149.6C309.13 149.62 309.13 150.59 309.13 150.59ZM306.2 398.96V399.94C306.2 399.94 307.18 400.92 306.2 400.92H305.22C305.22 400.92 304.24 400.92 304.24 399.94L305.22 398.96H306.2ZM309.13 178.95C310.11 179.93 310.11 179.93 309.13 180.91C309.13 181.89 309.13 181.89 308.15 181.89H306.19V179.93C306.19 178.95 307.17 178.95 308.15 178.95H309.13ZM307.18 349.09C306.2 349.09 307.18 348.11 307.18 347.13C307.18 346.15 309.14 346.15 309.14 347.13C311.1 347.13 311.1 349.09 312.07 350.06C312.07 350.06 312.07 351.04 310.11 351.04C310.11 351.04 309.13 351.04 308.15 350.06C307.18 350.07 307.18 350.07 307.18 349.09ZM311.09 160.37C310.11 161.35 309.13 160.37 309.13 160.37C308.15 159.39 308.15 158.41 309.13 157.44H312.06C313.04 157.44 313.04 158.42 313.04 158.42L311.09 160.37ZM314.02 189.71C314.02 188.73 314.02 187.75 315.98 187.75L316.96 188.73V189.71C316.96 190.69 315.98 190.69 315.98 190.69C315 190.68 314.02 190.68 314.02 189.71ZM316.95 334.42L319.88 337.35C318.9 337.35 318.9 337.35 317.92 338.33C316.94 338.33 314.99 337.35 314.99 336.37C314.01 336.37 314.01 335.39 314.99 334.42C315 334.42 315.98 333.44 316.95 334.42ZM491.98 308.02C494.91 308.02 497.85 305.09 497.85 301.18C497.85 300.2 496.87 298.25 495.89 298.25C494.91 297.27 493.93 297.27 492.96 297.27H489.05C487.09 296.29 485.14 296.29 483.18 296.29C481.22 295.31 478.29 295.31 476.34 295.31L452.87 288.47L437.23 282.6L425.5 277.71L415.72 275.75L409.85 273.79C406.92 273.79 404.96 272.81 402.03 272.81C401.05 271.83 399.1 271.83 398.12 271.83C394.21 269.87 390.3 267.92 386.39 266.94C383.46 264.98 380.52 264.01 376.61 263.03L369.77 260.1C369.77 259.12 368.79 259.12 367.81 259.12C363.9 258.14 360.97 257.16 357.05 255.21C355.09 254.23 353.14 253.25 351.18 253.25L345.31 251.29C342.38 249.33 339.44 247.38 336.51 244.45C335.53 244.45 333.58 243.47 333.58 242.49C332.6 241.51 332.6 241.51 331.62 241.51C328.69 241.51 325.75 241.51 322.82 239.55H320.86C319.88 240.53 319.88 241.51 319.88 242.48L322.81 247.37C325.74 250.3 329.65 252.26 333.57 253.24C338.46 256.17 342.37 257.15 347.26 259.11L365.84 267.91C368.77 269.87 371.71 271.82 375.62 272.8L386.38 278.67L397.14 282.58H398.12C399.1 283.56 399.1 283.56 400.08 283.56L407.9 286.49C416.7 290.4 426.48 293.33 435.28 296.27L447.01 299.2H450.92C452.88 300.18 455.81 300.18 458.74 300.18L466.56 302.14L474.38 305.07C475.36 305.07 477.31 305.07 477.31 306.05C480.24 306.05 483.18 307.03 486.11 308.01H491.98V308.02ZM324.78 324.64H325.76C325.76 325.62 325.76 325.62 324.78 325.62H320.87L319.89 324.64C319.89 323.66 320.87 323.66 321.85 323.66C322.82 323.67 323.8 323.67 324.78 324.64ZM333.58 258.15C332.6 258.15 332.6 257.17 331.62 257.17C328.69 256.19 325.75 255.21 322.82 253.26H321.84V254.24C322.82 256.2 323.8 258.15 325.75 259.13C325.75 259.13 325.75 260.11 326.73 260.11C328.69 260.11 331.62 260.11 333.57 259.13V258.15H333.58ZM326.73 319.75C325.75 319.75 323.8 318.77 322.82 317.79C322.82 317.79 321.84 317.79 322.82 316.81C322.82 315.83 322.82 315.83 323.8 315.83C325.76 315.83 327.71 316.81 328.69 317.79C329.67 317.79 329.67 318.77 328.69 318.77C327.71 318.78 326.73 319.75 326.73 319.75ZM328.69 236.64H329.67C331.63 236.64 333.58 236.64 334.56 235.66C336.52 235.66 338.47 235.66 340.43 234.68C345.32 234.68 351.19 233.7 356.08 233.7H369.77C370.75 233.7 371.73 233.7 373.68 234.68H380.52C382.48 235.66 384.43 234.68 386.39 234.68H419.64L430.4 236.64C431.38 236.64 433.33 237.62 434.31 236.64H435.29C436.27 236.64 438.22 236.64 439.2 237.62H447.02C448 237.62 448 237.62 448 236.64C448.98 236.64 449.96 235.66 448.98 234.68C447.02 232.72 446.05 229.79 443.11 228.81C438.22 226.85 433.33 225.88 427.46 224.9H419.64C418.66 224.9 417.68 223.92 415.73 223.92C412.8 222.94 408.89 222.94 405.95 222.94H402.04C397.15 223.92 391.28 223.92 386.39 223.92C383.46 224.9 379.55 223.92 376.61 224.9H365.85C362.92 225.88 359.01 226.86 356.07 225.88H334.56C333.58 225.88 331.63 225.88 330.65 226.86C328.69 227.84 326.74 228.82 325.76 230.77C323.8 233.71 324.78 235.66 328.69 236.64ZM333.58 310.95C330.65 309.97 327.71 309.97 325.76 307.04V306.06H326.74C329.67 307.04 333.58 307.04 336.52 307.04C337.5 306.06 339.45 306.06 340.43 307.04H341.41C341.41 307.04 341.41 308.02 340.43 308.02C338.47 309.98 335.53 310.95 333.58 310.95ZM333.58 298.24C332.6 297.26 330.65 296.28 330.65 294.33H331.63C332.61 294.33 333.59 296.29 333.59 297.26V298.24H333.58ZM336.51 283.58C336.51 284.56 337.49 285.54 337.49 286.51C336.51 286.51 335.53 285.53 335.53 284.55V283.57H336.51V283.58ZM339.45 297.26L346.29 294.33C347.27 294.33 348.25 293.35 349.22 293.35H350.2V295.31C350.2 295.31 349.22 296.29 349.22 297.27C347.26 298.25 345.31 300.2 343.35 300.2C342.37 301.18 341.39 300.2 341.39 301.18C339.43 301.18 338.46 300.2 336.5 299.22C335.52 299.22 335.52 298.24 336.5 298.24C337.49 297.26 338.47 297.26 339.45 297.26ZM347.27 156.46V159.39C346.29 159.39 346.29 158.41 346.29 158.41L339.45 141.79V137.88L340.43 138.86C341.41 140.82 342.39 142.77 342.39 144.73C343.37 146.69 343.37 148.64 344.35 149.62L347.27 156.46ZM341.4 276.73C343.36 278.69 346.29 279.66 349.22 279.66H356.06C357.04 279.66 357.04 279.66 357.04 280.64C356.06 280.64 355.08 281.62 355.08 281.62C352.15 282.6 350.19 282.6 348.24 282.6C344.33 282.6 342.37 281.62 340.42 278.69C339.44 277.71 339.44 277.71 339.44 276.73C339.44 275.75 339.44 275.75 340.42 275.75C340.42 275.75 340.42 276.73 341.4 276.73ZM353.13 287.49C352.15 289.45 350.2 289.45 348.24 290.42H345.31C343.35 290.42 342.38 290.42 340.42 289.44V288.46C341.4 288.46 341.4 287.48 342.38 287.48C346.29 288.46 349.22 287.48 352.16 286.5H353.14V287.49H353.13ZM344.33 403.85C344.33 404.83 343.35 405.81 343.35 407.76H342.37C342.37 405.8 342.37 404.83 341.39 403.85C341.39 402.87 342.37 402.87 342.37 401.89C342.37 401.89 342.37 400.91 343.35 400.91C343.35 401.89 344.33 401.89 344.33 401.89V403.85ZM345.31 269.89C345.31 270.87 343.35 269.89 342.38 268.91V267.93C341.4 267.93 342.38 266.95 342.38 266.95H343.36C343.36 267.93 344.34 267.93 344.34 268.91L345.31 269.89ZM361.93 241.53C362.91 240.55 364.86 241.53 365.84 240.55H370.73C373.66 240.55 376.6 240.55 379.53 239.57H380.51C382.47 239.57 385.4 239.57 388.33 238.59H376.6C375.62 238.59 375.62 239.57 375.62 239.57H368.78C363.89 240.55 359 239.57 354.11 239.57C351.18 238.59 348.24 238.59 344.33 238.59C344.33 238.59 343.35 239.57 343.35 240.55C343.35 241.53 343.35 241.53 344.33 241.53H361.93ZM346.29 594.52C346.29 594.52 345.31 593.54 346.29 592.56H347.27C348.25 591.58 349.23 592.56 350.2 593.54L351.18 594.52C351.18 595.5 350.2 595.5 349.22 595.5C348.25 595.5 347.27 595.5 346.29 594.52ZM347.27 606.25C346.29 605.27 345.31 604.29 346.29 603.32C346.29 602.34 347.27 602.34 348.25 602.34C350.21 602.34 351.18 603.32 352.16 604.3C352.16 605.28 351.18 605.28 351.18 605.28C350.2 606.26 350.2 606.26 348.25 606.26H347.27V606.25ZM346.29 394.07V392.11C346.29 391.13 346.29 391.13 347.27 391.13H348.25L349.23 392.11V397L348.25 397.98C348.25 398.96 347.27 398.96 347.27 397.98C346.29 397 346.29 396.02 346.29 394.07ZM351.18 616.03C352.16 617.01 351.18 617.01 351.18 617.01H348.25C347.27 617.01 346.29 616.03 346.29 614.08C347.27 614.08 347.27 613.1 348.25 614.08C349.22 614.07 351.18 615.05 351.18 616.03ZM348.25 627.76C347.27 626.78 346.29 625.8 346.29 624.83C347.27 623.85 348.25 623.85 349.22 623.85C349.22 623.85 350.2 623.85 350.2 624.83C352.16 624.83 352.16 625.81 352.16 626.79C352.16 627.77 351.18 627.77 349.23 627.77H348.25V627.76ZM347.27 641.45V638.52C347.27 638.52 348.25 637.54 349.23 637.54L352.16 639.5C352.16 640.48 352.16 641.46 351.18 641.46H347.27V641.45ZM348.25 246.42C348.25 247.4 349.23 247.4 349.23 247.4H350.21L356.08 249.36C359.01 249.36 362.92 251.32 365.86 253.27H367.82C373.69 254.25 378.58 253.27 384.44 254.25H389.33C391.29 253.27 394.22 253.27 396.17 254.25C401.06 254.25 405.95 253.27 409.86 252.29C413.77 251.31 417.68 250.33 422.57 250.33C423.55 250.33 425.5 250.33 427.46 249.35C432.35 249.35 436.26 249.35 440.17 251.31C441.15 252.29 443.1 252.29 444.08 252.29C447.01 252.29 447.01 252.29 447.01 249.36C447.01 248.38 447.01 246.43 445.05 245.45H444.07C442.11 243.49 441.14 242.52 438.2 242.52C438.2 241.54 437.22 241.54 436.24 242.52C435.26 243.5 434.28 243.5 433.31 243.5C432.33 243.5 430.38 242.52 428.42 242.52H401.04C399.08 243.5 397.13 243.5 395.17 243.5C392.24 243.5 390.28 243.5 387.35 244.48H382.46C380.5 245.46 378.55 245.46 376.59 245.46C374.63 245.46 372.68 245.46 369.75 246.44H348.25V246.42ZM352.16 655.14H351.18C349.22 655.14 349.22 655.14 348.25 654.16V652.2C349.23 651.22 350.21 651.22 351.18 651.22C351.18 652.2 352.16 652.2 352.16 652.2C353.13 653.19 353.13 654.16 352.16 655.14ZM352.16 665.9C352.16 666.88 351.18 667.86 350.2 667.86C349.22 667.86 348.24 666.88 348.24 665.9C348.24 663.94 349.22 662.97 350.2 663.94C351.18 663.94 352.16 664.92 352.16 665.9ZM351.18 672.74C352.16 672.74 352.16 672.74 352.16 673.72C352.16 675.68 352.16 675.68 351.18 675.68C349.22 675.68 349.22 675.68 349.22 674.7C349.22 673.72 350.2 672.74 351.18 672.74ZM353.13 126.15C352.15 126.15 351.17 126.15 351.17 125.17C350.19 125.17 350.19 124.19 351.17 123.21L354.1 126.14H353.13V126.15ZM354.11 384.29C354.11 385.27 354.11 386.25 353.13 387.22V388.2L352.15 387.22C352.15 386.24 352.15 384.29 351.17 383.31V379.4C351.17 379.4 351.17 378.42 352.15 378.42L353.13 379.4C353.13 380.38 354.11 381.36 354.11 381.36V384.29ZM355.09 132.02C354.11 132.02 353.13 131.04 352.16 131.04V129.08H353.14L355.09 132.02ZM357.05 139.84C355.09 138.86 354.12 138.86 353.14 136.91C353.14 136.91 353.14 135.93 354.12 135.93H355.1L358.03 138.86L357.05 139.84ZM358.02 373.53H357.04C357.04 374.51 358.02 375.49 357.04 375.49V376.47H356.06L353.13 368.65V367.67C353.13 366.69 354.11 365.71 355.09 366.69C356.07 366.69 357.05 367.67 357.05 369.62C357.05 370.6 357.05 372.56 358.02 373.53ZM355.09 143.75C355.09 142.77 355.09 142.77 356.07 142.77H357.05C358.03 143.75 359.98 143.75 359.98 144.73C360.96 144.73 360.96 145.71 360.96 145.71C360.96 146.69 359.98 146.69 359.98 146.69C358.02 146.68 356.07 145.7 355.09 143.75ZM360.96 362.78H359.98L356.07 356.91C356.07 356.91 355.09 355.93 356.07 354.95H359C359.98 356.91 361.93 358.86 361.93 360.82L360.96 362.78ZM359 343.22C360.96 344.2 361.93 345.18 361.93 346.15C362.91 347.13 362.91 348.11 362.91 349.08L361.93 350.06V349.08L358.02 346.15C357.04 346.15 357.04 345.17 357.04 345.17C356.06 344.19 356.06 343.21 357.04 343.21H359V343.22ZM361.93 153.53C360.95 153.53 359.97 152.55 359 151.57C358.02 151.57 358.02 150.59 358.02 149.61C358.02 149.61 359 148.63 359 149.61L362.91 152.54V153.52H361.93V153.53ZM359.98 320.73H360.96C363.89 320.73 366.83 322.69 366.83 325.62V326.6H365.85C364.87 325.62 363.89 324.64 361.94 324.64C361.94 323.66 360.96 323.66 359.98 323.66C359 323.66 359 322.68 358.02 321.7C358.02 321.71 359 320.73 359.98 320.73ZM359 331.49H360.96C361.94 333.45 363.89 334.42 363.89 336.38V337.36H362.91L359 334.43C358.02 333.45 358.02 332.47 358.02 332.47C358.02 331.49 359 331.49 359 331.49ZM359.98 158.42C359.98 158.42 359.98 157.44 360.96 157.44C361.94 156.46 361.94 157.44 361.94 157.44L367.81 160.37V161.35C366.83 161.35 365.85 162.33 364.88 162.33C363.9 161.35 361.95 160.37 360.97 160.37C360.96 159.39 360.96 159.39 359.98 158.42ZM359.98 302.15C359.98 301.17 359.98 301.17 360.96 300.19H364.87C365.85 301.17 366.83 301.17 366.83 302.15C364.87 303.13 362.92 303.13 361.94 303.13C360.96 304.11 359.98 303.13 359.98 302.15ZM360.96 309.98C362.92 309 364.87 309.98 366.83 311.94L367.81 312.92C367.81 313.9 367.81 313.9 366.83 313.9C364.87 313.9 362.92 312.92 361.94 312.92C360.96 312.92 359.98 312.92 359.98 311.94C359.98 310.95 359.98 310.95 360.96 309.98ZM368.78 169.17C365.85 169.17 363.89 168.19 361.94 166.24V164.28C361.94 163.3 361.94 163.3 362.92 163.3L365.85 165.26L369.76 168.19V169.17H368.78ZM363.89 174.06C363.89 174.06 363.89 173.08 364.87 173.08H365.85C367.81 175.04 370.74 176.01 373.67 177.97V178.95H371.71C369.75 178.95 367.8 177.97 365.84 176.99L363.89 174.06ZM366.82 183.84V182.86C366.82 181.88 367.8 181.88 367.8 181.88C369.76 183.84 371.71 183.84 373.67 184.81L377.58 186.77V187.75C376.6 187.75 375.62 187.75 375.62 188.73C371.71 187.75 368.78 186.77 366.82 183.84ZM368.78 191.66C369.76 190.68 370.74 190.68 370.74 190.68L374.65 192.64L382.47 194.6C384.43 194.6 386.38 195.58 388.34 197.53V198.51H386.38C384.42 197.53 381.49 197.53 379.54 197.53C375.63 196.55 372.7 194.6 369.76 192.64L368.78 191.66ZM373.67 201.44C372.69 201.44 372.69 200.46 372.69 199.48C373.67 199.48 373.67 199.48 374.65 200.46C376.61 200.46 377.58 201.44 379.54 201.44C381.5 202.42 384.43 201.44 386.38 202.42L390.29 204.38C390.29 205.36 390.29 206.34 389.31 206.34H388.33C383.44 206.34 378.55 205.36 374.64 202.43C374.65 202.42 373.67 202.42 373.67 201.44ZM379.53 298.24C381.49 298.24 383.44 299.22 384.42 300.2V301.18L379.53 299.22C379.53 299.22 379.53 298.24 378.55 298.24H379.53ZM388.34 322.69C384.43 322.69 381.5 321.71 380.52 318.78C380.52 318.78 379.54 317.8 380.52 317.8C380.52 317.8 380.52 316.82 381.5 317.8H382.48C384.44 318.78 386.39 319.76 388.35 321.71H389.33C389.33 321.71 390.31 322.69 389.33 322.69H388.34ZM381.49 307.04L382.47 308.02C385.4 309 388.34 309.98 392.25 309.98H393.23C395.19 310.96 397.14 309.98 399.1 309C401.06 309 403.01 308.02 404.97 308.02H405.95V309C403.99 310.96 401.06 312.91 398.13 313.89H394.22C390.31 313.89 386.4 312.91 383.46 310.96L380.53 308.03V307.05H381.49V307.04ZM405.94 328.55L403.01 331.48C400.08 333.44 397.14 335.39 394.21 334.41C391.28 335.39 387.37 333.43 384.43 332.45C384.43 331.47 383.45 331.47 383.45 331.47V330.49H384.43C388.34 331.47 392.25 331.47 396.16 330.49C398.12 330.49 400.07 329.51 401.05 328.53C403.01 327.55 403.98 327.55 405.94 327.55V328.55V328.55ZM387.36 302.15C386.38 302.15 386.38 301.17 387.36 301.17C388.34 301.17 388.34 301.17 388.34 300.19C392.25 300.19 396.16 299.21 400.07 297.26C402.03 297.26 403 297.26 404.96 296.28V297.26C402.03 300.19 399.09 302.15 395.18 303.13C394.2 304.11 393.22 303.13 393.22 303.13C393.22 303.13 393.22 304.11 392.24 304.11C391.26 303.13 390.28 303.13 389.31 303.13C388.34 303.13 388.34 302.15 387.36 302.15ZM391.27 189.71C389.31 189.71 388.34 188.73 388.34 186.78C388.34 185.8 388.34 185.8 390.3 184.82C391.28 184.82 391.28 185.8 391.28 186.78C391.28 186.78 391.28 187.76 392.26 187.76C392.25 188.73 392.25 189.71 391.27 189.71ZM403 258.15V261.08C402.02 262.06 401.04 263.04 400.07 263.04C398.11 264.02 395.18 265 393.23 265H392.25V265.98C395.18 266.96 398.12 267.94 401.05 269.89C403.01 269.89 403.98 270.87 405.94 270.87C407.9 271.85 408.87 271.85 410.83 271.85L417.67 273.8C419.63 273.8 421.58 274.78 423.54 275.76C425.5 275.76 426.47 275.76 427.45 276.74H428.43V275.76C427.45 275.76 427.45 275.76 427.45 274.78C422.56 270.87 419.63 265.98 417.67 260.11L415.71 256.2C415.71 256.2 414.73 255.22 414.73 256.2C413.75 256.2 412.77 255.22 412.77 256.2H405.93C403.97 257.18 402.02 256.2 399.09 256.2V257.18C398.11 257.18 396.16 256.2 394.2 257.18H388.33V258.16H392.24C395.17 259.14 397.13 259.14 400.06 258.16H403V258.15ZM393.22 176.02C393.22 177 392.24 177 392.24 177C391.26 177 391.26 177 390.28 176.02C389.3 176.02 389.3 175.04 390.28 174.06C390.28 173.08 391.26 173.08 392.24 174.06C392.24 174.06 393.22 174.06 393.22 175.04V176.02ZM401.05 343.22C399.09 344.2 398.12 344.2 397.14 344.2C394.21 344.2 392.25 344.2 391.27 343.22C390.29 343.22 390.29 342.24 390.29 342.24C389.31 342.24 390.29 341.26 390.29 341.26C394.2 341.26 397.13 340.28 400.07 339.3C401.05 338.32 402.03 338.32 403 338.32H405.93C405.93 338.32 406.91 339.3 405.93 339.3C404.96 341.27 403 342.24 401.05 343.22ZM395.18 159.39C394.2 158.41 393.22 158.41 392.25 158.41C391.27 158.41 391.27 157.43 391.27 156.45C390.29 156.45 390.29 155.47 391.27 155.47C391.27 155.47 392.25 154.49 393.23 155.47C394.21 155.47 395.19 156.45 395.19 158.4V159.39H395.18ZM395.18 141.79C394.2 141.79 393.22 141.79 392.25 140.81C391.27 140.81 391.27 139.83 391.27 138.85C392.25 138.85 393.23 137.87 393.23 138.85C394.21 138.85 395.19 139.83 396.16 140.81C396.16 141.79 396.16 141.79 395.18 141.79ZM406.91 318.78C406.91 318.78 406.91 319.76 405.93 319.76C405.93 320.74 404.95 321.72 403.97 321.72L396.15 324.65C395.17 324.65 394.19 323.67 393.22 323.67L392.24 322.69L393.22 321.71C394.2 321.71 395.18 320.73 396.15 320.73L402.02 318.77H406.91V318.78ZM397.14 123.21H395.18C394.2 123.21 393.22 123.21 393.22 122.23C392.24 122.23 392.24 121.25 393.22 120.27C393.22 120.27 394.2 119.29 394.2 120.27C396.16 120.27 397.13 121.25 397.13 122.23V123.21H397.14ZM397.14 112.46H395.18C394.2 112.46 393.22 111.48 393.22 110.5L394.2 109.52C396.16 108.54 397.13 109.52 398.11 111.48C399.09 112.46 398.11 112.46 397.14 112.46ZM403.98 350.07L403 351.05C401.04 351.05 399.09 352.03 398.11 353.01H396.15C396.15 352.03 395.17 352.03 395.17 351.05C396.15 350.07 396.15 350.07 397.13 350.07H403.98ZM399.09 361.8C399.09 360.82 398.11 360.82 398.11 359.84C398.11 359.84 398.11 358.86 399.09 358.86C400.07 357.88 401.05 357.88 402.02 357.88C403 357.88 403.98 357.88 404.95 358.86C403.97 358.86 403.97 359.84 402.99 359.84L401.03 361.8H399.09ZM400.07 369.62C400.07 368.64 401.05 367.66 402.03 367.66C403.01 367.66 403.99 368.64 403.99 368.64C403.99 369.62 403.01 370.6 402.03 370.6C401.05 370.6 400.07 370.6 400.07 369.62ZM403.98 376.47C403 376.47 403 376.47 402.02 377.45C402.02 376.47 401.04 376.47 401.04 376.47C400.06 375.49 400.06 375.49 401.04 374.51C401.04 374.51 402.02 374.51 402.02 373.53C403 373.53 403.98 373.53 404.95 374.51C404.96 375.49 404.96 375.49 403.98 376.47ZM403.98 665.9C403.98 666.88 404.96 667.86 403.98 668.83C403.98 669.81 403.98 670.79 403 670.79C402.02 670.79 401.04 669.81 401.04 668.83V666.87C401.04 665.89 401.04 664.91 403 664.91C403 665.9 403 665.9 403.98 665.9ZM404.96 658.08C403 658.08 402.03 656.12 402.03 655.15C401.05 654.17 402.03 653.19 403.99 653.19C404.97 653.19 406.92 655.15 405.95 656.12C405.94 657.1 404.96 658.08 404.96 658.08ZM402.02 385.27C402.02 384.29 403 384.29 403 384.29V385.27H402.02ZM405.94 194.59C405.94 195.57 405.94 195.57 404.96 195.57C403 194.59 403 194.59 403 192.64C403 191.66 403 191.66 403.98 191.66C404.96 191.66 405.94 191.66 405.94 192.64V194.59ZM404.96 598.43C403.98 598.43 403 598.43 403 597.45C403 595.49 403.98 595.49 404.96 595.49H405.94C406.92 596.47 407.9 596.47 407.9 597.45C407.9 598.43 406.92 598.43 405.94 598.43H404.96ZM407.89 630.7C408.87 632.66 408.87 632.66 406.91 632.66C404.95 632.66 403 631.68 403 629.73L403.98 628.75C403.98 627.77 404.96 627.77 404.96 627.77L407.89 630.7ZM408.87 606.25H404.96C403.98 605.27 403 604.29 403.98 603.32C404.96 603.32 404.96 602.34 405.94 602.34C406.92 602.34 408.87 604.3 409.85 605.27C409.85 606.25 409.85 606.25 408.87 606.25ZM407.89 617.99H404.96C403.98 617.99 403 617.01 403.98 615.06C403.98 615.06 404.96 614.08 404.96 615.06C406.92 615.06 407.89 616.04 408.87 617.02C408.87 617.99 408.87 617.99 407.89 617.99ZM407.89 642.43C407.89 643.41 406.91 644.39 405.93 644.39C404.95 644.39 403.97 642.43 403.97 641.46C403.97 639.5 404.95 639.5 405.93 639.5L407.89 642.43ZM410.83 177.97C410.83 177.97 410.83 178.95 409.85 178.95C408.87 178.95 407.89 177.97 407.89 176.99C407.89 176.99 407.89 176.01 408.87 176.01C409.85 176.02 410.83 176.99 410.83 177.97ZM410.83 163.3C411.81 162.32 411.81 162.32 412.79 162.32L413.77 163.3C413.77 164.28 413.77 164.28 412.79 164.28H411.81L410.83 163.3ZM416.69 146.68C417.67 146.68 417.67 147.66 417.67 147.66C418.65 147.66 418.65 148.64 418.65 148.64C417.67 149.62 417.67 149.62 416.69 149.62C415.71 149.62 415.71 149.62 414.73 148.64C413.75 148.64 414.73 147.66 414.73 146.69H416.69V146.68ZM421.58 133.97C420.6 133.97 418.65 133.97 418.65 132.99V131.03H420.61C420.61 132.01 421.59 132.99 421.59 132.99V133.97H421.58ZM449.94 267.93C447.98 265 445.05 263.04 444.07 260.11C443.09 260.11 442.11 259.13 442.11 258.15C441.13 256.19 440.15 255.22 438.2 255.22H436.24C435.26 254.24 434.28 254.24 433.31 254.24C431.35 254.24 429.4 256.2 427.44 257.17L426.46 258.15V261.08C427.44 261.08 427.44 261.08 428.42 260.1C429.4 260.1 429.4 259.12 430.38 259.12C431.36 258.14 432.34 257.16 433.31 257.16C434.29 257.16 434.29 257.16 434.29 258.14C434.29 259.12 434.29 260.1 433.31 261.07C432.33 262.05 430.38 264 428.42 264C427.44 264 427.44 264 427.44 264.98L428.42 265.96C429.4 267.92 429.4 267.92 431.35 266.94C432.33 266.94 433.31 265.96 433.31 264.98C434.29 264.98 435.27 264 435.27 264H437.23V264.98C437.23 266.94 435.27 267.91 434.3 269.87C434.3 269.87 432.34 270.85 432.34 271.83C432.34 272.81 433.32 272.81 434.3 273.78C434.3 275.74 434.3 275.74 435.28 274.76L439.19 271.83H441.15C442.13 272.81 442.13 273.78 441.15 274.76V275.74L437.24 278.67V279.65H438.22L448.98 282.58L461.69 285.51C463.65 285.51 464.62 286.49 466.58 286.49L455.82 275.73V274.75L449.94 267.93ZM431.36 178.95C433.32 178.95 434.29 178.95 435.27 179.93C436.25 179.93 436.25 179.93 437.23 180.91C438.21 181.89 437.23 182.87 436.25 182.87H434.29C433.31 182.87 432.33 182.87 430.38 181.89C429.4 181.89 429.4 180.91 429.4 179.93C429.4 178.95 430.38 178.95 431.36 178.95ZM430.38 156.46C430.38 155.48 430.38 155.48 431.36 155.48V156.46C431.36 157.44 431.36 157.44 430.38 158.42V156.46ZM432.34 151.57C432.34 152.55 432.34 153.53 431.36 152.55L432.34 151.57ZM437.23 174.06C437.23 174.06 436.25 175.04 435.27 175.04C434.29 175.04 433.31 174.06 432.34 173.08C431.36 173.08 431.36 172.1 432.34 172.1C433.32 171.12 433.32 171.12 434.3 171.12C435.28 171.12 436.26 171.12 437.23 172.1V174.06ZM439.18 128.1C439.18 132.01 439.18 135.92 438.2 139.83C437.22 140.81 437.22 141.79 436.24 141.79C434.28 144.72 434.28 147.66 433.31 150.59C433.31 150.59 433.31 151.57 432.33 151.57C432.33 148.64 433.31 145.7 433.31 142.77C433.31 138.86 433.31 134.95 435.27 132.01L437.23 126.14C437.23 125.16 437.23 124.18 438.21 124.18C439.19 125.16 439.19 125.16 439.19 126.14V128.1H439.18ZM446.03 312.91C447.01 312.91 447.99 312.91 447.99 313.89C447.99 313.89 447.99 314.87 447.01 314.87C447.01 315.85 446.03 315.85 446.03 316.83C444.07 317.81 442.12 317.81 440.16 317.81C439.18 317.81 437.23 317.81 436.25 316.83C435.27 316.83 435.27 315.85 434.29 315.85C434.29 314.87 434.29 314.87 435.27 314.87C438.2 314.87 441.14 313.89 443.09 312.91H446.03ZM438.2 214.15C439.18 214.15 441.13 215.13 441.13 216.11C440.15 217.09 438.2 217.09 437.22 216.11V214.15H438.2ZM448.96 321.71C448.96 320.73 449.94 321.71 449.94 321.71V322.69C447.98 324.65 446.03 325.62 443.1 326.6C442.12 326.6 441.14 326.6 441.14 325.62C440.16 324.64 440.16 323.66 441.14 322.69C442.12 322.69 444.07 322.69 445.05 321.71H448.96ZM442.11 211.22C441.13 211.22 440.15 210.24 441.13 209.27C441.13 208.29 441.13 207.31 442.11 207.31L446.02 209.27C446.02 210.25 446.02 210.25 445.04 211.22H442.11ZM443.09 162.33C442.11 162.33 442.11 161.35 442.11 160.37C442.11 160.37 442.11 159.39 443.09 159.39C443.09 159.39 444.07 160.37 444.07 161.35L443.09 162.33ZM448.96 205.35C447 205.35 445.05 205.35 444.07 203.39V202.41C444.07 201.43 445.05 200.45 446.03 200.45L450.92 204.36C450.92 204.36 450.92 205.34 449.94 205.34C449.94 205.35 448.96 206.33 448.96 205.35ZM452.87 330.51C452.87 331.49 452.87 332.47 451.89 332.47C450.91 333.45 448.96 334.43 447 334.43C446.02 334.43 445.04 334.43 445.04 332.47C445.04 331.49 446.02 331.49 446.02 331.49C447.98 330.51 449.93 330.51 450.91 330.51C451.89 329.53 452.87 330.51 452.87 330.51ZM447 148.64C447 147.66 447.98 147.66 448.96 146.69C448.96 147.67 448.96 147.67 449.94 148.64C448.96 148.64 448.96 149.62 447.98 148.64H447ZM449.94 665.9C450.92 664.92 451.9 665.9 451.9 665.9C451.9 666.88 450.92 667.86 450.92 667.86C450.92 669.82 449.94 671.77 448.96 673.73L447.98 674.71C447.98 674.71 447 674.71 447 673.73V671.77C447 669.81 447.98 667.86 448.96 665.9H449.94ZM452.87 198.51C451.89 198.51 449.94 197.53 448.96 196.55C448.96 195.57 447.98 194.59 447.98 193.62C447 193.62 447 192.64 447.98 192.64C447.98 190.68 448.96 190.68 449.94 191.66C451.9 193.62 452.87 195.57 454.83 196.55V197.53L453.85 198.51H452.87ZM449.94 337.35L455.81 335.39V336.37C454.83 337.35 453.85 339.3 451.9 339.3C451.9 340.28 450.92 340.28 449.94 340.28C449.94 340.28 448.96 339.3 448.96 338.32L449.94 337.35ZM454.83 133.97C454.83 134.95 453.85 134.95 452.87 135.93C451.89 135.93 450.91 134.95 450.91 133.97C450.91 132.99 451.89 132.01 452.87 132.01C453.85 132.02 454.83 132.99 454.83 133.97ZM458.74 191.66H457.76C454.83 191.66 450.92 186.77 450.92 183.84C450.92 182.86 450.92 182.86 451.9 182.86C452.88 182.86 453.86 182.86 453.86 183.84L456.79 187.75C456.79 188.73 457.77 189.71 458.75 189.71V191.66H458.74ZM456.78 117.35C457.76 117.35 457.76 118.33 457.76 118.33V119.31C456.78 120.29 455.8 120.29 454.83 119.31C454.83 118.33 453.85 118.33 454.83 117.35C455.8 116.37 455.8 116.37 456.78 117.35ZM455.8 653.19C454.82 652.21 454.82 652.21 454.82 649.28C453.84 648.3 454.82 647.32 455.8 646.35H457.76C458.74 648.31 457.76 652.22 456.78 653.19H455.8V653.19ZM459.72 181.88C456.79 180.9 455.81 177.97 454.83 176.01V174.05H456.79L459.72 181.88ZM460.69 105.61C461.67 105.61 461.67 106.59 461.67 106.59C461.67 107.57 460.69 107.57 459.71 107.57C458.73 108.55 457.75 107.57 457.75 106.59C456.77 106.59 456.77 105.61 457.75 105.61C457.76 104.64 458.74 104.64 460.69 105.61ZM460.69 350.07C460.69 351.05 459.71 351.05 459.71 351.05C458.73 351.05 457.75 351.05 457.75 350.07H460.69ZM457.76 637.54V635.58C457.76 634.6 457.76 633.62 458.74 632.65C459.72 631.67 460.7 631.67 460.7 633.63C461.68 634.61 461.68 636.56 460.7 637.54C460.7 638.52 459.72 638.52 459.72 638.52C458.74 638.52 458.74 637.54 457.76 637.54ZM461.67 98.77C461.67 97.79 460.69 97.7901 459.71 96.8101L460.69 95.8301C461.67 94.8501 462.65 94.8501 462.65 95.8301C463.63 95.8301 463.63 96.81 463.63 97.79H462.65L461.67 98.77ZM463.63 170.15C463.63 170.15 462.65 170.15 462.65 169.17L459.72 165.26V164.28C459.72 163.3 460.7 163.3 460.7 163.3H461.68C461.68 164.28 462.66 164.28 462.66 165.26C463.64 166.24 463.64 168.19 464.62 170.15H463.63ZM463.63 357.89C463.63 358.87 462.65 359.85 461.67 359.85C460.69 359.85 460.69 358.87 460.69 357.89C460.69 356.91 460.69 356.91 461.67 356.91C462.65 356.91 463.63 357.89 463.63 357.89ZM461.67 620.92V618.96C461.67 617.98 462.65 617.98 463.63 617.98C464.61 617.98 465.59 618.96 465.59 619.94V620.92C465.59 621.9 464.61 622.88 464.61 622.88C463.63 622.87 461.67 622.87 461.67 620.92ZM463.63 156.46V155.48C464.61 154.5 464.61 153.52 465.59 153.52L466.57 154.5C466.57 155.48 467.55 156.46 467.55 157.43L470.48 161.34V162.32H469.5C469.5 162.32 468.52 162.32 467.54 161.34L463.63 156.46ZM463.63 368.64C463.63 366.68 463.63 366.68 465.59 366.68C466.57 366.68 466.57 366.68 466.57 368.64C466.57 369.62 466.57 370.6 464.61 370.6C463.63 369.62 463.63 369.62 463.63 368.64ZM469.49 595.5H468.51C466.55 595.5 464.6 593.54 463.62 591.59V590.61C463.62 589.63 463.62 588.65 464.6 588.65H467.53C468.51 590.61 469.49 592.56 469.49 594.52V595.5ZM467.54 607.23C467.54 608.21 468.52 608.21 467.54 609.19C466.56 609.19 465.58 609.19 465.58 608.21C464.6 607.23 463.62 606.25 463.62 604.3C463.62 603.32 463.62 602.34 464.6 602.34C464.6 602.34 466.56 602.34 466.56 603.32C467.54 604.3 467.54 606.25 467.54 607.23ZM471.45 582.78H470.47L467.54 579.85C466.56 579.85 466.56 578.87 466.56 578.87C466.56 576.91 467.54 575.94 468.52 576.91C468.52 576.91 469.5 576.91 469.5 577.89C470.48 578.87 471.46 579.85 471.46 581.8V582.78H471.45ZM472.43 154.5C469.5 154.5 467.54 151.57 467.54 148.63V147.65C468.52 146.67 468.52 146.67 469.5 147.65C470.48 149.61 470.48 151.56 472.43 153.52V154.5ZM472.43 148.64C470.47 147.66 468.52 143.75 469.5 141.8C469.5 140.82 470.48 140.82 470.48 139.84L471.46 140.82L473.42 145.71V146.69C474.4 147.67 474.4 147.67 474.4 148.64H472.43V148.64ZM471.45 176.99C472.43 176.99 471.45 177.97 471.45 177.97V178.95C471.45 179.93 471.45 179.93 470.47 179.93C470.47 179.93 469.49 177 470.47 177C470.47 176.02 471.45 176.02 471.45 176.02V176.99ZM475.36 139.84C473.4 137.88 472.43 135.93 472.43 133.97C472.43 132.99 473.41 132.99 474.39 132.99C475.37 132.99 475.37 132.99 475.37 133.97C475.37 135.93 476.35 136.9 476.35 138.86V139.84H475.36V139.84ZM478.29 132.02C478.29 132.02 477.31 132.02 477.31 131.04C477.31 130.06 476.33 129.08 476.33 128.11V126.15L477.31 125.17C478.29 125.17 478.29 126.15 478.29 126.15C478.29 128.11 479.27 129.08 479.27 131.04L478.29 132.02ZM478.29 168.19C477.31 167.21 476.33 166.23 476.33 165.26C476.33 164.28 477.31 163.3 477.31 163.3C478.29 163.3 478.29 163.3 479.27 164.28C480.25 164.28 480.25 165.26 480.25 166.24V167.22C480.25 167.22 480.25 168.2 479.27 168.2H478.29V168.19ZM481.23 124.19H480.25C479.27 123.21 479.27 121.26 479.27 120.28C479.27 119.3 480.25 119.3 481.23 119.3V124.19ZM487.09 327.58C486.11 327.58 486.11 328.56 486.11 328.56C485.13 330.52 483.18 331.49 482.2 332.47C480.24 333.45 479.27 332.47 480.24 330.51V329.53L483.17 326.6C483.17 325.62 484.15 325.62 485.13 325.62C486.12 325.62 487.09 325.62 487.09 327.58ZM482.2 400.91C483.18 400.91 484.16 400.91 484.16 401.89C484.16 402.87 483.18 401.89 483.18 401.89C482.2 401.89 481.22 401.89 481.22 400.91H482.2ZM483.18 642.43C483.18 641.45 484.16 640.47 484.16 640.47C485.14 639.49 486.12 640.47 487.09 641.45C487.09 641.45 488.07 642.43 488.07 643.41C488.07 644.39 488.07 645.37 487.09 645.37C485.14 645.36 484.16 644.39 483.18 642.43ZM487.09 152.55H488.07C489.05 153.53 489.05 156.46 489.05 157.44C488.07 158.42 488.07 158.42 487.09 158.42C486.11 157.44 485.13 155.49 485.13 154.51C485.14 152.55 486.12 151.57 487.09 152.55ZM486.12 335.4C486.12 333.44 487.1 332.47 489.05 332.47C491 332.47 491.98 332.47 491.98 334.43C491.98 336.38 490.02 337.36 488.07 337.36C487.09 337.35 486.12 336.38 486.12 335.4ZM489.05 424.38C489.05 424.38 488.07 423.4 488.07 422.42C488.07 422.42 488.07 421.44 489.05 421.44C491.01 421.44 491.98 422.42 491.98 422.42C491.98 423.4 492.96 423.4 491.98 424.38H489.05ZM493.94 146.68V147.66C493.94 147.66 493.94 148.64 492.96 148.64C492.96 148.64 491.98 148.64 491.98 147.66H491V145.7C491.98 144.72 491.98 144.72 492.96 144.72C493.94 144.73 493.94 145.7 493.94 146.68ZM491.98 617.99C491.98 617.01 491.98 617.01 492.96 617.01C492.96 617.01 493.94 616.03 493.94 617.01H494.92C495.9 617.99 495.9 618.97 495.9 618.97C495.9 619.95 493.94 619.95 492.97 619.95C491.98 619.94 491.98 618.96 491.98 617.99ZM497.85 448.83C497.85 448.83 498.83 449.81 497.85 449.81C497.85 450.79 496.87 450.79 496.87 450.79H495.89C494.91 449.81 494.91 449.81 493.93 449.81C493.93 448.83 493.93 447.85 494.91 446.88H495.89L497.85 448.83ZM496.87 684.48C496.87 683.5 495.89 683.5 495.89 683.5C496.87 682.52 496.87 682.52 497.85 682.52H498.83C498.83 682.52 499.81 683.5 500.79 683.5V684.48C500.79 685.46 499.81 685.46 499.81 685.46C498.83 685.45 497.85 684.48 496.87 684.48ZM497.85 594.52C497.85 593.54 496.87 592.56 496.87 591.59C495.89 590.61 495.89 589.63 496.87 588.66H498.83C499.81 589.64 500.79 589.64 500.79 591.59L499.81 592.57C498.83 592.57 498.83 593.55 498.83 594.53V595.51L497.85 594.52ZM509.58 382.33V383.31C506.65 383.31 503.71 382.33 500.78 380.38L497.85 376.47C497.85 376.47 497.85 375.49 498.83 375.49H499.81C500.79 377.45 503.72 378.42 506.65 379.4L509.58 382.33ZM502.74 476.2C503.72 477.18 503.72 477.18 503.72 478.16H500.79C498.83 478.16 498.83 476.2 498.83 475.23C498.83 474.25 500.79 474.25 501.76 474.25C501.76 475.23 502.74 476.2 502.74 476.2ZM500.78 678.61C500.78 678.61 499.8 678.61 499.8 677.63C499.8 677.63 498.82 677.63 499.8 676.65H500.78C502.74 676.65 503.71 677.63 505.67 677.63C506.65 678.61 508.6 678.61 510.56 679.59H511.54C511.54 680.57 512.52 681.55 512.52 681.55C512.52 682.53 511.54 681.55 510.56 682.53C506.65 681.54 503.72 680.57 500.78 678.61ZM499.81 564.21C500.79 563.23 500.79 563.23 501.77 563.23L503.73 565.19V566.17L502.75 567.15C501.77 567.15 501.77 567.15 500.79 566.17C499.81 566.16 499.81 565.18 499.81 564.21ZM502.74 505.54C503.72 505.54 503.72 506.52 503.72 506.52C504.7 508.48 504.7 508.48 502.74 508.48C501.76 509.46 500.78 508.48 500.78 507.5C499.8 506.52 499.8 505.54 500.78 505.54C501.76 504.56 502.74 504.56 502.74 505.54ZM504.69 538.78C503.71 538.78 501.76 538.78 500.78 537.8C499.8 537.8 499.8 536.82 500.78 536.82C500.78 535.84 501.76 535.84 501.76 535.84C503.72 535.84 504.69 536.82 504.69 537.8V538.78ZM510.56 657.1C507.63 658.08 505.67 659.06 502.74 659.06H501.76V657.1H502.74C504.7 656.12 506.65 656.12 508.61 656.12H510.57C511.55 656.12 511.55 656.12 511.55 657.1H510.56ZM513.49 389.18C515.45 390.16 517.4 391.14 519.36 393.09C519.36 394.07 520.34 395.05 520.34 395.05C520.34 396.03 519.36 396.03 519.36 396.03C518.38 396.03 517.4 395.05 516.43 395.05C514.47 394.07 512.52 392.12 509.59 392.12C508.61 391.14 507.63 391.14 506.66 391.14C504.7 390.16 503.73 389.18 502.75 387.23V386.25C503.73 386.25 503.73 387.23 503.73 387.23C505.69 388.21 506.66 389.19 508.62 389.19H513.49V389.18ZM526.21 405.8C526.21 405.8 527.19 406.78 527.19 407.76H526.21C525.23 407.76 523.28 406.78 522.3 406.78C520.34 404.82 517.41 402.87 514.48 401.89C511.55 400.91 509.59 398.96 506.66 397C506.66 396.02 505.68 396.02 506.66 395.04C506.66 394.06 507.64 395.04 507.64 395.04L512.53 397.97C515.46 399.93 518.4 400.9 520.35 400.9C523.27 401.89 524.25 403.85 526.21 405.8ZM537.94 632.65C535.01 631.67 532.07 631.67 528.16 633.63C526.2 633.63 524.25 634.61 522.29 635.59H518.38C515.45 636.57 513.49 636.57 510.56 636.57H507.63C507.63 635.59 508.61 635.59 508.61 635.59C508.61 634.61 509.59 634.61 510.57 634.61C511.55 634.61 512.53 634.61 513.5 633.63C517.41 633.63 521.32 632.65 524.26 631.67L528.17 629.71C530.13 629.71 531.1 629.71 532.08 628.73C535.01 629.71 536.97 629.71 538.92 631.66L537.94 632.65ZM516.43 647.32C514.47 647.32 513.5 647.32 511.54 648.3H508.61V647.32C509.59 646.34 511.54 646.34 512.52 646.34C513.5 645.36 515.45 645.36 517.41 645.36L525.23 647.32C526.21 647.32 527.19 647.32 527.19 648.3C527.19 649.28 526.21 648.3 525.23 648.3C523.27 648.3 522.3 648.3 521.32 647.32H516.43ZM526.21 413.62C529.14 415.58 531.1 416.55 533.05 419.49C533.05 420.47 534.03 421.45 534.03 422.42H533.05L520.34 414.6C517.41 412.64 514.47 410.69 512.52 407.76V406.78C512.52 406.78 512.52 405.8 513.5 405.8C515.46 407.76 517.41 409.71 520.34 410.69L526.21 413.62ZM538.92 617.01C539.9 617.01 539.9 617.01 539.9 617.99C538.92 618.97 537.94 618.97 535.99 618.97C534.03 619.95 531.1 619.95 529.15 619.95C525.24 619.95 521.33 620.93 517.42 621.91C516.44 622.89 515.46 622.89 513.51 622.89C514.49 621.91 514.49 620.93 515.47 620.93C517.43 618.97 521.34 618 524.27 617.02C527.2 616.04 530.14 616.04 533.07 616.04C535.01 616.03 536.96 616.03 538.92 617.01ZM537.94 433.18C537.94 434.16 537.94 434.16 538.92 435.14H536.96L529.14 429.27L522.3 426.34L518.39 422.43C517.41 422.43 517.41 421.45 517.41 421.45V420.47H518.39C521.32 423.4 524.26 424.38 528.17 425.36C532.07 426.34 535.98 429.27 537.94 433.18ZM543.81 448.83V449.81C543.81 450.79 543.81 450.79 542.83 450.79L536.96 446.88C534.03 443.95 531.09 441.99 527.18 440.04H525.22C525.22 439.06 525.22 439.06 526.2 439.06C528.16 439.06 529.13 439.06 530.11 440.04C534.02 441.02 537.93 442 540.87 444.93L543.81 448.83ZM547.72 464.47L548.7 465.45C547.72 466.43 547.72 465.45 546.74 465.45L539.9 462.52C535.99 460.56 533.06 458.61 530.12 455.68C530.12 454.7 529.14 453.72 529.14 452.75V451.77L530.12 452.75L535.01 456.66L541.85 459.59C543.81 460.57 545.76 461.55 547.72 463.5V464.47ZM535.01 603.32C535.01 603.32 534.03 604.3 533.05 604.3H531.09C530.11 604.3 530.11 604.3 530.11 603.32C531.09 603.32 532.07 602.34 532.07 602.34L539.89 600.38H540.87V601.36L535.01 603.32ZM530.12 649.28H535.01L540.88 651.24L555.55 659.06L564.35 661.99H569.24C570.22 662.97 571.2 661.99 572.17 661.99C573.15 662.97 573.15 662.97 574.13 662.97V663.95C573.15 663.95 572.17 664.93 571.2 664.93C569.24 665.91 567.29 665.91 566.31 665.91C560.44 665.91 555.55 663.95 550.67 661.02L542.85 655.15L535.03 651.24C533.07 651.24 532.1 650.26 531.12 650.26L530.12 649.28ZM552.61 477.18C552.61 478.16 551.63 478.16 550.66 478.16C549.68 478.16 547.73 477.18 545.77 476.2L536.97 473.27H535.99C535.99 473.27 535.01 473.27 535.01 472.29C535.01 472.29 535.99 472.29 535.99 471.31H538.92C542.83 472.29 546.74 473.27 550.65 475.22C551.63 475.22 551.63 475.22 551.63 476.2C552.61 476.2 552.61 476.2 552.61 477.18ZM535.98 566.16H535C536.96 563.23 538.91 562.25 541.84 561.27C541.84 562.25 542.82 562.25 542.82 562.25V563.23L535.98 566.16ZM535.98 578.87C535 577.89 535 576.91 535 576.91C535.98 576.91 535.98 575.93 536.96 575.93C538.92 575.93 540.87 574.95 541.85 574.95H542.83V575.93L535.98 578.87ZM542.83 587.67V588.65C540.87 588.65 538.92 589.63 536.96 590.61C535.98 590.61 535.98 589.63 535.98 589.63C536.96 588.65 537.94 588.65 538.91 588.65C539.89 587.67 540.87 587.67 541.84 587.67H542.83ZM545.76 550.52L539.89 553.45H538.91L537.93 552.47V551.49C538.91 551.49 538.91 550.51 539.89 550.51C541.85 549.53 543.8 548.55 545.76 548.55C545.76 547.57 546.74 547.57 546.74 548.55C547.72 548.55 547.72 548.55 547.72 549.53C546.74 550.52 546.74 550.52 545.76 550.52ZM554.56 488.91L555.54 489.89C554.56 489.89 554.56 490.87 554.56 490.87H550.65C548.69 490.87 545.76 490.87 543.81 489.89C542.83 488.91 541.85 488.91 540.88 488.91C539.9 487.93 539.9 487.93 539.9 486.95C540.88 486.95 540.88 485.97 540.88 486.95H542.84C546.75 486.95 549.68 487.93 553.6 488.91H554.56ZM559.45 504.56H558.47V505.54C554.56 504.56 550.65 503.58 547.71 503.58C545.75 503.58 544.78 503.58 542.82 502.6V501.62H543.8C545.76 501.62 548.69 501.62 550.64 500.64C553.57 500.64 555.53 501.62 557.48 502.6L559.45 504.56ZM543.81 635.59C544.79 634.61 544.79 634.61 545.77 634.61C548.7 635.59 551.64 636.57 554.57 638.52C556.53 639.5 559.46 640.48 560.44 642.43C563.37 645.36 566.31 646.34 569.24 646.34C570.22 647.32 571.2 647.32 572.17 647.32V649.28C571.19 650.26 570.21 650.26 569.24 650.26C564.35 650.26 560.44 648.3 558.48 645.37C555.55 641.46 551.64 638.53 547.72 637.55C546.74 637.55 545.76 636.57 544.79 636.57L543.81 635.59ZM560.43 516.29C560.43 517.27 560.43 517.27 559.45 517.27C557.49 517.27 556.52 518.25 554.56 517.27C552.6 517.27 550.65 517.27 549.67 516.29H544.78V515.31H545.76C547.72 514.33 549.67 514.33 551.63 514.33C554.56 514.33 556.52 514.33 559.45 515.31C559.45 516.29 559.45 516.29 560.43 516.29ZM544.78 531.94C544.78 530.96 544.78 530.96 545.76 530.96H547.72C548.7 530.96 548.7 531.94 547.72 531.94C547.72 531.94 546.74 532.92 545.76 532.92C544.78 532.92 544.78 531.94 544.78 531.94ZM569.23 562.25V564.21H566.3L557.5 562.25H556.52C553.59 562.25 549.68 561.27 546.74 562.25L544.78 561.27C544.78 560.29 545.76 560.29 546.74 560.29C547.72 560.29 548.7 559.31 549.67 559.31C552.6 559.31 556.51 558.33 560.43 559.31C563.36 559.31 565.32 560.29 568.25 561.27L569.23 562.25ZM546.74 620.92C546.74 620.92 545.76 620.92 545.76 619.94C545.76 619.94 545.76 618.96 546.74 618.96H549.67C553.58 618.96 557.49 619.94 560.43 621.89L564.34 624.82C566.3 625.8 568.25 627.75 570.21 629.71C571.19 630.69 571.19 630.69 571.19 631.67V632.65H568.26L564.35 630.69C563.37 629.71 563.37 628.73 562.39 628.73C560.43 625.8 556.52 623.84 553.59 622.86L546.74 620.92ZM571.19 576.92C571.19 577.9 570.21 577.9 569.23 577.9H568.25C565.32 577.9 563.36 576.92 560.43 575.94C557.5 575.94 555.54 574.96 552.61 574.96H550.66L549.68 573.98H550.66C551.64 573.98 552.61 573 554.57 573C555.55 573 557.5 572.02 559.46 573C563.37 573 566.3 573.98 569.24 574.96C569.24 574.96 570.22 574.96 570.22 575.94L571.19 576.92ZM572.16 594.52H571.18C568.25 594.52 565.31 593.54 563.36 592.56L553.58 588.65H549.67C549.67 587.67 549.67 587.67 550.65 587.67C552.6 587.67 553.58 586.69 556.52 586.69C560.43 586.69 564.34 587.67 568.25 590.6C570.21 591.59 571.19 592.56 572.16 594.52ZM571.19 610.16C571.19 610.16 572.17 611.14 572.17 612.12H571.19C570.21 612.12 568.26 612.12 567.28 611.14L563.37 608.21C561.41 606.25 559.46 605.28 557.5 604.3C555.54 603.32 553.59 603.32 551.63 603.32L550.65 602.34C552.6 601.36 554.56 601.36 556.52 601.36C560.43 602.34 564.34 603.32 567.28 605.27L571.19 610.16ZM562.39 530.96C563.37 531.94 564.35 531.94 564.35 532.92V533.9H560.44C558.48 532.92 556.53 531.94 554.57 531.94C553.59 531.94 552.61 531.94 552.61 530.96C552.61 529.98 553.59 529.98 554.57 529L562.39 530.96ZM568.25 550.52C568.25 551.5 566.29 551.5 565.32 550.52C564.34 550.52 562.39 550.52 560.43 549.54H554.56C554.56 548.56 553.58 549.54 553.58 548.56C553.58 548.56 552.6 548.56 552.6 547.58C552.6 547.58 553.58 547.58 553.58 546.6H558.47C561.4 546.6 564.34 547.58 566.29 548.56C567.27 548.56 568.25 549.54 568.25 550.52ZM582.92 618.96V619.94C580.96 618.96 579.01 617.98 577.05 617.98C576.07 617.98 576.07 617 576.07 616.02C576.07 615.04 576.07 615.04 577.05 615.04L579.98 617C580.96 617 581.94 617.98 582.91 617.98C583.88 617.98 583.89 618.96 583.89 618.96H582.92ZM584.87 634.61L583.89 635.59H579.98C579 635.59 578.02 634.61 578.02 634.61C577.04 634.61 577.04 633.63 577.04 633.63C578.02 633.63 578.02 632.65 578.02 632.65C579.98 632.65 581.93 633.63 583.89 634.61H584.87ZM579.01 649.28C580.97 650.26 581.94 650.26 582.92 650.26V651.24C581.94 651.24 579.99 652.22 579.01 652.22C578.03 652.22 577.05 651.24 577.05 651.24C578.03 650.26 578.03 650.26 579.01 650.26V649.28Z" fill="url(#paint0_linear_606_38)"/>
<defs>
<linearGradient id="paint0_linear_606_38" x1="182" y1="84" x2="607" y2="706" gradientUnits="userSpaceOnUse">
<stop stop-color="#CD8258"/>
<stop offset="1" stop-color="#74453A"/>
</linearGradient>
</defs>
</svg>
