<svg width="790" height="790" viewBox="0 0 790 790" fill="none" xmlns="http://www.w3.org/2000/svg">
<path d="M590.11 358.936L588.15 368.716C588.15 370.676 588.15 372.626 587.17 375.556C587.17 378.486 586.19 381.425 585.21 384.355L578.37 406.845C577.39 409.775 576.41 412.716 576.41 415.646C574.45 420.536 574.45 425.426 572.5 429.336L569.57 442.046V461.605L570.55 462.586C572.51 464.546 573.48 466.496 574.46 469.426C575.44 471.386 574.46 473.336 573.48 475.296L570.55 481.166L565.66 488.005L557.84 500.716C555.88 502.676 553.93 505.606 551 507.556C549.04 510.486 546.11 511.466 543.18 512.446L539.27 514.406H536.34C534.38 514.406 532.43 515.385 531.45 516.365L517.76 520.276C511.89 522.236 507 525.165 502.12 527.115C500.16 529.075 499.19 531.025 497.23 532.005C497.23 532.985 497.23 533.966 496.25 533.966C496.25 536.896 495.27 538.856 494.29 541.786C493.31 545.696 492.33 549.606 493.31 553.516V559.385C493.31 562.315 492.33 565.256 491.35 567.206C491.35 569.166 490.37 570.135 489.39 571.115L488.41 572.095L485.48 576.005L481.57 580.896C479.61 583.826 476.68 585.785 472.77 587.735L465.93 593.605C463.97 595.565 462.02 597.515 460.06 598.495C457.13 599.475 453.22 601.425 450.28 604.365L446.37 606.326C442.46 608.286 438.55 610.236 434.64 611.216C430.73 613.176 427.8 614.145 423.88 615.125C419.97 617.085 416.06 618.056 411.17 619.036C408.24 619.036 405.3 620.015 401.39 620.995L392.59 622.956C390.63 622.956 387.7 622.956 385.75 623.936H380.86C379.88 624.916 376.95 624.916 374.99 624.916C374.01 625.896 373.03 625.896 372.06 625.896H366.19L359.35 627.855H356.42C355.44 627.855 354.46 626.875 353.49 626.875C347.62 628.835 340.78 627.855 334.91 627.855H322.2C320.24 627.855 319.27 627.855 318.29 626.875H312.42C309.49 625.895 307.53 625.896 304.6 625.896L298.73 623.936C295.8 623.936 292.86 622.956 290.91 622.956L279.18 620.026L264.51 616.115C259.62 614.155 254.73 612.206 249.84 609.276C242.02 605.366 235.17 601.456 229.31 596.566L219.53 587.766C218.55 585.806 216.6 584.835 215.62 583.855L211.71 577.985L204.87 566.255C203.89 564.295 202.91 561.366 202.91 559.416C202.91 554.526 202.91 550.616 203.89 546.706V526.176C204.87 525.196 203.89 525.196 203.89 524.216C201.93 522.256 200.96 520.305 199.98 517.375C199 515.415 199 513.466 199 510.536V509.556C199 506.626 199.98 504.665 199.98 501.735C199 500.755 199 499.776 199 497.826V492.936C199 491.956 199 490.975 199.98 490.975C200.96 489.995 200.96 489.016 200.96 488.046C200.96 487.066 200.96 486.085 201.94 485.115C201.94 484.135 202.92 483.156 203.9 483.156C204.88 482.176 205.86 481.195 205.86 480.225C204.88 477.295 205.86 473.386 205.86 470.446C205.86 468.486 204.88 465.555 205.86 463.605V437.206C206.84 434.276 205.86 431.336 206.84 427.426V417.646C207.82 412.756 207.82 407.866 207.82 403.956C207.82 402.976 206.84 401.996 206.84 401.026V400.046C207.82 397.116 207.82 394.175 207.82 391.245V371.686C208.8 369.726 208.8 366.795 208.8 364.845V348.225C209.78 345.295 208.8 343.336 209.78 340.406C209.78 338.446 209.78 335.516 210.76 333.566V324.766C211.74 321.836 211.74 317.925 211.74 314.985C211.74 312.055 211.74 308.145 212.72 304.225V295.426C213.7 291.516 212.72 287.606 213.7 283.696V277.826C213.7 276.846 213.7 276.845 212.72 276.845C211.74 276.845 211.74 276.845 210.76 275.865C208.8 273.905 206.85 271.956 206.85 269.026C206.85 264.136 206.85 259.245 207.83 254.355C207.83 249.465 208.81 245.556 209.79 241.646C209.79 238.716 211.75 236.756 214.68 235.776C215.66 235.776 215.66 234.796 215.66 233.816C215.66 229.906 217.62 226.976 219.57 224.036L225.44 216.216C227.4 215.236 228.37 213.286 229.35 212.306L232.28 204.486C233.26 202.526 234.24 200.576 234.24 197.646V193.736C234.24 190.806 235.22 188.846 237.17 186.896C239.13 183.966 241.08 182.986 243.04 182.006C246.95 179.076 250.86 178.096 255.75 177.116H258.68C258.68 177.116 259.66 177.116 259.66 176.136L262.59 173.206C263.57 172.226 264.55 172.226 266.5 172.226H270.41C271.39 172.226 272.37 171.246 273.34 170.266C275.3 167.336 278.23 165.375 282.14 165.375C285.07 164.395 288.01 165.376 289.96 167.336C290.94 167.336 291.92 168.316 293.87 167.336C295.83 165.376 299.74 165.375 302.67 165.375C304.63 166.355 306.58 166.356 308.54 166.356C310.5 167.336 313.43 167.336 315.38 167.336H316.36C319.29 167.336 322.23 167.336 325.16 166.356C326.14 165.376 328.09 164.396 330.05 164.396C332.01 163.416 332.98 163.416 334.94 163.416C335.92 162.436 337.87 162.436 338.85 162.436C340.81 161.456 342.76 162.436 343.74 162.436C344.72 163.416 345.7 163.416 346.67 163.416C348.63 164.396 349.6 164.396 351.56 163.416H361.34C362.32 163.416 364.27 163.416 366.23 164.396C367.21 164.396 368.19 165.375 370.14 165.375H377.96C380.89 165.375 383.83 166.356 386.76 166.356L387.74 167.336C389.7 169.296 391.65 168.315 392.63 168.315C396.54 167.335 399.47 167.336 401.43 169.296C402.41 170.276 403.39 170.276 403.39 170.276C404.37 171.256 404.37 171.256 405.35 171.256C406.33 171.256 407.31 172.236 409.26 172.236C412.19 172.236 416.1 172.236 420.02 173.216L427.84 175.176L433.71 177.136C436.64 178.116 439.58 178.116 441.53 180.066C444.46 181.046 446.42 183.976 446.42 186.906C446.42 189.836 446.42 192.776 447.4 194.726V198.636L451.31 206.456L454.24 210.366L461.08 218.186C463.04 219.166 464.99 222.096 464.99 225.026C465.97 226.006 465.97 227.956 465.97 228.936C465.97 229.916 465.97 230.895 466.95 231.865C468.91 232.845 469.88 234.796 470.86 236.756V237.735C471.84 238.715 471.84 240.665 471.84 242.625C471.84 243.605 472.82 243.605 472.82 243.605C475.75 242.625 477.71 240.676 479.66 239.696C482.59 238.716 485.53 237.735 489.44 237.735C491.4 237.735 494.33 236.756 496.28 236.756C501.17 236.756 506.06 235.776 510.95 235.776C516.82 234.796 521.71 231.866 527.57 228.936L539.3 222.095L544.19 218.186L548.1 215.256L557.88 210.366L564.72 207.436H569.61C570.59 207.436 574.5 207.436 575.48 208.416C575.48 208.416 576.46 208.416 576.46 209.396C576.46 210.376 576.46 211.355 575.48 211.355H572.55C568.64 211.355 563.75 212.336 559.84 214.286L550.06 220.156C548.1 221.136 546.15 223.086 545.17 225.046L540.28 228.956L530.5 235.796L514.85 241.666C512.89 241.666 509.96 241.666 508.01 242.646C505.08 242.646 502.14 242.645 499.21 243.625H497.25C496.27 243.625 494.32 243.625 492.36 244.605C488.45 244.605 484.54 245.586 480.63 246.566H479.65L473.78 249.495V250.475C474.76 253.405 474.76 257.316 474.76 260.256C474.76 262.216 474.76 262.215 476.72 261.235L485.52 259.276C487.48 259.276 489.43 258.296 491.39 258.296L498.23 256.336H505.07L506.05 257.316H505.07C504.09 258.296 504.09 258.296 503.11 258.296L498.22 260.256C496.26 262.216 493.33 264.166 490.4 264.166C487.47 265.146 483.56 266.125 480.62 266.125L475.73 268.086C474.75 269.066 472.8 269.066 472.8 271.016C471.82 271.996 471.82 271.995 471.82 272.975C470.84 273.955 469.86 274.936 467.91 274.936C465.95 273.956 464 274.936 462.04 275.916C461.06 275.916 461.06 276.895 461.06 277.875C461.06 279.835 461.06 281.785 462.04 283.745C462.04 285.705 462.04 288.636 463.02 290.586C463.02 291.566 462.04 292.546 463.02 293.516C462.04 295.476 463.02 297.426 462.04 299.386C462.04 300.366 461.06 300.365 461.06 300.365V299.386C460.08 297.426 459.1 295.476 459.1 293.516C458.12 291.556 459.1 289.606 458.12 286.676V278.855L457.14 277.875H456.16C453.23 278.855 451.27 278.855 448.34 278.855C446.38 279.835 445.41 279.836 443.45 279.836C439.54 279.836 434.65 281.795 431.72 283.745C428.79 284.725 428.79 287.655 427.81 289.615V299.396L425.85 302.326C424.87 303.306 424.87 303.306 425.85 304.286V309.176L427.81 316.995V321.886C427.81 323.846 427.81 326.776 428.79 329.706V336.546C429.77 339.476 429.77 342.415 429.77 345.345C429.77 348.275 429.77 351.216 430.75 354.146V360.985C431.73 363.915 430.75 366.856 431.73 369.786V375.656C432.71 379.566 432.71 383.476 432.71 387.386C432.71 389.346 432.71 391.296 433.69 393.256V402.056C434.67 404.986 434.67 407.925 434.67 410.855C434.67 413.785 434.67 417.695 435.65 420.635V433.345C435.65 434.325 436.63 435.306 436.63 436.276V440.186C436.63 443.116 436.63 445.075 437.61 448.005C437.61 449.965 437.61 452.895 438.59 454.845V463.646L440.55 475.375V484.176C441.53 486.136 441.53 488.086 441.53 490.046L442.51 491.026C443.49 492.006 443.49 493.956 443.49 495.916C443.49 496.896 442.51 498.846 443.49 499.826C443.49 503.736 443.49 507.646 445.45 510.586C445.45 511.566 445.45 512.546 446.43 513.516C446.43 514.496 446.43 514.495 447.41 514.495C447.41 514.495 448.39 513.516 449.37 513.516L460.13 507.646C462.09 506.666 464.04 505.685 465.02 503.735L470.89 496.896L473.82 493.966C474.8 493.966 474.8 492.985 473.82 492.005C473.82 490.045 473.82 489.075 472.84 488.095C472.84 486.135 471.86 485.166 471.86 484.186V479.296C471.86 476.366 471.86 474.406 470.88 472.456V462.676C470.88 460.716 470.88 459.746 469.9 457.786C469.9 456.806 470.88 454.855 469.9 453.875C469.9 449.965 468.92 446.055 468.92 443.115C468.92 441.155 468.92 438.226 467.94 436.276V431.385C467.94 429.425 466.96 426.496 466.96 423.566C466.96 420.636 466.96 416.726 465.98 412.806V402.046C465 399.116 465 396.175 465 393.245C465 389.335 465 385.425 464.02 382.485V381.506C463.04 378.576 464.02 375.636 463.04 372.706C462.06 369.776 463.04 367.816 462.06 364.886V351.196C461.08 348.266 461.08 345.326 461.08 341.416C460.1 337.506 461.08 333.596 461.08 328.706C460.1 327.726 461.08 326.746 461.08 325.776C460.1 320.886 460.1 316.976 460.1 312.086C460.1 311.106 459.12 310.126 460.1 309.156H462.06C462.06 311.116 462.06 313.066 463.04 314.046V324.806C464.02 328.716 464.02 332.626 464.02 336.536C464.02 339.466 464.02 342.406 465 345.336V354.136C465 357.066 465 360.006 465.98 362.936C466.96 364.896 466.96 365.866 466.96 367.826V374.666C467.94 377.596 467.94 380.536 467.94 384.446C467.94 387.376 467.94 391.285 468.92 394.225C468.92 398.135 469.9 401.065 470.88 404.985V409.876C471.86 411.836 470.88 414.766 471.86 417.696V428.456C471.86 431.386 471.86 434.325 472.84 438.235C472.84 441.165 472.84 444.106 473.82 448.016C473.82 450.946 473.82 454.856 474.8 457.796C474.8 461.706 474.8 465.616 475.78 469.526C475.78 472.456 476.76 475.396 476.76 478.326C476.76 481.256 477.74 484.195 477.74 488.105C477.74 488.105 478.72 489.085 478.72 488.105C479.7 488.105 481.65 488.105 482.63 487.125H483.61V488.105L480.68 493.975L477.75 498.865L471.88 504.735L462.1 513.536C458.19 514.516 454.28 516.466 451.34 518.426C449.38 519.406 447.43 519.405 446.45 520.385L435.69 523.316C432.76 524.296 430.8 525.276 427.87 525.276C426.89 526.256 424.94 526.255 423.96 526.255C422 527.235 420.05 527.235 418.09 527.235C415.16 527.235 412.22 528.216 409.29 529.196C407.33 530.176 404.4 531.156 401.47 531.156L390.71 533.115C388.75 533.115 386.8 533.115 384.84 534.095H382.88C379.95 534.095 377.01 534.096 374.08 535.076H366.26C363.33 536.056 361.37 536.056 359.42 535.076H353.55C351.59 535.076 350.62 536.056 349.64 536.056C345.73 536.056 342.8 535.075 339.86 534.095H337.9C336.92 534.095 334.97 535.076 333.01 535.076C332.03 536.056 330.08 536.056 328.12 536.056H322.25C318.34 535.076 314.43 535.076 310.52 535.076C307.59 535.076 304.65 535.075 301.72 534.095L289.99 532.135C288.03 532.135 287.06 532.136 286.08 531.156H281.19C279.23 531.156 278.26 531.156 277.28 530.176C276.3 529.196 274.35 529.196 273.37 529.196C270.44 529.196 268.48 529.196 265.55 528.216C264.57 528.216 263.59 527.235 261.64 527.235C259.68 527.235 257.73 526.255 255.77 526.255C255.77 525.275 254.79 525.276 254.79 524.296C253.81 523.316 254.79 522.336 256.75 522.336C257.73 522.336 258.71 522.336 259.68 523.316C262.61 523.316 264.57 524.296 267.5 524.296H268.48C270.44 525.276 272.39 525.276 274.35 525.276C276.31 525.276 278.26 525.275 279.24 526.255L287.06 528.216H289.02C290 528.216 290.98 529.196 290.98 529.196C291.96 528.216 291.96 527.236 291.96 526.266C292.94 522.356 291.96 517.466 291.96 513.556C291.96 512.576 291.96 511.595 292.94 511.595C292.94 509.635 292.94 508.666 291.96 507.686V505.725C292.94 503.765 292.94 502.796 292.94 501.816V491.056C293.92 488.126 293.92 484.216 293.92 481.276C294.9 478.346 294.9 474.435 294.9 471.495C295.88 469.535 294.9 467.585 295.88 465.625V457.806C296.86 454.876 296.86 452.915 296.86 449.985C297.84 446.075 297.84 442.165 297.84 439.225L299.8 430.426V423.586C299.8 421.626 299.8 420.656 300.78 418.696H301.76C302.74 421.626 301.76 424.565 301.76 427.495C301.76 433.365 302.74 438.255 301.76 443.135V459.755C301.76 463.665 301.76 467.575 300.78 471.485V479.306C299.8 479.306 300.78 480.286 300.78 480.286C299.8 483.216 299.8 486.156 299.8 490.066C298.82 492.026 299.8 494.955 298.82 497.885V504.725C299.8 507.655 299.8 510.595 298.82 514.505C298.82 516.465 298.82 518.415 299.8 521.345V523.306C299.8 526.236 301.76 528.196 304.69 529.176C305.67 530.156 307.62 530.156 308.6 530.156H315.44C319.35 531.136 323.26 531.135 326.2 531.135H332.07C334.03 530.155 335.98 530.156 338.91 530.156C340.87 530.156 342.82 531.135 344.78 531.135H352.6C354.56 531.135 355.53 530.156 356.51 530.156H359.44C361.4 531.136 364.33 531.136 366.28 530.156C368.24 530.156 368.24 530.156 368.24 529.176C368.24 528.196 369.22 527.215 368.24 526.245V511.576C367.26 508.646 368.24 504.736 367.26 501.796V467.576C367.26 461.706 367.26 455.845 366.28 449.975C366.28 449.975 367.26 448.995 366.28 448.995C365.3 447.035 366.28 446.065 367.26 444.105V443.125C367.26 443.125 368.24 443.125 368.24 444.105V445.086C369.22 446.066 369.22 447.046 369.22 448.016C369.22 449.976 370.2 452.905 370.2 454.855C370.2 455.835 371.18 457.785 371.18 459.745V463.656C372.16 465.616 372.16 468.545 372.16 470.495V481.255C373.14 484.185 372.16 486.146 373.14 489.076C374.12 492.006 373.14 494.945 374.12 497.875V501.786C375.1 502.766 375.1 504.716 375.1 505.696V520.365C375.1 522.325 375.1 523.295 376.08 525.255V528.186C376.08 529.166 376.08 530.146 377.06 530.146C379.99 530.146 381.95 529.166 383.9 529.166C386.83 529.166 388.79 528.186 390.74 528.186L406.39 525.255L413.23 522.326C414.21 521.346 416.16 521.345 417.14 521.345C420.07 521.345 423.01 521.345 424.96 520.365L431.8 518.406C433.76 518.406 435.71 517.426 437.67 516.446C437.67 516.446 438.65 516.446 438.65 515.466C438.65 512.536 437.67 508.626 437.67 505.686V504.706C437.67 501.776 436.69 499.815 436.69 496.885V493.956C436.69 491.026 436.69 487.116 435.71 484.176V480.266C434.73 478.306 434.73 475.376 434.73 473.426C434.73 472.446 434.73 470.496 433.75 469.516C433.75 467.556 434.73 466.585 433.75 465.605V464.625C433.75 460.715 433.75 457.785 432.77 454.845C432.77 451.915 432.77 448.976 431.79 446.046V436.266C431.79 434.306 431.79 431.376 430.81 429.426V423.556C430.81 421.596 429.83 418.666 429.83 416.716C429.83 414.766 429.83 412.806 428.85 409.876V401.076C428.85 398.146 428.85 394.236 427.87 392.276C427.87 389.346 427.87 386.406 426.89 384.456V372.725C425.91 369.795 425.91 365.886 425.91 362.946C425.91 359.036 424.93 355.126 424.93 351.216V344.376C423.95 341.446 423.95 338.506 423.95 335.576V329.706C422.97 326.776 423.95 323.836 422.97 320.906C421.99 318.946 422.97 316.996 421.99 315.036C421.99 311.126 421.99 308.196 421.01 305.256C421.01 304.276 421.01 302.325 420.03 301.345V293.526C420.03 290.596 419.05 287.655 419.05 284.725H413.18C411.22 285.705 409.27 285.706 407.31 285.706C404.38 285.706 401.44 286.686 398.51 286.686L387.75 289.615C383.84 291.575 378.95 293.526 375.04 296.456L373.08 298.416C371.12 302.326 370.15 305.256 369.17 309.176C369.17 311.136 368.19 314.066 368.19 316.016V321.886C369.17 324.816 369.17 328.726 369.17 331.666V356.115C368.19 362.955 368.19 370.786 368.19 377.626V380.556C369.17 383.486 368.19 386.425 368.19 389.355C369.17 393.265 368.19 397.175 369.17 400.115V408.916C370.15 412.826 370.15 417.715 370.15 421.625C370.15 425.535 369.17 429.445 368.19 433.355L367.21 434.336C367.21 434.336 366.23 434.335 366.23 433.355C365.25 430.425 364.27 427.486 364.27 424.556V415.756C363.29 411.846 363.29 408.915 364.27 404.995V388.376C363.29 377.616 364.27 366.865 364.27 356.105C363.29 344.375 364.27 333.615 363.29 322.855V304.276C363.29 301.346 363.29 298.405 362.31 295.475V289.605C363.29 288.625 362.31 288.625 362.31 288.625C360.35 287.645 359.38 287.645 357.42 288.625H353.51C351.55 288.625 350.58 288.625 348.62 289.605C347.64 290.585 345.69 290.586 344.71 290.586C343.73 291.566 343.73 291.566 342.75 290.586H330.04C326.13 293.516 323.2 294.495 318.31 294.495C317.33 294.495 315.38 294.495 314.4 295.475C313.42 295.475 312.44 295.476 312.44 296.456C310.48 299.386 310.48 302.326 309.51 305.256L307.55 309.166C306.57 310.146 306.57 313.076 306.57 315.036V333.615C306.57 336.545 305.59 339.486 305.59 341.436V360.016C305.59 363.926 305.59 368.815 304.61 371.745V382.406C303.63 387.296 304.61 392.186 303.63 398.046C303.63 399.026 303.63 400.976 302.65 401.956V402.936C301.67 404.896 300.69 404.896 299.72 402.936C299.72 401.956 298.74 400.976 298.74 400.006V396.095C299.72 395.115 298.74 395.115 298.74 395.115C299.72 390.225 299.72 386.316 299.72 381.426C299.72 377.516 299.72 374.586 300.7 370.666V362.845C301.68 358.935 300.7 356.006 301.68 353.066V347.196C300.7 339.376 301.68 332.526 301.68 324.706V310.036C302.66 303.196 301.68 296.346 301.68 289.506V286.576C300.7 285.596 300.7 285.595 301.68 284.615C302.66 283.635 303.64 282.656 304.61 283.636C305.59 284.616 306.57 285.596 306.57 286.566V288.526H310.48C314.39 289.506 317.32 289.506 320.26 289.506C320.26 289.506 321.24 288.526 322.22 288.526C323.2 287.546 323.2 287.546 323.2 286.566C322.22 284.606 323.2 283.636 325.16 283.636H335.92C337.88 284.616 338.85 284.615 340.81 284.615C343.74 284.615 345.7 284.615 348.63 285.595C349.61 286.575 351.56 287.555 352.54 285.595H356.45C358.41 286.575 359.38 286.575 361.34 285.595C363.3 285.595 364.27 284.615 366.23 285.595C368.19 285.595 369.16 285.595 371.12 284.615C373.08 283.635 375.03 283.636 376.01 283.636C379.92 283.636 382.85 282.656 386.77 281.676H393.61C396.54 281.676 399.48 280.696 403.39 280.696L417.08 277.766L427.84 274.836C428.82 274.836 429.8 273.855 431.75 273.855L443.48 271.906C445.44 271.906 447.39 270.926 449.35 270.926C453.26 270.926 456.19 270.926 459.13 269.946C461.09 268.966 464.02 267.985 465.97 267.985C467.93 267.985 468.9 267.006 467.93 266.026C467.93 264.066 466.95 263.095 467.93 262.115V259.186C467.93 256.256 467.93 254.295 466.95 252.345C466.95 251.365 466.95 251.366 465.97 250.386C464.99 250.386 464.99 251.365 464.01 252.345L460.1 255.276L456.19 259.186C455.21 260.166 453.26 260.166 452.28 260.166C451.3 260.166 449.35 261.146 448.37 261.146C444.46 262.126 441.53 262.125 437.61 262.125C434.68 262.125 430.77 262.126 427.83 264.086C426.85 264.086 425.87 265.066 424.9 265.066H423.92V266.046C424.9 266.046 424.9 267.026 424.9 267.026C424.9 268.986 426.86 268.006 427.83 268.006C428.8 268.006 429.79 268.006 431.74 267.026C434.67 267.026 436.63 265.066 440.54 265.066L455.21 262.136L462.05 260.176H465.96C465.96 261.156 465.96 262.135 464.98 263.105L459.11 266.036L447.38 267.995C445.42 268.975 443.47 268.975 441.51 268.975C438.58 269.955 436.62 270.936 433.69 270.936L426.85 272.896H419.03C418.05 272.896 417.07 272.895 416.1 273.875L407.3 275.836C404.37 275.836 401.43 275.836 398.5 276.816H393.61C392.63 275.836 391.65 275.836 390.68 276.816C386.77 277.796 382.86 278.776 378.95 276.816H370.15C369.17 276.816 369.17 276.816 368.19 275.836C368.19 274.856 369.17 274.855 370.15 274.855H371.13C375.04 274.855 377.97 274.855 380.91 273.875C383.84 273.875 386.78 273.876 388.73 271.926C390.69 271.926 391.66 270.946 392.64 271.926C394.6 272.906 397.53 272.906 399.48 271.926H403.39C404.37 271.926 404.37 270.946 405.35 269.966C405.35 268.986 405.35 268.985 404.37 268.985C402.41 268.985 400.46 268.986 398.5 268.006C397.52 267.026 396.54 267.026 394.59 267.026C390.68 268.006 386.77 268.006 382.86 268.006C381.88 268.006 380.9 267.026 378.95 267.026C377.97 268.006 376.02 268.006 375.04 268.006C373.08 268.006 372.11 267.026 371.13 267.026H370.15L371.13 266.046H382.86C384.82 265.066 385.79 265.066 387.75 265.066C390.68 266.046 393.62 265.066 396.55 264.086C399.48 264.086 402.42 263.105 405.35 263.105C407.31 263.105 410.24 262.125 412.19 262.125C413.17 262.125 414.15 261.146 415.12 261.146C416.1 260.166 418.05 259.186 420.01 260.166C421.97 260.166 422.94 261.146 423.92 261.146C425.88 261.146 426.85 261.146 428.81 260.166L436.63 258.206C439.56 258.206 441.52 257.225 443.47 257.225H445.43C447.39 256.245 449.34 256.245 452.27 256.245L453.25 255.266C455.21 253.306 457.16 252.335 459.12 251.355C461.08 250.375 464.01 248.426 464.99 246.466H465.97C465.97 243.536 466.95 239.626 465.97 236.686L464.99 235.706C464.99 235.706 464.99 234.726 464.01 235.706C461.08 236.686 460.1 234.726 459.12 232.776V228.865C459.12 225.935 458.14 223.976 456.19 222.026C453.26 220.066 451.3 218.116 449.35 215.186L445.44 208.346C443.48 205.416 442.51 201.505 442.51 198.565V188.786C441.53 186.826 441.53 185.855 439.58 184.875C436.65 182.915 433.71 180.966 430.78 179.986H428.82C429.8 180.966 430.78 181.946 431.75 181.946C431.75 182.926 432.73 183.906 432.73 183.906C433.71 185.866 433.71 186.836 432.73 187.816L424.91 191.726H421C420.02 191.726 420.02 191.726 419.04 192.706C418.06 192.706 417.08 193.686 416.11 193.686C415.13 194.666 414.15 194.666 413.18 194.666C412.21 194.666 410.25 194.666 409.27 195.646C408.29 195.646 407.31 195.645 408.29 196.625L410.25 199.556H413.18C417.09 198.576 420.02 197.596 422.96 197.596C425.9 197.596 427.85 197.596 429.8 195.636C431.76 193.676 433.71 193.676 435.67 193.676C435.67 192.696 437.63 193.676 437.63 194.656C437.63 194.656 436.65 195.636 436.65 196.616C435.67 196.616 434.69 197.596 433.72 197.596L427.85 200.526C425.89 201.506 423.94 202.486 421.98 202.486C418.07 203.466 414.16 204.446 410.25 204.446L409.27 205.426C408.29 207.386 407.31 209.336 404.38 209.336C403.4 209.336 402.42 210.316 401.45 211.296V214.225C403.41 215.205 403.41 217.156 402.43 218.136C402.43 220.096 401.45 221.066 400.47 222.046C399.49 223.026 398.51 224.006 398.51 225.956V226.936C398.51 228.896 399.49 229.866 400.47 231.826C400.47 232.806 401.45 234.756 402.43 236.716C403.41 238.676 403.41 240.626 402.43 242.586V243.566C400.47 244.546 400.47 246.495 399.5 247.475C398.52 249.435 398.52 250.406 396.57 250.406C394.62 250.406 393.64 249.426 392.66 248.446C391.68 246.486 390.7 245.516 390.7 243.556C389.72 242.576 389.72 241.595 389.72 240.625C389.72 238.665 389.72 237.696 387.76 237.696L384.83 235.735C381.9 234.755 380.92 231.825 380.92 229.865C379.94 227.905 379.94 225.955 379.94 223.995C379.94 223.015 379.94 223.016 378.96 223.016C377 222.036 375.05 222.035 374.07 223.995L369.18 225.956H368.2C367.22 224.976 366.24 224.976 367.22 226.936V235.735C368.2 236.715 367.22 237.696 368.2 238.666V251.375C368.2 252.355 368.2 252.355 369.18 252.355H389.66C392.59 252.355 394.55 251.375 396.5 251.375C399.43 250.395 401.39 250.396 404.32 250.396C407.25 249.416 411.16 249.416 415.08 249.416C415.08 249.416 416.06 249.416 416.06 248.436C416.06 242.566 415.08 237.676 413.13 231.816C412.15 228.886 411.17 225.946 411.17 223.016C412.15 220.086 412.15 218.126 412.15 215.196C412.15 215.196 411.17 214.216 412.15 214.216C412.15 213.236 412.15 213.235 413.13 213.235V214.216C414.11 214.216 414.11 215.196 414.11 215.196C414.11 220.086 415.09 223.996 417.04 227.906C418.02 230.836 419.97 232.796 419.97 236.706C420.95 238.666 421.93 240.616 421.93 242.576V248.446C421.93 249.426 422.91 249.426 422.91 249.426C425.84 248.446 427.8 248.446 430.73 248.446C431.71 248.446 433.66 247.466 434.64 247.466C439.53 245.506 444.42 244.536 448.33 243.556L454.2 241.595L455.18 240.615C456.16 239.635 457.14 239.636 457.14 238.656C458.12 237.676 459.1 237.676 460.07 238.656C461.05 238.656 461.05 239.635 461.05 240.615C460.07 243.545 459.09 245.505 456.16 246.485C453.23 248.445 450.29 249.416 447.36 250.396L437.58 253.326C435.62 253.326 432.69 254.306 430.74 254.306C428.78 254.306 426.83 254.306 424.87 255.286C421.94 256.266 419 256.266 415.09 256.266H405.31C404.33 257.246 403.35 257.245 401.4 257.245C396.51 257.245 391.62 259.205 386.73 258.225C379.89 257.245 373.04 258.225 366.2 258.225H354.47C354.47 257.245 353.49 258.225 352.51 258.225C350.55 258.225 349.58 258.226 347.62 259.206H338.82C336.86 259.206 334.91 258.225 332.95 258.225L325.13 256.266C324.15 255.286 323.17 256.266 323.17 256.266L315.35 259.196C313.39 259.196 310.46 260.176 308.51 258.216H305.58C304.6 258.216 304.6 259.196 303.62 259.196C301.66 259.196 299.71 259.196 298.73 258.216C295.8 257.236 292.86 257.235 290.91 257.235H287C287 257.235 286.02 256.256 287 256.256C287 255.276 287.98 255.276 287.98 255.276C290.91 254.296 293.85 253.316 296.78 254.296H300.69C301.67 255.276 301.67 255.276 302.65 253.316V241.586C303.63 239.626 303.63 237.676 303.63 235.716V231.806C303.63 230.826 304.61 229.845 305.59 229.845C305.59 229.845 306.57 230.826 306.57 231.806V253.316H307.55C309.51 253.316 311.46 254.296 312.44 254.296C314.4 255.276 314.4 255.276 316.35 254.296C317.33 254.296 319.28 253.316 320.26 253.316C323.19 251.356 325.15 251.356 328.08 252.336C330.04 253.316 331.99 253.316 333.95 253.316C335.91 253.316 337.86 252.336 338.84 252.336C341.77 252.336 344.71 251.355 348.62 251.355H355.46C356.44 252.335 358.39 252.336 359.37 252.336H362.3V250.406C363.28 242.586 363.28 233.786 363.28 225.956C363.28 223.996 363.28 223.026 362.3 222.046C362.3 221.066 361.32 220.085 361.32 219.115C361.32 218.135 361.32 218.136 360.34 218.136C357.41 218.136 356.43 217.156 354.47 216.176C352.51 215.196 351.54 213.246 351.54 210.306V207.375C351.54 206.395 350.56 206.396 349.58 206.396H347.62C345.66 207.376 344.69 206.396 343.71 205.416C341.75 204.436 340.78 202.486 340.78 200.526C340.78 199.546 339.8 199.546 339.8 199.546C336.87 199.546 332.96 199.546 330.02 200.526H328.06C326.1 199.546 323.17 198.565 320.24 198.565C319.26 199.545 318.28 199.545 317.31 198.565H315.35C314.37 199.545 312.42 199.545 310.46 198.565H301.66C299.7 198.565 297.75 199.545 295.79 198.565H284.06C282.1 198.565 279.17 198.566 277.22 197.586C275.26 197.586 274.29 197.586 272.33 196.606C272.33 195.626 271.35 195.625 270.37 195.625H264.5C261.57 195.625 258.63 194.646 255.7 193.666C252.77 191.706 251.79 187.796 252.77 184.866V183.886H251.79C247.88 184.866 244.95 186.816 242.01 188.776C240.05 189.756 239.08 190.736 239.08 192.686C239.08 193.666 238.1 193.666 238.1 193.666C239.08 196.596 238.1 199.536 238.1 202.466C238.1 203.446 237.12 205.396 237.12 207.356L232.23 217.136L229.3 221.046C226.37 223.976 223.43 227.886 222.46 231.806C221.48 232.786 221.48 233.765 221.48 234.735C220.5 236.695 221.48 237.666 222.46 238.646C222.46 239.626 222.46 240.605 223.44 240.605C223.44 241.585 224.42 241.586 224.42 241.586C225.4 240.606 226.38 240.605 227.35 240.605C228.32 240.605 229.31 241.586 230.28 241.586C230.28 242.566 231.26 242.566 231.26 242.566C232.24 244.526 233.22 244.526 235.17 244.526C238.1 243.546 239.08 246.486 239.08 248.436C239.08 248.436 238.1 249.416 237.12 249.416C236.14 248.436 235.16 248.436 235.16 248.436C234.18 247.456 233.2 247.456 232.23 247.456C231.25 248.436 229.3 248.435 228.32 246.475H226.36C223.43 247.455 219.52 245.496 218.54 242.566C218.54 242.566 218.54 241.586 217.56 241.586C217.56 240.606 216.58 239.625 215.6 240.605C214.62 240.605 214.62 239.625 213.64 240.605C212.66 240.605 212.66 241.586 212.66 242.566V266.036C212.66 267.996 213.64 269.946 215.59 271.906C216.57 272.886 220.48 273.856 221.46 272.886C222.44 272.886 223.42 271.906 224.39 271.906C226.35 270.926 228.3 271.906 229.28 272.886C229.28 273.866 230.26 273.865 230.26 273.865C231.24 275.825 233.19 275.825 234.17 274.845C235.15 273.865 236.13 273.865 238.08 274.845C239.06 274.845 240.04 274.846 241.01 275.826L242.97 278.756C243.95 279.736 243.95 279.736 244.93 278.756H246.89C248.85 276.796 249.82 276.796 251.78 277.776C252.76 277.776 253.74 278.756 253.74 278.756C254.72 279.736 255.7 279.735 256.67 279.735C257.64 279.735 258.63 280.716 259.6 281.696C260.58 282.676 260.58 282.676 261.56 282.676H266.45V283.656H259.61L258.63 284.636H259.61C261.57 284.636 263.52 285.615 265.48 285.615H267.44C268.42 285.615 269.4 285.616 269.4 283.656C269.4 282.676 271.36 281.696 272.33 282.676C273.31 282.676 274.29 283.656 275.26 284.636C275.26 285.616 276.24 285.616 276.24 284.636C276.24 284.636 276.24 283.656 277.22 283.656C278.2 282.676 279.18 282.676 280.15 283.656L282.11 285.615V286.595C281.13 287.575 280.15 288.556 278.2 287.576C277.22 286.596 276.24 286.596 275.27 287.576C274.29 288.556 274.29 289.536 273.31 289.536C272.33 291.496 270.38 291.495 268.42 291.495L262.55 293.456C261.57 293.456 260.59 294.436 260.59 296.386L257.66 302.256V303.235C257.66 305.195 256.68 307.146 256.68 308.126V321.816C255.7 324.746 256.68 326.706 255.7 329.636C255.7 333.546 255.7 337.455 254.72 341.365C254.72 344.295 253.74 348.206 252.76 351.146C251.78 349.186 251.78 348.216 251.78 346.256C250.8 343.326 250.8 341.366 251.78 339.416V329.636C250.8 324.746 251.78 320.836 251.78 315.946V303.235C252.76 299.325 252.76 296.395 252.76 292.475C252.76 290.515 253.74 287.586 253.74 285.636C253.74 284.656 253.74 283.676 252.76 283.676C251.78 283.676 251.78 282.696 251.78 282.696C250.8 282.696 250.8 281.716 249.82 281.716L248.84 282.696C246.88 283.676 245.91 283.676 243.95 283.676C241.99 283.676 241.02 283.676 240.04 281.716C239.06 281.716 239.06 280.735 239.06 280.735C238.08 279.755 238.08 279.755 236.13 280.735H232.22C230.26 279.755 228.31 278.776 227.33 276.826C226.35 275.846 225.37 275.845 224.4 275.845C224.4 276.825 224.4 276.826 223.42 276.826C221.46 277.806 219.51 277.806 217.55 276.826V306.156C217.55 311.046 217.55 314.955 216.57 319.845C216.57 322.775 217.55 325.716 216.57 328.646C215.59 333.536 215.59 337.445 215.59 341.355C214.61 350.155 215.59 357.976 214.61 366.776V383.396C213.63 389.266 214.61 396.105 213.63 401.975C213.63 408.815 214.61 416.645 213.63 423.485C213.63 428.375 213.63 433.266 212.65 437.176V447.936C211.67 454.776 212.65 460.646 211.67 466.516V489.985C211.67 491.945 212.65 493.895 213.63 494.875L217.54 498.786C220.47 500.746 223.41 502.695 224.38 505.625C224.38 505.625 225.36 505.625 225.36 506.605L229.27 508.566C231.23 510.526 233.18 512.476 236.11 513.456C237.09 513.456 238.07 514.436 239.04 514.436V511.505C239.04 509.545 239.04 506.616 240.02 504.666V502.706C240.02 501.726 239.04 501.725 239.04 500.745L241 492.926V485.105C241.98 482.175 241.98 479.236 241.98 477.286C242.96 475.326 241.98 472.396 242.96 470.446V461.646C243.94 457.736 243.94 452.846 243.94 447.956C243.94 445.026 243.94 442.086 244.92 438.176V432.306C244.92 429.376 245.9 427.415 245.9 424.485C245.9 422.525 246.88 419.596 246.88 417.646V400.046C247.86 396.136 247.86 392.226 247.86 388.316C247.86 385.386 248.84 382.446 248.84 379.516C249.82 375.606 250.8 371.696 250.8 367.786C249.82 366.806 250.8 364.856 250.8 362.896C250.8 362.896 250.8 361.916 251.78 361.916C252.76 361.916 252.76 362.896 252.76 362.896C251.78 370.716 252.76 377.566 251.78 385.386V396.146C250.8 398.106 251.78 401.035 250.8 402.985V422.546C250.8 425.476 250.8 429.385 249.82 431.345V442.105C248.84 451.885 249.82 461.666 248.84 471.436V478.276C247.86 481.206 247.86 483.165 247.86 486.095C247.86 489.025 247.86 491.966 246.88 494.896C246.88 500.766 245.9 506.625 246.88 512.495C246.88 514.455 247.86 516.406 247.86 519.336C247.86 520.316 248.84 520.316 249.82 521.296C249.82 522.276 249.82 523.255 247.86 523.255H244.93L239.06 520.326C236.13 519.346 233.19 518.366 231.24 516.416C228.31 515.436 225.37 513.486 223.42 510.546V509.566C223.42 506.636 220.49 506.635 218.53 506.635C216.57 505.655 214.62 504.675 212.66 502.725L209.73 499.796C208.75 499.796 208.75 500.776 208.75 500.776C208.75 501.756 208.75 502.735 207.77 502.735C207.77 502.735 207.77 503.716 208.75 503.716C209.73 504.696 209.73 506.646 211.68 506.646C211.68 507.626 212.66 507.625 212.66 508.605C213.64 509.585 214.62 510.566 215.59 510.566C217.55 512.526 220.48 513.495 222.43 514.475C224.39 515.455 226.34 517.405 227.32 519.365C228.3 519.365 228.3 520.345 227.32 520.345H223.41L219.5 516.436C218.52 515.456 217.54 515.456 215.59 515.456C214.61 515.456 212.66 514.475 211.68 513.495C210.7 511.535 207.77 509.585 205.81 507.625H204.83V508.605C204.83 510.565 204.83 513.496 205.81 515.446C206.79 516.426 206.79 517.406 207.77 517.406C207.77 519.366 208.75 520.336 209.73 521.316L212.66 523.276L220.48 527.186L223.41 530.115C225.37 532.075 227.32 533.046 230.25 534.026C232.21 535.006 234.16 535.986 236.12 537.936C237.1 538.916 239.05 539.896 241.01 539.896H241.99C242.97 540.876 243.95 540.875 243.95 540.875C247.86 542.835 250.79 544.786 254.71 545.766C255.69 545.766 256.67 546.745 256.67 546.745C258.63 547.725 259.6 548.706 260.58 548.706C262.54 548.706 263.51 549.686 263.51 550.666C264.49 550.666 264.49 550.666 264.49 551.646C263.51 551.646 263.51 551.645 262.53 552.625H260.57C259.59 551.645 257.64 551.646 255.68 551.646H252.75C251.77 551.646 249.82 551.645 249.82 552.625C247.86 554.585 245.91 556.535 244.93 558.495C242.97 561.425 242 565.336 241.02 568.276V573.166C241.02 576.096 240.04 579.036 240.04 582.946C240.04 584.906 239.06 586.856 239.06 589.786C239.06 590.766 239.06 592.716 240.04 593.696C240.04 594.676 241.02 595.655 241.02 596.625C242 597.605 242 598.586 242.98 598.586L245.91 600.546L255.69 605.436C262.53 608.366 268.4 611.306 275.25 612.276L281.12 614.235C283.08 615.215 285.03 614.235 286.99 613.255C287.97 612.275 288.95 611.295 288.95 609.345V608.365C288.95 602.495 288.95 595.656 289.93 589.786V582.946C290.91 580.986 290.91 579.036 290.91 577.076C290.91 573.166 290.91 570.236 291.89 567.296V560.456C291.89 559.476 291.89 558.495 290.91 558.495C289.93 558.495 288.95 557.516 287.98 557.516C287.01 557.516 285.05 557.516 284.07 556.536H280.16L274.29 554.576C273.31 554.576 271.36 554.575 270.38 553.595C269.4 553.595 269.4 552.615 269.4 551.635H270.38C271.36 551.635 272.34 550.655 273.31 551.635C276.24 551.635 279.18 552.615 283.09 552.615C284.07 552.615 285.05 552.615 285.05 553.595L291.89 555.556H292.87C293.85 554.576 294.83 553.596 295.8 555.556C296.78 555.556 297.76 555.556 298.73 556.536H299.71C302.64 556.536 305.58 557.515 308.51 558.495H310.47C312.43 558.495 314.38 558.495 316.34 559.475H318.3C324.17 559.475 330.03 559.476 335.9 560.456H348.61C349.59 561.436 351.54 561.436 352.52 561.436H358.39C359.37 561.436 360.35 561.436 361.32 560.456H363.28C365.24 561.436 368.17 561.436 370.12 560.456H372.08C375.01 561.436 378.92 560.455 380.88 559.475C383.81 558.495 386.75 557.516 388.7 557.516C391.63 558.496 394.57 557.516 397.5 557.516C398.48 556.536 399.46 556.536 400.43 556.536C404.34 556.536 407.27 555.556 410.21 554.576C413.14 553.596 417.05 552.615 419.99 552.615L423.9 550.656C424.88 550.656 426.83 549.676 428.79 549.676C429.77 549.676 431.72 549.676 433.68 548.696C436.61 546.736 439.55 544.786 443.46 543.806C444.44 542.826 446.39 542.825 448.35 541.845C450.31 540.865 452.26 540.865 453.24 539.885L464 534.016L468.89 531.086C470.85 528.156 473.78 526.196 476.71 525.216L483.55 519.345L484.53 518.365C485.51 515.435 486.49 513.476 488.44 511.526C489.42 510.546 489.42 509.565 489.42 508.595C490.4 504.685 490.4 501.756 490.4 497.836C490.4 494.906 489.42 490.996 489.42 488.056V485.125C488.44 483.165 488.44 481.215 488.44 479.255C488.44 478.275 488.44 476.325 487.46 475.345C487.46 474.365 487.46 474.365 486.48 473.385V475.345C486.48 477.305 485.5 477.306 484.52 478.276C483.54 478.276 482.56 477.296 482.56 476.316L480.6 468.495C480.6 466.535 480.6 464.585 479.62 462.625C479.62 459.695 479.62 457.736 478.64 455.786V449.916C477.66 447.956 477.66 446.986 477.66 445.026V438.186C476.68 435.256 476.68 431.346 476.68 428.406C475.7 426.446 475.7 424.496 475.7 423.516V414.716C474.72 412.756 475.7 410.805 474.72 408.845C473.74 405.915 474.72 402.976 473.74 400.046V395.156C472.76 392.226 472.76 389.285 472.76 386.355C472.76 382.445 472.76 379.515 471.78 375.595V363.865C471.78 362.885 471.78 361.906 470.8 359.956C470.8 358.976 471.78 357.026 470.8 356.046V355.066C469.82 349.196 469.82 344.306 469.82 338.446V327.686C468.84 325.726 469.82 323.775 468.84 320.845C467.86 314.975 468.84 309.116 468.84 302.266C468.84 301.286 468.84 299.336 467.86 297.376C467.86 296.396 468.84 294.445 467.86 292.485C467.86 289.555 467.86 285.645 466.88 281.725L467.86 280.745V279.766C468.84 279.766 468.84 280.745 468.84 280.745C468.84 281.725 469.82 283.676 469.82 284.656C469.82 287.586 469.82 289.545 470.8 291.495C470.8 293.455 471.78 296.386 471.78 298.336H472.76C473.74 295.406 475.69 294.426 476.67 292.466C479.6 290.506 482.54 288.556 485.47 287.576C486.45 287.576 488.4 286.595 489.38 286.595C493.29 285.615 496.22 286.595 500.14 286.595C503.07 286.595 506.01 287.576 508.94 288.556C513.83 289.536 518.72 291.486 522.63 295.396C525.56 297.356 527.52 300.286 529.47 303.216L532.4 308.105L534.36 312.016C535.34 314.946 534.36 316.905 533.38 318.855C533.38 319.835 532.4 319.835 532.4 318.855C531.42 318.855 531.42 317.876 531.42 316.896C531.42 315.916 530.44 314.936 530.44 313.966C529.46 313.966 529.46 312.985 528.48 312.985C526.52 313.965 523.59 313.966 520.66 313.966H515.77V315.926C515.77 316.906 516.75 316.906 516.75 317.886C516.75 317.886 516.75 318.865 517.73 318.865C518.71 318.865 519.69 318.866 521.64 317.886C523.6 317.886 525.55 317.885 527.51 318.865H528.49C529.47 318.865 529.47 319.845 528.49 319.845C526.53 320.825 525.56 321.806 522.62 321.806H518.71C516.75 320.826 516.75 321.806 517.73 322.786V327.676C517.73 327.676 518.71 328.656 518.71 327.676H522.62C523.6 327.676 525.55 327.676 525.55 326.696C526.53 326.696 527.51 326.696 528.48 327.676V328.656C528.48 329.636 528.48 329.636 527.5 329.636C525.54 329.636 523.59 330.615 521.63 331.595H519.67C518.69 330.615 517.71 330.615 517.71 331.595V337.466C517.71 337.466 517.71 338.446 518.69 338.446H528.47C529.45 338.446 529.45 338.446 529.45 339.426C530.43 338.446 530.43 337.466 530.43 337.466C531.41 334.536 531.41 332.576 531.41 329.646C532.39 329.646 532.39 328.666 532.39 327.686H533.37C534.35 327.686 534.35 327.686 534.35 328.666C534.35 330.626 534.35 332.576 533.37 334.536C533.37 336.496 532.39 339.426 531.41 341.376V345.286C530.43 347.246 530.43 349.196 530.43 351.156C530.43 353.116 530.43 356.045 529.45 357.995V372.666C529.45 374.626 529.45 375.596 530.43 377.556V382.446C530.43 385.376 531.41 387.336 531.41 390.266C531.41 393.196 532.39 396.136 533.37 398.086L536.3 409.816L539.23 415.686L541.19 423.505C541.19 426.435 542.17 429.376 542.17 432.306C543.15 433.286 543.15 435.236 543.15 437.196C543.15 440.126 543.15 442.086 544.13 445.016V461.635C543.15 463.595 543.15 465.545 543.15 468.475C543.15 468.475 542.17 468.476 542.17 469.456L538.26 477.276C537.28 479.236 535.33 481.185 534.35 484.115L530.44 489.005C527.51 491.935 523.6 494.876 519.68 496.826C517.72 498.786 514.79 499.755 511.86 500.735C507.95 501.715 503.06 502.696 500.13 504.646C497.2 505.626 496.22 507.576 495.24 510.516L492.31 515.406C491.33 517.366 489.38 519.316 489.38 521.276C487.42 525.186 484.49 527.145 481.56 529.095C478.63 531.055 475.69 532.026 473.74 534.966C472.76 534.966 472.76 534.966 472.76 535.946L466.89 539.855C464.93 540.835 463.96 541.816 462.98 543.766L460.05 546.696C460.05 546.696 459.07 546.696 459.07 547.676L452.23 555.495C451.25 557.455 450.27 559.405 450.27 561.365V579.946C451.25 582.876 451.25 585.815 451.25 589.725C451.25 591.685 453.21 592.655 455.16 593.635H456.14L461.03 589.725L471.79 580.926C473.75 579.946 474.72 578.966 475.7 577.016L482.54 571.146C482.54 570.166 483.52 570.166 483.52 569.186L485.48 565.276C486.46 564.296 487.44 563.315 487.44 562.345C487.44 559.415 488.42 556.476 487.44 553.546V552.566C487.44 550.606 486.46 548.656 487.44 547.676V541.806C487.44 538.876 488.42 535.935 489.4 533.005V532.026C490.38 528.116 493.31 526.156 495.27 524.206L506.03 517.365C509.94 515.405 513.85 514.436 517.76 513.456L527.54 510.526L533.41 508.566C535.37 508.566 537.32 507.585 538.3 506.605C543.19 505.625 547.1 502.696 550.03 498.786C552.96 494.876 555.9 491.946 557.85 488.026C559.81 487.046 560.78 485.095 561.76 484.115C562.74 481.185 564.69 478.246 566.65 475.316C568.61 473.356 568.61 471.406 568.61 469.446C567.63 468.466 566.65 466.516 566.65 465.536C565.67 463.576 564.69 462.606 564.69 460.646L563.71 459.666C564.69 456.736 563.71 454.775 563.71 451.845C562.73 447.935 562.73 443.045 563.71 439.135C563.71 438.155 564.69 437.176 564.69 436.206C564.69 432.296 565.67 429.366 566.65 426.426C566.65 423.496 567.63 420.556 567.63 417.626L573.5 397.095L577.41 387.316L580.34 375.586C580.34 372.656 581.32 368.746 581.32 364.826V363.845C582.3 357.005 582.3 349.175 582.3 341.355C582.3 336.465 581.32 332.556 580.34 326.686C579.36 321.796 577.41 317.885 575.45 312.995L572.52 301.266L570.56 292.466C570.56 288.556 569.58 284.645 568.6 280.735C568.6 277.805 568.6 274.866 567.62 270.956V262.156C567.62 258.246 568.6 255.315 568.6 252.375L571.53 241.615L575.44 233.796C577.4 229.886 579.35 226.956 580.33 223.036C582.29 220.106 581.31 218.146 581.31 215.216C581.31 214.236 580.33 214.235 581.31 214.235C582.29 213.255 583.27 213.255 583.27 214.235C584.25 214.235 584.25 215.216 584.25 216.196C586.21 218.156 586.21 220.106 585.23 222.066C584.25 225.976 583.27 229.886 581.32 233.796C578.39 237.706 576.43 242.596 574.48 248.466C574.48 250.426 573.5 253.356 573.5 255.306V263.125C573.5 266.055 573.5 268.016 574.48 270.946C574.48 274.856 574.48 278.766 575.46 281.706L578.39 294.416C579.37 299.306 581.32 305.176 583.28 310.056L587.19 325.706C587.19 327.666 588.17 329.616 588.17 331.576C589.15 334.506 589.15 337.446 589.15 340.376C590.11 347.206 590.11 353.076 590.11 358.936ZM237.13 553.526L239.09 546.686H238.11V545.706C238.11 544.726 238.11 544.725 237.13 543.745C236.15 543.745 234.2 542.766 233.22 540.816C233.22 539.836 232.24 538.855 230.29 538.855C227.36 538.855 223.45 536.896 221.49 533.966L210.73 527.125H209.75V556.456C208.77 559.386 208.77 561.346 210.73 564.276L213.66 569.166C215.62 572.096 216.59 575.035 218.55 576.985L227.35 586.766C229.31 587.746 230.28 589.696 231.26 590.676C232.24 591.656 232.24 591.656 232.24 590.676C233.22 588.716 234.2 585.785 234.2 582.855V581.875C235.18 578.945 235.18 576.006 235.18 573.076V568.186C236.16 565.256 237.14 562.316 237.14 558.406V553.526H237.13ZM237.13 268.006C235.17 268.006 235.17 267.026 235.17 266.046C235.17 264.086 235.17 264.085 234.19 263.115C230.28 263.115 227.35 262.136 223.43 261.156C221.47 260.176 219.52 260.176 217.56 260.176C216.58 259.196 215.6 259.195 215.6 257.245C214.62 257.245 214.62 256.266 213.64 255.286C213.64 255.286 212.66 254.306 213.64 253.326C213.64 253.326 214.62 252.345 215.6 252.345C216.58 252.345 217.56 253.326 218.53 253.326C220.49 255.286 222.44 256.256 225.37 256.256L235.15 258.216H241.02L249.82 260.176H253.73C256.66 260.176 258.62 261.156 261.55 261.156C262.53 261.156 264.48 262.136 265.46 262.136H269.37C272.3 264.096 275.24 263.115 278.17 263.115C279.15 263.115 280.13 264.095 281.1 264.095V265.076H270.34C268.38 265.076 266.43 266.056 264.47 265.076H252.74C250.78 265.076 249.81 264.095 247.85 264.095L246.87 265.076C246.87 265.076 246.87 266.056 247.85 266.056C249.81 267.036 251.76 268.016 254.69 267.036H256.65C258.61 268.016 259.58 268.016 261.54 268.016C261.54 268.016 262.52 268.015 262.52 268.995C264.48 269.975 266.43 268.995 268.39 268.995C269.37 268.015 271.32 268.016 272.3 268.016C272.3 268.016 273.28 268.015 273.28 268.995C274.26 268.995 275.24 269.975 277.19 269.975H280.12L289.9 271.936H295.77C297.73 272.916 298.7 272.916 300.66 272.916C303.59 272.916 305.55 272.916 308.48 273.896H331.95C332.93 273.896 334.88 272.916 335.86 273.896H349.55C350.53 273.896 352.48 273.895 353.46 274.875C356.39 275.855 359.33 275.855 362.26 275.855H363.24V276.836C362.26 276.836 361.28 277.816 360.31 277.816C358.35 277.816 356.4 278.796 353.47 278.796H340.76C338.8 279.776 337.83 278.796 336.85 278.796H312.4L303.6 276.836H295.78C291.87 275.856 288.94 275.855 286 275.855H282.09C281.11 276.835 280.13 275.855 279.16 275.855C277.2 275.855 276.23 275.855 274.27 274.875C273.29 274.875 272.31 274.876 271.34 273.896C270.36 272.916 269.38 272.916 268.41 272.916C266.45 272.916 265.48 272.916 263.52 270.956H260.59C259.61 270.956 257.66 270.955 256.68 269.975H255.7C253.74 268.015 252.77 268.995 250.81 268.995C248.85 269.975 246.9 269.975 243.97 269.975C243.97 269.975 242.99 269.975 242.01 268.995C241.03 268.015 239.08 268.016 238.1 268.016H237.13V268.006ZM228.32 525.166V526.146L227.34 527.125C225.38 527.125 223.43 526.146 221.47 524.196C221.47 524.196 220.49 523.216 221.47 523.216L222.45 522.235C222.45 523.215 223.43 523.216 223.43 523.216L228.32 525.166ZM323.17 545.706C320.24 545.706 317.3 545.705 314.37 544.725H305.57C302.64 544.725 299.7 544.725 295.79 543.745H293.83C289.92 543.745 286.99 542.766 284.05 541.786C282.09 540.806 280.14 539.826 278.18 539.826H276.22C274.26 538.846 272.31 538.845 271.33 538.845C269.37 538.845 268.4 537.865 267.42 536.885H266.44L268.4 539.816H269.38L275.25 541.776C276.23 541.776 277.21 542.755 278.18 542.755C281.11 543.735 284.05 544.716 286.98 544.716L291.87 546.676L295.78 548.635H297.74V549.615H296.76C295.78 550.595 293.83 549.615 292.85 549.615C291.87 549.615 291.87 548.635 290.89 548.635C289.91 548.635 287.96 548.636 286 547.656H282.09L271.33 545.696C269.37 545.696 267.42 544.715 265.46 543.735H264.48C263.5 543.735 262.52 543.735 261.55 542.755C259.59 540.795 258.62 540.796 256.66 540.796C254.7 540.796 252.75 540.796 250.79 539.816C248.83 538.836 246.88 536.885 244.92 536.885C241.99 535.905 239.05 533.955 236.12 531.995L232.21 530.036C231.23 529.056 230.25 529.056 230.25 528.076V527.095C230.25 527.095 231.23 527.096 231.23 528.076C234.16 529.056 237.1 530.035 240.03 531.985C241.99 532.965 242.96 531.986 244.92 532.966H247.85C248.83 533.946 250.78 533.946 252.74 534.926V533.946C250.78 532.966 248.83 532.965 247.85 531.985L241.98 529.056C240.02 527.096 237.09 525.146 234.16 525.146C233.18 524.166 232.2 523.186 231.23 523.186C230.25 522.206 230.25 522.205 230.25 521.225C231.23 520.245 231.23 520.245 232.21 521.225C234.17 522.205 235.14 522.206 237.1 522.206L243.94 525.135C246.87 526.115 248.83 528.066 250.78 529.046L256.65 531.005C258.61 531.005 259.58 531.986 261.54 532.966C262.52 532.966 264.47 533.946 265.45 533.946H268.38C270.34 534.926 272.29 535.906 274.25 535.906C275.23 535.906 276.21 536.885 278.16 536.885L285 538.845C288.91 539.825 291.84 539.826 295.76 539.826C297.72 539.826 298.69 539.826 300.65 540.806H302.61C306.52 540.806 310.43 540.806 314.34 541.786C318.25 541.786 321.18 541.786 324.12 542.766H342.7C349.54 543.746 356.39 542.766 362.26 542.766H367.15C368.13 542.766 368.13 541.786 368.13 541.786C372.04 542.766 374.97 541.786 377.91 541.786H384.75C385.73 541.786 385.73 541.786 386.71 542.766C386.71 542.766 386.71 543.745 385.73 544.725C384.75 544.725 383.77 545.706 382.8 545.706H365.2C363.24 546.686 361.29 546.686 360.31 546.686H352.49C351.51 546.686 350.53 546.686 350.53 545.706H348.57C345.64 546.686 341.73 546.686 338.79 545.706H323.17ZM243.97 245.516C244.95 245.516 245.93 246.495 245.93 247.475C245.93 248.455 245.93 248.456 246.91 249.436C246.91 250.416 246.91 251.396 245.93 251.396C243 251.396 242.02 248.466 242.02 246.506C242.99 246.496 243.97 245.516 243.97 245.516ZM344.68 208.356C343.7 209.336 342.72 209.336 341.75 209.336C338.82 209.336 335.88 209.335 331.97 210.315H319.26C317.3 210.315 314.37 211.295 311.44 210.315C311.44 209.335 310.46 210.315 309.48 210.315H299.7L287.97 208.356C286.01 207.376 285.04 207.375 284.06 207.375C280.15 207.375 278.19 207.376 275.26 206.396H269.39C267.43 206.396 265.48 205.416 264.5 205.416C261.57 205.416 259.61 204.436 257.66 204.436L248.86 201.506C246.9 201.506 245.93 200.526 243.97 198.576V197.596H246.9C248.86 198.576 251.79 199.556 253.74 199.556C255.69 199.556 257.65 200.536 258.63 200.536C262.54 201.516 265.47 201.516 269.39 201.516C272.32 202.496 275.26 201.516 278.19 202.496H284.06C286.02 203.476 287.97 203.476 289.93 203.476C291.89 204.456 292.86 204.456 294.82 204.456H309.49C312.42 204.456 315.36 204.456 318.29 205.436C320.25 205.436 323.18 205.436 326.11 206.416C330.02 206.416 332.95 206.416 336.87 207.396C338.83 208.376 340.78 208.375 342.74 208.375H344.68V208.356ZM259.61 240.625C259.61 243.555 258.63 245.516 259.61 248.446L261.57 251.375C261.57 252.355 261.57 252.356 260.59 253.336H259.61C258.63 253.336 258.63 254.316 258.63 254.316C256.67 255.296 255.7 255.296 254.72 253.336C254.72 253.336 254.72 252.355 253.74 252.355C253.74 253.335 252.76 253.335 252.76 252.355C250.8 252.355 249.83 251.376 248.85 249.426C247.87 248.446 248.85 247.466 249.83 247.466C249.83 246.486 251.79 246.486 251.79 247.466C252.77 248.446 253.75 249.426 253.75 250.396C253.75 250.396 254.73 250.395 254.73 251.375V250.406C254.73 247.476 254.73 244.535 255.71 241.605C255.71 240.625 255.71 239.646 256.69 238.676C256.69 236.716 257.67 235.746 258.65 233.786C260.61 229.876 262.56 226.946 263.54 223.026C263.54 221.066 264.52 219.116 264.52 217.156C264.52 215.196 264.52 214.225 265.5 213.245V212.266H266.48C266.48 214.226 266.48 216.176 267.46 217.156C267.46 221.066 265.5 224.976 264.53 228.886L259.61 240.625ZM258.64 184.886C257.66 185.866 257.66 186.846 258.64 187.816C260.6 189.776 263.53 191.726 265.48 191.726C268.41 191.726 271.35 191.726 274.28 192.706H282.1C284.06 193.686 285.03 192.706 286.99 192.706H293.83C295.79 193.686 296.76 193.686 298.72 193.686H316.32C317.3 193.686 318.28 193.686 319.25 194.666H322.18C323.16 193.686 324.14 194.666 325.11 194.666C327.07 194.666 329.02 195.646 330.98 194.666H339.78C340.76 194.666 342.71 195.646 343.69 194.666C344.67 195.646 344.67 196.626 344.67 197.596V199.556C344.67 201.516 344.67 201.516 346.63 200.536C348.59 200.536 349.56 199.556 351.52 200.536C355.43 201.516 358.36 204.446 356.41 208.356C355.43 211.286 355.43 212.266 358.37 212.266C360.33 213.246 361.3 213.245 362.28 213.245C365.21 213.245 366.19 214.226 366.19 217.156C366.19 218.136 366.19 218.135 367.17 219.115C368.15 221.075 368.15 221.075 371.08 220.095C374.01 217.165 377.92 217.166 381.84 218.136C382.82 219.116 384.77 220.096 384.77 222.046V225.956C385.75 226.936 385.75 228.885 385.75 229.865C385.75 230.845 386.73 231.826 387.71 232.796C388.69 232.796 389.67 233.776 390.64 234.756C392.6 235.736 392.6 236.716 392.6 238.666C392.6 241.596 392.6 243.556 393.58 245.506C394.56 245.506 394.56 246.486 395.54 247.466C396.52 248.446 397.5 248.446 397.5 247.466C398.48 244.536 400.43 242.576 399.46 238.666C398.48 237.686 398.48 236.706 398.48 236.706L395.55 232.796C394.57 230.836 392.62 228.886 392.62 225.956C392.62 223.996 392.62 222.046 394.58 220.086L397.51 217.156C398.49 215.196 400.44 214.226 399.47 211.286C399.47 211.286 399.47 210.306 400.45 209.326L402.41 207.366C403.39 206.386 404.37 205.406 404.37 204.436L402.41 198.565C402.41 196.605 402.41 195.636 401.43 193.676C401.43 190.746 403.39 189.766 405.34 189.766C406.32 190.746 407.3 190.746 408.27 190.746C409.25 189.766 410.23 189.766 411.2 189.766C413.16 189.766 414.13 189.766 415.11 188.786C417.07 187.806 419.02 187.806 420.98 187.806C422.94 187.806 424.89 187.806 426.85 186.826V185.846L421.96 182.916H420C418.04 182.916 417.07 181.936 416.09 180.956C413.16 178.996 411.2 178.026 407.29 178.026C406.31 178.026 405.33 178.026 404.36 177.046L400.45 175.086C397.52 173.126 395.56 172.155 392.63 173.125C388.72 174.105 388.72 174.106 384.81 172.146C384.81 172.146 384.81 171.166 383.83 171.166C381.87 171.166 379.92 170.186 377.96 170.186H375.03C373.07 170.186 372.1 170.186 370.14 169.206C369.16 169.206 369.16 170.186 368.18 170.186H365.25C363.29 169.206 361.34 169.206 358.41 169.206H357.43C355.47 168.226 353.52 169.206 351.56 169.206C349.6 170.186 347.65 170.186 346.67 169.206L340.8 167.246C338.84 167.246 337.87 167.246 335.91 168.226C334.93 169.206 332.98 169.206 332 169.206C330.04 170.186 327.11 170.186 325.16 172.136H311.47C308.54 172.136 306.58 171.156 303.65 171.156C299.74 170.176 296.81 170.176 293.87 172.136L292.89 173.116C289.96 173.116 288 173.116 286.05 171.156C285.07 170.176 283.12 170.176 281.16 170.176C280.18 171.156 278.23 171.156 277.25 173.106C275.29 175.066 273.34 177.016 269.43 176.036C267.47 175.056 265.52 176.036 264.54 177.016C264.54 177.996 263.56 178.976 263.56 179.946C262.58 180.926 262.58 181.906 261.6 181.906L258.64 184.886ZM270.37 253.336H269.39V255.296C267.43 255.296 265.48 253.336 265.48 251.386C265.48 250.406 266.46 250.406 266.46 249.426C267.44 249.426 269.39 250.406 269.39 250.406C269.39 251.376 269.39 252.356 270.37 253.336ZM271.35 187.826C270.37 186.846 269.39 185.866 269.39 184.896C269.39 183.916 269.39 183.916 270.37 182.936C270.37 182.936 270.37 181.956 271.35 181.956L272.33 182.936V184.896C272.33 185.876 271.35 186.856 272.33 187.826H271.35ZM278.19 253.336C279.17 253.336 280.15 254.316 280.15 255.296C280.15 256.276 279.17 257.256 278.19 257.256C277.21 257.256 276.23 256.276 276.23 254.326C276.24 253.336 277.22 253.336 278.19 253.336ZM283.08 182.936C283.08 181.956 284.06 180.976 285.04 180.976C286.02 181.956 287 182.936 287 183.906V184.886C285.04 183.906 284.07 183.906 283.09 183.906V182.936H283.08ZM284.06 284.625C284.06 283.645 284.06 282.666 285.04 282.666C286.02 282.666 287 283.645 287 284.625C287 285.605 286.02 286.586 286.02 286.586C284.06 286.586 284.06 285.605 284.06 284.625ZM286.02 266.046V265.066H297.75C298.73 266.046 300.68 265.066 301.66 265.066H311.44C313.4 265.066 314.37 265.066 316.33 266.046H334.91C337.84 267.026 339.8 266.046 341.75 266.046H347.62C350.55 267.026 353.49 267.026 356.42 266.046H360.33V267.026C359.35 267.026 359.35 268.006 358.37 268.006H350.55C348.59 268.006 345.66 268.005 342.73 268.985H338.82C334.91 268.985 331 268.986 328.06 269.966C326.1 270.946 325.13 270.946 323.17 270.946H322.19C320.23 271.926 317.3 270.946 315.35 269.966C314.37 268.986 312.42 268.985 310.46 268.985C308.5 268.985 306.55 268.005 304.59 268.985C300.68 268.985 296.77 268.986 293.83 268.006C291.87 268.006 290.9 267.026 288.94 267.026H286.01C285.03 267.026 285.03 266.046 285.03 266.046H286.02ZM298.73 288.536V289.516C297.75 289.516 296.77 290.496 295.8 289.516C294.82 289.516 293.84 288.536 291.89 288.536C291.89 287.556 290.91 286.575 290.91 285.605C290.91 284.625 292.87 283.646 294.82 283.646C296.77 284.626 297.75 286.586 298.73 288.536ZM372.06 611.216C372.06 609.256 372.06 607.305 371.08 605.345V597.526C371.08 593.616 371.08 589.706 370.1 585.796C370.1 580.906 371.08 575.036 371.08 570.156V566.245C371.08 565.265 371.08 565.266 370.1 565.266H368.14C364.23 565.266 360.32 565.265 356.41 566.245C352.5 566.245 348.59 566.246 343.7 565.266H334.9C332.94 565.266 330.99 564.286 329.03 564.286C327.07 564.286 325.12 563.306 323.16 563.306H318.27C314.36 563.306 311.43 563.306 308.49 564.286C305.56 564.286 302.62 565.266 299.69 567.216C298.71 568.196 297.73 568.196 297.73 570.146C296.75 572.106 295.77 575.035 295.77 576.985V578.946C294.79 581.876 295.77 584.815 294.79 587.745V594.586C293.81 598.496 294.79 601.425 293.81 605.345V611.216C293.81 612.196 293.81 613.176 294.79 614.146C295.77 616.106 296.75 618.056 298.7 618.056C301.63 618.056 303.59 619.036 306.52 619.036C307.5 619.036 308.48 619.036 309.45 620.016C312.38 620.016 314.34 620.015 316.29 620.995H323.13C324.11 621.975 326.06 620.995 328.02 621.975H340.73C345.62 620.995 351.49 621.975 356.38 620.995C358.34 620.995 359.31 620.996 361.27 620.016C364.2 620.016 368.11 619.036 371.05 618.056C372.03 618.056 372.03 618.056 372.03 617.076V611.216H372.06ZM294.82 184.886L295.8 183.906C296.78 183.906 297.76 184.886 297.76 185.866C297.76 186.846 297.76 186.846 296.78 186.846C295.8 186.846 294.82 185.866 294.82 184.886ZM330.02 551.566C330.02 551.566 331 551.566 331 552.546C331 553.526 330.02 553.526 329.04 553.526C327.08 552.546 325.13 553.526 322.2 553.526H321.22C319.26 552.546 317.31 552.546 315.35 553.526C313.39 554.506 311.44 554.506 309.48 553.526C307.52 552.546 306.55 552.546 305.57 552.546C303.61 551.566 301.66 550.586 299.7 550.586V549.605C299.7 548.625 299.7 548.625 300.68 548.625C301.66 548.625 302.64 548.626 304.59 547.646H310.46C312.42 548.626 314.37 548.625 316.33 548.625C318.29 548.625 320.24 549.606 321.22 550.586C321.22 551.566 322.2 551.566 323.18 551.566H330.02ZM303.62 178.046C304.6 177.066 304.6 176.086 305.58 176.086C306.56 176.086 308.51 176.085 308.51 177.065C308.51 178.045 309.49 179.026 309.49 179.026C309.49 180.006 308.51 180.986 308.51 180.986C306.55 180.986 305.58 180.006 304.6 179.026C303.62 179.026 303.62 178.046 303.62 178.046ZM303.62 224.006V221.076C303.62 220.096 304.6 219.116 304.6 217.166V216.186C305.58 216.186 305.58 215.206 305.58 215.206C306.56 216.186 306.56 216.186 306.56 217.166C307.54 218.146 307.54 221.076 307.54 223.036C307.54 223.036 307.54 224.015 306.56 224.995C306.56 225.975 305.58 225.975 304.6 224.995L303.62 224.006ZM311.44 283.646C312.42 283.646 313.4 284.626 313.4 286.576C313.4 287.556 312.42 288.536 311.44 288.536C310.46 288.536 309.48 286.575 309.48 285.605C309.48 284.625 310.46 283.646 311.44 283.646ZM312.42 185.866V184.886C312.42 182.926 314.38 182.926 315.35 183.906C315.35 184.886 315.35 185.866 316.33 185.866C316.33 187.826 316.33 187.826 315.35 187.826C314.37 187.826 312.42 187.826 312.42 185.866ZM320.24 286.586L321.22 287.566C320.24 287.566 320.24 288.546 319.26 288.546L318.28 287.566C317.3 286.586 317.3 286.585 317.3 285.605C318.28 285.605 319.26 284.625 319.26 285.605C320.24 285.605 320.24 285.606 320.24 286.586ZM330.02 181.956C329.04 180.976 329.04 179.996 329.04 179.026C330.02 179.026 331 178.046 331.97 179.026C332.95 179.026 333.93 180.006 333.93 180.986V182.946C333.93 183.926 333.93 183.926 332.95 184.906L330.02 181.956ZM336.86 552.546C337.84 552.546 338.82 551.566 339.79 551.566C341.75 551.566 343.7 551.566 345.66 550.586C347.62 551.566 349.57 550.586 351.53 551.566H355.44C356.42 550.586 357.4 550.586 358.37 550.586C359.34 550.586 360.33 548.625 361.3 548.625C362.28 547.645 363.26 547.646 364.23 547.646H367.16C369.12 547.646 370.09 547.645 372.05 549.605H373.03C374.99 549.605 376.94 549.606 377.92 550.586H380.85C383.78 550.586 386.72 550.585 389.65 549.605C391.61 549.605 392.58 549.605 394.54 548.625C397.47 548.625 400.41 547.646 403.34 547.646C404.32 546.666 406.27 546.666 407.25 546.666L418.98 543.735C420.94 543.735 422.89 542.755 424.85 542.755C426.81 542.755 427.78 541.776 429.74 541.776C429.74 541.776 430.72 541.776 430.72 540.796L431.7 541.776H430.72C428.76 542.756 425.83 544.706 422.9 544.706C421.92 545.686 419.97 546.666 418.99 546.666L408.23 549.595C404.32 550.575 400.41 551.556 396.5 551.556L384.77 554.485C382.81 554.485 380.86 555.466 378.9 555.466C377.92 555.466 376.94 555.465 375.97 554.485C374.99 554.485 374.01 554.486 373.04 555.466H358.37C357.39 556.446 355.44 556.446 353.48 556.446C351.52 556.446 350.55 555.466 348.59 555.466C346.63 555.466 344.68 554.485 342.72 554.485C341.74 555.465 339.79 555.466 338.81 555.466C337.83 554.486 336.85 554.485 336.85 554.485C335.88 553.525 335.88 553.526 336.86 552.546ZM342.73 187.826C341.75 186.846 341.75 185.866 341.75 184.896C341.75 183.916 342.73 183.916 344.68 183.916L345.66 184.896C345.66 184.896 346.64 185.876 346.64 186.856C347.62 187.836 346.64 188.816 345.66 188.816C344.68 188.816 343.71 188.806 342.73 187.826ZM347.62 236.716C348.6 236.716 349.58 237.696 350.55 238.676V239.656C350.55 240.636 347.62 242.585 346.64 241.615C344.68 240.635 343.71 239.656 344.68 238.686C344.68 237.696 345.66 236.716 347.62 236.716ZM346.64 177.065C345.66 177.065 345.66 176.086 345.66 176.086C345.66 175.106 346.64 174.125 347.62 174.125H348.6C349.58 174.125 351.53 176.086 351.53 178.036L350.55 179.016L346.64 177.065ZM348.6 516.365C346.64 516.365 345.67 515.386 346.64 513.436C346.64 512.456 347.62 511.475 348.6 511.475L352.51 513.436V514.416C351.53 515.396 350.55 516.375 349.58 516.375H348.6V516.365ZM346.64 229.865C346.64 227.905 347.62 227.906 348.6 227.906H351.53C352.51 227.906 352.51 228.886 353.49 228.886C353.49 229.866 353.49 229.865 352.51 230.845C351.53 230.845 350.55 231.826 348.6 231.826C347.62 231.826 346.64 230.845 346.64 229.865ZM354.46 303.206C353.48 303.206 352.5 304.186 351.53 304.186C350.56 304.186 350.55 304.186 349.57 305.166C349.57 305.166 348.59 304.186 347.61 304.186C346.63 304.186 346.63 303.205 346.63 302.225C346.63 301.245 347.61 300.266 348.59 300.266H349.57C351.53 300.266 352.5 301.245 354.46 301.245C354.46 302.225 355.44 302.226 354.46 303.206ZM353.48 320.806C352.5 321.786 350.55 322.766 348.59 322.766C347.61 321.786 346.63 320.806 346.63 319.836C346.63 318.856 347.61 317.876 348.59 317.876H349.57C351.53 317.876 352.5 318.855 353.48 318.855C354.46 319.825 354.46 319.826 353.48 320.806ZM353.48 455.745C354.46 456.725 354.46 456.726 353.48 457.706C352.5 457.706 350.55 458.686 349.57 458.686C348.59 458.686 348.59 458.686 347.61 457.706C346.63 457.706 346.63 456.725 346.63 455.745C347.61 454.765 348.59 453.786 349.56 453.786C350.53 453.786 352.51 454.765 353.48 455.745ZM346.64 476.276C346.64 475.296 347.62 474.316 348.6 474.316C350.56 474.316 351.53 474.316 353.49 475.296C354.47 476.276 354.47 477.255 353.49 478.225C352.51 479.205 350.56 479.206 349.58 479.206C347.62 479.206 346.64 478.236 346.64 476.276ZM346.64 494.855C346.64 493.875 347.62 492.896 348.6 492.896C350.56 492.896 351.53 493.875 353.49 494.855C353.49 494.855 353.49 495.836 352.51 496.816C352.51 496.816 351.53 497.796 349.58 497.796C348.6 497.796 347.62 497.796 346.65 496.816V494.855H346.64ZM350.55 435.206C351.53 436.186 352.51 436.186 352.51 436.186C354.47 437.166 354.47 438.145 353.49 439.115C352.51 440.095 352.51 440.095 350.56 440.095C349.58 440.095 348.6 440.095 347.63 439.115C346.65 439.115 346.65 437.156 347.63 437.156C347.62 436.186 349.57 435.206 350.55 435.206ZM347.62 337.426C347.62 336.446 348.6 336.446 349.58 336.446C350.56 335.466 351.54 336.446 353.49 338.406H352.51C351.53 340.366 350.55 340.365 348.6 340.365C346.64 339.385 346.64 338.406 347.62 337.426ZM352.51 377.516C351.53 377.516 350.55 378.496 349.58 377.516C348.6 377.516 347.62 376.536 347.62 375.556C347.62 373.596 348.6 372.626 350.55 372.626C350.55 372.626 351.53 373.605 352.51 373.605C354.46 374.585 354.46 375.566 352.51 377.516ZM350.55 358.936C349.57 358.936 348.59 358.936 348.59 357.956C347.61 356.976 347.61 356.975 348.59 355.995C348.59 355.015 349.57 355.016 350.55 355.016C351.53 355.016 351.53 355.995 352.51 355.995C353.49 356.975 353.49 356.976 353.49 357.956C353.49 357.956 352.51 358.936 351.53 358.936H350.55ZM348.6 413.696H350.56C351.54 413.696 352.52 413.696 353.49 414.676C354.47 415.656 353.49 415.656 353.49 415.656C352.51 417.616 351.53 417.615 349.58 417.615C348.6 417.605 347.62 415.656 348.6 413.696ZM348.6 594.595V593.615C347.62 591.655 348.6 589.706 351.53 589.706L354.46 591.666C355.44 591.666 355.44 592.645 354.46 593.625C353.48 595.565 350.55 595.565 348.6 594.595ZM348.6 392.186C348.6 391.206 348.6 390.225 349.58 390.225C351.54 390.225 353.49 391.206 354.47 392.186C354.47 392.186 354.47 393.166 353.49 393.166C352.51 394.146 351.53 394.146 350.56 394.146C349.57 395.116 347.62 394.146 348.6 392.186ZM350.55 578.946C349.57 578.946 348.59 577.965 348.59 576.985C348.59 576.005 349.57 575.026 350.55 575.026C352.51 575.026 354.46 575.025 355.44 576.985V577.966C354.46 578.946 353.48 579.926 351.53 578.946H350.55ZM355.44 605.345C356.42 605.345 356.42 606.326 355.44 606.326C354.46 607.306 352.51 607.306 351.53 607.306C349.57 607.306 348.6 607.305 349.57 605.345C349.57 604.365 350.55 603.385 351.53 603.385L355.44 605.345ZM359.35 183.916C359.35 182.936 361.31 181.956 362.28 181.956C362.28 181.956 363.26 182.936 363.26 183.916C363.26 184.896 362.28 185.875 361.3 185.875C360.33 185.865 359.35 184.886 359.35 183.916ZM366.2 175.116C366.2 174.136 366.2 174.136 367.18 173.156H370.11C370.11 174.136 371.09 174.136 371.09 175.116C371.09 176.096 371.09 176.096 370.11 176.096C369.13 177.076 369.13 176.096 369.13 176.096C368.15 176.096 368.15 177.076 368.15 176.096C367.17 176.086 366.2 176.086 366.2 175.116ZM374.02 184.886C374.02 183.906 375.98 182.926 376.95 182.926C377.92 182.926 378.91 184.886 378.91 185.856C378.91 186.836 377.93 187.816 376.95 187.816C375 187.826 374.02 186.846 374.02 184.886ZM441.49 600.456C443.45 599.476 445.4 596.545 445.4 592.635V588.725C444.42 585.795 444.42 581.886 444.42 578.946V577.966C444.42 576.006 443.44 575.036 443.44 573.076V561.345C442.46 557.435 442.46 554.506 442.46 550.586C442.46 549.606 442.46 549.605 441.48 549.605C439.52 551.565 436.59 552.536 433.66 553.516C432.68 553.516 431.7 554.495 429.75 554.495C428.77 554.495 426.82 554.495 424.86 555.475C422.9 557.435 419.97 557.436 418.02 557.436L409.22 559.396L403.35 561.355C399.44 561.355 396.51 562.336 393.57 562.336C391.61 562.336 389.66 563.316 388.68 564.296C386.72 567.226 383.79 570.165 380.86 572.115C377.93 576.025 376.95 579.936 376.95 584.826C376.95 585.806 377.93 586.785 377.93 587.755V597.536C377.93 603.406 376.95 609.265 378.91 616.115H379.89C380.87 616.115 381.85 616.115 382.82 617.095C383.8 618.075 385.75 618.075 386.73 617.095H392.6C396.51 616.115 401.4 615.136 405.31 613.186C408.24 613.186 411.18 612.205 414.11 611.225C417.04 611.225 419 610.246 421.93 609.266L428.77 606.336L434.64 604.375L441.49 600.456ZM390.64 181.956L387.71 179.996C387.71 179.016 386.73 178.036 387.71 178.036C388.69 177.056 388.69 176.076 389.67 176.076C391.63 176.076 393.58 179.006 392.6 180.966L390.64 181.956ZM456.15 529.076L457.13 528.095H456.15C455.17 529.075 453.22 529.076 452.24 529.076H450.28C448.32 531.036 445.39 532.005 443.44 532.985L427.79 536.896C426.81 536.896 426.81 537.875 425.83 537.875C423.87 537.875 421.92 538.856 419.96 539.836H417.03C415.07 538.856 414.1 539.836 413.12 540.816C411.16 541.796 409.21 542.776 407.25 542.776C405.29 541.796 403.34 541.796 401.38 542.776H397.47V541.796H399.43C401.39 539.836 404.32 539.836 406.27 539.836C408.23 539.836 409.2 538.855 411.16 538.855C412.14 536.895 414.09 535.926 417.03 535.926C418.01 535.926 418.99 535.926 419.96 534.946C420.94 533.966 422.89 533.966 424.85 533.966C426.81 533.966 428.76 532.985 430.72 532.985L442.45 529.076C443.43 529.076 445.38 528.095 446.36 528.095L453.2 523.206L460.04 520.276C462 518.316 463.95 517.345 464.93 517.345C467.86 516.365 469.82 514.416 471.77 512.456L472.75 511.475L476.66 508.546C476.66 507.566 477.64 506.585 477.64 505.615L480.57 500.725C481.55 500.725 481.55 499.746 482.53 498.766C482.53 497.786 483.51 497.786 484.49 497.786C485.47 497.786 486.45 497.785 486.45 499.745C486.45 499.745 485.47 499.745 485.47 500.725L482.54 504.635L479.61 509.526C478.63 510.506 477.65 511.486 477.65 512.456C475.69 514.416 475.69 516.366 474.72 518.326C473.74 520.286 472.76 521.255 472.76 522.235C471.78 522.235 471.78 522.236 471.78 523.216L469.82 526.146C468.84 527.126 467.86 527.125 465.91 527.125C465.91 528.105 464.93 528.105 464.93 528.105C461.02 532.015 457.11 533.976 452.22 534.946L447.33 536.906C445.37 538.866 442.44 539.836 440.49 539.836H438.53C437.55 538.856 436.57 538.855 437.55 537.875L439.51 535.916C442.44 533.956 446.35 532.985 450.27 532.005C450.27 532.005 451.25 531.026 452.23 531.026L456.15 529.076ZM410.2 296.355C411.18 297.335 411.18 298.316 410.2 299.286C409.22 300.266 407.27 300.266 405.31 300.266C403.35 300.266 402.38 299.286 402.38 298.306C403.36 297.326 404.34 296.345 405.31 296.345H410.2V296.355ZM410.2 318.845C411.18 318.845 411.18 319.826 410.2 319.826C410.2 320.806 408.24 321.786 406.29 321.786H404.33C403.35 320.806 403.35 319.825 403.35 318.855C403.35 317.875 404.33 317.876 405.31 316.896C406.29 316.896 409.22 316.895 410.2 318.845ZM404.33 182.936L405.31 181.956C406.29 181.956 407.27 182.936 407.27 182.936C407.27 182.936 406.29 184.896 405.31 184.896C405.31 184.886 404.33 183.916 404.33 182.936ZM412.15 342.316C411.17 344.276 409.22 345.245 407.26 345.245C406.28 345.245 405.3 344.266 405.3 342.316C405.3 341.336 406.28 340.355 407.26 340.355H409.22C410.2 340.355 411.18 340.356 412.15 341.336C412.15 341.336 413.13 341.336 412.15 342.316ZM415.09 363.826C414.11 364.806 412.16 365.786 410.2 365.786C409.22 365.786 406.29 364.806 406.29 363.826C406.29 361.866 407.27 359.916 410.2 359.916C412.16 359.916 413.13 360.895 415.09 362.845C416.06 362.855 416.06 362.856 415.09 363.826ZM411.18 387.296H410.2L408.24 385.336C408.24 384.356 408.24 383.376 409.22 383.376C410.2 382.396 411.18 381.416 411.18 382.396C412.16 382.396 412.16 382.396 412.16 383.376C413.14 383.376 415.09 384.356 415.09 385.336L411.18 387.296ZM417.04 407.826C416.06 409.786 414.11 410.756 412.15 409.786C411.17 409.786 409.22 407.826 410.19 405.876C411.17 405.876 412.15 405.876 412.15 404.896H414.11C415.09 404.896 416.07 405.876 417.04 405.876C418.02 406.856 418.02 406.856 417.04 407.826ZM419 428.365C418.02 430.325 415.09 432.276 413.13 432.276C411.17 431.296 411.17 430.315 411.17 428.365C411.17 428.365 411.17 427.385 412.15 427.385H413.13C415.09 427.385 417.04 427.385 418.02 428.365H419ZM419.98 449.875C421.94 449.875 421.94 450.856 420.96 451.836L416.07 454.766C413.14 453.786 412.16 452.805 412.16 450.855C412.16 449.875 414.12 448.896 415.09 448.896C417.05 448.896 418.02 448.895 419 449.875H419.98ZM421.93 469.436H423.89C424.87 470.416 423.89 471.395 422.91 472.365C421.93 473.345 419.98 475.296 418.02 475.296C417.04 475.296 417.04 475.296 416.06 476.276C416.06 475.296 415.08 475.296 415.08 475.296C414.1 475.296 413.12 474.315 414.1 472.365C414.1 471.385 415.08 471.385 416.06 471.385L421.93 469.436ZM424.86 491.926V492.906C423.88 494.866 421.93 495.836 419.97 495.836C418.99 496.816 418.01 496.816 417.04 495.836C416.06 495.836 415.08 493.876 415.08 492.906C416.06 491.926 417.04 490.946 418.99 490.946C419.97 490.946 421.92 491.926 422.9 491.926H424.86ZM426.82 506.586C427.8 506.586 427.8 507.566 426.82 507.566C426.82 508.546 426.82 508.546 425.84 508.546C423.88 510.506 421.93 511.475 419.97 510.505C418.99 510.505 418.01 510.506 418.01 509.526C418.01 508.546 418.01 507.565 418.99 506.595C419.97 505.615 421.92 505.615 422.9 505.615C423.88 505.615 425.84 505.616 426.82 506.586ZM430.73 564.276C429.75 566.236 428.77 566.235 425.84 566.235H424.86C422.9 565.255 422.9 563.306 424.86 563.306C424.86 562.326 425.84 562.326 426.82 562.326C427.8 562.326 428.78 562.326 430.73 563.306C431.71 563.306 431.71 564.276 430.73 564.276ZM426.82 580.906C425.84 579.926 425.84 577.975 427.8 576.995H432.69C431.71 578.955 429.76 579.926 427.8 580.906H426.82ZM430.73 592.635H429.75C428.77 592.635 428.77 591.656 428.77 591.656C428.77 590.676 429.75 589.696 429.75 589.696C431.71 589.696 432.68 589.696 434.64 590.676C433.66 592.636 431.71 592.635 430.73 592.635ZM438.55 212.266L433.66 215.196C433.66 216.176 432.68 215.196 431.7 215.196C430.72 214.216 430.72 213.236 430.72 212.266C431.7 211.286 433.65 211.286 434.63 211.286C434.63 210.306 435.61 211.286 435.61 211.286V210.306C436.59 211.286 437.57 211.286 438.54 211.286V212.266H438.55ZM435.62 224.975V222.046C437.58 220.086 439.53 218.136 441.49 218.136C444.42 218.136 445.4 219.116 444.42 221.066C444.42 223.026 440.51 225.956 437.58 225.956C436.6 225.956 435.62 225.955 435.62 224.975ZM445.4 290.495C443.44 290.495 441.49 290.496 438.56 289.516L437.58 288.536H438.56L450.29 284.625H453.22C454.2 284.625 454.2 284.625 455.18 285.605C455.18 286.585 455.18 287.566 454.2 287.566C454.2 288.546 453.22 288.546 453.22 288.546C450.29 290.496 448.33 290.495 445.4 290.495ZM442.47 236.716C440.51 236.716 439.54 235.736 439.54 234.756L441.5 231.826C443.46 231.826 445.41 230.845 447.37 229.865H449.33C451.29 229.865 451.29 230.846 451.29 231.826C451.29 232.806 450.31 232.806 450.31 233.786L443.47 236.716H442.47ZM442.47 302.225C441.49 302.225 441.49 302.225 441.49 301.245V300.266L447.36 298.306H450.29C451.27 298.306 451.27 298.306 452.25 299.286C453.23 299.286 453.23 300.266 453.23 300.266C452.25 301.246 452.25 301.245 451.27 301.245C449.31 302.225 447.36 303.205 445.4 302.225H442.47ZM444.42 317.876C443.44 317.876 442.46 316.896 442.46 315.916C442.46 314.936 442.46 314.936 443.44 313.956C445.4 313.956 446.37 313.955 447.35 312.975C448.33 312.975 450.28 313.955 451.26 312.975C452.24 312.975 453.22 313.955 454.19 312.975C455.17 312.975 456.15 313.956 456.15 314.936C456.15 315.916 455.17 316.896 454.19 316.896C453.21 317.876 452.23 317.876 451.26 317.876H444.42ZM443.44 331.566C443.44 330.586 443.44 329.605 444.42 329.605C445.4 328.625 446.38 328.626 447.35 328.626C449.31 327.646 450.28 327.646 452.24 327.646H454.2C456.16 327.646 456.16 328.626 455.18 330.576C455.18 330.576 454.2 331.556 453.22 331.556C451.26 333.516 448.33 333.516 445.4 333.516C444.42 333.516 444.42 332.536 443.44 331.566ZM446.38 347.206C445.4 345.246 446.38 345.246 447.36 344.276C448.34 343.296 450.29 343.296 452.25 343.296H454.21C455.19 343.296 456.17 344.276 456.17 345.256C456.17 345.256 456.17 346.236 455.19 347.216C453.23 348.196 450.3 349.176 448.35 348.196C447.35 348.186 446.38 347.206 446.38 347.206ZM448.33 363.826C447.35 362.846 446.37 360.896 447.35 359.916C448.33 359.916 449.31 358.936 450.28 358.936C452.24 358.936 455.17 358.936 457.12 359.916C459.08 360.896 459.08 362.845 457.12 362.845C455.16 363.825 453.21 364.806 451.25 364.806C450.29 364.806 449.31 364.806 448.33 363.826ZM450.29 380.456C449.31 380.456 448.33 379.475 448.33 378.495C448.33 376.535 449.31 376.536 450.29 375.566H453.22C454.2 375.566 455.18 375.566 456.15 376.546C457.13 376.546 457.13 377.526 457.13 378.506C456.15 379.486 455.17 380.466 453.22 380.466H450.29V380.456ZM449.31 394.146C449.31 393.166 450.29 392.186 451.27 392.186H457.14C459.1 392.186 459.1 393.166 458.12 394.146C458.12 395.126 457.14 395.125 456.16 396.105C455.18 396.105 453.23 397.086 452.25 397.086C451.27 397.086 450.29 397.085 450.29 396.105C449.31 395.115 448.33 394.146 449.31 394.146ZM462.02 422.495C463 422.495 463 423.475 463 423.475C463.98 424.455 463 425.436 463 425.436C462.02 426.416 461.04 426.416 461.04 427.396C459.08 428.376 456.15 429.355 454.2 428.375H453.22C452.24 428.375 451.26 427.396 450.29 426.416C450.29 425.436 451.27 423.485 453.22 423.485H454.2C456.16 422.505 458.11 422.505 460.07 422.505H462.02V422.495ZM460.07 407.826V408.806C460.07 409.786 459.09 410.766 458.11 410.766L455.18 412.725C453.22 412.725 452.25 412.725 451.27 411.745C450.29 410.765 450.29 409.786 451.27 408.816C452.25 407.836 453.23 407.836 455.18 407.836C455.18 406.856 456.16 406.855 457.14 406.855C457.14 406.855 458.12 406.856 459.1 407.836H460.07V407.826ZM463.98 438.146L461.05 441.076C460.07 441.076 458.12 442.056 456.16 443.036C455.18 442.056 454.2 442.056 453.23 442.056C452.25 441.076 452.25 438.146 454.21 438.146L455.19 437.166C458.12 437.166 461.06 436.186 463.01 437.166C463.98 437.166 464.95 437.166 463.98 438.146ZM464.95 452.806C465.93 453.786 465.93 453.786 465.93 454.766C463 457.696 460.06 457.696 457.13 458.676C456.15 458.676 454.2 458.676 454.2 456.716C453.22 456.716 453.22 455.735 453.22 455.735C454.2 454.755 454.2 453.776 455.18 453.776C458.11 453.776 461.05 452.796 463.98 452.796H464.95V452.806ZM465.93 471.385L462.02 473.345C460.06 474.325 459.09 475.306 457.13 475.306C456.15 474.326 455.17 474.326 455.17 474.326C454.19 472.366 455.17 471.396 456.15 471.396C457.13 470.416 459.08 469.436 460.06 469.436H462.99C463.97 469.436 464.95 469.436 465.92 470.416V471.385H465.93ZM463 484.095H466.91V486.056C465.93 487.036 465.93 487.036 464.95 487.036L457.13 488.995H455.17C455.17 488.015 455.17 487.036 456.15 487.036L457.13 486.056L463 484.095ZM472.78 546.676C470.82 546.676 469.85 545.695 469.85 543.745C469.85 543.745 469.85 542.766 470.83 542.766C473.76 540.806 476.7 539.835 479.63 538.855C480.61 538.855 480.61 538.856 480.61 539.836C479.63 543.746 476.7 544.726 473.77 546.676H472.78V546.676ZM474.73 561.345C473.75 561.345 471.8 561.345 471.8 560.365C471.8 559.385 471.8 558.406 472.78 557.436C474.74 556.456 476.69 556.455 477.67 555.475H480.6C481.58 554.495 481.58 555.476 481.58 556.456C481.58 556.456 480.6 557.436 480.6 558.416L475.71 561.345H474.73ZM493.31 477.255C493.31 479.215 494.29 481.165 495.27 483.125C495.27 484.105 495.27 484.105 496.25 484.105C498.21 483.125 501.14 482.146 503.09 482.146C505.04 482.146 506.02 481.166 507 480.186L512.87 472.365L516.78 467.475C518.74 463.565 519.71 458.676 519.71 453.786V444.005L517.75 434.225C515.79 425.425 512.86 416.626 509.93 408.806L507.97 399.026C507.97 397.076 507.97 394.136 506.99 391.206V355.026L508.95 348.186C508.95 345.256 508.95 342.315 509.93 340.365C510.91 336.455 511.89 332.546 511.89 328.636C511.89 325.706 511.89 321.795 510.91 318.855C510.91 315.925 509.93 313.966 507.98 311.036C507.98 310.056 507 309.076 506.02 307.126L503.09 302.235L501.13 299.306L495.26 296.376C492.33 295.396 488.42 294.416 484.5 295.396C480.59 296.376 477.66 298.326 476.68 303.216C475.7 304.196 474.72 306.145 474.72 308.105C473.74 311.035 472.76 313.976 473.74 316.906V323.745C474.72 324.725 474.72 325.706 474.72 326.676V329.605C474.72 333.515 475.7 336.445 475.7 340.365C475.7 343.295 475.7 345.256 476.68 348.186V355.026C476.68 357.956 476.68 361.866 477.66 364.806V384.365C478.64 386.325 478.64 388.275 478.64 390.235C478.64 393.165 478.64 396.106 479.62 399.036C480.6 401.966 480.6 405.876 480.6 408.816C480.6 412.726 480.6 416.636 481.58 420.546V432.276C481.58 434.236 482.56 437.165 482.56 439.115C482.56 443.025 483.54 446.935 483.54 450.845V454.755L485.5 465.516C485.5 466.496 486.48 467.476 487.46 468.446C490.38 471.386 492.33 473.345 493.31 477.255ZM523.62 487.036C523.62 487.036 524.6 487.036 524.6 486.056H514.82C512.86 485.076 510.91 485.076 508.95 485.076C507.97 485.076 506.99 486.056 506.02 487.036C507.98 487.036 510.91 487.036 513.84 488.016C515.8 488.016 516.77 488.015 518.73 488.995C520.69 488.995 521.66 488.996 523.62 488.016V487.036ZM507.98 299.296H509.94C511.9 298.316 513.85 298.316 514.83 298.316C515.81 298.316 515.81 297.336 516.79 297.336C515.81 297.336 514.83 296.355 514.83 296.355H513.85C511.89 297.335 509.94 297.336 507.01 297.336L507.98 299.296ZM511.89 300.276C510.91 300.276 510.91 301.256 509.93 301.256V303.216C510.91 303.216 510.91 304.196 511.89 304.196H512.87C515.8 303.216 517.76 303.216 520.69 303.216H522.65C521.67 302.236 521.67 301.256 521.67 301.256C520.69 300.276 520.69 300.276 519.71 300.276H511.89ZM515.8 266.046C516.78 266.046 517.76 267.026 517.76 268.006C517.76 268.986 517.76 268.986 516.78 269.966C515.8 272.896 514.82 275.836 511.89 278.766C510.91 278.766 510.91 277.786 510.91 277.786C511.89 273.876 511.89 270.946 513.84 267.026C514.82 266.046 514.82 266.046 515.8 266.046ZM511.89 374.586C510.91 374.586 511.89 375.566 511.89 375.566H517.76C519.72 375.566 520.69 374.586 522.65 375.566C523.63 375.566 524.61 375.566 524.61 374.586C524.61 373.606 523.63 372.626 523.63 371.656C523.63 370.676 524.61 369.695 524.61 368.725V367.745C524.61 365.785 524.61 365.786 522.65 365.786C519.72 366.766 515.81 365.786 512.87 365.786C511.89 366.766 511.89 367.746 511.89 369.696V374.586V374.586ZM511.89 382.406C511.89 385.336 511.89 387.295 512.87 389.245V391.206H520.69C522.65 390.226 524.6 391.206 525.58 391.206C526.56 392.186 526.56 391.206 526.56 391.206C526.56 390.226 525.58 388.276 525.58 387.296C525.58 385.336 524.6 383.386 524.6 381.426C524.6 380.446 524.6 380.446 523.62 380.446C521.66 381.426 519.71 380.446 517.75 380.446C515.79 380.446 514.82 380.446 512.86 379.466C511.88 379.466 511.88 379.466 511.88 380.446V382.406H511.89ZM516.78 307.115H512.87C512.87 308.095 512.87 308.096 513.85 309.076C513.85 311.036 514.83 311.036 516.78 311.036C519.71 310.056 522.65 310.056 525.58 310.056C526.56 310.056 526.56 310.056 526.56 309.076L525.58 308.095C525.58 306.135 524.6 306.135 523.62 307.115C521.67 308.095 518.73 307.115 516.78 307.115ZM514.82 361.876H517.75C519.71 360.896 521.66 361.876 524.59 361.876C524.59 358.946 525.57 356.006 526.55 353.076V352.095H525.57C522.64 353.075 519.7 354.056 517.75 353.076H513.84V355.036C513.84 356.996 512.86 357.966 512.86 359.926C512.86 361.886 512.87 361.876 514.82 361.876ZM518.73 478.235H516.77L512.86 482.146H524.59C525.57 483.126 526.55 483.125 527.52 483.125C528.5 483.125 528.5 483.126 528.5 482.146C529.48 481.166 530.46 480.185 530.46 478.235C526.56 479.205 522.65 478.235 518.73 478.235ZM513.85 394.146C513.85 397.076 513.85 400.016 514.83 401.966C515.81 402.946 515.81 402.946 516.79 402.946C518.75 401.966 521.68 401.966 524.61 401.966H528.52V400.985C528.52 399.025 527.54 396.096 527.54 394.146C526.56 393.166 526.56 393.166 525.58 393.166V394.146C523.62 394.146 521.67 395.126 519.71 394.146C517.75 394.146 515.8 394.146 513.84 393.166V394.146H513.85ZM567.62 227.916L554.91 239.646L550.02 243.556L547.09 246.485C543.18 249.415 538.29 252.356 533.4 253.326C531.44 254.306 528.51 254.306 525.58 254.306C523.62 254.306 521.67 254.306 519.71 255.286H517.75C516.77 254.306 515.79 254.306 514.82 254.306L517.75 252.345C523.62 250.385 530.46 248.436 536.33 245.506L544.15 241.595C545.13 240.615 547.08 239.636 548.06 239.636C551.97 237.676 554.9 235.726 557.84 232.796C560.77 229.866 564.68 226.925 569.57 224.975V223.995H572.5C572.5 224.975 571.52 224.976 570.54 225.956L567.62 227.916ZM514.82 347.206C514.82 349.166 514.82 349.166 516.78 349.166H525.58C527.54 349.166 527.54 350.146 527.54 348.186L529.5 342.316C529.5 341.336 528.52 341.336 528.52 341.336H524.61C522.65 342.316 520.7 342.316 518.74 342.316H516.78C516.78 342.316 515.8 342.316 515.8 343.296C515.8 344.276 515.8 346.226 514.82 347.206ZM530.47 407.826C530.47 406.846 529.49 406.845 528.51 406.845C525.58 406.845 523.62 406.845 520.69 405.865H516.78C515.8 405.865 515.8 405.865 516.78 406.845C516.78 407.825 517.76 409.776 517.76 410.756C518.74 412.716 518.74 413.686 521.67 412.716C523.63 412.716 526.56 412.715 528.51 411.735H531.44C531.44 410.755 530.46 409.776 530.46 408.806V407.826H530.47ZM524.6 418.586H520.69V419.566L521.67 420.546C523.63 419.566 525.58 420.546 526.56 420.546H528.52C530.48 419.566 532.43 419.566 533.41 419.566C534.39 420.546 534.39 419.566 534.39 419.566C534.39 419.566 534.39 418.586 533.41 418.586C533.41 417.606 533.41 417.605 532.43 417.605C530.47 418.585 527.53 418.586 524.6 418.586ZM538.29 460.635V458.676H532.42C530.46 459.656 528.51 459.656 526.55 458.676C525.57 458.676 525.57 458.676 525.57 459.656C525.57 461.616 524.59 463.566 523.61 465.526C523.61 466.506 523.61 466.505 524.59 466.505H527.52C529.48 466.505 531.43 466.505 533.39 467.485H535.35C535.35 468.465 534.37 468.466 534.37 468.466C533.39 468.466 532.41 469.446 532.41 469.446C530.45 469.446 529.48 470.426 528.5 470.426C526.54 470.426 525.57 469.446 524.59 469.446C522.63 469.446 522.63 469.446 521.66 471.406V472.385C521.66 472.385 521.66 473.365 520.68 474.345H529.48C531.44 474.345 532.41 475.326 533.39 475.326C533.39 474.346 534.37 473.366 534.37 472.396C535.35 471.416 535.35 471.416 535.35 470.436C536.33 469.456 536.33 468.475 536.33 467.505L538.29 460.635ZM534.38 424.456H522.65C521.67 424.456 521.67 424.456 521.67 425.436L522.65 426.416C522.65 427.396 522.65 427.396 523.63 427.396H525.59C528.52 426.416 531.46 426.416 534.39 426.416C535.37 426.416 536.35 426.416 535.37 425.436C535.36 424.456 535.36 423.476 534.38 424.456ZM535.36 430.316C534.38 430.316 532.43 431.296 531.45 431.296H524.61C523.63 431.296 523.63 432.276 523.63 432.276C523.63 433.256 524.61 433.255 524.61 434.235H525.59C527.55 434.235 530.48 433.255 533.41 433.255H536.34C537.32 433.255 537.32 433.256 537.32 432.276C537.31 430.316 536.33 430.316 535.36 430.316ZM538.29 440.095C538.29 438.135 537.31 438.135 536.33 438.135C535.35 438.135 534.37 439.115 534.37 439.115C531.44 438.135 529.48 438.135 526.55 438.135H524.59C525.57 439.115 525.57 440.095 525.57 440.095V443.026C525.57 444.006 525.57 444.005 526.55 444.005C529.48 444.005 532.42 444.005 535.35 444.985C538.28 444.985 538.28 444.986 538.28 442.056V440.095H538.29ZM538.29 446.946C534.38 446.946 530.47 447.926 526.56 446.946C525.58 446.946 525.58 446.946 525.58 447.926V453.796C526.56 454.776 525.58 454.775 525.58 455.755H537.31C538.29 455.755 538.29 455.756 538.29 454.776V446.946ZM556.87 249.426C555.89 250.406 555.89 251.385 555.89 252.355C555.89 255.285 554.91 258.226 554.91 260.176L551.98 265.066C550.02 267.996 550.02 269.956 549.05 272.886C548.07 276.796 547.09 280.706 545.14 283.646C545.14 285.606 544.16 286.576 543.18 287.556C542.2 288.536 542.2 289.516 541.22 289.516C538.29 291.476 536.33 294.406 535.35 297.336V298.316H534.37L533.39 297.336C534.37 295.376 534.37 292.446 536.32 291.466C537.3 288.536 539.25 286.575 540.23 284.625C542.19 281.695 543.16 278.756 543.16 276.806C544.14 272.896 544.14 268.986 546.09 266.046L550 261.156C550.98 260.176 551.96 258.226 551.96 256.266C552.94 254.306 553.92 252.356 553.92 250.396C554.9 250.396 554.9 249.416 555.88 248.436C555.89 248.446 556.87 248.446 556.87 249.426ZM534.38 375.566C534.38 372.636 535.36 369.695 537.31 368.725L542.2 364.816C544.16 363.836 545.13 362.856 545.13 360.906L550.02 355.036L553.93 352.105C555.89 351.125 556.86 350.146 557.84 348.196L560.77 342.326C561.75 341.346 561.75 340.365 562.73 341.345V343.306L558.82 351.126C557.84 352.106 556.86 354.056 554.91 355.036C551.98 356.996 550.02 359.926 549.04 363.836C548.06 365.796 547.08 367.746 544.15 369.706C543.17 369.706 542.19 370.686 540.24 372.636L537.31 375.566C537.31 376.546 537.31 377.526 536.33 377.526C535.35 378.506 534.37 377.526 534.37 376.546V375.566H534.38ZM566.65 302.225C567.63 303.205 567.63 303.206 566.65 303.206V308.095C566.65 311.025 565.67 313.966 563.72 316.896C563.72 318.856 561.76 319.826 561.76 320.806C559.8 322.766 557.85 323.736 556.87 325.696L553.94 329.605C552.96 330.585 551.98 331.566 551.01 331.566C548.08 333.526 545.14 336.456 544.17 339.386C544.17 340.366 544.17 340.365 543.19 341.345C542.21 343.305 540.26 345.256 539.28 348.186C538.3 348.186 538.3 348.186 537.32 347.206V345.245C537.32 343.285 537.32 342.315 538.3 340.355C539.28 338.395 540.26 337.426 540.26 335.466C542.22 332.536 544.17 330.576 547.1 328.626C549.06 326.666 551.01 325.695 551.99 323.735L557.86 318.845C560.79 316.885 562.75 314.936 563.73 312.006C564.71 310.046 564.71 307.116 564.71 305.166C565.69 304.186 565.69 304.186 565.69 303.206L566.65 302.225ZM561.76 271.916V272.896C561.76 274.856 561.76 275.826 560.78 276.806C560.78 278.766 559.8 279.736 558.82 281.696V290.495C558.82 298.315 555.89 303.205 549.04 307.115L545.13 310.046C545.13 311.026 544.15 311.026 544.15 312.006H543.17V310.046C543.17 308.086 544.15 306.136 546.1 304.176C547.08 303.196 548.06 301.246 550.01 300.266C551.97 297.336 553.92 294.395 553.92 290.485C553.92 285.595 554.9 281.686 556.85 277.776C557.83 275.816 558.81 273.866 560.76 272.886C560.78 271.916 561.76 271.916 561.76 271.916ZM570.56 362.855C569.58 366.765 566.65 369.696 563.72 372.636C562.74 373.616 561.76 375.566 561.76 377.526C559.8 382.416 556.87 385.346 552.96 388.286L546.12 395.126C544.16 396.106 544.16 395.126 544.16 394.146C544.16 392.186 545.14 390.236 546.12 389.256C548.08 386.326 551.01 384.366 553.94 381.436C555.9 380.456 556.87 378.506 557.85 375.566C558.83 373.606 560.78 371.656 562.74 369.696C564.7 368.716 565.67 367.736 566.65 365.786C568.61 362.856 569.58 359.915 570.56 356.985C570.56 356.985 571.54 355.026 571.54 354.056L572.52 353.076H573.5V354.056L570.56 362.855ZM561.76 405.876C561.76 408.806 560.78 410.766 558.83 412.716C557.85 414.676 555.9 415.646 554.92 416.626C553.94 417.606 552.96 417.605 551.99 417.605C551.02 417.605 551.01 416.626 551.01 415.646C551.01 414.666 551.01 414.666 551.99 413.686L555.9 409.776C557.86 407.816 559.81 406.846 560.79 404.886C560.79 404.886 560.79 403.906 561.77 403.906V405.876H561.76ZM556.87 445.966C555.89 446.946 554.91 446.946 553.94 446.946C552.97 446.946 552.96 445.966 552.96 445.966C552.96 444.006 554.92 442.056 556.87 443.036C557.85 444.006 557.85 445.966 556.87 445.966ZM556.87 469.436V470.416L553.94 473.345H552.96V472.365C552.96 471.385 554.92 470.406 555.89 469.436H556.87ZM572.51 323.735C572.51 323.735 573.49 323.736 573.49 324.716C573.49 326.676 572.51 328.626 570.56 331.556C570.56 331.556 569.58 331.556 569.58 332.536C568.6 332.536 567.62 332.536 567.62 330.576V329.595C568.6 327.635 569.58 325.685 571.53 323.725H572.51V323.735Z" fill="url(#paint0_linear_606_43)"/>
<defs>
<linearGradient id="paint0_linear_606_43" x1="199" y1="162" x2="590" y2="628" gradientUnits="userSpaceOnUse">
<stop stop-color="#CD8258"/>
<stop offset="1" stop-color="#74453A"/>
</linearGradient>
</defs>
</svg>
