<svg width="700" height="450" viewBox="0 0 700 450" fill="none" xmlns="http://www.w3.org/2000/svg">
<path d="M424.092 211.305L423.348 215.019C423.348 215.763 423.348 216.503 422.976 217.616C422.976 218.729 422.604 219.845 422.231 220.958L419.634 229.498C419.262 230.611 418.89 231.727 418.89 232.84C418.145 234.697 418.145 236.554 417.405 238.039L416.292 242.865V250.293L416.664 250.665C417.409 251.41 417.777 252.15 418.149 253.263C418.521 254.007 418.149 254.748 417.777 255.492L416.664 257.721L414.807 260.318L411.838 265.145C411.093 265.889 410.353 267.002 409.24 267.743C408.496 268.855 407.383 269.227 406.271 269.6L404.786 270.344H403.673C402.929 270.344 402.188 270.716 401.816 271.088L396.617 272.573C394.388 273.317 392.531 274.43 390.678 275.17C389.934 275.915 389.566 276.655 388.821 277.027C388.821 277.399 388.821 277.772 388.449 277.772C388.449 278.884 388.077 279.629 387.705 280.741C387.333 282.226 386.96 283.711 387.333 285.196V287.425C387.333 288.537 386.96 289.654 386.588 290.394C386.588 291.139 386.216 291.507 385.844 291.879L385.472 292.251L384.359 293.736L382.874 295.593C382.13 296.706 381.017 297.45 379.533 298.191L376.935 300.42C376.191 301.164 375.45 301.905 374.706 302.277C373.593 302.649 372.109 303.389 370.992 304.506L369.507 305.25C368.022 305.994 366.538 306.735 365.053 307.107C363.568 307.851 362.455 308.22 360.967 308.592C359.482 309.336 357.997 309.705 356.14 310.077C355.028 310.077 353.911 310.449 352.426 310.821L349.084 311.565C348.34 311.565 347.228 311.565 346.487 311.937H344.63C344.258 312.31 343.145 312.31 342.401 312.31C342.029 312.682 341.657 312.682 341.288 312.682H339.059L336.462 313.426H335.349C334.977 313.426 334.605 313.054 334.236 313.054C332.007 313.798 329.41 313.426 327.181 313.426H322.354C321.61 313.426 321.241 313.426 320.869 313.054H318.64C317.528 312.682 316.783 312.682 315.671 312.682L313.441 311.937C312.329 311.937 311.212 311.565 310.472 311.565L306.017 310.453L300.447 308.968C298.59 308.224 296.733 307.483 294.876 306.37C291.906 304.886 289.305 303.401 287.079 301.544L283.366 298.202C282.993 297.458 282.253 297.089 281.881 296.717L280.396 294.488L277.798 290.034C277.426 289.289 277.054 288.177 277.054 287.436C277.054 285.579 277.054 284.094 277.426 282.61V274.813C277.798 274.441 277.426 274.441 277.426 274.069C276.682 273.325 276.314 272.584 275.941 271.472C275.569 270.727 275.569 269.987 275.569 268.874V268.502C275.569 267.389 275.941 266.645 275.941 265.532C275.569 265.16 275.569 264.788 275.569 264.048V262.191C275.569 261.818 275.569 261.446 275.941 261.446C276.314 261.074 276.314 260.702 276.314 260.334C276.314 259.962 276.314 259.589 276.686 259.221C276.686 258.849 277.058 258.477 277.43 258.477C277.802 258.105 278.174 257.732 278.174 257.364C277.802 256.251 278.174 254.767 278.174 253.65C278.174 252.906 277.802 251.793 278.174 251.053V241.027C278.546 239.915 278.174 238.798 278.546 237.313V233.599C278.919 231.743 278.919 229.886 278.919 228.401C278.919 228.029 278.546 227.656 278.546 227.288V226.916C278.919 225.803 278.919 224.687 278.919 223.574V216.146C279.291 215.402 279.291 214.289 279.291 213.549V207.237C279.663 206.125 279.291 205.381 279.663 204.268C279.663 203.524 279.663 202.411 280.035 201.67V198.329C280.407 197.216 280.407 195.731 280.407 194.615C280.407 193.502 280.407 192.017 280.779 190.529V187.187C281.152 185.702 280.779 184.217 281.152 182.732V180.503C281.152 180.131 281.152 180.131 280.779 180.131C280.407 180.131 280.407 180.131 280.035 179.759C279.291 179.015 278.55 178.274 278.55 177.162C278.55 175.305 278.55 173.448 278.922 171.591C278.922 169.734 279.295 168.249 279.667 166.764C279.667 165.651 280.411 164.907 281.524 164.535C281.896 164.535 281.896 164.163 281.896 163.791C281.896 162.306 282.64 161.193 283.381 160.077L285.61 157.107C286.354 156.735 286.722 155.994 287.095 155.622L288.207 152.653C288.579 151.908 288.952 151.168 288.952 150.055V148.57C288.952 147.458 289.324 146.713 290.064 145.973C290.809 144.86 291.549 144.488 292.293 144.116C293.778 143.003 295.263 142.631 297.12 142.259H298.233C298.233 142.259 298.605 142.259 298.605 141.887L299.717 140.774C300.09 140.402 300.462 140.402 301.202 140.402H302.687C303.059 140.402 303.431 140.03 303.8 139.658C304.544 138.545 305.657 137.801 307.141 137.801C308.254 137.429 309.371 137.801 310.111 138.545C310.483 138.545 310.855 138.917 311.596 138.545C312.34 137.801 313.825 137.801 314.938 137.801C315.682 138.173 316.422 138.173 317.167 138.173C317.911 138.545 319.024 138.545 319.764 138.545H320.136C321.249 138.545 322.366 138.545 323.478 138.173C323.85 137.801 324.591 137.429 325.335 137.429C326.079 137.056 326.448 137.056 327.192 137.056C327.564 136.684 328.305 136.684 328.677 136.684C329.421 136.312 330.162 136.684 330.534 136.684C330.906 137.056 331.278 137.056 331.647 137.056C332.391 137.429 332.759 137.429 333.503 137.056H337.217C337.59 137.056 338.33 137.056 339.074 137.429C339.447 137.429 339.819 137.801 340.559 137.801H343.529C344.641 137.801 345.758 138.173 346.871 138.173L347.243 138.545C347.987 139.289 348.728 138.917 349.1 138.917C350.584 138.545 351.697 138.545 352.441 139.289C352.814 139.662 353.186 139.662 353.186 139.662C353.558 140.034 353.558 140.034 353.93 140.034C354.302 140.034 354.674 140.406 355.415 140.406C356.528 140.406 358.012 140.406 359.501 140.778L362.471 141.522L364.7 142.267C365.812 142.639 366.929 142.639 367.669 143.379C368.782 143.751 369.526 144.864 369.526 145.977C369.526 147.089 369.526 148.206 369.898 148.946V150.431L371.383 153.401L372.496 154.886L375.093 157.855C375.838 158.227 376.578 159.34 376.578 160.453C376.95 160.825 376.95 161.565 376.95 161.937C376.95 162.31 376.95 162.682 377.322 163.05C378.067 163.422 378.435 164.163 378.807 164.907V165.279C379.179 165.651 379.179 166.392 379.179 167.136C379.179 167.508 379.552 167.508 379.552 167.508C380.664 167.136 381.409 166.396 382.149 166.024C383.262 165.651 384.378 165.279 385.863 165.279C386.607 165.279 387.72 164.907 388.46 164.907C390.317 164.907 392.174 164.535 394.031 164.535C396.26 164.163 398.117 163.05 400.343 161.937L404.797 159.34L406.654 157.855L408.139 156.743L411.853 154.886L414.45 153.773H416.307C416.679 153.773 418.164 153.773 418.536 154.145C418.536 154.145 418.909 154.145 418.909 154.517C418.909 154.889 418.909 155.262 418.536 155.262H417.424C415.939 155.262 414.082 155.634 412.597 156.374L408.883 158.603C408.139 158.975 407.398 159.716 407.026 160.46L405.169 161.945L401.455 164.543L395.512 166.772C394.768 166.772 393.655 166.772 392.915 167.144C391.802 167.144 390.686 167.144 389.573 167.516H388.829C388.457 167.516 387.716 167.516 386.972 167.888C385.487 167.888 384.002 168.26 382.517 168.632H382.145L379.916 169.745V170.117C380.288 171.23 380.288 172.715 380.288 173.831C380.288 174.575 380.288 174.575 381.033 174.203L384.374 173.459C385.119 173.459 385.859 173.087 386.603 173.087L389.201 172.343H391.798L392.171 172.715H391.798C391.426 173.087 391.426 173.087 391.054 173.087L389.197 173.831C388.453 174.575 387.34 175.316 386.228 175.316C385.115 175.688 383.63 176.06 382.514 176.06L380.657 176.805C380.285 177.177 379.544 177.177 379.544 177.917C379.172 178.289 379.172 178.289 379.172 178.662C378.8 179.034 378.428 179.406 377.687 179.406C376.943 179.034 376.202 179.406 375.458 179.778C375.086 179.778 375.086 180.15 375.086 180.522C375.086 181.267 375.086 182.007 375.458 182.751C375.458 183.496 375.458 184.608 375.83 185.349C375.83 185.721 375.458 186.093 375.83 186.462C375.458 187.206 375.83 187.946 375.458 188.691C375.458 189.063 375.086 189.063 375.086 189.063V188.691C374.714 187.946 374.341 187.206 374.341 186.462C373.969 185.717 374.341 184.977 373.969 183.864V180.894L373.597 180.522H373.225C372.112 180.894 371.368 180.894 370.255 180.894C369.511 181.267 369.143 181.267 368.398 181.267C366.914 181.267 365.057 182.011 363.944 182.751C362.831 183.124 362.831 184.236 362.459 184.98V188.694L361.715 189.807C361.343 190.179 361.343 190.179 361.715 190.551V192.408L362.459 195.378V197.235C362.459 197.979 362.459 199.092 362.831 200.205V202.802C363.203 203.915 363.204 205.031 363.204 206.144C363.204 207.256 363.204 208.373 363.576 209.486V212.083C363.948 213.196 363.576 214.312 363.948 215.425V217.654C364.32 219.139 364.32 220.624 364.32 222.108C364.32 222.853 364.32 223.593 364.692 224.337V227.679C365.064 228.792 365.064 229.908 365.064 231.021C365.064 232.134 365.064 233.618 365.436 234.735V239.561C365.436 239.934 365.809 240.306 365.809 240.674V242.159C365.809 243.272 365.809 244.016 366.181 245.129C366.181 245.873 366.181 246.986 366.553 247.726V251.068L367.297 255.522V258.864C367.669 259.608 367.669 260.349 367.669 261.093L368.041 261.465C368.414 261.837 368.414 262.578 368.414 263.322C368.414 263.694 368.041 264.435 368.414 264.807C368.414 266.292 368.414 267.777 369.158 268.893C369.158 269.265 369.158 269.637 369.53 270.006C369.53 270.378 369.53 270.378 369.902 270.378C369.902 270.378 370.274 270.006 370.647 270.006L374.733 267.777C375.477 267.405 376.217 267.032 376.59 266.292L378.819 263.694L379.931 262.582C380.303 262.582 380.303 262.21 379.931 261.837C379.931 261.093 379.931 260.725 379.559 260.353C379.559 259.608 379.187 259.24 379.187 258.868V257.011C379.187 255.898 379.187 255.154 378.815 254.413V250.7C378.815 249.955 378.815 249.587 378.443 248.843C378.443 248.47 378.815 247.73 378.443 247.358C378.443 245.873 378.071 244.388 378.071 243.272C378.071 242.527 378.071 241.415 377.698 240.674V238.817C377.698 238.073 377.326 236.96 377.326 235.848C377.326 234.735 377.326 233.25 376.954 231.762V227.675C376.582 226.563 376.582 225.446 376.582 224.334C376.582 222.849 376.582 221.364 376.21 220.248V219.875C375.838 218.763 376.21 217.646 375.838 216.534C375.465 215.421 375.838 214.677 375.465 213.564V208.365C375.093 207.253 375.093 206.136 375.093 204.651C374.721 203.167 375.093 201.682 375.093 199.825C374.721 199.453 375.093 199.081 375.093 198.712C374.721 196.855 374.721 195.37 374.721 193.513C374.721 193.141 374.349 192.769 374.721 192.401H375.465C375.465 193.145 375.465 193.886 375.838 194.258V198.344C376.21 199.829 376.21 201.313 376.21 202.798C376.21 203.911 376.21 205.027 376.582 206.14V209.482C376.582 210.594 376.582 211.711 376.954 212.824C377.326 213.568 377.326 213.936 377.326 214.681V217.278C377.698 218.391 377.698 219.507 377.698 220.992C377.698 222.105 377.698 223.589 378.071 224.706C378.071 226.191 378.443 227.303 378.815 228.792V230.649C379.187 231.393 378.815 232.506 379.187 233.619V237.705C379.187 238.817 379.187 239.934 379.559 241.418C379.559 242.531 379.559 243.648 379.931 245.132C379.931 246.245 379.931 247.73 380.303 248.846C380.303 250.331 380.304 251.816 380.676 253.301C380.676 254.413 381.048 255.53 381.048 256.643C381.048 257.755 381.42 258.872 381.42 260.356C381.42 260.356 381.792 260.729 381.792 260.356C382.164 260.356 382.905 260.356 383.277 259.984H383.649V260.356L382.536 262.586L381.424 264.443L379.195 266.672L375.481 270.013C373.996 270.386 372.511 271.126 371.395 271.87C370.65 272.243 369.91 272.243 369.538 272.615L365.452 273.727C364.339 274.1 363.595 274.472 362.482 274.472C362.11 274.844 361.369 274.844 360.997 274.844C360.253 275.216 359.512 275.216 358.768 275.216C357.655 275.216 356.539 275.588 355.426 275.96C354.682 276.332 353.569 276.705 352.457 276.705L348.371 277.449C347.626 277.449 346.886 277.449 346.141 277.821H345.397C344.284 277.821 343.168 277.821 342.055 278.193H339.086C337.973 278.565 337.229 278.565 336.488 278.193H334.259C333.515 278.193 333.147 278.565 332.774 278.565C331.29 278.565 330.177 278.193 329.06 277.821H328.316C327.944 277.821 327.204 278.193 326.459 278.193C326.087 278.565 325.347 278.565 324.602 278.565H322.373C320.888 278.193 319.404 278.193 317.919 278.193C316.806 278.193 315.69 278.193 314.577 277.821L310.122 277.077C309.378 277.077 309.01 277.077 308.638 276.705H306.781C306.036 276.705 305.668 276.705 305.296 276.332C304.924 275.96 304.183 275.96 303.811 275.96C302.698 275.96 301.954 275.96 300.841 275.588C300.469 275.588 300.097 275.216 299.357 275.216C298.612 275.216 297.872 274.844 297.128 274.844C297.128 274.472 296.755 274.472 296.755 274.099C296.383 273.727 296.755 273.355 297.5 273.355C297.872 273.355 298.244 273.355 298.612 273.727C299.725 273.727 300.469 274.099 301.582 274.099H301.954C302.698 274.472 303.439 274.472 304.183 274.472C304.928 274.472 305.668 274.472 306.04 274.844L309.01 275.588H309.754C310.126 275.588 310.498 275.96 310.498 275.96C310.871 275.588 310.871 275.216 310.871 274.848C311.243 273.363 310.871 271.506 310.871 270.021C310.871 269.649 310.871 269.277 311.243 269.277C311.243 268.532 311.243 268.164 310.871 267.792V267.048C311.243 266.303 311.243 265.935 311.243 265.563V261.477C311.615 260.364 311.615 258.879 311.615 257.763C311.987 256.65 311.987 255.165 311.987 254.049C312.359 253.305 311.987 252.564 312.359 251.82V248.85C312.731 247.737 312.731 246.993 312.731 245.88C313.103 244.396 313.103 242.911 313.103 241.794L313.848 238.453V235.855C313.848 235.111 313.848 234.743 314.22 233.998H314.592C314.964 235.111 314.592 236.227 314.592 237.34C314.592 239.569 314.964 241.426 314.592 243.279V249.591C314.592 251.075 314.592 252.56 314.22 254.045V257.015C313.848 257.015 314.22 257.387 314.22 257.387C313.848 258.499 313.848 259.616 313.848 261.101C313.476 261.845 313.848 262.958 313.476 264.07V266.668C313.848 267.78 313.848 268.897 313.476 270.382C313.476 271.126 313.476 271.867 313.848 272.979V273.724C313.848 274.836 314.592 275.581 315.705 275.953C316.077 276.325 316.817 276.325 317.19 276.325H319.787C321.272 276.697 322.757 276.697 323.873 276.697H326.102C326.846 276.325 327.587 276.325 328.7 276.325C329.444 276.325 330.185 276.697 330.929 276.697H333.898C334.643 276.697 335.011 276.325 335.383 276.325H336.496C337.24 276.697 338.353 276.697 339.093 276.325C339.838 276.325 339.838 276.325 339.838 275.953C339.838 275.581 340.21 275.208 339.838 274.84V269.269C339.466 268.156 339.838 266.672 339.466 265.555V252.56C339.466 250.331 339.466 248.106 339.093 245.877C339.093 245.877 339.466 245.505 339.093 245.505C338.721 244.76 339.093 244.392 339.466 243.648V243.275C339.466 243.275 339.838 243.275 339.838 243.648V244.02C340.21 244.392 340.21 244.764 340.21 245.132C340.21 245.877 340.582 246.989 340.582 247.73C340.582 248.102 340.954 248.843 340.954 249.587V251.072C341.326 251.816 341.326 252.929 341.326 253.669V257.755C341.698 258.868 341.326 259.612 341.698 260.725C342.071 261.837 341.698 262.954 342.071 264.067V265.551C342.443 265.924 342.443 266.664 342.443 267.036V272.607C342.443 273.351 342.443 273.72 342.815 274.464V275.577C342.815 275.949 342.815 276.321 343.187 276.321C344.3 276.321 345.044 275.949 345.784 275.949C346.897 275.949 347.641 275.577 348.382 275.577L354.325 274.464L356.922 273.351C357.295 272.979 358.035 272.979 358.407 272.979C359.52 272.979 360.636 272.979 361.377 272.607L363.974 271.863C364.719 271.863 365.459 271.491 366.203 271.118C366.203 271.118 366.576 271.119 366.576 270.746C366.576 269.634 366.203 268.149 366.203 267.032V266.66C366.203 265.548 365.831 264.803 365.831 263.691V262.578C365.831 261.465 365.831 259.981 365.459 258.864V257.379C365.087 256.635 365.087 255.522 365.087 254.782C365.087 254.41 365.087 253.669 364.715 253.297C364.715 252.553 365.087 252.184 364.715 251.812V251.44C364.715 249.955 364.715 248.843 364.343 247.726C364.343 246.613 364.343 245.497 363.971 244.384V240.67C363.971 239.926 363.971 238.813 363.598 238.073V235.844C363.598 235.1 363.226 233.987 363.226 233.246C363.226 232.506 363.226 231.762 362.854 230.649V227.307C362.854 226.194 362.854 224.71 362.482 223.965C362.482 222.853 362.482 221.736 362.11 220.996V216.541C361.738 215.429 361.738 213.944 361.738 212.827C361.738 211.343 361.366 209.858 361.366 208.373V205.775C360.993 204.663 360.993 203.546 360.993 202.434V200.205C360.621 199.092 360.993 197.975 360.621 196.863C360.249 196.118 360.621 195.378 360.249 194.634C360.249 193.149 360.249 192.036 359.877 190.92C359.877 190.548 359.877 189.807 359.505 189.435V186.465C359.505 185.353 359.133 184.236 359.133 183.124H356.903C356.159 183.496 355.419 183.496 354.674 183.496C353.562 183.496 352.445 183.868 351.333 183.868L347.247 184.98C345.762 185.725 343.905 186.465 342.42 187.578L341.676 188.322C340.931 189.807 340.563 190.92 340.191 192.408C340.191 193.153 339.819 194.265 339.819 195.006V197.235C340.191 198.348 340.191 199.832 340.191 200.949V210.234C339.819 212.831 339.819 215.805 339.819 218.402V219.515C340.191 220.627 339.819 221.744 339.819 222.856C340.191 224.341 339.819 225.826 340.191 226.943V230.284C340.563 231.769 340.563 233.626 340.563 235.111C340.563 236.596 340.191 238.08 339.819 239.565L339.447 239.937C339.447 239.937 339.074 239.937 339.074 239.565C338.702 238.453 338.33 237.336 338.33 236.224V232.882C337.958 231.397 337.958 230.284 338.33 228.796V222.484C337.958 218.398 338.33 214.316 338.33 210.23C337.958 205.775 338.33 201.689 337.958 197.603V190.548C337.958 189.435 337.958 188.318 337.586 187.206V184.977C337.958 184.605 337.586 184.605 337.586 184.605C336.841 184.232 336.473 184.232 335.729 184.605H334.244C333.5 184.605 333.131 184.605 332.387 184.977C332.015 185.349 331.274 185.349 330.902 185.349C330.53 185.721 330.53 185.721 330.158 185.349H325.331C323.846 186.462 322.734 186.834 320.877 186.834C320.505 186.834 319.764 186.834 319.392 187.206C319.02 187.206 318.648 187.206 318.648 187.578C317.903 188.691 317.904 189.807 317.535 190.92L316.791 192.405C316.419 192.777 316.419 193.889 316.419 194.634V201.689C316.419 202.802 316.046 203.918 316.046 204.659V211.715C316.046 213.199 316.047 215.056 315.674 216.169V220.217C315.302 222.074 315.674 223.931 315.302 226.156C315.302 226.529 315.302 227.269 314.93 227.641V228.013C314.558 228.758 314.186 228.758 313.817 228.013C313.817 227.641 313.445 227.269 313.445 226.901V225.416C313.817 225.044 313.445 225.044 313.445 225.044C313.817 223.187 313.817 221.702 313.817 219.845C313.817 218.36 313.817 217.248 314.19 215.759V212.789C314.562 211.305 314.19 210.192 314.562 209.075V206.846C314.19 203.877 314.562 201.275 314.562 198.306V192.735C314.934 190.137 314.562 187.536 314.562 184.939V183.826C314.19 183.454 314.19 183.454 314.562 183.082C314.934 182.71 315.306 182.337 315.674 182.71C316.047 183.082 316.419 183.454 316.419 183.822V184.567H317.904C319.388 184.939 320.501 184.939 321.617 184.939C321.617 184.939 321.99 184.567 322.362 184.567C322.734 184.194 322.734 184.194 322.734 183.822C322.362 183.078 322.734 182.71 323.478 182.71H327.564C328.309 183.082 328.677 183.082 329.421 183.082C330.534 183.082 331.278 183.082 332.391 183.454C332.763 183.826 333.503 184.198 333.876 183.454H335.36C336.105 183.826 336.473 183.826 337.217 183.454C337.962 183.454 338.33 183.082 339.074 183.454C339.819 183.454 340.187 183.454 340.931 183.082C341.676 182.71 342.416 182.71 342.788 182.71C344.273 182.71 345.386 182.337 346.874 181.965H349.472C350.584 181.965 351.701 181.593 353.186 181.593L358.384 180.481L362.471 179.368C362.843 179.368 363.215 178.996 363.955 178.996L368.41 178.255C369.154 178.255 369.895 177.883 370.639 177.883C372.124 177.883 373.236 177.883 374.353 177.511C375.097 177.139 376.21 176.767 376.95 176.767C377.695 176.767 378.063 176.394 377.695 176.022C377.695 175.278 377.322 174.91 377.695 174.537V173.425C377.695 172.312 377.695 171.568 377.322 170.827C377.322 170.455 377.322 170.455 376.95 170.083C376.578 170.083 376.578 170.455 376.206 170.827L374.721 171.94L373.236 173.425C372.864 173.797 372.124 173.797 371.752 173.797C371.379 173.797 370.639 174.169 370.267 174.169C368.782 174.541 367.669 174.541 366.181 174.541C365.068 174.541 363.583 174.541 362.467 175.286C362.095 175.286 361.722 175.658 361.354 175.658H360.982V176.03C361.354 176.03 361.354 176.402 361.354 176.402C361.354 177.146 362.098 176.774 362.467 176.774C362.835 176.774 363.211 176.774 363.952 176.402C365.064 176.402 365.809 175.658 367.293 175.658L372.864 174.545L375.462 173.801H376.947C376.947 174.173 376.947 174.545 376.574 174.913L374.345 176.026L369.891 176.77C369.147 177.143 368.406 177.143 367.662 177.143C366.549 177.515 365.805 177.887 364.692 177.887L362.095 178.631H359.125C358.753 178.631 358.381 178.631 358.012 179.003L354.671 179.748C353.558 179.748 352.441 179.748 351.329 180.12H349.472C349.1 179.748 348.728 179.748 348.359 180.12C346.874 180.492 345.39 180.864 343.905 180.12H340.563C340.191 180.12 340.191 180.12 339.819 179.748C339.819 179.375 340.191 179.375 340.563 179.375H340.935C342.42 179.375 343.533 179.375 344.649 179.003C345.762 179.003 346.878 179.003 347.619 178.263C348.363 178.263 348.731 177.891 349.103 178.263C349.848 178.635 350.96 178.635 351.701 178.263H353.186C353.558 178.263 353.558 177.891 353.93 177.519C353.93 177.146 353.93 177.146 353.558 177.146C352.814 177.146 352.073 177.146 351.329 176.774C350.957 176.402 350.584 176.402 349.844 176.402C348.359 176.774 346.874 176.774 345.39 176.774C345.017 176.774 344.645 176.402 343.905 176.402C343.533 176.774 342.792 176.774 342.42 176.774C341.676 176.774 341.307 176.402 340.935 176.402H340.563L340.935 176.03H345.39C346.134 175.658 346.502 175.658 347.247 175.658C348.359 176.03 349.476 175.658 350.588 175.286C351.701 175.286 352.817 174.913 353.93 174.913C354.674 174.913 355.787 174.541 356.528 174.541C356.9 174.541 357.272 174.169 357.64 174.169C358.012 173.797 358.753 173.425 359.497 173.797C360.241 173.797 360.61 174.169 360.982 174.169C361.726 174.169 362.095 174.169 362.839 173.797L365.809 173.053C366.921 173.053 367.666 172.68 368.406 172.68H369.15C369.895 172.308 370.635 172.308 371.748 172.308L372.12 171.936C372.864 171.192 373.605 170.824 374.349 170.451C375.093 170.079 376.206 169.339 376.578 168.594H376.95C376.95 167.482 377.322 165.997 376.95 164.881L376.578 164.508C376.578 164.508 376.578 164.136 376.206 164.508C375.093 164.881 374.721 164.136 374.349 163.396V161.911C374.349 160.798 373.977 160.054 373.236 159.313C372.124 158.569 371.379 157.829 370.639 156.716L369.154 154.118C368.41 153.006 368.041 151.521 368.041 150.405V146.691C367.669 145.946 367.669 145.578 366.929 145.206C365.816 144.462 364.7 143.721 363.587 143.349H362.843C363.215 143.721 363.587 144.093 363.955 144.093C363.955 144.465 364.328 144.837 364.328 144.837C364.7 145.582 364.7 145.95 364.328 146.322L361.358 147.807H359.873C359.501 147.807 359.501 147.807 359.129 148.179C358.757 148.179 358.384 148.551 358.016 148.551C357.644 148.924 357.272 148.924 356.903 148.924C356.535 148.924 355.791 148.924 355.419 149.296C355.047 149.296 354.674 149.296 355.046 149.668L355.791 150.781H356.903C358.388 150.408 359.501 150.036 360.617 150.036C361.734 150.036 362.474 150.036 363.215 149.292C363.959 148.548 364.7 148.548 365.444 148.548C365.444 148.175 366.188 148.548 366.188 148.92C366.188 148.92 365.816 149.292 365.816 149.664C365.444 149.664 365.072 150.036 364.704 150.036L362.474 151.149C361.73 151.521 360.99 151.893 360.245 151.893C358.76 152.265 357.276 152.637 355.791 152.637L355.419 153.01C355.047 153.754 354.674 154.494 353.562 154.494C353.19 154.494 352.817 154.867 352.449 155.239V156.351C353.193 156.724 353.193 157.464 352.821 157.836C352.821 158.581 352.449 158.949 352.077 159.321C351.705 159.693 351.333 160.065 351.333 160.806V161.178C351.333 161.922 351.705 162.291 352.077 163.035C352.077 163.407 352.449 164.148 352.821 164.892C353.193 165.636 353.193 166.377 352.821 167.121V167.493C352.077 167.865 352.077 168.606 351.709 168.978C351.336 169.722 351.336 170.091 350.596 170.091C349.855 170.091 349.483 169.719 349.111 169.346C348.739 168.602 348.367 168.234 348.367 167.489C347.995 167.117 347.995 166.745 347.995 166.377C347.995 165.632 347.995 165.264 347.25 165.264L346.138 164.52C345.025 164.148 344.653 163.035 344.653 162.291C344.281 161.546 344.281 160.806 344.281 160.062C344.281 159.689 344.281 159.689 343.909 159.689C343.164 159.317 342.424 159.317 342.052 160.062L340.195 160.806H339.822C339.45 160.434 339.078 160.434 339.45 161.178V164.52C339.822 164.892 339.45 165.264 339.822 165.632V170.459C339.822 170.831 339.822 170.831 340.195 170.831H347.972C349.084 170.831 349.829 170.459 350.569 170.459C351.682 170.087 352.426 170.087 353.539 170.087C354.652 169.715 356.136 169.715 357.625 169.715C357.625 169.715 357.997 169.715 357.997 169.343C357.997 167.113 357.625 165.256 356.884 163.031C356.512 161.918 356.14 160.802 356.14 159.689C356.512 158.577 356.512 157.832 356.512 156.72C356.512 156.72 356.14 156.348 356.512 156.348C356.512 155.975 356.512 155.975 356.884 155.975V156.348C357.257 156.348 357.257 156.72 357.257 156.72C357.257 158.577 357.629 160.062 358.369 161.546C358.741 162.659 359.482 163.403 359.482 164.888C359.854 165.632 360.226 166.373 360.226 167.117V169.346C360.226 169.719 360.598 169.718 360.598 169.718C361.711 169.346 362.455 169.346 363.568 169.346C363.94 169.346 364.681 168.974 365.053 168.974C366.91 168.23 368.767 167.862 370.252 167.489L372.481 166.745L372.853 166.373C373.225 166.001 373.597 166.001 373.597 165.629C373.969 165.256 374.341 165.256 374.71 165.629C375.082 165.629 375.082 166.001 375.082 166.373C374.71 167.486 374.338 168.23 373.225 168.602C372.112 169.346 370.996 169.715 369.883 170.087L366.169 171.2C365.425 171.2 364.312 171.572 363.572 171.572C362.828 171.572 362.087 171.572 361.343 171.944C360.23 172.316 359.114 172.316 357.629 172.316H353.915C353.543 172.688 353.171 172.688 352.43 172.688C350.573 172.688 348.716 173.432 346.859 173.06C344.262 172.688 341.66 173.06 339.063 173.06H334.609C334.609 172.688 334.236 173.06 333.864 173.06C333.12 173.06 332.752 173.06 332.007 173.432H328.665C327.921 173.432 327.181 173.06 326.436 173.06L323.467 172.316C323.095 171.944 322.722 172.316 322.722 172.316L319.753 173.429C319.009 173.429 317.896 173.801 317.155 173.056H316.043C315.671 173.056 315.671 173.429 315.298 173.429C314.554 173.429 313.814 173.429 313.441 173.056C312.329 172.684 311.212 172.684 310.472 172.684H308.987C308.987 172.684 308.615 172.312 308.987 172.312C308.987 171.94 309.359 171.94 309.359 171.94C310.472 171.568 311.588 171.196 312.701 171.568H314.186C314.558 171.94 314.558 171.94 314.93 171.196V166.741C315.302 165.997 315.302 165.256 315.302 164.512V163.027C315.302 162.655 315.674 162.283 316.046 162.283C316.046 162.283 316.419 162.655 316.419 163.027V171.196H316.791C317.535 171.196 318.276 171.568 318.648 171.568C319.392 171.94 319.392 171.94 320.133 171.568C320.505 171.568 321.245 171.196 321.617 171.196C322.73 170.451 323.474 170.451 324.587 170.824C325.331 171.196 326.072 171.196 326.816 171.196C327.56 171.196 328.301 170.824 328.673 170.824C329.786 170.824 330.902 170.451 332.387 170.451H334.985C335.357 170.824 336.097 170.824 336.469 170.824H337.582V170.091C337.954 167.121 337.954 163.779 337.954 160.806C337.954 160.062 337.954 159.693 337.582 159.321C337.582 158.949 337.21 158.577 337.21 158.208C337.21 157.836 337.21 157.836 336.838 157.836C335.725 157.836 335.353 157.464 334.609 157.092C333.864 156.72 333.496 155.979 333.496 154.863V153.75C333.496 153.378 333.124 153.378 332.752 153.378H332.007C331.263 153.75 330.895 153.378 330.522 153.006C329.778 152.634 329.41 151.893 329.41 151.149C329.41 150.777 329.038 150.777 329.038 150.777C327.925 150.777 326.44 150.777 325.324 151.149H324.579C323.835 150.777 322.722 150.405 321.61 150.405C321.238 150.777 320.865 150.777 320.497 150.405H319.753C319.381 150.777 318.64 150.777 317.896 150.405H314.554C313.81 150.405 313.069 150.777 312.325 150.405H307.871C307.126 150.405 306.014 150.405 305.273 150.032C304.529 150.032 304.16 150.032 303.416 149.66C303.416 149.288 303.044 149.288 302.672 149.288H300.443C299.33 149.288 298.214 148.916 297.101 148.544C295.988 147.8 295.616 146.315 295.988 145.202V144.83H295.616C294.131 145.202 293.019 145.943 291.902 146.687C291.158 147.059 290.79 147.431 290.79 148.172C290.79 148.544 290.417 148.544 290.417 148.544C290.79 149.656 290.417 150.773 290.417 151.886C290.417 152.258 290.045 152.998 290.045 153.743L288.188 157.456L287.076 158.941C285.963 160.054 284.847 161.539 284.478 163.027C284.106 163.4 284.106 163.772 284.106 164.14C283.734 164.884 284.106 165.253 284.478 165.625C284.478 165.997 284.478 166.369 284.85 166.369C284.85 166.741 285.222 166.741 285.222 166.741C285.595 166.369 285.967 166.369 286.335 166.369C286.703 166.369 287.079 166.741 287.448 166.741C287.448 167.113 287.82 167.113 287.82 167.113C288.192 167.858 288.564 167.858 289.305 167.858C290.417 167.486 290.79 168.602 290.79 169.343C290.79 169.343 290.417 169.715 290.045 169.715C289.673 169.343 289.301 169.343 289.301 169.343C288.929 168.97 288.557 168.97 288.188 168.97C287.816 169.343 287.076 169.343 286.703 168.598H285.959C284.846 168.97 283.362 168.226 282.99 167.113C282.99 167.113 282.99 166.741 282.617 166.741C282.617 166.369 282.245 165.997 281.873 166.369C281.501 166.369 281.501 165.997 281.129 166.369C280.757 166.369 280.757 166.741 280.757 167.113V176.026C280.757 176.77 281.129 177.511 281.869 178.255C282.241 178.627 283.726 178.996 284.098 178.627C284.471 178.627 284.843 178.255 285.211 178.255C285.955 177.883 286.696 178.255 287.068 178.627C287.068 178.999 287.44 178.999 287.44 178.999C287.812 179.744 288.553 179.744 288.925 179.372C289.297 178.999 289.669 178.999 290.41 179.372C290.782 179.372 291.154 179.372 291.523 179.744L292.267 180.856C292.639 181.229 292.639 181.229 293.011 180.856H293.755C294.5 180.112 294.868 180.112 295.612 180.484C295.985 180.484 296.357 180.856 296.357 180.856C296.729 181.229 297.101 181.229 297.469 181.229C297.838 181.229 298.214 181.601 298.582 181.973C298.954 182.345 298.954 182.345 299.326 182.345H301.183V182.717H298.586L298.214 183.089H298.586C299.33 183.089 300.071 183.462 300.815 183.462H301.559C301.931 183.462 302.303 183.462 302.303 182.717C302.303 182.345 303.048 181.973 303.416 182.345C303.788 182.345 304.16 182.717 304.529 183.089C304.529 183.462 304.901 183.462 304.901 183.089C304.901 183.089 304.901 182.717 305.273 182.717C305.645 182.345 306.017 182.345 306.386 182.717L307.13 183.462V183.834C306.758 184.206 306.386 184.578 305.645 184.206C305.273 183.834 304.901 183.834 304.533 184.206C304.16 184.578 304.16 184.95 303.788 184.95C303.416 185.694 302.676 185.694 301.931 185.694L299.702 186.439C299.33 186.439 298.958 186.811 298.958 187.551L297.845 189.781V190.153C297.845 190.897 297.473 191.637 297.473 192.01V197.208C297.101 198.321 297.473 199.065 297.101 200.178C297.101 201.663 297.101 203.148 296.729 204.632C296.729 205.745 296.357 207.23 295.985 208.346C295.612 207.602 295.612 207.234 295.612 206.489C295.24 205.377 295.24 204.632 295.612 203.892V200.178C295.24 198.321 295.612 196.836 295.612 194.979V190.153C295.985 188.668 295.985 187.555 295.985 186.067C295.985 185.322 296.357 184.21 296.357 183.469C296.357 183.097 296.357 182.725 295.985 182.725C295.612 182.725 295.612 182.353 295.612 182.353C295.24 182.353 295.24 181.981 294.868 181.981L294.496 182.353C293.752 182.725 293.383 182.725 292.639 182.725C291.895 182.725 291.526 182.725 291.154 181.981C290.782 181.981 290.782 181.608 290.782 181.608C290.41 181.236 290.41 181.236 289.669 181.608H288.185C287.44 181.236 286.7 180.864 286.328 180.124C285.955 179.751 285.583 179.751 285.215 179.751C285.215 180.124 285.215 180.124 284.843 180.124C284.098 180.496 283.358 180.496 282.614 180.124V191.262C282.614 193.118 282.614 194.603 282.241 196.46C282.241 197.573 282.614 198.689 282.241 199.802C281.869 201.659 281.869 203.144 281.869 204.629C281.497 207.97 281.869 210.94 281.497 214.282V220.593C281.125 222.822 281.497 225.42 281.125 227.649C281.125 230.246 281.497 233.22 281.125 235.817C281.125 237.674 281.125 239.531 280.753 241.016V245.102C280.381 247.7 280.753 249.929 280.381 252.158V261.07C280.381 261.815 280.753 262.555 281.125 262.927L282.61 264.412C283.722 265.156 284.839 265.897 285.207 267.01C285.207 267.01 285.579 267.01 285.579 267.382L287.064 268.126C287.809 268.87 288.549 269.611 289.662 269.983C290.034 269.983 290.406 270.355 290.774 270.355V269.243C290.774 268.498 290.774 267.386 291.147 266.645V265.901C291.147 265.529 290.774 265.529 290.774 265.156L291.519 262.187V259.217C291.891 258.105 291.891 256.988 291.891 256.248C292.263 255.503 291.891 254.391 292.263 253.65V250.308C292.635 248.824 292.635 246.967 292.635 245.11C292.635 243.997 292.635 242.881 293.007 241.396V239.167C293.007 238.054 293.379 237.31 293.379 236.197C293.379 235.453 293.752 234.34 293.752 233.599V226.916C294.124 225.431 294.124 223.946 294.124 222.462C294.124 221.349 294.496 220.232 294.496 219.12C294.868 217.635 295.24 216.15 295.24 214.665C294.868 214.293 295.24 213.553 295.24 212.808C295.24 212.808 295.24 212.436 295.612 212.436C295.985 212.436 295.985 212.808 295.985 212.808C295.612 215.778 295.985 218.379 295.612 221.349V225.435C295.24 226.179 295.612 227.292 295.24 228.032V235.46C295.24 236.573 295.24 238.058 294.868 238.802V242.888C294.496 246.602 294.868 250.316 294.496 254.026V256.624C294.124 257.736 294.124 258.48 294.124 259.593C294.124 260.706 294.124 261.822 293.752 262.935C293.752 265.164 293.379 267.389 293.752 269.618C293.752 270.363 294.124 271.103 294.124 272.216C294.124 272.588 294.496 272.588 294.868 272.96C294.868 273.332 294.868 273.705 294.124 273.705H293.011L290.782 272.592C289.669 272.22 288.553 271.848 287.812 271.107C286.7 270.735 285.583 269.994 284.843 268.878V268.506C284.843 267.393 283.73 267.393 282.986 267.393C282.241 267.021 281.501 266.649 280.757 265.908L279.644 264.796C279.272 264.796 279.272 265.168 279.272 265.168C279.272 265.54 279.272 265.912 278.9 265.912C278.9 265.912 278.9 266.284 279.272 266.284C279.644 266.656 279.644 267.397 280.385 267.397C280.385 267.769 280.757 267.769 280.757 268.141C281.129 268.513 281.501 268.886 281.869 268.886C282.614 269.63 283.726 269.998 284.467 270.37C285.211 270.743 285.952 271.483 286.324 272.227C286.696 272.227 286.696 272.599 286.324 272.599H284.839L283.354 271.115C282.982 270.743 282.61 270.743 281.869 270.743C281.497 270.743 280.757 270.37 280.385 269.998C280.012 269.254 278.9 268.513 278.155 267.769H277.783V268.141C277.783 268.886 277.783 269.998 278.155 270.739C278.527 271.111 278.528 271.483 278.9 271.483C278.9 272.227 279.272 272.596 279.644 272.968L280.757 273.712L283.726 275.197L284.839 276.31C285.583 277.054 286.324 277.422 287.436 277.794C288.181 278.167 288.921 278.539 289.665 279.279C290.038 279.651 290.778 280.024 291.523 280.024H291.895C292.267 280.396 292.639 280.396 292.639 280.396C294.124 281.14 295.236 281.881 296.725 282.253C297.097 282.253 297.469 282.625 297.469 282.625C298.214 282.997 298.582 283.369 298.954 283.369C299.698 283.369 300.067 283.741 300.067 284.113C300.439 284.113 300.439 284.113 300.439 284.486C300.067 284.486 300.067 284.486 299.695 284.858H298.95C298.578 284.486 297.838 284.486 297.093 284.486H295.981C295.609 284.486 294.868 284.486 294.868 284.858C294.124 285.602 293.383 286.343 293.011 287.087C292.267 288.199 291.898 289.684 291.526 290.801V292.658C291.526 293.77 291.154 294.887 291.154 296.372C291.154 297.116 290.782 297.856 290.782 298.969C290.782 299.341 290.782 300.082 291.154 300.454C291.154 300.826 291.526 301.198 291.526 301.567C291.898 301.939 291.898 302.311 292.271 302.311L293.383 303.055L297.097 304.912C299.695 306.025 301.924 307.141 304.525 307.51L306.754 308.254C307.498 308.626 308.239 308.254 308.983 307.882C309.355 307.51 309.728 307.137 309.728 306.397V306.025C309.728 303.796 309.728 301.198 310.1 298.969V296.372C310.472 295.627 310.472 294.887 310.472 294.143C310.472 292.658 310.472 291.545 310.844 290.429V287.831C310.844 287.459 310.844 287.087 310.472 287.087C310.1 287.087 309.728 286.715 309.359 286.715C308.991 286.715 308.246 286.715 307.874 286.343H306.39L304.16 285.598C303.788 285.598 303.048 285.598 302.676 285.226C302.303 285.226 302.303 284.854 302.303 284.482H302.676C303.048 284.482 303.42 284.11 303.788 284.482C304.901 284.482 306.017 284.854 307.502 284.854C307.874 284.854 308.246 284.854 308.246 285.226L310.844 285.97H311.216C311.588 285.598 311.96 285.226 312.329 285.97C312.701 285.97 313.073 285.97 313.441 286.343H313.814C314.926 286.343 316.043 286.715 317.155 287.087H317.9C318.644 287.087 319.384 287.087 320.129 287.459H320.873C323.102 287.459 325.328 287.459 327.557 287.831H332.383C332.755 288.203 333.496 288.203 333.868 288.203H336.097C336.469 288.203 336.841 288.203 337.21 287.831H337.954C338.698 288.203 339.811 288.203 340.552 287.831H341.296C342.409 288.203 343.893 287.831 344.638 287.459C345.75 287.087 346.867 286.715 347.607 286.715C348.72 287.087 349.836 286.715 350.949 286.715C351.321 286.343 351.693 286.343 352.062 286.343C353.547 286.343 354.659 285.97 355.776 285.598C356.888 285.226 358.373 284.854 359.49 284.854L360.974 284.11C361.347 284.11 362.087 283.737 362.831 283.737C363.203 283.737 363.944 283.737 364.688 283.365C365.801 282.621 366.917 281.881 368.402 281.508C368.774 281.136 369.515 281.136 370.259 280.764C371.003 280.392 371.744 280.392 372.116 280.02L376.202 277.791L378.059 276.678C378.803 275.565 379.916 274.821 381.029 274.449L383.626 272.22L383.998 271.848C384.371 270.735 384.743 269.991 385.483 269.25C385.855 268.878 385.855 268.506 385.855 268.137C386.228 266.653 386.228 265.54 386.228 264.051C386.228 262.939 385.855 261.454 385.855 260.337V259.225C385.483 258.48 385.483 257.74 385.483 256.996C385.483 256.624 385.483 255.883 385.111 255.511C385.111 255.139 385.111 255.139 384.739 254.767V255.511C384.739 256.255 384.367 256.255 383.995 256.624C383.623 256.624 383.25 256.251 383.25 255.879L382.506 252.91C382.506 252.165 382.506 251.425 382.134 250.68C382.134 249.568 382.134 248.824 381.762 248.083V245.854C381.39 245.11 381.39 244.741 381.39 243.997V241.4C381.017 240.287 381.017 238.802 381.017 237.686C380.645 236.941 380.645 236.201 380.645 235.829V232.487C380.273 231.743 380.645 231.002 380.273 230.258C379.901 229.145 380.273 228.029 379.901 226.916V225.059C379.529 223.946 379.529 222.83 379.529 221.717C379.529 220.232 379.529 219.12 379.157 217.631V213.177C379.157 212.805 379.157 212.432 378.784 211.692C378.784 211.32 379.157 210.579 378.784 210.207V209.835C378.412 207.606 378.412 205.749 378.412 203.524V199.437C378.04 198.693 378.412 197.953 378.04 196.84C377.668 194.611 378.04 192.386 378.04 189.784C378.04 189.412 378.04 188.672 377.668 187.927C377.668 187.555 378.04 186.815 377.668 186.07C377.668 184.958 377.668 183.473 377.296 181.984L377.668 181.612V181.24C378.04 181.24 378.04 181.612 378.04 181.612C378.04 181.984 378.412 182.725 378.412 183.097C378.412 184.21 378.412 184.954 378.784 185.694C378.784 186.439 379.157 187.551 379.157 188.292H379.529C379.901 187.179 380.641 186.807 381.014 186.063C382.126 185.319 383.243 184.578 384.355 184.206C384.728 184.206 385.468 183.834 385.84 183.834C387.325 183.462 388.438 183.834 389.926 183.834C391.039 183.834 392.155 184.206 393.268 184.578C395.125 184.95 396.982 185.691 398.467 187.175C399.579 187.92 400.324 189.032 401.064 190.145L402.177 192.002L402.921 193.487C403.293 194.599 402.921 195.344 402.549 196.084C402.549 196.456 402.177 196.456 402.177 196.084C401.805 196.084 401.805 195.712 401.805 195.34C401.805 194.968 401.433 194.596 401.433 194.227C401.06 194.227 401.06 193.855 400.688 193.855C399.944 194.227 398.831 194.227 397.719 194.227H395.862V194.972C395.862 195.344 396.234 195.344 396.234 195.716C396.234 195.716 396.234 196.088 396.606 196.088C396.978 196.088 397.35 196.088 398.091 195.716C398.835 195.716 399.576 195.716 400.32 196.088H400.692C401.064 196.088 401.064 196.46 400.692 196.46C399.948 196.832 399.579 197.205 398.463 197.205H396.978C396.234 196.832 396.234 197.205 396.606 197.577V199.434C396.606 199.434 396.978 199.806 396.978 199.434H398.463C398.835 199.434 399.576 199.434 399.576 199.062C399.948 199.062 400.32 199.062 400.688 199.434V199.806C400.688 200.178 400.688 200.178 400.316 200.178C399.572 200.178 398.831 200.55 398.087 200.922H397.343C396.971 200.55 396.598 200.55 396.598 200.922V203.151C396.598 203.151 396.598 203.524 396.971 203.524H400.685C401.057 203.524 401.057 203.524 401.057 203.896C401.429 203.524 401.429 203.151 401.429 203.151C401.801 202.039 401.801 201.294 401.801 200.182C402.173 200.182 402.173 199.81 402.173 199.437H402.545C402.917 199.437 402.917 199.437 402.917 199.81C402.917 200.554 402.917 201.294 402.545 202.039C402.545 202.783 402.173 203.896 401.801 204.636V206.121C401.429 206.865 401.429 207.606 401.429 208.35C401.429 209.094 401.429 210.207 401.057 210.948V216.518C401.057 217.263 401.057 217.631 401.429 218.375V220.232C401.429 221.345 401.801 222.089 401.801 223.202C401.801 224.315 402.173 225.431 402.545 226.172L403.658 230.626L404.771 232.855L405.515 235.825C405.515 236.937 405.887 238.054 405.887 239.167C406.259 239.539 406.259 240.279 406.259 241.024C406.259 242.136 406.259 242.881 406.631 243.993V250.305C406.259 251.049 406.259 251.789 406.259 252.902C406.259 252.902 405.887 252.902 405.887 253.274L404.402 256.244C404.03 256.988 403.29 257.729 402.917 258.841L401.433 260.698C400.32 261.811 398.835 262.927 397.347 263.668C396.602 264.412 395.49 264.78 394.377 265.153C392.892 265.525 391.035 265.897 389.922 266.637C388.81 267.01 388.438 267.75 388.066 268.867L386.953 270.724C386.581 271.468 385.84 272.208 385.84 272.953C385.096 274.437 383.983 275.182 382.871 275.922C381.758 276.667 380.641 277.035 379.901 278.151C379.529 278.151 379.529 278.151 379.529 278.524L377.3 280.008C376.555 280.38 376.187 280.753 375.815 281.493L374.702 282.606C374.702 282.606 374.33 282.606 374.33 282.978L371.733 285.948C371.36 286.692 370.988 287.432 370.988 288.177V295.232C371.36 296.345 371.36 297.461 371.36 298.946C371.36 299.691 372.105 300.059 372.845 300.431H373.217L375.074 298.946L379.16 295.605C379.905 295.232 380.273 294.86 380.645 294.12L383.243 291.891C383.243 291.518 383.615 291.518 383.615 291.146L384.359 289.662C384.731 289.289 385.103 288.917 385.103 288.549C385.103 287.436 385.476 286.32 385.103 285.207V284.835C385.103 284.091 384.731 283.35 385.103 282.978V280.749C385.103 279.636 385.476 278.52 385.848 277.407V277.035C386.22 275.55 387.333 274.806 388.077 274.065L392.163 271.468C393.648 270.724 395.133 270.355 396.617 269.983L400.331 268.87L402.56 268.126C403.305 268.126 404.045 267.754 404.417 267.382C406.274 267.01 407.759 265.897 408.872 264.412C409.985 262.927 411.101 261.815 411.841 260.326C412.586 259.954 412.954 259.213 413.326 258.841C413.698 257.729 414.439 256.612 415.183 255.5C415.928 254.755 415.928 254.015 415.928 253.27C415.555 252.898 415.183 252.158 415.183 251.786C414.811 251.041 414.439 250.673 414.439 249.929L414.067 249.556C414.439 248.444 414.067 247.699 414.067 246.587C413.695 245.102 413.695 243.245 414.067 241.76C414.067 241.388 414.439 241.016 414.439 240.648C414.439 239.163 414.811 238.05 415.183 236.934C415.183 235.821 415.555 234.705 415.555 233.592L417.785 225.796L419.269 222.082L420.382 217.627C420.382 216.515 420.754 215.03 420.754 213.541V213.169C421.126 210.572 421.126 207.598 421.126 204.629C421.126 202.772 420.754 201.287 420.382 199.058C420.01 197.201 419.269 195.716 418.525 193.859L417.412 189.405L416.668 186.063C416.668 184.578 416.296 183.093 415.924 181.608C415.924 180.496 415.924 179.379 415.552 177.894V174.553C415.552 173.068 415.924 171.955 415.924 170.839L417.036 166.753L418.521 163.783C419.266 162.298 420.006 161.186 420.378 159.697C421.122 158.584 420.75 157.84 420.75 156.727C420.75 156.355 420.378 156.355 420.75 156.355C421.122 155.983 421.495 155.983 421.495 156.355C421.867 156.355 421.867 156.727 421.867 157.1C422.611 157.844 422.611 158.584 422.239 159.329C421.867 160.813 421.495 162.298 420.754 163.783C419.641 165.268 418.897 167.125 418.157 169.354C418.157 170.098 417.785 171.211 417.785 171.951V174.921C417.785 176.034 417.785 176.778 418.157 177.891C418.157 179.375 418.157 180.86 418.529 181.977L419.641 186.803C420.014 188.66 420.754 190.889 421.498 192.743L422.983 198.686C422.983 199.43 423.355 200.17 423.355 200.915C423.728 202.027 423.728 203.144 423.728 204.256C424.092 206.85 424.092 209.079 424.092 211.305ZM290.049 285.199L290.793 282.602H290.421V282.23C290.421 281.858 290.421 281.858 290.049 281.486C289.677 281.486 288.936 281.113 288.564 280.373C288.564 280.001 288.192 279.629 287.452 279.629C286.339 279.629 284.854 278.884 284.11 277.772L280.024 275.174H279.652V286.312C279.279 287.425 279.279 288.169 280.024 289.282L281.136 291.139C281.881 292.251 282.249 293.368 282.993 294.108L286.335 297.822C287.079 298.194 287.448 298.935 287.82 299.307C288.192 299.679 288.192 299.679 288.192 299.307C288.564 298.563 288.936 297.45 288.936 296.337V295.965C289.309 294.853 289.309 293.736 289.309 292.624V290.767C289.681 289.654 290.053 288.537 290.053 287.053V285.199H290.049ZM290.049 176.774C289.305 176.774 289.305 176.402 289.305 176.03C289.305 175.286 289.305 175.286 288.933 174.917C287.448 174.917 286.335 174.545 284.847 174.173C284.102 173.801 283.362 173.801 282.617 173.801C282.245 173.429 281.873 173.429 281.873 172.688C281.501 172.688 281.501 172.316 281.129 171.944C281.129 171.944 280.757 171.572 281.129 171.2C281.129 171.2 281.501 170.827 281.873 170.827C282.245 170.827 282.617 171.2 282.986 171.2C283.73 171.944 284.471 172.312 285.583 172.312L289.297 173.056H291.526L294.868 173.801H296.353C297.466 173.801 298.21 174.173 299.322 174.173C299.695 174.173 300.435 174.545 300.807 174.545H302.292C303.405 175.289 304.521 174.917 305.634 174.917C306.006 174.917 306.378 175.289 306.746 175.289V175.662H302.66C301.916 175.662 301.176 176.034 300.431 175.662H295.977C295.233 175.662 294.864 175.289 294.12 175.289L293.748 175.662C293.748 175.662 293.748 176.034 294.12 176.034C294.864 176.406 295.605 176.778 296.717 176.406H297.462C298.206 176.778 298.574 176.778 299.319 176.778C299.319 176.778 299.691 176.778 299.691 177.15C300.435 177.522 301.176 177.15 301.92 177.15C302.292 176.778 303.033 176.778 303.405 176.778C303.405 176.778 303.777 176.778 303.777 177.15C304.149 177.15 304.521 177.522 305.262 177.522H306.374L310.088 178.267H312.317C313.062 178.639 313.43 178.639 314.174 178.639C315.287 178.639 316.031 178.639 317.144 179.011H326.057C326.429 179.011 327.169 178.639 327.541 179.011H332.74C333.112 179.011 333.853 179.011 334.225 179.383C335.338 179.755 336.454 179.755 337.567 179.755H337.939V180.127C337.567 180.127 337.195 180.5 336.826 180.5C336.082 180.5 335.341 180.872 334.229 180.872H329.402C328.658 181.244 328.29 180.872 327.917 180.872H318.633L315.291 180.127H312.321C310.836 179.755 309.724 179.755 308.607 179.755H307.122C306.75 180.127 306.378 179.755 306.01 179.755C305.266 179.755 304.897 179.755 304.153 179.383C303.781 179.383 303.409 179.383 303.04 179.011C302.668 178.639 302.296 178.639 301.928 178.639C301.183 178.639 300.815 178.639 300.071 177.894H298.958C298.586 177.894 297.845 177.894 297.473 177.522H297.101C296.357 176.778 295.988 177.15 295.244 177.15C294.5 177.522 293.759 177.522 292.647 177.522C292.647 177.522 292.274 177.522 291.902 177.15C291.53 176.778 290.79 176.778 290.417 176.778H290.049V176.774ZM286.703 274.43V274.802L286.331 275.174C285.587 275.174 284.847 274.802 284.102 274.062C284.102 274.062 283.73 273.689 284.102 273.689L284.474 273.317C284.474 273.689 284.847 273.689 284.847 273.689L286.703 274.43ZM322.722 282.23C321.61 282.23 320.493 282.23 319.381 281.858H316.039C314.926 281.858 313.81 281.858 312.325 281.486H311.581C310.096 281.486 308.983 281.113 307.867 280.741C307.122 280.369 306.382 279.997 305.638 279.997H304.893C304.149 279.625 303.409 279.625 303.036 279.625C302.292 279.625 301.924 279.253 301.552 278.88H301.179L301.924 279.993H302.296L304.525 280.737C304.897 280.737 305.269 281.11 305.638 281.11C306.75 281.482 307.867 281.854 308.979 281.854L310.836 282.598L312.321 283.343H313.066V283.715H312.693C312.321 284.087 311.581 283.715 311.209 283.715C310.836 283.715 310.836 283.343 310.464 283.343C310.092 283.343 309.352 283.343 308.607 282.97H307.122L303.036 282.226C302.292 282.226 301.552 281.854 300.807 281.482H300.435C300.063 281.482 299.691 281.482 299.322 281.11C298.578 280.365 298.21 280.365 297.466 280.365C296.721 280.365 295.981 280.365 295.236 279.993C294.492 279.621 293.752 278.88 293.007 278.88C291.895 278.508 290.778 277.768 289.665 277.024L288.181 276.279C287.809 275.907 287.436 275.907 287.436 275.535V275.163C287.436 275.163 287.809 275.163 287.809 275.535C288.921 275.907 290.038 276.279 291.15 277.02C291.895 277.392 292.263 277.02 293.007 277.392H294.12C294.492 277.764 295.233 277.764 295.977 278.136V277.764C295.233 277.392 294.492 277.392 294.12 277.02L291.891 275.907C291.147 275.163 290.034 274.422 288.921 274.422C288.549 274.05 288.177 273.678 287.809 273.678C287.436 273.306 287.436 273.306 287.436 272.934C287.809 272.561 287.809 272.561 288.181 272.934C288.925 273.306 289.293 273.306 290.038 273.306L292.635 274.418C293.748 274.791 294.492 275.531 295.233 275.903L297.462 276.648C298.206 276.648 298.574 277.02 299.319 277.392C299.691 277.392 300.431 277.764 300.803 277.764H301.916C302.66 278.136 303.401 278.508 304.145 278.508C304.517 278.508 304.89 278.88 305.63 278.88L308.228 279.625C309.712 279.997 310.825 279.997 312.314 279.997C313.058 279.997 313.426 279.997 314.171 280.369H314.915C316.4 280.369 317.884 280.369 319.369 280.741C320.854 280.741 321.967 280.741 323.083 281.113H330.139C332.736 281.486 335.338 281.113 337.567 281.113H339.424C339.796 281.113 339.796 280.741 339.796 280.741C341.281 281.113 342.393 280.741 343.51 280.741H346.107C346.479 280.741 346.479 280.741 346.852 281.113C346.852 281.113 346.852 281.486 346.479 281.858C346.107 281.858 345.735 282.23 345.367 282.23H338.683C337.939 282.602 337.198 282.602 336.826 282.602H333.857C333.485 282.602 333.112 282.602 333.112 282.23H332.368C331.255 282.602 329.771 282.602 328.654 282.23H322.722ZM292.647 168.234C293.019 168.234 293.391 168.606 293.391 168.978C293.391 169.35 293.391 169.35 293.763 169.722C293.763 170.094 293.763 170.467 293.391 170.467C292.278 170.467 291.906 169.354 291.906 168.61C292.274 168.606 292.647 168.234 292.647 168.234ZM330.891 154.122C330.519 154.494 330.147 154.494 329.778 154.494C328.666 154.494 327.549 154.494 326.064 154.867H321.238C320.493 154.867 319.381 155.239 318.268 154.867C318.268 154.494 317.896 154.867 317.524 154.867H313.81L309.355 154.122C308.611 153.75 308.243 153.75 307.871 153.75C306.386 153.75 305.641 153.75 304.529 153.378H302.3C301.555 153.378 300.815 153.006 300.443 153.006C299.33 153.006 298.586 152.634 297.845 152.634L294.503 151.521C293.759 151.521 293.391 151.149 292.647 150.408V150.036H293.759C294.503 150.408 295.616 150.781 296.357 150.781C297.097 150.781 297.841 151.153 298.214 151.153C299.698 151.525 300.811 151.525 302.3 151.525C303.412 151.897 304.529 151.525 305.641 151.897H307.871C308.615 152.269 309.355 152.269 310.1 152.269C310.844 152.641 311.212 152.641 311.957 152.641H317.528C318.64 152.641 319.757 152.641 320.869 153.013C321.614 153.013 322.726 153.013 323.839 153.386C325.324 153.386 326.436 153.386 327.925 153.758C328.669 154.13 329.41 154.13 330.154 154.13H330.891V154.122ZM298.586 166.377C298.586 167.489 298.214 168.234 298.586 169.346L299.33 170.459C299.33 170.831 299.33 170.831 298.958 171.203H298.586C298.214 171.203 298.214 171.575 298.214 171.575C297.469 171.948 297.101 171.948 296.729 171.203C296.729 171.203 296.729 170.831 296.357 170.831C296.357 171.203 295.985 171.203 295.985 170.831C295.24 170.831 294.872 170.459 294.5 169.718C294.128 169.346 294.5 168.974 294.872 168.974C294.872 168.602 295.616 168.602 295.616 168.974C295.988 169.346 296.36 169.718 296.36 170.087C296.36 170.087 296.733 170.087 296.733 170.459V170.091C296.733 168.978 296.733 167.862 297.105 166.749C297.105 166.377 297.105 166.005 297.477 165.636C297.477 164.892 297.849 164.524 298.221 163.779C298.966 162.294 299.706 161.182 300.078 159.693C300.078 158.949 300.45 158.208 300.45 157.464C300.45 156.72 300.45 156.351 300.823 155.979V155.607H301.195C301.195 156.351 301.195 157.092 301.567 157.464C301.567 158.949 300.823 160.434 300.454 161.918L298.586 166.377ZM298.217 145.21C297.845 145.582 297.845 145.954 298.217 146.322C298.962 147.067 300.074 147.807 300.815 147.807C301.928 147.807 303.044 147.807 304.157 148.179H307.126C307.871 148.551 308.239 148.179 308.983 148.179H311.581C312.325 148.551 312.693 148.551 313.438 148.551H320.121C320.493 148.551 320.866 148.551 321.234 148.924H322.347C322.719 148.551 323.091 148.924 323.459 148.924C324.203 148.924 324.944 149.296 325.688 148.924H329.03C329.402 148.924 330.143 149.296 330.515 148.924C330.887 149.296 330.887 149.668 330.887 150.036V150.781C330.887 151.525 330.887 151.525 331.631 151.153C332.376 151.153 332.744 150.781 333.488 151.153C334.973 151.525 336.086 152.637 335.345 154.122C334.973 155.235 334.973 155.607 336.09 155.607C336.834 155.979 337.202 155.979 337.574 155.979C338.687 155.979 339.059 156.351 339.059 157.464C339.059 157.836 339.059 157.836 339.431 158.208C339.803 158.953 339.803 158.953 340.916 158.58C342.029 157.468 343.514 157.468 345.002 157.836C345.374 158.208 346.115 158.581 346.115 159.321V160.806C346.487 161.178 346.487 161.918 346.487 162.291C346.487 162.663 346.859 163.035 347.231 163.403C347.604 163.403 347.976 163.775 348.344 164.148C349.088 164.52 349.088 164.892 349.088 165.632C349.088 166.745 349.088 167.489 349.46 168.23C349.833 168.23 349.833 168.602 350.205 168.974C350.577 169.346 350.949 169.346 350.949 168.974C351.321 167.862 352.062 167.117 351.693 165.632C351.321 165.26 351.321 164.888 351.321 164.888L350.209 163.403C349.836 162.659 349.096 161.919 349.096 160.806C349.096 160.062 349.096 159.321 349.84 158.577L350.953 157.464C351.325 156.72 352.066 156.351 351.697 155.235C351.697 155.235 351.697 154.863 352.069 154.491L352.814 153.746C353.186 153.374 353.558 153.002 353.558 152.634L352.814 150.405C352.814 149.66 352.814 149.292 352.441 148.548C352.441 147.435 353.186 147.063 353.926 147.063C354.298 147.435 354.671 147.435 355.039 147.435C355.411 147.063 355.783 147.063 356.152 147.063C356.896 147.063 357.264 147.063 357.636 146.691C358.381 146.318 359.121 146.318 359.866 146.318C360.61 146.318 361.35 146.318 362.095 145.946V145.574L360.238 144.462H359.493C358.749 144.462 358.381 144.089 358.009 143.717C356.896 142.973 356.152 142.605 354.667 142.605C354.295 142.605 353.922 142.605 353.554 142.232L352.069 141.488C350.957 140.744 350.212 140.375 349.1 140.744C347.615 141.116 347.615 141.116 346.13 140.372C346.13 140.372 346.13 140 345.758 140C345.014 140 344.273 139.627 343.529 139.627H342.416C341.672 139.627 341.303 139.627 340.559 139.255C340.187 139.255 340.187 139.627 339.815 139.627H338.702C337.958 139.255 337.217 139.255 336.105 139.255H335.733C334.988 138.883 334.248 139.255 333.503 139.255C332.759 139.627 332.019 139.627 331.647 139.255L329.417 138.511C328.673 138.511 328.305 138.511 327.56 138.883C327.188 139.255 326.448 139.255 326.076 139.255C325.331 139.627 324.219 139.627 323.478 140.368H318.279C317.167 140.368 316.422 139.996 315.31 139.996C313.825 139.624 312.712 139.624 311.596 140.368L311.224 140.74C310.111 140.74 309.367 140.74 308.626 139.996C308.254 139.624 307.514 139.624 306.769 139.624C306.397 139.996 305.657 139.996 305.285 140.736C304.54 141.481 303.8 142.221 302.315 141.849C301.571 141.477 300.83 141.849 300.458 142.221C300.458 142.593 300.086 142.965 300.086 143.334C299.714 143.706 299.714 144.078 299.341 144.078L298.217 145.21ZM302.672 171.203H302.3V171.948C301.555 171.948 300.815 171.203 300.815 170.463C300.815 170.091 301.187 170.091 301.187 169.718C301.559 169.718 302.3 170.091 302.3 170.091C302.3 170.459 302.3 170.831 302.672 171.203ZM303.044 146.326C302.672 145.954 302.3 145.582 302.3 145.213C302.3 144.841 302.3 144.841 302.672 144.469C302.672 144.469 302.672 144.097 303.044 144.097L303.416 144.469V145.213C303.416 145.586 303.044 145.958 303.416 146.326H303.044ZM305.641 171.203C306.014 171.203 306.386 171.575 306.386 171.948C306.386 172.32 306.014 172.692 305.641 172.692C305.269 172.692 304.897 172.32 304.897 171.579C304.901 171.203 305.273 171.203 305.641 171.203ZM307.498 144.469C307.498 144.097 307.871 143.725 308.243 143.725C308.615 144.097 308.987 144.469 308.987 144.837V145.21C308.243 144.837 307.874 144.837 307.502 144.837V144.469H307.498ZM307.871 183.086C307.871 182.713 307.871 182.341 308.243 182.341C308.615 182.341 308.987 182.713 308.987 183.086C308.987 183.458 308.615 183.83 308.615 183.83C307.871 183.83 307.871 183.458 307.871 183.086ZM308.615 176.03V175.658H313.069C313.441 176.03 314.182 175.658 314.554 175.658H318.268C319.012 175.658 319.381 175.658 320.125 176.03H327.181C328.293 176.402 329.038 176.03 329.778 176.03H332.007C333.12 176.402 334.236 176.402 335.349 176.03H336.834V176.402C336.462 176.402 336.462 176.774 336.09 176.774H333.12C332.376 176.774 331.263 176.774 330.15 177.146H328.665C327.181 177.146 325.696 177.146 324.579 177.519C323.835 177.891 323.467 177.891 322.722 177.891H322.35C321.606 178.263 320.493 177.891 319.753 177.519C319.381 177.146 318.64 177.146 317.896 177.146C317.152 177.146 316.411 176.774 315.667 177.146C314.182 177.146 312.697 177.146 311.581 176.774C310.836 176.774 310.468 176.402 309.724 176.402H308.611C308.239 176.402 308.239 176.03 308.239 176.03H308.615ZM313.441 184.57V184.943C313.069 184.943 312.697 185.315 312.329 184.943C311.957 184.943 311.584 184.57 310.844 184.57C310.844 184.198 310.472 183.826 310.472 183.458C310.472 183.086 311.216 182.713 311.957 182.713C312.697 183.086 313.069 183.83 313.441 184.57ZM341.288 307.107C341.288 306.363 341.288 305.622 340.916 304.878V301.908C340.916 300.424 340.916 298.939 340.544 297.454C340.544 295.597 340.916 293.368 340.916 291.515V290.03C340.916 289.658 340.916 289.658 340.544 289.658H339.8C338.315 289.658 336.83 289.658 335.345 290.03C333.86 290.03 332.376 290.03 330.519 289.658H327.177C326.433 289.658 325.692 289.286 324.948 289.286C324.204 289.286 323.463 288.913 322.719 288.913H320.862C319.377 288.913 318.264 288.913 317.148 289.286C316.035 289.286 314.919 289.658 313.806 290.398C313.434 290.77 313.062 290.77 313.062 291.511C312.69 292.255 312.317 293.368 312.317 294.108V294.853C311.945 295.965 312.317 297.082 311.945 298.194V300.792C311.573 302.277 311.945 303.389 311.573 304.878V307.107C311.573 307.479 311.573 307.851 311.945 308.22C312.317 308.964 312.69 309.705 313.43 309.705C314.543 309.705 315.287 310.077 316.4 310.077C316.772 310.077 317.144 310.077 317.512 310.449C318.625 310.449 319.369 310.449 320.11 310.821H322.707C323.079 311.193 323.82 310.821 324.564 311.193H329.391C331.248 310.821 333.477 311.193 335.334 310.821C336.078 310.821 336.447 310.821 337.191 310.449C338.304 310.449 339.788 310.077 340.905 309.705C341.277 309.705 341.277 309.705 341.277 309.332V307.107H341.288ZM311.957 145.21L312.329 144.837C312.701 144.837 313.073 145.21 313.073 145.582C313.073 145.954 313.073 145.954 312.701 145.954C312.329 145.954 311.957 145.582 311.957 145.21ZM325.324 284.455C325.324 284.455 325.696 284.455 325.696 284.827C325.696 285.199 325.324 285.199 324.952 285.199C324.207 284.827 323.467 285.199 322.354 285.199H321.982C321.238 284.827 320.497 284.827 319.753 285.199C319.009 285.572 318.268 285.572 317.524 285.199C316.779 284.827 316.411 284.827 316.039 284.827C315.295 284.455 314.554 284.083 313.81 284.083V283.711C313.81 283.339 313.81 283.339 314.182 283.339C314.554 283.339 314.926 283.339 315.667 282.967H317.896C318.64 283.339 319.381 283.339 320.125 283.339C320.869 283.339 321.61 283.711 321.982 284.083C321.982 284.455 322.354 284.455 322.726 284.455H325.324ZM315.298 142.612C315.671 142.24 315.671 141.868 316.043 141.868C316.415 141.868 317.155 141.868 317.155 142.24C317.155 142.612 317.528 142.984 317.528 142.984C317.528 143.356 317.155 143.729 317.155 143.729C316.411 143.729 316.043 143.356 315.671 142.984C315.298 142.984 315.298 142.612 315.298 142.612ZM315.298 160.065V158.953C315.298 158.581 315.671 158.208 315.671 157.468V157.096C316.043 157.096 316.043 156.724 316.043 156.724C316.415 157.096 316.415 157.096 316.415 157.468C316.787 157.84 316.787 158.953 316.787 159.697C316.787 159.697 316.787 160.069 316.415 160.441C316.415 160.813 316.043 160.813 315.671 160.441L315.298 160.065ZM318.268 182.713C318.64 182.713 319.012 183.086 319.012 183.826C319.012 184.198 318.64 184.57 318.268 184.57C317.896 184.57 317.524 183.826 317.524 183.458C317.524 183.086 317.896 182.713 318.268 182.713ZM318.64 145.582V145.21C318.64 144.465 319.384 144.465 319.753 144.837C319.753 145.21 319.753 145.582 320.125 145.582C320.125 146.326 320.125 146.326 319.753 146.326C319.381 146.326 318.64 146.326 318.64 145.582ZM321.61 183.83L321.982 184.202C321.61 184.202 321.61 184.574 321.238 184.574L320.866 184.202C320.493 183.83 320.493 183.83 320.493 183.458C320.865 183.458 321.238 183.086 321.238 183.458C321.61 183.458 321.61 183.458 321.61 183.83ZM325.324 144.097C324.952 143.725 324.952 143.353 324.952 142.984C325.324 142.984 325.696 142.612 326.064 142.984C326.436 142.984 326.809 143.356 326.809 143.729V144.473C326.809 144.845 326.809 144.845 326.436 145.217L325.324 144.097ZM327.921 284.827C328.293 284.827 328.665 284.455 329.034 284.455C329.778 284.455 330.519 284.455 331.263 284.083C332.007 284.455 332.748 284.083 333.492 284.455H334.977C335.349 284.083 335.721 284.083 336.09 284.083C336.458 284.083 336.834 283.339 337.202 283.339C337.574 282.967 337.947 282.967 338.315 282.967H339.428C340.172 282.967 340.54 282.967 341.284 283.711H341.657C342.401 283.711 343.141 283.711 343.514 284.083H344.626C345.739 284.083 346.855 284.083 347.968 283.711C348.712 283.711 349.081 283.711 349.825 283.339C350.938 283.339 352.054 282.967 353.167 282.967C353.539 282.594 354.279 282.594 354.652 282.594L359.106 281.482C359.85 281.482 360.591 281.11 361.335 281.11C362.079 281.11 362.448 280.737 363.192 280.737C363.192 280.737 363.564 280.737 363.564 280.365L363.936 280.737H363.564C362.82 281.11 361.707 281.85 360.595 281.85C360.222 282.222 359.482 282.594 359.11 282.594L355.024 283.707C353.539 284.079 352.054 284.451 350.569 284.451L346.115 285.564C345.371 285.564 344.63 285.936 343.886 285.936C343.514 285.936 343.141 285.936 342.773 285.564C342.401 285.564 342.029 285.564 341.66 285.936H336.09C335.717 286.308 334.977 286.308 334.233 286.308C333.488 286.308 333.12 285.936 332.376 285.936C331.631 285.936 330.891 285.564 330.147 285.564C329.774 285.936 329.034 285.936 328.662 285.936C328.29 285.564 327.917 285.564 327.917 285.564C327.549 285.199 327.549 285.199 327.921 284.827ZM330.15 146.326C329.778 145.954 329.778 145.582 329.778 145.213C329.778 144.841 330.15 144.841 330.891 144.841L331.263 145.213C331.263 145.213 331.635 145.586 331.635 145.958C332.007 146.33 331.635 146.702 331.263 146.702C330.891 146.702 330.522 146.698 330.15 146.326ZM332.007 164.892C332.379 164.892 332.752 165.264 333.12 165.636V166.008C333.12 166.381 332.007 167.121 331.635 166.753C330.891 166.38 330.522 166.008 330.891 165.64C330.891 165.264 331.263 164.892 332.007 164.892ZM331.635 142.24C331.263 142.24 331.263 141.868 331.263 141.868C331.263 141.496 331.635 141.124 332.007 141.124H332.379C332.752 141.124 333.492 141.868 333.492 142.608L333.12 142.981L331.635 142.24ZM332.379 271.088C331.635 271.088 331.267 270.716 331.635 269.975C331.635 269.603 332.007 269.231 332.379 269.231L333.864 269.975V270.348C333.492 270.72 333.12 271.092 332.752 271.092H332.379V271.088ZM331.635 162.291C331.635 161.546 332.007 161.546 332.379 161.546H333.492C333.864 161.546 333.864 161.918 334.236 161.918C334.236 162.291 334.236 162.291 333.864 162.663C333.492 162.663 333.12 163.035 332.379 163.035C332.007 163.035 331.635 162.663 331.635 162.291ZM334.605 190.141C334.233 190.141 333.86 190.513 333.492 190.513C333.124 190.513 333.12 190.513 332.748 190.886C332.748 190.886 332.376 190.513 332.003 190.513C331.631 190.513 331.631 190.141 331.631 189.769C331.631 189.397 332.003 189.025 332.376 189.025H332.748C333.492 189.025 333.86 189.397 334.605 189.397C334.605 189.769 334.977 189.769 334.605 190.141ZM334.233 196.825C333.86 197.197 333.12 197.569 332.376 197.569C332.003 197.197 331.631 196.825 331.631 196.456C331.631 196.084 332.003 195.712 332.376 195.712H332.748C333.492 195.712 333.86 196.084 334.233 196.084C334.605 196.453 334.605 196.453 334.233 196.825ZM334.233 248.068C334.605 248.44 334.605 248.44 334.233 248.812C333.86 248.812 333.12 249.184 332.748 249.184C332.376 249.184 332.376 249.184 332.003 248.812C331.631 248.812 331.631 248.44 331.631 248.068C332.003 247.696 332.376 247.324 332.744 247.324C333.112 247.324 333.864 247.696 334.233 248.068ZM331.635 255.864C331.635 255.492 332.007 255.12 332.379 255.12C333.124 255.12 333.492 255.12 334.236 255.492C334.609 255.864 334.609 256.236 334.236 256.605C333.864 256.977 333.124 256.977 332.752 256.977C332.007 256.977 331.635 256.608 331.635 255.864ZM331.635 262.92C331.635 262.548 332.007 262.175 332.379 262.175C333.124 262.175 333.492 262.548 334.236 262.92C334.236 262.92 334.236 263.292 333.864 263.664C333.864 263.664 333.492 264.036 332.752 264.036C332.379 264.036 332.007 264.036 331.639 263.664V262.92H331.635ZM333.12 240.268C333.492 240.64 333.864 240.64 333.864 240.64C334.609 241.012 334.609 241.384 334.236 241.753C333.864 242.125 333.864 242.125 333.124 242.125C332.752 242.125 332.379 242.125 332.011 241.753C331.639 241.753 331.639 241.008 332.011 241.008C332.007 240.64 332.748 240.268 333.12 240.268ZM332.007 203.136C332.007 202.764 332.379 202.764 332.752 202.764C333.124 202.392 333.496 202.764 334.236 203.508H333.864C333.492 204.253 333.12 204.253 332.379 204.253C331.635 203.88 331.635 203.508 332.007 203.136ZM333.864 218.36C333.492 218.36 333.12 218.732 332.752 218.36C332.379 218.36 332.007 217.988 332.007 217.616C332.007 216.872 332.379 216.503 333.12 216.503C333.12 216.503 333.492 216.875 333.864 216.875C334.605 217.248 334.605 217.62 333.864 218.36ZM333.12 211.305C332.748 211.305 332.376 211.305 332.376 210.932C332.003 210.56 332.003 210.56 332.376 210.188C332.376 209.816 332.748 209.816 333.12 209.816C333.492 209.816 333.492 210.188 333.864 210.188C334.236 210.56 334.236 210.56 334.236 210.932C334.236 210.932 333.864 211.305 333.492 211.305H333.12ZM332.379 232.1H333.124C333.496 232.1 333.868 232.1 334.236 232.472C334.609 232.844 334.236 232.844 334.236 232.844C333.864 233.588 333.492 233.588 332.752 233.588C332.379 233.584 332.007 232.844 332.379 232.1ZM332.379 300.796V300.424C332.007 299.679 332.379 298.939 333.492 298.939L334.605 299.683C334.977 299.683 334.977 300.055 334.605 300.427C334.233 301.164 333.12 301.164 332.379 300.796ZM332.379 223.931C332.379 223.559 332.379 223.187 332.752 223.187C333.496 223.187 334.236 223.559 334.609 223.931C334.609 223.931 334.609 224.303 334.236 224.303C333.864 224.675 333.492 224.675 333.124 224.675C332.748 225.044 332.007 224.675 332.379 223.931ZM333.12 294.853C332.748 294.853 332.376 294.48 332.376 294.108C332.376 293.736 332.748 293.364 333.12 293.364C333.864 293.364 334.605 293.364 334.977 294.108V294.481C334.605 294.853 334.233 295.225 333.492 294.853H333.12ZM334.977 304.878C335.349 304.878 335.349 305.25 334.977 305.25C334.605 305.622 333.864 305.622 333.492 305.622C332.748 305.622 332.379 305.622 332.748 304.878C332.748 304.506 333.12 304.134 333.492 304.134L334.977 304.878ZM336.462 144.841C336.462 144.469 337.206 144.097 337.574 144.097C337.574 144.097 337.947 144.469 337.947 144.841C337.947 145.213 337.574 145.586 337.202 145.586C336.834 145.582 336.462 145.21 336.462 144.841ZM339.063 141.5C339.063 141.127 339.063 141.127 339.435 140.755H340.548C340.548 141.127 340.92 141.127 340.92 141.5C340.92 141.872 340.92 141.872 340.548 141.872C340.176 142.244 340.176 141.872 340.176 141.872C339.803 141.872 339.803 142.244 339.803 141.872C339.431 141.868 339.063 141.868 339.063 141.5ZM342.033 145.21C342.033 144.837 342.777 144.465 343.145 144.465C343.514 144.465 343.89 145.21 343.89 145.578C343.89 145.95 343.517 146.322 343.145 146.322C342.405 146.326 342.033 145.954 342.033 145.21ZM367.654 303.021C368.398 302.649 369.139 301.536 369.139 300.051V298.567C368.767 297.454 368.767 295.969 368.767 294.853V294.481C368.767 293.736 368.395 293.368 368.395 292.624V288.169C368.022 286.684 368.022 285.572 368.022 284.083C368.022 283.711 368.022 283.711 367.65 283.711C366.906 284.455 365.793 284.824 364.681 285.196C364.309 285.196 363.936 285.568 363.196 285.568C362.824 285.568 362.083 285.568 361.339 285.94C360.595 286.684 359.482 286.684 358.741 286.684L355.4 287.429L353.171 288.173C351.686 288.173 350.573 288.545 349.457 288.545C348.712 288.545 347.972 288.917 347.6 289.289C346.855 290.402 345.743 291.518 344.63 292.259C343.517 293.744 343.145 295.229 343.145 297.086C343.145 297.458 343.517 297.83 343.517 298.198V301.912C343.517 304.141 343.145 306.367 343.89 308.968H344.262C344.634 308.968 345.006 308.968 345.374 309.34C345.746 309.712 346.487 309.712 346.859 309.34H349.088C350.573 308.968 352.43 308.596 353.915 307.855C355.027 307.855 356.144 307.483 357.257 307.111C358.369 307.111 359.114 306.739 360.226 306.367L362.824 305.254L365.053 304.51L367.654 303.021ZM348.344 144.097L347.231 143.353C347.231 142.981 346.859 142.608 347.231 142.608C347.604 142.236 347.603 141.864 347.976 141.864C348.72 141.864 349.46 142.977 349.088 143.721L348.344 144.097ZM373.221 275.915L373.593 275.543H373.221C372.849 275.915 372.109 275.915 371.736 275.915H370.992C370.248 276.659 369.135 277.027 368.395 277.399L362.452 278.884C362.079 278.884 362.079 279.256 361.707 279.256C360.963 279.256 360.222 279.629 359.478 280.001H358.366C357.621 279.629 357.253 280.001 356.881 280.373C356.136 280.745 355.396 281.117 354.652 281.117C353.907 280.745 353.167 280.745 352.422 281.117H350.938V280.745H351.682C352.426 280.001 353.539 280.001 354.279 280.001C355.024 280.001 355.392 279.629 356.136 279.629C356.509 278.884 357.249 278.516 358.366 278.516C358.738 278.516 359.11 278.516 359.478 278.144C359.85 277.772 360.591 277.772 361.335 277.772C362.079 277.772 362.82 277.399 363.564 277.399L368.019 275.915C368.391 275.915 369.131 275.543 369.503 275.543L372.101 273.686L374.698 272.573C375.443 271.829 376.183 271.46 376.555 271.46C377.668 271.088 378.412 270.348 379.153 269.603L379.525 269.231L381.01 268.118C381.01 267.746 381.382 267.374 381.382 267.006L382.495 265.149C382.867 265.149 382.867 264.777 383.239 264.405C383.239 264.032 383.611 264.032 383.983 264.032C384.355 264.032 384.728 264.032 384.728 264.777C384.728 264.777 384.355 264.777 384.355 265.149L383.243 266.634L382.13 268.491C381.758 268.863 381.386 269.235 381.386 269.603C380.641 270.348 380.641 271.088 380.273 271.832C379.901 272.577 379.529 272.945 379.529 273.317C379.157 273.317 379.157 273.317 379.157 273.689L378.412 274.802C378.04 275.174 377.668 275.174 376.928 275.174C376.928 275.546 376.555 275.546 376.555 275.546C375.071 277.031 373.586 277.775 371.729 278.144L369.872 278.888C369.128 279.632 368.015 280.001 367.274 280.001H366.53C366.158 279.629 365.786 279.629 366.158 279.256L366.902 278.512C368.015 277.768 369.5 277.399 370.988 277.027C370.988 277.027 371.36 276.655 371.733 276.655L373.221 275.915ZM355.772 187.54C356.144 187.912 356.144 188.284 355.772 188.653C355.4 189.025 354.659 189.025 353.915 189.025C353.171 189.025 352.802 188.653 352.802 188.281C353.174 187.908 353.546 187.536 353.915 187.536H355.772V187.54ZM355.772 196.08C356.144 196.08 356.144 196.453 355.772 196.453C355.772 196.825 355.027 197.197 354.287 197.197H353.543C353.171 196.825 353.171 196.453 353.171 196.084C353.171 195.712 353.543 195.712 353.915 195.34C354.287 195.34 355.4 195.34 355.772 196.08ZM353.543 144.469L353.915 144.097C354.287 144.097 354.659 144.469 354.659 144.469C354.659 144.469 354.287 145.213 353.915 145.213C353.915 145.21 353.543 144.841 353.543 144.469ZM356.512 204.993C356.14 205.737 355.4 206.106 354.655 206.106C354.283 206.106 353.911 205.734 353.911 204.993C353.911 204.621 354.283 204.249 354.655 204.249H355.4C355.772 204.249 356.144 204.249 356.512 204.621C356.512 204.621 356.884 204.621 356.512 204.993ZM357.629 213.162C357.257 213.534 356.516 213.906 355.772 213.906C355.4 213.906 354.287 213.534 354.287 213.162C354.287 212.417 354.659 211.677 355.772 211.677C356.516 211.677 356.884 212.049 357.629 212.789C357.997 212.793 357.997 212.793 357.629 213.162ZM356.144 222.074H355.772L355.028 221.33C355.028 220.958 355.028 220.586 355.4 220.586C355.772 220.213 356.144 219.841 356.144 220.213C356.516 220.213 356.516 220.213 356.516 220.586C356.888 220.586 357.629 220.958 357.629 221.33L356.144 222.074ZM358.369 229.87C357.997 230.615 357.257 230.983 356.512 230.615C356.14 230.615 355.4 229.87 355.768 229.13C356.14 229.13 356.512 229.13 356.512 228.758H357.257C357.629 228.758 358.001 229.13 358.369 229.13C358.741 229.502 358.741 229.502 358.369 229.87ZM359.114 237.67C358.741 238.415 357.629 239.155 356.884 239.155C356.14 238.783 356.14 238.411 356.14 237.67C356.14 237.67 356.14 237.298 356.512 237.298H356.884C357.629 237.298 358.369 237.298 358.741 237.67H359.114ZM359.486 245.839C360.23 245.839 360.23 246.211 359.858 246.583L358.001 247.696C356.888 247.324 356.516 246.951 356.516 246.211C356.516 245.839 357.26 245.467 357.629 245.467C358.373 245.467 358.741 245.467 359.114 245.839H359.486ZM360.226 253.267H360.971C361.343 253.639 360.971 254.011 360.598 254.379C360.226 254.751 359.486 255.492 358.741 255.492C358.369 255.492 358.369 255.492 357.997 255.864C357.997 255.492 357.625 255.492 357.625 255.492C357.253 255.492 356.881 255.12 357.253 254.379C357.253 254.007 357.625 254.007 357.997 254.007L360.226 253.267ZM361.339 261.807V262.179C360.967 262.924 360.226 263.292 359.482 263.292C359.11 263.664 358.738 263.664 358.369 263.292C357.997 263.292 357.625 262.548 357.625 262.179C357.997 261.807 358.369 261.435 359.11 261.435C359.482 261.435 360.222 261.807 360.595 261.807H361.339ZM362.083 267.374C362.455 267.374 362.455 267.746 362.083 267.746C362.083 268.118 362.083 268.118 361.711 268.118C360.967 268.863 360.226 269.231 359.482 268.863C359.11 268.863 358.738 268.863 358.738 268.491C358.738 268.118 358.738 267.746 359.11 267.378C359.482 267.006 360.222 267.006 360.595 267.006C360.967 267.006 361.711 267.006 362.083 267.374ZM363.568 289.282C363.196 290.026 362.824 290.026 361.711 290.026H361.339C360.595 289.654 360.595 288.913 361.339 288.913C361.339 288.541 361.711 288.541 362.083 288.541C362.455 288.541 362.828 288.541 363.568 288.913C363.94 288.913 363.94 289.282 363.568 289.282ZM362.083 295.597C361.711 295.225 361.711 294.484 362.455 294.112H364.312C363.94 294.856 363.2 295.225 362.455 295.597H362.083ZM363.568 300.051H363.196C362.824 300.051 362.824 299.679 362.824 299.679C362.824 299.307 363.196 298.935 363.196 298.935C363.94 298.935 364.309 298.935 365.053 299.307C364.681 300.051 363.94 300.051 363.568 300.051ZM366.538 155.607L364.681 156.72C364.681 157.092 364.309 156.72 363.936 156.72C363.564 156.348 363.564 155.975 363.564 155.607C363.936 155.235 364.677 155.235 365.049 155.235C365.049 154.863 365.421 155.235 365.421 155.235V154.863C365.793 155.235 366.165 155.235 366.534 155.235V155.607H366.538ZM365.425 160.434V159.321C366.169 158.577 366.91 157.836 367.654 157.836C368.767 157.836 369.139 158.208 368.767 158.949C368.767 159.693 367.282 160.806 366.169 160.806C365.797 160.806 365.425 160.806 365.425 160.434ZM369.139 185.315C368.395 185.315 367.654 185.315 366.541 184.943L366.169 184.57H366.541L370.996 183.086H372.109C372.481 183.086 372.481 183.086 372.853 183.458C372.853 183.83 372.853 184.202 372.481 184.202C372.481 184.574 372.109 184.574 372.109 184.574C370.996 185.315 370.252 185.315 369.139 185.315ZM368.026 164.892C367.282 164.892 366.914 164.52 366.914 164.148L367.658 163.035C368.402 163.035 369.143 162.663 369.887 162.291H370.631C371.376 162.291 371.376 162.663 371.376 163.035C371.376 163.407 371.003 163.407 371.003 163.779L368.406 164.892H368.026ZM368.026 189.769C367.654 189.769 367.654 189.769 367.654 189.397V189.025L369.883 188.281H370.996C371.368 188.281 371.368 188.281 371.74 188.653C372.112 188.653 372.112 189.025 372.112 189.025C371.74 189.397 371.74 189.397 371.368 189.397C370.624 189.769 369.883 190.141 369.139 189.769H368.026ZM368.767 195.712C368.395 195.712 368.022 195.34 368.022 194.968C368.022 194.596 368.022 194.596 368.395 194.224C369.139 194.224 369.507 194.224 369.879 193.851C370.252 193.851 370.992 194.224 371.364 193.851C371.736 193.851 372.109 194.224 372.477 193.851C372.849 193.851 373.221 194.224 373.221 194.596C373.221 194.968 372.849 195.34 372.477 195.34C372.105 195.712 371.733 195.712 371.364 195.712H368.767ZM368.395 200.911C368.395 200.539 368.395 200.167 368.767 200.167C369.139 199.794 369.511 199.794 369.879 199.794C370.624 199.422 370.992 199.422 371.736 199.422H372.481C373.225 199.422 373.225 199.794 372.853 200.535C372.853 200.535 372.481 200.907 372.109 200.907C371.364 201.651 370.252 201.651 369.139 201.651C368.767 201.651 368.767 201.279 368.395 200.911ZM369.511 206.85C369.139 206.106 369.511 206.106 369.883 205.737C370.255 205.365 370.996 205.365 371.74 205.365H372.485C372.857 205.365 373.229 205.737 373.229 206.11C373.229 206.11 373.229 206.482 372.857 206.854C372.112 207.226 371 207.598 370.259 207.226C369.879 207.222 369.511 206.85 369.511 206.85ZM370.252 213.162C369.879 212.789 369.507 212.049 369.879 211.677C370.252 211.677 370.624 211.305 370.992 211.305C371.736 211.305 372.849 211.305 373.59 211.677C374.334 212.049 374.334 212.789 373.59 212.789C372.845 213.162 372.105 213.534 371.36 213.534C370.996 213.534 370.624 213.534 370.252 213.162ZM370.996 219.477C370.624 219.477 370.252 219.105 370.252 218.732C370.252 217.988 370.624 217.988 370.996 217.62H372.109C372.481 217.62 372.853 217.62 373.221 217.992C373.593 217.992 373.593 218.364 373.593 218.736C373.221 219.108 372.849 219.481 372.109 219.481H370.996V219.477ZM370.624 224.675C370.624 224.303 370.996 223.931 371.368 223.931H373.597C374.341 223.931 374.341 224.303 373.969 224.675C373.969 225.048 373.597 225.048 373.225 225.42C372.853 225.42 372.112 225.792 371.74 225.792C371.368 225.792 370.996 225.792 370.996 225.42C370.624 225.044 370.252 224.675 370.624 224.675ZM375.45 235.441C375.823 235.441 375.823 235.813 375.823 235.813C376.195 236.186 375.823 236.558 375.823 236.558C375.45 236.93 375.078 236.93 375.078 237.302C374.334 237.674 373.221 238.046 372.481 237.674H372.109C371.736 237.674 371.364 237.302 370.996 236.93C370.996 236.558 371.368 235.817 372.109 235.817H372.481C373.225 235.445 373.965 235.445 374.71 235.445H375.45V235.441ZM374.71 229.87V230.243C374.71 230.615 374.338 230.987 373.965 230.987L372.853 231.731C372.109 231.731 371.74 231.731 371.368 231.359C370.996 230.987 370.996 230.615 371.368 230.246C371.74 229.874 372.112 229.874 372.853 229.874C372.853 229.502 373.225 229.502 373.597 229.502C373.597 229.502 373.969 229.502 374.341 229.874H374.71V229.87ZM376.195 241.384L375.082 242.497C374.71 242.497 373.969 242.869 373.225 243.241C372.853 242.869 372.481 242.869 372.112 242.869C371.74 242.497 371.74 241.384 372.485 241.384L372.857 241.012C373.969 241.012 375.086 240.64 375.826 241.012C376.195 241.012 376.563 241.012 376.195 241.384ZM376.563 246.951C376.935 247.324 376.935 247.324 376.935 247.696C375.822 248.808 374.706 248.808 373.593 249.181C373.221 249.181 372.481 249.181 372.481 248.436C372.109 248.436 372.109 248.064 372.109 248.064C372.481 247.692 372.481 247.32 372.853 247.32C373.966 247.32 375.082 246.948 376.195 246.948H376.563V246.951ZM376.935 254.007L375.45 254.751C374.706 255.124 374.338 255.496 373.593 255.496C373.221 255.124 372.849 255.124 372.849 255.124C372.477 254.379 372.849 254.011 373.221 254.011C373.593 253.639 374.334 253.267 374.706 253.267H375.819C376.191 253.267 376.563 253.267 376.931 253.639V254.007H376.935ZM375.823 258.834H377.307V259.578C376.935 259.95 376.935 259.95 376.563 259.95L373.593 260.694H372.849C372.849 260.322 372.849 259.95 373.221 259.95L373.593 259.578L375.823 258.834ZM379.536 282.598C378.792 282.598 378.424 282.226 378.424 281.486C378.424 281.486 378.424 281.113 378.796 281.113C379.909 280.369 381.025 280.001 382.138 279.629C382.51 279.629 382.51 279.629 382.51 280.001C382.138 281.486 381.025 281.858 379.912 282.598H379.536V282.598ZM380.277 288.169C379.905 288.169 379.164 288.169 379.164 287.797C379.164 287.425 379.164 287.053 379.536 286.684C380.281 286.312 381.021 286.312 381.393 285.94H382.506C382.878 285.568 382.878 285.94 382.878 286.312C382.878 286.312 382.506 286.684 382.506 287.056L380.649 288.169H380.277ZM387.333 256.236C387.333 256.98 387.705 257.721 388.077 258.465C388.077 258.837 388.077 258.837 388.449 258.837C389.193 258.465 390.306 258.093 391.046 258.093C391.787 258.093 392.159 257.721 392.531 257.349L394.76 254.379L396.245 252.522C396.99 251.037 397.358 249.181 397.358 247.324V243.61L396.614 239.896C395.869 236.554 394.757 233.212 393.644 230.243L392.9 226.529C392.9 225.788 392.9 224.672 392.528 223.559V209.82L393.272 207.222C393.272 206.11 393.272 204.993 393.644 204.253C394.016 202.768 394.388 201.283 394.388 199.798C394.388 198.686 394.388 197.201 394.016 196.084C394.016 194.972 393.644 194.227 392.904 193.115C392.904 192.743 392.531 192.37 392.159 191.63L391.046 189.773L390.302 188.66L388.073 187.548C386.96 187.175 385.476 186.803 383.987 187.175C382.502 187.548 381.39 188.288 381.017 190.145C380.645 190.517 380.273 191.258 380.273 192.002C379.901 193.115 379.529 194.231 379.901 195.344V197.941C380.273 198.313 380.273 198.686 380.273 199.054V200.167C380.273 201.651 380.645 202.764 380.645 204.253C380.645 205.365 380.645 206.11 381.017 207.222V209.82C381.017 210.932 381.017 212.417 381.39 213.534V220.962C381.762 221.706 381.762 222.446 381.762 223.191C381.762 224.303 381.762 225.42 382.134 226.532C382.506 227.645 382.506 229.13 382.506 230.246C382.506 231.731 382.506 233.216 382.878 234.701V239.155C382.878 239.899 383.25 241.012 383.25 241.753C383.25 243.237 383.622 244.722 383.622 246.207V247.692L384.367 251.778C384.367 252.15 384.739 252.522 385.111 252.891C386.22 254.007 386.96 254.751 387.333 256.236ZM398.843 259.95C398.843 259.95 399.215 259.95 399.215 259.578H395.501C394.757 259.206 394.016 259.206 393.272 259.206C392.9 259.206 392.528 259.578 392.159 259.95C392.904 259.95 394.016 259.95 395.129 260.322C395.873 260.322 396.241 260.322 396.986 260.694C397.73 260.694 398.098 260.694 398.843 260.322V259.95ZM392.904 188.656H393.648C394.392 188.284 395.133 188.284 395.505 188.284C395.877 188.284 395.877 187.912 396.249 187.912C395.877 187.912 395.505 187.54 395.505 187.54H395.133C394.388 187.912 393.648 187.912 392.535 187.912L392.904 188.656ZM394.388 189.029C394.016 189.029 394.016 189.401 393.644 189.401V190.145C394.016 190.145 394.016 190.517 394.388 190.517H394.76C395.873 190.145 396.617 190.145 397.73 190.145H398.474C398.102 189.773 398.102 189.401 398.102 189.401C397.73 189.029 397.73 189.029 397.358 189.029H394.388ZM395.873 176.03C396.245 176.03 396.617 176.402 396.617 176.774C396.617 177.146 396.617 177.146 396.245 177.519C395.873 178.631 395.501 179.748 394.388 180.86C394.016 180.86 394.016 180.488 394.016 180.488C394.388 179.003 394.388 177.891 395.129 176.402C395.501 176.03 395.501 176.03 395.873 176.03ZM394.388 217.248C394.016 217.248 394.388 217.62 394.388 217.62H396.617C397.362 217.62 397.73 217.248 398.474 217.62C398.847 217.62 399.219 217.62 399.219 217.248C399.219 216.875 398.847 216.503 398.847 216.135C398.847 215.763 399.219 215.391 399.219 215.022V214.65C399.219 213.906 399.219 213.906 398.474 213.906C397.362 214.278 395.877 213.906 394.76 213.906C394.388 214.278 394.388 214.65 394.388 215.391V217.248V217.248ZM394.388 220.217C394.388 221.33 394.388 222.074 394.76 222.815V223.559H397.73C398.474 223.187 399.215 223.559 399.587 223.559C399.959 223.931 399.959 223.559 399.959 223.559C399.959 223.187 399.587 222.446 399.587 222.074C399.587 221.33 399.215 220.589 399.215 219.845C399.215 219.473 399.215 219.473 398.843 219.473C398.098 219.845 397.358 219.473 396.614 219.473C395.869 219.473 395.501 219.473 394.757 219.101C394.384 219.101 394.384 219.101 394.384 219.473V220.217H394.388ZM396.245 191.626H394.76C394.76 191.998 394.76 191.998 395.133 192.37C395.133 193.115 395.505 193.115 396.245 193.115C397.358 192.743 398.474 192.743 399.587 192.743C399.959 192.743 399.959 192.743 399.959 192.37L399.587 191.998C399.587 191.254 399.215 191.254 398.843 191.626C398.102 191.998 396.986 191.626 396.245 191.626ZM395.501 212.421H396.614C397.358 212.049 398.098 212.421 399.211 212.421C399.211 211.308 399.583 210.192 399.955 209.079V208.707H399.583C398.471 209.079 397.354 209.451 396.614 209.079H395.129V209.824C395.129 210.568 394.757 210.936 394.757 211.681C394.757 212.425 394.76 212.421 395.501 212.421ZM396.986 256.608H396.242L394.757 258.093H399.211C399.583 258.465 399.955 258.465 400.324 258.465C400.696 258.465 400.696 258.465 400.696 258.093C401.068 257.721 401.44 257.349 401.44 256.608C399.959 256.977 398.474 256.608 396.986 256.608ZM395.133 224.675C395.133 225.788 395.133 226.905 395.505 227.645C395.877 228.017 395.877 228.017 396.249 228.017C396.993 227.645 398.106 227.645 399.219 227.645H400.704V227.273C400.704 226.529 400.331 225.416 400.331 224.675C399.959 224.303 399.959 224.303 399.587 224.303V224.675C398.843 224.675 398.102 225.048 397.358 224.675C396.614 224.675 395.873 224.675 395.129 224.303V224.675H395.133ZM415.552 161.55L410.725 166.005L408.868 167.489L407.755 168.602C406.271 169.715 404.414 170.831 402.557 171.2C401.812 171.572 400.7 171.572 399.587 171.572C398.843 171.572 398.102 171.572 397.358 171.944H396.614C396.241 171.572 395.869 171.572 395.501 171.572L396.614 170.827C398.843 170.083 401.44 169.343 403.669 168.23L406.639 166.745C407.011 166.373 407.752 166.001 408.124 166.001C409.609 165.256 410.721 164.516 411.838 163.403C412.95 162.291 414.435 161.174 416.292 160.434V160.062H417.405C417.405 160.434 417.033 160.434 416.66 160.806L415.552 161.55ZM395.501 206.85C395.501 207.594 395.501 207.594 396.245 207.594H399.587C400.331 207.594 400.331 207.967 400.331 207.222L401.076 204.993C401.076 204.621 400.704 204.621 400.704 204.621H399.219C398.474 204.993 397.734 204.993 396.99 204.993H396.245C396.245 204.993 395.873 204.993 395.873 205.365C395.873 205.737 395.873 206.478 395.501 206.85ZM401.444 229.87C401.444 229.498 401.072 229.498 400.7 229.498C399.587 229.498 398.843 229.498 397.73 229.126H396.245C395.873 229.126 395.873 229.126 396.245 229.498C396.245 229.87 396.617 230.611 396.617 230.983C396.99 231.727 396.99 232.096 398.102 231.727C398.847 231.727 399.959 231.727 400.7 231.355H401.812C401.812 230.983 401.44 230.611 401.44 230.243V229.87H401.444ZM399.215 233.956H397.73V234.329L398.102 234.701C398.847 234.329 399.587 234.701 399.959 234.701H400.704C401.448 234.329 402.188 234.329 402.56 234.329C402.933 234.701 402.933 234.329 402.933 234.329C402.933 234.329 402.933 233.956 402.56 233.956C402.56 233.584 402.56 233.584 402.188 233.584C401.444 233.956 400.328 233.956 399.215 233.956ZM404.414 249.925V249.181H402.185C401.44 249.553 400.7 249.553 399.955 249.181C399.583 249.181 399.583 249.181 399.583 249.553C399.583 250.297 399.211 251.037 398.839 251.782C398.839 252.154 398.839 252.154 399.211 252.154H400.324C401.068 252.154 401.809 252.154 402.553 252.526H403.297C403.297 252.898 402.925 252.898 402.925 252.898C402.553 252.898 402.181 253.27 402.181 253.27C401.436 253.27 401.068 253.643 400.696 253.643C399.952 253.643 399.583 253.27 399.211 253.27C398.467 253.27 398.467 253.27 398.098 254.015V254.387C398.098 254.387 398.098 254.759 397.726 255.131H401.068C401.812 255.131 402.181 255.503 402.553 255.503C402.553 255.131 402.925 254.759 402.925 254.391C403.297 254.018 403.297 254.018 403.297 253.646C403.669 253.274 403.669 252.902 403.669 252.534L404.414 249.925ZM402.929 236.186H398.474C398.102 236.186 398.102 236.186 398.102 236.558L398.474 236.93C398.474 237.302 398.474 237.302 398.847 237.302H399.591C400.703 236.93 401.82 236.93 402.933 236.93C403.305 236.93 403.677 236.93 403.305 236.558C403.301 236.186 403.301 235.813 402.929 236.186ZM403.301 238.411C402.929 238.411 402.188 238.783 401.816 238.783H399.219C398.847 238.783 398.847 239.155 398.847 239.155C398.847 239.527 399.219 239.527 399.219 239.899H399.591C400.335 239.899 401.448 239.527 402.56 239.527H403.673C404.045 239.527 404.045 239.527 404.045 239.155C404.041 238.411 403.669 238.411 403.301 238.411ZM404.414 242.125C404.414 241.38 404.041 241.38 403.669 241.38C403.297 241.38 402.925 241.753 402.925 241.753C401.812 241.38 401.068 241.38 399.955 241.38H399.211C399.583 241.753 399.583 242.125 399.583 242.125V243.237C399.583 243.61 399.583 243.61 399.955 243.61C401.068 243.61 402.184 243.61 403.297 243.982C404.41 243.982 404.41 243.982 404.41 242.869V242.125H404.414ZM404.414 244.726C402.929 244.726 401.444 245.098 399.959 244.726C399.587 244.726 399.587 244.726 399.587 245.098V247.327C399.959 247.699 399.587 247.699 399.587 248.072H404.041C404.414 248.072 404.414 248.072 404.414 247.699V244.726ZM411.469 169.718C411.097 170.091 411.097 170.463 411.097 170.831C411.097 171.944 410.725 173.06 410.725 173.801L409.612 175.658C408.868 176.77 408.868 177.515 408.5 178.627C408.127 180.112 407.755 181.597 407.015 182.713C407.015 183.458 406.643 183.826 406.271 184.198C405.898 184.57 405.898 184.943 405.526 184.943C404.414 185.687 403.669 186.8 403.297 187.912V188.284H402.925L402.553 187.912C402.925 187.168 402.925 186.055 403.665 185.683C404.038 184.57 404.778 183.826 405.15 183.086C405.895 181.973 406.263 180.856 406.263 180.116C406.635 178.631 406.635 177.146 407.376 176.03L408.86 174.173C409.233 173.801 409.605 173.06 409.605 172.316C409.977 171.572 410.349 170.831 410.349 170.087C410.721 170.087 410.721 169.715 411.093 169.343C411.097 169.346 411.469 169.346 411.469 169.718ZM402.929 217.62C402.929 216.507 403.301 215.391 404.041 215.022L405.898 213.537C406.643 213.165 407.011 212.793 407.011 212.053L408.868 209.824L410.353 208.711C411.097 208.339 411.465 207.967 411.838 207.226L412.95 204.997C413.323 204.625 413.322 204.253 413.695 204.625V205.369L412.21 208.339C411.838 208.711 411.466 209.451 410.725 209.824C409.612 210.568 408.868 211.681 408.496 213.165C408.124 213.91 407.752 214.65 406.639 215.394C406.267 215.394 405.895 215.767 405.154 216.507L404.041 217.62C404.041 217.992 404.041 218.364 403.669 218.364C403.297 218.736 402.925 218.364 402.925 217.992V217.62H402.929ZM415.183 189.769C415.555 190.141 415.555 190.141 415.183 190.141V191.998C415.183 193.111 414.811 194.227 414.071 195.34C414.071 196.084 413.326 196.453 413.326 196.825C412.582 197.569 411.841 197.937 411.469 198.682L410.357 200.167C409.985 200.539 409.612 200.911 409.244 200.911C408.131 201.655 407.015 202.768 406.647 203.881C406.647 204.253 406.647 204.253 406.274 204.625C405.902 205.369 405.162 206.11 404.79 207.222C404.417 207.222 404.417 207.222 404.045 206.85V206.106C404.045 205.362 404.045 204.993 404.417 204.249C404.79 203.505 405.162 203.136 405.162 202.392C405.906 201.279 406.647 200.535 407.759 199.794C408.503 199.05 409.244 198.682 409.616 197.937L411.845 196.08C412.958 195.336 413.702 194.596 414.074 193.483C414.447 192.739 414.447 191.626 414.447 190.886C414.819 190.513 414.819 190.513 414.819 190.141L415.183 189.769ZM413.326 178.259V178.631C413.326 179.375 413.326 179.744 412.954 180.116C412.954 180.86 412.582 181.229 412.21 181.973V185.315C412.21 188.284 411.097 190.141 408.496 191.626L407.011 192.739C407.011 193.111 406.639 193.111 406.639 193.483H406.267V192.739C406.267 191.994 406.639 191.254 407.379 190.51C407.752 190.137 408.124 189.397 408.864 189.025C409.609 187.912 410.349 186.796 410.349 185.311C410.349 183.454 410.721 181.969 411.462 180.484C411.834 179.74 412.206 178.999 412.947 178.627C412.954 178.259 413.326 178.259 413.326 178.259ZM416.668 212.793C416.296 214.278 415.183 215.391 414.071 216.507C413.698 216.879 413.326 217.62 413.326 218.364C412.582 220.221 411.469 221.334 409.985 222.45L407.387 225.048C406.643 225.42 406.643 225.048 406.643 224.675C406.643 223.931 407.015 223.191 407.387 222.818C408.131 221.706 409.244 220.962 410.357 219.849C411.101 219.477 411.469 218.736 411.841 217.62C412.214 216.875 412.954 216.135 413.698 215.391C414.443 215.019 414.811 214.646 415.183 213.906C415.928 212.793 416.296 211.677 416.668 210.564C416.668 210.564 417.04 209.82 417.04 209.451L417.412 209.079H417.785V209.451L416.668 212.793ZM413.326 229.13C413.326 230.243 412.954 230.987 412.214 231.727C411.841 232.472 411.101 232.84 410.729 233.212C410.357 233.584 409.985 233.584 409.616 233.584C409.248 233.584 409.244 233.212 409.244 232.84C409.244 232.468 409.244 232.468 409.616 232.096L411.101 230.611C411.845 229.867 412.586 229.498 412.958 228.754C412.958 228.754 412.958 228.382 413.33 228.382V229.13H413.326ZM411.469 244.354C411.097 244.726 410.725 244.726 410.357 244.726C409.988 244.726 409.985 244.354 409.985 244.354C409.985 243.61 410.729 242.869 411.469 243.241C411.841 243.61 411.841 244.354 411.469 244.354ZM411.469 253.267V253.639L410.357 254.751H409.985V254.379C409.985 254.007 410.729 253.635 411.097 253.267H411.469ZM417.409 197.937C417.409 197.937 417.781 197.937 417.781 198.31C417.781 199.054 417.409 199.794 416.668 200.907C416.668 200.907 416.296 200.907 416.296 201.279C415.924 201.279 415.552 201.279 415.552 200.535V200.163C415.924 199.418 416.296 198.678 417.036 197.934H417.409V197.937Z" fill="url(#paint0_linear_812_51)"/>
<defs>
<linearGradient id="paint0_linear_812_51" x1="275.569" y1="136.519" x2="424.05" y2="313.481" gradientUnits="userSpaceOnUse">
<stop stop-color="#CD8258"/>
<stop offset="1" stop-color="#74453A"/>
</linearGradient>
</defs>
</svg>
