<svg width="700" height="450" viewBox="0 0 700 450" fill="none" xmlns="http://www.w3.org/2000/svg">
<path d="M210.77 219.712C211.142 220.456 211.882 220.825 211.882 221.941H211.51L210.025 220.084L208.168 218.227C207.424 216.742 206.311 215.258 205.199 214.141C204.454 213.028 204.086 211.912 202.97 210.799C201.485 208.942 200.741 207.085 200 204.86V203.003C200 201.518 200.372 200.406 200.744 199.289C200.744 198.917 200.744 198.917 201.116 198.917C201.861 197.432 202.973 195.947 204.458 194.831L206.687 193.718C207.432 192.974 208.172 192.606 208.916 192.234C209.289 191.861 209.661 191.861 209.661 191.861C210.033 191.861 210.033 192.234 210.033 192.234C209.289 192.978 208.92 194.091 208.176 194.463C206.691 195.207 205.947 195.947 204.834 196.692C203.722 197.804 202.977 198.921 202.605 200.034C202.233 200.406 202.233 200.778 202.233 201.146C201.489 203.003 201.489 203.375 202.233 205.232C202.605 206.717 203.346 208.202 204.83 209.687L206.687 212.656L210.77 219.712ZM213.739 215.63L212.995 214.517L210.766 210.803L207.796 206.717L206.684 205.232V204.86C206.311 204.488 206.311 204.116 206.684 203.747C206.684 203.747 207.428 203.747 207.796 204.12L208.909 205.977C211.138 208.946 213.363 211.92 215.22 215.261C215.592 215.261 215.592 215.634 215.592 215.634C215.22 215.634 215.22 216.006 215.22 216.006C214.852 216.37 214.111 216.002 213.739 215.63ZM210.397 204.12C210.025 203.747 210.025 203.375 210.025 202.635C210.025 201.522 210.77 201.15 211.138 200.778C211.882 200.406 212.251 200.034 212.623 200.034H213.367C214.852 200.034 215.965 201.518 216.709 203.003L216.337 203.375H215.965C215.592 203.003 215.22 203.003 215.22 202.631C214.476 201.891 213.735 201.891 212.991 201.518C212.247 201.518 211.878 201.891 211.878 202.631C211.878 203.003 211.878 203.375 212.251 203.744C212.623 204.856 212.995 205.601 213.735 206.341L215.965 210.055C216.337 210.427 216.709 211.168 217.449 211.54C217.822 211.912 218.562 211.912 218.562 211.54C219.675 210.796 219.675 210.055 219.306 209.311L217.077 205.969C216.705 205.597 216.705 205.225 216.705 204.856V204.484C217.077 204.484 217.818 204.484 218.19 204.856C218.934 206.341 220.419 207.826 220.787 209.683C221.159 210.796 220.787 211.912 220.043 212.653C218.93 213.025 218.186 213.397 217.073 213.025C215.961 212.653 215.216 211.912 214.476 210.796C213.363 208.939 211.878 207.454 211.134 205.225L210.397 204.12ZM470.695 190.008C468.466 189.264 466.981 188.151 465.124 186.666C461.782 183.697 458.813 180.723 455.839 177.382L453.61 175.525C452.866 174.78 452.125 174.04 451.381 173.668H451.009C449.896 172.183 448.411 171.07 447.295 169.954L442.468 165.868L439.127 162.898L436.897 161.041C436.153 160.297 435.413 159.556 434.668 159.184C434.296 159.184 434.296 158.812 433.924 158.44L430.21 155.098C428.725 153.985 427.24 153.241 425.756 152.869H425.384C423.899 152.125 422.414 152.869 421.297 153.613C419.813 154.358 418.7 155.47 417.583 156.583L407.558 166.608L403.104 171.435C401.247 174.032 398.649 176.261 396.42 178.491L393.823 181.088L387.139 188.144L379.711 195.94L377.482 198.537L375.253 200.766C375.253 201.139 374.881 201.139 374.881 201.511L370.427 205.965C368.197 207.822 366.341 210.051 364.484 212.649C362.254 214.506 360.77 216.735 358.54 218.588L345.173 232.327L341.459 236.041C339.975 237.154 338.862 239.011 337.373 240.496L337.001 240.868L334.772 243.465C333.66 244.578 332.915 245.694 332.175 246.807L330.69 249.036L329.946 251.634V252.006C330.318 253.118 330.318 254.603 331.058 255.72L334.4 259.061L337.37 262.403L339.967 265.745L343.309 269.087C344.053 269.087 344.053 269.831 344.422 270.199L346.279 271.684L352.962 277.996L354.819 279.853L361.875 286.536L370.415 294.704L372.272 296.189C373.016 296.934 373.757 297.674 374.129 298.418L375.614 299.903C376.358 300.275 377.099 301.016 377.471 301.76L384.899 308.816L388.241 311.785C388.613 312.158 388.613 312.53 388.985 312.53L392.327 315.499C393.439 316.612 394.924 317.356 396.413 318.469L397.897 319.582C398.642 320.326 399.382 320.694 400.495 321.066H403.465C405.321 320.322 407.178 319.954 408.663 318.469C409.035 317.725 410.148 316.984 410.892 315.872C411.265 315.127 412.377 314.387 412.749 313.642C413.121 313.27 413.122 312.898 413.494 312.898L418.692 307.327C419.805 306.583 420.549 305.47 421.29 304.73C422.402 303.617 423.147 302.501 424.259 301.76L427.601 298.046C429.086 296.934 430.571 295.449 431.687 293.96L435.029 290.618L445.054 279.849C445.427 279.477 446.167 279.104 446.167 278.736L446.911 277.992L451.738 272.793L452.851 271.68H453.223C453.595 271.68 453.595 272.053 453.595 272.425C453.595 272.425 453.223 272.425 453.223 272.797L451.366 275.394C450.622 276.139 449.881 277.251 449.137 277.623C449.137 277.996 448.765 278.368 448.765 278.368C447.652 279.853 446.535 281.709 445.051 282.822L440.965 287.649L437.995 290.991L435.766 293.588L432.424 296.93L431.311 298.415C431.311 298.787 430.939 299.159 430.567 299.159C429.082 300.272 427.97 301.388 426.853 302.873C426.853 303.245 426.481 303.617 426.109 303.617C424.624 305.474 422.767 306.959 421.654 308.444L417.568 312.898L409.772 320.326C409.028 321.439 407.915 321.811 406.803 322.555C405.69 322.927 402.716 324.04 400.86 324.412C400.115 324.784 399.747 324.04 399.003 324.04C397.89 322.555 396.033 322.183 394.548 320.698C393.435 320.326 392.691 319.585 391.951 318.841L389.353 316.612H388.981L383.41 311.413C382.666 309.928 381.181 309.184 380.441 307.699C380.441 307.327 380.068 307.327 379.696 306.955C378.584 306.211 377.467 305.47 376.727 304.358L372.272 299.531C371.16 298.418 370.043 296.934 368.558 296.189C366.701 293.96 364.472 292.103 362.615 290.25L361.13 288.393C360.386 287.649 359.646 286.908 358.901 286.536L357.416 285.051L352.962 280.965L347.763 277.251C347.019 276.507 346.278 276.139 345.166 275.766C344.794 275.394 344.422 275.394 343.681 275.766L342.568 276.511C341.084 277.996 339.599 279.108 338.114 280.225L329.201 286.908L325.86 289.137L321.773 292.107L314.718 297.306L306.922 302.504L301.723 306.218C300.61 306.59 299.866 307.331 299.125 307.703C298.753 307.703 298.753 308.075 298.381 307.703V307.331L300.238 305.846L301.351 304.734L304.32 302.504L309.147 299.163L311.376 297.678C312.861 296.193 314.718 295.08 316.575 293.592L318.804 291.735L319.916 290.991L323.63 288.021L328.457 283.935L330.314 282.45L333.656 280.221L335.141 278.736C335.513 278.364 335.513 277.992 335.513 277.623C335.513 277.251 335.141 276.879 334.768 276.511C333.656 276.511 332.911 276.883 331.799 277.255L329.201 278.368C325.859 279.853 322.518 281.709 318.804 283.194L311.748 286.908L305.437 289.506C303.952 289.878 302.839 290.618 301.351 291.363C299.866 292.107 298.381 292.107 296.896 292.847C296.152 292.847 295.411 292.847 294.667 293.22C293.923 293.22 293.554 293.22 292.81 293.592H291.325L288.728 292.847L286.13 291.735C285.386 291.363 284.646 290.622 283.901 289.878L282.789 288.021C282.789 287.277 282.416 286.908 281.676 287.277C281.304 287.277 280.932 286.904 280.191 286.904C279.447 286.532 279.447 286.16 279.078 285.792V285.047C279.451 284.675 279.451 283.935 279.451 283.563C279.823 282.45 279.823 281.334 279.823 280.221C279.823 280.221 279.823 279.849 279.451 279.477C279.078 278.732 279.078 277.247 278.706 276.135C278.334 275.391 277.962 274.65 277.962 273.906C276.849 271.677 276.105 269.451 275.365 267.222C275.365 266.85 275.365 266.478 274.992 266.478C274.62 266.106 274.248 265.365 273.508 264.993C271.651 263.88 269.053 263.136 266.824 262.396C266.08 262.396 264.967 262.023 263.854 262.396C263.482 262.396 263.11 261.651 262.37 262.023C261.625 261.651 261.625 261.279 261.625 260.911V260.539C261.997 260.166 262.37 259.794 262.37 259.426C262.37 258.313 262.742 257.569 262.742 256.456C262.742 255.344 262.37 254.227 263.114 253.115C262.37 252.37 263.114 251.63 263.114 250.517V248.288C263.114 247.175 263.114 246.431 262.742 245.691V244.946C262.742 244.574 263.114 244.574 263.114 244.202C263.486 244.202 263.858 244.202 263.858 244.574C264.603 245.318 265.715 245.318 266.456 246.059H267.568C267.941 246.059 267.941 246.059 267.941 245.687L264.599 235.289C263.854 233.432 263.114 231.947 262.742 230.091C262.37 229.718 262.37 229.346 262.37 229.346C262.37 228.974 261.997 228.974 261.997 228.974V229.346C261.997 230.091 261.625 230.459 261.625 231.203C261.625 231.947 261.253 232.688 261.253 233.06V237.146C261.625 238.259 261.625 239.003 261.625 240.116V240.86C261.997 241.232 261.997 241.604 261.997 242.345C261.997 242.345 261.997 242.717 261.625 242.717C261.253 242.717 260.881 243.461 260.513 242.717H259.768C257.911 241.232 255.682 240.86 253.457 240.12C252.713 240.12 251.972 239.747 251.228 239.375C250.115 239.375 249.743 239.003 248.63 238.631C248.258 238.631 247.886 238.631 247.518 238.259C247.146 238.259 246.405 237.887 246.033 237.887C245.289 237.887 244.92 237.887 244.92 237.142C244.92 235.658 245.292 234.545 245.665 233.056V231.944C245.665 231.199 246.037 230.459 246.037 229.715V224.516C246.037 223.772 245.665 222.659 245.665 221.918C245.292 221.174 245.292 221.174 246.037 220.806C246.409 220.434 246.781 220.434 247.522 220.806L249.006 221.918C249.751 221.918 250.119 222.291 250.863 222.663L253.461 223.775C253.833 223.775 254.573 224.147 255.318 224.147H255.69C256.803 224.52 257.547 224.892 258.659 224.892H259.404C259.776 224.892 260.148 224.892 260.148 225.264C260.892 225.264 260.892 224.892 260.892 224.52L259.78 221.55C258.667 218.953 257.923 216.351 257.182 213.754L256.07 210.784C255.697 209.672 255.325 208.555 255.325 207.442C254.581 205.213 253.84 202.988 252.728 200.759L251.984 197.789V197.045C251.984 196.673 251.984 196.673 252.356 196.673H253.1C253.1 197.417 253.472 197.785 253.844 198.53L254.957 202.616C255.701 204.101 256.442 205.213 256.814 206.702C257.186 208.559 258.299 210.416 258.671 211.901L259.784 215.615L261.64 220.069L262.385 222.666C263.129 223.779 263.497 225.264 264.242 226.753L265.727 231.207L267.583 235.661C268.328 238.259 269.068 240.488 270.181 242.717C270.553 244.202 270.925 245.687 271.666 247.172C272.038 249.028 272.778 250.513 273.151 251.998L274.635 256.453C275.008 257.197 275.38 257.937 275.38 258.682C275.38 259.054 275.38 259.794 275.752 260.166C276.496 261.651 276.865 263.136 277.237 264.621L277.981 266.85C278.353 267.594 278.725 268.335 278.725 269.079L279.47 271.308C279.842 272.053 280.214 272.793 280.214 273.537L282.443 280.221C282.815 280.593 282.815 280.965 282.815 281.334C283.928 283.191 284.3 285.047 285.044 286.532C285.416 287.645 286.157 288.761 286.901 289.502C287.273 289.874 287.646 290.246 288.014 290.246C288.386 290.618 289.127 290.618 289.499 290.618C290.243 290.618 290.984 290.618 291.356 290.991H293.213C293.585 290.618 294.325 290.618 295.07 290.618C295.814 290.618 296.182 290.618 296.927 290.246C300.268 289.134 303.238 287.649 306.58 286.16C307.324 285.788 308.065 285.047 309.177 285.047C309.921 284.675 310.662 283.935 311.775 283.935C312.147 283.935 312.519 283.563 312.887 283.191L322.913 278.364L328.111 276.135C328.484 276.135 329.224 275.763 329.596 275.391V275.018H326.627C325.882 275.018 325.142 275.391 324.397 275.018C324.025 274.646 323.285 274.646 322.541 275.018C321.428 275.391 319.943 275.018 318.827 275.018H315.485C314.741 274.646 314 274.646 313.256 274.646H312.884V273.902H314.368C315.113 273.53 315.853 273.902 316.597 273.53C316.97 273.158 317.342 273.53 318.082 273.53C318.454 273.53 319.195 273.53 319.567 273.158C319.939 272.785 320.311 273.158 320.68 273.158H336.648C337.392 273.158 338.133 273.158 338.505 272.785L334.419 271.301L331.822 269.816C331.077 269.444 330.709 269.072 330.337 269.072C329.592 268.699 328.852 267.959 328.108 267.959L320.68 264.245L318.082 263.132L314.368 261.275C312.884 260.531 311.771 259.418 310.654 259.046C309.91 258.674 309.542 257.934 309.17 257.561H308.797C308.797 257.561 308.425 257.561 308.425 257.934V260.163C308.053 260.907 308.053 261.275 308.053 262.02V263.877C307.681 264.621 307.681 265.361 307.681 265.734C307.309 266.846 306.568 267.59 305.824 267.963C305.08 268.335 303.227 267.963 302.482 266.85C302.11 266.106 301.738 265.365 301.738 264.253C301.738 263.88 301.738 263.14 301.366 262.768V254.599C301.738 254.227 301.366 254.227 301.366 254.227H300.253C300.253 254.227 299.881 254.227 299.881 253.855V253.483C300.625 253.111 300.994 252.739 301.366 253.111C302.11 253.111 302.11 253.111 302.478 252.739C302.851 252.366 303.963 252.366 304.335 251.994C305.08 251.994 305.08 251.622 304.708 251.25L303.963 250.137C303.591 250.137 303.219 249.765 303.219 249.393C302.847 248.28 301.734 247.164 300.99 246.423C300.618 246.423 300.618 246.423 300.618 246.051V245.307L301.73 244.194C302.843 243.082 303.587 241.597 304.328 240.48C304.328 240.108 305.072 240.108 305.072 240.48C305.444 240.853 305.444 240.853 305.444 241.225C306.929 242.337 306.929 242.337 307.673 240.853C308.046 239.368 308.786 238.255 309.53 237.139C309.903 236.766 309.903 236.766 309.903 236.394C309.53 236.022 309.53 235.282 309.53 234.537C309.53 234.165 309.53 233.425 309.158 232.68V211.145C309.158 210.032 309.158 209.288 309.53 208.547V207.803C309.53 206.691 309.53 205.574 309.903 204.461V203.717C309.53 202.973 309.53 202.232 309.53 201.488V200.375C309.158 200.003 309.158 199.631 309.158 199.263V195.177C309.158 194.064 309.53 193.32 308.786 192.207V180.697C308.786 180.325 308.786 179.953 309.158 179.584V169.187C309.158 168.442 309.158 167.702 308.786 166.958V158.045C308.786 157.301 308.786 156.932 308.414 156.188V149.535C308.414 149.163 308.414 148.791 308.786 148.791C308.786 148.418 308.786 148.418 309.158 148.418C309.53 148.418 309.53 148.418 309.53 148.791V152.877C309.53 153.621 309.53 154.361 309.903 155.106V159.192L310.275 158.82C310.275 158.447 310.647 158.447 310.647 158.075C312.504 156.963 313.616 155.106 315.101 153.621C316.214 152.508 316.958 151.764 317.33 150.651L318.443 148.422C318.443 148.422 319.187 148.05 319.187 148.422C319.559 148.794 319.932 148.794 319.932 149.166C320.304 150.279 321.044 151.023 321.789 151.764C321.789 151.764 321.789 152.136 322.161 152.508C323.273 153.253 323.646 153.993 324.39 155.106L326.987 158.075L327.36 158.447C327.732 158.82 327.732 159.192 327.36 159.192C327.36 159.564 326.987 159.936 326.615 160.304L324.386 162.902L321.044 168.473L319.559 170.33H321.044C321.789 170.33 322.529 170.702 322.901 171.442C322.901 171.815 323.646 172.555 323.273 172.927C322.901 173.672 322.901 174.412 322.529 174.784C322.157 175.156 322.157 175.528 322.529 176.269V177.754C321.785 178.498 321.044 179.239 319.559 179.239H319.187C319.187 179.239 319.187 179.611 318.815 179.983H319.187L322.529 182.58C322.901 182.953 323.273 182.953 323.273 183.325C323.646 183.697 323.646 183.697 324.018 183.325L326.247 181.468C326.991 180.723 327.732 179.611 328.476 179.239C329.589 178.494 330.333 177.382 331.446 176.269V175.525C331.073 175.153 331.073 174.412 331.073 174.04C331.073 172.555 331.446 171.442 331.073 169.954C331.073 169.582 331.818 168.841 331.446 168.097C331.446 167.725 331.446 166.984 331.818 166.24C331.818 165.496 331.818 165.127 332.19 164.383C332.19 164.011 332.19 163.27 332.562 162.526C332.934 162.154 332.934 161.413 332.934 161.041C333.678 158.812 334.419 156.587 335.532 154.73L336.644 153.245L338.501 149.903L339.614 148.046L341.099 146.934V146.561H340.354C339.982 146.934 339.61 146.934 338.87 146.934H328.844C328.1 146.934 327.732 146.934 327.36 146.561H319.191C318.447 146.561 317.706 146.561 317.334 146.934H311.391C310.647 146.934 309.906 146.561 309.162 146.561L308.79 146.189L309.162 145.817C309.534 145.817 309.906 145.445 310.647 145.445C311.759 145.445 312.876 145.445 313.989 145.073C315.101 145.073 316.218 144.701 317.33 145.445H318.815C319.56 145.445 320.672 145.073 321.413 145.817H321.785C322.157 145.445 322.897 145.445 323.27 145.445C324.754 145.445 325.867 145.445 326.984 145.073H338.866C339.61 145.073 340.351 145.073 340.723 144.701H349.635C350.38 144.701 351.12 144.701 351.865 144.328H354.462C356.691 144.328 356.319 144.701 357.432 142.472C357.432 142.099 357.804 141.727 358.176 141.359C358.176 140.987 358.176 140.987 358.548 140.615L358.92 140.987L358.176 143.584L355.947 148.411L352.977 154.354C351.492 156.583 350.38 159.18 349.263 161.409L348.151 164.379C347.778 165.123 347.038 165.864 347.038 166.977C346.294 167.721 345.925 169.206 345.181 170.318C344.809 170.691 344.437 171.431 344.437 171.803C343.324 173.66 342.208 175.517 341.467 177.374C340.354 180.344 338.87 182.945 337.753 185.542C336.64 188.512 335.156 191.113 333.667 194.083C332.182 196.312 331.07 198.909 329.953 201.139C329.209 202.251 328.468 203.368 328.096 204.48L324.754 211.536L321.413 218.22C319.556 222.306 317.699 226.388 315.47 230.474C315.097 231.218 314.725 232.331 313.985 232.703C313.985 232.703 313.985 233.075 313.613 233.075H313.241V232.703C313.241 231.959 313.241 231.218 313.613 230.474L315.842 224.535L316.586 223.422C316.586 222.678 315.842 222.678 315.473 222.309L313.616 220.08C313.616 219.708 312.872 219.336 312.504 218.596C312.132 218.223 311.391 217.851 311.391 217.483H311.019V228.253C311.019 228.997 311.019 228.997 311.391 229.737V234.564C311.391 234.564 311.391 234.936 311.763 234.564H312.508C312.508 234.936 312.508 235.677 312.135 235.677C312.135 236.421 311.763 236.789 311.763 237.161C311.019 237.906 310.651 239.018 310.278 239.759C309.906 241.616 308.794 243.101 308.421 244.958C307.677 246.815 307.309 248.672 307.309 250.901C307.309 251.273 307.681 251.645 307.681 252.013C308.425 253.87 309.91 255.355 311.395 256.468C311.395 256.84 311.767 256.84 311.767 256.84L318.451 260.554L321.42 262.039C322.905 262.411 324.018 263.151 325.134 263.523C329.22 265.38 333.303 267.609 337.389 269.835C338.873 270.207 340.73 270.947 342.215 271.692V271.32C342.215 270.575 341.843 270.207 341.471 269.835L331.446 259.809L328.476 256.096L327.363 254.611V253.498C327.363 252.385 326.991 250.901 327.363 249.784L325.506 248.672C325.134 248.672 324.762 248.299 324.762 247.927C324.762 247.555 324.762 247.183 325.134 246.442L327.363 241.244L331.077 233.447L333.675 228.993L337.389 220.825L339.618 215.998L340.73 213.769L341.843 211.172C341.843 210.799 342.215 210.427 342.215 210.059L345.185 203.747C347.414 200.406 348.899 196.692 350.756 192.978L352.241 190.749C352.241 190.749 352.613 190.377 352.985 190.377C352.985 190.749 352.613 191.121 352.613 191.489C352.613 191.861 352.613 191.861 352.985 191.861C353.357 191.861 354.097 191.489 354.842 191.489C355.214 191.489 355.586 191.117 356.327 191.117C356.699 191.117 357.439 191.117 357.811 190.745L361.525 188.888C361.897 188.888 362.27 188.516 362.638 188.144C362.266 187.772 361.894 187.772 361.525 187.772H358.556C357.811 187.772 357.811 187.399 357.443 187.027C357.815 186.655 357.815 186.655 358.187 186.655C358.932 186.655 359.3 186.283 360.044 186.283C360.789 185.911 361.529 186.283 362.273 185.911C362.273 185.539 362.646 185.911 363.018 185.911H374.156C374.528 185.911 374.9 185.539 374.9 185.166V182.953C374.9 182.58 374.528 182.58 374.528 182.58C374.156 182.953 373.415 182.58 373.043 183.325C372.671 184.069 372.299 184.437 371.558 184.437C371.186 184.809 370.073 184.437 369.701 184.065V183.693C369.329 183.321 369.329 182.949 368.957 182.949C368.585 182.949 367.844 182.949 367.472 183.321C367.1 183.693 366.728 184.065 366.359 184.065C365.987 184.809 365.615 184.809 364.875 184.437L364.13 183.325C363.758 182.953 363.018 182.58 362.646 182.953C362.273 182.953 361.901 183.325 361.533 183.697L360.789 184.441C360.044 184.813 359.676 185.185 358.932 184.069L358.187 183.325C357.443 182.58 357.443 182.58 357.075 183.697C356.703 184.441 355.962 185.182 355.962 186.294C355.59 186.666 354.849 187.039 354.477 187.039C354.105 186.294 354.105 185.182 354.849 184.441C355.221 184.069 355.221 182.956 355.594 182.584C355.966 181.84 356.338 181.099 356.338 180.355L357.451 178.87L359.68 174.416C359.68 173.672 360.052 172.931 360.424 172.559L363.766 165.503C364.51 164.018 365.251 162.534 366.363 161.049L367.476 158.451L369.333 155.854L370.446 153.625L370.818 153.253V153.997L369.705 157.711L367.848 161.425C367.848 161.425 367.848 161.797 367.476 162.169C366.732 163.282 365.991 164.766 365.619 166.255L361.165 175.168L358.567 180.739C358.195 181.111 358.195 181.111 358.567 181.111H359.311C360.056 180.739 360.796 180.739 361.909 180.739C362.281 180.739 362.281 180.739 362.281 180.366V178.137C362.653 177.393 362.653 176.653 362.653 175.908C363.025 175.164 363.025 174.423 363.397 174.051C363.397 173.307 363.77 172.939 364.142 172.194C364.514 171.082 365.627 170.337 367.111 169.965C367.856 169.593 368.596 170.337 369.341 170.337C369.713 170.337 370.085 170.709 370.453 171.082C370.453 171.454 370.825 171.826 370.825 172.194V172.939C370.825 174.796 370.825 175.168 372.682 174.051H373.054C374.167 173.679 374.911 174.051 375.284 175.164V175.908L374.171 177.393C374.171 178.137 373.799 178.506 373.799 178.878C373.427 179.25 373.054 179.991 373.427 180.363C373.799 180.735 374.539 180.735 374.911 180.735C376.396 180.363 377.881 180.363 379.366 180.363C380.11 180.363 380.851 180.363 381.223 179.618C381.595 179.246 382.708 178.874 383.08 179.246C383.452 179.246 383.452 179.246 383.824 179.618C384.196 179.991 384.196 180.731 384.196 181.103C384.196 181.475 383.824 181.475 383.824 181.475C383.452 181.475 383.452 181.103 383.452 181.103H383.08C383.08 180.731 383.08 180.731 382.708 180.731C382.708 181.103 382.335 181.475 381.963 181.844C381.963 181.844 381.963 182.216 382.335 182.588C382.335 182.588 382.335 182.96 382.708 182.96C384.192 182.216 385.305 181.103 385.677 179.991C386.049 179.618 386.049 179.246 386.049 178.878C386.049 178.137 386.049 177.393 386.422 176.28C386.422 175.908 386.794 175.536 387.534 175.168V174.796C387.534 174.796 387.162 174.796 387.162 174.423C387.162 174.423 386.79 174.051 386.79 173.679V173.307C386.418 172.935 386.418 172.563 386.418 172.563C386.418 171.818 386.79 171.45 387.162 171.45C388.275 170.706 389.391 169.593 390.504 169.221C390.876 169.221 391.248 168.849 391.248 168.849C391.62 168.477 391.992 168.104 392.361 168.104C393.105 167.36 393.473 166.62 393.105 165.507C393.105 164.763 393.849 164.394 393.477 163.65C393.477 162.906 393.477 162.537 393.849 161.793V161.049C393.849 160.304 393.849 159.936 394.222 159.192V157.335C394.222 156.963 394.594 156.963 394.966 156.591C395.338 156.591 395.338 156.591 395.338 156.963V162.161C395.338 162.534 395.338 162.534 395.71 162.534C396.082 162.534 396.082 162.906 396.454 162.534C397.567 162.534 398.684 163.278 399.796 163.278C400.541 163.65 400.909 163.278 401.281 162.906L402.025 161.793C402.025 161.421 402.025 161.049 402.77 161.049C403.142 161.049 403.514 161.421 403.882 162.161V164.391C403.51 164.763 403.882 165.135 404.254 165.503C404.627 165.503 404.627 165.503 404.627 165.875H404.999L407.968 162.906V162.161H407.224L405.739 161.049C404.995 160.304 403.882 160.304 403.142 159.936C402.77 159.936 402.029 159.564 401.657 159.192C399.8 158.447 397.943 157.707 396.086 156.594C394.601 155.85 393.116 155.482 391.632 154.365L386.433 151.768V151.396H387.177L391.632 153.253C392.744 153.997 394.229 154.365 395.346 154.737C396.83 155.482 397.943 156.222 399.432 156.594L405.003 159.564H405.375C406.487 159.936 407.972 160.308 409.089 161.049C409.089 161.421 409.461 161.421 409.833 161.049C412.062 159.192 413.919 156.963 415.772 155.106C416.144 154.734 416.516 154.365 416.516 153.993C416.889 153.249 416.889 152.508 416.144 151.764C415.772 151.392 415.4 151.02 415.032 151.02C413.547 150.275 412.802 149.907 411.318 149.535L406.119 147.306C403.89 146.561 401.665 145.449 399.435 144.336C397.206 143.223 394.981 141.739 392.752 140.994L386.813 138.025C385.328 137.653 383.843 136.912 382.358 136.168C381.246 136.168 380.501 135.423 379.389 134.683C377.16 133.57 374.562 132.826 371.961 131.341L369.732 130.601H368.987C368.615 130.973 367.875 130.973 367.503 130.973C366.758 131.345 366.39 131.717 365.646 131.717C365.273 132.461 364.161 132.461 363.789 133.202C363.789 133.946 363.044 134.687 362.676 135.431C362.304 135.431 362.304 135.803 361.932 136.175C361.56 136.547 361.187 136.547 361.187 136.547C360.815 136.175 360.815 135.803 360.815 135.803C361.187 134.691 361.56 133.574 362.3 132.461C362.672 132.461 362.672 132.089 362.672 131.717C363.044 131.717 362.672 131.345 362.672 131.345C361.559 131.717 360.815 131.717 359.703 131.717H356.733C356.361 131.717 355.62 131.717 355.248 132.089H349.305C348.561 132.089 347.82 132.089 347.076 132.461H346.332C345.219 132.461 344.475 132.461 343.362 132.834H336.679C335.934 132.834 335.194 132.461 334.081 133.206H329.995C328.882 133.206 327.766 132.834 327.025 133.578H325.913C325.168 133.578 324.056 133.578 323.315 133.95H305.862C305.49 133.95 304.749 133.578 304.005 134.322H301.408C299.551 134.322 297.694 135.066 296.209 136.179C294.724 137.664 293.98 139.149 293.611 141.006C293.611 141.75 293.984 142.491 293.611 143.235C293.611 143.979 293.239 144.347 293.611 145.092V145.464C293.611 146.208 293.611 146.949 293.239 147.693C293.239 148.065 293.239 148.065 292.867 148.065C292.867 148.437 292.123 148.437 292.123 148.065C291.378 147.321 291.378 146.208 291.378 145.468C291.378 145.096 291.378 144.355 291.006 143.983L289.149 142.87H288.777C288.405 143.242 288.033 143.242 287.665 143.242L283.578 144.355C282.094 145.099 280.609 145.84 279.124 146.212L275.41 147.325C275.038 147.325 274.297 147.697 273.553 148.069C271.324 149.182 268.727 150.298 265.757 151.039C265.013 151.039 264.272 151.411 263.528 151.411L260.93 152.523C260.186 152.523 259.446 152.896 258.701 153.268L255.359 154.012C254.615 154.384 253.875 154.756 253.13 154.756C252.758 154.756 252.758 155.128 252.386 155.128L246.815 158.47L244.586 161.068C243.842 162.18 243.842 162.925 243.842 163.665C243.47 164.778 243.47 165.894 243.47 166.635C243.47 167.375 244.214 167.747 243.842 168.492C244.586 169.236 244.214 169.604 244.214 169.977L244.958 172.574L245.703 175.544C245.703 176.288 246.075 176.656 246.075 177.401C246.819 177.773 246.447 178.513 246.819 179.258L248.304 182.972C248.676 184.456 250.533 189.283 250.533 190.768C250.905 191.14 250.905 191.88 250.905 192.253C250.905 192.625 250.161 192.625 250.161 192.625L249.789 192.253C249.044 191.508 248.304 190.768 248.304 189.655L247.191 186.313L246.078 183.344C245.334 181.859 244.594 180.374 244.222 178.517C243.849 177.404 243.477 176.288 243.477 174.803C243.105 174.431 243.105 174.059 242.733 174.059C242.733 173.687 242.361 173.687 241.989 173.687C241.616 172.942 240.876 173.315 240.504 173.315C239.391 173.687 238.647 174.427 237.534 175.172C236.79 175.544 236.049 176.284 234.937 176.656L231.595 179.254C230.851 179.626 229.738 179.998 229.366 180.739L224.539 184.08L219.713 187.05C217.856 188.535 215.999 189.647 213.773 190.764H212.289L213.773 189.279L216.743 187.05C216.743 187.05 217.115 186.678 217.487 186.678L220.085 184.821C220.457 184.077 221.197 184.077 221.57 183.708L224.167 181.851C224.167 181.479 224.539 181.479 224.539 181.479L229.738 177.765L233.08 175.536C234.937 174.051 236.794 172.566 239.019 171.45C239.391 171.078 239.763 170.337 240.504 169.965L241.248 168.108C241.248 167.364 241.62 166.996 241.248 166.251C240.876 165.507 241.248 164.394 241.248 163.282C240.876 162.537 241.248 162.169 241.62 161.425C241.62 160.68 241.992 159.94 242.733 159.568C243.477 158.823 243.846 158.083 244.218 157.339C244.962 156.226 246.815 155.11 247.932 154.741C248.304 154.369 249.044 154.369 249.789 153.628L254.243 151.772C254.615 151.399 254.987 151.399 255.356 151.399C255.724 151.399 256.1 151.027 256.468 151.027C256.841 151.027 257.213 151.027 257.581 150.655C259.066 150.655 260.178 150.283 261.667 149.542L264.637 148.798C266.494 148.054 268.351 147.685 269.835 146.941C270.208 146.569 270.948 146.569 270.948 146.569C272.433 145.825 273.918 145.456 275.403 145.084C276.887 144.712 278.372 144.34 279.857 143.599C281.342 142.859 282.827 142.487 284.311 142.115C285.796 141.742 287.281 141.37 288.766 140.63L291.363 139.517C291.735 139.517 291.735 139.145 291.735 139.145C291.735 138.401 292.108 138.401 292.108 137.66L293.22 135.803C293.592 135.803 293.592 135.431 293.965 135.059C294.337 134.687 294.709 133.946 295.449 133.574L298.791 132.089C299.163 132.089 299.904 132.089 300.648 131.717H306.219C306.963 131.717 307.704 131.717 308.448 131.345C308.82 131.345 309.561 131.345 309.933 131.717H310.677C311.422 131.717 311.79 131.345 312.534 131.345C313.278 131.345 313.647 131.345 314.391 130.973L319.218 129.116L321.815 128.003C324.044 126.891 327.386 125.774 329.611 125.406C330.724 125.034 331.841 125.034 332.953 125.406L335.923 126.891C337.408 127.635 337.78 128.375 338.892 130.232C338.892 130.604 338.892 130.604 339.265 130.604H343.351C344.095 130.604 344.835 130.232 345.58 130.232H354.12C354.865 130.232 355.605 129.86 356.349 129.86H361.176C361.92 129.86 362.289 129.488 363.033 129.488H364.89C365.634 129.488 366.003 129.116 366.747 129.116C367.119 129.116 367.491 129.116 367.859 128.744C369.716 127.999 371.201 128.372 372.686 129.116C373.058 129.116 373.43 129.488 373.43 129.488H374.175C374.175 129.488 374.175 129.116 374.547 129.116C375.66 129.488 377.144 128.744 378.261 128.744C379.005 128.744 379.746 129.116 380.49 128.372H383.459C383.832 128.372 384.572 128.372 385.316 127.999H386.429C387.173 128.372 387.914 128.372 388.286 128.744C389.771 129.116 390.515 129.856 391.256 130.601L392.74 132.83C393.113 133.202 393.113 133.942 393.113 134.687C393.485 135.431 393.857 136.544 393.857 137.284C394.229 137.656 394.229 137.656 394.229 138.028L396.458 139.513L403.514 143.227L408.341 145.084L413.911 147.313L419.851 150.283L422.08 151.027H422.824C423.568 150.655 424.309 151.027 425.053 151.027H425.797L428.027 152.14C428.399 152.512 428.771 152.512 428.771 152.512C430.256 152.884 431.741 153.997 432.857 155.109L435.086 156.594C435.83 157.339 436.199 157.707 436.571 157.707L439.54 159.192C439.913 159.192 440.285 159.192 440.653 159.564C441.766 160.308 442.882 160.677 443.995 161.049L447.337 162.534C449.194 162.906 450.678 164.018 452.163 164.763L454.02 165.875C455.133 166.62 455.877 167.36 456.249 168.104L457.734 171.074C457.734 171.818 458.106 172.187 458.106 172.931C458.479 173.675 458.106 174.416 457.734 175.16V175.904L460.704 178.502L465.903 183.328L468.132 185.558C469.244 186.302 469.616 187.415 470.361 188.155L471.101 189.64V190.012H470.695V190.008ZM251.243 278.383V279.127H250.871C250.499 278.755 250.127 278.755 249.758 278.015C248.646 276.902 247.901 275.045 246.789 273.56C244.932 270.963 243.075 268.361 240.849 265.764C239.737 263.907 238.62 262.05 237.135 260.193C236.391 259.08 236.023 258.336 234.906 257.223C234.162 256.479 233.794 255.366 233.049 254.254C231.937 252.397 230.452 250.912 229.708 249.055C228.963 247.57 227.851 246.458 227.11 245.341C226.366 243.856 224.881 242.372 224.14 240.515C223.028 239.402 222.284 237.917 221.543 236.801L216.716 229.373L214.487 226.403C214.115 226.031 213.743 225.291 213.743 224.918V224.546H214.115C214.487 224.546 214.859 224.918 214.859 225.291C215.604 226.403 216.344 227.52 217.457 228.632L219.686 231.974L223.772 237.917L226.742 241.631L230.084 246.458C231.568 248.315 232.681 250.544 234.17 252.769C235.654 254.254 236.767 256.483 238.256 257.968L241.597 263.539C242.71 264.651 243.082 265.768 243.827 266.88C244.939 269.109 246.796 270.966 247.913 273.192C248.285 273.564 248.657 273.936 248.657 274.304C249.758 275.413 250.499 276.898 251.243 278.383ZM225.249 220.084C225.249 220.828 224.877 221.569 225.249 222.313C225.622 222.685 225.622 223.058 225.622 223.426C225.622 223.798 225.249 223.798 225.249 223.798H224.877L222.648 222.685C221.535 222.313 220.791 221.941 220.051 221.941C219.306 221.941 218.938 221.197 219.306 220.828V218.972C219.306 217.859 219.678 217.115 218.934 216.002V215.63C218.934 215.258 219.306 214.885 219.678 214.885C219.678 214.513 220.423 214.513 220.423 214.885C221.167 215.63 222.28 215.998 223.02 216.37C223.765 216.742 224.133 216.742 224.505 216.742H224.877C225.622 217.115 226.362 217.487 225.99 218.227C225.621 218.972 225.622 219.712 225.249 220.084ZM229.335 208.946C229.708 208.202 229.335 207.834 229.708 207.089C229.708 206.345 229.335 205.604 229.708 204.86C229.708 203.747 230.08 202.263 229.708 201.146C229.335 200.774 229.708 200.034 229.335 199.661V197.064C229.708 197.064 230.08 196.692 230.448 197.064L234.903 200.034C235.647 200.406 236.387 200.778 237.132 200.778C237.504 201.15 238.244 200.778 238.989 201.15C239.361 201.522 240.101 201.15 240.473 201.522H241.586C242.33 201.894 243.071 201.894 243.815 201.894C244.187 201.894 244.559 202.266 244.928 203.007V203.751C244.928 203.751 244.556 204.123 244.556 204.496C244.556 205.608 244.928 206.353 244.184 207.093V217.491C244.184 217.863 244.556 218.235 244.556 218.603C244.556 218.603 244.556 218.975 243.811 218.975C243.811 218.975 243.439 218.975 243.067 218.603C242.695 218.603 242.323 218.231 241.954 217.859C241.21 217.487 240.47 216.746 239.725 216.746L235.639 215.261L231.925 214.149C231.181 214.149 230.068 213.777 229.328 213.777C228.584 213.777 228.215 213.404 228.584 212.664C228.956 212.292 228.584 211.551 228.956 210.807C229.335 210.431 229.335 209.687 229.335 208.946ZM256.07 171.442C256.07 171.442 256.07 170.698 255.697 170.33C254.585 168.473 253.84 165.875 253.468 163.646L252.724 162.902H251.98C251.608 162.902 251.235 162.53 251.235 162.53C251.235 162.158 251.235 161.785 251.608 161.417C252.352 161.045 253.465 160.673 254.205 160.673C254.949 160.673 254.949 160.673 255.318 161.045V161.789C254.573 162.161 254.573 162.534 254.946 162.902L255.69 165.872C256.803 167.356 257.175 168.841 257.547 170.326C257.919 171.439 257.547 172.183 257.547 173.296C257.547 174.408 256.434 175.153 254.949 175.525H253.837C251.98 175.897 251.239 174.412 250.123 173.296C249.751 172.923 249.751 172.183 249.751 171.439C249.751 171.439 249.751 171.066 250.123 171.066H250.495C250.867 171.066 250.867 171.439 250.867 171.439C251.239 171.811 251.239 171.811 251.239 172.183C251.984 173.668 253.096 174.04 254.581 174.04C255.697 173.672 256.442 172.927 256.07 171.442ZM296.171 309.203V309.947L293.573 312.177C293.201 312.177 293.201 312.549 292.829 312.549L288.002 316.635L285.033 317.747C283.92 317.747 282.804 318.12 281.691 318.12C281.319 318.12 280.579 318.12 280.206 317.747L277.237 316.635L275.38 315.522L273.151 312.925L271.294 310.327L268.696 306.241L265.354 301.042L263.125 298.073L255.329 286.19L254.216 284.334L253.104 282.849V282.477C253.476 282.104 253.476 282.104 253.848 282.104C254.22 282.849 254.961 283.589 255.705 284.334L257.19 286.563C259.047 288.42 260.159 290.649 261.644 292.874L266.843 299.93L271.297 307.358L273.154 309.587L274.639 311.444C275.752 313.301 277.237 314.413 279.094 315.158C279.466 315.158 279.838 315.158 279.838 315.53C280.951 316.274 282.435 315.902 283.552 315.902C284.668 315.902 285.409 315.53 286.522 315.158C287.634 314.413 289.119 313.673 290.235 312.56L294.69 309.963L296.171 309.203ZM259.039 179.239C259.411 179.611 259.784 179.611 260.152 179.611C260.524 179.611 260.896 179.983 261.265 180.355V181.099C260.152 182.212 260.52 183.697 259.78 184.813C259.78 185.185 260.152 185.558 260.152 185.558C260.152 186.302 260.152 186.67 259.78 186.67C259.408 186.67 259.408 186.67 259.408 187.042C259.035 186.67 259.035 186.67 258.663 186.67C258.291 185.926 257.551 185.558 257.178 185.185L256.066 184.073C255.694 183.701 255.322 183.701 254.953 183.701C254.209 183.328 253.84 182.588 254.209 181.844C254.953 181.099 254.953 179.615 255.322 178.502C255.694 178.502 255.322 178.502 255.694 178.13C255.694 177.758 256.438 177.385 256.806 177.758C257.554 178.126 258.299 178.498 259.039 179.239ZM293.201 155.846C293.573 156.591 293.573 157.331 293.573 157.703C293.201 158.447 293.946 158.816 293.573 159.56V163.274H293.946V165.872C293.946 166.616 293.573 166.984 293.946 167.728V174.04C293.946 174.784 293.946 175.525 294.318 176.269C294.69 176.641 294.318 177.382 294.318 178.126V200.406C294.318 201.15 294.318 201.518 294.69 202.263C295.062 202.635 294.69 203.007 294.69 203.375V234.936C294.69 236.049 294.69 236.793 295.062 237.906V249.416C295.062 250.16 295.062 250.901 295.434 251.645C295.434 252.389 295.806 253.13 295.434 253.502C295.062 254.246 295.062 254.615 295.434 255.359V260.185C295.434 260.93 295.434 261.298 295.806 262.042V263.155C295.806 264.268 296.178 265.384 296.551 266.125C296.551 266.869 296.923 267.609 296.923 267.982C296.923 268.726 297.295 269.094 297.667 269.839C298.78 270.583 299.524 271.323 300.265 272.436C301.009 272.808 301.377 273.18 302.122 273.18H302.866C303.61 273.18 304.723 272.808 305.463 273.553H308.805C309.177 273.553 309.918 273.553 310.29 273.925C310.662 274.297 310.662 274.669 310.29 275.037C309.918 275.409 309.177 275.409 308.433 275.409H303.978C303.606 275.409 303.234 275.782 302.866 275.409C302.122 275.037 301.381 275.409 300.637 275.037C299.892 274.665 299.152 274.293 298.408 274.293C297.295 273.921 296.551 273.18 296.178 272.064C295.434 271.32 295.066 270.579 294.694 269.466C294.694 268.354 294.322 267.609 293.949 266.497C293.949 266.125 293.949 265.753 293.577 265.753C293.577 264.64 293.577 263.896 292.833 263.155C292.089 261.67 291.348 260.185 290.976 258.701C289.491 255.359 288.747 251.645 287.634 248.303C286.89 247.931 287.262 247.191 286.89 246.446C286.89 245.702 286.518 245.334 286.518 244.589L285.405 241.247L283.176 235.304L281.319 229.734L278.721 223.422L275.38 213.025C275.008 212.28 274.635 211.54 274.635 210.427C274.263 210.055 273.891 209.315 273.891 208.198C273.891 208.198 273.519 207.826 273.519 207.454V206.341L272.775 204.856C272.403 204.112 272.03 203.372 272.03 202.627C272.03 201.887 271.286 201.142 271.286 200.398C270.542 198.913 269.801 197.428 269.429 195.944C269.057 194.459 268.685 192.974 267.944 191.489L266.459 187.403C265.347 184.434 264.23 181.46 263.49 178.491L262.377 175.521C261.265 173.664 260.892 172.179 260.52 170.322C260.52 169.95 260.52 169.578 260.148 169.209C260.148 169.209 260.148 168.837 260.52 168.837C260.52 168.465 260.892 168.465 260.892 168.837C261.637 170.694 262.749 172.551 263.49 174.78L265.719 181.092L266.463 182.949C266.463 183.321 266.835 184.061 267.208 184.434C267.58 184.806 268.32 184.806 268.692 184.806C269.805 184.806 270.549 184.806 271.29 185.178C271.662 185.178 272.403 185.922 272.775 186.291C273.147 186.291 273.147 186.291 273.147 186.663L274.259 190.377C274.632 190.377 274.632 190.749 274.632 190.749C274.632 191.121 274.632 191.493 275.004 191.861C275.376 191.489 275.748 191.489 275.748 191.117C276.861 189.632 278.346 188.147 279.834 187.031L282.432 185.174C283.176 184.43 283.916 183.689 285.029 183.689C285.401 183.689 285.401 183.317 285.773 183.317C285.773 182.945 285.401 182.945 285.401 182.945C284.657 182.573 284.289 181.832 283.916 181.46C283.172 180.347 283.172 179.603 283.916 178.491L284.289 178.118C284.661 177.746 284.661 177.746 284.289 177.374C283.176 177.002 283.176 175.889 282.804 175.145C282.804 174.401 283.176 173.66 283.548 173.288L284.661 172.544V171.799C284.289 171.055 283.916 170.315 283.916 169.57L282.804 166.973L282.059 164.744L280.203 163.631C279.09 162.887 277.973 162.518 277.233 161.774C276.861 161.402 276.489 161.03 276.12 161.402C275.376 161.402 275.008 161.774 274.263 161.774C274.263 161.774 273.891 161.774 273.891 162.146C271.662 162.146 271.294 162.518 269.437 163.259L267.952 164.003L263.866 165.488C262.753 166.232 261.637 166.232 260.152 166.601H259.78V165.856L262.749 164.372C263.862 163.627 265.347 163.259 266.463 162.887L273.519 160.658C273.891 160.285 274.632 159.913 275.376 159.913C277.233 158.801 279.462 158.428 281.315 157.684L284.657 156.572C285.77 156.199 287.254 155.827 288.371 155.087H289.484C290.228 155.087 290.968 154.715 291.34 154.715C291.713 154.715 291.713 154.342 291.713 153.97C292.085 153.226 292.085 152.858 292.085 152.113C292.457 151.741 292.457 152.113 292.457 152.113C292.829 152.485 292.829 152.858 292.829 152.858C293.201 153.602 292.829 153.97 293.201 154.342V155.846V155.846ZM286.146 233.451C286.518 233.079 286.518 232.707 286.518 232.707C286.146 231.594 285.773 230.85 285.773 230.109L283.916 225.655L282.059 219.712C281.687 218.968 281.315 217.855 281.315 216.742L280.203 214.145C280.203 213.032 279.83 211.916 279.458 211.175L278.346 207.834L276.489 202.635C276.489 201.15 275.744 199.665 275.376 198.549L273.519 194.094C272.775 192.237 272.406 190.008 271.29 188.155C271.29 187.783 271.29 187.411 270.918 187.411C270.918 187.039 270.546 186.666 270.173 186.666C269.429 186.294 269.061 186.294 268.689 186.294C267.944 185.922 267.576 186.294 267.944 186.666L268.689 190.008L269.433 192.237L271.29 196.692C271.29 197.804 272.034 198.921 272.034 199.661C272.406 200.774 272.406 201.518 273.147 202.631V203.003L273.891 205.973C274.635 207.458 275.376 208.57 275.748 210.059L276.861 213.401C277.233 214.145 277.605 214.885 277.605 215.258L278.349 217.115C278.349 217.487 278.721 218.227 279.094 218.972C279.838 220.828 280.206 223.058 281.323 225.283L282.808 228.625L283.92 232.339L284.665 233.823C284.665 234.196 285.037 234.196 285.037 234.196C285.405 233.823 285.777 233.451 286.146 233.451ZM269.437 291.006V289.893C269.437 289.149 269.809 288.036 269.437 286.923C269.437 286.551 269.437 286.179 269.809 285.811H270.181C272.038 286.555 273.895 287.296 275.752 287.668C276.124 287.668 276.496 288.04 276.865 288.412V288.784C276.492 289.156 276.492 289.897 276.492 290.269C276.492 290.641 276.12 291.013 276.12 291.013C276.12 291.758 275.748 292.498 276.12 293.242C276.492 293.615 276.12 293.987 276.12 293.987C275.376 294.731 275.376 294.731 274.635 294.359C273.891 294.359 273.151 293.987 272.778 293.615C272.034 293.242 271.294 292.87 270.549 292.87C270.549 292.87 270.177 292.87 270.177 292.498C269.065 292.122 269.065 292.122 269.437 291.006ZM280.206 298.434C281.319 299.546 282.435 300.663 283.176 302.147L285.405 305.117C285.777 305.861 285.777 306.602 285.777 307.346C285.777 308.831 285.033 309.575 283.548 310.316C282.804 310.688 281.319 310.688 280.579 309.944L277.609 306.602C276.865 305.489 276.496 304.373 275.752 303.632L274.267 300.663C273.895 299.55 274.267 298.065 275.38 296.949C275.752 296.204 276.865 295.836 277.609 296.204C278.722 296.949 279.834 297.321 280.206 298.434ZM277.977 191.121L275.748 193.718L276.861 197.06V197.432H277.233L278.718 195.575L279.83 192.978L280.575 190.008C280.947 190.008 280.575 189.636 280.575 189.636C280.575 189.264 280.947 188.892 280.575 188.892C280.575 188.892 280.203 188.52 280.203 188.892C279.83 188.892 279.83 189.264 279.458 189.636L277.977 191.121ZM281.319 194.091C281.319 194.463 280.947 194.835 280.947 195.203C280.575 195.575 280.203 195.947 280.203 196.688L278.718 199.658C278.346 200.03 277.973 200.402 277.973 200.77C277.973 201.142 277.973 201.515 278.346 201.883C278.718 202.623 278.718 203.368 279.09 203.74V204.112C279.462 204.484 279.462 204.484 279.834 204.112L282.063 200.398C282.435 198.541 283.176 196.684 283.92 194.827C284.292 194.455 284.292 193.342 284.665 192.598V190.741C285.037 189.997 285.037 188.884 285.037 188.144V186.659C285.037 185.546 285.037 185.546 283.924 186.287C283.552 186.287 283.552 186.659 283.18 186.659C282.435 187.031 282.435 187.403 282.435 187.772V190.369C282.063 190.741 282.435 191.113 282.063 191.854L281.319 194.091ZM283.548 162.902C283.548 163.274 283.92 163.274 284.292 162.902C286.149 161.789 288.006 161.417 289.863 160.673C290.608 160.301 291.348 160.301 291.72 159.928V155.842C291.72 155.47 291.72 155.47 291.348 155.47L289.863 156.215L286.894 157.327C286.522 157.327 286.522 157.699 286.522 157.699C286.522 158.072 286.522 158.072 286.894 158.072C287.266 159.184 287.266 159.556 286.522 159.928C286.149 160.301 286.149 160.301 285.777 160.301C285.033 160.673 284.292 160.673 283.548 159.928L282.804 159.184H282.432L279.09 160.297V160.669L283.548 162.902ZM292.089 229.737V226.768C291.716 225.655 292.089 224.17 291.716 222.682C291.716 221.937 291.344 221.569 291.344 220.825L290.6 218.968C290.228 217.483 289.487 216.37 289.115 215.254C288.371 213.025 286.886 211.168 285.773 209.311C285.029 208.198 284.289 206.713 283.176 205.969L282.063 204.484C281.319 204.856 281.319 205.597 280.951 205.969C280.579 205.969 280.206 206.341 280.206 206.713C280.206 207.085 279.834 207.085 279.834 207.458C280.578 208.202 280.206 208.942 280.579 209.315C280.579 210.427 281.323 210.799 281.691 211.912C281.691 212.656 282.063 213.769 282.435 214.882C283.92 220.08 286.149 225.279 287.634 230.478C287.634 231.222 288.006 231.222 288.378 230.85C289.491 230.106 290.235 230.106 291.348 230.106C292.089 230.482 292.089 230.482 292.089 229.737ZM281.319 296.949C280.575 296.204 280.575 295.464 280.206 294.72C279.834 294.72 280.206 294.347 280.206 294.347L280.579 293.975L283.176 296.573C285.033 299.17 286.89 301.772 288.375 304.369L289.119 305.854L288.747 306.226C288.375 306.598 288.375 306.598 288.002 306.598L286.89 305.113C285.777 304.001 285.033 302.516 284.292 301.399C283.176 299.918 282.063 298.434 281.319 296.949ZM291.716 215.63C292.089 214.885 292.461 214.517 292.089 214.145V210.803C291.716 209.691 291.344 208.574 290.604 207.461C289.491 205.977 288.747 204.12 287.262 203.007L286.89 202.635C286.518 201.522 285.405 200.778 284.661 200.037C284.661 199.665 284.289 199.665 283.916 200.037L282.432 203.007C282.432 203.379 282.432 203.379 282.804 203.379C283.916 203.751 284.289 204.864 285.401 205.608C285.401 205.608 285.773 205.608 285.773 205.98L286.886 207.465C287.258 207.837 287.63 207.837 287.63 208.209C288.743 210.066 289.859 211.551 290.6 213.408L291.716 215.63ZM283.176 262.042C283.548 261.298 283.548 260.558 283.548 259.813V258.701C283.548 257.956 283.92 257.216 284.292 256.844H285.405C286.518 257.956 287.634 258.701 288.747 259.441L290.232 260.554L290.604 261.298V261.67C290.604 262.042 290.232 262.415 290.232 262.783C289.487 263.527 289.119 264.64 289.119 265.753C289.119 266.125 288.747 266.497 288.375 266.865C288.375 267.237 287.63 267.237 287.262 267.237V266.865C286.149 265.753 284.665 265.38 283.548 264.268H283.176C282.804 263.896 282.804 263.523 282.804 263.155C282.804 262.787 283.176 262.415 283.176 262.042ZM285.777 169.585C286.89 172.183 287.634 174.412 289.119 176.641C289.119 177.013 289.491 177.754 289.863 178.126C290.235 178.498 290.976 179.239 291.348 178.866C292.461 178.494 291.72 177.754 291.72 177.382C292.092 177.009 292.092 176.637 291.72 176.269C291.72 175.525 291.348 174.784 291.72 174.04V173.668C291.348 173.296 291.72 172.923 291.348 172.555C291.348 171.811 291.348 171.442 290.976 171.07C290.976 170.698 290.604 170.698 290.604 170.698C289.859 170.698 289.119 170.326 288.375 171.07C288.002 171.442 287.63 171.442 287.262 171.07C286.89 170.698 286.89 170.326 286.89 169.958L288.747 168.473L289.119 168.101H288.747C288.375 168.101 288.003 167.728 287.262 167.728H286.149C286.149 167.728 285.777 167.728 285.777 167.356V166.984C286.149 166.612 286.89 166.24 287.262 166.24H289.119C289.491 166.24 289.863 166.612 289.863 166.612L291.72 168.469V168.097C292.092 166.612 291.72 165.127 292.092 163.642V163.27C292.092 162.158 292.092 162.158 291.348 162.526L286.522 164.011C285.777 164.011 285.037 164.755 284.292 164.755C283.92 165.127 283.92 165.127 283.92 165.499C283.92 165.872 284.292 166.244 284.292 166.612L285.777 169.585ZM284.661 175.897C284.661 175.897 285.033 176.269 285.405 176.269H285.777C286.522 176.269 286.522 176.269 286.149 175.525C286.149 175.153 285.777 174.78 285.405 174.412C285.405 174.04 285.405 174.04 285.033 174.04L284.661 174.412V175.897ZM285.033 179.983C285.405 180.727 285.777 181.096 286.146 181.096C286.514 181.096 286.89 181.096 287.258 180.723C287.63 180.723 288.002 180.351 288.002 179.979C288.375 179.979 288.375 179.607 288.375 179.607V179.235L287.262 177.75C286.89 177.378 286.89 177.75 286.518 177.75L286.146 178.122H286.518L287.262 179.235C287.262 179.607 287.262 179.979 286.89 180.347C286.518 180.347 286.518 180.347 286.518 179.975C286.146 179.975 286.146 179.603 285.773 179.603C285.773 179.231 285.401 179.231 285.401 179.603L285.033 179.983ZM285.033 197.804C285.033 197.804 285.033 198.177 285.405 198.549C287.262 199.661 288.747 201.518 290.232 203.003C290.232 203.003 290.232 203.375 290.604 203.747L291.716 205.604V205.232C291.716 205.232 292.089 204.86 291.716 204.86L290.232 200.034C289.487 198.177 288.747 196.692 288.375 194.835L287.262 192.237C287.262 191.865 286.89 191.865 286.89 191.865V192.237C286.89 193.35 286.518 194.466 285.777 195.951L285.033 197.804ZM287.634 241.62C288.747 241.62 289.119 241.62 289.863 241.247C290.608 241.247 290.976 241.247 291.348 240.875V240.131C290.976 239.018 290.235 237.902 290.235 236.789C290.235 236.417 289.863 236.417 289.863 236.045C289.119 235.673 288.378 234.932 287.634 235.301C286.89 235.301 286.149 235.673 285.777 235.673C285.405 236.045 285.405 236.417 285.405 236.785L286.89 240.499C286.89 240.499 286.89 240.872 287.262 241.612C287.262 241.992 287.262 241.992 287.634 241.62ZM292.089 191.865C292.089 190.38 292.461 188.896 292.089 187.411C291.716 187.039 292.089 186.298 291.716 185.926L290.232 185.182C289.859 185.182 289.86 185.182 289.487 184.809H287.258C286.886 184.809 286.886 185.182 286.886 185.182L287.63 187.411L288.743 190.008C289.856 192.606 290.972 195.207 291.713 197.804C292.085 197.06 292.085 196.32 292.085 195.575C292.457 194.831 292.085 194.091 292.085 193.346V191.865H292.089ZM288.375 272.44C288.002 274.297 288.747 275.782 289.119 277.639L291.348 282.093C291.348 282.465 291.72 282.837 291.72 282.837C292.092 283.582 291.72 283.95 291.348 284.322C290.976 284.322 290.604 284.322 290.235 283.95L289.123 281.353C288.379 279.868 288.01 278.383 287.638 276.898C287.638 276.526 287.266 276.526 287.266 276.154C286.894 275.409 286.894 274.297 286.894 273.556C286.894 272.812 286.894 272.072 287.266 271.327C287.638 270.583 288.01 269.842 288.751 269.098C289.123 268.726 289.495 268.726 290.235 268.726H291.348C292.461 268.726 292.833 269.098 293.577 269.839C294.322 270.583 294.69 271.696 294.322 273.18H293.949C293.577 273.18 293.205 272.808 293.205 272.436C292.833 272.436 292.833 272.064 292.833 272.064C292.461 270.951 292.089 270.579 290.976 270.579C289.863 270.579 289.119 270.951 288.378 271.692V272.44H288.375ZM291.716 182.953C291.716 180.723 292.089 181.096 290.232 180.355H289.859C289.487 179.983 289.487 180.355 289.487 180.355C289.487 180.727 289.115 181.099 289.115 181.468C288.743 181.468 288.371 181.84 288.371 182.212C287.999 182.584 287.999 182.584 288.371 182.584C289.484 182.956 290.6 183.328 291.34 184.069C291.713 184.069 291.713 183.697 291.713 183.697V182.953H291.716ZM292.829 253.134C292.457 252.021 292.829 250.536 292.457 249.047C292.085 248.303 292.085 247.563 292.457 246.818C292.457 246.074 292.085 245.334 291.713 244.589C291.713 244.217 291.713 243.845 291.34 243.477C290.968 243.108 290.596 243.849 290.228 243.849C289.856 243.849 289.115 244.221 288.743 244.221C288.371 244.221 288.371 244.593 288.371 244.593V245.706C289.115 248.303 290.228 250.532 290.968 252.761C291.34 254.246 291.713 255.359 292.453 256.475C292.829 255.359 292.829 254.246 292.829 253.134ZM291.716 234.568C292.089 233.455 291.344 232.711 290.232 232.711H289.487V233.455C290.232 233.827 290.972 234.199 291.716 234.94V234.568ZM303.599 150.275C303.971 149.903 303.599 149.903 303.599 149.531C303.599 147.302 303.971 145.077 303.971 142.475C303.599 141.363 302.858 140.618 301.742 141.363C301.37 141.363 301.37 141.363 300.998 141.735C300.625 141.735 300.625 142.107 300.625 142.479V142.851C300.625 143.964 300.625 144.708 300.253 145.449V146.934L299.881 147.306L299.509 146.934C299.137 146.934 299.137 146.561 299.137 146.189V142.847C298.765 141.363 299.509 140.618 300.621 140.25C301.366 139.878 301.734 139.506 302.851 139.506C303.223 139.506 303.963 139.878 304.335 140.618C304.708 141.363 305.08 142.103 305.08 142.847C304.708 144.332 305.08 145.817 305.08 146.934V151.76C304.708 152.132 305.08 152.132 305.08 152.504L306.565 153.249C306.192 153.621 306.192 153.621 305.82 153.621C305.448 153.621 305.076 153.993 305.076 153.993C304.332 153.621 303.591 153.621 302.847 153.621H301.734C300.99 153.993 300.621 153.621 299.877 152.877C299.505 152.504 299.133 151.764 299.133 151.02V150.275C299.133 149.531 299.133 149.531 298.389 149.163C298.389 149.163 298.016 148.791 298.389 148.791C298.389 148.418 298.389 148.046 298.761 148.046C299.873 147.674 300.99 148.046 301.73 148.791L302.843 150.275C303.215 150.647 303.215 151.02 303.587 150.647V150.275H303.599ZM305.828 159.56C306.2 160.304 306.2 160.673 305.456 161.417C304.343 162.53 304.343 162.902 303.227 164.759C302.854 165.131 302.854 165.131 302.482 165.131C302.11 165.131 301.738 165.131 301.738 164.759C301.366 164.387 300.994 164.015 300.994 163.646C300.622 162.534 299.881 161.789 299.137 161.417C298.765 161.045 298.765 161.045 298.765 160.673C298.392 160.301 298.392 159.928 298.765 159.928C298.765 159.556 299.137 159.184 299.509 158.816C300.621 158.444 300.622 157.703 300.994 157.331L301.738 155.846C302.11 155.846 302.11 155.474 302.482 155.846H302.854L303.227 156.218C303.599 157.703 304.711 158.447 305.456 159.188L305.828 159.56ZM302.114 152.132C302.486 152.132 302.486 151.76 302.114 151.76V151.388L301.001 150.275C301.001 150.275 300.629 149.903 300.629 150.275V150.647C300.629 151.392 301.001 152.132 301.742 152.132H302.114V152.132ZM306.2 259.445C306.2 259.073 306.2 258.701 305.828 258.701C305.456 258.701 305.083 258.328 305.083 258.328L303.599 256.472C303.227 256.099 303.227 256.099 302.854 256.099V259.069C302.854 260.554 302.482 262.039 303.227 263.155C302.854 264.268 303.599 265.012 303.971 265.753H305.083C305.456 265.753 305.456 265.753 305.828 265.38V265.008C305.828 263.896 306.2 263.151 306.2 262.039V259.445ZM306.568 255.731C306.196 254.987 306.196 254.246 305.456 253.874C305.084 253.502 303.971 253.874 303.971 254.246C303.971 254.246 304.343 254.618 304.715 254.618L305.828 256.103C305.828 256.475 306.2 256.475 306.2 256.475C306.568 256.103 306.568 256.103 306.568 255.731ZM309.91 175.156C310.282 175.901 310.282 176.641 310.282 177.754V196.32L310.654 195.947L313.252 192.978L315.109 191.865C315.109 191.493 315.481 191.121 315.481 190.753C315.853 190.38 315.109 190.38 315.109 190.38C314.737 190.008 314.737 190.008 314.737 189.636C314.365 189.264 313.992 188.892 313.624 188.892C313.252 189.264 312.88 188.892 312.511 188.892C311.767 188.52 311.399 187.779 311.027 187.035C311.027 185.922 310.654 185.178 310.654 184.065C310.654 183.321 310.654 182.953 311.027 182.58C311.771 181.836 311.771 181.096 312.139 180.723C312.139 179.611 312.884 179.239 313.624 179.239H314.368V178.866L313.996 178.494C313.252 177.75 312.884 177.009 313.624 175.897V175.525C313.996 175.153 313.996 174.78 313.624 174.412C313.252 174.04 313.624 173.299 313.624 172.555C313.624 172.183 313.624 172.183 313.996 171.811C313.996 171.811 313.996 171.439 314.368 171.439C314.741 171.066 315.853 170.694 316.597 171.066C316.97 171.066 317.342 171.439 317.71 171.439C317.71 171.811 318.082 171.811 318.082 171.439C318.454 171.439 318.454 171.439 318.827 171.066C318.827 170.694 319.199 170.694 318.827 170.322C317.714 169.95 317.342 169.209 316.97 168.093L316.225 166.608C315.481 165.496 315.113 164.751 314.368 164.379L313.256 163.266L311.399 161.037C311.027 160.293 310.654 159.925 310.286 159.925C310.286 159.553 310.286 159.553 309.914 159.553V175.156H309.91ZM318.451 190.749C318.451 191.121 318.079 191.121 318.079 191.121L316.221 192.606L313.252 195.575C313.252 195.947 312.88 195.947 312.508 196.32C311.763 196.692 311.023 196.692 310.651 197.432V203.003C310.278 203.747 310.278 204.116 310.278 204.86V205.973C310.278 205.973 310.278 206.345 310.651 206.345C311.395 206.717 311.763 207.83 312.508 208.202L315.849 212.288L318.079 214.885V212.288C318.079 211.544 318.451 210.803 318.451 210.059C318.823 208.946 318.823 208.202 318.823 207.461L320.308 202.635C321.792 199.665 323.649 196.696 325.506 193.722C325.878 193.35 326.251 192.609 326.991 192.237L328.848 190.008V189.264C327.363 188.151 326.251 186.666 325.134 185.178V184.806H324.762C324.762 185.178 324.39 185.178 324.018 185.55C322.537 187.407 320.308 188.896 318.451 190.749ZM318.823 218.227L317.71 216.742C317.338 216.37 316.966 216.37 316.966 215.998L314.368 213.028L311.027 208.574H310.654V214.517C310.654 215.261 310.654 216.002 311.767 216.002C312.139 216.002 312.139 216.374 312.511 216.746L314.741 218.975C315.485 219.72 316.597 220.088 316.97 221.204C316.97 221.204 317.342 221.204 317.342 220.832C317.714 220.46 318.086 220.088 318.086 219.72C318.451 219.344 318.823 218.599 318.823 218.227ZM320.68 248.675L319.195 251.273C319.195 251.645 319.195 252.017 318.823 252.385C319.195 252.758 319.195 253.13 319.195 253.13C319.195 253.502 318.823 254.242 318.451 254.242C317.338 254.615 316.594 253.87 316.221 253.13C315.849 252.758 316.221 252.385 316.221 252.017C317.334 252.017 317.334 250.904 317.706 250.16L318.819 248.303C318.819 248.303 319.191 247.931 318.819 247.931H318.075C318.075 247.931 317.702 247.931 317.33 248.303L315.846 249.047C315.101 249.42 314.733 249.792 314.361 249.792C313.989 250.164 313.989 250.164 313.989 250.536V251.28C313.989 251.653 313.616 252.025 313.244 251.653C312.5 251.28 311.387 251.28 311.015 250.168C310.643 250.168 310.643 249.423 311.015 249.423H311.387C312.872 249.423 313.616 248.311 314.357 247.939C315.101 247.939 315.47 247.194 315.842 247.194C316.586 246.822 316.586 246.45 316.954 245.709C316.954 244.965 317.327 243.853 316.954 242.74V239.77C317.327 239.77 316.954 239.398 317.327 239.026C317.327 238.654 317.327 238.282 316.954 238.282C316.582 237.537 316.582 237.169 316.954 236.797H317.327C318.071 237.169 319.184 237.169 319.924 237.909C319.924 238.282 319.924 238.654 319.552 239.022H319.18C318.808 239.022 318.808 239.394 318.808 239.394V244.965C318.808 244.965 318.808 245.337 319.18 245.337L320.665 244.593L321.409 243.108L322.153 241.251C322.525 240.879 322.525 240.507 322.153 240.139C321.781 240.139 321.781 239.766 321.781 239.766L322.525 239.022C323.638 239.394 324.382 239.394 324.754 240.135C325.127 240.507 325.127 240.879 324.754 241.247C324.754 241.62 324.382 241.62 324.382 241.62C324.01 241.247 323.638 241.247 323.638 241.62C323.266 243.104 322.525 244.217 321.781 245.334L320.68 248.675ZM315.109 184.065L313.252 182.953C312.88 182.953 312.508 182.953 312.508 183.325C312.508 183.697 312.135 184.069 312.135 184.437V185.182C312.508 185.554 312.508 185.926 312.508 186.294C312.508 187.039 313.252 187.407 313.992 187.407C313.992 187.407 314.365 187.779 314.365 187.407C314.737 187.407 315.477 187.035 315.477 186.294C315.477 185.554 315.477 185.182 315.849 184.809C315.853 184.437 315.853 184.065 315.109 184.065ZM322.165 184.809C320.308 182.953 318.078 181.468 315.109 180.355C314.365 180.355 313.996 180.727 313.624 181.099C313.624 181.472 313.996 181.844 313.996 181.844C314.368 181.844 315.109 182.216 315.481 182.216C316.225 182.216 316.966 182.588 317.71 182.96C318.454 182.96 318.823 183.704 318.454 184.817C318.082 185.189 318.082 185.93 318.454 186.674C318.827 186.674 318.827 187.046 319.199 187.418H319.943C320.315 186.674 320.687 186.306 321.428 185.934C321.8 185.934 321.8 185.561 322.172 185.189V184.809H322.165ZM315.481 176.269C315.109 176.641 314.737 176.641 315.109 177.382C315.109 177.754 315.109 177.754 315.481 177.754C316.225 177.754 316.966 177.382 316.966 176.641C317.338 176.641 316.966 176.269 316.966 176.269C316.966 176.269 316.594 175.897 316.594 176.269H315.481ZM315.109 173.672C315.481 173.672 315.481 174.044 315.853 174.044C316.225 174.416 316.597 174.044 316.597 173.672C316.225 173.299 316.225 172.927 315.853 172.927C315.481 172.555 315.481 172.927 315.109 173.299V173.672ZM315.853 188.523C315.853 188.896 316.225 188.896 316.597 189.268C316.597 189.64 316.97 189.64 317.71 189.268L318.082 188.896L316.97 187.411H316.597C316.597 187.783 316.225 187.783 316.225 188.155L315.853 188.523ZM320.68 177.013C320.308 176.269 319.567 176.269 319.195 176.269H318.823V177.013C319.195 177.758 319.567 178.126 320.308 177.758C320.68 177.758 320.68 177.758 321.052 177.385C321.052 177.382 321.052 177.013 320.68 177.013ZM319.195 173.672C319.195 174.044 319.567 174.416 319.939 174.416H320.311C320.684 174.416 321.056 174.044 321.424 173.672C321.424 173.299 321.052 173.299 321.052 172.927V172.555H320.68C319.935 172.555 319.567 172.927 319.195 173.299C318.823 173.299 318.823 173.672 319.195 173.672ZM328.848 192.978L328.104 193.722C327.359 194.466 326.619 195.207 326.247 196.32C325.134 197.432 324.39 198.917 323.649 200.406C322.905 201.15 322.537 202.263 322.165 203.375L321.052 207.089C320.68 207.834 320.68 208.202 320.68 208.946C320.308 209.691 320.68 210.059 320.308 210.803C319.935 211.547 319.935 211.916 319.935 212.66C319.935 213.032 319.935 213.773 320.308 214.145V214.517C320.68 214.889 320.68 214.517 320.68 214.145L324.022 207.834C325.878 203.379 328.108 199.293 330.333 195.207L332.562 190.753C333.675 188.155 335.159 185.554 336.648 182.956C336.648 182.584 336.648 182.212 336.276 182.212C335.904 182.212 335.163 182.212 334.791 181.84C334.419 181.468 334.047 181.84 334.047 182.584V184.069C334.047 184.813 333.675 185.182 333.675 185.926C333.302 187.039 332.93 188.155 332.19 189.268C331.077 190.38 330.333 191.865 328.848 192.978ZM330.333 127.996C329.961 127.996 329.589 128.368 328.848 128.368C327.363 128.74 325.878 129.112 324.394 129.853L320.68 130.965V131.337H324.394C325.138 130.965 325.879 130.965 326.623 130.965H332.194C332.566 130.593 332.938 130.593 333.678 130.593H334.423C334.795 130.593 334.795 130.593 334.795 130.221C333.675 128.74 332.19 127.996 330.333 127.996ZM328.108 232.339C328.48 232.711 328.48 233.083 328.48 233.451C328.48 233.823 328.108 234.196 327.735 234.564C327.363 234.564 326.991 234.564 326.623 234.936C325.51 235.308 324.394 236.049 323.281 236.793C323.281 237.165 322.909 237.165 322.537 237.537C322.537 237.537 321.792 237.165 321.792 236.793C321.792 236.049 321.792 235.308 321.42 234.564V231.594C321.048 230.85 321.048 230.482 321.792 230.109L325.134 228.625C325.506 228.253 325.878 227.88 325.878 227.512C326.251 227.14 326.623 227.14 326.991 227.14C327.36 227.14 328.104 227.512 328.104 228.253V232.339H328.108ZM326.251 183.697C326.623 184.441 327.363 184.809 327.735 185.182C327.735 185.554 328.108 185.554 328.108 185.182C328.852 184.437 328.852 183.697 328.48 182.953C328.48 182.208 328.852 181.84 328.48 181.468V181.096C327.735 181.84 326.995 182.953 326.251 183.325V183.697ZM339.246 228.253C340.73 224.911 342.215 221.569 344.444 218.599V217.487C344.072 216.742 344.444 216.002 344.072 215.258C343.7 214.885 344.072 214.145 343.7 213.401V211.544C343.328 211.916 342.956 212.656 342.956 213.028L339.614 220.084L336.272 227.512L332.93 234.196L329.216 241.992L326.987 246.818C326.615 247.191 326.987 247.563 327.36 247.931H327.732C328.104 248.303 328.104 248.303 328.104 247.931L329.589 246.074C329.961 245.33 330.701 244.589 331.446 243.845C332.19 243.101 332.558 242.36 332.558 241.247C332.93 240.875 332.93 240.875 332.93 240.503C333.303 238.646 334.415 237.161 335.16 235.304L339.246 228.253ZM329.965 187.407V187.779C330.709 188.151 330.709 188.151 331.077 187.779C332.19 186.294 332.934 184.809 332.562 182.953C332.562 182.208 332.934 181.468 332.562 181.096C332.19 181.096 331.818 180.723 331.077 180.723C330.705 180.723 330.333 180.723 330.333 180.351C329.961 180.351 329.961 180.351 329.961 180.723C330.333 181.468 329.961 182.208 330.333 182.953C330.333 184.437 330.705 185.55 329.961 186.666C329.592 187.039 329.592 187.407 329.965 187.407ZM330.705 178.866V179.239C331.449 179.239 331.818 179.611 332.562 179.611C333.306 179.611 333.675 179.983 334.419 179.983C335.163 179.983 335.532 180.355 336.276 180.727H336.648C337.392 180.727 337.761 180.727 337.761 180.355L338.505 179.242C339.618 177.013 340.362 174.788 341.847 172.559C342.219 172.187 341.847 171.815 341.847 171.815C341.103 171.442 340.362 171.442 339.99 171.07H339.246C339.246 171.07 338.873 171.07 338.873 171.442L336.644 173.672L334.047 175.901C333.302 176.645 332.934 177.385 332.19 177.758L330.705 178.866ZM332.562 171.442C332.934 172.555 332.562 173.672 332.562 174.412C332.562 174.412 332.562 174.784 332.934 174.784C332.934 175.156 332.934 174.784 333.306 174.784C334.051 173.672 334.791 172.927 335.904 172.187C336.276 172.187 336.276 171.815 336.276 171.442C335.904 171.07 335.904 170.33 335.904 169.585C335.904 168.841 335.904 168.101 336.276 167.356C336.276 166.612 336.648 165.499 337.02 164.387L338.133 160.673L340.362 156.587C341.475 155.842 341.475 154.73 341.475 153.245V149.535H341.103C340.73 149.907 340.358 150.279 340.358 150.647C339.246 151.76 338.501 153.617 337.389 155.102C336.644 156.959 335.532 158.816 335.16 161.045C334.415 162.53 334.047 164.015 333.675 165.872C333.302 166.984 332.93 167.728 332.93 168.469C332.934 169.585 332.562 170.698 332.562 171.442ZM342.96 242.364C343.332 241.992 343.332 241.62 342.96 241.251C342.96 241.251 342.959 240.879 342.587 240.879C342.587 240.507 342.96 240.507 342.96 240.507H343.332C343.704 240.507 344.076 240.879 344.444 240.879L345.929 242.736H346.301C346.301 243.108 345.929 243.48 345.929 243.48C345.557 243.48 345.557 243.853 345.185 243.48C345.185 243.48 344.813 243.48 344.441 243.108L344.068 243.48L342.956 245.337V245.709C342.956 246.082 343.328 246.454 343.7 246.822C344.072 247.194 344.444 247.935 344.813 247.566C345.557 247.566 345.925 247.194 346.67 247.194C347.042 246.822 347.414 246.45 347.782 246.45V246.078C347.41 245.706 347.038 245.706 347.038 245.334C347.038 244.961 347.038 244.961 347.41 244.589C347.41 244.217 347.782 244.217 348.154 244.217C349.267 244.961 350.011 245.702 350.752 246.815C350.752 247.187 350.38 247.559 350.008 247.927C350.008 247.555 350.008 247.555 349.635 247.555C349.635 247.555 349.263 247.555 348.891 247.183H348.519L345.921 249.412L341.835 252.009L339.238 253.866C338.866 253.866 338.125 254.239 337.753 254.239C337.381 254.611 337.381 254.611 337.009 254.611C337.009 254.239 336.637 254.239 336.265 254.239V253.494L337.009 252.009C338.494 249.78 339.606 247.555 340.723 245.326C341.467 244.954 341.835 244.213 342.208 243.469L342.96 242.364ZM348.158 224.911C347.414 224.166 346.673 223.054 346.301 221.941L345.557 220.456V220.084H345.185C345.185 220.456 344.813 220.456 344.813 220.828L342.215 226.027C341.102 228.997 339.986 231.598 338.501 234.196L337.389 236.425V236.797H337.761L347.414 226.772C347.786 226.772 348.158 226.399 348.158 226.027C348.53 225.283 348.53 225.283 348.158 224.911ZM341.475 161.045V159.188L341.103 158.816C340.73 159.56 340.358 160.301 340.358 161.045L338.501 164.759C338.129 165.872 337.757 166.988 337.757 168.101V169.213C337.757 169.585 338.129 169.958 338.501 169.585L340.358 168.101L342.587 166.244C342.959 166.244 342.959 166.244 342.587 165.499C342.215 164.755 341.843 164.015 341.843 162.902C341.475 162.53 341.847 161.789 341.475 161.045ZM343.332 248.675C342.96 248.303 342.959 247.931 342.587 247.931C341.843 247.187 341.843 247.187 341.103 247.931C341.103 248.303 340.73 248.675 340.358 249.416L339.614 250.901H339.986C341.099 250.156 342.215 249.416 343.328 249.044V248.675H343.332ZM344.072 167.728C344.072 167.356 343.7 166.984 343.328 166.984H342.956L342.211 167.728L341.099 169.585C341.471 169.958 342.211 170.33 342.583 170.33C342.956 170.33 342.956 170.33 342.956 169.958C343.7 169.585 343.7 168.845 344.068 168.101V167.728H344.072ZM342.587 148.418C342.959 148.791 342.587 149.531 342.96 149.903C343.704 150.275 344.072 149.159 344.444 148.791C344.816 148.791 344.816 148.791 345.189 148.418C345.933 148.046 346.301 147.306 346.673 146.561V146.189H344.076C342.591 146.561 342.591 146.561 342.591 147.674V148.418H342.587ZM348.53 147.678L347.786 148.791L345.929 150.275C345.185 151.02 344.444 151.76 343.332 151.76C342.96 151.76 342.587 152.132 342.587 152.504V152.877C342.587 153.249 342.96 153.249 343.332 153.249C343.704 152.877 344.444 152.504 345.189 152.504C345.561 152.504 346.301 152.504 346.673 152.877C347.418 153.249 348.158 153.621 348.158 154.734C348.53 155.478 348.53 155.846 348.53 156.591V158.075L348.903 158.447V158.075C348.903 157.703 349.275 157.331 349.275 156.963C350.759 155.106 351.504 153.249 352.616 151.392C352.989 150.647 352.989 150.647 352.244 150.279C351.872 150.279 351.132 149.907 350.759 149.166C350.387 148.794 349.647 148.422 349.275 147.682H348.53V147.678ZM342.587 156.218V156.963H342.96C342.96 157.707 342.587 158.075 342.96 158.82V160.304C343.332 161.049 343.332 161.417 343.332 162.161C343.332 163.274 344.076 164.391 344.444 165.503C344.816 165.875 344.816 166.247 345.189 166.247C345.561 166.247 345.189 165.875 345.561 165.503C345.933 164.391 346.305 163.274 347.046 162.161V158.447H345.933C345.189 158.82 344.448 158.447 343.704 158.075C343.332 157.703 343.332 156.218 344.076 156.218C344.82 156.218 345.561 155.474 346.305 156.218C346.677 156.218 347.049 156.218 347.049 155.846V155.102L345.565 153.989C345.192 153.989 344.82 154.361 344.452 154.361C343.708 154.361 343.339 154.734 342.967 154.734C342.587 155.102 342.959 155.846 342.587 156.218ZM351.5 221.197C350.756 220.453 350.756 219.34 350.387 218.599C350.387 218.227 350.387 217.487 350.015 217.115C350.015 216.742 350.015 216.37 349.643 216.002C349.643 214.889 349.271 213.773 349.271 213.032V205.236C349.271 204.123 349.271 203.379 349.643 202.639V202.266C349.643 201.894 349.643 201.522 349.271 201.522H348.899C348.527 201.15 348.527 201.15 348.154 201.894L346.67 204.492C346.297 205.236 345.925 205.977 345.925 206.721C345.925 207.465 345.553 208.206 345.553 209.318C345.553 209.318 345.553 210.063 345.925 210.431V211.544C345.925 213.028 345.925 214.141 346.297 215.258L347.042 217.855C347.414 218.227 347.786 218.968 347.786 219.712C348.158 220.825 348.53 221.941 349.271 223.054C349.271 223.426 349.643 223.798 350.015 224.166L351.128 223.054C351.128 223.054 351.128 222.682 351.5 222.309C351.872 221.941 351.872 221.569 351.5 221.197ZM355.214 238.278C354.842 239.022 355.214 239.763 355.214 240.507C354.842 240.879 354.842 241.251 354.47 241.251C353.725 241.623 353.357 241.996 352.613 241.623C352.241 241.251 352.241 241.251 351.868 241.251C351.124 241.996 350.011 241.251 349.271 241.996C348.899 242.368 348.527 241.996 348.527 241.623C348.527 240.879 348.527 240.511 348.899 239.766V236.053C348.899 235.68 349.271 235.308 349.643 235.308H351.872C352.616 235.308 353.357 235.308 354.47 234.564H354.842C355.586 234.192 355.586 234.564 355.954 234.936V235.68C355.954 236.053 355.954 236.425 355.582 236.425C355.214 237.165 355.582 237.909 355.214 238.278ZM374.52 188.151C374.52 187.779 374.892 187.779 374.52 187.779H367.837C367.465 188.151 366.724 187.779 365.98 188.151C365.235 188.151 364.867 188.896 364.495 189.264L361.897 190.749C361.153 191.121 360.413 191.121 360.041 191.493C358.556 192.237 357.071 192.978 355.586 193.35H352.616C352.244 193.35 351.872 193.35 351.872 193.722C351.5 194.094 351.128 194.835 351.128 195.579L349.271 199.293C349.271 199.665 349.643 199.293 349.643 199.293C350.015 199.665 350.387 199.293 350.756 199.293C351.124 199.293 351.868 199.665 352.241 199.293C352.985 198.921 353.725 199.293 354.47 198.921C354.842 198.921 355.214 199.293 355.214 198.921H357.071C357.815 198.549 358.184 198.549 358.928 198.549C359.672 197.804 360.413 198.177 361.157 197.804L364.499 196.32C366.728 195.575 368.213 194.463 369.697 193.722L371.927 191.865C372.299 191.121 373.039 190.38 373.784 189.636C373.784 189.264 374.156 189.264 374.156 189.264C374.528 188.892 374.528 188.892 374.528 188.52V188.151H374.52ZM350.387 146.193V146.565C351.132 146.937 351.872 147.678 352.616 148.422C353.729 149.166 353.729 149.166 354.473 147.678C354.846 147.306 355.218 146.934 355.218 146.565C355.218 146.565 355.218 146.193 355.59 146.193C355.218 146.193 355.218 145.821 355.218 145.821C354.473 146.193 354.105 146.193 353.361 146.193H350.387ZM354.842 218.972C354.842 218.972 355.214 218.599 354.842 218.227C354.097 217.483 353.729 216.742 353.729 215.63C353.357 214.885 352.985 213.773 353.357 212.66C352.613 211.547 352.985 210.431 352.985 209.691V206.721C352.985 205.977 352.613 205.236 352.985 204.492C353.357 203.747 352.985 202.635 353.357 201.894C353.729 201.522 353.357 201.522 353.357 201.522H352.613C352.241 201.522 351.5 201.522 351.128 201.894C350.756 202.266 351.128 202.635 351.128 203.379V206.349C351.128 208.206 350.756 210.435 351.5 212.288C351.128 213.773 351.872 214.885 352.244 216.374C352.616 216.746 352.244 217.118 352.616 217.487C352.616 217.859 352.989 218.599 352.989 218.972C352.989 219.344 352.989 219.716 353.361 220.084L354.842 218.972ZM361.897 210.431C361.525 210.059 361.525 209.687 361.525 209.318V208.574C361.153 208.202 361.153 207.461 361.153 206.717C361.153 206.345 360.781 205.973 360.781 205.232V200.406C360.781 200.034 360.781 199.661 360.037 200.034L355.951 201.146H355.206C354.834 201.146 354.462 201.146 354.462 201.518C354.09 201.518 354.462 201.891 354.462 202.263V203.375C354.462 205.232 354.834 207.089 354.834 208.946C354.834 209.318 354.462 209.691 354.834 210.059C354.834 210.431 355.206 210.803 354.834 211.172C354.834 211.916 355.579 212.284 355.206 212.656C355.206 213.401 355.579 214.141 355.951 214.885C355.951 215.63 356.323 216.37 356.323 216.742C356.323 217.115 356.695 217.115 356.695 217.115C356.695 216.742 357.067 216.742 357.067 216.742C358.924 215.258 360.037 213.401 361.522 211.916C362.27 211.172 362.27 211.172 361.897 210.431ZM358.924 153.989C360.037 153.989 360.409 152.877 361.522 152.877C361.894 152.877 362.266 152.504 362.634 152.132C362.634 151.76 363.379 151.388 363.747 151.02C364.119 151.02 364.491 151.392 364.491 151.392V153.621C364.491 154.365 364.491 155.478 364.863 156.218V157.703C364.863 157.703 364.491 157.703 364.491 158.075H364.119L360.405 161.045C360.033 161.417 359.661 161.417 359.661 161.045C359.289 161.045 359.289 160.673 358.916 160.673V158.075C358.916 156.963 358.544 156.218 358.544 155.106C358.184 154.734 358.556 153.989 358.924 153.989ZM367.465 138.025C368.209 137.28 367.837 136.912 367.465 136.168C367.092 136.168 367.465 135.796 367.837 135.796C368.949 135.423 369.694 135.796 370.434 136.908V137.28C370.062 137.653 369.69 138.025 369.322 137.653C369.322 137.28 368.949 137.653 368.577 137.653L367.465 140.622C367.465 140.994 367.092 141.366 367.092 141.735V142.107H367.465L369.694 140.622L371.178 139.509C371.551 139.509 371.551 139.137 371.551 138.397C371.923 138.025 371.923 137.653 372.663 137.653C373.776 137.653 374.52 138.397 375.261 139.509L374.889 140.254H374.516C373.404 140.254 372.659 140.626 371.919 140.998C371.175 141.37 370.806 142.111 370.062 142.111C369.69 142.483 369.318 142.855 369.318 143.223V146.193C368.946 146.565 368.946 146.937 369.318 147.678C369.69 148.418 369.69 148.422 369.318 149.535V150.279C369.318 150.651 369.318 151.023 368.573 151.023C368.201 151.023 367.829 150.651 367.461 150.279C367.089 150.279 367.089 149.907 366.716 149.535C366.344 149.535 366.716 149.163 366.716 149.163H367.089C367.461 148.791 367.461 148.418 367.461 148.05V145.453C367.461 144.708 367.833 144.34 367.461 143.968C367.089 143.968 366.348 144.34 365.976 144.34C365.976 144.34 365.604 144.712 365.604 145.084L364.491 146.569V148.426C364.863 148.798 364.119 149.17 363.747 149.17L361.518 148.058C361.146 147.685 361.518 146.945 361.89 146.945L363.002 146.201L365.232 141.746L367.465 138.025ZM374.148 191.493L373.776 191.865L372.663 193.35L368.949 196.32L366.352 197.804C365.98 197.804 365.608 198.177 365.239 198.549C364.867 198.549 364.127 198.549 363.754 198.921H363.382C363.01 198.921 363.01 199.293 363.01 199.293C363.01 200.406 362.638 200.778 362.638 201.522V206.349C363.01 207.093 363.01 207.834 363.01 208.946C363.01 208.946 363.01 209.318 363.382 209.691C363.382 210.063 363.382 210.063 363.754 209.691C365.239 207.834 366.724 205.977 368.581 204.12L371.923 201.15C372.295 200.406 373.035 199.665 372.667 198.921C373.039 198.177 373.039 197.436 373.039 197.064C373.784 195.579 373.784 194.094 374.152 192.609V191.493H374.148ZM373.408 176.269V175.525H373.035C372.291 175.525 371.178 175.897 370.806 177.009V177.382C370.434 177.754 370.062 177.382 369.694 177.382L369.322 177.009V173.668C369.322 172.923 369.322 172.555 368.949 172.555C368.949 172.183 368.577 172.183 368.577 172.183C368.205 171.439 367.465 171.811 367.092 171.439C366.72 171.439 366.348 171.811 365.98 172.183L364.867 173.668V177.009C364.495 178.122 364.495 179.239 364.495 180.351C364.495 180.723 364.495 180.723 364.867 180.723C365.611 180.723 366.352 180.723 367.096 180.351C368.209 180.351 368.953 180.351 369.694 180.723H371.178C371.551 180.723 371.923 180.351 371.923 179.979C371.923 178.866 372.295 177.75 372.667 177.009L373.408 176.269ZM373.035 171.442V169.958C373.035 169.213 373.035 168.473 372.663 167.728V167.356C372.663 166.984 372.663 166.244 372.291 165.872C372.291 165.127 372.291 164.759 371.919 164.387C371.547 162.53 371.175 161.045 370.434 159.56V159.188C370.434 158.816 370.806 158.075 371.178 158.075H371.551C372.295 157.703 373.035 157.703 374.148 156.963C374.148 156.963 374.52 156.591 374.892 156.591C376.005 156.591 376.377 155.846 377.49 155.478C378.603 155.106 379.719 154.365 380.832 153.621C381.204 153.249 381.944 153.249 382.316 152.508C382.689 152.136 383.061 152.136 383.429 152.136C383.797 152.136 384.173 152.88 384.173 152.88V156.966C384.546 158.079 384.546 159.196 385.286 160.68L386.03 163.65V166.62C386.03 166.992 385.658 166.992 385.658 167.364C384.914 167.364 384.546 167.736 384.173 167.736C383.801 167.736 383.429 167.736 383.061 168.108C381.948 168.48 381.204 169.221 379.719 169.221C378.234 170.334 376.377 171.078 374.892 172.563L374.52 172.935C374.148 172.935 373.776 172.935 373.408 172.191C373.035 172.183 373.035 171.815 373.035 171.442ZM384.546 151.02C383.801 150.647 383.061 150.275 382.316 150.275L379.719 149.163C378.606 148.791 377.49 148.418 376.377 147.678C376.005 147.306 375.633 147.678 374.892 147.678C374.892 147.678 374.52 147.678 374.52 148.05L373.776 149.535C373.404 150.279 373.032 151.02 372.291 151.392H371.919L371.547 151.02C371.547 150.647 371.919 150.275 371.919 149.535L373.404 146.565C373.776 146.193 374.148 146.193 374.516 146.193C375.629 146.193 376.373 146.193 377.114 146.565L381.568 148.794C382.681 149.166 383.425 149.539 384.166 150.279C384.538 150.279 384.91 150.279 384.91 151.023H384.546V151.02ZM381.204 184.065C380.832 183.693 380.46 183.321 380.46 182.953C380.087 182.208 379.347 182.208 378.603 182.208H377.118C376.373 182.208 376.373 182.58 376.373 182.953C376.373 183.325 376.746 183.697 376.746 183.697V187.411C376.001 188.523 376.373 189.64 376.373 190.38V191.125C376.001 191.869 376.001 192.237 376.001 192.982C376.001 193.354 375.629 193.726 375.629 194.466C375.629 195.207 375.257 195.951 374.885 196.696V197.44H375.257C375.629 196.696 376.37 195.955 377.114 195.211L380.456 191.869C380.828 191.497 381.2 191.125 381.2 190.756C380.828 188.899 380.828 187.415 380.828 185.93C380.828 185.185 381.2 184.817 381.2 184.445V184.065H381.204ZM391.229 136.908C390.857 134.679 389.744 133.194 388.259 131.709C387.887 131.337 387.515 130.965 387.147 130.965C386.403 130.965 385.662 130.593 384.918 130.593H383.061C382.316 130.965 381.576 130.965 380.832 130.965H377.862C377.49 130.965 377.49 130.965 377.49 131.337L383.061 133.935C384.918 134.307 386.402 135.047 388.259 135.792C389.372 136.164 390.116 136.904 390.857 136.904H391.229V136.908ZM402.743 168.101C402.743 167.728 402.371 167.728 402.371 167.728L400.886 166.616L398.289 165.131C397.544 165.503 396.804 164.759 395.691 164.759C395.319 164.759 395.319 164.759 394.947 165.503C394.947 166.616 394.575 167.36 393.462 168.473L389.748 171.442L388.263 172.555C388.263 172.927 388.635 172.927 388.635 172.927C389.008 172.555 389.38 172.183 389.748 172.927C390.861 172.927 391.233 173.672 392.346 174.04V174.784C392.346 174.784 392.346 175.156 391.973 175.156C391.601 175.901 391.229 175.901 390.489 175.528L389.376 174.784H389.004C389.004 175.156 388.632 175.528 388.632 175.897L390.116 177.009C390.861 177.382 390.861 178.122 390.489 178.866C390.489 179.239 390.116 179.239 390.116 179.239C389.744 179.239 389.744 178.866 389.372 178.866L387.887 177.382L387.515 177.754V178.498C387.515 179.983 387.143 180.727 386.403 181.84C385.29 182.953 384.546 183.697 383.061 184.069C382.689 184.069 382.689 184.441 382.316 184.441C381.944 184.441 381.944 184.813 382.316 184.813V187.042C382.689 187.787 382.689 188.155 382.689 188.899H383.061C383.805 187.787 384.918 187.415 385.658 186.302H384.914C384.542 186.674 384.17 186.674 383.801 186.674L383.057 185.93C383.057 185.558 383.057 185.185 383.429 185.185C383.429 185.185 383.429 184.813 383.801 184.813C384.914 184.441 385.286 183.701 386.03 182.956C386.403 182.956 386.775 182.584 387.143 182.584C387.143 182.212 387.143 182.212 387.515 182.212V182.953C387.515 182.953 387.515 183.325 387.143 183.697C387.143 184.069 386.771 184.441 386.771 185.182C386.771 184.809 387.143 184.809 387.143 184.809L391.229 180.355L396.8 174.412L397.913 173.299C397.168 172.927 396.8 173.299 396.428 173.299H396.056C394.943 172.927 394.571 172.187 394.943 171.07V170.326C394.571 170.326 394.199 169.954 394.199 169.954C394.199 169.582 393.827 169.209 394.199 169.209C394.199 168.837 394.943 168.465 395.311 168.465L396.424 169.209C397.537 169.582 398.281 170.322 398.281 171.807V172.551H398.653L399.766 171.439L399.022 170.326C398.649 169.582 397.909 168.841 397.165 168.469C396.792 168.469 396.792 168.097 396.42 168.097C396.048 167.725 396.048 167.353 396.42 167.353L397.165 166.608C398.277 166.98 399.394 167.353 400.134 168.465L401.247 169.578C401.247 169.95 401.247 169.95 401.619 169.95C401.619 169.206 402.363 168.837 402.732 168.465V168.101H402.743ZM385.662 151.02C386.034 151.02 386.406 151.02 386.406 151.392C386.03 151.392 385.662 151.76 385.662 151.02ZM403.111 308.459L406.453 302.516V301.772C406.081 301.772 406.081 301.399 406.081 301.399C405.709 301.027 405.709 300.287 406.081 300.287C406.081 299.915 406.825 299.915 407.194 300.287L409.051 301.772V302.144C409.423 302.516 409.423 302.516 409.423 302.888C409.051 303.26 408.678 303.26 408.31 303.26H407.938C407.938 302.888 407.566 303.26 407.566 303.26C407.194 304.004 406.453 305.117 406.453 305.858C406.081 305.858 406.453 306.602 406.453 306.602L407.938 307.715C408.31 308.087 408.682 308.087 408.682 308.087L410.911 306.602C411.284 306.602 410.911 306.23 410.911 306.23C410.539 305.858 410.539 305.485 410.539 304.745L410.911 304.373C411.656 304.373 412.024 304.745 412.396 304.745L413.509 306.23C413.881 306.602 413.881 306.974 413.509 307.342C413.509 307.715 413.137 307.715 412.765 307.715C412.392 307.342 412.02 307.342 411.652 307.715C410.539 308.827 409.054 309.944 407.566 310.684L401.623 315.139H401.251C400.879 315.139 400.506 314.766 400.506 314.766C400.506 314.022 400.134 313.654 400.506 312.909L401.251 311.797L403.111 308.459ZM421.309 234.568C421.309 235.68 421.309 236.797 421.681 237.909V242.736C421.681 243.108 421.309 243.48 420.937 243.48H420.192C419.08 243.48 418.335 243.48 417.963 243.108C417.223 243.108 416.106 243.108 415.366 243.48H414.994L407.938 244.965L405.34 246.078C404.596 246.45 404.228 246.078 403.856 245.706C403.484 245.706 403.484 245.334 403.111 245.334V244.589L403.856 243.104C404.228 242.36 403.856 241.62 404.228 240.875C404.972 239.763 404.972 238.646 404.972 237.906C405.344 237.534 405.344 236.793 405.344 236.421C405.716 235.677 405.716 234.936 405.716 234.192C405.716 232.707 405.344 231.594 405.344 230.106V229.361C405.344 228.989 404.972 228.617 405.344 228.249C405.716 227.877 406.089 227.504 406.457 227.504H409.427C410.171 227.504 411.284 227.877 412.024 227.504C412.768 227.132 413.509 227.504 414.253 227.132C415.366 226.76 416.482 226.76 417.223 226.76L423.162 224.531C423.534 224.531 423.906 224.531 423.906 224.903V226.016C423.162 226.76 422.794 227.501 422.794 228.613C422.049 229.726 422.049 231.211 421.309 232.699V234.568V234.568ZM414.253 175.897C414.253 176.269 414.253 177.009 414.625 177.382V178.126C414.625 178.498 413.881 178.866 413.881 178.866H412.768C411.656 178.866 410.539 179.239 409.427 179.611C409.054 179.611 408.682 179.611 408.314 179.239C407.942 178.866 407.57 178.494 407.942 178.126C408.314 177.382 407.942 176.641 408.314 175.897V173.668C408.314 173.296 408.686 172.923 409.058 172.923H410.171C411.284 172.923 412.4 172.923 413.513 172.179H414.257C414.629 172.179 415.001 172.179 415.001 172.923C415.001 172.923 415.001 173.296 414.629 173.296C414.625 174.04 414.253 175.156 414.253 175.897ZM419.452 296.949C419.08 297.693 419.08 298.434 419.08 299.178V300.29C419.08 300.663 418.708 301.035 418.335 301.035H417.963C416.106 301.035 414.621 301.407 413.137 302.147H412.765C412.392 302.52 411.652 302.147 411.652 301.403V300.29C412.024 299.918 412.024 299.546 412.024 299.178C412.024 298.434 412.396 298.065 412.396 297.321V295.464C412.396 295.092 412.396 295.092 412.768 295.092C413.881 295.092 414.997 294.72 416.11 294.72C416.854 294.72 417.223 294.347 417.595 294.347C417.967 293.975 418.339 293.975 418.708 293.975C419.08 293.975 419.08 293.975 419.08 294.347C419.452 294.72 419.824 295.46 419.452 295.832V296.949ZM423.906 166.616L421.677 170.33L420.565 171.815C420.192 172.187 420.565 172.559 420.565 172.927V173.299C420.565 173.672 420.565 174.044 419.82 174.044C419.448 173.672 419.448 173.672 419.076 173.672C418.704 173.299 418.332 172.927 417.963 172.927L417.223 171.815C417.223 171.442 417.595 171.07 417.963 171.07C419.076 171.07 419.448 170.326 419.82 169.585C420.192 169.213 420.192 169.213 419.82 168.473L419.448 168.101L417.963 166.988L416.106 168.101V168.845C416.478 169.217 416.106 169.589 415.734 169.958H414.622L413.137 168.101V167.728C413.137 167.356 413.137 166.984 413.509 166.984C414.253 166.984 414.994 166.984 415.366 166.24L419.82 163.27C420.933 162.158 422.418 161.413 423.906 160.301C423.906 160.301 424.278 160.301 424.651 159.928C425.395 159.556 426.135 159.928 426.508 160.673C426.88 161.045 426.88 161.045 426.88 161.417C426.88 161.789 426.508 162.161 426.508 162.53C425.391 163.642 424.651 165.131 423.906 166.616ZM421.677 166.616C422.421 165.503 422.79 164.387 423.906 163.274H423.534C422.422 164.018 421.305 164.759 420.192 165.131C419.82 165.503 420.192 165.503 420.192 165.875C420.192 166.247 420.937 166.62 421.305 166.988H421.677V166.616V166.616ZM455.471 172.183C455.099 170.326 453.614 168.097 451.757 166.984C450.272 166.24 448.787 165.127 447.302 164.755L442.848 162.526H442.476V162.154L442.104 162.526H442.476C442.476 162.898 442.848 162.898 443.22 163.27L445.077 164.755C445.449 165.499 446.19 165.868 446.934 166.612L450.276 169.209C451.761 170.694 453.246 171.807 454.73 172.923C454.73 173.296 454.73 173.296 455.103 173.296C455.103 173.668 455.475 173.668 455.475 173.296V172.183H455.471ZM500.027 220.084C500.027 220.828 499.654 221.197 499.654 221.941C499.654 222.313 499.282 223.054 499.282 223.426L498.17 224.911C497.798 226.023 497.057 226.768 495.94 227.88L493.711 230.109C493.339 231.222 492.599 231.594 491.482 232.707L488.513 236.421L484.427 240.507C482.57 242.736 480.34 244.593 478.856 246.818C477.371 248.303 475.514 249.788 474.029 251.645L471.059 254.987L467.346 259.073L464.748 261.302L462.891 263.531C461.778 265.388 459.922 266.501 458.065 267.617C457.692 267.989 457.32 268.361 456.58 268.361C456.58 268.734 456.208 268.734 456.208 268.734V267.989L458.065 265.76L462.151 261.306C462.151 260.934 462.151 260.934 462.523 260.561L466.977 255.735L469.947 252.393L474.401 247.566C475.886 245.709 478.115 243.853 479.972 241.623C481.457 240.139 482.57 238.282 484.427 236.797C485.539 236.053 486.284 234.94 487.024 234.199L492.967 227.888L495.196 226.031L496.309 224.546C497.053 223.802 497.794 222.689 497.794 221.577C498.166 221.577 498.166 221.204 498.166 221.204V219.72C498.166 219.347 498.166 218.607 497.794 218.235L497.049 215.265L494.82 212.296L491.478 208.954L488.881 206.725L485.539 203.755L482.197 201.158L474.401 193.361L472.544 191.877C472.544 191.877 472.544 191.504 472.916 191.504V191.132C473.289 191.132 473.289 191.504 473.661 191.504L477.375 193.734C479.232 194.846 480.716 196.331 482.201 197.447C483.686 199.304 485.543 200.417 487.4 201.902L490.37 204.872L495.568 209.698L498.538 213.412C498.91 214.156 499.282 215.269 499.282 216.009C499.282 216.382 499.282 217.122 499.654 217.494C499.654 218.239 499.654 218.979 500.027 219.723V220.084ZM471.435 234.196C471.808 233.083 471.808 231.966 471.808 230.854V229.741L472.18 229.369H474.037C474.781 229.741 475.894 229.369 476.634 228.997C477.006 228.997 477.379 228.625 477.747 228.625C478.119 228.625 478.86 229.369 478.491 229.737C478.119 230.85 478.491 232.335 478.491 233.451V234.564C478.491 235.308 478.119 235.677 477.747 235.677C476.634 235.304 475.89 235.677 475.149 236.049C474.037 236.049 473.292 236.049 472.552 236.421C472.552 236.793 472.18 236.421 471.808 236.421L471.063 235.677C470.691 235.677 470.691 235.304 471.063 235.304C471.063 234.936 471.063 234.568 471.435 234.196ZM484.43 228.253C484.058 228.625 483.686 228.997 484.058 229.365V229.737C484.058 230.482 484.058 230.482 483.314 230.482H482.946L481.089 228.625C480.716 228.625 480.716 228.253 480.716 228.253L481.089 227.508H481.833C482.205 227.508 482.577 227.508 482.577 227.136L484.062 225.279L482.205 223.422C481.461 222.678 481.461 222.678 480.72 223.422C479.976 223.794 479.608 224.166 479.235 224.166C479.235 224.539 478.863 224.539 479.235 224.911C479.235 225.283 479.235 225.283 479.608 225.655C479.608 226.027 479.235 226.396 479.235 226.396C478.863 226.768 478.491 226.396 478.491 226.396C477.747 226.023 477.379 226.023 477.006 225.283L475.894 224.17C475.894 223.798 475.894 223.058 476.638 223.058H477.382C477.382 223.43 477.754 223.43 478.127 223.058C480.356 221.201 482.953 219.716 485.554 217.859C486.299 217.115 487.411 216.746 488.524 216.002C488.896 215.63 489.265 215.63 490.009 216.374C490.009 216.374 490.009 216.746 490.381 216.746V217.859L487.784 222.313C487.411 222.685 487.039 223.058 487.039 223.426C486.287 225.283 485.175 226.768 484.43 228.253Z" fill="url(#paint0_linear_812_47)"/>
<defs>
<linearGradient id="paint0_linear_812_47" x1="200" y1="125.127" x2="500" y2="324.494" gradientUnits="userSpaceOnUse">
<stop stop-color="#CD8258"/>
<stop offset="1" stop-color="#74453A"/>
</linearGradient>
</defs>
</svg>
