<svg width="790" height="790" viewBox="0 0 790 790" fill="none" xmlns="http://www.w3.org/2000/svg">
<path d="M676.22 338.46C675.24 345.3 671.33 350.19 665.46 355.08L655.68 360.95L643.95 365.84C641.02 365.84 638.08 366.82 636.13 366.82C633.2 367.8 630.26 368.78 626.35 368.78C625.37 369.76 624.39 369.76 622.44 369.76C619.51 370.74 617.55 369.76 614.62 370.74H607.78C604.85 370.74 601.91 371.72 598.98 371.72C596.05 372.7 593.11 372.7 590.18 372.7C587.25 373.68 583.34 372.7 579.42 373.68C576.49 373.68 573.55 373.68 569.64 374.66H564.75C562.79 374.66 559.86 374.66 557.91 373.68H536.4C535.42 372.7 533.47 373.68 533.47 374.66C533.47 375.64 532.49 375.64 532.49 375.64L526.62 381.51C524.66 382.49 523.69 383.47 521.73 383.47C521.73 384.45 521.73 384.45 520.75 384.45C519.77 383.47 518.79 383.47 518.79 384.45H513.9L512.92 385.43L510.96 388.36C509 390.32 508.03 391.29 505.09 391.29C503.13 392.27 501.18 391.29 500.2 390.31C498.24 389.33 497.27 388.35 497.27 386.4C497.27 384.45 497.27 382.49 498.25 381.51C498.25 380.53 498.25 379.55 497.27 380.53C496.29 380.53 494.34 380.53 493.36 381.51V386.4L496.29 395.2V398.13C496.29 401.06 497.27 403.02 497.27 405.95L499.23 412.79C499.23 413.77 500.21 414.75 500.21 416.7L503.14 425.5C504.12 426.48 504.12 426.48 505.1 426.48C506.08 425.5 507.06 425.5 507.06 424.52C508.04 422.56 508.04 420.61 508.04 418.65C508.04 415.72 508.04 412.78 507.06 409.85C507.06 406.92 507.06 403.98 508.04 401.05C508.04 400.07 509.02 399.09 509.02 398.12C510 396.16 510.98 394.21 512.93 393.23C512.93 392.25 513.91 392.25 514.89 392.25C515.87 393.23 515.87 393.23 515.87 394.21V405.94C515.87 408.87 515.87 412.78 516.85 415.72C516.85 417.68 516.85 418.65 515.87 420.61C514.89 421.59 514.89 422.57 514.89 423.54C514.89 426.47 513.91 428.43 512.93 431.36C511.95 433.32 510.97 436.25 509.02 438.2C508.04 438.2 508.04 439.18 507.06 441.13L504.13 452.86V456.77C504.13 458.73 504.13 459.7 503.15 460.68V464.59C503.15 465.57 503.15 467.52 502.17 468.5C501.19 471.43 499.24 473.39 497.28 476.32V479.25C497.28 481.21 498.26 483.16 498.26 485.12V490.01C498.26 492.94 497.28 494.9 496.3 496.85L488.48 503.69C488.48 504.67 487.5 505.65 487.5 505.65C487.5 507.61 486.52 508.58 485.54 509.56C484.56 512.49 482.61 515.43 480.65 518.36L478.69 521.29C476.73 522.27 476.73 523.25 476.73 525.2C476.73 529.11 474.77 534 472.82 537.91C471.84 540.84 469.89 543.78 467.93 545.73L462.06 551.6L460.1 554.53C460.1 556.49 458.14 557.46 457.17 556.49H454.24V558.45C455.22 560.41 455.22 563.34 454.24 565.29C454.24 568.22 450.33 568.22 449.35 566.27C449.35 565.29 448.37 565.29 448.37 565.29C448.37 565.29 448.37 564.31 447.39 564.31C446.41 564.31 446.41 565.29 446.41 566.27C445.43 567.25 445.43 567.25 445.43 568.23C444.45 569.21 443.47 570.19 441.52 570.19C440.54 570.19 439.56 570.19 438.59 569.21C438.59 568.23 438.59 568.23 437.61 567.25H436.63L435.65 568.23C435.65 570.19 434.67 572.14 434.67 574.1C434.67 576.06 433.69 578.01 432.71 580.94V584.85C432.71 586.81 432.71 589.74 431.73 591.69V601.47C430.75 605.38 429.77 610.27 426.84 613.2C424.88 617.11 421.95 620.04 419.02 622.98L402.4 639.6C400.44 642.53 396.53 645.47 393.6 647.42L383.82 654.26L372.09 661.1L364.27 666.97C358.4 672.84 353.51 678.7 349.6 685.55L346.67 692.39L343.74 696.3C342.76 697.28 340.81 698.26 338.85 697.28C334.94 695.32 332.98 693.37 331.03 689.46C329.07 685.55 328.1 681.64 327.12 677.73V672.84C326.14 669.91 326.14 666 326.14 663.06C326.14 660.13 326.14 657.19 325.16 654.26C324.18 652.3 324.18 649.37 324.18 647.42C324.18 646.44 324.18 646.44 323.2 645.46C323.2 644.48 323.2 644.48 322.22 644.48L311.46 634.7L305.59 625.9C304.61 623.94 304.61 622.97 304.61 621.01C304.61 618.08 303.63 615.14 302.65 612.21L298.74 599.5L293.85 584.83C291.89 581.9 290.92 578.96 289.94 576.03C287.01 571.14 284.07 566.25 280.16 561.36L274.29 551.58L270.38 545.71C267.45 542.78 265.49 538.87 263.54 535.93C261.58 533.97 260.61 532.02 258.65 531.04C255.72 528.11 252.78 527.13 249.85 526.15L242.03 520.28C238.12 517.35 235.19 514.41 233.23 509.52C232.25 507.56 231.27 505.61 231.27 502.68C230.29 499.75 229.31 496.81 227.36 493.88L225.4 489.97L218.56 479.21L215.63 471.39L212.7 465.52C212.7 464.54 211.72 462.59 210.74 460.63C210.74 459.65 210.74 459.65 209.76 458.67L206.83 452.8C205.85 449.87 205.85 447.91 206.83 446.93V437.15C206.83 434.22 207.81 432.26 208.79 429.33C210.75 427.37 211.72 425.42 212.7 423.46C213.68 421.5 215.63 419.55 215.63 416.62V415.64C213.67 412.71 213.67 409.77 214.65 406.84L217.58 400.97C218.56 397.06 221.49 394.13 226.38 394.13C227.36 394.13 227.36 394.13 228.34 393.15C229.32 393.15 229.32 393.15 230.3 392.17C230.3 390.21 231.28 387.28 232.26 385.33L234.22 376.53C234.22 375.55 234.22 375.55 233.24 375.55C228.35 375.55 224.44 374.57 220.53 373.59C217.6 373.59 215.64 372.61 213.69 371.63C209.78 370.65 206.85 368.7 203.91 367.72C200.98 365.76 198.04 363.81 195.11 362.83L185.33 356.96L163.82 343.27L156.98 338.38C152.09 334.47 147.2 331.54 143.29 327.62L138.4 324.69C135.47 320.78 132.53 317.85 128.62 314.91C125.69 311.98 122.75 308.07 120.8 304.15L112.98 288.5C112.98 285.57 112 283.61 112 280.68C112 278.72 112 274.81 112.98 272.86C112.98 269.93 113.96 266.99 114.94 264.06C117.87 257.22 120.81 251.35 124.72 245.48L130.59 237.66C132.55 235.7 134.5 232.77 137.43 230.82C139.39 228.86 141.34 225.93 144.27 223.98C146.23 222.02 150.14 220.07 153.07 218.11C156.98 215.18 159.91 213.22 163.83 212.24C166.76 209.31 170.67 207.35 174.59 206.37C178.5 203.44 182.41 201.48 187.3 200.5L200.01 195.61C202.94 194.63 206.85 193.65 210.77 191.7C217.61 190.72 223.48 188.77 230.33 186.81L240.11 184.85C242.07 184.85 245 183.87 247.93 183.87C250.86 182.89 254.77 181.91 257.71 181.91H261.62L262.6 180.93C263.58 179.95 264.56 178.97 265.53 178.97C268.46 175.06 273.35 171.15 275.31 167.24L279.22 159.42C280.2 157.46 281.18 154.53 283.13 152.58C285.09 148.67 286.06 144.76 287.04 139.87L292.91 128.14C295.84 125.21 297.8 122.27 301.71 120.32C305.62 117.39 309.53 115.43 314.42 114.45H316.38V115.43C315.4 115.43 315.4 115.43 314.42 116.41L302.69 127.17C300.73 129.13 298.78 133.04 297.8 135.97L291.93 155.53C289.97 157.49 289 160.42 288.02 163.35C287.04 165.31 285.09 167.26 284.11 170.19C282.15 173.12 280.2 175.08 277.27 177.03L273.36 179.96C273.36 179.96 273.36 180.94 272.38 180.94H274.34C275.32 180.94 275.32 179.96 275.32 179.96H281.19C285.1 179.96 289.01 178.98 291.95 179.96H313.46C317.37 180.94 320.3 180.94 324.22 180.94C327.15 181.92 330.09 181.92 334 181.92C335.96 181.92 337.91 181.92 339.87 182.9H345.74L357.47 184.86L365.29 186.82C368.22 186.82 371.16 187.8 374.09 187.8C376.05 188.78 378 188.78 379.96 188.78L388.76 191.71C395.6 192.69 401.47 194.64 407.34 196.6L422.98 200.51L429.82 203.44L430.8 204.42C432.76 203.44 435.69 203.44 437.64 201.49L439.6 199.53C442.53 197.57 445.47 196.6 448.4 195.62L459.16 193.66H464.05C466.98 192.68 469.92 190.73 472.85 188.77V187.79C473.83 187.79 473.83 187.79 473.83 188.77C473.83 189.75 474.81 189.75 473.83 190.73L466.99 197.57C465.03 198.55 463.08 199.53 461.12 199.53L452.32 202.46H449.39L442.55 205.39L440.59 207.35H439.61C439.61 207.35 439.61 208.33 440.59 208.33C444.5 209.31 448.41 211.26 453.3 212.24C453.3 213.22 454.28 213.22 454.28 212.24C456.24 212.24 458.19 211.26 460.15 210.28L469.93 205.39H470.91C471.89 205.39 472.87 206.37 472.87 207.35C471.89 209.31 470.91 211.26 468.96 212.24L463.09 216.15C462.11 217.13 462.11 217.13 463.09 217.13C466.02 218.11 468.96 220.06 471.89 222.02L479.71 224.95L491.44 229.84L503.17 235.71C507.08 237.67 510.99 239.62 514.9 242.55L529.57 249.39L541.3 255.26L553.03 262.1L563.79 267.97C572.59 273.84 582.37 278.73 592.15 283.62C595.08 284.6 598.02 287.53 600.95 289.49C604.86 291.45 607.79 293.4 611.71 294.38L620.51 298.29L638.11 307.09C642.02 309.05 645.93 311 649.84 313.93L657.66 316.86C661.57 318.82 666.46 319.79 671.35 320.77H673.31C677.22 321.75 678.2 324.68 678.2 326.64C678.17 330.63 677.2 334.54 676.22 338.46ZM669.37 327.7L658.61 325.74C655.68 324.76 651.77 323.78 648.83 321.83C638.07 316.94 628.3 311.07 617.54 307.16L604.83 301.29C600.92 299.33 596.03 297.38 592.12 294.45L584.3 289.56C577.46 286.63 569.63 282.72 563.77 278.8C558.88 275.87 553.99 273.91 550.08 270.98L533.46 262.18L521.73 257.29C515.86 254.36 510 251.42 505.11 247.51L493.38 241.64C489.47 239.68 484.58 237.73 480.67 236.75C474.8 233.82 469.91 230.88 464.05 228.93C456.23 225.02 448.41 221.11 440.58 218.17L422 211.33C416.13 208.4 411.24 206.44 405.38 205.46L391.69 202.53C386.8 200.57 381.91 199.6 377.02 198.62C373.11 198.62 369.2 197.64 365.29 196.66C361.38 196.66 358.45 195.68 354.53 194.7L340.84 192.74C336.93 192.74 333.02 192.74 328.13 191.76H320.31C319.33 190.78 318.35 191.76 317.38 190.78H306.62C303.69 189.8 299.78 189.8 296.84 189.8C289.02 189.8 281.2 189.8 273.37 190.78C270.44 190.78 266.53 190.78 263.59 191.76H258.7C254.79 191.76 251.86 192.74 248.92 192.74L236.21 195.67L222.52 198.6L211.76 201.53C208.83 202.51 204.92 203.49 201.98 205.44C198.07 206.42 194.16 207.4 190.25 209.35L179.49 213.26L167.76 219.13C164.83 222.06 160.92 224.02 157 225.97C153.09 228.9 148.2 231.84 144.29 235.75L138.42 242.59C135.49 244.55 133.53 247.48 131.58 250.41C128.65 254.32 126.69 259.21 124.74 264.1C122.78 267.03 121.81 270.94 120.83 274.86C120.83 278.77 120.83 283.66 121.81 287.57C123.77 292.46 125.72 297.35 128.65 302.24C129.63 305.17 131.58 307.13 133.54 309.08C135.5 310.06 137.45 312.01 139.41 313.97L147.23 320.81C149.19 322.77 151.14 324.72 153.1 325.7L166.79 335.48L183.41 345.26L191.23 349.17C195.14 352.1 199.05 354.06 202.96 356.01C206.87 358.94 211.76 360.9 215.67 362.85C216.65 362.85 217.63 363.83 218.6 363.83C224.47 364.81 229.36 367.74 235.22 369.7C235.22 367.74 235.22 366.77 236.2 364.81C236.2 362.85 235.22 360.9 236.2 358.94C236.2 357.96 235.22 357.96 235.22 357.96L230.33 356L223.49 353.07L213.71 349.16C209.8 346.23 206.87 344.27 202.95 340.36L196.11 332.54C194.15 331.56 193.18 329.61 192.2 327.65V326.67H193.18C194.16 326.67 195.14 326.67 195.14 327.65L201.98 333.52H202.96V332.54C202.96 329.61 202.96 325.7 203.94 321.78C203.94 320.8 203.94 317.87 204.92 316.89C205.9 312.98 207.85 309.07 209.81 305.16L211.77 302.23C212.75 301.25 212.75 300.27 213.73 300.27C213.73 299.29 214.71 299.29 214.71 300.27L215.69 301.25H214.71L211.78 312.01C209.82 317.88 207.87 324.72 206.89 330.59V335.48C206.89 336.46 206.89 337.44 207.87 337.44C207.87 338.42 208.85 338.42 208.85 338.42C209.83 339.4 209.83 339.4 209.83 338.42C209.83 335.49 209.83 333.53 210.81 330.6V325.71C211.79 322.78 212.77 318.87 214.72 315.93C214.72 314.95 215.7 314.95 215.7 314.95H216.68C216.68 315.93 216.68 317.88 215.7 318.86C214.72 321.79 214.72 324.73 214.72 327.66C213.74 331.57 214.72 334.5 213.74 338.42C213.74 341.35 214.72 342.33 216.67 343.31H217.65V333.53C218.63 331.57 218.63 329.62 218.63 327.66C219.61 321.79 222.54 315.93 224.5 310.06C227.43 304.19 230.37 299.3 234.28 294.42C235.26 292.46 236.24 291.49 238.19 290.51V291.49L236.23 294.42C233.3 301.26 229.39 308.11 227.43 314.95C225.47 321.79 224.5 327.66 223.52 333.53C222.54 336.46 222.54 339.4 222.54 343.31C222.54 345.27 222.54 345.27 224.5 346.24C225.48 346.24 225.48 346.24 225.48 345.26C224.5 344.28 224.5 342.33 225.48 340.37L227.44 329.61C227.44 327.65 227.44 325.7 228.42 323.74C229.4 320.81 230.38 316.9 232.33 312.98C232.33 311.02 233.31 310.05 234.29 308.09L240.16 298.31C242.12 294.4 244.07 291.47 247 289.51C248.96 287.55 250.91 284.62 253.84 282.67C253.84 282.67 254.82 281.69 254.82 282.67V284.63L251.89 288.54L243.09 301.25V303.21L244.07 302.23C247 299.3 248.96 296.36 251.89 295.39C252.87 295.39 252.87 294.41 252.87 294.41L255.8 289.52L259.71 283.65L264.6 277.78V276.8H262.64C257.75 277.78 251.88 279.73 247 281.69C243.09 282.67 239.18 283.65 236.24 285.6C234.28 286.58 232.33 287.56 230.37 287.56C226.46 289.52 222.55 290.49 218.64 291.47L210.82 295.38C209.84 295.38 208.86 296.36 207.89 296.36C203 299.29 198.11 302.23 193.22 304.18L189.31 309.07L186.38 313.96V320.8C186.38 321.78 185.4 322.76 185.4 324.71H184.42C183.44 323.73 182.46 323.73 182.46 322.75L180.5 316.88C180.5 314.92 180.5 313.95 181.48 311.99C182.46 309.06 184.41 305.15 187.35 303.19C189.31 300.26 192.24 298.3 194.19 296.35L198.1 293.42L208.86 286.58L217.66 281.69L224.5 278.76C230.37 275.83 236.23 273.87 242.1 271.92C246.01 270.94 249.92 269.96 253.83 268.01C257.74 266.05 260.67 265.08 264.59 264.1C267.52 264.1 270.46 263.12 272.41 263.12C275.34 262.14 277.3 262.14 280.23 262.14C283.16 261.16 286.1 261.16 289.03 261.16C291.96 260.18 295.87 260.18 298.81 260.18H305.65C307.61 259.2 309.56 259.2 311.52 259.2H320.32C326.19 258.22 331.08 258.22 336.94 259.2C339.87 260.18 342.81 260.18 345.74 260.18H361.38C364.31 261.16 366.27 261.16 369.2 261.16C372.13 261.16 375.07 261.16 378 262.14H382.89C384.85 262.14 385.82 263.12 387.78 263.12H392.67C394.63 264.1 397.56 264.1 399.51 264.1C401.47 264.1 403.42 264.1 405.38 265.08L417.11 267.04C419.07 268.02 421.02 268.02 422.98 268.02C425.91 268.02 428.85 269 431.78 269.98L439.6 272.91C441.56 272.91 441.56 273.89 442.53 274.87H430.8C428.84 273.89 425.91 273.89 423.96 273.89H419.07C417.11 273.89 415.16 272.91 412.23 272.91C411.25 272.91 410.27 272.91 408.32 271.93C408.32 271.93 407.34 271.93 407.34 272.91C407.34 276.82 406.36 279.75 403.43 282.69V283.67C405.39 283.67 406.36 281.71 407.34 280.74C407.34 279.76 408.32 278.78 409.3 278.78C409.3 277.8 410.28 276.82 411.26 277.8C411.26 277.8 411.26 278.78 412.24 278.78C412.24 279.76 411.26 280.74 411.26 281.71C410.28 285.62 408.33 287.58 405.39 289.53C404.41 289.53 403.43 290.51 402.46 290.51C400.5 292.47 398.55 293.44 396.59 294.42H395.61C393.65 296.38 391.7 298.33 388.77 299.31C386.81 301.27 384.86 303.22 382.9 303.22C381.92 304.2 380.94 304.2 379.97 304.2C379 304.2 378.99 304.2 378.99 303.22L380.95 300.29C382.91 299.31 382.91 297.36 383.88 296.38V295.4C381.92 296.38 380.95 297.36 378.99 297.36C376.06 298.34 373.12 299.32 370.19 299.32C369.21 299.32 368.23 300.3 367.26 300.3C366.28 300.3 365.3 301.28 365.3 301.28L355.52 303.24H343.79C340.86 305.2 337.92 307.15 334.99 308.13C333.03 309.11 330.1 310.09 328.15 310.09C324.24 312.05 320.33 312.05 315.44 313.02C311.53 313.02 307.62 313.02 303.71 311.06L309.58 315.95C312.51 315.95 315.45 316.93 318.38 316.93H324.25C326.21 316.93 328.16 316.93 329.14 315.95C334.03 314.97 336.96 313.02 340.87 310.08C341.85 310.08 341.85 309.1 342.83 309.1C345.76 307.14 349.67 307.14 352.61 307.14C354.57 306.16 357.5 307.14 359.45 306.16H364.34C366.3 305.18 369.23 305.18 370.21 303.23C371.19 303.23 372.17 302.25 373.14 303.23C374.12 303.23 374.12 303.23 374.12 304.21L372.16 306.17C369.23 309.1 366.29 311.06 363.36 313.01L357.49 314.97H349.67C347.71 314.97 345.76 315.95 343.8 316.93C338.91 319.86 334.02 322.8 328.16 324.75C325.23 325.73 321.32 326.71 317.4 326.71H310.56C309.58 325.73 308.6 325.73 307.63 325.73H306.65V326.71C307.63 326.71 307.63 327.69 308.61 327.69C310.57 327.69 312.52 328.67 314.48 328.67C319.37 328.67 324.26 329.65 329.15 327.69C332.08 326.71 335.02 326.71 337.95 324.76L341.86 321.83C342.84 320.85 343.82 320.85 344.79 320.85C344.79 320.85 345.77 321.83 345.77 322.81L335.99 332.59C333.06 335.52 330.12 336.5 326.21 337.48C323.28 338.46 321.32 339.44 317.41 339.44C314.48 339.44 310.57 338.46 307.63 337.48C305.67 337.48 303.72 336.5 302.74 335.52C299.81 333.56 297.85 329.65 295.9 326.72L292.97 321.83H291.99C290.03 317.92 287.1 314.99 283.19 313.03L277.32 308.14L273.41 305.21L268.52 302.28C267.54 301.3 265.59 301.3 264.61 302.28C262.65 303.26 259.72 303.26 257.77 305.21L251.9 310.1C249.94 311.08 247.99 313.03 247.01 315.97C245.05 320.86 243.1 324.77 243.1 329.66C242.12 331.62 243.1 332.59 244.08 334.55C245.06 338.46 245.06 341.39 245.06 345.31V351.18C246.04 352.16 246.04 355.09 246.04 357.05C247.02 358.03 246.04 359.01 247.02 360.96C247.02 361.94 247.02 362.92 248 363.89L250.93 369.76L253.86 374.65C254.84 375.63 254.84 376.61 254.84 377.58C255.82 379.54 256.8 382.47 256.8 384.42C256.8 386.37 256.8 387.35 257.78 388.33C257.78 391.26 259.74 392.24 260.71 394.2C261.69 396.16 262.67 397.13 264.62 397.13L267.55 400.06L274.39 402.99C277.32 404.95 280.26 405.92 282.21 408.86C283.19 409.84 283.19 409.84 284.17 409.84H285.15C288.08 408.86 290.04 406.91 291.02 403.97L292.98 400.06C293.96 398.1 294.94 396.15 296.89 394.19C296.89 393.21 297.87 393.21 297.87 394.19C297.87 395.17 298.85 395.17 298.85 396.15C299.83 398.11 300.81 400.06 299.83 402.02V403H300.81L301.79 402.02C302.77 401.04 304.72 400.06 305.7 400.06L310.59 397.13C310.59 396.15 311.57 395.17 312.55 394.2C313.53 394.2 313.53 394.2 313.53 395.18V396.16C312.55 400.07 310.6 403 306.69 404.96C303.76 406.92 301.8 408.87 299.85 411.8L297.89 413.76C297.89 414.74 297.89 415.72 296.91 417.67C296.91 417.67 296.91 418.65 295.93 419.63C295.93 419.63 296.91 419.63 296.91 420.61V419.63L300.82 416.7C302.78 414.74 304.73 412.79 307.66 411.81C311.57 409.85 315.48 406.92 317.44 403.01C317.44 403.01 317.44 402.03 318.42 402.03H319.4C319.4 402.03 320.38 402.03 320.38 403.01V404.97C319.4 406.93 318.42 408.88 316.47 409.86C315.49 411.82 313.54 413.77 310.6 414.75C307.67 416.71 304.73 418.66 301.8 421.59C299.84 423.55 298.87 425.5 297.89 427.46C297.89 429.42 296.91 430.39 293.98 430.39H292.02C291.04 430.39 290.06 429.41 289.09 428.43L286.16 422.56H285.18C284.2 421.58 283.22 421.58 282.25 421.58C279.32 421.58 277.36 423.54 276.38 426.47C276.38 427.45 276.38 428.43 275.4 428.43C274.42 430.39 272.47 430.39 270.51 429.41C269.53 428.43 268.55 427.45 268.55 425.5C267.57 424.52 267.57 422.57 266.59 420.61C266.59 419.63 265.61 417.68 265.61 415.72L262.68 409.85C261.7 407.89 260.72 405.94 258.77 404.96L255.84 402.03C252.91 400.07 250.95 396.16 249.97 392.25C248.01 390.29 248.01 387.36 248.01 384.43V381.5C247.03 380.52 247.03 379.54 246.05 379.54C245.07 379.54 245.07 380.52 244.09 380.52C244.09 381.5 243.11 382.48 243.11 383.45C243.11 386.38 242.13 389.32 241.15 391.27C240.17 395.18 239.19 398.11 239.19 401.05C238.21 402.03 238.21 403.98 238.21 404.96C238.21 406.92 238.21 408.87 237.23 409.85V417.67C237.23 419.63 237.23 421.58 238.21 423.54C238.21 427.45 239.19 430.38 240.17 433.32C240.17 434.3 241.15 435.28 241.15 435.28L243.11 440.17C244.09 442.13 246.04 444.08 248 446.04L253.87 453.86C255.83 456.79 257.78 459.73 260.71 461.68C263.64 465.59 267.55 468.52 270.49 471.46C270.49 472.44 271.47 472.44 271.47 472.44L279.29 481.24H280.27V480.26C283.2 476.35 286.14 472.44 290.05 470.48L297.87 464.61V463.63C297.87 461.67 296.89 459.72 296.89 458.74V457.76H295.91C293.95 460.69 292 462.65 289.07 464.6L285.16 467.53C285.16 467.53 283.2 468.51 282.23 469.49H281.25C281.25 466.56 282.23 465.58 283.21 463.62C285.17 461.66 287.12 460.69 289.08 459.71C291.04 457.75 292.99 456.78 293.97 454.82C295.93 453.84 295.93 452.86 294.95 451.89C294.95 449.93 294.95 448.96 293.97 447.98C292.99 445.05 292.99 442.11 292.99 439.18C292.99 437.22 293.97 436.25 294.95 435.27C294.95 434.29 295.93 434.29 295.93 434.29C296.91 435.27 297.89 436.25 297.89 437.22L303.76 447.98C304.74 449.94 304.74 453.85 305.72 456.78C305.72 458.74 306.7 460.69 306.7 462.65C306.7 465.58 307.68 468.52 308.66 470.47L311.59 478.29L317.46 488.07L323.33 496.87L333.11 504.69L341.91 510.56C342.89 510.56 342.89 511.54 343.87 511.54L354.63 517.41C357.56 519.37 360.5 521.32 362.45 524.25C363.43 524.25 363.43 525.23 364.41 525.23C364.41 527.19 366.37 528.16 368.32 529.14L369.3 530.12C370.28 532.08 370.28 535.01 369.3 535.99L363.43 541.86H362.45C359.52 543.82 358.54 545.77 356.58 547.73C356.58 547.73 356.58 548.71 355.6 548.71C354.62 550.67 354.62 553.6 354.62 556.53V557.51C356.58 558.49 357.55 560.44 358.53 562.4L361.46 566.31C362.44 567.29 362.44 567.29 362.44 566.31L366.35 563.38C368.31 560.45 371.24 558.49 374.17 557.51C374.17 556.53 375.15 556.53 376.13 556.53C377.11 554.57 379.06 552.62 379.06 549.69L381.02 545.78C381.02 545.78 381.02 544.8 380.04 544.8C379.06 543.82 378.08 542.84 379.06 541.87V538.94L378.08 537.96C377.1 537.96 377.1 537.96 377.1 538.94L376.12 539.92C376.12 540.9 375.14 540.9 375.14 540.9C373.18 540.9 372.21 539.92 371.23 538.94C371.23 536.98 371.23 535.03 372.21 533.07C373.19 533.07 373.19 532.09 373.19 532.09C372.21 530.13 372.21 529.16 372.21 527.2C374.17 523.29 375.14 519.38 379.05 516.44C381.01 514.48 382.96 513.51 384.92 512.53C385.9 512.53 386.88 512.53 387.85 511.55C387.85 510.57 388.83 510.57 389.81 509.59H390.79V510.57C390.79 513.5 388.83 516.44 386.88 518.39L381.99 522.3L379.06 526.21C378.08 528.17 379.06 530.12 378.08 533.05H379.06C381.02 530.12 381.99 527.18 385.9 526.21C385.9 526.21 385.9 525.23 386.88 525.23C386.88 525.23 387.86 524.25 387.86 525.23C388.84 525.23 388.84 526.21 387.86 527.19L385.9 533.06C385.9 534.04 385.9 535.02 384.92 535.99C384.92 535.99 384.92 536.97 385.9 536.97C385.9 537.95 386.88 537.95 387.86 538.93C387.86 537.95 387.86 536.97 388.84 536C389.82 534.04 390.8 531.11 393.73 530.13C395.69 529.15 397.64 528.17 398.62 526.22C399.6 525.24 399.6 525.24 400.58 526.22V527.2C399.6 530.13 398.62 533.07 395.69 534.04C395.69 535.02 394.71 536 394.71 536L391.78 540.89C390.8 541.87 390.8 542.85 391.78 542.85C391.78 543.83 392.76 544.81 392.76 544.81C393.74 545.79 393.74 545.79 393.74 546.77C394.72 545.79 394.72 545.79 394.72 544.81C396.68 541.88 398.63 538.94 401.56 537.97C401.56 536.99 402.54 536.99 403.52 536.01L406.45 531.12V530.14H408.41C409.39 531.12 409.39 532.1 409.39 532.1C409.39 533.08 408.41 533.08 408.41 533.08C407.43 536.99 406.45 540.9 402.54 542.86C402.54 543.84 401.56 543.84 401.56 544.82L398.63 548.73C397.65 549.71 397.65 549.71 399.61 550.69C400.59 550.69 401.57 550.69 402.54 551.67C403.52 551.67 403.52 551.67 403.52 550.69C405.48 547.76 406.45 545.8 409.39 543.85C410.37 542.87 411.35 541.89 411.35 539.94C412.33 538.96 413.31 537.01 413.31 536.03C414.29 535.05 415.27 534.07 416.24 534.07C417.21 534.07 417.22 535.05 417.22 537C417.22 539.93 417.22 542.87 415.26 545.8L411.35 551.67C410.37 553.63 410.37 553.63 412.33 553.63H413.31C414.29 554.61 415.27 553.63 415.27 553.63L418.2 547.76C420.16 545.8 421.13 543.85 422.11 541.89V539.93C423.09 538.95 423.09 537.97 424.07 537.97C425.05 537.97 425.05 538.95 426.03 538.95V544.82L423.1 555.58C425.06 556.56 425.06 556.56 425.06 555.58C426.04 552.65 427.99 550.69 428.97 548.74C429.95 546.78 430.93 544.83 430.93 542.87C430.93 541.89 430.93 540.91 431.91 539.94H432.89C433.87 540.92 434.85 540.92 434.85 541.9V543.86C434.85 545.82 435.83 547.77 434.85 549.73C434.85 550.71 434.85 552.66 433.87 554.62C433.87 555.6 433.87 555.6 432.89 556.58V557.56C433.87 557.56 435.82 558.54 435.82 557.56L438.75 549.74L441.68 544.85V543.87C442.66 542.89 442.66 541.91 443.64 541.91C444.62 541.91 445.6 542.89 445.6 543.87C447.56 547.78 447.56 551.69 445.6 555.6C445.6 555.6 444.62 556.58 445.6 556.58C445.6 556.58 446.58 556.58 446.58 555.6H447.56C448.54 554.62 448.54 552.67 450.49 551.69L452.45 548.76C452.45 546.8 453.43 545.83 453.43 544.85C454.41 543.87 454.41 542.89 455.39 542.89C456.37 542.89 456.37 543.87 457.35 544.85C457.35 545.83 457.35 545.83 458.33 545.83L463.22 540.94C464.2 540.94 464.2 539.96 464.2 539.96C466.16 538 467.13 536.05 468.11 534.09C469.09 533.11 470.07 531.16 470.07 530.18V523.34C471.05 521.38 472.03 518.45 472.03 515.52L473.01 514.54C474.97 510.63 476.92 507.7 480.83 504.76C480.83 503.78 481.81 503.78 481.81 503.78C481.81 502.8 480.83 502.8 480.83 502.8C479.85 500.84 478.87 498.89 478.87 497.91C478.87 494.98 477.89 494 474.96 493.02C473 493.02 472.03 492.04 471.05 492.04C469.09 491.06 469.09 488.13 470.07 487.15C471.05 486.17 472.03 486.17 473 486.17C473.97 486.17 474.96 486.17 475.93 487.15H479.84C479.84 487.15 480.82 487.15 480.82 486.17V483.24C480.82 482.26 480.82 482.26 479.84 482.26C478.86 483.24 477.88 482.26 477.88 481.28C476.9 480.3 476.9 479.32 476.9 478.35V475.42C476.9 475.42 476.9 474.44 475.92 474.44V475.42C474.94 476.4 474.94 478.35 474.94 479.33C473.96 480.31 473.96 480.31 472.98 480.31C472 480.31 470.05 479.33 470.05 478.35V475.42C469.07 474.44 469.07 473.46 469.07 472.49C469.07 470.53 469.07 469.56 470.05 467.6V465.64L468.09 467.6C466.13 471.51 463.2 473.47 459.29 475.42C457.33 476.4 455.38 476.4 453.42 475.42C452.44 474.44 451.46 474.44 451.46 475.42C449.5 475.42 448.53 476.4 446.57 474.44H445.59C442.66 477.37 438.75 478.35 434.83 479.33H433.85L434.83 480.31H436.79C439.72 480.31 443.63 480.31 446.57 481.29H457.33L463.2 483.25C465.16 484.23 465.16 487.16 464.18 489.12C464.18 490.1 461.25 491.08 460.27 490.1C458.31 490.1 456.36 489.12 454.4 489.12C452.44 488.14 451.47 488.14 449.51 488.14C447.55 487.16 445.6 488.14 444.62 488.14C439.73 488.14 435.82 488.14 431.91 487.16C430.93 487.16 429.95 486.18 428.98 488.14C428 488.14 427.02 488.14 427.02 489.12C425.06 489.12 424.09 490.1 423.11 492.05C423.11 492.05 423.11 493.03 422.13 493.03C421.15 494.01 419.2 494.01 417.24 494.01H416.26C414.3 493.03 414.3 491.08 413.33 490.1L408.44 483.26C407.46 482.28 407.46 482.28 406.48 482.28C406.48 482.28 405.5 482.28 404.52 483.26C404.52 483.26 403.54 483.26 403.54 484.24C401.58 485.22 399.63 484.24 399.63 482.28C399.63 481.3 399.63 481.3 400.61 480.32C400.61 478.36 401.59 476.41 402.57 474.45L409.41 465.65C411.37 463.69 413.32 460.76 416.25 459.78L421.14 455.87C423.1 453.91 425.05 453.91 427.01 454.89C427.01 454.89 427.99 455.87 428.97 455.87C428.97 455.87 428.97 454.89 429.95 453.91L430.93 452.93C430.93 451.95 432.89 451.95 432.89 451.95C433.87 452.93 433.87 453.91 433.87 453.91C434.85 454.89 433.87 454.89 433.87 455.87C433.87 457.83 433.87 458.8 432.89 459.78C433.87 460.76 433.87 460.76 433.87 459.78C434.85 459.78 434.85 458.8 435.83 458.8L438.76 454.89C438.76 453.91 439.74 453.91 440.72 453.91C442.68 454.89 442.68 454.89 442.68 456.84V459.77C443.66 458.79 443.66 457.81 444.64 457.81L447.57 454.88C448.55 453.9 450.5 453.9 451.48 454.88V457.81C452.46 456.83 453.44 455.85 454.41 455.85C455.39 454.87 456.37 455.85 456.37 457.81V460.74H457.35C457.35 459.76 457.35 459.76 458.33 459.76C458.33 458.78 459.31 457.8 460.29 456.83C460.29 455.85 461.27 455.85 462.25 455.85C464.21 456.83 464.21 457.81 464.21 458.78V461.71C465.19 461.71 466.17 460.73 467.14 459.75C468.12 458.77 470.07 458.77 471.05 459.75V461.71C471.05 462.69 472.03 461.71 472.03 461.71L473.01 460.73C474.97 459.75 476.92 459.75 478.88 462.69V463.67H479.86C481.82 462.69 482.79 463.67 483.77 465.63C483.77 466.61 484.75 466.61 484.75 465.63C485.73 465.63 485.73 464.65 486.71 464.65L492.58 466.61C492.58 467.59 492.58 467.59 493.56 466.61C495.52 464.65 496.49 461.72 496.49 458.79C496.49 457.81 497.47 455.86 497.47 453.9C497.47 453.9 497.47 452.92 496.49 452.92H495.51L491.6 457.81C488.67 460.74 484.76 460.74 481.82 459.77C478.89 458.79 478.89 454.88 480.84 453.9C481.82 452.92 482.8 451.94 483.77 451.94C484.75 451.94 485.73 451.94 486.7 450.96L492.57 446.07C493.55 445.09 494.53 444.11 495.5 444.11C497.46 441.18 498.43 438.24 497.46 435.31L495.5 429.44L492.57 419.66C491.59 416.73 490.61 413.79 490.61 411.84V407.93C489.63 405 488.65 402.06 488.65 399.13V395.22C487.67 393.26 487.67 391.31 487.67 389.35C486.69 387.39 486.69 385.44 486.69 383.48C485.71 382.5 485.71 381.52 485.71 379.57L487.67 374.68C488.65 370.77 490.6 368.81 494.51 366.86C497.44 365.88 500.38 363.93 503.31 361.97C503.31 360.99 504.29 360.99 505.27 360.01C507.23 360.01 509.18 360.99 508.2 362.94V363.92L501.36 371.74L500.38 372.72H506.25L512.12 375.65C514.08 377.61 515.05 378.58 517.99 376.63H519.95C520.93 375.65 523.86 373.7 522.88 373.7L519.95 371.74H518.97C517.01 370.76 516.04 370.76 517.01 368.81C517.01 366.85 517.01 365.88 517.99 364.9L521.9 360.01C522.88 359.03 522.88 358.05 524.83 358.05C524.83 358.05 525.81 358.05 525.81 357.07L526.79 356.09C528.75 353.16 533.63 353.16 534.61 357.07C535.59 357.07 535.59 358.05 536.57 360C537.55 360 537.55 359.02 537.55 359.02C539.51 355.11 541.46 351.2 541.46 346.31V343.38C541.46 341.42 541.46 339.47 542.44 338.49C543.42 335.56 545.37 334.58 546.35 333.6L551.24 329.69L556.13 323.82V321.86H559.06V324.79L555.15 333.59C554.17 335.55 551.24 337.5 550.26 338.48C548.3 339.46 548.3 339.46 547.33 341.41V343.37L545.37 352.17C543.41 355.1 542.44 358.04 539.5 359.99C538.52 359.99 538.52 360.97 537.54 360.97C536.56 360.97 536.56 361.95 536.56 361.95C536.56 363.91 536.56 364.88 535.58 365.86C535.58 367.82 535.58 367.82 537.54 367.82H567.85C569.81 366.84 571.76 366.84 574.69 366.84C577.62 365.86 580.56 365.86 583.49 365.86C587.4 365.86 589.36 364.88 593.27 364.88L601.09 362.92C604.02 362.92 605.98 361.94 608.91 361.94H610.87C612.83 360.96 615.76 361.94 617.71 360.96H622.6C624.56 359.98 626.51 359 629.44 359C633.35 358.02 638.24 357.04 643.13 355.09L656.82 349.22C658.78 348.24 660.73 346.29 662.69 344.33L668.56 333.57C669.54 331.61 669.54 329.66 669.54 328.68V327.7H669.37ZM137.45 268.05C136.47 270.98 136.47 272.94 134.52 274.89C134.52 275.87 133.54 275.87 132.56 274.89C132.56 273.91 131.58 272.93 131.58 271.96C132.56 270 132.56 268.05 134.51 267.07C134.51 266.09 135.49 266.09 136.47 266.09C136.47 266.1 137.45 267.07 137.45 268.05ZM147.22 276.85L145.26 283.69C143.3 285.65 142.33 287.6 142.33 290.53C142.33 291.51 141.35 292.49 140.37 294.44C138.41 293.46 138.41 292.48 138.41 290.53V289.55C138.41 285.64 139.39 282.71 141.34 280.75C143.29 278.79 143.3 276.84 144.27 274.88C144.27 271.95 145.25 269.99 147.2 268.04C147.2 267.06 148.18 267.06 148.18 266.08C149.16 265.1 150.14 265.1 151.11 265.1H152.09C152.09 265.1 152.09 266.08 151.11 266.08C151.11 267.06 150.13 268.04 149.15 269.01C148.2 270.99 147.22 273.92 147.22 276.85ZM140.38 260.23C141.36 257.3 141.36 254.36 143.31 252.41C144.29 250.45 146.24 249.48 148.2 249.48C149.18 249.48 150.16 250.46 149.18 251.44L145.27 261.22C144.29 262.2 144.29 263.18 143.31 263.18C142.33 264.16 142.33 264.16 141.35 263.18C140.38 262.19 140.38 261.21 140.38 260.23ZM153.09 277.83V283.7C153.09 285.66 153.09 288.59 152.11 290.54C151.13 292.5 151.13 293.47 151.13 295.43C151.13 298.36 150.15 301.3 150.15 303.25V304.23H149.17C148.19 303.25 148.19 302.27 148.19 302.27C146.23 299.34 146.23 296.4 146.23 293.47C146.23 290.54 146.23 288.58 148.19 286.63C150.15 284.67 150.15 283.7 150.15 281.74C150.15 280.76 151.13 278.81 151.13 277.83C151.13 277.83 151.13 276.85 152.11 276.85L153.09 277.83ZM164.82 236.76C164.82 237.74 163.84 237.74 163.84 238.72L160.91 246.54L158.95 252.41C157.97 253.39 157.97 253.39 156.99 252.41V251.43C156.01 249.47 155.03 248.5 156.01 246.54C156.01 242.63 156.01 239.7 158.94 236.76C159.92 235.78 160.9 233.83 162.85 234.8C164.82 234.81 164.82 235.79 164.82 236.76ZM161.89 297.39V312.06C161.89 313.04 161.89 313.04 160.91 313.04C158.95 311.08 157 309.13 157 306.2V299.36C157 298.38 157.98 297.4 157.98 296.43C157.98 295.45 158.96 293.5 158.96 292.52V289.59L159.94 288.61C160.92 288.61 160.92 289.59 160.92 289.59C161.89 292.5 161.89 294.45 161.89 297.39ZM172.65 309.12C172.65 312.05 173.63 314.99 173.63 318.9H172.65C170.69 317.92 169.72 315.97 169.72 314.01C168.74 312.05 168.74 310.1 168.74 309.12C168.74 307.16 168.74 306.19 169.72 304.23V298.36H170.7C171.68 299.34 172.66 300.32 172.66 302.27V309.12H172.65ZM183.4 225.03C182.42 226.01 182.42 226.01 182.42 226.99L177.53 236.77C176.55 237.75 176.55 239.7 176.55 241.66C175.57 241.66 175.57 242.64 174.59 242.64C173.61 242.64 173.61 241.66 173.61 241.66C172.63 240.68 171.65 239.7 172.63 237.75C172.63 235.79 173.61 232.86 174.59 229.93C175.57 227.97 176.55 226.02 178.5 224.06C179.48 223.08 180.46 223.08 181.43 223.08C182.42 223.07 183.4 224.05 183.4 225.03ZM201.98 215.25C202.96 216.23 202.96 217.21 202.96 218.18C201.98 218.18 201.98 219.16 201 220.14L198.07 226.98L195.14 232.85C195.14 233.83 195.14 233.83 194.16 232.85C193.18 231.87 192.2 230.89 192.2 228.94L194.16 223.07L197.09 218.18C197.09 217.2 199.05 216.22 200.02 215.25H201.98V215.25ZM196.11 321.83V320.85C197.09 316.94 197.09 314.01 199.04 310.09C199.04 309.11 200.02 309.11 200.02 308.13C201 307.15 201 307.15 201.98 307.15C202.96 307.15 202.96 307.15 202.96 308.13C202.96 310.09 201.98 311.06 201.98 313.02C201 315.95 200.02 319.86 198.07 322.8C198.07 323.78 197.09 323.78 197.09 324.76C196.11 323.79 196.11 322.81 196.11 321.83ZM219.58 213.3L217.62 217.21C214.69 220.14 212.73 223.08 211.75 226.01C211.75 226.01 210.77 226.99 210.77 227.97H209.79C207.83 226.99 207.83 226.01 206.86 224.06C207.84 223.08 207.84 222.1 207.84 221.13C208.82 218.2 210.77 215.26 212.73 213.31C213.71 212.33 215.66 211.35 216.64 211.35C217.62 210.37 218.6 210.37 218.6 211.35C219.58 212.32 220.56 212.32 219.58 213.3ZM424.92 582.91C424.92 580.95 424.92 578.02 423.94 575.09V572.16C422.96 572.16 421.98 572.16 421.01 571.18C420.03 570.2 419.05 569.22 419.05 568.25V566.29C419.05 565.31 419.05 565.31 418.07 565.31H417.09V567.27C416.11 568.25 415.13 569.23 415.13 570.2C413.17 571.18 412.2 571.18 411.22 569.22C410.24 568.24 410.24 566.29 410.24 565.31V563.35H408.28C407.3 562.37 407.3 562.37 406.32 563.35C406.32 564.33 405.34 565.31 405.34 565.31C403.38 567.27 402.41 567.27 401.43 564.33C401.43 563.35 400.45 562.37 400.45 560.42V559.44C399.47 559.44 398.49 559.44 398.49 558.46C397.51 558.46 396.53 558.46 396.53 559.44C396.53 560.42 395.55 561.4 394.57 561.4C393.59 562.38 391.64 562.38 391.64 561.4C390.66 560.42 390.66 560.42 390.66 559.44V556.51H389.68V557.49C387.72 558.47 387.72 558.47 388.7 560.42L391.63 567.26C391.63 568.24 390.65 569.22 389.67 569.22C387.71 569.22 387.71 569.22 386.74 568.24C384.78 567.26 383.81 565.31 382.83 563.35H381.85C381.85 563.35 380.87 563.35 380.87 564.33C380.87 564.33 380.87 565.31 381.85 565.31C381.85 566.29 382.83 568.24 382.83 569.22L384.79 573.13C384.79 574.11 385.77 575.09 384.79 576.06C383.81 577.04 382.83 576.06 381.86 576.06C381.86 576.06 381.86 575.08 380.88 575.08C378.92 574.1 377.95 573.12 376.97 571.17C376.97 571.17 376.97 570.19 375.99 570.19V571.17C375.99 572.15 375.99 574.1 376.97 575.08L378.93 578.01C378.93 578.99 379.91 580.94 380.89 580.94C381.87 581.92 382.85 582.9 383.82 581.92L386.75 579.96L394.57 573.12H396.53L393.6 578.01L385.78 586.81L382.85 588.77C381.87 588.77 380.89 589.75 378.94 589.75L375.03 587.79C373.07 586.81 371.12 585.83 369.16 583.88C366.23 581.92 364.27 578.99 361.34 576.06L358.41 574.1C356.45 571.17 355.48 569.21 352.54 566.28H351.56C350.58 563.35 348.63 562.37 346.67 560.41L339.83 554.54C339.83 553.56 338.85 552.58 338.85 552.58L333.96 548.67L328.09 540.85C327.11 538.89 325.16 536.94 323.2 534.98L318.31 529.11L311.47 521.29L306.58 517.38L299.74 511.51L296.81 508.58C292.9 506.62 289.97 503.69 287.03 500.76L279.21 492.94C275.3 489.03 272.37 485.12 268.45 482.18C267.47 481.2 267.47 481.2 267.47 480.22C265.51 479.24 264.54 477.29 263.56 476.31C260.63 473.38 257.69 469.47 253.78 466.53L242.05 450.89L238.14 445.02C235.21 440.13 234.23 434.26 231.3 429.37L228.37 416.66C228.37 415.68 228.37 413.73 227.39 412.75C226.41 411.77 225.43 411.77 224.46 411.77C223.49 411.77 223.48 412.75 223.48 413.73V414.71C222.5 417.64 222.5 419.6 221.52 420.58L219.56 424.49C219.56 428.4 217.6 431.33 214.67 434.27C212.71 435.25 212.71 437.2 212.71 440.14V449.92C212.71 451.88 213.69 453.83 213.69 455.79C213.69 457.75 213.69 458.72 214.67 459.7L217.6 462.63L223.47 471.43L230.31 482.19L234.22 488.06C237.15 493.93 239.11 498.82 240.09 504.68C240.09 508.59 241.07 511.52 243.02 514.46C244.98 519.35 248.89 522.28 253.78 524.24L259.65 527.17L269.43 535.97L275.3 540.86C278.23 542.82 281.17 545.75 284.1 549.66C285.08 551.62 287.03 553.57 288.01 556.5C290.94 559.43 292.9 563.34 294.85 566.28L297.78 575.08L300.71 581.92C301.69 584.85 302.67 587.79 302.67 590.72C304.63 594.63 305.6 599.52 306.58 604.41L308.54 612.23C308.54 614.19 309.52 616.14 309.52 618.1C309.52 620.06 310.5 622.01 311.48 622.99L315.39 625.92L320.28 631.79V625.92C319.3 624.94 319.3 622.99 319.3 622.01C319.3 622.01 320.28 621.03 321.26 621.03V622.01C323.22 623.97 324.19 625.92 325.17 627.88L328.1 637.66L331.03 643.53L332.99 652.33C332.99 656.24 333.97 660.15 333.97 665.04V669.93C332.99 671.89 332.99 674.82 332.99 676.77C332.01 679.7 332.99 681.66 333.97 683.61C334.95 686.54 336.9 689.48 339.84 692.41C339.84 691.43 340.82 691.43 340.82 691.43C343.75 684.59 346.69 677.74 351.58 671.87L358.42 661.11L371.13 651.33L387.75 639.6L399.48 629.82L403.39 625.91C407.3 622 412.19 618.09 415.12 614.18C418.05 612.22 419.03 610.27 420.99 608.31C423.92 605.38 424.9 601.47 424.9 597.55V582.91H424.92ZM218.6 309.12V305.21L221.53 300.32C221.53 298.36 223.49 297.39 224.46 295.43H225.44C225.44 295.43 226.42 295.43 226.42 296.41C226.42 296.41 225.44 296.41 225.44 297.39C224.46 301.3 222.51 304.23 220.55 307.17C220.55 308.15 219.57 308.15 219.57 309.13H218.6V309.12ZM237.18 463.61L241.09 470.45V471.43C241.09 472.41 240.11 473.39 240.11 472.41H236.2C234.24 470.45 231.31 468.5 229.36 465.57L223.49 457.75L220.56 452.86C219.58 450.9 219.58 447.97 219.58 446.02C218.6 444.06 219.58 442.11 219.58 440.15V435.26C218.6 434.28 219.58 433.3 218.6 432.33V430.37C219.58 428.41 221.53 429.39 222.51 430.37C223.49 431.35 224.47 433.3 224.47 434.28C224.47 436.24 224.47 438.19 225.45 440.15C225.45 442.11 225.45 444.06 226.43 446.02C226.43 447.98 228.39 448.95 229.36 450.91C230.34 451.89 231.32 453.84 231.32 454.82L237.18 463.61ZM237.18 209.38C237.18 210.36 236.2 211.33 236.2 211.33L228.38 220.13C228.38 220.13 227.4 221.11 227.4 222.09C227.4 223.07 226.42 223.07 226.42 222.09C225.44 221.11 225.44 220.13 225.44 220.13C225.44 217.2 226.42 214.26 228.37 212.31C229.35 210.35 231.3 208.4 233.26 208.4C234.24 207.42 235.22 206.44 236.19 207.42C237.18 208.41 237.18 209.38 237.18 209.38ZM236.2 342.37C236.2 341.39 236.2 340.41 235.22 339.44C234.24 336.51 233.26 333.57 233.26 330.64V329.66H232.28C232.28 329.66 232.28 330.64 231.3 330.64V344.33L230.32 345.31C231.3 346.29 231.3 346.29 232.28 346.29C233.26 347.27 234.24 346.29 234.24 346.29L236.2 342.37ZM256.74 206.45C255.76 208.41 253.81 209.38 252.83 210.36C251.85 211.34 250.87 212.32 249.9 212.32C248.92 214.28 246.97 215.25 245.99 216.23L243.06 220.14L242.08 221.12C242.08 221.12 242.08 220.14 241.1 220.14C241.1 218.18 241.1 217.21 242.08 216.23L245.01 210.36C246.97 208.4 248.92 206.45 251.85 205.47C252.83 204.49 253.81 203.51 254.78 203.51C254.78 203.51 255.76 203.51 255.76 204.49C257.72 204.5 257.72 206.45 256.74 206.45ZM298.78 529.13C300.74 532.06 301.71 535.97 301.71 538.91C301.71 539.89 301.71 540.87 300.73 540.87H299.75C297.79 538.91 295.84 538.91 294.86 536.96C291.93 535 289.97 532.07 288.02 530.12C286.06 528.16 284.11 526.21 282.15 525.23L276.28 519.36C276.28 519.36 276.28 518.38 275.3 518.38C273.34 516.42 272.37 514.47 270.41 513.49C269.43 511.53 267.48 509.58 265.52 508.6C262.59 505.67 260.63 502.73 258.68 498.82L251.84 490.02C249.88 488.06 247.93 485.13 246.95 482.2V481.22H247.93L249.89 483.18L257.71 490.02L263.58 495.89C265.54 497.85 266.51 499.8 268.47 500.78L275.31 506.65L287.04 516.43C288.02 518.39 289.97 520.34 291.93 521.32C293.89 522.3 294.86 524.25 296.82 526.21L298.78 529.13ZM257.72 347.25C256.74 347.25 254.79 347.25 254.79 346.27L253.81 345.29C253.81 343.33 254.79 343.33 255.77 343.33C257.73 343.33 259.68 344.31 260.66 345.29C261.64 346.27 260.66 346.27 260.66 347.25H257.72ZM254.78 336.5C255.76 335.52 255.76 335.52 256.74 335.52C257.72 335.52 258.7 335.52 258.7 336.5C259.68 336.5 259.68 336.5 259.68 337.48C260.66 337.48 260.66 338.46 260.66 338.46C260.66 339.44 259.68 339.44 258.7 339.44C255.76 339.43 254.78 338.46 254.78 336.5ZM291.94 353.12C291.94 355.08 290.96 356.05 289.98 357.03C288.02 358.01 288.02 359.96 288.02 361.92C288.02 363.88 288.02 366.81 289 368.76C289.98 370.72 289 371.69 288.02 372.67C288.02 373.65 287.04 373.65 286.06 374.63C283.13 374.63 282.15 373.65 281.17 370.72C281.17 368.76 280.19 367.79 280.19 365.83V360.94C279.21 360.94 279.21 360.94 278.23 359.96C275.3 358 273.34 355.07 273.34 351.16C273.34 350.18 274.32 348.23 276.27 347.25C277.25 346.27 278.23 345.29 279.2 345.29V343.33C280.18 341.37 280.18 341.37 280.18 339.42C279.2 337.46 279.2 335.51 277.25 333.55L274.32 328.66L270.41 323.77C268.45 322.79 268.45 322.79 266.5 323.77L261.61 328.66C259.65 330.62 257.7 329.64 257.7 327.68V323.77C258.68 320.84 260.63 319.86 261.61 317.9C260.63 316.92 259.65 316.92 257.7 316.92C257.7 317.9 257.7 317.9 256.72 317.9C256.72 317.9 255.74 317.9 255.74 316.92C254.76 316.92 254.76 314.96 255.74 314.96L258.67 312.03C263.56 311.05 267.47 311.05 271.38 313.99L276.27 317.9C279.2 320.83 281.16 323.77 283.11 326.7L286.04 330.61C287.02 332.57 288 335.5 288 337.45C288 338.43 288.98 338.43 288.98 339.41C291.91 342.34 291.91 345.28 291.91 350.17V353.12H291.94ZM261.63 354.1C260.65 355.08 259.67 356.06 258.7 355.08H256.74C255.76 355.08 254.78 353.12 255.76 352.15C257.72 352.15 259.67 351.17 261.63 353.13V354.1ZM258.69 293.48C257.71 293.48 257.71 294.46 258.69 294.46H259.67C261.63 294.46 261.63 294.46 262.6 292.5C263.58 290.54 264.56 288.59 266.51 286.63C268.47 284.67 269.44 282.72 270.42 279.79C271.4 277.83 271.4 276.86 270.42 274.9H269.44L266.51 282.72C265.53 284.68 263.58 286.63 261.62 287.61L258.69 293.48ZM260.65 366.81C260.65 365.83 259.67 365.83 258.69 365.83V363.87C258.69 363.87 259.67 362.89 260.65 362.89H263.58C264.56 363.87 264.56 363.87 264.56 364.85C263.58 365.83 261.63 366.81 260.65 366.81ZM274.34 200.58C275.32 200.58 276.3 201.56 276.3 202.54L275.32 203.52L269.45 208.41L263.58 214.28V215.26H262.6C261.62 213.3 261.62 212.33 261.62 211.35C262.6 209.4 263.58 206.46 265.53 205.48C267.49 203.52 268.46 201.57 270.42 201.57C271.4 200.59 272.38 200.59 273.35 200.59H274.34V200.58ZM267.49 375.61C266.51 375.61 265.53 376.59 264.56 376.59C263.58 376.59 262.6 375.61 262.6 374.63C262.6 373.65 263.58 372.67 264.56 372.67C265.54 371.69 266.52 372.67 267.49 373.65C268.47 373.66 267.49 374.63 267.49 375.61ZM272.38 380.5C274.34 381.48 274.34 382.46 273.36 383.43C272.38 385.39 270.43 385.39 268.47 385.39C267.49 384.41 266.51 382.46 267.49 381.48C267.49 381.48 268.47 380.5 269.45 380.5H272.38ZM281.18 386.37L279.22 389.3C278.24 389.3 277.26 390.28 276.29 389.3C274.33 388.32 275.31 387.34 276.29 386.37C277.27 385.39 279.22 385.39 280.2 385.39L281.18 386.37ZM293.89 201.56C293.89 202.54 292.91 203.52 291.93 204.49L287.04 207.42L280.2 213.29C279.22 213.29 279.22 214.27 278.24 214.27H277.26V213.29C277.26 212.31 278.24 211.33 279.22 210.36C281.18 206.45 284.11 203.52 288.02 200.58C289 200.58 289.98 199.6 290.95 199.6L293.89 201.56ZM286.07 446.99C286.07 446.99 287.05 446.01 287.05 446.99C288.03 446.99 288.03 446.99 288.03 447.97V448.95C287.05 450.91 285.1 451.88 284.12 452.86L279.23 456.77H278.25C277.27 456.77 277.27 455.79 277.27 455.79L279.23 452.86C280.21 451.88 281.19 449.93 282.16 449.93L286.07 446.99ZM299.76 473.39V472.41C299.76 471.43 298.78 470.45 298.78 469.48H297.8C295.84 472.41 293.89 474.37 290.96 475.35L285.09 482.19C285.09 482.19 284.11 483.17 284.11 484.15C283.13 484.15 283.13 485.13 284.11 485.13L287.04 488.06C287.04 487.08 287.04 487.08 288.02 486.1C289.98 482.19 292.91 478.28 296.82 476.32L299.76 473.39ZM327.14 282.72C324.21 281.74 321.27 280.76 318.34 278.81C315.41 276.85 312.47 276.85 309.54 275.88H304.65C302.69 275.88 300.74 276.86 298.78 277.84C294.87 278.82 291.94 280.77 288.02 282.73V283.71H290.95C291.93 283.71 291.93 282.73 292.91 283.71H298.78C300.74 284.69 302.69 284.69 304.65 284.69C307.58 285.67 309.54 286.65 312.47 286.65C315.4 287.63 317.36 288.61 320.29 288.61L326.16 290.57C328.12 290.57 331.05 291.55 333.98 291.55C336.91 292.53 339.85 293.51 342.78 293.51C345.71 293.51 348.65 293.51 350.6 294.49H355.49C357.45 293.51 360.38 294.49 363.31 293.51C365.27 293.51 368.2 292.53 371.13 292.53L380.91 289.6L392.64 280.8C392.64 279.82 393.62 279.82 393.62 279.82C393.62 278.84 392.64 276.89 391.66 276.89C390.68 275.91 389.7 275.91 388.73 276.89C388.73 276.89 387.75 276.89 386.77 277.87L377.97 281.78L366.24 284.71C362.33 285.69 358.42 285.69 353.53 285.69C351.57 286.67 349.62 285.69 347.66 286.67C345.7 286.67 342.77 285.69 340.82 285.69C338.86 284.71 337.89 284.71 335.93 284.71C333.01 284.68 330.07 283.7 327.14 282.72ZM330.07 300.32C329.09 300.32 329.09 299.34 329.09 299.34C328.11 299.34 326.16 298.36 324.2 298.36L318.33 295.43L308.55 292.5C307.57 292.5 305.62 292.5 304.64 291.52C301.71 291.52 299.75 290.54 296.82 290.54C294.86 290.54 292.91 289.56 290.95 289.56H288.02C289 289.56 289 290.54 289 290.54C290.96 290.54 291.93 291.52 293.89 291.52C296.82 292.5 298.78 294.45 300.73 295.43L311.49 298.36H315.4C318.33 299.34 321.27 299.34 323.22 299.34H325.18C326.16 300.32 328.11 300.32 329.09 300.32H330.07ZM302.7 483.17C302.7 482.19 301.72 480.24 301.72 479.26C301.72 479.26 301.72 478.28 300.74 479.26C297.81 482.19 293.9 485.13 290.96 490.02C290.96 490.02 289.98 490.02 289.98 491C289.98 491.98 290.96 492.96 291.94 492.96C291.94 493.94 292.92 493.94 292.92 494.92H293.9C295.86 491.01 297.81 488.08 301.72 485.14C301.72 484.16 301.72 484.16 302.7 484.16V483.17ZM307.58 203.52V204.5C306.6 205.48 305.62 206.46 304.65 206.46C301.72 209.39 298.78 211.35 294.87 212.33C294.87 212.33 294.87 213.31 293.89 213.31V211.35C295.85 208.42 297.8 206.46 300.73 204.51C301.71 203.53 303.66 201.58 305.62 201.58C306.61 200.58 308.56 201.56 307.58 203.52ZM304.65 489.04H303.67C303.67 490.02 302.69 491 302.69 491L297.8 497.84C296.82 497.84 296.82 498.82 297.8 498.82L301.71 501.75C302.69 502.73 302.69 501.75 302.69 501.75C303.67 499.79 304.65 496.86 306.6 494.91C306.61 492.95 305.63 490.99 304.65 489.04ZM320.3 358.99C320.3 358.99 319.32 359.97 319.32 360.95C318.34 360.95 317.36 361.93 316.39 362.91C315.41 362.91 315.41 362.91 314.43 363.89C312.47 364.87 310.52 366.82 308.56 366.82C306.6 366.82 305.63 367.8 303.67 367.8C303.67 367.8 302.69 367.8 302.69 366.82C301.71 365.84 299.76 364.86 299.76 363.89C298.78 361.93 298.78 360.96 298.78 359L300.74 356.07C302.7 354.11 302.7 353.14 300.74 351.18L298.78 347.27C298.78 346.29 298.78 345.31 299.76 344.34C300.74 343.36 301.72 342.38 302.69 342.38C304.65 342.38 306.6 341.4 309.53 342.38H315.4C318.33 343.36 320.29 343.36 322.24 342.38C327.13 342.38 332.02 340.42 334.95 335.54C336.91 333.58 338.86 332.61 340.82 331.63C341.8 331.63 342.78 331.63 343.75 332.61C343.75 332.61 343.75 333.59 342.77 334.57C342.77 335.55 341.79 335.55 340.81 336.52L336.9 341.41L332.99 344.34L330.06 346.3L320.28 351.19C317.35 351.19 315.39 352.17 313.44 352.17C314.42 353.15 315.4 353.15 316.37 353.15C317.35 353.15 318.33 352.17 319.3 352.17H320.28C322.24 352.17 322.24 353.15 322.24 355.1L320.3 358.99ZM316.38 365.83C316.38 366.81 317.36 366.81 316.38 367.79C316.38 369.75 315.4 371.7 313.45 372.68C312.47 374.64 310.52 375.61 308.56 376.59V377.57C309.54 377.57 310.52 377.57 311.49 379.53C312.47 379.53 312.47 380.51 311.49 381.49C311.49 381.49 311.49 382.47 310.51 383.45C309.53 385.41 307.58 387.36 304.64 388.34C301.71 390.3 298.77 387.36 298.77 385.41C298.77 383.46 299.75 382.48 300.73 381.5C301.71 379.54 303.66 378.57 304.64 378.57V377.59H303.66C300.73 377.59 299.75 375.63 300.73 372.7C301.71 370.74 302.69 369.77 303.66 369.77L307.57 367.81C309.53 367.81 310.5 366.83 312.46 365.85C312.46 365.85 313.44 365.85 314.42 364.87C315.41 364.86 315.41 364.86 316.38 365.83ZM305.63 431.35C305.63 432.33 304.65 433.31 304.65 434.28C304.65 435.26 303.67 436.24 302.69 437.21C302.69 438.19 301.71 438.19 301.71 437.21C300.73 436.23 300.73 436.23 300.73 435.25C300.73 432.32 301.71 430.36 302.69 428.41C302.69 426.45 304.65 425.48 305.62 424.5C308.55 422.54 311.49 421.57 314.42 420.59L315.4 421.57V423.53C314.42 423.53 314.42 424.51 313.44 424.51L305.63 431.35ZM308.56 393.21V394.19C307.58 395.17 305.63 396.15 303.67 396.15C303.67 396.15 302.69 396.15 302.69 395.17C301.71 395.17 302.69 394.19 302.69 394.19C302.69 392.23 304.65 391.26 305.62 390.28C307.58 389.3 308.56 391.26 308.56 393.21ZM307.58 443.08C306.6 443.08 306.6 444.06 306.6 444.06C305.62 444.06 305.62 443.08 305.62 442.1C305.62 441.12 306.6 440.14 306.6 438.19C308.56 434.28 311.49 431.35 316.38 430.37C320.29 429.39 323.22 427.44 326.16 425.48C326.16 424.5 327.14 423.52 327.14 423.52C328.12 422.54 328.12 422.54 329.1 422.54V423.52C329.1 425.48 328.12 427.43 327.14 429.39C325.18 431.35 322.25 432.32 320.3 433.3L315.41 435.26C313.45 437.22 310.52 439.17 308.57 442.1L307.58 443.08ZM306.61 504.68C305.63 504.68 305.63 504.68 306.61 505.66L309.54 507.62C309.54 508.6 310.52 508.6 310.52 507.62L312.48 504.69V503.71L309.55 499.8C308.57 500.78 307.59 502.73 307.59 502.73C306.61 503.7 306.61 503.7 306.61 504.68ZM315.41 448.95L313.45 451.88C312.47 453.84 310.52 454.81 309.54 455.79C308.56 456.77 307.58 456.77 307.58 455.79C307.58 454.81 307.58 453.83 306.6 452.86C307.58 449.93 308.56 446.99 311.49 445.04C314.42 443.08 317.36 442.11 320.29 441.13H322.25C323.23 442.11 323.23 442.11 322.25 443.09L320.29 446.02L315.41 448.95ZM313.45 466.55C311.49 466.55 311.49 466.55 311.49 465.57V464.59C311.49 461.66 312.47 459.7 314.42 457.75C315.4 455.79 317.35 453.84 319.31 452.86L328.11 448.95L332.02 446.02L334.95 441.13H335.93V442.11C335.93 444.07 335.93 446.02 333.97 447C333.97 447.98 333.97 447.98 332.99 448.96C332.01 449.94 331.03 451.89 329.08 452.87L323.21 455.8C320.28 457.76 318.32 459.71 316.37 462.64L313.45 466.55ZM330.07 203.52L329.09 204.5C328.11 205.48 327.13 206.46 326.16 206.46C321.27 209.39 317.36 211.35 313.45 212.33C312.47 213.31 312.47 212.33 312.47 212.33L313.45 211.35C316.38 207.44 319.32 205.48 323.23 203.53C324.21 202.55 326.16 202.55 328.12 202.55C329.1 202.54 329.1 203.52 330.07 203.52ZM345.72 594.64C346.7 596.6 347.68 598.55 347.68 600.51C348.66 602.47 348.66 604.42 348.66 605.4C348.66 607.36 347.68 609.31 347.68 611.27C346.7 613.23 345.72 615.18 343.77 616.16C341.81 618.12 339.86 618.12 336.93 618.12H335.95C334.97 617.14 334.97 617.14 334.97 616.16C335.95 614.2 336.93 613.23 336.93 611.27C337.91 611.27 338.89 610.29 338.89 609.31C339.87 608.33 339.87 606.38 339.87 605.4C338.89 604.42 339.87 603.44 338.89 602.47C338.89 599.54 336.93 597.58 335.96 594.65C334 591.72 332.05 587.81 329.12 584.87L321.3 572.16L312.5 558.47V555.53C312.5 554.55 313.48 554.55 313.48 555.53C315.44 556.51 316.41 557.49 317.39 559.44L323.26 565.31L334.02 578.02C334.02 579 335 579.98 335.98 580.95C338.91 583.88 340.87 586.82 342.82 589.75L345.72 594.64ZM319.32 472.41C319.32 473.39 318.34 475.34 317.36 476.32C317.36 476.32 316.38 476.32 316.38 477.3C315.4 477.3 315.4 477.3 314.42 476.32V473.39C314.42 471.43 315.4 468.5 316.38 466.55C318.34 464.59 320.29 463.62 323.22 462.64C324.2 462.64 326.15 461.66 327.13 460.68H328.11C328.11 459.7 329.09 459.7 329.09 460.68C330.07 461.66 330.07 462.64 329.09 462.64C328.11 463.62 328.11 464.6 327.13 464.6C324.2 465.58 322.24 467.53 321.26 469.49L319.32 472.41ZM319.32 419.61C319.32 418.63 319.32 418.63 320.3 417.65L323.23 412.76C324.21 411.78 325.19 411.78 325.19 412.76V413.74C325.19 417.65 323.23 420.58 321.28 420.58C320.3 421.57 319.32 420.59 319.32 419.61ZM325.18 478.28L321.27 483.17C321.27 484.15 320.29 483.17 320.29 482.19C320.29 482.19 320.29 481.21 319.31 481.21C320.29 480.23 320.29 479.25 320.29 478.28C321.27 475.35 323.22 472.41 326.16 470.46C327.14 469.48 328.12 469.48 329.09 469.48C332.02 468.5 333.98 466.55 335.93 464.59C336.91 463.61 337.89 462.63 338.86 462.63C339.84 461.65 340.82 461.65 340.82 462.63C341.8 462.63 341.8 463.61 340.82 464.59C340.82 465.57 339.84 466.55 338.86 467.52L333.97 471.43C332.99 471.43 332.01 472.41 331.04 472.41C328.12 473.39 327.14 475.35 325.18 478.28ZM333.01 482.19L330.08 487.08C330.08 489.04 329.1 490.01 328.12 490.99C328.12 491.97 328.12 491.97 327.14 492.95C327.14 493.93 326.16 493.93 325.18 492.95C325.18 490.99 324.2 490.02 325.18 488.06C325.18 484.15 328.11 482.19 331.05 479.26C331.05 479.26 332.03 479.26 333.01 478.28V479.26C333.99 479.26 334.97 480.24 333.99 481.22C333.99 481.21 333.99 482.19 333.01 482.19ZM325.18 112.58V111.6H330.07C333 111.6 335.94 110.62 337.89 110.62L345.71 108.66C348.64 108.66 351.58 107.68 354.51 107.68C355.49 106.7 357.44 106.7 358.42 106.7H364.29C366.25 105.72 368.2 105.72 370.16 105.72C373.09 105.72 375.05 104.74 377 104.74L384.82 102.78C386.78 102.78 388.73 102.78 390.69 101.8C392.65 101.8 395.58 100.82 397.53 100.82C399.49 100.82 401.44 99.8401 403.4 99.8401L412.2 97.88C416.11 97.88 419.04 96.9 422.96 95.92C425.89 95.92 429.8 94.9401 432.74 93.9601C434.7 93.9601 436.65 93.96 438.61 92.98H445.45C446.43 92.98 447.41 92 448.38 92L456.2 93.9601C459.13 93.9601 462.07 94.94 465.98 95.92C466.96 95.92 467.94 95.92 468.91 96.9C471.84 96.9 473.8 97.88 476.73 98.86C479.66 98.86 481.62 99.84 483.57 101.79C484.55 101.79 484.55 102.77 485.53 102.77C487.49 102.77 489.44 102.77 491.4 103.75C494.33 103.75 498.24 104.73 501.18 106.68C505.09 107.66 509 109.61 511.94 112.55L515.85 116.46L520.74 122.33C520.74 123.31 521.72 125.26 521.72 127.22C522.7 128.2 522.7 130.15 522.7 131.13C522.7 135.04 522.7 138.95 523.68 142.86C524.66 143.84 524.66 145.79 524.66 147.75V158.51C523.68 161.44 523.68 164.38 523.68 168.29V183.94C523.68 186.87 524.66 190.78 525.64 193.72C526.62 198.61 528.57 203.5 530.53 208.39L533.46 213.28C535.42 217.19 536.39 220.12 536.39 224.04C537.37 227.95 537.37 231.86 537.37 234.8L535.41 243.6C534.43 245.56 533.45 247.51 531.5 248.49C531.5 249.47 531.5 249.47 530.52 248.49L528.56 245.56V230.89L526.6 222.09C525.62 219.16 524.64 217.2 522.69 215.25C519.76 210.36 517.8 204.49 516.82 199.6C515.84 197.64 514.86 194.71 514.86 192.76V187.87C513.88 182 514.86 176.14 514.86 170.27V161.47C514.86 157.56 515.84 154.63 515.84 150.71C515.84 147.78 514.86 144.84 514.86 141.91C514.86 139.95 514.86 138 513.88 136.04V129.2C513.88 127.24 512.9 126.27 511.92 124.31L506.05 118.44C505.07 116.48 503.12 115.51 501.16 113.55C498.23 111.59 495.29 109.64 491.38 108.66C489.42 108.66 487.47 107.68 484.54 107.68C483.56 107.68 482.58 107.68 481.61 108.66C478.68 108.66 475.74 107.68 473.79 106.7C470.86 106.7 468.9 105.72 466.95 104.74C464.02 103.76 462.06 103.76 459.13 103.76C457.17 102.78 455.22 102.78 453.26 102.78C453.26 101.8 452.28 101.8 451.3 101.8H443.48C441.52 102.78 438.59 102.78 436.64 102.78C434.68 103.76 432.73 103.76 430.77 103.76C427.84 104.74 424.9 105.72 422.95 105.72C420.99 105.72 419.04 106.7 417.08 106.7L408.28 108.66C406.32 108.66 403.39 109.64 401.44 109.64C398.51 109.64 395.57 110.62 393.62 110.62C391.66 110.62 390.69 110.62 388.73 111.6C386.77 111.6 383.84 111.6 380.91 112.58H358.42C355.49 113.56 352.55 113.56 349.62 113.56C348.64 113.56 346.69 113.56 344.73 114.54H340.82C337.89 114.54 335.93 115.52 333.98 115.52C331.05 115.52 329.09 114.54 327.14 114.54C326.16 114.54 325.18 113.56 325.18 112.58ZM333.99 433.3C333.99 434.28 333.01 436.23 332.03 437.21L329.1 440.14C328.12 440.14 327.14 440.14 326.17 439.16C326.17 439.16 325.19 438.18 326.17 437.2L329.1 434.27C330.08 433.29 331.06 432.31 332.03 432.31C332.03 431.33 332.03 431.33 333.01 431.33C333.01 431.33 333.99 431.33 333.99 432.31V433.3V433.3ZM419.05 129.2C412.21 133.11 405.36 137.02 398.52 139.96C394.61 141.92 390.7 144.85 386.79 145.83C381.9 148.76 376.03 150.72 371.15 151.7L359.42 153.66C355.51 154.64 351.6 155.62 348.66 155.62L338.88 157.58H328.12C327.14 156.6 326.16 156.6 327.14 154.65C327.14 153.67 327.14 153.67 328.12 152.69L346.7 148.78L365.28 143.89C370.17 142.91 375.06 140.96 379.95 139L391.68 132.16L401.46 127.27C406.35 125.31 411.24 122.38 416.13 119.45C418.09 117.49 421.02 116.52 423.95 115.54C424.93 114.56 425.91 114.56 427.86 114.56C429.82 115.54 430.79 116.52 430.79 118.47C429.81 120.43 429.81 122.38 427.86 123.36C424.92 125.29 421.99 128.23 419.05 129.2ZM330.07 270.01C330.07 270.99 331.05 270.99 331.05 270.99C333.01 271.97 334.96 272.95 335.94 272.95C340.83 274.91 344.74 275.88 349.63 275.88H361.36C363.32 275.88 365.27 274.9 366.25 274.9C367.23 274.9 368.21 273.92 369.18 273.92C370.16 272.94 370.16 271.97 370.16 271.97C370.16 270.99 369.18 270.99 369.18 270.99H357.45C357.45 270.99 356.47 270.99 356.47 270.01H347.67C345.71 269.03 342.78 269.03 339.85 269.03C336.92 269.03 333.98 268.05 331.05 268.05C330.07 268.05 329.1 269.03 330.07 270.01ZM340.83 490.02C338.87 491.98 337.9 493.93 336.92 496.86L334.96 499.79C333.98 500.77 333.98 500.77 333 500.77C332.02 499.79 332.02 499.79 332.02 498.81C331.04 497.83 331.04 496.85 331.04 496.85C331.04 493.92 333 491.96 333.97 489.03C335.93 486.1 339.84 484.14 343.75 482.19L347.66 480.23C349.62 480.23 350.59 479.25 351.57 478.27C352.55 478.27 353.53 478.27 354.5 477.29H355.48C356.46 478.27 356.46 478.27 356.46 479.25C356.46 480.23 355.48 480.23 355.48 481.21C353.52 483.17 351.57 484.14 349.61 485.12C345.72 486.1 343.76 488.06 340.83 490.02ZM349.63 203.52C351.59 204.5 351.59 206.45 350.61 207.43C349.63 207.43 349.63 208.41 348.65 208.41C344.74 210.37 339.85 212.32 335.94 213.3H333.01C332.03 213.3 332.03 213.3 332.03 212.32C333.01 211.34 333.01 210.36 333.99 210.36C336.92 207.43 340.83 205.47 345.72 203.52H349.63V203.52ZM339.85 449.93L340.83 450.91V451.89C340.83 452.87 340.83 453.85 339.85 453.85L336.92 458.74C335.94 459.72 335.94 459.72 334.96 459.72C333.98 459.72 333 459.72 333 458.74C332.02 458.74 333 457.76 333 456.78L339.84 450.91V449.93H339.85ZM342.79 472.41L345.72 470.45C345.72 470.45 346.7 470.45 346.7 471.43C345.72 471.43 345.72 472.41 345.72 472.41L341.81 477.3C340.83 478.28 339.85 478.28 337.9 478.28C337.9 478.28 336.92 477.3 336.92 476.32L337.9 475.34C337.9 474.36 338.88 474.36 339.86 473.38C340.83 473.39 341.81 472.41 342.79 472.41ZM344.74 498.82C344.74 500.78 343.76 501.75 342.78 502.73C342.78 503.71 342.78 503.71 341.8 503.71C341.8 504.69 340.82 504.69 339.84 503.71V501.75C339.84 498.82 340.82 496.86 342.77 495.88C343.75 493.92 344.73 492.95 345.7 492.95C345.7 491.97 346.68 491.97 346.68 491.97C346.68 491.97 348.64 491.97 348.64 492.95C348.64 492.95 348.64 493.93 347.66 494.91L344.74 498.82ZM361.36 498.82C357.45 500.78 354.52 503.71 352.56 507.62C352.56 508.6 351.58 509.58 351.58 510.55L349.62 512.51C348.64 513.49 347.66 512.51 346.69 511.53V509.57C346.69 508.59 346.69 506.64 347.67 505.66L351.58 498.82L358.42 493.93L366.24 491C366.24 490.02 367.22 490.02 367.22 490.02C368.2 490.02 369.18 490.02 369.18 491C369.18 491.98 368.2 492.96 368.2 492.96C366.25 495.88 363.32 497.84 361.36 498.82ZM373.1 211.34C372.12 212.32 372.12 212.32 371.14 212.32C370.16 213.3 368.21 213.3 366.25 214.28C364.29 215.26 361.36 216.24 359.41 216.24L355.5 218.2C354.52 218.2 354.52 217.22 353.54 217.22C352.56 217.22 352.56 216.24 352.56 216.24C352.56 215.26 353.54 215.26 353.54 214.28C354.52 212.32 356.47 212.32 358.43 211.35C361.36 209.4 364.3 208.42 368.21 207.44C369.19 206.46 370.17 206.46 372.12 206.46C373.1 207.44 374.08 208.42 374.08 209.39C374.08 210.36 374.08 211.34 373.1 211.34ZM356.47 486.1C356.47 485.12 357.45 485.12 357.45 485.12C358.43 485.12 359.41 484.14 360.38 483.16C360.38 483.16 360.38 482.18 361.36 482.18C362.34 482.18 363.32 482.18 363.32 484.14C363.32 484.14 362.34 484.14 362.34 485.12C361.36 486.1 361.36 487.08 360.38 487.08C359.4 489.04 358.42 490.01 357.45 490.01H354.52C353.54 489.03 352.56 489.03 353.54 488.05C354.52 487.08 355.5 486.1 356.47 486.1ZM356.47 378.54C355.49 378.54 355.49 379.52 354.51 378.54C354.51 378.54 354.51 377.56 353.53 376.58C354.51 376.58 354.51 375.6 354.51 374.62C355.49 372.66 357.44 370.71 359.4 369.73H362.33C363.31 369.73 364.29 370.71 363.31 371.69C363.31 372.67 363.31 373.65 362.33 373.65L356.47 378.54ZM354.52 366.81C354.52 364.85 355.5 363.88 356.48 362.9C357.46 361.92 358.44 361.92 358.44 362.9C359.42 362.9 360.4 362.9 360.4 364.86L359.42 365.84C358.44 366.82 357.46 367.8 355.51 367.8C354.52 367.79 354.52 367.79 354.52 366.81ZM366.25 504.68C364.29 506.64 363.32 508.59 362.34 511.52C362.34 512.5 361.36 514.45 360.38 515.43C358.42 517.39 358.42 517.39 357.45 515.43C357.45 514.45 357.45 513.47 356.47 513.47L359.4 505.65L362.33 503.69L366.24 501.73H367.22C367.22 500.75 368.2 501.73 368.2 502.71C367.23 502.73 367.23 503.7 366.25 504.68ZM360.39 390.28C358.43 391.26 357.46 390.28 357.46 388.32C357.46 386.36 358.44 385.39 359.42 383.43C360.4 381.47 361.38 380.5 363.33 379.52C364.31 378.54 366.26 378.54 367.24 378.54C368.22 379.52 368.22 381.47 367.24 382.45L361.37 389.29L360.39 390.28ZM363.32 399.08C363.32 399.08 363.32 398.1 362.34 397.12C363.32 394.19 364.3 391.25 366.25 389.3C367.23 388.32 368.21 387.34 370.16 388.32C372.12 389.3 372.12 390.28 371.14 393.21L367.23 399.08C367.23 400.06 366.25 400.06 366.25 400.06C364.3 401.04 364.3 401.04 363.32 399.08ZM363.32 352.14C363.32 351.16 363.32 350.18 364.3 349.21L370.17 347.25H373.1C376.03 347.25 378.97 348.23 380.92 350.18C380.92 350.18 380.92 351.16 381.9 351.16C381.9 352.14 381.9 353.12 380.92 354.09C379.94 355.07 378.96 356.05 377.99 355.07C377.01 355.07 376.03 354.09 375.06 354.09C374.08 352.13 372.13 352.13 371.15 353.11C369.19 353.11 368.22 354.09 367.24 354.09C365.27 355.08 364.3 354.1 363.32 352.14ZM382.88 503.7C382.88 503.7 383.86 503.7 383.86 504.68V505.66C381.9 507.62 380.93 509.57 378.97 510.55C377.99 510.55 377.01 511.53 376.04 512.51C376.04 513.49 375.06 513.49 374.08 514.47C374.08 515.45 373.1 515.45 372.12 516.43C372.12 517.41 371.14 519.36 371.14 520.34L368.21 524.25C367.23 524.25 366.25 524.25 366.25 523.27C365.27 522.29 365.27 521.31 365.27 521.31C365.27 517.4 366.25 514.47 368.2 512.51L371.13 509.58C372.11 508.6 374.06 508.6 376.02 507.62C377.98 507.62 379.93 506.64 380.91 504.69L381.89 503.71H382.88V503.7ZM377.99 399.08V401.04C377.01 403 376.03 404.95 376.03 406.91C375.05 407.89 375.05 408.87 375.05 408.87C374.07 409.85 373.09 410.83 372.12 409.85C371.14 409.85 370.16 408.87 370.16 407.89V400.07L372.12 397.14C373.1 396.16 374.08 395.18 376.03 395.18C377.01 396.15 377.99 398.1 377.99 399.08ZM376.03 366.81H374.07C372.11 366.81 371.14 365.83 371.14 363.88C371.14 362.9 372.12 360.95 374.07 360.95C375.05 360.95 376.03 360.95 377 361.93C377.98 362.91 378.96 362.91 378.96 364.86C378.96 365.83 377.01 365.83 376.03 366.81ZM393.63 215.25C392.65 216.23 391.67 216.23 390.7 216.23C386.79 218.19 382.88 219.16 378.97 219.16C377.01 220.14 376.04 220.14 374.08 220.14H372.12V219.16L381.9 214.27L388.74 212.31H392.65C393.63 212.31 394.61 212.31 394.61 213.29C394.61 214.27 393.63 215.25 393.63 215.25ZM377.01 499.79L373.1 501.75L372.12 500.77C373.1 499.79 374.08 498.81 374.08 497.84C375.06 496.86 376.04 496.86 377.01 496.86C377.99 497.84 377.99 498.82 377.01 499.79ZM378.96 312.05C378.96 311.07 379.94 310.09 379.94 309.12C381.9 308.14 383.85 306.19 385.81 306.19C389.72 305.21 391.68 303.26 393.63 300.32L395.59 298.36L400.48 294.45C400.48 293.47 401.46 293.47 402.44 292.49H403.42C404.4 292.49 405.38 293.47 405.38 294.45C405.38 295.43 404.4 296.41 404.4 296.41C400.49 299.34 398.53 302.28 396.58 305.21L393.65 309.12C391.69 311.08 388.76 311.08 386.81 312.05C384.85 312.05 382.9 313.03 381.92 313.03C380.92 313.03 378.96 313.03 378.96 312.05ZM385.81 410.81C385.81 411.79 386.79 411.79 386.79 412.77C385.81 413.75 385.81 414.73 385.81 415.7C385.81 416.68 384.83 416.68 383.85 416.68L381.89 414.72C381.89 413.74 380.91 411.79 379.93 410.81L378.95 409.83C378.95 407.87 380.91 405.92 381.88 405.92C382.86 405.92 383.84 405.92 383.84 406.9C384.83 407.88 385.81 408.86 385.81 410.81ZM385.81 334.54C386.79 335.52 386.79 336.49 386.79 337.47L383.86 343.34C382.88 344.32 381.9 344.32 380.93 344.32C379.96 344.32 379.95 342.36 379.95 341.39V340.41C380.93 338.45 380.93 336.5 382.88 335.52C383.85 333.57 384.83 333.57 385.81 334.54ZM387.76 321.83L384.83 319.87C384.83 318.89 384.83 317.91 385.81 316.94C386.79 315.96 387.77 314.98 388.74 314.98C390.7 314 391.67 313.02 393.63 313.02L396.56 310.09C396.56 309.11 397.54 309.11 398.52 308.13H400.48C400.48 309.11 401.46 309.11 401.46 310.09C400.48 310.09 400.48 311.07 400.48 312.05C398.52 314.98 396.57 317.92 393.64 318.89C391.68 319.87 390.71 320.85 388.75 320.85C388.74 320.85 387.76 320.85 387.76 321.83ZM388.74 344.32C386.78 344.32 385.81 342.36 386.78 340.41C386.78 339.43 387.76 337.48 388.74 336.5C390.7 333.57 392.65 331.61 394.61 327.7C394.61 327.7 394.61 326.72 395.59 326.72C397.55 325.74 399.5 326.72 399.5 328.68C400.48 331.61 399.5 333.57 398.52 335.52C398.52 336.5 397.54 336.5 397.54 337.48C400.47 335.52 402.43 333.57 403.41 330.64C404.39 329.66 404.39 328.68 404.39 328.68C404.39 327.7 405.37 327.7 405.37 327.7C405.37 326.72 406.35 325.74 407.33 325.74C408.31 325.74 409.29 326.72 409.29 327.7V330.63C409.29 333.56 408.31 334.54 407.33 337.47C406.35 340.4 403.42 343.34 400.49 345.29H399.51C397.55 346.27 396.58 345.29 395.6 345.29C395.6 344.31 394.62 343.33 395.6 341.38H394.62C394.62 342.36 393.64 343.34 392.66 343.34C391.68 344.32 390.7 345.3 388.74 344.32ZM415.14 591.71H416.12C416.12 592.69 416.12 593.67 415.14 594.64L409.27 604.42L404.38 611.26C402.42 613.22 400.47 615.17 399.49 617.13C397.53 618.11 395.58 619.09 394.6 621.04L388.73 623.97L387.75 624.95C386.77 623.97 387.75 623.97 387.75 622.99C389.71 620.06 392.64 615.17 395.57 612.23C398.5 610.27 399.48 607.34 401.44 605.39L405.35 600.5C407.31 598.54 410.24 596.59 412.19 593.66L415.14 591.71ZM478.7 358.01V360.94L476.74 362.9L472.83 365.83C469.9 369.74 465.01 373.65 461.1 376.59C460.12 376.59 459.14 377.57 459.14 377.57C458.16 378.55 458.16 379.53 457.18 379.53C458.16 380.51 459.14 379.53 459.14 379.53C462.07 379.53 465.01 377.57 466.96 375.62L468.92 373.66C469.9 373.66 469.9 373.66 470.88 374.64C470.88 374.64 471.86 375.62 470.88 375.62C470.88 376.6 470.88 377.58 469.9 377.58L466.97 382.47C464.04 385.4 462.08 386.38 459.15 387.36C456.22 387.36 454.26 388.34 452.31 388.34H447.42C445.46 388.34 443.51 388.34 441.55 387.36C439.59 387.36 438.62 387.36 438.62 385.4C437.64 384.42 437.64 382.47 438.62 381.49C439.6 380.51 441.55 379.53 442.53 379.53C443.51 378.55 445.46 377.57 446.44 377.57C447.42 376.59 447.42 376.59 448.4 376.59V374.63L439.6 368.76C438.62 368.76 438.62 368.76 438.62 369.74C437.64 369.74 437.64 371.7 436.66 372.67C434.7 374.63 432.75 375.6 429.82 375.6C427.86 376.58 425.91 375.6 423.95 375.6C421.02 374.62 420.04 371.69 419.06 368.76C418.08 366.8 419.06 363.87 420.04 361.92C420.04 360.94 420.04 360.94 419.06 360.94C418.08 360.94 418.08 359.96 417.1 359.96C415.14 359.96 413.19 359.96 412.21 360.94C410.25 360.94 408.3 361.92 406.34 361.92V362.9L408.3 365.83C409.28 367.79 408.3 368.76 407.32 370.72C406.34 371.7 404.39 371.7 402.43 371.7L398.52 368.77L396.56 365.84L393.63 361.93C392.65 361.93 392.65 360.95 391.67 360.95C391.67 359.97 390.69 358.99 390.69 358.02C389.71 358.02 388.73 357.04 389.71 356.06C389.71 355.08 389.71 354.1 391.67 354.1C391.67 353.12 392.65 354.1 393.63 354.1C394.61 354.1 396.56 355.08 397.54 355.08C399.5 355.08 400.47 355.08 402.43 354.1C405.36 353.12 408.3 352.14 412.21 352.14C414.17 351.16 416.12 352.14 418.08 352.14C419.06 352.14 421.01 353.12 421.99 353.12C424.92 353.12 426.88 354.1 429.81 354.1L436.65 356.06L437.63 355.08C436.65 355.08 436.65 354.1 436.65 354.1V351.17H434.69C433.71 350.19 432.73 351.17 431.76 351.17C429.8 350.19 427.85 350.19 426.87 350.19L423.94 348.23C422.96 346.27 421.01 345.3 419.05 343.34C418.07 342.36 418.07 343.34 418.07 343.34C417.09 343.34 416.11 344.32 415.14 344.32C413.18 345.3 411.23 345.3 409.27 345.3C406.34 345.3 405.36 341.39 407.31 339.43C407.31 338.45 408.29 338.45 408.29 337.47L416.11 328.67C417.09 327.69 417.09 326.71 418.07 326.71C420.03 326.71 421 328.67 421 329.64C421 330.62 420.02 331.6 420.02 332.57V333.55H421L424.91 330.62C425.89 330.62 426.87 329.64 427.84 328.66H429.8C431.76 328.66 432.73 328.66 433.71 329.64C434.69 330.62 434.69 330.62 435.67 329.64H436.65C439.58 328.66 439.58 328.66 441.54 329.64C445.45 330.62 449.36 331.6 453.27 334.53C456.2 336.48 459.14 339.42 461.09 342.35L464.02 347.24C464.02 348.22 465 349.2 465.98 350.17L472.82 356.04C472.82 357.02 473.8 357.02 474.78 357.02C476.75 356.06 477.72 357.03 478.7 358.01ZM394.61 515.44C395.59 514.46 396.57 514.46 397.54 514.46C397.54 515.44 398.52 516.42 397.54 517.39C396.56 520.32 394.61 521.3 392.65 522.28H389.72V521.3C389.72 521.3 389.72 520.32 390.7 519.34L394.61 515.44ZM393.63 419.61C391.67 419.61 390.7 416.68 391.67 414.72C391.67 413.74 392.65 413.74 393.63 413.74C394.61 413.74 394.61 414.72 394.61 415.7V416.68H395.59C394.61 417.66 394.61 418.64 394.61 419.61H393.63ZM411.23 221.12L399.5 224.05H394.61C393.63 224.05 392.65 225.03 392.65 224.05C393.63 224.05 393.63 223.07 394.61 223.07C398.52 220.14 402.43 219.16 406.34 218.18C407.32 218.18 408.3 217.2 409.27 217.2C410.25 217.2 411.23 218.18 412.2 218.18C413.17 218.18 413.18 220.14 412.2 220.14L411.23 221.12ZM402.43 518.37C402.43 517.39 403.41 516.41 404.39 516.41C405.37 516.41 406.35 517.39 406.35 518.37C406.35 519.35 405.37 520.33 404.39 520.33C403.41 520.33 402.43 520.33 402.43 518.37ZM431.77 422.55C431.77 423.53 430.79 423.53 430.79 423.53L424.92 426.46C421.99 428.42 419.05 430.37 416.12 431.35L413.19 435.26C411.23 437.22 410.26 438.19 407.32 438.19C406.34 439.17 406.34 439.17 405.36 438.19C404.38 438.19 403.4 436.23 403.4 435.26L405.36 431.35C406.34 428.42 408.29 425.48 411.23 423.53C412.21 422.55 414.16 421.57 415.14 421.57C417.1 420.59 419.05 421.57 421.01 420.59C423.94 420.59 425.9 419.61 428.83 418.63H429.81L430.79 417.65C431.77 417.65 432.75 418.63 433.72 419.61C433.72 420.59 433.72 422.55 431.77 422.55ZM408.3 191.78C408.3 191.78 408.3 190.8 409.28 190.8C413.19 189.82 416.12 188.84 419.06 188.84C421.99 187.86 424.93 187.86 426.88 187.86H431.77C434.7 187.86 437.64 186.88 439.59 185.9L446.43 181.01L454.25 178.08C459.14 178.08 464.03 178.08 467.94 176.12C469.9 176.12 470.87 175.14 472.83 174.16C472.83 174.16 473.81 173.18 473.81 172.2C474.79 172.2 474.79 172.2 475.77 171.22L476.75 172.2V173.18L474.79 176.11C471.86 180.02 467.95 182.95 463.06 183.93H457.19L450.35 185.89L444.48 188.82C442.52 190.78 440.57 191.75 437.64 192.73C436.66 193.71 434.71 193.71 433.73 193.71H427.86C425.9 193.71 423.95 193.71 421.02 192.73H416.13C414.17 192.73 411.24 192.73 409.29 191.75H408.3V191.78ZM408.3 524.24C408.3 523.26 408.3 523.26 409.28 522.28C409.28 521.3 410.26 520.32 411.24 520.32C412.22 520.32 412.22 521.3 412.22 522.28C413.2 523.26 412.22 523.26 412.22 524.24L410.26 526.2C409.28 527.18 408.3 526.2 408.3 526.2V524.24V524.24ZM426.88 225.03C426.88 226.01 425.9 226.99 424.92 226.99C421.99 227.97 419.05 228.95 416.12 227.97C414.16 227.97 413.19 228.95 411.23 227.97L410.25 226.99C409.27 226.99 409.27 226.99 409.27 226.01H410.25C413.18 224.05 416.12 224.05 419.05 223.08C421.01 223.08 421.98 223.08 422.96 222.1C423.94 222.1 424.92 222.1 425.89 223.08C427.85 223.07 427.85 224.05 426.88 225.03ZM409.28 290.54L412.21 284.67L415.14 280.76L416.12 279.78C416.12 279.78 417.1 278.8 417.1 279.78C418.08 279.78 419.06 280.76 418.08 281.74V282.72C418.08 284.68 417.1 287.61 415.15 289.56L413.19 292.49C412.21 293.47 411.23 293.47 410.26 292.49C409.28 292.5 409.28 291.52 409.28 290.54ZM442.52 395.17V397.13C442.52 399.09 440.56 400.06 438.61 401.04L437.63 402.02C433.72 403 430.79 404.95 426.87 404.95C424.91 404.95 423.94 405.93 422.96 405.93C420.03 405.93 418.07 405.93 416.12 403.97H415.14C415.14 402.99 414.16 402.99 414.16 402.01C414.16 402.01 415.14 401.03 416.12 401.03C417.1 401.03 418.08 400.05 419.05 400.05C421.01 400.05 422.96 399.07 424.92 398.09C428.83 397.11 430.79 395.16 433.72 394.18C435.68 393.2 436.65 392.22 438.61 392.22C440.57 392.23 442.52 393.21 442.52 395.17ZM417.1 305.21C418.08 305.21 419.06 304.23 420.03 304.23H422.96C423.94 304.23 424.92 304.23 425.89 303.25H428.82C431.75 303.25 434.69 304.23 437.62 305.21L450.33 310.1C452.29 310.1 454.24 311.08 455.22 313.03H456.2L455.22 314.01C451.31 314.01 448.38 313.03 444.46 312.05C442.5 311.07 439.57 310.09 436.64 310.09H428.82C425.89 310.09 423.93 310.09 421 309.11C420.02 309.11 419.04 308.13 418.07 308.13C417.09 308.13 417.09 308.13 416.11 307.15C416.11 307.15 415.13 307.15 415.13 306.17C415.14 305.21 416.12 305.21 417.1 305.21ZM416.12 529.13V525.22C417.1 524.24 418.08 523.26 419.05 523.26C420.02 523.26 421.01 525.22 421.01 526.19C421.01 527.17 420.03 529.12 418.08 530.1C418.08 530.11 417.1 530.11 416.12 529.13ZM420.03 291.52C420.03 290.54 421.01 288.59 421.01 286.63L421.99 285.65C422.97 284.67 423.95 284.67 424.92 285.65C425.9 286.63 425.9 287.61 425.9 288.58C424.92 289.56 424.92 290.54 423.94 290.54C422.96 291.52 421.98 292.5 421.01 292.5C420.03 293.48 420.03 292.5 420.03 292.5V291.52V291.52ZM479.68 157.56L476.75 162.45L471.86 165.38C468.93 167.34 465.99 168.31 463.06 168.31H458.17C455.24 168.31 453.28 168.31 452.3 170.27C449.37 172.23 445.46 173.2 442.52 174.18C441.54 174.18 439.59 174.18 438.61 175.16H421.99C421.99 175.16 421.01 175.16 421.01 174.18H421.99C421.99 174.18 422.97 173.2 423.95 173.2C429.82 172.22 435.68 171.24 442.53 169.29L449.37 165.38L454.26 162.45H463.06C466.97 163.43 469.9 161.47 472.84 159.52L476.75 156.59H478.71C478.71 155.61 478.71 155.61 479.69 156.59V157.56H479.68ZM425.9 533.04C425.9 532.06 424.92 530.11 424.92 529.13C425.9 528.15 425.9 527.17 425.9 527.17C426.88 525.21 427.86 525.21 428.83 526.19C429.81 526.19 429.81 527.17 429.81 528.15C429.81 530.11 428.83 532.06 426.88 533.04H425.9ZM444.48 230.9L441.55 232.86C438.62 232.86 436.66 233.84 434.71 233.84C433.73 233.84 432.75 233.84 431.78 234.82C430.8 234.82 428.85 233.84 427.87 233.84C427.87 232.86 426.89 232.86 427.87 231.88C428.85 230.9 430.8 229.92 432.76 229.92L441.56 227.96C442.54 227.96 442.54 227.96 443.52 228.94C444.48 228.94 444.48 229.92 444.48 230.9ZM428.83 500.77C427.85 499.79 427.85 498.81 427.85 497.84C427.85 496.86 429.81 495.88 430.78 496.86C433.71 497.84 436.65 497.84 438.6 497.84C440.56 498.82 442.51 498.82 445.44 498.82C447.4 499.8 450.33 500.78 453.26 500.78C457.17 501.76 461.08 500.78 465.97 501.76H467.93C468.91 501.76 470.86 502.74 470.86 502.74C471.84 504.7 471.84 506.65 469.88 506.65C469.88 507.63 469.88 507.63 468.9 508.61C468.9 509.59 467.92 510.57 465.97 511.54C464.99 511.54 464.01 512.52 463.04 512.52C460.11 514.48 457.17 515.45 454.24 516.43H450.33C448.37 516.43 446.42 516.43 445.44 515.45C442.51 514.47 440.55 513.49 439.57 511.54C439.57 510.56 438.59 509.58 438.59 508.61C436.63 506.65 435.66 504.7 432.72 503.72L428.83 500.77ZM441.54 432.32C440.56 434.28 440.56 436.23 440.56 439.16C440.56 441.12 440.56 442.09 439.58 444.05V445.03C438.6 446.99 437.62 446.99 436.65 446.01C434.69 445.03 433.72 444.05 433.72 442.1C432.74 440.14 431.76 438.19 431.76 436.23C431.76 433.3 431.76 430.36 434.69 429.39C435.67 428.41 436.65 427.43 437.62 427.43C440.57 427.44 442.52 430.37 441.54 432.32ZM481.63 143.87L477.72 148.76L472.83 151.69C470.87 152.67 468.92 153.65 466.96 153.65C465 154.63 463.05 154.63 462.07 154.63C459.14 153.65 456.2 154.63 454.25 155.61C450.34 157.57 446.43 159.52 441.54 160.5H435.67C435.67 160.5 434.69 161.48 433.71 160.5C433.71 159.52 434.69 159.52 435.67 159.52C440.56 157.56 445.45 155.61 450.34 152.68C452.3 151.7 453.27 151.7 455.23 149.75C456.21 149.75 457.19 148.77 459.14 148.77C460.12 148.77 462.07 147.79 464.03 147.79C468.92 148.77 473.81 146.81 478.7 142.9C479.68 142.9 479.68 141.92 480.66 141.92C481.64 141.92 482.62 141.92 482.62 142.9C481.63 142.89 481.63 143.87 481.63 143.87ZM438.61 531.08C438.61 532.06 438.61 533.04 437.63 534.01C437.63 534.01 437.63 534.99 436.65 534.99C435.67 534.99 435.67 534.99 434.69 534.01C434.69 533.03 433.71 531.08 434.69 530.1C434.69 529.12 435.67 528.14 436.65 528.14C437.63 528.14 438.61 529.12 438.61 530.1V531.08V531.08ZM468.92 448.95C469.9 449.93 470.88 450.91 470.88 452.86C469.9 454.82 468.92 454.82 466.97 454.82C465.99 454.82 465.01 454.82 464.04 453.84C462.08 452.86 459.15 452.86 456.22 452.86H453.29C451.33 453.84 450.36 452.86 449.38 452.86C448.4 451.88 447.42 451.88 446.45 451.88C446.45 450.9 445.47 450.9 445.47 450.9C444.49 450.9 443.51 448.94 443.51 448.94C444.49 447.96 444.49 446.98 445.47 446.98C446.45 446.98 446.45 446 447.43 446.98C447.43 446.98 448.41 446.98 448.41 446C452.32 444.04 455.25 443.07 459.17 444.04C463.06 444.06 466.97 446.01 468.92 448.95ZM449.37 533.04V534.02C448.39 535 447.41 536.95 447.41 536.95C445.45 536.95 444.48 534.99 444.48 534.02V533.04H443.5C444.48 533.04 444.48 532.06 444.48 531.08C445.46 531.08 446.44 530.1 447.41 531.08C448.39 531.08 448.39 532.06 449.37 533.04ZM484.57 129.2L483.59 130.18L478.7 136.05C476.74 138.01 474.79 138.98 471.86 138.98C470.88 138.98 469.9 139.96 468.93 139.96C466.97 139.96 466 139.96 464.04 140.94C460.13 139.96 455.24 140.94 451.33 142.9C450.35 142.9 448.4 143.88 447.42 143.88H446.44V142.9C449.37 140.94 451.33 138.99 454.26 138.01C457.19 136.05 460.13 136.05 462.08 135.08C465.99 134.1 468.92 134.1 471.86 134.1C473.82 134.1 475.77 132.14 477.73 131.17L481.64 127.26H482.62C482.62 126.28 483.6 126.28 484.58 127.26V129.2H484.57ZM446.43 239.7C446.43 238.72 446.43 238.72 447.41 237.74C448.39 236.76 450.34 236.76 452.3 235.78C454.26 235.78 455.23 234.8 457.19 234.8C459.15 234.8 460.12 235.78 461.1 236.76C461.1 237.74 461.1 237.74 460.12 238.72C459.14 239.7 458.16 239.7 457.19 239.7C456.21 240.68 454.26 240.68 452.3 240.68C450.34 240.68 449.37 240.68 448.39 239.7H446.43ZM551.06 314.99C553.02 317.92 553.02 319.88 551.06 322.81C549.1 324.77 547.15 326.72 544.22 327.7C543.24 328.68 542.26 329.66 540.31 329.66C539.33 329.66 539.33 330.64 539.33 330.64C538.35 332.6 538.35 334.55 538.35 336.51C537.37 338.47 537.37 340.42 537.37 342.38C536.39 343.36 536.39 345.31 536.39 346.29C535.41 348.25 534.43 349.22 533.46 349.22C532.48 349.22 531.5 347.26 530.53 346.29C530.53 343.36 529.55 340.42 529.55 338.47C528.57 336.51 528.57 335.54 528.57 333.58V330.65C529.55 327.72 528.57 325.76 528.57 322.83C529.55 321.85 529.55 320.87 529.55 319.9V315.99C529.55 315.01 529.55 313.06 527.59 312.08L522.7 308.17L518.79 305.24L512.92 302.31C509.01 301.33 506.08 300.35 502.16 298.4C500.2 297.42 497.27 296.44 495.32 294.49C491.41 292.53 487.5 290.58 483.59 289.6C478.7 287.64 474.79 285.69 469.9 284.71C465.01 283.73 461.1 281.78 456.21 279.82C455.23 279.82 454.25 278.84 453.28 278.84C452.3 278.84 451.32 277.86 450.35 277.86V276.88C450.35 275.9 451.33 275.9 451.33 275.9H452.31C455.24 275.9 457.2 276.88 460.13 276.88C466 278.84 471.86 280.79 477.73 281.77C481.64 283.73 486.53 284.7 491.42 286.66L499.24 289.59L511.95 295.46L515.86 297.42C517.82 298.4 520.75 298.4 522.7 298.4C525.63 299.38 528.57 300.36 531.5 302.31L538.34 305.24C542.25 306.22 545.18 309.15 548.12 311.11C550.08 312.05 551.06 313.03 551.06 314.99ZM486.52 117.47C483.59 117.47 481.63 119.43 479.68 121.38C478.7 123.34 476.75 125.29 474.79 127.25C473.81 127.25 471.86 128.23 470.88 128.23H457.19C455.23 129.21 454.26 129.21 452.3 129.21V128.23L459.14 125.3C462.07 124.32 465.01 123.34 467.94 123.34C470.87 122.36 472.83 120.41 474.78 118.45C475.76 118.45 476.74 117.47 477.71 116.49C478.69 116.49 479.67 115.51 480.64 115.51H484.55C484.55 115.51 485.53 115.51 486.51 116.49V117.47H486.52ZM459.14 534.02V535.98C458.16 537.94 457.18 537.94 456.21 536.96C454.25 535 455.23 533.05 456.21 533.05C458.17 532.06 459.14 533.04 459.14 534.02ZM457.19 243.61C460.12 243.61 463.06 242.63 465.99 242.63C467.95 241.65 468.92 241.65 469.9 241.65C470.88 241.65 471.86 241.65 471.86 242.63C471.86 243.61 471.86 243.61 470.88 244.59C470.88 244.59 469.9 245.57 468.92 245.57H457.19C457.19 245.57 457.19 244.59 456.21 244.59C457.19 244.59 457.19 243.61 457.19 243.61ZM462.08 393.21C461.1 393.21 461.1 392.23 461.1 391.25C461.1 390.27 462.08 389.29 463.06 388.32C464.04 387.34 465.02 385.39 466.97 384.41C466.97 383.43 468.93 383.43 469.9 383.43C472.83 383.43 473.81 386.36 472.83 388.32C470.87 392.23 467.94 393.21 464.03 394.19C463.06 395.17 462.08 394.19 462.08 393.21ZM464.03 300.32H463.05C462.07 299.34 462.07 298.36 462.07 297.39C462.07 297.39 463.05 296.41 464.03 296.41L471.85 298.37L476.74 301.3C476.74 301.3 476.74 302.28 477.72 302.28C477.72 302.28 477.72 303.26 476.74 303.26H475.76C473.8 303.26 471.85 303.26 469.89 302.28L464.03 300.32ZM475.77 401.04C475.77 403 474.79 403.97 472.84 403.97C470.88 403.97 469.91 402.99 469.91 401.04C469.91 399.08 471.87 398.11 472.84 398.11C474.79 398.1 475.77 399.08 475.77 401.04ZM471.86 250.45L472.84 249.47C473.82 249.47 475.77 248.49 477.73 248.49C478.71 248.49 480.66 247.51 481.64 247.51H483.6C483.6 247.51 484.58 248.49 484.58 249.47L483.6 250.45H481.64C479.68 251.43 478.71 251.43 476.75 251.43C475.77 251.43 473.82 251.43 472.84 250.45H471.86ZM518.79 332.59L517.81 333.57H514.88C512.92 333.57 509.99 334.55 507.06 334.55C506.08 335.53 505.1 334.55 504.13 334.55C500.22 334.55 496.31 334.55 493.37 331.62L488.48 328.69C486.52 326.73 484.57 325.76 482.61 324.78C481.63 324.78 481.63 323.8 481.63 322.82C481.63 321.84 482.61 321.84 483.59 321.84C487.5 321.84 491.41 322.82 495.32 324.77C497.28 326.73 500.21 327.7 503.14 328.68C504.12 329.66 506.07 329.66 507.05 329.66C510.96 328.68 514.87 330.64 517.81 331.62C517.81 331.61 517.81 332.59 518.79 332.59ZM495.32 356.06C495.32 357.04 494.34 358.99 493.36 359.97L489.45 362.9C489.45 363.88 488.47 363.88 487.49 363.88C484.56 363.88 483.58 362.9 484.56 359.97C484.56 358.01 485.54 357.04 486.52 356.06L489.45 353.13V352.15C491.41 351.17 492.38 350.19 493.36 351.17C495.32 352.14 496.3 354.1 495.32 356.06ZM486.52 257.3L485.54 256.32C485.54 255.34 486.52 255.34 486.52 255.34C490.43 254.36 493.36 254.36 497.28 254.36H498.26C499.24 255.34 499.24 256.32 498.26 257.29C497.28 257.29 497.28 258.27 496.3 258.27H492.39C490.43 257.29 489.46 258.27 487.5 257.29H486.52V257.3ZM500.21 264.14V263.16L505.1 261.2C507.06 261.2 509.01 260.22 511.94 260.22H512.92C513.9 260.22 514.88 262.18 513.9 262.18C512.92 263.16 512.92 264.14 511.94 264.14H509.01C507.05 264.14 506.08 265.12 505.1 265.12C504.12 265.12 502.17 264.14 501.19 264.14H500.21ZM518.79 361.92C517.81 361.92 517.81 362.9 517.81 362.9C515.85 366.81 513.9 369.74 510.97 370.72C509.99 371.7 509.01 371.7 508.04 371.7C506.08 371.7 505.11 369.74 506.08 367.79C507.06 366.81 507.06 365.83 508.04 365.83L514.88 359.96C514.88 358.98 515.86 358.98 516.84 358.98C517.81 359.97 518.79 360.94 518.79 361.92ZM517.81 270.01C516.83 270.01 516.83 270.01 515.85 269.03C515.85 268.05 516.83 268.05 517.81 268.05L522.7 266.09H524.66C525.64 266.09 525.64 267.07 526.62 267.07C526.62 268.05 525.64 269.03 525.64 269.03C524.66 269.03 523.68 269.03 523.68 270.01H517.81ZM529.55 274.9C529.55 274.9 528.57 273.92 529.55 273.92C530.53 272.94 532.48 271.97 534.44 271.97C535.42 270.99 536.4 271.97 537.37 272.95C537.37 273.93 536.39 274.91 535.41 274.91C534.43 275.89 533.45 275.89 532.48 275.89C531.5 275.88 530.52 275.88 529.55 274.9ZM539.33 278.81C538.35 278.81 538.35 278.81 538.35 277.83C539.33 276.85 540.31 275.87 541.28 275.87C542.26 274.89 543.24 275.87 543.24 275.87C544.22 276.85 544.22 276.85 544.22 277.83C544.22 278.81 543.24 278.81 542.26 278.81H539.33ZM564.75 329.65C564.75 333.56 563.77 338.45 560.84 341.38C560.84 341.38 559.86 342.36 559.86 343.34C557.9 345.3 556.93 347.25 555.95 349.21C554.97 353.12 553.02 356.05 551.06 358.01H549.1V357.03C550.08 356.05 550.08 355.07 550.08 354.1C551.06 351.17 552.04 349.21 552.04 346.28C552.04 343.35 553.02 341.39 554.97 339.44L558.88 334.55C560.84 333.57 561.81 331.62 561.81 328.68C562.79 328.68 562.79 327.7 563.77 326.72H564.75C564.75 327.7 565.73 327.7 564.75 328.68V329.65ZM639.06 330.63C640.04 330.63 641.02 331.61 641.02 332.59V333.57C640.04 334.55 639.06 335.53 638.09 334.55H628.31C626.35 333.57 624.4 333.57 622.44 333.57H619.51C617.55 333.57 616.58 333.57 615.6 332.59H610.71C606.8 332.59 603.87 332.59 600.93 331.61H596.04C594.08 331.61 591.15 330.63 589.2 329.65C585.29 328.67 581.38 326.72 577.47 326.72L569.65 323.79C564.76 322.81 560.85 319.88 556.94 316.95C554.01 314.99 552.05 313.04 551.07 310.11C550.09 310.11 550.09 309.13 551.07 309.13H552.05C554.01 310.11 556.94 311.09 558.89 311.09C563.78 313.05 567.69 314.02 572.58 315C577.47 316.96 582.36 316.96 586.27 318.91L595.07 321.84C597.03 322.82 598.98 323.8 600.94 323.8C602.9 324.78 605.83 324.78 607.78 324.78C612.67 325.76 618.54 326.74 623.42 328.69C626.35 329.67 630.26 330.65 634.18 330.65H639.06V330.63ZM558.88 289.56C555.95 288.58 553.99 286.63 552.04 284.67L553.02 283.69H554.98C559.87 283.69 563.78 285.65 567.69 287.6C570.62 289.56 573.56 290.53 575.51 292.49C579.42 293.47 582.35 295.42 585.29 297.38L595.07 301.29L602.89 305.2L607.78 308.13L613.65 311.06C614.63 311.06 615.61 312.04 616.58 313.02L623.42 315.95V316.93C622.44 316.93 622.44 316.93 621.46 315.95C618.53 314.97 616.57 313.02 612.66 313.02L602.88 309.11L591.15 306.18C588.22 304.22 585.28 303.25 582.35 302.27L578.44 299.34C574.53 297.38 570.62 295.43 566.71 292.5L558.88 289.56ZM573.55 334.54C573.55 336.49 572.57 339.43 572.57 341.38C571.59 344.31 569.64 345.29 568.66 348.22L566.7 351.15L563.77 353.11C562.79 354.09 562.79 353.11 562.79 353.11C561.81 353.11 561.81 352.13 561.81 352.13C561.81 350.17 561.81 348.22 562.79 346.26L566.7 341.37C568.66 339.41 569.63 336.48 570.61 333.55C570.61 332.57 570.61 332.57 571.59 331.59C571.59 330.61 572.57 330.61 572.57 331.59C573.55 331.59 573.55 331.59 573.55 332.57V334.54V334.54ZM583.33 335.52V338.45C583.33 342.36 582.35 345.29 580.4 349.21C579.42 350.19 578.44 352.14 576.49 352.14C574.53 353.12 572.58 352.14 573.56 350.18C573.56 349.2 573.56 348.22 574.54 347.25L577.47 342.36C579.43 340.4 580.4 338.45 580.4 335.52C580.4 334.54 581.38 333.56 582.36 333.56C582.35 333.57 583.33 334.54 583.33 335.52ZM594.08 340.41C594.08 343.34 594.08 345.3 592.12 347.25C592.12 348.23 591.14 349.21 590.16 349.21C590.16 350.19 589.18 350.19 588.2 350.19C587.22 349.21 586.24 348.23 587.22 347.26C587.22 345.3 587.22 344.33 588.2 343.35C589.18 341.39 590.16 339.44 590.16 336.51C591.14 335.53 592.12 334.56 593.09 335.53C594.07 336.51 594.07 337.49 594.07 338.46V340.41H594.08ZM604.84 337.48C605.82 339.44 605.82 341.39 604.84 343.35C604.84 344.33 603.86 345.31 602.88 346.28C601.9 347.26 600.92 348.24 600.92 347.26C599.94 346.28 599.94 346.28 599.94 345.3V337.48C600.92 336.5 600.92 335.52 601.9 335.52C602.88 335.52 603.86 336.5 604.84 337.48ZM618.53 339.43C619.51 341.39 618.53 343.34 617.55 345.3C616.57 346.28 615.59 346.28 614.62 346.28C613.64 346.28 613.64 345.3 612.66 344.32V341.39C612.66 340.41 612.66 338.46 613.64 337.48C614.62 335.52 617.55 335.52 617.55 337.48C618.53 337.48 618.53 338.46 618.53 339.43Z" fill="url(#paint0_linear_606_39)"/>
<defs>
<linearGradient id="paint0_linear_606_39" x1="112" y1="92" x2="678" y2="698" gradientUnits="userSpaceOnUse">
<stop stop-color="#CD8258"/>
<stop offset="1" stop-color="#74453A"/>
</linearGradient>
</defs>
</svg>
