<svg width="790" height="790" viewBox="0 0 790 790" fill="none" xmlns="http://www.w3.org/2000/svg">
<path d="M725.684 114.58L716.884 117.51L706.124 120.44L697.324 123.37C693.414 125.33 689.504 127.28 685.594 130.21L679.724 134.12C677.764 137.05 675.814 139.01 674.834 141.94L668.964 153.67C666.034 159.54 664.074 164.43 663.094 171.27C662.114 174.2 661.134 178.11 661.134 182.03C661.134 184.96 660.154 187.9 658.204 190.83C657.224 192.79 655.274 194.74 655.274 196.7L652.344 207.46L650.384 214.3C650.384 217.23 649.404 220.17 649.404 223.1V228.97C648.424 231.9 648.424 234.84 648.424 236.79V237.77L646.464 250.48C644.504 259.28 642.554 268.08 638.644 275.9C638.644 277.86 637.664 279.81 636.684 281.77L632.774 293.5C630.814 300.34 627.884 306.21 624.954 313.06C622.024 317.95 619.084 322.84 615.174 326.75L610.284 330.66C610.284 330.66 609.304 331.64 608.324 331.64C604.414 333.6 602.454 335.55 600.504 338.48C599.524 340.44 598.544 342.39 596.594 343.37C594.634 346.3 591.704 347.28 588.774 349.24L581.934 351.2H579.004L574.114 353.16C573.134 353.16 571.184 353.16 570.204 354.14L563.364 356.1C561.404 357.08 558.474 357.08 556.524 357.08C554.564 358.06 552.614 358.06 550.654 358.06H546.744C542.834 358.06 538.924 359.04 535.984 360.02H531.094C529.134 360.02 528.164 361 527.184 361C524.254 361.98 522.294 361.98 519.364 361.98C518.384 361.98 516.434 361.98 514.474 361C511.544 360.02 509.584 360.02 506.654 358.07L504.694 356.11C503.714 355.13 503.714 354.15 502.734 354.15C501.754 354.15 500.774 353.17 498.824 354.15C497.844 354.15 495.894 355.13 493.934 357.08L490.024 360.01C488.064 360.99 488.064 360.99 490.024 362.94L491.004 363.92C493.934 366.85 495.894 370.76 497.844 374.68C498.824 375.66 498.824 377.61 499.804 379.57C500.784 381.53 500.784 384.46 499.804 386.41C499.804 389.34 498.824 392.28 497.844 394.23V405.96C497.844 410.85 497.844 414.76 496.864 418.67C495.884 421.6 494.904 423.56 494.904 426.49C494.904 431.38 493.924 436.27 490.994 440.18C489.034 444.09 486.104 447.02 483.174 448.98C480.244 451.91 479.264 454.85 477.304 457.78C477.304 459.74 476.324 461.69 475.344 463.65C474.364 465.61 473.384 466.58 471.434 467.56C469.474 468.54 469.474 470.49 467.524 472.45C466.544 473.43 466.544 474.41 466.544 476.36L463.614 486.14C463.614 488.1 463.614 491.03 462.634 492.98C462.634 495.91 461.654 499.82 461.654 502.76C461.654 507.65 460.674 512.54 460.674 517.43L462.634 524.27C463.614 528.18 464.594 532.09 464.594 535.03C464.594 538.94 463.614 542.85 461.664 546.76L457.754 554.58C456.774 555.56 455.794 557.51 453.844 558.49V559.47C452.864 562.4 451.884 565.34 451.884 568.27C450.904 571.2 449.924 573.16 447.974 575.11C446.994 575.11 446.014 577.07 445.044 579.02C445.044 580 444.064 580.98 443.084 580.98C442.104 582.94 441.124 584.89 441.124 586.85V616.18C441.124 618.14 440.144 620.09 440.144 623.02C440.144 624 440.144 625.95 439.164 626.93C439.164 630.84 439.164 633.77 438.184 636.71C437.204 639.64 437.204 642.58 437.204 645.51C436.224 648.44 436.224 652.35 436.224 656.27C436.224 657.25 436.224 659.2 437.204 660.18C437.204 661.16 436.224 663.11 437.204 664.09V675.82C438.184 677.78 437.204 679.73 436.224 680.71C434.264 681.69 433.294 683.64 432.314 684.62C431.334 688.53 428.404 689.51 424.494 690.49C422.534 691.47 419.604 691.47 417.654 691.47C414.724 691.47 412.764 691.47 410.814 692.45H400.054C398.094 692.45 396.144 692.45 395.164 691.47C393.204 690.49 392.234 688.54 391.254 686.58C391.254 683.65 391.254 680.71 392.234 678.76V675.83C391.254 676.81 390.274 677.79 390.274 678.76C389.294 680.72 389.294 682.67 390.274 684.63C390.274 687.56 390.274 689.52 388.314 691.47C385.384 695.38 381.474 696.36 376.584 695.38L363.874 691.47C361.914 691.47 359.964 691.47 358.004 690.49C356.044 690.49 353.114 689.51 352.134 688.53C351.154 688.53 350.174 687.55 349.204 686.57C348.224 685.59 347.244 684.61 347.244 682.66C347.244 680.71 347.244 677.77 348.224 674.84C348.224 673.86 349.204 671.91 348.224 669.95C348.224 667.02 347.244 663.11 347.244 660.17C347.244 658.21 346.264 655.28 346.264 653.33C346.264 652.35 346.264 650.4 345.284 649.42V642.58C344.304 640.62 345.284 637.69 344.304 635.74C344.304 631.83 344.304 628.9 343.324 624.98V615.2C342.344 613.24 343.324 611.29 342.344 608.36C342.344 604.45 342.344 600.54 341.364 596.63L339.404 587.83C339.404 586.85 338.424 584.9 338.424 583.92C337.444 580.99 336.464 578.05 336.464 575.12C335.484 574.14 334.504 573.16 333.534 573.16C329.624 571.2 328.644 568.27 327.664 565.34C326.684 560.45 324.734 556.54 322.774 552.63L317.884 542.85C315.924 539.92 314.954 536.01 314.954 532.09C314.954 528.18 314.954 525.25 315.934 521.33C315.934 520.35 316.914 519.37 316.914 518.4V502.76C316.914 500.8 317.894 498.85 317.894 495.92C317.894 493.96 317.894 491.03 316.914 489.08C316.914 487.12 315.934 485.17 314.954 483.21C312.994 481.25 312.994 478.32 312.024 475.39C312.024 474.41 311.044 473.43 311.044 471.48C309.084 469.52 308.114 467.57 307.134 464.64C307.134 463.66 307.134 462.68 306.154 461.71C305.174 460.73 304.194 458.78 304.194 455.84C303.214 455.84 303.214 454.86 302.234 454.86C298.324 454.86 294.414 452.9 292.454 449.97L286.584 441.17C285.604 438.24 284.624 435.3 284.624 432.37L282.664 423.57C282.664 421.61 281.684 419.66 281.684 417.7C280.704 412.81 281.684 406.94 281.684 402.05C281.684 398.14 280.704 394.23 279.724 390.32C278.744 388.36 277.764 386.41 278.744 384.45V379.56L281.674 372.72C282.654 368.81 284.604 365.88 287.544 362.94C287.544 361.96 287.544 361.96 288.524 360.98C288.524 360.98 289.504 360 289.504 359.02C289.504 358.04 288.524 357.06 287.544 357.06C286.564 355.1 284.614 354.13 282.654 353.15C281.674 352.17 280.694 352.17 280.694 352.17C278.734 352.17 276.784 352.17 275.804 351.19H271.894C270.914 350.21 270.914 350.21 269.934 350.21C269.934 351.19 268.954 351.19 268.954 351.19C267.974 350.21 266.994 351.19 266.024 351.19C264.064 352.17 262.114 352.17 261.134 352.17C258.204 353.15 255.264 353.15 252.334 353.15C249.404 354.13 246.464 354.13 243.534 353.15H235.714C233.754 352.17 231.804 352.17 230.824 352.17C225.934 352.17 221.044 351.19 216.154 350.21C212.244 349.23 207.354 348.25 202.464 346.3L194.644 343.37C190.734 341.41 186.824 340.44 183.884 338.48C178.994 336.52 175.084 333.59 171.174 330.66C170.194 328.7 168.244 327.73 166.284 326.75L162.374 321.86L157.484 315.99L152.594 309.15L146.724 298.39C144.764 295.46 142.814 292.52 141.834 289.59L135.964 274.92L133.034 263.19L130.104 253.41C129.124 250.48 129.124 248.52 129.124 245.59C129.124 243.63 128.144 242.66 128.144 240.7V239.72C128.144 236.79 128.144 234.83 127.164 231.9C127.164 227.99 127.164 224.08 126.184 221.14C126.184 218.21 126.184 216.25 125.204 214.3V204.52C124.224 203.54 124.224 202.56 124.224 200.61V186.92C124.224 184.96 124.224 183.01 123.244 181.05V170.29L120.314 158.56C120.314 156.6 120.314 154.65 119.334 152.69C119.334 150.73 118.354 148.78 117.374 145.85L114.444 139.01C111.514 135.1 109.554 130.21 104.664 127.28L101.734 124.35C98.8037 122.39 96.8437 119.46 93.9137 118.48C91.9537 117.5 90.9837 116.52 89.0237 116.52L85.1137 114.56C82.1837 112.6 79.2437 112.6 76.3137 111.63C74.3537 111.63 72.4038 111.63 70.4438 110.65C69.4638 109.67 67.5137 109.67 65.5537 109.67C64.5737 109.67 62.6237 108.69 62.6237 107.71C60.6637 106.73 60.6637 104.78 61.6437 103.8C61.6437 101.84 62.6237 99.89 64.5737 98.91C67.5037 96.95 70.4437 95.98 74.3537 95.98C76.3137 95 78.2637 95.98 80.2237 95H87.0637C89.9937 95 91.9537 95.98 93.9037 95.98C94.8837 95.98 94.8837 96.96 94.8837 96.96H93.9037C92.9237 97.94 90.9737 98.9199 89.0137 97.9399H86.0837L79.2437 99.9C77.2837 100.88 75.3337 100.88 74.3537 101.86C71.4237 101.86 68.4837 102.84 65.5537 104.79V105.77H70.4438C71.4238 106.75 73.3737 106.75 74.3537 106.75H79.2437C84.1337 106.75 88.0437 109.68 92.9337 110.66C97.8237 111.64 100.754 114.57 104.664 117.5L110.534 123.37C114.444 126.3 116.404 130.21 118.354 135.1L121.284 139.99C122.264 141.95 123.244 143.9 123.244 145.86L126.174 155.64C126.174 158.57 127.154 161.51 127.154 165.42C127.154 166.4 128.134 168.35 128.134 170.31C129.114 172.27 128.134 175.2 129.114 177.15V194.75C129.114 198.66 129.114 202.57 130.094 206.48C130.094 209.41 131.074 212.35 131.074 216.26C131.074 218.22 131.074 220.17 132.054 221.15V229.95C132.054 230.93 133.034 232.88 133.034 233.86V237.77L135.964 252.44C135.964 254.4 136.944 255.37 136.944 257.33L139.874 268.09L144.764 280.8L147.694 287.64C148.674 291.55 150.624 294.48 152.584 297.42C155.514 300.35 157.474 303.29 158.454 306.22L164.324 313.06L173.124 322.84L181.924 329.68L191.704 334.57C196.594 336.53 200.504 338.48 205.394 339.46L214.194 342.39C217.124 342.39 220.064 343.37 222.994 343.37C223.974 344.35 225.924 344.35 227.884 344.35C231.794 344.35 234.724 345.33 238.644 345.33C240.604 345.33 242.554 346.31 243.534 346.31C248.424 346.31 252.334 345.33 256.244 345.33V342.4C256.244 339.47 257.224 337.51 259.174 335.56L265.044 328.72L267.974 325.79C267.974 324.81 268.954 323.83 269.934 321.88L272.864 319.92H273.844C271.884 322.85 271.884 326.76 269.934 330.68L267.004 335.57C266.024 336.55 266.024 337.53 266.024 339.48C266.024 340.46 266.024 341.44 267.004 342.41L268.964 344.37H269.944C270.924 343.39 272.874 344.37 273.854 344.37C275.814 345.35 278.744 346.33 281.674 346.33C283.634 346.33 285.584 347.31 287.544 348.29L285.584 339.49C284.604 338.51 284.604 337.53 284.604 336.56C284.604 335.58 284.604 334.6 285.584 334.6C287.544 334.6 289.494 333.62 290.474 333.62C293.404 333.62 296.344 333.62 299.274 334.6C299.274 335.58 300.254 335.58 300.254 334.6L298.294 329.71V327.75C297.314 326.77 298.294 325.79 298.294 324.82H301.224C301.224 324.82 302.204 325.8 302.204 326.78C305.134 330.69 306.114 334.6 305.134 339.49C305.134 342.42 304.154 345.36 302.204 348.29L300.244 354.16L297.314 360.03L294.384 364.92L288.514 371.76C285.584 375.67 283.624 379.58 283.624 384.47C283.624 385.45 283.624 387.4 284.604 388.38C285.584 390.34 287.534 392.29 287.534 395.22C288.514 398.15 288.514 401.09 288.514 404.02C287.534 405 287.534 406.95 287.534 408.91C287.534 409.89 286.554 411.84 287.534 412.82C287.534 415.75 287.534 418.69 288.514 421.62C289.494 425.53 291.444 429.44 291.444 433.35C291.444 434.33 292.424 435.31 292.424 436.28L298.294 446.06C300.254 448.02 302.204 448.02 304.164 448.02C306.124 449 308.074 449.98 309.054 452.91C311.014 454.87 311.984 457.8 313.944 460.73C313.944 461.71 314.924 463.66 315.904 465.62L317.864 472.46L319.824 480.28C320.804 482.24 320.804 484.19 319.824 486.15V493.97C320.804 494.95 320.804 496.9 320.804 497.88C320.804 499.84 321.784 501.79 321.784 503.75V510.59C321.784 516.46 320.804 521.35 318.854 527.21V531.12C318.854 536.01 320.814 539.92 323.744 544.81L329.614 551.65C332.544 555.56 333.524 559.47 334.504 563.38V565.34L335.484 566.32L338.414 568.28C340.374 568.28 340.374 570.24 341.344 572.19C341.344 573.17 342.324 574.15 342.324 576.1C342.324 579.03 343.304 581.97 344.284 585.88L349.174 601.52C349.174 604.45 349.174 607.39 350.154 610.32C350.154 612.28 350.154 614.23 351.134 616.19V620.1C351.134 623.03 351.134 624.99 352.114 626.94V630.85C352.114 631.83 352.114 633.78 353.094 634.76V644.54C353.094 646.5 353.094 648.45 354.074 650.41V657.25C355.054 660.18 355.054 662.14 355.054 665.07V668C356.034 671.91 355.054 674.84 354.074 677.78C353.094 679.74 353.094 680.71 353.094 681.69C353.094 682.67 353.094 682.67 354.074 683.65C356.034 683.65 358.964 684.63 360.914 684.63C363.844 684.63 366.784 685.61 369.714 685.61L376.554 687.57H380.464C382.424 688.55 383.394 687.57 384.374 686.59V680.72C383.394 678.76 384.374 675.83 384.374 673.88L386.334 670.95C388.294 669.97 388.294 668.02 389.264 667.04V655.31C390.244 650.42 390.244 646.51 390.244 641.62C391.224 631.84 390.244 622.06 390.244 612.29C390.244 611.31 390.244 610.33 391.224 609.36C391.224 608.38 390.244 608.38 390.244 607.4V600.56C390.244 597.63 389.264 595.67 389.264 592.74V588.83C389.264 584.92 389.264 581.99 388.284 578.07V576.11C386.324 576.11 385.354 577.09 385.354 578.07V593.71C385.354 595.67 385.354 597.62 384.374 599.58V600.56C386.334 605.45 386.334 609.36 385.354 614.25V639.67C385.354 643.58 384.374 647.49 382.424 650.43C380.464 654.34 379.494 658.25 377.534 661.19C376.554 661.19 376.554 662.17 375.574 662.17L372.644 666.08L369.714 670.97L368.734 671.95C367.754 671.95 366.774 671.95 366.774 670.97V668.04C367.754 666.08 368.734 664.13 368.734 661.2C368.734 659.24 367.754 658.27 367.754 656.31C367.754 655.33 366.774 654.35 365.794 653.38C364.814 651.42 363.834 649.47 363.834 647.51V641.64C363.834 638.71 364.814 635.77 364.814 632.84C365.794 630.88 365.794 629.91 365.794 628.93C365.794 626.97 366.774 624.04 368.724 622.09C369.704 621.11 369.704 619.16 370.684 617.2C371.664 616.22 371.664 613.29 372.644 612.31C375.574 607.42 377.534 602.53 378.514 596.67L380.474 584.94V583.96H379.494C378.514 584.94 378.514 585.92 378.514 585.92C377.534 590.81 375.584 595.7 373.624 600.59C372.644 602.55 371.664 604.5 369.714 606.46L363.844 615.26V617.22H361.884C362.864 614.29 360.904 611.35 361.884 608.42L363.844 600.6C363.844 598.64 363.844 596.69 362.864 594.73C362.864 592.77 361.884 590.82 360.904 587.89C360.904 586.91 360.904 584.96 361.884 583.98C362.864 581.05 363.844 578.11 365.794 576.16L369.704 572.25L371.664 569.32L366.774 559.54C364.814 556.61 362.864 553.67 361.884 550.74C361.884 548.78 360.904 547.81 360.904 546.83C360.904 544.87 359.924 544.87 358.944 543.9H357.964V544.88C358.944 549.77 359.924 553.68 362.854 558.57C363.834 559.55 364.814 561.5 364.814 563.46V566.39C364.814 567.37 363.834 567.37 363.834 567.37C362.854 568.35 362.854 567.37 362.854 566.39H361.874C361.874 562.48 359.914 559.55 357.964 556.61L354.054 547.81V549.77L356.014 556.61C356.014 558.57 356.994 560.52 357.974 562.48L360.904 569.32V570.3C360.904 570.3 360.904 571.28 359.924 571.28C358.944 572.26 358.944 571.28 358.944 570.3L356.984 567.37C356.984 565.41 356.004 563.46 354.054 562.48L352.094 557.59V556.61H351.114C351.114 557.59 351.114 558.57 352.094 559.54C352.094 561.5 353.074 563.45 354.054 565.41C354.054 566.39 355.034 568.34 355.034 569.32C355.034 569.32 356.014 569.32 355.034 570.3V571.28C354.054 571.28 354.054 570.3 354.054 570.3L351.124 564.43H350.144C350.144 565.41 350.144 566.39 349.164 567.36C349.164 567.36 349.164 568.34 348.184 568.34V567.36C347.204 566.38 347.204 565.4 347.204 564.43C347.204 561.5 346.224 558.56 346.224 556.61L348.184 544.88C348.184 543.9 348.184 541.95 349.164 540.97L355.034 529.24V527.28C356.014 525.32 356.994 523.37 356.994 521.41C356.014 518.48 356.994 516.52 356.014 513.59C356.014 510.66 356.014 507.72 355.034 504.79V502.83H356.014C356.014 503.81 356.994 504.79 356.994 506.74L358.954 509.67C358.954 511.63 359.934 513.58 359.934 515.54C360.914 517.5 360.914 519.45 361.894 520.43C361.894 523.36 362.874 525.32 362.874 528.25C363.854 531.18 364.834 534.12 364.834 537.05L367.764 545.85C367.764 546.83 367.764 547.81 368.744 547.81C368.744 548.79 369.724 549.77 370.704 550.74C372.664 550.74 374.614 552.7 375.594 554.65L377.554 563.45V566.38C377.554 567.36 378.534 569.31 380.484 569.31H381.464C382.444 569.31 383.424 569.31 384.394 570.29L386.354 567.36C386.354 565.4 387.334 564.43 387.334 563.45C387.334 562.47 387.334 561.49 388.314 561.49C389.294 560.51 391.244 560.51 392.224 562.47C392.224 563.45 393.204 565.4 393.204 566.38C393.204 568.34 395.164 569.31 396.134 571.27C396.134 572.25 397.114 571.27 397.114 571.27C400.044 569.31 401.024 566.38 401.024 563.45C402.004 561.49 401.024 560.52 402.004 559.54V554.65C401.024 550.74 401.024 547.81 399.074 544.87C398.094 543.89 398.094 542.91 398.094 540.96C398.094 539.98 398.094 539.98 399.074 539.98H400.054C402.014 541.94 404.944 543.89 406.894 546.82H407.874C408.854 545.84 408.854 545.84 407.874 544.86C406.894 540.95 404.944 537.04 402.004 533.13C401.024 532.15 400.044 530.2 400.044 528.24V525.31C401.024 524.33 402.004 524.33 402.004 525.31C402.984 527.27 403.964 530.2 406.894 531.18C409.824 534.11 411.784 537.05 412.764 539.98C412.764 539.98 413.744 539.98 413.744 540.96V539.98C413.744 539 413.744 539 414.724 538.02V533.13C414.724 531.17 415.704 528.24 415.704 526.29L417.664 520.42C417.664 519.44 417.664 518.46 418.644 517.49L420.604 507.71C421.584 506.73 422.564 504.78 422.564 503.8C422.564 502.82 423.544 502.82 423.544 502.82C425.504 503.8 425.504 503.8 425.504 505.75C424.524 507.71 424.524 509.66 424.524 511.62C425.504 510.64 427.454 510.64 429.414 509.66H434.304C437.234 508.68 440.174 508.68 442.124 504.77C443.104 504.77 443.104 503.79 443.104 503.79H445.064C445.064 503.79 446.044 504.77 445.064 505.75C445.064 507.71 443.104 509.66 441.154 510.64C438.224 512.6 435.284 512.6 432.354 513.57C431.374 514.55 430.394 514.55 429.424 514.55L424.534 518.46V519.44C424.534 520.42 424.534 520.42 425.514 521.4C427.474 519.44 430.404 518.47 433.334 517.49C436.264 516.51 438.224 515.53 440.174 513.58C441.154 513.58 441.154 512.6 441.154 512.6C442.134 511.62 443.114 512.6 443.114 513.58V514.56C442.134 516.52 440.184 518.47 437.244 519.45C436.264 520.43 435.284 520.43 434.314 520.43C431.384 521.41 429.424 523.36 427.474 526.3C426.494 526.3 426.494 526.3 427.474 527.28V528.26C427.474 529.24 428.454 529.24 428.454 528.26C430.414 525.33 433.344 524.35 436.274 523.37L441.164 520.44C442.144 520.44 442.144 519.46 442.144 519.46H443.124V520.44C443.124 521.42 442.144 522.4 441.164 524.35C439.204 525.33 438.234 527.28 436.274 527.28L430.404 532.17C430.404 533.15 429.424 533.15 430.404 534.13V535.11C430.404 536.09 431.384 536.09 431.384 535.11C432.364 534.13 433.344 533.15 434.314 533.15L440.184 528.26C440.184 527.28 441.164 526.3 441.164 526.3H443.124C444.104 526.3 444.104 527.28 444.104 528.26C443.124 529.24 442.144 530.22 442.144 531.19L436.274 537.06C434.314 538.04 433.344 539.02 432.364 540.97C431.384 542.93 432.364 543.9 432.364 544.88L433.344 545.86V544.88C434.324 541.95 437.254 539.99 440.184 537.06C440.184 536.08 441.164 535.1 442.144 534.13C443.124 533.15 443.124 533.15 444.104 533.15L445.084 534.13C445.084 535.11 445.084 536.09 444.104 537.06L441.174 542.93L437.264 547.82C437.264 548.8 436.284 550.75 435.304 551.73C434.324 552.71 434.324 553.69 435.304 554.66H436.284L439.214 550.75L442.144 544.88C443.124 544.88 443.124 543.9 443.124 543.9C444.104 542.92 444.104 542.92 445.084 542.92V544.88L443.124 552.7L441.164 557.59L438.234 562.48C437.254 563.46 437.254 564.44 437.254 566.39C437.254 568.34 436.274 569.32 435.294 571.28C433.334 573.24 432.364 576.17 431.384 579.1C430.404 580.08 430.404 581.06 431.384 582.03V588.87C430.404 590.83 429.424 592.78 429.424 594.74V598.65C429.424 599.63 429.424 600.61 428.444 601.58V603.54C428.444 605.5 428.444 607.45 429.424 608.43V611.36C429.424 612.34 428.444 613.32 427.464 613.32C426.484 613.32 425.504 613.32 424.534 612.34C423.554 611.36 422.574 609.41 420.624 608.43C420.624 607.45 419.644 607.45 419.644 606.47C417.684 604.51 414.754 602.56 413.774 599.63C412.794 599.63 412.794 598.65 412.794 598.65C412.794 596.69 412.794 596.69 413.774 597.67C415.734 597.67 416.704 598.65 417.684 599.63L422.574 602.56C424.534 602.56 425.504 603.54 426.484 604.52C426.484 604.52 426.484 605.5 427.464 605.5V604.52C427.464 603.54 427.464 602.56 425.504 601.59C424.524 601.59 424.524 600.61 423.544 599.63C422.564 599.63 422.564 598.65 422.564 597.67L417.674 593.76C415.714 591.8 413.764 589.85 412.784 586.92V585.94H414.744C414.744 585.94 414.744 586.92 415.724 586.92C416.704 588.88 418.654 588.88 419.634 589.85C422.564 590.83 425.504 591.81 427.454 594.74C428.434 591.81 427.454 588.87 426.474 586.92C426.474 586.92 426.474 585.94 425.494 585.94L417.674 580.07C415.714 579.09 414.744 577.14 413.764 575.18C413.764 575.18 413.764 574.2 414.744 574.2C414.744 573.22 415.724 573.22 415.724 574.2C418.654 576.16 421.594 577.13 425.504 578.11C425.504 578.11 425.504 577.13 426.484 577.13C426.484 577.13 426.484 576.15 425.504 576.15L422.574 573.22L417.684 569.31L413.774 566.38C413.774 564.42 413.774 563.45 414.754 563.45C415.734 564.43 415.734 564.43 416.714 564.43L420.624 566.39C422.584 567.37 425.514 568.35 427.464 570.3V569.32L426.484 568.34C426.484 567.36 425.504 566.38 424.524 565.41C422.564 563.45 420.614 561.5 417.684 560.52L414.754 557.59V556.61H415.734C418.664 557.59 422.574 557.59 425.514 560.52L426.494 561.5V560.52L423.564 556.61L417.694 552.7C416.714 551.72 415.734 551.72 415.734 552.7C414.754 552.7 413.774 553.68 413.774 553.68C411.814 556.61 410.844 559.55 410.844 562.48C410.844 563.46 409.864 564.44 409.864 565.41C409.864 568.34 410.844 571.28 411.824 573.23C412.804 575.18 412.804 576.16 412.804 578.12C412.804 579.1 412.804 580.08 411.824 581.05C411.824 582.03 410.844 583.98 410.844 585.94C409.864 586.92 409.864 586.92 408.884 585.94H407.904L403.994 587.9C403.014 587.9 403.014 587.9 403.014 589.86C403.014 590.84 403.014 590.84 402.034 591.82C402.034 592.8 401.054 593.78 400.074 593.78C399.094 593.78 399.094 592.8 398.114 591.82C397.134 589.86 398.114 588.89 398.114 586.93C398.114 584.97 397.134 584 398.114 582.04L397.134 581.06C397.134 580.08 397.134 579.1 396.154 578.13H394.194V584C395.174 585.96 394.194 586.93 394.194 588.89C393.214 590.85 393.214 591.82 393.214 592.8C393.214 597.69 392.234 602.58 392.234 607.47C393.214 611.38 392.234 615.29 393.214 618.23C393.214 620.19 393.214 623.12 394.194 625.07V636.8C395.174 639.73 395.174 642.67 395.174 645.6V658.31C395.174 659.29 396.154 661.24 396.154 663.2C395.174 665.16 396.154 666.13 397.134 668.09C398.114 669.07 399.094 670.05 399.094 672V673.96L397.134 679.83C396.154 681.79 397.134 682.76 397.134 683.74C397.134 685.7 398.114 685.7 399.094 685.7H403.004C403.984 685.7 405.934 684.72 406.914 684.72H419.624C420.604 684.72 423.534 684.72 425.494 683.74C426.474 683.74 427.454 683.74 428.424 681.78L431.354 677.87C431.354 676.89 432.334 676.89 432.334 675.91V671.02C431.354 669.06 431.354 667.11 431.354 666.13C431.354 660.26 430.374 655.37 430.374 650.48C430.374 648.52 431.354 647.55 431.354 645.59C431.354 643.63 431.354 641.68 432.334 639.72V636.79C432.334 635.81 432.334 634.83 433.314 633.86V629.95C433.314 627.02 433.314 625.06 434.294 623.11C434.294 621.15 434.294 619.2 435.274 617.24V612.35C435.274 610.39 436.254 608.44 436.254 605.51C436.254 603.55 436.254 601.6 437.234 599.64C437.234 597.68 437.234 594.75 438.214 592.8C438.214 589.87 439.194 586.93 439.194 583.02V576.18C440.174 573.25 441.154 571.29 444.084 569.34C446.044 568.36 447.014 566.41 447.994 563.47C447.994 561.51 448.974 559.56 449.954 557.6V556.62C449.954 554.66 450.934 552.71 451.914 550.75L457.784 540.97C457.784 539.99 458.764 539.01 458.764 539.01V532.17L455.834 524.35C455.834 521.42 454.854 519.46 454.854 516.53V513.6C453.874 511.64 454.854 510.67 454.854 509.69V507.73C454.854 504.8 454.854 501.86 455.834 498.93C455.834 496.97 455.834 495.02 456.814 493.06L459.744 479.37C460.724 477.41 461.704 475.46 461.704 473.5C461.704 472.52 462.684 471.54 463.664 471.54C463.664 470.56 464.644 469.58 465.624 469.58L468.554 463.71C469.534 463.71 470.514 462.73 470.514 461.75L473.444 451.97C474.424 449.04 476.374 447.08 478.334 446.1C484.204 442.19 487.134 437.3 490.064 431.43C490.064 429.47 491.044 428.5 491.044 426.54C491.044 422.63 492.024 417.74 493.004 413.83V402.1C492.024 398.19 493.004 394.28 494.964 391.34C495.944 388.41 496.924 385.47 495.944 382.54C495.944 381.56 495.944 380.58 494.964 379.61L491.054 371.79C490.074 369.83 489.094 367.88 487.144 365.92C486.164 364.94 485.184 363.96 485.184 362.99C484.204 362.01 484.204 360.06 482.254 359.08C481.274 359.08 481.274 357.12 482.254 356.15C483.234 354.19 485.184 353.22 487.144 353.22C488.124 353.22 490.074 352.24 492.034 353.22C493.994 353.22 495.944 353.22 497.904 352.24C498.884 352.24 499.864 352.24 500.834 351.26H501.814L500.834 350.28C499.854 350.28 498.874 349.3 497.904 350.28C494.974 351.26 492.034 350.28 491.064 347.35C490.084 345.39 490.084 344.42 490.084 342.46C490.084 340.5 491.064 339.53 491.064 337.57V335.61C492.044 333.65 492.044 333.65 493.994 333.65C494.974 333.65 494.974 333.65 494.974 334.63C496.934 336.59 499.864 336.59 502.794 337.56C504.754 337.56 507.684 337.56 510.614 338.54C510.614 336.58 510.614 334.63 509.634 332.67C507.674 328.76 504.744 325.83 502.794 322.89C499.864 318.98 497.904 315.07 493.994 312.13L491.064 309.2C490.084 309.2 490.084 308.22 489.104 308.22C488.124 308.22 487.144 309.2 486.174 309.2H472.484C470.524 308.22 467.594 309.2 465.644 308.22C461.734 308.22 458.804 308.22 454.884 307.24C451.954 307.24 448.044 306.26 445.104 305.28C441.194 305.28 437.284 304.3 434.344 302.35C432.384 301.37 430.434 300.39 428.474 298.44C426.514 296.49 424.564 295.51 422.604 292.57L415.764 286.7C414.784 286.7 413.804 285.72 411.854 284.74C409.894 282.78 406.964 281.81 404.034 281.81C401.104 280.83 399.144 281.81 396.214 281.81C393.284 282.79 390.344 282.79 387.414 281.81C386.434 281.81 385.454 280.83 384.484 279.85C383.504 279.85 381.554 279.85 380.574 280.83L371.774 282.79L367.864 284.75C365.904 284.75 363.954 286.71 363.954 288.66C362.974 291.59 361.024 293.55 359.064 295.5C357.104 297.46 355.154 298.43 352.224 299.41L345.384 301.37C341.474 301.37 338.544 302.35 335.604 302.35L321.914 306.26C317.024 307.24 314.094 308.22 309.204 308.22C307.244 308.22 305.294 309.2 302.364 309.2H293.564C292.584 309.2 290.634 309.2 289.654 308.22H287.694L281.824 310.18C279.864 310.18 277.914 311.16 276.934 313.11C276.934 314.09 275.954 314.09 275.954 315.07C274.974 315.07 274.974 315.07 274.974 314.09C274.974 314.09 273.994 313.11 274.974 313.11C275.954 310.18 275.954 307.24 278.884 306.27L280.844 304.31V303.33H272.044C270.084 303.33 269.114 304.31 268.134 305.29C268.134 307.25 267.154 308.22 266.174 309.2C263.244 314.09 259.334 317.02 255.414 319.96C253.454 320.94 251.504 322.89 249.544 324.85C247.584 328.76 244.654 332.67 240.744 334.63L237.814 337.56H236.834V336.58C236.834 335.6 237.814 334.62 237.814 333.65C238.794 333.65 238.794 332.67 239.774 332.67C242.704 329.74 244.664 326.8 245.644 322.89C246.624 318.98 248.574 316.05 252.484 314.09C253.464 313.11 254.444 312.13 255.414 312.13C257.374 310.17 260.304 308.22 262.254 305.29C262.254 305.29 263.234 305.29 263.234 304.31V303.33H256.394C255.414 303.33 254.434 302.35 254.434 302.35H251.504C250.524 302.35 250.524 303.33 250.524 304.31L242.704 313.11C241.724 314.09 239.774 315.07 238.794 315.07L233.904 318C230.974 319.96 229.994 322.89 228.034 325.82C227.054 329.73 224.124 333.64 219.234 334.62C219.234 334.62 218.254 335.6 217.274 335.6L216.294 334.62L218.254 332.66L221.184 327.77L224.114 323.86C224.114 321.9 225.094 319.95 226.074 317.99C227.054 316.03 229.984 315.06 231.944 313.1C234.874 312.12 236.834 310.17 238.784 309.19C240.744 308.21 242.694 307.23 243.674 305.28L247.584 302.35V301.37C245.624 301.37 243.674 300.39 241.714 300.39L233.894 297.46C232.914 296.48 232.914 296.48 231.934 297.46C229.974 300.39 228.024 303.33 225.094 306.26L219.224 311.15L214.334 314.08C212.374 315.06 211.404 317.01 210.424 319.95C208.464 323.86 205.534 327.77 201.624 330.71L197.714 332.67H196.734V331.69L199.664 327.78C200.644 325.82 202.594 323.87 203.574 320.94L206.504 315.07L209.434 310.18C211.394 308.22 214.324 306.27 217.254 305.29C222.144 303.33 226.054 300.4 229.964 295.51V294.49C227.034 293.51 224.094 291.56 221.164 289.6H220.184L216.274 294.49C212.364 297.42 208.454 300.36 203.564 302.31C201.604 302.31 200.634 302.31 199.654 303.29C197.694 303.29 195.744 304.27 194.764 306.22L189.874 314.04L184.004 317.95C183.024 318.93 182.044 318.93 182.044 318.93C181.064 317.95 181.064 316.97 182.044 316C183.024 314.04 184.004 311.11 185.954 309.16C186.934 307.2 187.914 305.25 189.864 303.29C191.824 299.38 195.734 297.42 199.644 296.45C202.574 296.45 206.484 295.47 209.424 293.52L216.264 288.63V287.65L208.444 283.74L205.514 279.83H204.534C200.624 283.74 196.714 285.7 191.824 286.67L184.984 288.63C184.004 288.63 184.004 288.63 183.024 289.61L179.114 294.5C177.154 296.46 175.204 298.41 173.244 299.39C173.244 300.37 172.264 300.37 172.264 300.37C171.284 301.35 170.304 300.37 170.304 299.39C170.304 298.41 170.304 297.43 171.284 296.46C173.244 292.55 175.194 288.64 179.104 284.73C180.084 283.75 183.014 282.77 184.974 282.77C186.934 281.79 188.884 281.79 190.844 281.79C194.754 281.79 198.664 280.81 202.574 277.88V276.9C201.594 276.9 201.594 275.92 201.594 275.92C198.664 272.99 197.684 270.05 196.704 267.12L188.884 254.41C185.954 250.5 183.994 246.59 182.044 242.68L180.084 238.77C180.084 237.79 180.084 237.79 179.104 238.77C177.144 239.75 175.194 239.75 173.234 238.77H170.304L165.414 236.81C164.434 236.81 163.454 236.81 162.484 237.79L156.614 241.7C153.684 243.66 150.744 244.63 146.834 244.63C145.854 244.63 144.874 243.65 144.874 243.65C143.894 242.67 143.894 242.67 144.874 241.69C149.764 239.73 153.674 235.82 157.584 232.89C159.544 230.93 161.494 229.96 163.454 229.96H167.364C170.294 231.92 174.204 232.89 177.144 233.87C179.104 234.85 179.104 234.85 179.104 232.89C179.104 230.93 178.124 229.96 178.124 228V224.09C178.124 220.18 176.164 217.25 175.194 214.31V212.35H174.214C175.194 212.35 174.214 211.37 174.214 211.37C174.214 210.39 174.214 209.41 173.234 208.44C169.324 200.62 166.394 193.77 164.434 184.97C163.454 183.01 162.474 180.08 162.474 177.15C160.514 173.24 159.544 169.33 158.564 164.44C157.584 162.48 156.604 160.53 156.604 157.6L153.674 148.8L150.744 141.96C148.784 139.03 147.814 136.09 146.834 133.16C144.874 129.25 141.944 125.34 139.014 121.43C137.054 118.5 135.104 116.54 133.144 115.56L118.474 105.78L110.654 102.85C109.674 102.85 107.724 101.87 105.764 101.87C104.784 100.89 104.784 100.89 103.804 100.89V99.91C103.804 98.93 104.784 98.9299 104.784 98.9299C106.744 98.9299 107.714 98.93 109.674 99.91H113.584C117.494 100.89 120.424 101.87 124.344 103.82L136.074 110.66C139.004 112.62 140.964 115.55 143.894 118.48L149.764 127.28C149.764 128.26 150.744 129.24 151.724 131.19C152.704 134.12 154.654 137.06 156.614 139.99L162.484 155.63C163.464 161.5 165.414 166.39 167.374 171.28C168.354 175.19 169.334 179.1 171.284 183.01C172.264 188.88 174.214 193.77 177.154 199.63C179.114 204.52 182.044 209.41 183.024 214.3C184.004 217.23 184.984 220.17 184.984 223.1C185.964 226.03 185.964 228.97 185.964 231.9C185.964 233.86 186.944 235.81 187.924 237.77L190.854 243.64L196.724 252.44L201.614 262.22C201.614 263.2 201.614 264.18 202.594 265.15C203.574 268.08 205.524 270.04 207.484 271.99L211.394 276.88C213.354 278.84 215.304 279.81 218.234 280.79L227.034 284.7L236.814 291.54L243.654 293.5C248.544 293.5 253.434 294.48 258.324 296.43H282.774C286.684 296.43 288.644 297.41 291.574 300.34C291.574 300.34 292.554 300.34 292.554 301.32C293.534 302.3 294.514 302.3 296.464 302.3H298.424C300.384 302.3 302.334 302.3 303.314 301.32C307.224 301.32 310.154 300.34 314.074 300.34L321.894 298.38H326.784C328.744 297.4 331.674 296.42 334.604 296.42C337.534 296.42 340.474 295.44 343.404 295.44C346.334 295.44 349.274 294.46 351.224 293.48L358.064 288.59C359.044 288.59 359.044 288.59 360.024 287.61C361.984 284.68 364.914 282.72 367.844 281.74L373.714 278.81L382.514 275.88C384.474 274.9 386.424 275.88 388.384 276.86C389.364 276.86 389.364 276.86 390.344 275.88H398.164C401.094 274.9 403.054 275.88 405.984 276.86C408.914 277.84 411.854 278.82 413.804 280.77L421.624 284.68C423.584 285.66 425.534 287.61 427.494 289.57C429.454 291.53 432.384 293.48 434.334 296.41C437.264 298.37 440.204 299.34 444.114 300.32C446.074 300.32 449.004 301.3 450.954 301.3H454.864C457.794 302.28 459.754 302.28 462.684 302.28H470.504C473.434 302.28 476.374 302.28 479.304 303.26H485.174V300.33C486.154 297.4 488.104 296.42 491.044 295.44C493.974 294.46 496.914 293.48 499.844 293.48C501.804 292.5 503.754 292.5 505.714 292.5C506.694 292.5 507.674 293.48 507.674 293.48H511.584C516.474 293.48 520.384 293.48 524.294 294.46C528.204 294.46 531.134 293.48 534.074 291.53C537.004 290.55 539.944 288.6 543.854 288.6V289.58C546.784 290.56 547.764 288.6 549.724 287.62L559.504 281.75C560.484 281.75 561.464 280.77 561.464 279.79C562.444 277.83 564.394 276.86 564.394 273.92C566.354 270.99 569.284 268.05 573.194 266.1C576.124 265.12 578.084 262.19 580.034 259.26L587.854 249.48L591.764 240.68C591.764 237.75 593.724 234.81 594.694 231.88L599.584 221.12L603.494 213.3L606.424 205.48C608.384 199.61 611.314 194.72 614.244 188.86L617.174 182.02V181.04C617.174 180.06 618.154 179.08 618.154 180.06C619.134 180.06 618.154 181.04 618.154 181.04C618.154 183 617.174 185.93 617.174 187.88L614.244 194.72L605.444 216.23C605.444 218.19 604.464 221.12 602.514 223.07C600.554 228.94 597.624 234.8 596.644 241.65C595.664 246.54 594.684 249.47 591.754 253.38L582.954 265.11C581.974 268.04 580.024 270 577.084 270.98C573.174 271.96 571.214 273.91 569.264 276.85L564.374 283.69C564.374 284.67 563.394 285.65 561.444 285.65C558.514 286.63 556.554 288.58 553.624 290.54L549.714 293.47C547.754 294.45 545.804 295.43 543.844 294.45C542.864 294.45 541.884 294.45 540.914 295.43C538.954 295.43 537.004 296.41 536.024 297.39C534.064 299.35 531.134 300.32 529.184 300.32H503.764C502.784 299.34 501.804 299.34 499.854 300.32C497.894 300.32 496.924 301.3 494.964 301.3L493.984 302.28C495.944 303.26 496.914 305.21 497.894 307.17L501.804 310.1C502.784 311.08 502.784 312.06 503.764 312.06C503.764 314.02 504.744 314.99 505.724 316.95C505.724 318.91 506.704 320.86 506.704 321.84L511.594 331.62C512.574 333.58 513.554 334.55 513.554 336.51L516.484 340.42L521.374 345.31C522.354 346.29 522.354 346.29 522.354 347.27C523.334 349.23 523.334 351.18 521.374 352.16C519.414 353.14 517.464 353.14 516.484 353.14C518.444 355.1 521.374 355.1 523.324 354.12C526.254 353.14 529.194 352.16 533.104 352.16C535.064 352.16 537.014 352.16 539.944 351.18H551.674C555.584 352.16 559.494 351.18 563.404 350.2C566.334 350.2 568.294 349.22 570.244 348.24C571.224 348.24 572.204 348.24 572.204 347.26C575.134 346.28 578.074 345.3 581.004 345.3L584.914 343.34C587.844 343.34 589.804 341.38 591.754 340.41C592.734 339.43 592.734 338.45 593.714 338.45L595.674 333.56C598.604 330.63 601.544 326.72 605.454 325.74C606.434 325.74 606.434 325.74 607.414 324.76C609.374 323.78 611.324 320.85 613.284 318.89C616.214 315.96 618.174 312.05 620.124 309.11C621.104 307.15 622.084 304.22 622.084 302.27L629.904 282.71L635.774 266.09C637.734 260.22 639.684 254.36 640.664 248.49C640.664 245.56 641.644 242.62 641.644 239.69C641.644 237.73 642.624 235.78 642.624 233.82V228.93L644.584 219.15L646.544 212.31C646.544 210.35 647.524 207.42 648.504 205.47C649.484 202.54 650.464 199.6 650.464 195.69L654.374 187.87C656.334 184.94 656.334 182.98 656.334 181.03C656.334 175.16 657.314 169.3 659.264 163.43L662.194 153.65C663.174 150.72 664.154 147.78 666.104 145.83L669.034 138.01C670.994 135.08 672.944 132.14 675.874 130.19L681.744 125.3C685.654 123.34 689.564 121.39 693.474 118.46C695.434 117.48 697.384 116.5 700.314 116.5C703.244 115.52 706.184 114.54 709.114 114.54C710.094 113.56 712.044 113.56 713.024 113.56C714.004 113.56 714.984 113.56 715.954 112.58C714.974 112.58 713.994 111.6 713.024 111.6C711.064 110.62 709.114 110.62 707.154 110.62C700.314 109.64 694.444 109.64 687.594 109.64C684.664 110.62 681.724 109.64 678.794 110.62C675.864 110.62 672.924 111.6 669.994 112.58C668.034 113.56 666.084 114.54 664.124 116.49L659.234 119.42L653.364 124.31C651.404 125.29 650.434 127.24 649.454 129.2L644.564 135.07C643.584 136.05 642.604 137.03 642.604 138C639.674 143.87 635.764 148.76 632.824 153.64C631.844 154.62 630.864 155.6 630.864 156.57C629.884 158.53 627.934 160.48 625.974 162.44C624.014 165.37 622.064 169.28 621.084 173.2C621.084 174.18 620.104 174.18 620.104 175.16H619.124C620.104 174.18 620.104 173.2 620.104 172.23C620.104 170.27 621.084 169.3 621.084 168.32C622.064 165.39 623.044 163.43 624.994 161.48L626.954 154.64L628.914 148.77L632.824 141.93L638.694 134.11C639.674 133.13 639.674 131.18 641.624 130.2C643.584 128.24 645.534 126.29 646.514 124.33C648.474 121.4 651.404 119.44 654.334 117.49L662.154 111.62C664.114 109.66 667.044 108.69 669.974 107.71L677.794 105.75C679.754 105.75 681.704 105.75 683.664 104.77H689.534C690.514 103.79 691.494 103.79 693.444 103.79H705.174C708.104 103.79 712.014 103.79 715.934 104.77C717.894 105.75 720.824 106.73 722.774 106.73L725.704 108.69C726.684 108.69 726.684 108.69 726.684 109.67C728.624 110.66 728.624 113.6 725.684 114.58ZM139.984 135.11V138.04C139.984 139.02 139.004 140 139.004 140.97C139.004 141.95 138.024 141.95 138.024 141.95C137.044 141.95 136.064 141.95 136.064 140.97C136.064 139.01 136.064 137.06 138.024 136.08C138.024 135.1 138.024 135.1 139.004 135.1H139.984V135.11ZM150.734 157.6C150.734 158.58 149.754 158.58 148.774 158.58L143.884 160.54C142.904 160.54 140.954 161.52 140.954 162.5L139.974 163.48C139.974 163.48 138.994 164.46 138.014 163.48C138.014 163.48 137.034 163.48 137.034 162.5C137.034 159.57 138.014 157.61 140.944 156.63C142.904 154.67 145.834 154.67 147.784 153.7C148.764 154.68 149.744 154.68 150.714 154.68C151.714 155.64 152.694 156.62 150.734 157.6ZM158.564 177.16C158.564 179.12 158.564 180.09 156.604 180.09C154.644 181.07 153.674 182.05 150.734 181.07C148.774 181.07 147.804 181.07 145.844 182.05L140.954 185.96V186.94C138.994 186.94 138.024 186.94 137.044 185.96C137.044 185.96 137.044 184 138.024 183.03C138.024 182.05 139.004 182.05 139.004 181.07C139.984 180.09 140.964 178.14 142.914 177.16C144.874 175.2 147.804 174.23 151.714 174.23C152.694 174.23 154.644 174.23 156.604 175.21C157.584 176.18 158.564 176.18 158.564 177.16ZM155.624 194.76C158.554 194.76 161.494 195.74 164.424 197.69C165.404 197.69 165.404 197.69 164.424 199.65C164.424 200.63 162.464 200.63 161.494 201.61H159.534C157.574 200.63 155.624 200.63 153.664 200.63H150.734L144.864 204.54C144.864 204.54 143.884 205.52 142.904 205.52C141.924 205.52 140.944 205.52 140.944 204.54C139.964 203.56 139.964 203.56 140.944 202.58V201.6C143.874 198.67 146.814 195.73 150.724 194.76C152.694 193.78 153.674 193.78 155.624 194.76ZM174.204 213.33C172.244 217.24 169.314 218.22 165.404 218.22H159.534C157.574 217.24 155.624 218.22 154.644 219.2L147.804 226.04C146.824 226.04 146.824 226.04 145.844 227.02C144.864 227.02 144.864 227.02 143.884 226.04C143.884 226.04 142.904 225.06 143.884 224.08V223.1L149.754 215.28C152.684 213.32 155.624 211.37 158.554 211.37C162.464 212.35 165.394 212.35 169.314 212.35C170.294 212.35 172.244 212.35 173.224 211.37C173.224 211.37 174.204 211.37 174.204 212.35V213.33V213.33ZM183.004 253.42C183.984 253.42 184.964 253.42 184.964 254.4C184.964 255.38 184.964 257.33 183.984 257.33C183.004 258.31 181.054 259.29 179.094 259.29C177.134 260.27 174.204 260.27 172.254 260.27C170.294 260.27 168.344 259.29 166.384 259.29C164.424 260.27 162.474 260.27 160.514 260.27C157.584 260.27 155.624 262.23 152.694 265.16L147.804 269.07C147.804 270.05 146.824 270.05 146.824 269.07C146.824 267.11 146.824 266.14 147.804 264.18C150.734 259.29 155.624 255.38 161.494 254.4C163.454 254.4 165.404 253.42 167.364 253.42C169.324 253.42 171.274 253.42 172.254 254.4H177.144C178.124 254.4 180.074 254.4 182.034 253.42H183.004V253.42ZM178.114 269.07C181.044 269.07 183.984 269.07 186.914 268.09H191.804C192.784 268.09 193.764 269.07 192.784 270.05C191.804 272.01 189.854 272.98 187.894 273.96C184.964 273.96 182.024 274.94 178.114 274.94C177.134 274.94 175.184 275.92 174.204 275.92C172.244 275.92 171.274 276.9 169.314 278.85L166.384 281.78L161.494 284.71C160.514 284.71 159.534 284.71 159.534 283.73V280.8C160.514 279.82 160.514 278.84 161.494 278.84C164.424 274.93 168.334 271.02 173.224 270.04C175.184 269.07 177.134 269.07 178.114 269.07ZM275.894 336.54C275.894 337.52 276.874 338.5 276.874 339.47V340.45H275.894C274.914 339.47 273.934 339.47 273.934 338.49C272.954 338.49 272.954 336.53 272.954 336.53C273.944 335.56 274.914 335.56 275.894 336.54ZM283.714 340.45H281.754L277.844 337.52V335.56C277.844 335.56 277.844 334.58 278.824 334.58H280.784L283.714 339.47V340.45ZM304.254 404.01C303.274 405.97 303.274 406.94 304.254 407.92C304.254 409.88 305.234 410.85 305.234 411.83C307.194 414.76 308.164 418.67 309.144 421.61C309.144 424.54 310.124 427.48 310.124 430.41C309.144 432.37 309.144 433.34 307.194 434.32C307.194 435.3 306.214 436.28 305.234 436.28C304.254 436.28 303.274 435.3 302.304 435.3C300.344 433.34 299.374 431.39 298.394 429.43V422.59C299.374 419.66 298.394 415.75 297.414 411.83V402.05C298.394 400.09 298.394 398.14 298.394 397.16C298.394 395.2 298.394 394.23 297.414 394.23L292.524 388.36L288.614 385.43C287.634 384.45 287.634 383.47 287.634 382.5C287.634 381.52 288.614 381.52 289.594 381.52C291.554 383.48 294.484 384.45 297.414 386.41C299.374 388.37 301.324 389.34 303.284 392.28C303.284 393.26 304.264 393.26 304.264 393.26C308.174 395.22 311.104 398.15 312.084 402.06C312.084 404.02 313.064 404.99 313.064 405.97C313.064 408.9 314.044 409.88 315.024 411.84C316.004 411.84 316.984 412.82 317.954 413.8L319.914 417.71V418.69C318.934 420.65 318.934 420.65 317.954 419.67C316.974 419.67 316.974 418.69 316.974 418.69C315.994 417.71 315.014 416.73 313.064 416.73C311.104 415.75 310.134 413.8 308.174 411.84L306.214 405V404.02C305.234 404.02 306.214 402.06 305.234 402.06C304.254 403.03 304.254 403.03 304.254 404.01ZM324.784 415.74C325.764 417.7 326.744 419.65 326.744 422.58V423.56C325.764 424.54 325.764 425.52 324.784 425.52C323.804 426.5 323.804 424.54 322.824 423.56C322.824 422.58 322.824 421.6 321.844 419.65C321.844 418.67 320.864 417.69 320.864 416.72V414.76C321.844 413.78 321.844 413.78 322.824 413.78L324.784 415.74ZM322.834 461.7C323.814 461.7 324.794 461.7 325.764 462.68C325.764 464.64 326.744 465.61 326.744 467.57C327.724 468.55 327.724 468.55 327.724 469.53C327.724 470.51 327.724 470.51 326.744 470.51C323.814 468.55 322.834 466.6 322.834 463.67V461.7ZM328.694 432.36V430.4C327.714 429.42 327.714 428.44 328.694 427.47C328.694 426.49 329.674 426.49 329.674 426.49C330.654 426.49 331.634 426.49 331.634 427.47C332.614 429.43 332.614 430.4 332.614 431.38C332.614 433.34 332.614 434.31 331.634 435.29C331.634 436.27 329.674 436.27 329.674 435.29C328.694 434.32 328.694 433.34 328.694 432.36ZM339.454 438.23C339.454 438.23 339.454 439.21 340.434 440.19C339.454 441.17 339.454 442.15 339.454 444.1H337.494L335.534 441.17C335.534 439.21 334.554 438.24 334.554 436.28C334.554 434.32 336.514 433.35 338.464 434.32C338.464 434.32 339.444 435.3 339.444 436.28V438.23H339.454ZM343.364 447.03C342.384 447.03 342.384 446.05 341.404 445.07C341.404 444.09 342.384 443.11 342.384 443.11C343.364 443.11 343.364 444.09 343.364 445.07V447.03ZM352.164 457.79L353.144 458.77C354.124 461.7 355.104 465.61 357.054 469.53V472.46C357.054 473.44 356.074 473.44 356.074 473.44C355.094 473.44 354.114 473.44 353.144 472.46C351.184 470.5 350.214 468.55 349.234 465.62C348.254 463.66 348.254 461.71 348.254 459.75C348.254 459.75 348.254 458.77 349.234 457.79C350.214 455.83 351.184 456.81 352.164 457.79ZM356.074 486.14C356.074 487.12 355.094 487.12 354.114 487.12L351.184 484.19L349.224 478.32C348.244 477.34 348.244 476.36 348.244 475.39C348.244 474.41 349.224 474.41 349.224 473.43C350.204 473.43 351.184 473.43 352.154 474.41L353.134 475.39C355.094 478.32 356.064 481.26 356.064 484.19V486.14H356.074ZM358.034 440.19C358.034 443.12 357.054 446.06 358.034 448.99C358.034 450.95 359.014 452.9 359.014 454.86C359.014 456.82 359.994 458.77 359.014 459.75C358.034 461.71 358.034 461.71 356.084 460.73C356.084 459.75 355.104 458.77 354.124 457.8C353.144 453.89 351.194 450.96 351.194 446.07C351.194 443.14 352.174 439.23 354.124 435.31V434.33C355.104 433.35 356.084 433.35 356.084 433.35C357.064 433.35 358.044 434.33 358.044 435.31V440.19H358.034ZM355.094 490.05C355.094 491.03 355.094 492.01 354.114 492.98V493.96C353.134 492 353.134 490.05 354.114 490.05C354.124 489.08 355.094 490.05 355.094 490.05ZM359.014 373.7C359.994 372.72 359.994 371.74 361.944 370.77C362.924 370.77 363.904 371.75 363.904 372.73C363.904 374.69 362.924 376.64 360.974 377.62C359.994 378.6 359.014 377.62 359.014 376.64C358.034 375.65 358.034 374.67 359.014 373.7ZM370.744 296.45C370.744 296.45 371.724 296.45 371.724 297.43V299.39C371.724 301.35 370.744 303.3 370.744 305.26C367.814 310.15 365.854 315.04 363.904 319.93L360.974 327.75C360.974 328.73 360.974 329.71 359.994 330.68H359.014V317.97L360.974 311.13C361.954 307.22 362.934 303.31 366.844 300.37L370.744 296.45ZM364.874 388.36C364.874 390.32 363.894 391.29 362.914 393.25C362.914 394.23 361.934 394.23 360.954 394.23C359.974 393.25 358.994 392.27 358.994 391.3C359.974 390.32 359.974 388.37 361.924 387.39C361.924 386.41 362.904 386.41 362.904 386.41C363.884 386.41 364.864 386.41 364.864 387.39V388.36H364.874ZM359.014 437.25C359.014 434.32 359.014 432.36 359.994 429.43C360.974 429.43 360.974 428.45 360.974 427.47C361.954 426.49 362.934 426.49 363.904 426.49C364.874 426.49 363.904 428.45 364.884 428.45C363.904 430.41 363.904 432.36 363.904 435.29C362.924 437.25 361.944 439.2 361.944 442.13H360.964C359.984 442.13 359.984 441.15 359.004 441.15V437.25H359.014ZM361.944 360.98C362.924 360.98 362.924 361.96 362.924 362.94C362.924 363.92 362.924 363.92 361.944 363.92C360.964 363.92 359.984 362.94 359.984 361.96C359.984 361.96 360.964 360.98 361.944 360.98ZM364.874 406.94C363.894 406.94 362.914 405.96 362.914 405.96V404C362.914 402.04 363.894 401.07 364.874 399.11C364.874 398.13 365.854 398.13 366.834 398.13V401.06C366.834 403.02 365.854 403.99 365.854 405.95C365.854 406.94 365.854 406.94 364.874 406.94ZM365.854 427.47V425.51C365.854 422.58 366.834 419.64 367.814 417.69C367.814 416.71 367.814 415.73 368.794 415.73C368.794 414.75 369.774 414.75 370.754 414.75C370.754 415.73 371.734 415.73 370.754 416.71V418.67L367.824 427.47H366.844V428.45L365.854 427.47ZM376.614 649.44C378.574 645.53 379.544 642.6 379.544 638.68C379.544 634.76 379.544 630.86 378.564 627.92C378.564 623.03 379.544 619.12 379.544 614.23C379.544 613.25 379.544 613.25 378.564 612.27C378.564 612.27 377.584 613.25 376.604 613.25C376.604 614.23 376.604 614.23 375.624 614.23C374.644 617.16 372.694 619.12 370.734 621.07C369.754 623.03 369.754 624.98 369.754 626.94C369.754 628.9 368.774 630.85 368.774 631.83C368.774 632.81 367.794 634.76 368.774 635.74V645.52C368.774 647.48 369.754 649.43 370.734 650.41C371.714 651.39 372.694 652.37 372.694 653.34H373.674L376.614 649.44ZM374.654 417.7V415.74C374.654 413.78 375.634 411.83 375.634 409.87L376.614 408.89C377.594 407.91 377.594 407.91 378.574 408.89C379.554 408.89 379.554 409.87 379.554 410.85C378.574 412.81 377.594 414.76 375.644 416.72L374.654 417.7ZM384.434 446.05V436.27C383.454 429.43 384.434 422.58 384.434 415.74V407.92C385.414 407.92 385.414 406.94 385.414 406.94V390.32C385.414 387.39 385.414 383.48 386.394 380.54V378.58C386.394 375.65 385.414 371.74 386.394 367.82C386.394 364.89 385.414 361.95 385.414 359.02C384.434 357.06 384.434 356.09 385.414 354.13V349.24C385.414 348.26 385.414 347.28 386.394 347.28C387.374 347.28 387.374 348.26 387.374 349.24V356.08C386.394 358.04 387.374 359.99 388.354 361.95C389.334 365.86 390.314 369.77 389.334 373.68V374.66C388.354 382.48 389.334 389.33 389.334 397.15C389.334 398.13 389.334 400.08 388.354 401.06V405.95C388.354 408.88 389.334 411.82 389.334 415.73V422.57C390.314 428.44 390.314 434.3 390.314 441.15C390.314 442.13 390.314 444.08 389.334 446.04V453.86C390.314 455.82 390.314 459.73 389.334 461.68V477.32C390.314 479.28 390.314 481.23 390.314 483.19V484.17C391.294 487.1 391.294 490.04 391.294 493.95C391.294 497.86 391.294 501.77 392.274 504.71V513.51C392.274 515.47 391.294 517.42 391.294 519.38C390.314 521.34 390.314 524.27 390.314 527.2C390.314 529.16 390.314 530.13 389.334 532.09V533.07C388.354 533.07 388.354 533.07 388.354 532.09C387.374 530.13 387.374 528.18 387.374 526.22C386.394 524.26 386.394 521.33 386.394 519.38C385.414 514.49 385.414 510.58 385.414 506.67H386.394C386.394 502.76 386.394 498.85 385.414 494.94V486.14C385.414 483.21 385.414 480.27 386.394 477.34V463.65C386.394 461.69 385.414 459.74 385.414 457.78C384.434 453.88 383.454 449.96 384.434 446.05ZM387.364 320.89H389.324L390.304 321.87C390.304 322.85 390.304 322.85 389.324 323.83H387.364C386.384 323.83 385.404 323.83 385.404 322.85C385.414 321.87 386.384 320.89 387.364 320.89ZM385.414 332.63C385.414 332.63 385.414 331.65 386.394 331.65H387.374C387.374 331.65 388.354 331.65 388.354 332.63V333.61C388.354 333.61 387.374 333.61 387.374 334.59H385.414V332.63ZM388.344 540.9C387.364 540.9 386.384 539.92 386.384 539.92C385.404 538.94 386.384 538.94 386.384 537.96C386.384 537.96 386.384 536.98 387.364 536.98C388.344 536.98 389.324 537.96 390.294 538.94V539.92C390.294 539.92 390.294 540.9 389.314 540.9H388.344ZM386.384 555.57C385.404 554.59 386.384 554.59 386.384 553.61C387.364 552.63 388.344 552.63 389.314 552.63L392.244 554.59C392.244 554.59 393.224 555.57 392.244 556.55C392.244 557.53 391.264 557.53 390.284 557.53C388.344 557.52 387.364 557.52 386.384 555.57ZM386.384 315.03C386.384 314.05 387.364 314.05 388.344 314.05H390.304C391.284 314.05 392.264 313.07 392.264 315.03C393.244 315.03 392.264 316.01 392.264 316.99C390.304 317.97 389.334 317.97 387.374 317.97C387.374 317.97 386.394 317.97 386.394 316.99V315.03H386.384ZM386.384 546.77C386.384 545.79 387.364 544.81 388.344 544.81C389.324 544.81 391.274 545.79 391.274 546.77C391.274 547.75 389.314 548.73 388.344 548.73C387.374 548.73 386.384 547.74 386.384 546.77ZM389.324 292.54C388.344 292.54 387.364 291.56 387.364 291.56C387.364 290.58 388.344 290.58 389.324 290.58V292.54ZM387.364 298.4C387.364 297.42 388.344 296.44 389.324 296.44C390.304 296.44 391.284 297.42 391.284 298.4C391.284 299.38 390.304 300.36 389.324 300.36C388.344 300.36 387.364 299.38 387.364 298.4ZM390.304 305.25C391.284 305.25 392.264 306.23 392.264 307.21C393.244 308.19 392.264 309.17 390.304 309.17C389.324 310.15 388.344 309.17 387.374 308.19C387.374 307.21 388.354 306.23 389.334 305.26H390.304V305.25ZM394.214 409.87C394.214 408.89 395.194 407.91 396.174 407.91H397.154L400.084 411.82C400.084 411.82 400.084 412.8 399.104 412.8C399.104 413.78 399.104 413.78 398.124 413.78C396.164 412.81 395.194 411.83 394.214 409.87ZM408.874 661.17V659.21L401.054 643.56C400.074 639.65 399.094 635.74 399.094 631.83V624.99C398.114 622.06 399.094 619.12 399.094 616.19C399.094 614.23 399.094 611.3 401.054 609.35V608.37C402.034 606.41 403.984 606.41 404.964 607.39C408.874 611.3 412.784 616.19 414.744 622.06C415.724 623.04 415.724 624.02 415.724 624.99L417.684 634.77C417.684 635.75 417.684 637.7 418.664 639.66V643.57C418.664 644.55 419.644 646.5 419.644 647.48C419.644 651.39 418.664 655.3 416.714 659.21C415.734 661.17 415.734 664.1 415.734 666.05L413.774 669.96C412.794 670.94 410.844 670.94 409.864 669.96C407.904 668.98 407.904 667.03 407.904 665.07C407.904 663.11 408.874 662.15 408.874 661.17ZM401.054 511.57C402.034 510.59 402.034 510.59 403.014 511.57C403.014 513.53 404.974 514.5 406.924 516.46C408.884 518.42 409.854 520.37 410.834 522.33C412.794 524.29 413.764 526.24 413.764 529.17C413.764 530.15 413.764 531.13 412.784 532.1C412.784 533.08 411.804 533.08 411.804 532.1C410.824 532.1 409.844 531.12 408.874 530.14C408.874 529.16 407.894 528.18 407.894 527.21L403.004 518.41C402.024 517.43 401.044 515.48 401.044 514.5C400.074 513.52 400.074 511.57 401.054 511.57ZM401.054 497.88L402.034 496.9C402.034 496.9 403.014 496.9 403.014 497.88C403.994 499.84 404.974 500.81 406.924 501.79C407.904 503.75 410.834 505.7 411.814 508.63C412.794 510.59 413.774 512.54 413.774 514.5V515.48C412.794 517.44 411.814 517.44 410.844 516.46C409.864 515.48 408.884 514.5 408.884 513.53L403.014 504.73C402.034 503.75 401.054 501.8 401.054 499.84V497.88V497.88ZM409.854 419.65V421.61C409.854 422.59 408.874 423.57 407.894 423.57C406.914 423.57 405.934 423.57 405.934 422.59L403.974 419.66C403.974 417.7 402.994 414.77 402.014 412.82C401.034 411.84 401.034 410.86 402.014 409.89H404.944C406.904 411.85 407.874 414.78 408.854 417.71C409.854 418.67 409.854 419.65 409.854 419.65ZM403.014 488.1C402.034 488.1 403.014 487.12 402.034 486.14L403.014 485.16V484.18C403.014 484.18 403.994 484.18 403.994 485.16C404.974 485.16 404.974 486.14 404.974 486.14C406.934 490.05 408.884 492.01 411.814 494.94C413.774 496.9 414.744 499.83 414.744 502.76V503.74C413.764 505.7 413.764 505.7 412.784 504.72L408.874 499.83L405.944 494.94L403.014 488.1ZM403.994 472.45H404.974C405.954 472.45 405.954 473.43 406.934 473.43L409.864 482.23C410.844 483.21 409.864 483.21 408.884 483.21C407.904 483.21 407.904 482.23 406.924 482.23C404.964 480.27 403.994 478.32 403.014 476.36C402.034 475.38 402.034 474.4 403.014 473.43C403.014 472.45 403.994 472.45 403.994 472.45ZM404.964 463.65C404.964 462.67 404.964 461.69 405.944 460.72C405.944 460.72 406.924 460.72 406.924 459.74L407.904 460.72V461.7C409.864 464.63 411.814 468.54 411.814 472.46C411.814 473.44 411.814 473.44 410.834 472.46C408.874 472.46 407.904 470.5 406.924 468.55C405.944 467.56 405.944 465.61 404.964 463.65ZM407.904 646.5C407.904 647.48 407.904 648.46 409.864 648.46C410.844 649.44 411.824 648.46 412.794 647.48C413.774 646.5 413.774 645.52 413.774 644.55V636.73C411.814 633.8 411.814 629.89 409.864 625.97C408.884 623.04 407.904 620.1 405.954 617.17C405.954 621.08 405.954 624.99 404.974 628.9C404.974 631.83 405.954 635.74 405.954 638.68L407.904 646.5ZM409.854 452.9C409.854 453.88 410.834 453.88 410.834 454.86C410.834 456.82 411.814 457.79 411.814 459.75V460.73C410.834 460.73 410.834 460.73 409.854 459.75C408.874 458.77 407.894 456.82 407.894 453.88C407.894 453.88 408.874 453.88 408.874 452.9H409.854V452.9ZM410.834 588.81V591.74C410.834 592.72 410.834 592.72 409.854 592.72C409.854 591.74 408.874 590.76 408.874 589.79C408.874 588.81 409.854 588.81 409.854 588.81H410.834ZM409.854 595.66C409.854 595.66 410.834 594.68 411.814 594.68V595.66C411.814 595.66 411.814 596.64 410.834 596.64L409.854 595.66ZM415.724 421.61V422.59C416.704 424.55 417.684 427.48 417.684 429.43C417.684 431.39 415.724 432.36 415.724 432.36C414.744 432.36 413.764 431.38 412.794 430.4C412.794 428.44 411.814 425.51 411.814 423.56V422.58C411.814 421.6 411.814 420.62 412.794 420.62C413.774 420.62 414.744 420.63 415.724 421.61ZM423.544 413.78C423.544 408.89 421.584 405.96 417.674 403.02C415.714 401.06 414.744 399.11 414.744 396.18V395.2H415.724C415.724 397.16 416.704 398.13 417.684 398.13C418.664 399.11 419.644 399.11 419.644 400.09C422.574 400.09 423.554 402.05 424.534 404C426.494 405.96 427.464 407.91 427.464 410.84C427.464 413.77 428.444 417.68 429.424 420.62C429.424 421.6 429.424 421.6 430.404 421.6V420.62C431.384 419.64 431.384 417.69 430.404 415.73C429.424 413.77 429.424 411.82 429.424 408.89C429.424 406.93 428.444 405.96 428.444 404C427.464 401.07 425.514 399.11 423.554 396.18L417.684 389.34C416.704 387.38 415.724 386.41 416.704 384.45V383.47H418.664C419.644 386.4 420.624 387.38 422.574 389.34C423.554 389.34 424.534 390.32 425.504 391.3L429.414 396.19C431.374 399.12 432.344 401.08 432.344 404.01C433.324 405.97 432.344 406.94 433.324 407.92C433.324 408.9 434.304 409.88 434.304 410.85V411.83H435.284C435.284 410.85 436.264 409.87 437.244 409.87C438.224 408.89 439.204 409.87 439.204 410.85C440.184 413.78 441.164 415.74 443.114 417.69C443.114 419.65 444.094 420.62 443.114 422.58C443.114 426.49 442.134 430.4 441.154 434.31C440.174 435.29 440.174 435.29 440.174 436.27C441.154 437.25 442.134 436.27 443.104 435.29C447.994 433.33 448.974 432.36 452.884 428.45L454.844 425.52C454.844 423.56 455.824 422.59 456.804 420.63C457.784 422.59 456.804 424.54 455.824 426.5C455.824 427.48 454.844 428.46 454.844 429.43L451.914 434.32C449.954 437.25 447.024 439.21 444.094 441.16C443.114 442.14 441.164 442.14 441.164 444.09C441.164 444.09 441.164 445.07 440.184 445.07C438.224 447.03 437.254 449.96 437.254 451.91V456.8C436.274 457.78 437.254 458.76 437.254 460.71C437.254 462.66 437.254 465.6 438.234 467.55C438.234 468.53 439.214 469.51 439.214 469.51C440.194 470.49 441.174 471.47 443.124 470.49C446.054 470.49 448.014 468.53 449.964 465.6C449.964 464.62 450.944 463.64 450.944 461.69C450.944 460.71 452.904 459.73 452.904 459.73C453.884 459.73 454.864 459.73 454.864 460.71C454.864 461.69 455.844 461.69 455.844 462.67C455.844 463.65 454.864 464.63 455.844 465.6V466.58C455.844 470.49 455.844 473.42 452.914 475.38L444.114 484.18L439.224 488.09L436.294 490.05H433.364C431.404 488.09 430.434 486.14 430.434 483.21C429.454 481.25 430.434 479.3 429.454 477.34V476.36C429.454 470.49 428.474 465.6 428.474 459.74V452.9C428.474 450.94 428.474 448.99 427.494 448.01V447.03C425.534 445.07 423.584 443.12 421.624 442.14C419.664 440.18 419.664 438.23 419.664 436.27C418.684 435.29 418.684 435.29 418.684 434.31C418.684 432.35 418.684 431.38 419.664 430.4C419.664 429.42 420.644 429.42 421.624 429.42C423.584 429.42 424.554 428.44 423.584 427.46L421.624 421.59L418.694 417.68L413.804 410.84C413.804 409.86 413.804 408.88 414.784 407.91C414.784 406.93 415.764 406.93 415.764 407.91V408.89C417.724 410.85 418.694 412.8 420.654 413.78C421.634 414.76 422.614 415.74 423.584 415.74V413.78H423.544ZM420.614 624.01C420.614 623.03 419.634 623.03 418.654 622.05C418.654 620.09 417.674 619.12 417.674 618.14L414.744 613.25C414.744 612.27 413.764 611.29 414.744 611.29C415.724 610.31 415.724 610.31 416.704 610.31C417.684 611.29 418.664 611.29 418.664 612.27C420.624 615.2 422.574 617.16 423.554 620.09V621.07C424.534 623.03 424.534 624 423.554 624C422.564 624.99 421.594 624.99 420.614 624.01ZM417.674 357.07C417.674 356.09 418.654 356.09 419.634 356.09C420.614 356.09 421.594 357.07 421.594 358.05C423.554 359.03 424.524 360.01 425.504 361.96L430.394 371.74C431.374 372.72 432.354 374.67 433.324 374.67L436.254 377.6C437.234 377.6 438.214 379.56 437.234 380.53C437.234 381.51 438.214 382.49 437.234 382.49C436.254 383.47 435.274 382.49 434.304 382.49L430.394 379.56C428.434 378.58 427.464 376.63 426.484 374.67L422.574 365.87C422.574 364.89 422.574 363.91 421.594 362.94C421.594 360.98 420.614 359.03 418.664 358.05L417.674 357.07ZM419.634 348.27C419.634 347.29 419.634 347.29 420.614 347.29C422.574 347.29 424.524 348.27 425.504 349.25L429.414 353.16C430.394 357.07 433.324 359.03 435.284 361.96C436.264 362.94 436.264 363.92 436.264 363.92C436.264 365.88 435.284 365.88 434.304 365.88C433.324 365.88 431.374 365.88 431.374 364.9C429.414 362.94 427.464 360.99 426.484 358.06L424.524 355.13C423.544 353.17 422.564 351.22 419.634 350.24C419.634 350.23 418.654 349.25 419.634 348.27ZM436.254 394.23V397.16C436.254 398.14 435.274 398.14 434.294 398.14L432.334 396.18C432.334 395.2 432.334 394.22 431.354 393.25C431.354 391.29 430.374 389.34 427.444 387.38C426.464 387.38 425.484 385.42 425.484 384.45L420.594 378.58C419.614 375.65 418.634 373.69 419.614 370.76V369.78H420.594V370.76C421.574 373.69 423.524 376.63 425.484 379.56L426.464 380.54C428.424 381.52 429.394 383.47 430.374 384.45C431.354 384.45 431.354 385.43 432.334 385.43C435.284 387.38 436.254 391.3 436.254 394.23ZM419.634 338.49V336.53C420.614 335.55 421.594 335.55 422.564 336.53C423.544 336.53 425.494 337.51 426.474 338.49L430.384 342.4V344.36C430.384 345.34 429.404 346.32 428.424 345.34C427.444 345.34 426.464 344.36 425.494 343.38C424.514 343.38 424.514 342.4 423.534 341.42L419.634 338.49ZM424.524 326.76C425.504 326.76 427.454 327.74 428.434 328.72C428.434 329.7 429.414 330.68 429.414 331.65C429.414 333.61 428.434 333.61 426.484 332.63L421.594 329.7C420.614 328.72 420.614 326.77 421.594 326.77C422.564 326.76 423.544 325.78 424.524 326.76ZM427.454 320.89C426.474 320.89 425.494 320.89 424.524 319.91C423.544 318.93 423.544 317.95 424.524 316.98H425.504C426.484 316.98 428.434 318.94 428.434 320.89H427.454ZM447.014 493.97L447.994 494.95V495.93C446.034 498.86 445.064 500.82 442.124 502.77C440.164 503.75 438.214 504.73 435.284 504.73C433.324 504.73 432.354 505.71 430.394 505.71C429.414 506.69 428.434 506.69 428.434 506.69C426.474 506.69 426.474 506.69 426.474 505.71L429.404 502.78C431.364 501.8 433.314 500.82 436.244 500.82C440.154 500.82 443.084 498.86 445.044 495.93C445.044 494.95 446.024 494.95 446.024 493.97H447.014V493.97ZM450.924 482.23V483.21C448.964 488.1 446.034 492.01 441.144 494.94C439.184 495.92 437.234 496.9 435.274 496.9C434.294 496.9 433.314 497.88 432.344 498.86H430.384C429.404 498.86 428.424 498.86 428.424 497.88V495.92C430.384 493.96 433.314 492.01 436.244 492.01C439.174 491.03 442.114 490.05 444.064 488.1L449.934 482.23H450.924ZM444.084 406.94C445.064 408.9 446.044 410.85 447.994 411.83V413.79C447.994 413.79 447.994 414.77 447.014 414.77H445.054C443.094 412.81 442.124 410.86 441.144 408.9C440.164 408.9 440.164 407.92 440.164 407.92V406.94C441.144 405.96 442.124 404.98 443.094 405.96C443.104 405.96 444.084 405.96 444.084 406.94ZM447.014 399.12L449.944 405.96V406.94L448.964 407.92L447.984 406.94C445.054 404.98 444.074 403.03 444.074 400.1C444.074 399.12 444.074 398.14 445.054 398.14C445.054 397.16 446.034 398.14 447.014 399.12ZM446.034 386.41C447.014 385.43 447.994 385.43 448.964 387.39L451.894 395.21C452.874 395.21 452.874 396.19 451.894 396.19C450.914 396.19 449.934 396.19 448.964 395.21C447.004 393.25 446.034 391.3 446.034 388.37V386.41ZM449.944 377.61H450.924V380.54L453.854 385.43V386.41C452.874 387.39 452.874 387.39 451.894 386.41C451.894 386.41 450.914 385.43 449.934 385.43C448.954 383.47 447.974 381.52 447.974 378.59C447.994 377.61 448.964 377.61 449.944 377.61ZM451.904 369.78L454.834 377.6H453.854C452.874 377.6 451.894 376.62 451.894 376.62C449.934 374.66 449.934 371.73 449.934 369.78C449.934 368.8 449.934 368.8 450.914 368.8C450.924 368.81 451.904 368.81 451.904 369.78ZM454.834 358.05C454.834 359.03 455.814 360.01 455.814 360.98C455.814 362.94 455.814 364.89 456.794 366.85C456.794 366.85 456.794 367.83 455.814 367.83C455.814 367.83 454.834 367.83 454.834 366.85C452.874 365.87 452.874 363.92 452.874 362.94C451.894 361.96 451.894 360.01 452.874 359.03C452.874 358.05 452.874 358.05 453.854 358.05H454.834V358.05ZM456.794 351.2C457.774 351.2 457.774 352.18 457.774 352.18C457.774 354.14 457.774 356.09 458.754 358.05H457.774C455.814 357.07 455.814 355.12 454.844 353.16C454.844 352.18 454.844 351.2 455.824 351.2H456.794V351.2ZM459.724 449.96C459.724 451.92 460.704 453.87 460.704 455.83C461.684 456.81 461.684 457.79 461.684 458.76C461.684 459.74 460.704 459.74 459.724 459.74C458.744 459.74 458.744 459.74 458.744 458.76C456.784 456.8 455.814 454.85 455.814 450.94V449.96C455.814 448.98 455.814 448 456.794 448.98C457.764 448.99 458.744 448.99 459.724 449.96ZM462.654 402.05C464.614 400.09 465.584 398.14 466.564 396.18C467.544 391.29 470.474 388.36 473.404 386.4L481.224 379.56L487.094 375.65C489.054 374.67 491.984 375.65 491.984 377.61V380.54L490.024 388.36C490.024 389.34 489.044 390.32 489.044 391.29C488.064 393.25 489.044 395.2 489.044 397.16C490.024 399.11 490.024 401.07 489.044 404C488.064 405.96 487.084 408.89 487.084 411.82V419.64C488.064 423.55 486.104 427.46 483.174 430.4L480.244 435.29L479.264 436.27L478.284 435.29C477.304 433.33 476.324 431.38 474.374 430.4C473.394 429.42 473.394 428.44 473.394 426.49C474.374 426.49 474.374 425.51 474.374 425.51C474.374 424.53 475.354 423.55 475.354 422.58V418.67L470.464 408.89C470.464 407.91 469.484 406.93 468.504 405.96C468.504 404.98 468.504 404.98 467.524 404.98C464.594 407.91 461.654 411.82 459.704 415.74V416.72H458.724V409.88C458.724 407.92 458.724 406.95 459.704 405.97L462.654 402.05ZM459.724 446.05V442.14C460.704 441.16 461.684 441.16 462.654 441.16C462.654 442.14 463.634 442.14 463.634 442.14L466.564 448.01V449.97C465.584 449.97 464.604 450.95 463.634 449.97C462.654 448.99 460.704 448.01 459.724 446.05ZM466.574 441.16C464.614 439.2 463.644 437.25 463.644 434.32C462.664 433.34 463.644 432.36 464.624 431.39C465.604 430.41 465.604 430.41 466.584 431.39C466.584 431.39 466.584 432.37 467.564 432.37L471.474 439.21C472.454 440.19 472.454 441.17 472.454 441.17C473.434 442.15 472.454 443.13 472.454 443.13C471.474 444.11 470.494 444.11 470.494 444.11L466.574 441.16ZM468.524 323.83H467.544C467.544 323.83 468.524 324.81 467.544 324.81V326.77C466.564 325.79 466.564 325.79 465.584 325.79C464.604 324.81 464.604 323.83 464.604 322.86C464.604 321.88 465.584 320.9 465.584 320.9C466.564 320.9 467.544 320.9 467.544 321.88C468.524 322.85 468.524 322.85 468.524 323.83ZM475.374 436.27C472.444 436.27 470.484 434.31 468.534 432.36C467.554 430.4 467.554 429.43 467.554 427.47V417.69C467.554 416.71 467.554 416.71 468.534 416.71C468.534 415.73 469.514 416.71 469.514 416.71C470.494 418.67 472.444 420.62 472.444 423.55C472.444 426.48 472.444 429.42 475.374 432.35C475.374 432.35 476.354 433.33 476.354 434.31C477.324 435.3 476.344 436.27 475.374 436.27ZM471.454 334.58V333.6C470.474 331.64 470.474 328.71 470.474 326.76C470.474 326.76 470.474 325.78 471.454 325.78C471.454 324.8 472.434 323.82 473.414 324.8C474.394 325.78 474.394 326.76 474.394 327.73C474.394 329.69 474.394 332.62 472.434 334.57H471.454V334.58ZM480.254 332.63C480.254 334.59 480.254 336.54 479.274 338.5C479.274 339.48 478.294 340.46 477.314 340.46C477.314 341.44 477.314 341.44 476.334 341.44V336.55L478.294 329.71C478.294 329.71 478.294 328.73 479.274 328.73C480.254 328.73 480.254 329.71 480.254 330.69V332.63ZM482.214 347.29C481.234 347.29 481.234 346.31 481.234 346.31C481.234 344.35 482.214 343.38 482.214 341.42C483.194 339.46 484.174 337.51 484.174 334.58L485.154 333.6C485.154 332.62 485.154 331.64 486.134 331.64C487.114 331.64 487.114 331.64 487.114 332.62C488.094 333.6 488.094 334.58 488.094 335.55C488.094 337.51 488.094 339.46 487.114 341.42C486.134 343.38 485.154 345.33 483.204 346.31C483.194 347.29 482.214 347.29 482.214 347.29ZM538.924 330.67C541.854 332.63 544.794 335.56 545.764 339.47C546.744 340.45 546.744 341.43 545.764 342.4C545.764 344.36 544.784 344.36 542.834 344.36C541.854 343.38 540.874 342.4 540.874 341.43L534.034 334.59C531.104 331.66 528.164 328.72 526.214 324.81L524.254 318.94C524.254 316.98 524.254 316.01 522.294 314.05C521.314 312.09 519.364 310.14 516.424 309.16C515.444 308.18 515.444 308.18 514.464 308.18C513.484 307.2 513.484 307.2 513.484 306.22L514.464 305.24C515.444 305.24 515.444 306.22 516.424 306.22C520.334 307.2 524.244 309.15 527.184 313.06C528.164 315.02 529.144 316.97 529.144 318.93C530.124 320.89 531.104 323.82 533.054 324.8L538.924 330.67ZM551.634 328.72C547.724 327.74 545.764 325.79 544.794 322.85C542.834 320.89 541.864 316.98 541.864 315.03C540.884 312.1 540.884 310.14 538.934 309.16L534.044 306.23V304.27C534.044 304.27 534.044 303.29 535.024 303.29C536.004 303.29 536.984 303.29 537.954 304.27C541.864 307.2 545.774 310.14 546.754 315.03C547.734 317.96 549.684 320.9 552.624 321.87L559.464 326.76C562.394 328.72 564.354 331.65 564.354 334.58C565.334 335.56 565.334 336.54 565.334 336.54C564.354 338.5 565.334 339.47 564.354 340.45H563.374L561.414 336.54C560.434 334.58 559.454 332.63 556.524 331.65L551.634 328.72ZM571.194 322.85C568.264 321.87 565.324 320.89 562.394 318.94C558.484 316.98 556.524 313.07 556.524 309.16C556.524 307.2 555.544 304.27 553.594 303.29C552.614 302.31 550.664 302.31 549.684 302.31C548.704 302.31 547.724 301.33 547.724 301.33C546.744 300.35 547.724 299.37 548.704 299.37H549.684C553.594 299.37 557.504 300.35 558.484 304.26L561.414 309.15C562.394 310.13 562.394 311.11 563.374 311.11C566.304 314.04 569.244 316 572.174 317.95L577.064 320.88C579.024 322.84 580.974 324.79 581.954 328.7C582.934 328.7 582.934 329.68 582.934 329.68C582.934 330.66 580.974 331.64 580.974 330.66C579.994 329.68 579.014 328.7 578.044 328.7C577.064 325.78 574.124 323.83 571.194 322.85ZM584.884 310.14H580.974C579.014 310.14 577.064 309.16 575.104 308.18C573.144 306.22 572.174 304.27 571.194 302.31C570.214 298.4 566.304 296.44 562.394 295.47C562.394 295.47 561.414 295.47 561.414 294.49C560.434 294.49 560.434 293.51 560.434 293.51C561.414 292.53 561.414 292.53 562.394 292.53H563.374C565.334 292.53 567.284 293.51 570.214 294.49C572.174 296.45 575.104 298.4 577.054 301.33C578.034 303.29 579.984 304.26 581.944 304.26C583.904 303.28 586.834 303.28 588.784 304.26C592.694 305.24 596.604 306.22 599.544 309.15C601.504 311.11 603.454 314.04 603.454 315.99V317.95H601.494L598.564 315.02C597.584 313.06 595.634 312.09 593.674 311.11C590.754 310.14 587.814 310.14 584.884 310.14ZM596.614 298.4C591.724 298.4 588.794 296.44 584.884 292.53L581.954 288.62C581.954 287.64 580.974 287.64 579.994 286.66C578.034 286.66 576.084 286.66 574.124 285.68H573.144C572.164 285.68 572.164 284.7 572.164 284.7C572.164 283.72 573.144 282.74 573.144 282.74C579.014 282.74 583.904 282.74 588.784 287.63C591.714 291.54 596.604 292.52 601.494 293.5C605.404 293.5 608.334 294.48 611.274 295.46C614.204 296.44 617.144 299.37 618.114 302.3H619.094C618.114 302.3 618.114 303.28 618.114 303.28C617.134 303.28 617.134 302.3 616.154 302.3L611.264 299.37C609.304 298.39 607.354 298.39 605.394 298.39H596.614V298.4ZM623.994 284.71H620.084C619.104 283.73 616.174 283.73 614.214 283.73H609.324C605.414 283.73 601.504 281.77 599.544 277.86C598.564 277.86 598.564 276.88 598.564 276.88C596.604 273.95 594.654 273.95 591.724 272.97H588.794C587.814 271.99 586.834 271.99 587.814 271.01C587.814 270.03 587.814 269.05 588.794 269.05H590.754C594.664 270.03 598.574 270.03 601.514 273.94C603.474 276.87 606.404 276.87 609.334 276.87C613.244 277.85 618.134 277.85 621.064 280.78C623.024 281.76 623.024 282.74 623.994 283.71V284.71ZM624.974 262.22C621.064 263.2 617.154 263.2 614.214 262.22L610.304 259.29C609.324 259.29 608.344 258.31 608.344 257.33C606.384 256.35 604.434 255.37 602.474 255.37H599.544C598.564 255.37 597.584 254.39 597.584 254.39C596.604 254.39 596.604 253.41 597.584 252.43C597.584 252.43 598.564 251.45 599.544 251.45H603.454C607.364 251.45 610.294 252.43 613.234 254.38C613.234 254.38 614.214 255.36 615.194 255.36C617.154 257.32 619.104 257.32 621.064 257.32H625.954C628.884 257.32 631.824 258.3 633.774 259.28L635.734 261.24C635.734 261.24 636.714 262.22 635.734 262.22C635.734 263.2 634.754 262.22 634.754 262.22H624.974ZM635.734 242.67C632.804 241.69 629.864 241.69 626.934 242.67C625.954 242.67 624.974 243.65 623.024 243.65L619.114 241.69L617.154 238.76C616.174 237.78 615.194 237.78 613.244 237.78H608.354C607.374 238.76 606.394 238.76 606.394 237.78C605.414 237.78 605.414 237.78 604.434 236.8C604.434 236.8 604.434 235.82 605.414 235.82C605.414 235.82 606.394 234.84 607.374 234.84H615.194C617.154 233.86 619.104 234.84 621.064 236.8C622.044 237.78 623.994 237.78 625.954 237.78C629.864 235.82 633.774 236.8 637.684 239.74C638.664 239.74 639.644 241.7 639.644 241.7C638.664 242.67 636.704 242.67 635.734 242.67ZM612.264 222.13V220.17C613.244 220.17 613.244 219.19 614.224 219.19C616.184 219.19 618.134 218.21 620.094 218.21C623.024 217.23 624.984 218.21 626.934 218.21L632.804 221.14C632.804 221.14 633.784 221.14 633.784 222.12C635.744 223.1 635.744 224.08 633.784 225.05C632.804 225.05 631.824 225.05 630.854 226.03C628.894 226.03 626.944 225.05 625.964 224.07C624.004 224.07 623.034 223.09 621.074 222.11H617.164C615.204 223.09 614.234 223.09 613.254 223.09C613.244 222.13 612.264 222.13 612.264 222.13ZM619.104 208.45V206.49L623.014 204.53C624.974 203.55 625.944 203.55 627.904 203.55C628.884 202.57 629.864 203.55 630.834 202.57C633.764 202.57 636.704 204.53 638.654 206.48C638.654 207.46 638.654 207.46 639.634 207.46C639.634 209.42 639.634 210.39 637.674 210.39C636.694 210.39 635.714 210.39 633.764 209.41L630.834 207.45C628.874 206.47 625.944 206.47 623.994 207.45C623.014 208.43 622.034 208.43 621.064 208.43H619.104V208.45ZM637.684 187.91H639.644C642.574 187.91 644.534 189.87 645.514 191.82C646.494 192.8 646.494 193.78 645.514 193.78C645.514 194.76 644.534 194.76 643.554 194.76L642.574 193.78C639.644 191.82 637.684 191.82 634.754 192.8C632.794 192.8 630.844 193.78 629.864 193.78H627.904C627.904 193.78 626.924 193.78 626.924 192.8C625.944 192.8 626.924 191.82 626.924 191.82C627.904 189.86 629.854 189.86 630.834 188.89C632.794 188.89 635.734 187.91 637.684 187.91ZM636.704 177.16C636.704 176.18 637.684 175.2 638.664 175.2C640.624 174.22 642.574 174.22 643.554 173.24L649.424 175.2L650.404 176.18C651.384 177.16 651.384 178.14 649.424 179.11L648.444 180.09C646.484 180.09 645.514 179.11 644.534 179.11H639.644C637.684 180.09 636.714 180.09 636.714 178.13V177.16H636.704ZM652.354 158.58C653.334 159.56 653.334 159.56 654.314 159.56C654.314 160.54 655.294 160.54 654.314 161.52C654.314 162.5 654.314 162.5 653.334 162.5H650.404C649.424 163.48 648.444 163.48 647.474 163.48C646.504 163.48 646.494 164.46 645.514 164.46C643.554 165.44 642.584 164.46 642.584 162.5C642.584 161.52 643.564 160.54 643.564 159.57C644.544 158.59 646.494 158.59 648.454 158.59H652.354V158.58ZM660.174 141.95C661.154 142.93 661.154 143.91 660.174 144.88C658.214 145.86 655.284 146.84 653.334 146.84C651.374 146.84 650.404 146.84 650.404 144.88C650.404 144.88 651.384 142.92 652.364 142.92C653.344 141.94 654.324 141.94 656.274 141.94H660.174V141.95ZM660.174 131.2C660.174 130.22 660.174 129.24 661.154 129.24C661.154 128.26 661.154 128.26 662.134 127.28C664.094 126.3 666.044 126.3 668.004 126.3H668.984C669.964 126.3 670.944 127.28 669.964 128.26C669.964 128.26 669.964 129.24 668.984 129.24C667.024 131.2 665.074 132.17 662.144 132.17C661.154 132.18 661.154 132.18 660.174 131.2ZM673.864 119.46C673.864 118.48 674.844 117.5 675.824 117.5H679.734C679.734 118.48 680.714 118.48 680.714 118.48C680.714 119.46 679.734 119.46 678.754 119.46C677.774 119.46 676.794 120.44 675.824 120.44C674.844 120.44 673.864 120.44 673.864 119.46Z" fill="url(#paint0_linear_606_42)"/>
<defs>
<linearGradient id="paint0_linear_606_42" x1="61" y1="95" x2="728" y2="696" gradientUnits="userSpaceOnUse">
<stop stop-color="#CD8258"/>
<stop offset="1" stop-color="#74453A"/>
</linearGradient>
</defs>
</svg>
