<svg width="790" height="790" viewBox="0 0 790 790" fill="none" xmlns="http://www.w3.org/2000/svg">
<path d="M246.94 438.82C246.94 437.84 245.96 436.86 245.96 435.89C244.98 431.98 244.98 428.07 244.98 424.16C244 422.2 244 419.27 244 417.32V376.25C244.98 366.47 244 356.69 244.98 346.92V343.01C244.98 341.05 244.98 340.08 245.96 339.1V337.14C245.96 334.21 245.96 332.25 246.94 329.32V324.43C247.92 321.5 247.92 319.54 247.92 317.59C248.9 314.66 249.88 312.7 249.88 309.77C249.88 306.84 250.86 303.9 251.84 300.97C253.8 298.04 254.77 295.1 255.75 292.17C257.71 290.21 258.68 288.26 259.66 286.3C262.59 284.34 264.55 281.41 266.5 278.48L272.37 273.59L281.17 266.75L292.9 260.88L314.41 254.04L331.03 247.2C332.99 247.2 334.94 246.22 336.9 245.24C338.86 243.28 340.81 241.33 341.79 239.37C343.75 235.46 345.7 232.53 346.68 228.61C347.66 224.7 348.64 221.77 348.64 217.85C348.64 216.87 348.64 215.89 349.62 214.92C349.62 214.92 349.62 213.94 350.6 213.94L351.58 214.92C350.6 217.85 351.58 219.81 350.6 221.76V222.74C350.6 227.63 349.62 232.52 347.67 236.43C347.67 238.39 346.69 240.34 346.69 242.3C345.71 244.26 343.76 246.21 341.8 248.17C337.89 251.1 334.96 252.08 331.04 254.04L318.33 258.93C314.42 259.91 310.51 261.86 305.62 262.84L292.91 266.75C287.04 269.68 281.18 273.59 276.29 277.51C273.36 279.47 270.42 282.4 268.47 285.33C267.49 287.29 265.54 288.26 264.56 289.24C262.6 291.2 261.63 293.15 260.65 296.08L256.74 305.86L254.78 314.66C253.8 318.57 252.82 321.5 252.82 325.42C251.84 327.38 251.84 329.33 251.84 331.29C251.84 333.25 250.86 335.2 250.86 337.16V338.14C250.86 341.07 250.86 344.98 249.88 348.9V425.17C248.9 428.1 248.9 430.06 248.9 432.01C248.9 433.97 248.9 436.9 247.92 438.85H246.94V438.82ZM541.26 650.03V651.01C541.26 653.94 541.26 655.9 540.28 658.83C540.28 662.74 539.3 666.65 538.32 670.56L532.45 680.34L525.61 688.16C523.65 689.14 521.7 690.12 519.74 692.07L509.96 697.94L501.16 700.87L490.4 703.8C486.49 704.78 482.58 704.78 478.67 704.78C475.74 705.76 471.83 705.76 468.89 705.76C465.96 706.74 463.02 706.74 461.07 706.74C456.18 707.72 451.29 707.72 447.38 707.72H434.68C430.77 708.7 427.84 707.72 424.9 708.7H414.14C412.18 709.68 409.25 708.7 407.3 709.68H392.63C385.79 710.66 377.96 709.68 372.1 710.66H357.43C352.54 710.66 346.67 710.66 341.79 709.68H330.06L318.33 707.72H313.44L302.68 705.76C295.84 704.78 288.01 703.8 281.17 701.85C277.26 700.87 274.33 698.92 270.41 695.98L260.63 688.16C257.7 685.23 254.76 681.32 252.81 677.4L249.88 668.6L247.92 661.76C247.92 660.78 246.94 658.83 246.94 657.85C246.94 655.89 246.94 653.94 245.96 651.98V593.31C244.98 585.49 245.96 577.67 244.98 568.86V528.77C245.96 518.01 244.98 506.28 244.98 494.55C244.98 489.66 244.98 483.79 245.96 477.93V464.24C245.96 459.35 246.94 455.44 246.94 451.53V448.6H248.9V449.58C249.88 457.4 248.9 464.25 249.88 471.09V489.67C250.86 496.51 250.86 504.34 249.88 512.16V547.36C249.88 551.27 249.88 556.16 250.86 560.07V567.89C250.86 570.82 250.86 573.76 251.84 575.71V582.55C252.82 587.44 251.84 592.33 252.82 597.22V630.47C253.8 637.31 252.82 644.16 253.8 651C253.8 653.93 253.8 657.84 254.78 660.78L256.74 669.58L259.67 675.45L265.54 682.29L268.47 685.22L274.34 690.11C276.3 692.07 278.25 693.04 280.21 693.04C285.1 695 289.01 696.95 293.9 697.93H296.83C299.76 698.91 302.7 699.89 304.65 699.89C308.56 699.89 311.49 700.87 315.41 700.87C318.34 700.87 321.28 701.85 323.23 701.85H324.21C326.17 701.85 328.12 701.85 330.08 702.83H341.81C345.72 703.81 348.65 703.81 352.57 703.81H358.44C367.24 702.83 376.04 703.81 384.84 703.81C388.75 702.83 392.66 703.81 396.57 702.83H404.39C407.32 701.85 409.28 702.83 412.21 701.85H427.85C430.78 701.85 433.72 701.85 437.63 700.87H441.54C447.41 700.87 452.3 700.87 458.16 699.89C462.07 699.89 465 698.91 468.92 698.91C470.88 698.91 472.83 698.91 474.79 697.93H480.66C482.62 696.95 484.57 696.95 485.55 696.95L499.24 694.99C501.2 694.01 503.15 694.01 504.13 693.03C505.11 693.03 507.06 692.05 508.04 692.05L514.88 686.18C515.86 686.18 517.81 685.2 518.79 684.22C522.7 682.26 525.63 678.35 528.57 674.44L529.55 673.46C531.51 671.5 532.48 670.53 532.48 668.57L535.41 660.75C535.41 658.79 536.39 656.84 536.39 655.86C537.37 653.9 538.35 652.93 538.35 650.97C539.33 650.97 539.33 649.99 540.31 649.01L541.26 650.03ZM354.5 321.48H359.39L365.26 323.44H369.17C375.04 321.48 379.93 322.46 385.79 322.46C388.72 323.44 392.63 323.44 395.57 322.46H424.9C426.86 322.46 428.81 321.48 430.77 321.48H432.73C436.64 322.46 439.57 322.46 442.51 322.46C444.47 323.44 445.44 322.46 447.4 322.46H455.22C457.18 323.44 459.13 323.44 461.09 322.46C465 322.46 467.93 323.44 470.87 323.44C472.83 324.42 473.8 324.42 475.76 324.42C478.69 325.4 481.63 325.4 484.56 325.4H500.21C502.17 325.4 504.12 326.38 506.08 326.38H508.04C510.97 326.38 513.91 327.36 517.82 328.34H520.75V329.32C520.75 331.28 519.77 331.28 518.79 332.25L509.99 336.16L503.15 338.12C500.22 339.1 498.26 339.1 496.31 339.1C494.35 340.08 493.38 340.08 491.42 340.08C490.44 340.08 488.49 341.06 487.51 341.06C485.55 341.06 482.62 342.04 480.67 342.04C479.69 342.04 478.71 343.02 476.76 343.02H469.92C467.96 344 466.01 344 463.08 344H461.12L460.14 344.98H461.12C462.1 345.96 463.08 345.96 464.05 345.96C466.98 344.98 468.94 344.98 471.87 344.98H473.83C477.74 344.98 481.65 344.98 485.56 344C488.49 343.02 490.45 343.02 492.4 344H505.11L513.91 341.07C514.89 341.07 516.84 340.09 517.82 339.11C518.8 337.15 520.75 336.18 522.71 336.18C524.67 336.18 526.62 334.22 527.6 333.25L529.56 336.18C529.56 338.14 529.56 339.11 530.54 340.09V363.56C531.52 364.54 530.54 365.52 530.54 367.47C530.54 370.4 530.54 373.34 531.52 376.27C532.5 383.11 531.52 389.96 532.5 397.78V403.65C531.52 412.45 532.5 421.25 532.5 430.05C531.52 432.98 532.5 434.94 532.5 437.87C532.5 441.78 531.52 445.69 531.52 449.6C531.52 453.51 530.54 457.42 531.52 461.33V474.04C531.52 480.88 531.52 486.75 530.54 492.62V500.44C531.52 510.22 530.54 520 531.52 530.75V556.17C532.5 563.01 531.52 568.88 532.5 575.73V604.09C531.52 608.98 532.5 612.89 531.52 616.8V635.38C531.52 639.29 530.54 643.2 529.56 647.11C529.56 649.07 528.58 652 528.58 653.95C528.58 654.93 527.6 656.88 527.6 657.86L520.76 671.55C519.78 673.51 516.85 675.46 514.89 676.44C510.98 678.4 506.09 679.37 502.18 680.35C499.25 681.33 496.31 681.33 493.38 681.33H492.4L483.6 684.26C482.62 684.26 482.62 685.24 482.62 685.24C482.62 687.2 481.64 688.17 480.66 687.2C478.7 687.2 476.75 687.2 474.79 686.22C473.81 685.24 471.86 685.24 470.88 683.29C469.9 683.29 468.92 683.29 467.95 682.31C464.04 682.31 460.13 680.35 456.22 679.38H452.31C451.33 678.4 449.38 678.4 448.4 678.4C444.49 677.42 441.56 677.42 437.64 677.42L427.86 675.46H394.61C388.74 674.48 382.88 674.48 377.01 674.48C375.05 674.48 373.1 675.46 372.12 675.46H355.5C352.57 675.46 349.63 675.46 346.7 676.44C341.81 677.42 336.92 677.42 331.05 679.37C330.07 680.35 329.09 680.35 328.12 680.35L320.3 684.26C318.34 686.22 316.39 687.19 313.46 687.19C312.48 687.19 310.53 687.19 309.55 686.21L301.73 682.3H295.86C292.93 682.3 289.99 682.3 287.06 681.32C286.08 680.34 283.15 680.34 281.19 679.36C278.26 679.36 275.32 677.4 273.37 675.45C272.39 675.45 272.39 674.47 271.41 674.47C267.5 673.49 266.52 670.56 265.54 667.63C264.56 664.7 263.58 661.76 263.58 659.81V658.83C262.6 654.92 262.6 650.03 262.6 646.12C262.6 643.19 262.6 641.23 261.62 638.3V636.34C261.62 633.41 261.62 631.45 260.64 628.52V612.88C260.64 610.92 260.64 609.95 259.66 608.97C258.68 607.01 258.68 605.06 258.68 603.1V593.32C257.7 593.32 257.7 593.32 257.7 592.34C258.68 587.45 258.68 581.58 258.68 575.72C257.7 570.83 258.68 564.96 257.7 560.07C256.72 537.58 257.7 516.07 257.7 493.58V457.4C258.68 452.51 258.68 447.62 258.68 443.71V439.8C258.68 438.82 257.7 436.87 257.7 435.89C257.7 433.93 257.7 431 258.68 429.05C259.66 427.1 258.68 426.12 258.68 424.16C257.7 422.2 256.72 420.25 256.72 418.29V405.58C257.7 392.87 256.72 379.18 257.7 365.49V349.85C257.7 348.87 257.7 346.92 258.68 345.94V341.05C257.7 339.09 258.68 338.12 259.66 337.14C262.59 335.18 264.55 335.18 267.48 338.12C268.46 339.1 270.41 341.05 273.35 342.03C275.31 343.01 277.26 343.01 279.22 342.03L280.2 341.05C281.18 341.05 283.13 341.05 284.11 342.03C284.11 343.01 286.07 343.01 287.04 343.01H293.88C293.88 343.01 293.88 342.03 292.9 342.03C291.92 341.05 289.97 341.05 288.01 341.05C287.03 341.05 286.05 341.05 285.08 339.09C285.08 338.11 283.12 338.11 282.15 338.11H277.26C277.26 339.09 276.28 338.11 275.3 338.11L270.41 335.18C269.43 334.2 268.45 333.22 267.48 333.22C265.52 332.24 263.57 331.26 261.61 332.24H260.63V331.26C264.54 329.3 268.45 327.35 272.36 328.33H274.32C275.3 328.33 276.28 328.33 277.25 327.35C279.21 326.37 281.16 325.39 283.12 325.39H285.08C287.04 325.39 288.99 326.37 290.95 326.37C292.91 326.37 293.88 326.37 295.84 325.39H315.4C317.36 324.41 319.31 324.41 321.27 324.41H330.07C332.03 324.41 333.98 324.41 335.94 323.43H336.92C339.85 323.43 342.79 322.45 344.74 322.45C348.63 323.44 351.56 322.46 354.5 321.48ZM276.27 296.06C280.18 293.13 283.11 290.19 286.05 286.28C287.03 285.3 287.03 284.32 288.01 284.32C285.08 284.32 283.12 285.3 280.19 286.28L270.41 296.06C270.41 295.08 269.43 295.08 269.43 295.08C269.43 293.12 270.41 291.17 271.39 289.21L277.26 283.34C279.22 282.36 281.17 280.41 283.13 278.45L295.84 271.61C298.77 269.65 301.71 268.68 305.62 267.7H307.58C307.58 266.72 308.56 266.72 309.54 266.72C311.5 266.72 313.45 265.74 315.41 265.74C315.41 265.74 316.39 266.72 317.37 266.72C318.35 266.72 318.35 266.72 318.35 267.7C319.33 267.7 319.33 268.68 318.35 268.68L313.46 271.61C313.46 271.61 312.48 271.61 312.48 272.59C309.55 273.57 307.59 275.52 304.66 277.48C303.68 278.46 301.73 278.46 300.75 280.41C296.84 283.34 291.95 287.25 289.02 291.17L283.15 298.01L276.31 305.83C274.35 307.79 273.38 310.72 272.4 312.67L266.53 322.45C266.53 323.43 265.55 323.43 265.55 324.41C264.57 325.39 262.62 325.39 262.62 323.43C261.64 322.45 261.64 321.47 261.64 320.5C261.64 316.59 261.64 311.7 263.6 307.79C263.6 306.81 264.58 306.81 264.58 305.83C265.56 303.87 266.54 302.9 268.49 302.9C270.45 303.88 271.42 302.9 273.38 300.94L276.27 296.06ZM424.9 361.57C406.32 362.55 387.74 361.57 368.19 362.55C366.23 362.55 364.28 362.55 363.3 361.57H331.03C329.07 361.57 327.12 361.57 324.19 360.59H314.41C311.48 359.61 308.54 359.61 305.61 359.61H299.74C297.78 360.59 295.83 359.61 292.9 359.61H290.94C288.98 359.61 287.03 358.63 285.07 358.63H282.14V391.88C283.12 396.77 283.12 400.68 283.12 405.57V430.02C284.1 431 284.1 432.95 283.12 433.93V457.4C284.1 461.31 283.12 465.22 283.12 469.13V496.51C284.1 505.31 284.1 513.13 284.1 521.93C285.08 533.66 284.1 545.4 285.08 557.13V568.86C285.08 574.73 285.08 579.62 286.06 584.5V606.99C287.04 610.9 286.06 615.79 287.04 619.7V620.68C287.04 621.66 286.06 622.64 286.06 622.64V631.44C285.08 631.44 286.06 632.42 286.06 632.42L295.84 637.31H298.77C303.66 638.29 308.55 638.29 312.46 638.29H315.39C318.32 639.27 321.26 638.29 324.19 639.27H334.95C338.86 640.25 342.77 639.27 346.68 640.25H349.61C353.52 642.21 357.43 641.23 361.34 641.23C363.3 640.25 365.25 641.23 368.18 640.25H403.38C411.2 640.25 418.05 640.25 424.89 639.27H452.27C460.09 639.27 467.91 639.27 474.76 638.29H481.6C482.58 638.29 483.56 637.31 485.51 637.31C486.49 637.31 488.44 637.31 490.4 636.33H496.27L506.05 633.4C508.98 633.4 510.94 632.42 512.89 631.44C513.87 630.46 513.87 629.48 513.87 628.51V608.95C512.89 600.15 513.87 591.35 512.89 583.53C512.89 581.57 512.89 580.6 513.87 578.64V560.06C514.85 545.39 513.87 531.7 514.85 517.04C514.85 509.22 513.87 500.42 514.85 491.62V476.95C515.83 472.06 515.83 467.17 515.83 462.28V441.75C516.81 438.82 515.83 436.86 515.83 433.93V377.22C514.85 373.31 515.83 369.4 514.85 366.46V356.68C514.85 353.75 514.85 353.75 511.92 354.72C509.96 354.72 508.99 355.7 508.01 355.7L502.14 357.66C500.18 357.66 497.25 357.66 495.3 358.64H491.39C487.48 358.64 483.57 359.62 479.66 359.62H450.33C449.35 360.6 448.37 360.6 446.42 360.6H443.49C440.56 360.6 438.6 360.6 436.65 361.58H424.9V361.57ZM349.61 343.97C347.65 342.99 346.68 342.99 344.72 342.99C340.81 342.99 337.88 342.01 333.96 342.99H330.05C329.07 342.01 327.12 342.99 325.16 343.97C323.2 343.97 320.27 344.95 317.34 342.99H314.41C313.43 343.97 311.48 342.99 309.52 342.99C307.56 342.99 305.61 343.97 303.65 343.97C303.65 343.97 302.67 343.97 302.67 344.95H304.63C306.59 344.95 307.56 344.95 309.52 345.93H314.41C315.39 344.95 316.37 344.95 318.32 345.93C319.3 346.91 320.28 346.91 321.25 346.91C323.21 346.91 325.16 346.91 327.12 345.93H329.08C331.04 345.93 332.01 346.91 333.97 346.91H339.84C341.8 346.91 343.75 347.89 346.68 346.91C348.64 346.91 350.59 347.89 352.55 347.89C354.51 346.91 356.46 345.93 358.42 346.91H377C377.98 347.89 378.96 347.89 380.91 347.89C381.89 347.89 383.84 346.91 384.82 346.91H390.69L391.67 345.93H390.68C386.77 345.93 382.86 345.93 378.95 344.95H371.13C368.2 343.97 365.26 342.99 362.33 343.97H349.61ZM328.1 683.27V684.25C327.12 686.21 326.14 688.16 324.19 689.14L323.21 690.12C323.21 690.12 322.23 691.1 321.25 690.12V688.16C322.23 686.2 325.16 683.27 327.12 683.27H328.1ZM327.12 691.1V690.12C327.12 689.14 328.1 689.14 328.1 688.16C329.08 687.18 329.08 686.2 330.06 686.2C331.04 685.22 331.04 685.22 332.02 685.22H333C333.98 686.2 333.98 687.18 333 687.18C332.02 689.14 330.07 690.11 329.09 691.09C329.09 691.09 329.09 692.07 328.11 692.07C328.1 692.07 327.12 692.07 327.12 691.1ZM338.85 687.18V689.14L335.92 692.07C334.94 693.05 333.96 693.05 333.96 692.07V691.09L335.92 687.18C335.92 687.18 336.9 686.2 337.88 686.2L338.85 687.18ZM353.52 242.28V244.24C353.52 247.17 352.54 249.13 351.56 251.08L347.65 255.97C346.67 256.95 345.69 257.93 343.74 256.95C342.76 256.95 341.78 256.95 341.78 255.97C341.78 254.99 341.78 254.01 342.76 253.04L345.69 250.11C347.65 248.15 349.6 246.2 350.58 243.27C350.58 243.27 350.58 242.29 351.56 242.29C351.56 241.31 352.54 241.31 352.54 241.31C353.52 241.3 353.52 242.28 353.52 242.28ZM343.74 688.16C344.72 687.18 345.7 687.18 345.7 688.16C346.68 688.16 346.68 689.14 346.68 689.14L345.7 690.12C345.7 691.1 344.72 692.08 343.74 693.05C342.76 693.05 341.78 692.07 341.78 692.07L343.74 688.16ZM546.15 626.56C545.17 630.47 545.17 635.36 543.22 640.25V641.23H542.24C541.26 639.27 541.26 637.32 540.28 636.34V631.45C539.3 627.54 540.28 622.65 539.3 618.74V612.87C539.3 610.91 539.3 609.94 540.28 607.98V605.05C539.3 604.07 539.3 602.12 539.3 601.14V534.65C538.32 530.74 538.32 526.83 538.32 523.89C538.32 507.27 538.32 490.64 539.3 474.02V457.4C539.3 456.42 538.32 455.44 538.32 454.47C538.32 453.49 539.3 452.51 539.3 450.56V447.63C538.32 446.65 538.32 445.67 538.32 444.7V381.14C539.3 375.27 538.32 370.38 538.32 364.52V350.83C537.34 347.9 538.32 344.96 537.34 342.03V334.21C536.36 331.28 535.38 327.37 535.38 325.41C534.4 323.45 534.4 321.5 534.4 320.52L532.44 308.79C530.48 304.88 529.51 302.92 528.53 299.01C527.55 298.03 526.57 296.08 526.57 295.1C524.61 293.14 522.66 291.19 521.68 289.23C519.72 285.32 516.79 282.39 513.86 279.45C511.9 277.49 509.95 276.52 508.97 274.56C507.99 272.6 506.04 271.63 505.06 270.65L490.39 261.85L483.55 258.92C480.62 256.96 476.71 256.96 472.79 255.01C467.9 254.03 462.03 252.08 457.15 249.14L449.33 246.21C444.44 244.25 441.51 240.34 438.57 235.45L435.64 227.63C434.66 224.7 433.68 222.74 433.68 219.81C432.7 217.85 431.72 214.92 431.72 211.99C430.74 210.03 430.74 208.08 430.74 206.12L428.78 199.28V194.39C427.8 191.46 428.78 189.5 427.8 186.57V185.59C427.8 182.66 427.8 179.72 428.78 176.79C428.78 175.81 429.76 173.86 431.71 172.88C432.69 172.88 432.69 171.9 432.69 170.92V168.96C432.69 167 432.69 165.05 429.76 163.09C428.78 163.09 428.78 162.11 427.8 161.13C427.8 160.15 427.8 160.15 426.82 160.15C424.86 161.13 422.91 161.13 420.95 161.13C416.06 161.13 411.17 162.11 406.28 161.13H394.55C391.62 160.15 388.68 161.13 384.77 160.15C382.81 160.15 379.88 160.15 376.95 159.17H375.97C374.99 159.17 374.99 158.19 374.99 157.21C374.99 157.21 375.97 156.23 376.95 156.23H380.86C382.82 155.25 384.77 155.25 386.73 155.25C392.6 154.27 397.49 154.27 402.37 155.25H415.08C418.01 155.25 420.95 155.25 423.88 154.27H426.81C427.79 154.27 428.77 154.27 428.77 153.29C430.73 152.31 431.7 151.33 430.73 148.4V125.91C429.75 122 429.75 119.07 429.75 116.13V109.29C429.75 108.31 429.75 108.31 428.77 108.31C426.81 109.29 425.84 109.29 424.86 109.29C423.88 109.29 423.88 109.29 423.88 110.27V116.14C423.88 118.1 422.9 120.05 422.9 122.01L421.92 122.99C420.94 123.97 419.96 122.99 419.96 122.01C418 121.03 418 118.1 418 116.14C417.02 114.18 417.02 112.23 417.02 109.3H416.04C414.08 109.3 412.13 109.3 410.17 108.32C409.19 108.32 410.17 109.3 410.17 109.3V120.06C410.17 121.04 409.19 122.02 409.19 122.99C408.21 123.97 407.23 123.97 406.26 122.99L404.3 119.08C404.3 116.15 404.3 112.24 403.32 109.3V108.32H399.41C398.43 108.32 398.43 108.32 398.43 109.3C399.41 113.21 398.43 117.12 399.41 121.03C399.41 122.01 398.43 122.01 397.45 122.99C397.45 122.99 396.47 122.01 395.49 122.01C395.49 121.03 394.51 120.05 394.51 119.08V115.17C393.53 113.21 393.53 111.26 393.53 109.3C393.53 108.32 393.53 108.32 392.55 108.32H388.64C388.64 109.3 388.64 110.28 387.66 112.23V119.07C387.66 121.03 386.68 122 386.68 122.98H385.7C384.72 122.98 384.72 122 384.72 122C383.74 121.02 383.74 120.04 383.74 119.07C382.76 116.14 382.76 112.23 382.76 109.29C383.74 107.33 382.76 108.31 381.78 108.31H378.85C378.85 108.31 377.87 108.31 377.87 109.29V121.02H375.91C375.91 120.04 375.91 119.06 374.93 118.09V108.31H373.95C371.99 107.33 371.02 107.33 369.06 107.33C368.08 107.33 368.08 107.33 368.08 108.31V117.11C367.1 118.09 367.1 119.07 367.1 120.04C367.1 121.02 366.12 121.02 366.12 121.02C366.12 121.02 365.14 121.02 365.14 120.04C364.16 119.06 364.16 118.08 364.16 117.11V108.31C364.16 107.33 364.16 107.33 363.18 107.33C362.2 106.35 361.22 106.35 360.25 106.35L359.27 107.33V118.09L358.29 119.07L357.31 118.09C356.33 114.18 356.33 111.25 356.33 108.31C356.33 107.33 357.31 106.35 357.31 105.38C356.33 105.38 355.35 105.38 355.35 104.4H353.39V119.07C352.41 122.98 352.41 127.87 353.39 132.76V151.34C353.39 152.32 353.39 152.32 354.37 152.32H356.33C357.31 152.32 359.26 152.32 360.24 154.28C360.24 155.26 361.22 155.26 363.17 155.26C364.15 155.26 365.13 155.26 366.1 156.24C367.08 156.24 367.08 157.22 368.06 157.22C368.06 158.2 368.06 159.18 367.08 159.18C364.15 160.16 362.19 161.14 359.26 160.16C358.28 160.16 357.3 160.16 356.33 159.18V158.2C355.35 158.2 355.35 159.18 355.35 159.18C355.35 161.14 354.37 163.09 353.39 164.07C351.43 166.03 351.43 167.98 353.39 169.94C354.37 171.9 356.32 173.85 356.32 176.78C357.3 177.76 357.3 177.76 357.3 178.74V184.61C357.3 186.57 356.32 189.5 356.32 191.45C356.32 193.4 356.32 195.36 355.34 196.34C355.34 198.3 355.34 199.27 354.36 201.23C354.36 202.21 353.38 204.16 353.38 205.14C353.38 206.12 352.4 207.1 352.4 208.07H351.42V207.09C350.44 204.16 350.44 200.25 350.44 196.33C350.44 194.37 351.42 192.42 351.42 189.49C351.42 187.53 351.42 184.6 352.4 181.67L351.42 180.69L349.46 176.78C349.46 175.8 348.48 174.82 348.48 173.85C345.55 169.94 345.55 167.01 346.52 164.07C347.5 162.11 347.5 161.14 349.45 160.16C350.43 159.18 350.43 158.2 349.45 157.23L348.47 156.25C347.49 155.27 347.49 153.32 347.49 152.34C347.49 144.52 346.51 136.69 347.49 127.89V120.07C347.49 118.11 347.49 115.18 348.47 113.23V95.63C348.47 93.67 349.45 91.72 350.43 90.74C351.41 89.76 352.39 88.78 353.36 88.78C355.32 88.78 357.27 87.8 358.25 85.85C359.23 83.9 361.18 82.92 363.14 82.92L367.05 80.9601C369.01 80.9601 370.96 80.96 372.92 79.98H376.83C384.65 79.98 392.48 79 401.28 79H403.24C407.15 79 411.06 79.9801 414 80.9601C415.96 80.9601 416.93 80.9601 417.91 81.9401C418.89 81.9401 419.87 81.94 419.87 82.92C420.85 82.92 420.85 83.9 420.85 83.9L425.74 86.8301C428.67 86.8301 429.65 87.81 431.61 89.76C432.59 90.74 432.59 91.7201 432.59 92.6901C433.57 93.6701 433.57 94.65 433.57 95.62C434.55 97.58 434.55 99.5301 434.55 102.46C435.53 106.37 435.53 110.28 435.53 114.19V124.95C435.53 127.88 435.53 130.82 436.51 133.75V140.59C437.49 143.52 436.51 146.46 437.49 149.39V153.3C437.49 155.26 436.51 156.23 434.56 157.21H433.58V158.19C437.49 160.15 439.45 163.08 439.45 166.99C440.43 169.92 439.45 172.86 438.47 174.81C437.49 177.74 436.51 179.7 433.58 180.68C432.6 180.68 432.6 181.66 432.6 181.66C432.6 183.62 432.6 185.57 433.58 187.53C433.58 189.49 434.56 192.42 434.56 194.37L436.52 204.15C437.5 210.02 438.48 215.88 440.43 221.75C440.43 223.71 441.41 225.66 442.39 227.62C443.37 229.58 444.35 231.53 444.35 233.49L447.28 237.4L451.19 240.33L459.99 244.24C463.9 246.2 467.81 247.17 472.7 248.15L482.48 251.08C488.35 253.04 494.21 255.97 499.1 259.88L504.97 262.81C506.93 263.79 509.86 264.77 510.84 266.72C512.8 267.7 514.75 270.63 515.73 271.61L517.69 273.57C518.67 274.55 520.62 275.53 521.6 277.48C524.53 279.44 526.49 282.37 528.44 285.3C528.44 287.26 529.42 288.23 530.4 289.21C533.33 292.14 534.31 295.08 535.29 298.01L538.22 303.88L540.18 311.7C540.18 314.63 541.16 317.57 541.16 320.5C541.16 321.48 542.14 323.43 542.14 325.39C542.14 328.32 542.14 331.26 543.12 333.21V340.05C543.12 342.01 544.1 343.96 544.1 344.94C544.1 346.9 543.12 348.85 544.1 349.83V364.5C544.1 375.26 544.1 386.99 545.08 397.75V519C545.08 524.87 546.06 530.73 546.06 537.58V626.56H546.15ZM355.47 689.14C354.49 691.1 353.51 692.07 353.51 692.07C352.53 693.05 352.53 693.05 351.55 693.05C351.55 693.05 351.55 692.07 350.57 691.09L352.53 688.16C352.53 687.18 353.51 687.18 354.49 687.18C355.47 688.16 355.47 689.14 355.47 689.14ZM429.79 95.61C429.79 93.65 428.81 93.6501 427.83 92.6801C426.85 91.7001 425.87 91.7001 424.9 91.7001C421.97 91.7001 420.01 90.72 419.03 88.77C418.05 87.79 418.05 87.79 417.07 87.79C416.09 87.79 415.11 87.7901 414.14 86.8101C410.23 85.8301 406.32 84.85 401.43 84.85H375.03L366.23 86.8101C364.27 86.8101 362.32 87.79 361.34 89.74C360.36 91.7 358.41 93.65 355.47 93.65C355.47 94.63 354.49 94.63 354.49 95.61C353.51 96.59 353.51 98.54 355.47 99.52L358.4 101.48C359.38 101.48 361.33 102.46 363.29 102.46H368.18C376 102.46 383.82 101.48 392.63 102.46C397.52 102.46 402.41 103.44 408.28 102.46C411.21 101.48 414.15 101.48 417.08 101.48H425.88C426.86 100.5 427.84 100.5 428.81 100.5C428.81 100.5 428.81 101.48 429.79 100.5V95.61ZM361.34 248.15V249.13L358.41 256.95C357.43 256.95 357.43 257.93 356.45 257.93C355.47 257.93 354.49 257.93 354.49 256.95V255.97C354.49 254.01 355.47 252.06 356.45 251.08C356.45 250.1 357.43 248.15 358.41 248.15C358.41 247.17 359.39 247.17 359.39 247.17C360.36 247.17 361.34 247.17 361.34 248.15ZM358.41 692.07C357.43 692.07 357.43 691.09 357.43 691.09V690.11C357.43 689.13 358.41 688.15 358.41 687.18C358.41 686.2 359.39 686.2 360.37 686.2C361.35 687.18 361.35 688.16 361.35 688.16L359.39 692.07H358.41ZM361.34 171.88C362.32 170.9 363.3 171.88 363.3 171.88C364.28 173.84 365.26 174.81 365.26 176.77C366.24 176.77 365.26 177.75 365.26 177.75C363.3 177.75 361.35 174.82 361.35 172.86V171.88H361.34ZM363.3 687.18C363.3 686.2 364.28 685.22 365.26 685.22C366.24 685.22 367.22 686.2 367.22 688.15C366.24 688.15 366.24 689.13 366.24 689.13C366.24 690.11 365.26 691.09 364.28 691.09C364.28 690.11 363.3 689.13 363.3 689.13V687.18ZM417.08 90.72C418.06 91.7 418.06 92.68 417.08 93.65C416.1 94.63 414.15 95.61 413.17 95.61H408.28C403.39 96.59 398.5 96.59 394.59 96.59H385.79C381.88 96.59 376.99 95.61 372.1 94.63H365.26C364.28 93.65 364.28 93.65 364.28 92.67C364.28 91.69 365.26 91.6901 365.26 91.6901H381.88C384.81 91.6901 387.75 91.6901 389.7 90.7101H408.28C410.24 90.7101 412.19 90.71 414.15 89.73C415.12 89.74 416.1 89.74 417.08 90.72ZM364.27 257.93C364.27 256.95 364.27 255.97 365.25 255V253.04C366.23 253.04 368.18 253.04 368.18 254.02C368.18 255.98 367.2 257.93 366.22 259.89H365.24C364.26 259.89 364.26 258.91 364.26 258.91V257.93H364.27ZM374.05 173.83V177.74C374.05 177.74 374.05 178.72 373.07 178.72C373.07 178.72 372.09 178.72 372.09 177.74C371.11 176.76 371.11 175.78 371.11 173.83C370.13 173.83 370.13 173.83 371.11 172.85C371.11 171.87 371.11 171.87 372.09 171.87C373.07 171.88 374.05 172.86 374.05 173.83ZM374.05 254.99C374.05 254.99 375.03 254.99 375.03 255.97V259.88H373.07C372.09 258.9 372.09 257.92 372.09 255.97C372.1 254.99 373.07 254.99 374.05 254.99ZM375.03 686.21C375.03 687.19 375.03 688.17 374.05 689.14C374.05 690.12 374.05 690.12 373.07 689.14C372.09 689.14 372.09 688.16 372.09 686.21C372.09 684.26 372.09 684.25 373.07 684.25C374.05 684.25 375.03 685.23 375.03 686.21ZM382.85 172.86C383.83 173.84 382.85 174.82 382.85 175.79C382.85 175.79 383.83 176.77 382.85 177.75V178.73C382.85 178.73 381.87 178.73 381.87 177.75C379.91 176.77 379.91 174.82 379.91 172.86C379.91 170.9 381.87 170.9 382.84 171.88V172.86H382.85ZM382.85 688.16C381.87 688.16 380.89 688.16 380.89 687.18C379.91 687.18 379.91 686.2 379.91 685.22C379.91 684.24 380.89 683.26 380.89 683.26C382.85 683.26 382.85 684.24 382.85 685.22V688.16ZM381.87 254.99C382.85 254.99 383.83 255.97 383.83 256.95C383.83 257.93 382.85 258.91 382.85 258.91C381.87 258.91 380.89 257.93 380.89 256.95C380.9 255.97 380.9 254.99 381.87 254.99ZM389.7 684.25C390.68 685.23 390.68 685.23 390.68 686.21V687.19C390.68 688.17 389.7 688.17 388.72 688.17C387.74 688.17 387.74 686.21 386.76 685.24C386.76 684.26 387.74 683.28 387.74 683.28C388.72 683.27 389.7 683.27 389.7 684.25ZM393.61 178.72C392.63 178.72 392.63 178.72 392.63 177.74C390.67 176.76 390.67 174.81 390.67 172.85C390.67 171.87 391.65 171.87 392.63 171.87C393.61 171.87 393.61 171.87 393.61 172.85V178.72ZM397.52 684.25C398.5 685.23 399.48 686.21 399.48 688.16C399.48 689.14 398.5 689.14 397.52 689.14L394.59 686.21C394.59 685.23 394.59 684.25 395.57 684.25C395.56 683.27 396.54 683.27 397.52 684.25ZM400.45 345.93C400.45 346.91 400.45 347.89 401.43 347.89C402.41 347.89 403.39 347.89 404.36 346.91C406.32 345.93 408.27 345.93 410.23 346.91C411.21 347.89 412.19 347.89 413.16 347.89C414.14 346.91 415.12 346.91 415.12 345.93C416.1 345.93 415.12 344.95 415.12 344.95C413.16 343.97 411.21 342.99 408.28 342.99C408.28 342.99 407.3 343.97 406.32 343.97C404.36 343.97 402.41 344.95 400.45 344.95V345.93V345.93ZM403.39 177.75C402.41 176.77 401.43 175.79 401.43 173.84C401.43 172.86 402.41 171.88 403.39 171.88C404.37 171.88 405.35 172.86 405.35 173.84V174.82C405.35 175.8 405.35 176.78 404.37 177.75C404.36 178.72 403.39 178.72 403.39 177.75ZM405.34 685.23C406.32 686.21 406.32 687.19 406.32 687.19V688.17C406.32 689.15 405.34 689.15 405.34 689.15C404.36 688.17 403.38 687.19 403.38 685.24C402.4 685.24 403.38 685.24 403.38 684.26C404.36 684.25 405.34 684.25 405.34 685.23ZM414.14 174.81C414.14 175.79 414.14 177.74 413.16 178.72C412.18 179.7 412.18 178.72 411.2 178.72C410.22 176.76 410.22 174.81 410.22 172.85C410.22 171.87 412.18 170.89 412.18 170.89C413.16 171.87 414.14 171.87 414.14 172.85V174.81ZM413.16 689.14V686.21H415.12C416.1 688.17 417.08 689.14 417.08 690.12C417.08 690.12 417.08 691.1 416.1 691.1L413.16 689.14ZM419.03 250.1C420.01 250.1 421.96 249.12 421.96 248.14C422.94 248.14 422.94 247.16 423.92 247.16L425.88 244.23C427.84 243.25 428.81 240.32 427.84 238.36C427.84 236.4 426.86 234.45 426.86 232.49V225.65H428.82C429.8 228.58 431.75 230.54 431.75 233.47C431.75 235.43 431.75 236.4 432.73 237.38C433.71 238.36 434.69 240.31 434.69 241.29L437.62 246.18C437.62 247.16 438.6 248.14 440.55 248.14C441.53 248.14 442.51 249.12 443.48 250.1C444.46 251.08 444.46 253.03 443.48 254.01C442.5 254.99 442.5 254.99 441.52 254.99C439.56 255.97 437.61 256.95 434.68 256.95H430.77C429.79 256.95 427.84 256.95 424.9 255.97V256.95C422.94 256.95 420.99 257.93 419.03 257.93C418.05 258.91 417.07 257.93 416.1 257.93C413.17 255.97 413.17 254.02 415.12 252.06L419.03 250.1ZM419.03 172.86C419.03 172.86 420.01 171.88 420.01 170.9C420.99 169.92 420.99 169.92 421.97 169.92C422.95 170.9 423.93 170.9 423.93 171.88C423.93 172.86 423.93 173.84 422.95 173.84C422.95 175.8 421.97 176.77 420.99 176.77C420.99 176.77 419.03 174.81 419.03 172.86ZM423.92 347.89C424.9 347.89 425.88 347.89 427.83 346.91C428.81 345.93 428.81 344.95 427.83 344.95C426.85 344.95 425.87 343.97 425.87 343.97C424.89 343.97 423.91 344.95 422.94 344.95C421.97 344.95 421.96 344.95 421.96 345.93C420.99 346.91 421.97 347.89 423.92 347.89ZM424.9 687.18C424.9 688.16 425.88 689.14 425.88 689.14C425.88 690.12 426.86 691.1 425.88 692.07C425.88 692.07 424.9 691.09 423.92 691.09L421.96 689.13C421.96 688.15 422.94 687.17 423.92 687.17H424.9V687.18ZM436.63 689.14C437.61 690.12 437.61 691.1 437.61 692.07C438.59 693.05 438.59 693.05 437.61 693.05C435.65 693.05 432.72 691.09 432.72 689.14C432.72 689.14 432.72 688.16 433.7 688.16C433.7 687.18 435.66 687.18 435.66 688.16C436.63 688.16 436.63 689.14 436.63 689.14ZM433.7 343.97C432.72 344.95 432.72 344.95 433.7 345.93C434.68 346.91 435.66 346.91 436.63 345.93V344.95L434.67 342.99L433.7 343.97ZM441.52 343.97L442.5 344.95H443.48C443.48 343.97 443.48 342.99 442.5 342.99L441.52 343.97ZM446.41 688.16L449.34 693.05L448.36 694.03H447.38C445.42 693.05 444.45 692.07 443.47 690.12C442.49 689.14 443.47 687.19 445.43 687.19L446.41 688.16ZM458.14 692.07L457.16 693.05H456.18L452.27 690.12C451.29 690.12 451.29 689.14 451.29 689.14C451.29 687.18 452.27 687.18 453.25 687.18C455.21 688.16 457.17 690.12 458.14 692.07ZM453.26 343.97L452.28 344.95V345.93C453.26 345.93 454.24 345.93 454.24 344.95V343.97H453.26ZM464.99 692.07H464.01C461.08 692.07 459.12 691.09 458.14 689.14C457.16 689.14 457.16 688.16 457.16 687.18C458.14 686.2 459.12 686.2 460.09 686.2C461.07 688.16 463.02 689.13 464.98 690.11V692.07H464.99ZM458.14 259.88C458.14 258.9 460.1 257.92 461.07 257.92C461.07 258.9 462.05 258.9 462.05 259.88C462.05 260.86 461.07 262.81 460.09 262.81C459.11 262.81 459.11 261.83 458.13 261.83V259.88H458.14ZM470.86 690.12C468.9 690.12 466.95 689.14 464.02 688.16C464.02 688.16 463.04 687.18 464.02 686.2C464.02 685.22 465 685.22 465 685.22C466.96 685.22 468.91 686.2 470.87 687.18C471.85 687.18 471.85 687.18 472.83 688.16C472.83 688.16 473.81 689.14 472.83 689.14C472.83 690.12 472.83 690.12 471.85 690.12H470.86ZM466.94 267.7C465.96 267.7 465.96 266.72 465.96 266.72V265.74C466.94 264.76 466.94 261.83 467.92 260.85C468.9 259.87 470.85 260.85 470.85 262.81V263.79L467.92 267.7H466.94ZM526.59 311.71C526.59 312.69 525.61 313.67 526.59 314.64L525.61 315.62C524.63 317.58 522.68 317.58 521.7 318.55C520.72 318.55 520.72 318.55 519.74 317.57V315.61C520.72 314.63 521.7 314.63 521.7 314.63C522.68 313.65 522.68 313.65 522.68 311.7C521.7 310.72 520.72 308.77 520.72 307.79L518.76 304.86L516.8 302.9C515.82 299.97 513.87 297.03 510.93 295.08C508 293.12 504.09 290.19 502.13 287.26C502.13 286.28 502.13 286.28 501.15 285.3C499.19 284.32 497.24 282.37 495.28 280.41C493.32 277.48 490.39 275.52 487.46 273.57L484.53 271.61L476.71 268.68C475.73 268.68 475.73 267.7 474.75 266.72V265.74C474.75 264.76 475.73 264.76 475.73 264.76C477.69 265.74 479.64 266.72 480.62 266.72C482.58 266.72 484.53 267.7 485.51 268.68C488.44 269.66 490.4 269.66 492.35 271.61L504.08 277.48C507.01 279.44 508.97 282.37 511.9 285.3C511.9 286.28 512.88 287.26 513.86 288.23C516.79 291.16 520.7 295.07 521.68 299.96C523.64 302.89 524.61 305.83 525.59 308.76C525.61 309.75 526.59 310.73 526.59 311.71ZM525.61 321.48V322.46C525.61 323.44 524.63 324.42 522.68 324.42L521.7 323.44C521.7 322.46 521.7 322.46 522.68 321.48C523.66 320.51 524.64 320.51 525.61 321.48Z" fill="url(#paint0_linear_606_44)"/>
<defs>
<linearGradient id="paint0_linear_606_44" x1="244" y1="79" x2="546" y2="711" gradientUnits="userSpaceOnUse">
<stop stop-color="#CD8258"/>
<stop offset="1" stop-color="#74453A"/>
</linearGradient>
</defs>
</svg>
