<svg width="791" height="790" viewBox="0 0 791 790" fill="none" xmlns="http://www.w3.org/2000/svg">
<path d="M28.36 381.075C29.34 383.035 31.2899 384.005 31.2899 386.945H30.3099L26.4 382.055L21.51 377.165C19.55 373.255 16.6199 369.345 13.6899 366.405C11.7299 363.475 10.7599 360.535 7.81995 357.605C3.90995 352.715 1.95 347.825 0 341.965V337.075C0 333.165 0.979961 330.235 1.95996 327.295C1.95996 326.315 1.95994 326.315 2.93994 326.315C4.89994 322.405 7.82999 318.495 11.74 315.555L17.61 312.625C19.57 310.665 21.52 309.695 23.48 308.715C24.46 307.735 25.4399 307.735 25.4399 307.735C26.4199 307.735 26.4199 308.715 26.4199 308.715C24.4599 310.675 23.4899 313.605 21.5299 314.585C17.6199 316.545 15.66 318.495 12.73 320.455C9.79998 323.385 7.83999 326.325 6.85999 329.255C5.87999 330.235 5.88 331.215 5.88 332.185C3.92 337.075 3.92 338.055 5.88 342.945C6.86 346.855 8.80997 350.765 12.72 354.675L17.61 362.495L28.36 381.075ZM36.1799 370.325L34.22 367.395L28.35 357.615L20.5299 346.855L17.6 342.945V341.965C16.62 340.985 16.62 340.005 17.6 339.035C17.6 339.035 19.5599 339.035 20.5299 340.015L23.46 344.905C29.33 352.725 35.19 360.555 40.08 369.355C41.06 369.355 41.0599 370.335 41.0599 370.335C40.0799 370.335 40.08 371.315 40.08 371.315C39.11 372.275 37.1599 371.305 36.1799 370.325ZM27.38 340.015C26.4 339.035 26.4 338.055 26.4 336.105C26.4 333.175 28.36 332.195 29.33 331.215C31.29 330.235 32.26 329.255 33.24 329.255H35.2C39.11 329.255 42.04 333.165 44 337.075L43.02 338.055H42.0399C41.0599 337.075 40.08 337.075 40.08 336.095C38.12 334.145 36.17 334.145 34.21 333.165C32.25 333.165 31.2799 334.145 31.2799 336.095C31.2799 337.075 31.28 338.055 32.26 339.025C33.24 341.955 34.2199 343.915 36.1699 345.865L42.0399 355.645C43.0199 356.625 44 358.575 45.95 359.555C46.93 360.535 48.88 360.535 48.88 359.555C51.81 357.595 51.81 355.645 50.84 353.685L44.97 344.885C43.99 343.905 43.99 342.925 43.99 341.955V340.975C44.97 340.975 46.92 340.975 47.9 341.955C49.86 345.865 53.77 349.775 54.74 354.665C55.72 357.595 54.7399 360.535 52.7799 362.485C49.8499 363.465 47.89 364.445 44.96 363.465C42.03 362.485 40.07 360.535 38.12 357.595C35.19 352.705 31.2799 348.795 29.3199 342.925L27.38 340.015ZM712.83 302.855C706.96 300.895 703.05 297.965 698.16 294.055C689.36 286.235 681.54 278.405 673.71 269.605L667.84 264.715C665.88 262.755 663.93 260.805 661.97 259.825H660.99C658.06 255.915 654.15 252.985 651.21 250.045L638.5 239.285L629.7 231.465L623.83 226.575C621.87 224.615 619.92 222.665 617.96 221.685C616.98 221.685 616.98 220.705 616 219.725L606.22 210.925C602.31 207.995 598.4 206.035 594.49 205.055H593.51C589.6 203.095 585.69 205.055 582.75 207.015C578.84 208.975 575.91 211.905 572.97 214.835L546.57 241.235L534.84 253.945C529.95 260.785 523.11 266.655 517.24 272.525L510.4 279.365L492.8 297.945L473.24 318.475L467.37 325.315L461.5 331.185C461.5 332.165 460.52 332.165 460.52 333.145L448.79 344.875C442.92 349.765 438.03 355.635 433.14 362.475C427.27 367.365 423.36 373.235 417.49 378.115L382.29 414.295L372.51 424.075C368.6 427.005 365.67 431.895 361.75 435.805L360.77 436.785L354.9 443.625C351.97 446.555 350.01 449.495 348.06 452.425L344.15 458.295L342.19 465.135V466.115C343.17 469.045 343.17 472.955 345.12 475.895L353.92 484.695L361.74 493.495L368.58 502.295L377.38 511.095C379.34 511.095 379.34 513.055 380.31 514.025L385.2 517.935L402.8 534.555L407.69 539.445L426.27 557.045L448.76 578.555L453.65 582.465C455.61 584.425 457.56 586.375 458.54 588.335L462.45 592.245C464.41 593.225 466.36 595.175 467.34 597.135L486.9 615.715L495.7 623.535C496.68 624.515 496.68 625.495 497.66 625.495L506.46 633.315C509.39 636.245 513.3 638.205 517.22 641.135L521.13 644.065C523.09 646.025 525.04 646.995 527.97 647.975H535.79C540.68 646.015 545.57 645.045 549.48 641.135C550.46 639.175 553.39 637.225 555.35 634.295C556.33 632.335 559.26 630.385 560.24 628.425C561.22 627.445 561.22 626.465 562.2 626.465L575.89 611.795C578.82 609.835 580.78 606.905 582.73 604.955C585.66 602.025 587.62 599.085 590.55 597.135L599.35 587.355C603.26 584.425 607.17 580.515 610.11 576.595L618.91 567.795L645.31 539.435C646.29 538.455 648.24 537.475 648.24 536.505L650.2 534.545L662.91 520.855L665.84 517.925H666.82C667.8 517.925 667.8 518.905 667.8 519.885C667.8 519.885 666.82 519.885 666.82 520.865L661.93 527.705C659.97 529.665 658.02 532.595 656.06 533.575C656.06 534.555 655.08 535.535 655.08 535.535C652.15 539.445 649.21 544.335 645.3 547.265L634.54 559.975L626.72 568.775L620.85 575.615L612.05 584.415L609.12 588.325C609.12 589.305 608.14 590.285 607.16 590.285C603.25 593.215 600.32 596.155 597.38 600.065C597.38 601.045 596.4 602.025 595.42 602.025C591.51 606.915 586.62 610.825 583.69 614.735L572.93 626.465L552.4 646.025C550.44 648.955 547.51 649.935 544.58 651.895C541.65 652.875 533.82 655.805 528.93 656.785C526.97 657.765 526 655.805 524.04 655.805C521.11 651.895 516.22 650.915 512.31 647.005C509.38 646.025 507.42 644.075 505.47 642.115L498.63 636.245H497.65L482.98 622.555C481.02 618.645 477.11 616.685 475.16 612.775C475.16 611.795 474.18 611.795 473.2 610.815C470.27 608.855 467.33 606.905 465.38 603.975L453.65 591.265C450.72 588.335 447.78 584.425 443.87 582.465C438.98 576.595 433.11 571.705 428.22 566.825L424.31 561.935C422.35 559.975 420.4 558.025 418.44 557.045L414.53 553.135L402.8 542.375L389.11 532.595C387.15 530.635 385.2 529.665 382.27 528.685C381.29 527.705 380.31 527.705 378.36 528.685L375.43 530.645C371.52 534.555 367.61 537.485 363.7 540.425L340.23 558.025L331.43 563.895L320.67 571.715L302.09 585.405L281.56 599.095L267.87 608.875C264.94 609.855 262.98 611.805 261.03 612.785C260.05 612.785 260.05 613.765 259.07 612.785V611.805L263.96 607.895L266.89 604.965L274.71 599.095L287.42 590.295L293.29 586.385C297.2 582.475 302.09 579.545 306.98 575.625L312.85 570.735L315.78 568.775L325.56 560.955L338.27 550.195L343.16 546.285L351.96 540.415L355.87 536.505C356.85 535.525 356.85 534.545 356.85 533.575C356.85 532.595 355.87 531.615 354.89 530.645C351.96 530.645 350 531.625 347.07 532.605L340.23 535.535C331.43 539.445 322.63 544.335 312.85 548.245L294.27 558.025L277.65 564.865C273.74 565.845 270.81 567.795 266.89 569.755C262.98 571.715 259.07 571.715 255.16 573.665C253.2 573.665 251.25 573.665 249.29 574.645C247.33 574.645 246.36 574.645 244.4 575.625H240.49L233.65 573.665L226.81 570.735C224.85 569.755 222.9 567.805 220.94 565.845L218.01 560.955C218.01 558.995 217.03 558.025 215.08 558.995C214.1 558.995 213.12 558.015 211.17 558.015C209.21 557.035 209.21 556.055 208.24 555.085V553.125C209.22 552.145 209.22 550.195 209.22 549.215C210.2 546.285 210.2 543.345 210.2 540.415C210.2 540.415 210.2 539.435 209.22 538.455C208.24 536.495 208.24 532.585 207.26 529.655C206.28 527.695 205.3 525.745 205.3 523.785C202.37 517.915 200.41 512.055 198.46 506.185C198.46 505.205 198.46 504.225 197.48 504.225C196.5 503.245 195.52 501.295 193.57 500.315C188.68 497.385 181.84 495.425 175.97 493.475C174.01 493.475 171.08 492.495 168.15 493.475C167.17 493.475 166.19 491.515 164.24 492.495C162.28 491.515 162.28 490.535 162.28 489.565V488.585C163.26 487.605 164.24 486.625 164.24 485.655C164.24 482.725 165.22 480.765 165.22 477.835C165.22 474.905 164.24 471.965 166.2 469.035C164.24 467.075 166.2 465.125 166.2 462.195V456.325C166.2 453.395 166.2 451.435 165.22 449.485V447.525C165.22 446.545 166.2 446.545 166.2 445.565C167.18 445.565 168.16 445.565 168.16 446.545C170.12 448.505 173.05 448.505 175 450.455H177.93C178.91 450.455 178.91 450.455 178.91 449.475L170.11 422.095C168.15 417.205 166.2 413.295 165.22 408.405C164.24 407.425 164.24 406.445 164.24 406.445C164.24 405.465 163.26 405.465 163.26 405.465V406.445C163.26 408.405 162.28 409.375 162.28 411.335C162.28 413.295 161.3 415.245 161.3 416.225V426.985C162.28 429.915 162.28 431.875 162.28 434.805V436.765C163.26 437.745 163.26 438.725 163.26 440.675C163.26 440.675 163.26 441.655 162.28 441.655C161.3 441.655 160.32 443.615 159.35 441.655H157.39C152.5 437.745 146.63 436.765 140.77 434.815C138.81 434.815 136.86 433.835 134.9 432.855C131.97 432.855 130.99 431.875 128.06 430.895C127.08 430.895 126.1 430.895 125.13 429.915C124.15 429.915 122.2 428.935 121.22 428.935C119.26 428.935 118.29 428.935 118.29 426.975C118.29 423.065 119.27 420.135 120.25 416.215V413.285C120.25 411.325 121.23 409.375 121.23 407.415V393.725C121.23 391.765 120.25 388.835 120.25 386.885C119.27 384.925 119.27 384.925 121.23 383.955C122.21 382.975 123.19 382.975 125.14 383.955L129.05 386.885C131.01 386.885 131.98 387.865 133.94 388.845L140.78 391.775C141.76 391.775 143.71 392.755 145.67 392.755H146.65C149.58 393.735 151.54 394.715 154.47 394.715H156.43C157.41 394.715 158.39 394.715 158.39 395.695C160.35 395.695 160.35 394.715 160.35 393.735L157.42 385.915C154.49 379.075 152.53 372.225 150.58 365.385L147.65 357.565C146.67 354.635 145.69 351.695 145.69 348.765C143.73 342.895 141.78 337.035 138.85 331.165L136.89 323.345V321.385C136.89 320.405 136.89 320.405 137.87 320.405H139.83C139.83 322.365 140.81 323.335 141.79 325.295L144.72 336.055C146.68 339.965 148.63 342.895 149.61 346.815C150.59 351.705 153.52 356.595 154.5 360.505L157.43 370.285L162.32 382.015L164.28 388.855C166.24 391.785 167.21 395.695 169.17 399.615L173.08 411.345L177.97 423.075C179.93 429.915 181.88 435.785 184.81 441.655C185.79 445.565 186.77 449.475 188.72 453.385C189.7 458.275 191.65 462.185 192.63 466.095L196.54 477.825C197.52 479.785 198.5 481.735 198.5 483.695C198.5 484.675 198.5 486.625 199.48 487.605C201.44 491.515 202.41 495.425 203.39 499.335L205.35 505.205C206.33 507.165 207.31 509.115 207.31 511.075L209.27 516.945C210.25 518.905 211.23 520.855 211.23 522.815L217.1 540.415C218.08 541.395 218.08 542.375 218.08 543.345C221.01 548.235 221.99 553.125 223.95 557.035C224.93 559.965 226.88 562.905 228.84 564.855C229.82 565.835 230.8 566.815 231.77 566.815C232.75 567.795 234.7 567.795 235.68 567.795C237.64 567.795 239.59 567.795 240.57 568.775H245.46C246.44 567.795 248.39 567.795 250.35 567.795C252.31 567.795 253.28 567.795 255.24 566.815C264.04 563.885 271.86 559.975 280.66 556.055C282.62 555.075 284.57 553.125 287.5 553.125C289.46 552.145 291.41 550.195 294.34 550.195C295.32 550.195 296.3 549.215 297.27 548.235L323.67 535.525L337.36 529.655C338.34 529.655 340.29 528.675 341.27 527.695V526.715H333.45C331.49 526.715 329.54 527.695 327.58 526.715C326.6 525.735 324.65 525.735 322.69 526.715C319.76 527.695 315.85 526.715 312.91 526.715H304.11C302.15 525.735 300.2 525.735 298.24 525.735H297.26V523.775H301.17C303.13 522.795 305.08 523.775 307.04 522.795C308.02 521.815 309 522.795 310.95 522.795C311.93 522.795 313.88 522.795 314.86 521.815C315.84 520.835 316.82 521.815 317.79 521.815H359.84C361.8 521.815 363.75 521.815 364.73 520.835L353.97 516.925L347.13 513.015C345.17 512.035 344.2 511.055 343.22 511.055C341.26 510.075 339.31 508.125 337.35 508.125L317.79 498.345L310.95 495.415L301.17 490.525C297.26 488.565 294.33 485.635 291.39 484.655C289.43 483.675 288.46 481.725 287.48 480.745H286.5C286.5 480.745 285.52 480.745 285.52 481.725V487.595C284.54 489.555 284.54 490.525 284.54 492.485V497.375C283.56 499.335 283.56 501.285 283.56 502.265C282.58 505.195 280.63 507.155 278.67 508.135C276.71 509.115 271.83 508.135 269.87 505.205C268.89 503.245 267.91 501.295 267.91 498.365C267.91 497.385 267.91 495.435 266.93 494.455V472.945C267.91 471.965 266.93 471.965 266.93 471.965H264C264 471.965 263.02 471.965 263.02 470.985V470.005C264.98 469.025 265.95 468.045 266.93 469.025C268.89 469.025 268.89 469.025 269.86 468.045C270.84 467.065 273.77 467.065 274.75 466.085C276.71 466.085 276.71 465.105 275.73 464.125L273.77 461.195C272.79 461.195 271.81 460.215 271.81 459.235C270.83 456.305 267.9 453.365 265.94 451.415C264.96 451.415 264.96 451.415 264.96 450.435V448.475L267.89 445.545C270.82 442.615 272.78 438.705 274.73 435.765C274.73 434.785 276.69 434.785 276.69 435.765C277.67 436.745 277.67 436.745 277.67 437.725C281.58 440.655 281.58 440.655 283.54 436.745C284.52 432.835 286.47 429.905 288.43 426.965C289.41 425.985 289.41 425.985 289.41 425.005C288.43 424.025 288.43 422.075 288.43 420.115C288.43 419.135 288.43 417.185 287.45 415.225V358.515C287.45 355.585 287.45 353.625 288.43 351.675V349.715C288.43 346.785 288.43 343.845 289.41 340.915V338.955C288.43 336.995 288.43 335.045 288.43 333.085V330.155C287.45 329.175 287.45 328.195 287.45 327.225V316.465C287.45 313.535 288.43 311.575 286.47 308.645V278.335C286.47 277.355 286.47 276.375 287.45 275.405V248.025C287.45 246.065 287.45 244.115 286.47 242.155V218.685C286.47 216.725 286.47 215.755 285.49 213.795V196.275C285.49 195.295 285.49 194.315 286.47 194.315C286.47 193.335 286.47 193.335 287.45 193.335C288.43 193.335 288.43 193.335 288.43 194.315V205.075C288.43 207.035 288.43 208.985 289.41 210.945V221.705L290.39 220.725C290.39 219.745 291.37 219.745 291.37 218.765C296.26 215.835 299.19 210.945 303.1 207.035C306.03 204.105 307.99 202.145 308.97 199.215L311.9 193.345C311.9 193.345 313.86 192.365 313.86 193.345C314.84 194.325 315.82 194.325 315.82 195.305C316.8 198.235 318.75 200.195 320.71 202.145C320.71 202.145 320.71 203.125 321.69 204.105C324.62 206.065 325.6 208.015 327.56 210.945L334.4 218.765L335.38 219.745C336.36 220.725 336.36 221.705 335.38 221.705C335.38 222.685 334.4 223.665 333.42 224.635L327.55 231.475L318.75 246.145L314.84 251.035H318.75C320.71 251.035 322.66 252.015 323.64 253.965C323.64 254.945 325.6 256.895 324.62 257.875C323.64 259.835 323.64 261.785 322.66 262.765C321.68 263.745 321.68 264.725 322.66 266.675V270.585C320.7 272.545 318.75 274.495 314.84 274.495H313.86C313.86 274.495 313.86 275.475 312.88 276.455H313.86L322.66 283.295C323.64 284.275 324.62 284.275 324.62 285.255C325.6 286.235 325.6 286.235 326.58 285.255L332.45 280.365C334.41 278.405 336.36 275.475 338.32 274.495C341.25 272.535 343.21 269.605 346.14 266.675V264.715C345.16 263.735 345.16 261.785 345.16 260.805C345.16 256.895 346.14 253.965 345.16 250.045C345.16 249.065 347.12 247.115 346.14 245.155C346.14 244.175 346.14 242.225 347.12 240.265C347.12 238.305 347.12 237.335 348.1 235.375C348.1 234.395 348.1 232.445 349.08 230.485C350.06 229.505 350.06 227.555 350.06 226.575C352.02 220.705 353.97 214.845 356.9 209.955L359.83 206.045L364.72 197.245L367.65 192.355L371.56 189.425V188.445H369.6C368.62 189.425 367.64 189.425 365.69 189.425H339.29C337.33 189.425 336.36 189.425 335.38 188.445H313.87C311.91 188.445 309.96 188.445 308.98 189.425H293.33C291.37 189.425 289.42 188.445 287.46 188.445L286.48 187.465L287.46 186.485C288.44 186.485 289.42 185.505 291.37 185.505C294.3 185.505 297.24 185.505 300.17 184.525C303.1 184.525 306.04 183.545 308.97 185.505H312.88C314.84 185.505 317.77 184.525 319.72 186.485H320.7C321.68 185.505 323.63 185.505 324.61 185.505C328.52 185.505 331.45 185.505 334.39 184.525H365.68C367.64 184.525 369.59 184.525 370.57 183.545H394.04C396 183.545 397.95 183.545 399.91 182.565H406.75C412.62 182.565 411.64 183.545 414.57 177.675C414.57 176.695 415.55 175.715 416.53 174.745C416.53 173.765 416.53 173.765 417.51 172.785L418.49 173.765L416.53 180.605L410.66 193.315L402.84 208.965C398.93 214.835 396 221.675 393.06 227.545L390.13 235.365C389.15 237.325 387.2 239.275 387.2 242.205C385.24 244.165 384.27 248.075 382.31 251.005C381.33 251.985 380.35 253.935 380.35 254.915C377.42 259.805 374.48 264.695 372.53 269.585C369.6 277.405 365.69 284.255 362.75 291.095C359.82 298.915 355.91 305.765 351.99 313.585C348.08 319.455 345.15 326.295 342.21 332.165C340.25 335.095 338.3 338.035 337.32 340.965L328.52 359.545L319.72 377.145C314.83 387.905 309.94 398.655 304.07 409.415C303.09 411.375 302.11 414.305 300.16 415.285C300.16 415.285 300.16 416.265 299.18 416.265H298.2V415.285C298.2 413.325 298.2 411.375 299.18 409.415L305.05 393.775L307.01 390.845C307.01 388.885 305.05 388.885 304.08 387.915L299.19 382.045C299.19 381.065 297.23 380.085 296.26 378.135C295.28 377.155 293.33 376.175 293.33 375.205H292.35V403.565C292.35 405.525 292.35 405.525 293.33 407.475V420.185C293.33 420.185 293.33 421.165 294.31 420.185H296.27C296.27 421.165 296.27 423.115 295.29 423.115C295.29 425.075 294.31 426.045 294.31 427.025C292.35 428.985 291.38 431.915 290.4 433.865C289.42 438.755 286.49 442.665 285.51 447.555C283.55 452.445 282.58 457.335 282.58 463.205C282.58 464.185 283.56 465.165 283.56 466.135C285.52 471.025 289.43 474.935 293.34 477.865C293.34 478.845 294.32 478.845 294.32 478.845L311.92 488.625L319.74 492.535C323.65 493.515 326.58 495.465 329.52 496.445C340.28 501.335 351.03 507.205 361.79 513.065C365.7 514.045 370.59 515.995 374.5 517.955V516.975C374.5 515.015 373.52 514.045 372.54 513.065L346.14 486.665L338.32 476.885L335.39 472.975V470.045C335.39 467.115 334.41 463.205 335.39 460.265L330.5 457.335C329.52 457.335 328.54 456.355 328.54 455.375C328.54 454.395 328.54 453.415 329.52 451.465L335.39 437.775L345.17 417.245L352.01 405.515L361.79 384.005L367.66 371.295L370.59 365.425L373.52 358.585C373.52 357.605 374.5 356.625 374.5 355.655L382.32 339.035C388.19 330.235 392.1 320.455 396.99 310.675L400.9 304.805C400.9 304.805 401.88 303.825 402.86 303.825C402.86 304.805 401.88 305.785 401.88 306.755C401.88 307.735 401.88 307.735 402.86 307.735C403.84 307.735 405.79 306.755 407.75 306.755C408.73 306.755 409.71 305.775 411.66 305.775C412.64 305.775 414.59 305.775 415.57 304.795L425.35 299.905C426.33 299.905 427.31 298.925 428.28 297.945C427.3 296.965 426.32 296.965 425.35 296.965H417.53C415.57 296.965 415.57 295.985 414.6 295.005C415.58 294.025 415.58 294.025 416.56 294.025C418.52 294.025 419.49 293.045 421.45 293.045C423.41 292.065 425.36 293.045 427.32 292.065C427.32 291.085 428.3 292.065 429.28 292.065H458.61C459.59 292.065 460.57 291.085 460.57 290.105V284.275C460.57 283.295 459.59 283.295 459.59 283.295C458.61 284.275 456.66 283.295 455.68 285.255C454.7 287.215 453.72 288.185 451.77 288.185C450.79 289.165 447.86 288.185 446.88 287.205V286.225C445.9 285.245 445.9 284.265 444.92 284.265C443.94 284.265 441.99 284.265 441.01 285.245C440.03 286.225 439.05 287.205 438.08 287.205C437.1 289.165 436.12 289.165 434.17 288.185L432.21 285.255C431.23 284.275 429.28 283.295 428.3 284.275C427.32 284.275 426.34 285.255 425.37 286.235L423.41 288.195C421.45 289.175 420.48 290.155 418.52 287.215L416.56 285.255C414.6 283.295 414.6 283.295 413.63 286.235C412.65 288.195 410.7 290.145 410.7 293.075C409.72 294.055 407.77 295.035 406.79 295.035C405.81 293.075 405.81 290.145 407.77 288.195C408.75 287.215 408.75 284.285 409.73 283.305C410.71 281.345 411.69 279.395 411.69 277.435L414.62 273.525L420.49 261.795C420.49 259.835 421.47 257.885 422.45 256.905L431.25 238.325C433.21 234.415 435.16 230.505 438.09 226.595L441.02 219.755L445.91 212.915L448.84 207.045L449.82 206.065V208.025L446.89 217.805L442 227.585C442 227.585 442 228.565 441.02 229.545C439.06 232.475 437.11 236.385 436.13 240.305L424.4 263.775L417.56 278.445C416.58 279.425 416.58 279.425 417.56 279.425H419.52C421.48 278.445 423.43 278.445 426.36 278.445C427.34 278.445 427.34 278.445 427.34 277.465V271.595C428.32 269.635 428.32 267.685 428.32 265.725C429.3 263.765 429.3 261.815 430.28 260.835C430.28 258.875 431.26 257.905 432.24 255.945C433.22 253.015 436.15 251.055 440.06 250.075C442.02 249.095 443.97 251.055 445.93 251.055C446.91 251.055 447.89 252.035 448.86 253.015C448.86 253.995 449.84 254.975 449.84 255.945V257.905C449.84 262.795 449.84 263.775 454.73 260.835H455.71C458.64 259.855 460.6 260.835 461.58 263.765V265.725L458.65 269.635C458.65 271.595 457.67 272.565 457.67 273.545C456.69 274.525 455.71 276.475 456.69 277.455C457.67 278.435 459.62 278.435 460.6 278.435C464.51 277.455 468.42 277.455 472.33 277.455C474.29 277.455 476.24 277.455 477.22 275.495C478.2 274.515 481.13 273.535 482.11 274.515C483.09 274.515 483.09 274.515 484.07 275.495C485.05 276.475 485.05 278.425 485.05 279.405C485.05 280.385 484.07 280.385 484.07 280.385C483.09 280.385 483.09 279.405 483.09 279.405H482.11C482.11 278.425 482.11 278.425 481.13 278.425C481.13 279.405 480.15 280.385 479.17 281.355C479.17 281.355 479.17 282.335 480.15 283.315C480.15 283.315 480.15 284.295 481.13 284.295C485.04 282.335 487.97 279.405 488.95 276.475C489.93 275.495 489.93 274.515 489.93 273.545C489.93 271.595 489.93 269.635 490.91 266.705C490.91 265.725 491.89 264.745 493.84 263.775V262.795C493.84 262.795 492.86 262.795 492.86 261.815C492.86 261.815 491.88 260.835 491.88 259.855V258.875C490.9 257.895 490.9 256.915 490.9 256.915C490.9 254.955 491.88 253.985 492.86 253.985C495.79 252.025 498.73 249.095 501.66 248.115C502.64 248.115 503.62 247.135 503.62 247.135C504.6 246.155 505.58 245.175 506.55 245.175C508.51 243.215 509.48 241.265 508.51 238.335C508.51 236.375 510.47 235.405 509.49 233.445C509.49 231.485 509.49 230.515 510.47 228.555V226.595C510.47 224.635 510.47 223.665 511.45 221.705V216.815C511.45 215.835 512.43 215.835 513.41 214.855C514.39 214.855 514.39 214.855 514.39 215.835V229.525C514.39 230.505 514.39 230.505 515.37 230.505C516.35 230.505 516.35 231.485 517.33 230.505C520.26 230.505 523.2 232.465 526.13 232.465C528.09 233.445 529.06 232.465 530.04 231.485L532 228.555C532 227.575 532 226.595 533.96 226.595C534.94 226.595 535.92 227.575 536.89 229.525V235.395C535.91 236.375 536.89 237.355 537.87 238.325C538.85 238.325 538.85 238.325 538.85 239.305H539.83L547.65 231.485V229.525H545.69L541.78 226.595C539.82 224.635 536.89 224.635 534.94 223.665C533.96 223.665 532.01 222.685 531.03 221.705C526.14 219.745 521.25 217.795 516.36 214.865C512.45 212.905 508.54 211.935 504.63 208.995L490.94 202.155V201.175H492.9L504.63 206.065C507.56 208.025 511.47 208.995 514.41 209.975C518.32 211.935 521.25 213.885 525.17 214.865L539.84 222.685H540.82C543.75 223.665 547.66 224.645 550.6 226.595C550.6 227.575 551.58 227.575 552.56 226.595C558.43 221.705 563.32 215.835 568.2 210.945C569.18 209.965 570.16 208.995 570.16 208.015C571.14 206.055 571.14 204.105 569.18 202.145C568.2 201.165 567.22 200.185 566.25 200.185C562.34 198.225 560.38 197.255 556.47 196.275L542.78 190.405C536.91 188.445 531.05 185.515 525.18 182.585C519.31 179.655 513.45 175.745 507.58 173.785L491.94 165.965C488.03 164.985 484.12 163.035 480.21 161.075C477.28 161.075 475.32 159.115 472.39 157.165C466.52 154.235 459.68 152.275 452.83 148.365L446.96 146.415H445C444.02 147.395 442.07 147.395 441.09 147.395C439.13 148.375 438.16 149.355 436.2 149.355C435.22 151.315 432.29 151.315 431.31 153.265C431.31 155.225 429.35 157.175 428.38 159.135C427.4 159.135 427.4 160.115 426.42 161.095C425.44 162.075 424.46 162.075 424.46 162.075C423.48 161.095 423.48 160.115 423.48 160.115C424.46 157.185 425.44 154.245 427.39 151.315C428.37 151.315 428.37 150.335 428.37 149.355C429.35 149.355 428.37 148.375 428.37 148.375C425.44 149.355 423.48 149.355 420.55 149.355H412.73C411.75 149.355 409.8 149.355 408.82 150.335H393.17C391.21 150.335 389.26 150.335 387.3 151.315H385.34C382.41 151.315 380.45 151.315 377.52 152.295H359.92C357.96 152.295 356.01 151.315 353.08 153.275H342.32C339.39 153.275 336.45 152.295 334.5 154.255H331.57C329.61 154.255 326.68 154.255 324.73 155.235H278.77C277.79 155.235 275.84 154.255 273.88 156.215H267.04C262.15 156.215 257.26 158.175 253.35 161.105C249.44 165.015 247.48 168.925 246.51 173.815C246.51 175.775 247.49 177.725 246.51 179.685C246.51 181.645 245.53 182.615 246.51 184.575V185.555C246.51 187.515 246.51 189.465 245.53 191.425C245.53 192.405 245.53 192.405 244.55 192.405C244.55 193.385 242.59 193.385 242.59 192.405C240.63 190.445 240.63 187.515 240.63 185.565C240.63 184.585 240.63 182.635 239.65 181.655L234.76 178.725H233.78C232.8 179.705 231.82 179.705 230.85 179.705L220.09 182.635C216.18 184.595 212.27 186.545 208.36 187.525L198.58 190.455C197.6 190.455 195.65 191.435 193.69 192.415C187.82 195.345 180.98 198.285 173.16 200.235C171.2 200.235 169.25 201.215 167.29 201.215L160.45 204.145C158.49 204.145 156.54 205.125 154.58 206.105L145.78 208.065C143.82 209.045 141.87 210.025 139.91 210.025C138.93 210.025 138.93 211.005 137.95 211.005L123.28 219.805L117.41 226.645C115.45 229.575 115.45 231.535 115.45 233.485C114.47 236.415 114.47 239.355 114.47 241.305C114.47 243.255 116.43 244.235 115.45 246.195C117.41 248.155 116.43 249.125 116.43 250.105L118.39 256.945L120.35 264.765C120.35 266.725 121.33 267.695 121.33 269.655C123.29 270.635 122.31 272.585 123.29 274.545L127.2 284.325C128.18 288.235 133.07 300.945 133.07 304.855C134.05 305.835 134.05 307.785 134.05 308.765C134.05 309.745 132.09 309.745 132.09 309.745L131.11 308.765C129.15 306.805 127.2 304.855 127.2 301.925L124.27 293.125L121.34 285.305C119.38 281.395 117.43 277.485 116.45 272.595C115.47 269.665 114.49 266.725 114.49 262.815C113.51 261.835 113.51 260.855 112.53 260.855C112.53 259.875 111.55 259.875 110.57 259.875C109.59 257.915 107.64 258.895 106.66 258.895C103.73 259.875 101.77 261.825 98.84 263.785C96.88 264.765 94.93 266.715 92 267.695L83.2 274.535C81.24 275.515 78.31 276.495 77.33 278.445L64.62 287.245L51.9099 295.065C47.0199 298.975 42.13 301.905 36.27 304.845H32.36L36.27 300.935L44.09 295.065C44.09 295.065 45.0699 294.085 46.0499 294.085L52.89 289.195C53.87 287.235 55.8199 287.235 56.7999 286.265L63.64 281.375C63.64 280.395 64.62 280.395 64.62 280.395L78.3099 270.615L87.11 264.745C92 260.835 96.8899 256.925 102.75 253.985C103.73 253.005 104.71 251.055 106.66 250.075L108.62 245.185C108.62 243.225 109.6 242.255 108.62 240.295C107.64 238.335 108.62 235.405 108.62 232.475C107.64 230.515 108.62 229.545 109.6 227.585C109.6 225.625 110.58 223.675 112.53 222.695C114.49 220.735 115.46 218.785 116.44 216.825C118.4 213.895 123.28 210.955 126.22 209.985C127.2 209.005 129.15 209.005 131.11 207.055L142.84 202.165C143.82 201.185 144.8 201.185 145.77 201.185C146.74 201.185 147.73 200.205 148.7 200.205C149.68 200.205 150.66 200.205 151.63 199.225C155.54 199.225 158.47 198.245 162.39 196.295L170.21 194.335C175.1 192.375 179.99 191.405 183.9 189.445C184.88 188.465 186.83 188.465 186.83 188.465C190.74 186.505 194.65 185.535 198.56 184.555C202.47 183.575 206.38 182.595 210.29 180.645C214.2 178.695 218.11 177.715 222.02 176.735C225.93 175.755 229.84 174.775 233.75 172.825L240.59 169.895C241.57 169.895 241.57 168.915 241.57 168.915C241.57 166.955 242.55 166.955 242.55 165.005L245.48 160.115C246.46 160.115 246.46 159.135 247.44 158.155C248.42 157.175 249.4 155.225 251.35 154.245L260.15 150.335C261.13 150.335 263.08 150.335 265.04 149.355H279.71C281.67 149.355 283.62 149.355 285.58 148.375C286.56 148.375 288.51 148.375 289.49 149.355H291.45C293.41 149.355 294.38 148.375 296.34 148.375C298.3 148.375 299.27 148.375 301.23 147.395L313.94 142.505L320.78 139.575C326.65 136.645 335.45 133.705 341.31 132.735C344.24 131.755 347.18 131.755 350.11 132.735L357.93 136.645C361.84 138.605 362.82 140.555 365.75 145.445C365.75 146.425 365.75 146.425 366.73 146.425H377.49C379.45 146.425 381.4 145.445 383.36 145.445H405.85C407.81 145.445 409.76 144.465 411.72 144.465H424.43C426.39 144.465 427.36 143.485 429.32 143.485H434.21C436.17 143.485 437.14 142.505 439.1 142.505C440.08 142.505 441.06 142.505 442.03 141.525C446.92 139.565 450.83 140.545 454.74 142.505C455.72 142.505 456.7 143.485 456.7 143.485H458.66C458.66 143.485 458.66 142.505 459.64 142.505C462.57 143.485 466.48 141.525 469.42 141.525C471.38 141.525 473.33 142.505 475.29 140.545H483.11C484.09 140.545 486.04 140.545 488 139.565H490.93C492.89 140.545 494.84 140.545 495.82 141.525C499.73 142.505 501.69 144.455 503.64 146.415L507.55 152.285C508.53 153.265 508.53 155.215 508.53 157.175C509.51 159.135 510.49 162.065 510.49 164.015C511.47 164.995 511.47 164.995 511.47 165.975L517.34 169.885L535.92 179.665L548.63 184.555L563.3 190.425L578.94 198.245L584.81 200.205H586.77C588.73 199.225 590.68 200.205 592.64 200.205H594.6L600.47 203.135C601.45 204.115 602.43 204.115 602.43 204.115C606.34 205.095 610.25 208.025 613.19 210.955L619.06 214.865C621.02 216.825 621.99 217.795 622.97 217.795L630.79 221.705C631.77 221.705 632.75 221.705 633.72 222.685C636.65 224.645 639.59 225.615 642.52 226.595L651.32 230.505C656.21 231.485 660.12 234.415 664.03 236.375L668.92 239.305C671.85 241.265 673.81 243.215 674.79 245.175L678.7 252.995C678.7 254.955 679.68 255.925 679.68 257.885C680.66 259.845 679.68 261.795 678.7 263.755V265.715L686.52 272.555L700.21 285.265L706.08 291.135C709.01 293.095 709.99 296.025 711.95 297.975L713.9 301.885V302.865H712.83V302.855ZM134.94 535.575V537.535H133.96C132.98 536.555 132 536.555 131.03 534.605C128.1 531.675 126.14 526.785 123.21 522.875C118.32 516.035 113.43 509.185 107.57 502.345C104.64 497.455 101.7 492.565 97.7899 487.675C95.8299 484.745 94.8599 482.785 91.9199 479.855C89.9599 477.895 88.9899 474.965 87.0299 472.035C84.0999 467.145 80.19 463.235 78.23 458.345C76.27 454.435 73.34 451.505 71.39 448.565C69.43 444.655 65.5199 440.745 63.5699 435.855C60.6399 432.925 58.68 429.015 56.73 426.075L44.02 406.515L38.15 398.695C37.17 397.715 36.1899 395.765 36.1899 394.785V393.805H37.1699C38.1499 393.805 39.13 394.785 39.13 395.765C41.09 398.695 43.04 401.635 45.97 404.565L51.84 413.365L62.6 429.015L70.4199 438.795L79.22 451.505C83.13 456.395 86.06 462.265 89.98 468.125C93.89 472.035 96.8199 477.905 100.74 481.815L109.54 496.485C112.47 499.415 113.45 502.355 115.41 505.285C118.34 511.155 123.23 516.045 126.17 521.905C127.15 522.885 128.13 523.865 128.13 524.835C131.03 527.755 132.98 531.665 134.94 535.575ZM66.49 382.055C66.49 384.015 65.51 385.965 66.49 387.925C67.47 388.905 67.47 389.885 67.47 390.855C67.47 391.835 66.49 391.835 66.49 391.835H65.51L59.64 388.905C56.71 387.925 54.7499 386.945 52.7999 386.945C50.8399 386.945 49.87 384.985 50.84 384.015V379.125C50.84 376.195 51.82 374.235 49.86 371.305V370.325C49.86 369.345 50.8399 368.365 51.8199 368.365C51.8199 367.385 53.7799 367.385 53.7799 368.365C55.7399 370.325 58.67 371.295 60.62 372.275C62.58 373.255 63.5499 373.255 64.5299 373.255H65.51C67.47 374.235 69.4199 375.215 68.4399 377.165C67.4699 379.125 67.47 381.075 66.49 382.055ZM77.25 352.725C78.23 350.765 77.25 349.795 78.23 347.835C78.23 345.875 77.25 343.925 78.23 341.965C78.23 339.035 79.21 335.125 78.23 332.185C77.25 331.205 78.23 329.255 77.25 328.275V321.435C78.23 321.435 79.2099 320.455 80.1799 321.435L91.9099 329.255C93.8699 330.235 95.8199 331.215 97.7799 331.215C98.7599 332.195 100.71 331.215 102.67 332.195C103.65 333.175 105.6 332.195 106.58 333.175H109.51C111.47 334.155 113.42 334.155 115.38 334.155C116.36 334.155 117.34 335.135 118.31 337.085V339.045C118.31 339.045 117.33 340.025 117.33 341.005C117.33 343.935 118.31 345.895 116.35 347.845V375.225C116.35 376.205 117.33 377.185 117.33 378.155C117.33 378.155 117.33 379.135 115.37 379.135C115.37 379.135 114.39 379.135 113.41 378.155C112.43 378.155 111.45 377.175 110.48 376.195C108.52 375.215 106.57 373.265 104.61 373.265L93.85 369.355L84.0699 366.425C82.1099 366.425 79.18 365.445 77.23 365.445C75.27 365.445 74.3 364.465 75.27 362.515C76.25 361.535 75.27 359.585 76.25 357.625C77.25 356.635 77.25 354.675 77.25 352.725ZM147.65 253.965C147.65 253.965 147.65 252.005 146.67 251.035C143.74 246.145 141.78 239.305 140.8 233.435L138.84 231.475H136.88C135.9 231.475 134.92 230.495 134.92 230.495C134.92 229.515 134.92 228.535 135.9 227.565C137.86 226.585 140.79 225.605 142.74 225.605C144.7 225.605 144.7 225.605 145.67 226.585V228.545C143.71 229.525 143.71 230.505 144.69 231.475L146.65 239.295C149.58 243.205 150.56 247.115 151.54 251.025C152.52 253.955 151.54 255.915 151.54 258.845C151.54 261.775 148.61 263.735 144.7 264.715H141.77C136.88 265.695 134.93 261.785 131.99 258.845C131.01 257.865 131.01 255.915 131.01 253.955C131.01 253.955 131.01 252.975 131.99 252.975H132.97C133.95 252.975 133.95 253.955 133.95 253.955C134.93 254.935 134.93 254.935 134.93 255.915C136.89 259.825 139.82 260.805 143.73 260.805C146.67 259.835 148.63 257.875 147.65 253.965ZM253.25 616.735V618.695L246.41 624.565C245.43 624.565 245.43 625.545 244.45 625.545L231.74 636.305L223.92 639.235C220.99 639.235 218.05 640.215 215.12 640.215C214.14 640.215 212.19 640.215 211.21 639.235L203.39 636.305L198.5 633.375L192.63 626.535L187.74 619.695L180.9 608.935L172.1 595.245L166.23 587.425L145.7 556.135L142.77 551.245L139.84 547.335V546.355C140.82 545.375 140.82 545.375 141.8 545.375C142.78 547.335 144.73 549.285 146.69 551.245L150.6 557.115C155.49 562.005 158.42 567.875 162.33 573.735L176.02 592.315L187.75 611.875L192.64 617.745L196.55 622.635C199.48 627.525 203.39 630.455 208.28 632.415C209.26 632.415 210.24 632.415 210.24 633.395C213.17 635.355 217.08 634.375 220.02 634.375C222.96 634.375 224.91 633.395 227.84 632.415C230.77 630.455 234.68 628.505 237.62 625.575L249.35 618.735L253.25 616.735ZM155.47 274.495C156.45 275.475 157.43 275.475 158.4 275.475C159.38 275.475 160.36 276.455 161.33 277.435V279.395C158.4 282.325 159.37 286.235 157.42 289.175C157.42 290.155 158.4 291.135 158.4 291.135C158.4 293.095 158.4 294.065 157.42 294.065C156.44 294.065 156.44 294.065 156.44 295.045C155.46 294.065 155.46 294.065 154.48 294.065C153.5 292.105 151.55 291.135 150.57 290.155L147.64 287.225C146.66 286.245 145.68 286.245 144.71 286.245C142.75 285.265 141.78 283.315 142.75 281.355C144.71 279.395 144.71 275.485 145.68 272.555C146.66 272.555 145.68 272.555 146.66 271.575C146.66 270.595 148.62 269.615 149.59 270.595C151.56 271.565 153.52 272.545 155.47 274.495ZM245.43 212.895C246.41 214.855 246.41 216.805 246.41 217.785C245.43 219.745 247.39 220.715 246.41 222.675V232.455H247.39V239.295C247.39 241.255 246.41 242.225 247.39 244.185V260.805C247.39 262.765 247.39 264.715 248.37 266.675C249.35 267.655 248.37 269.605 248.37 271.565V330.235C248.37 332.195 248.37 333.165 249.35 335.125C250.33 336.105 249.35 337.085 249.35 338.055V421.165C249.35 424.095 249.35 426.055 250.33 428.985V459.295C250.33 461.255 250.33 463.205 251.31 465.165C251.31 467.125 252.29 469.075 251.31 470.055C250.33 472.015 250.33 472.985 251.31 474.945V487.655C251.31 489.615 251.31 490.585 252.29 492.545V495.475C252.29 498.405 253.27 501.345 254.25 503.295C254.25 505.255 255.23 507.205 255.23 508.185C255.23 510.145 256.21 511.115 257.19 513.075C260.12 515.035 262.08 516.985 264.03 519.915C265.99 520.895 266.96 521.875 268.92 521.875H270.88C272.84 521.875 275.77 520.895 277.72 522.855H286.52C287.5 522.855 289.45 522.855 290.43 523.835C291.41 524.815 291.41 525.795 290.43 526.765C289.45 527.745 287.5 527.745 285.54 527.745H273.81C272.83 527.745 271.85 528.725 270.88 527.745C268.92 526.765 266.97 527.745 265.01 526.765C263.05 525.785 261.1 524.805 259.14 524.805C256.21 523.825 254.25 521.875 253.27 518.935C251.31 516.975 250.34 515.025 249.36 512.095C249.36 509.165 248.38 507.205 247.4 504.275C247.4 503.295 247.4 502.315 246.42 502.315C246.42 499.385 246.42 497.425 244.46 495.475C242.5 491.565 240.55 487.655 239.57 483.745C235.66 474.945 233.7 465.165 230.77 456.365C228.81 455.385 229.79 453.435 228.81 451.475C228.81 449.515 227.83 448.545 227.83 446.585L224.9 437.785L219.03 422.135L214.14 407.465L207.3 390.845L198.5 363.465C197.52 361.505 196.54 359.555 196.54 356.625C195.56 355.645 194.58 353.695 194.58 350.755C194.58 350.755 193.6 349.775 193.6 348.795V345.865L191.64 341.955C190.66 339.995 189.68 338.045 189.68 336.085C189.68 334.135 187.72 332.175 187.72 330.215C185.76 326.305 183.81 322.395 182.83 318.485C181.85 314.575 180.87 310.665 178.92 306.755L175.01 295.995C172.08 288.175 169.14 280.345 167.19 272.525L164.26 264.705C161.33 259.815 160.35 255.905 159.37 251.015C159.37 250.035 159.37 249.055 158.39 248.085C158.39 248.085 158.39 247.105 159.37 247.105C159.37 246.125 160.35 246.125 160.35 247.105C162.31 251.995 165.24 256.885 167.19 262.755L173.06 279.375L175.02 284.265C175.02 285.245 176 287.195 176.98 288.175C177.96 289.155 179.91 289.155 180.89 289.155C183.82 289.155 185.78 289.155 187.73 290.135C188.71 290.135 190.66 292.095 191.64 293.065C192.62 293.065 192.62 293.065 192.62 294.045L195.55 303.825C196.53 303.825 196.53 304.805 196.53 304.805C196.53 305.785 196.53 306.765 197.51 307.735C198.49 306.755 199.47 306.755 199.47 305.775C202.4 301.865 206.31 297.955 210.23 295.015L217.07 290.125C219.03 288.165 220.98 286.215 223.91 286.215C224.89 286.215 224.89 285.235 225.87 285.235C225.87 284.255 224.89 284.255 224.89 284.255C222.93 283.275 221.96 281.325 220.98 280.345C219.02 277.415 219.02 275.455 220.98 272.525L221.96 271.545C222.94 270.565 222.94 270.565 221.96 269.585C219.03 268.605 219.03 265.675 218.05 263.715C218.05 261.755 219.03 259.805 220.01 258.825L222.94 256.865V254.905C221.96 252.945 220.98 250.995 220.98 249.035L218.05 242.195L216.09 236.325L211.2 233.395C208.27 231.435 205.33 230.465 203.38 228.505C202.4 227.525 201.42 226.545 200.45 227.525C198.49 227.525 197.52 228.505 195.56 228.505C195.56 228.505 194.58 228.505 194.58 229.485C188.71 229.485 187.74 230.465 182.85 232.415L178.94 234.375L168.18 238.285C165.25 240.245 162.31 240.245 158.4 241.215H157.42V239.255L165.24 235.345C168.17 233.385 172.08 232.415 175.02 231.435L193.6 225.565C194.58 224.585 196.53 223.605 198.49 223.605C203.38 220.675 209.25 219.695 214.13 217.735L222.93 214.805C225.86 213.825 229.77 212.845 232.71 210.895H235.64C237.6 210.895 239.55 209.915 240.53 209.915C241.51 209.915 241.51 208.935 241.51 207.955C242.49 205.995 242.49 205.025 242.49 203.065C243.47 202.085 243.47 203.065 243.47 203.065C244.45 204.045 244.45 205.025 244.45 205.025C245.43 206.985 244.45 207.955 245.43 208.935V212.895V212.895ZM226.85 417.255C227.83 416.275 227.83 415.295 227.83 415.295C226.85 412.365 225.87 410.405 225.87 408.455L220.98 396.725L216.09 381.075C215.11 379.115 214.13 376.185 214.13 373.255L211.2 366.415C211.2 363.485 210.22 360.545 209.24 358.595L206.31 349.795L201.42 336.105C201.42 332.195 199.46 328.285 198.49 325.345L193.6 313.615C191.64 308.725 190.67 302.855 187.73 297.975C187.73 296.995 187.73 296.015 186.75 296.015C186.75 295.035 185.77 294.055 184.79 294.055C182.83 293.075 181.86 293.075 180.88 293.075C178.92 292.095 177.95 293.075 178.92 294.055L180.88 302.855L182.84 308.725L187.73 320.455C187.73 323.385 189.69 326.325 189.69 328.275C190.67 331.205 190.67 333.165 192.62 336.095V337.075L194.58 344.895C196.54 348.805 198.49 351.735 199.47 355.655L202.4 364.455C203.38 366.415 204.36 368.365 204.36 369.345L206.32 374.235C206.32 375.215 207.3 377.165 208.28 379.125C210.24 384.015 211.21 389.885 214.15 395.745L218.06 404.545L220.99 414.325L222.95 418.235C222.95 419.215 223.93 419.215 223.93 419.215C224.9 418.235 225.88 417.255 226.85 417.255ZM182.85 568.815V565.885C182.85 563.925 183.83 560.995 182.85 558.065C182.85 557.085 182.85 556.105 183.83 555.135H184.81C189.7 557.095 194.59 559.045 199.48 560.025C200.46 560.025 201.44 561.005 202.41 561.985V562.965C201.43 563.945 201.43 565.895 201.43 566.875C201.43 567.855 200.45 568.835 200.45 568.835C200.45 570.795 199.47 572.745 200.45 574.705C201.43 575.685 200.45 576.665 200.45 576.665C198.49 578.625 198.49 578.625 196.54 577.645C194.58 577.645 192.63 576.665 191.65 575.685C189.69 574.705 187.74 573.725 185.78 573.725C185.78 573.725 184.8 573.725 184.8 572.745C181.87 571.755 181.87 571.755 182.85 568.815ZM211.21 588.375C214.14 591.305 217.08 594.245 219.03 598.155L224.9 605.975C225.88 607.935 225.88 609.885 225.88 611.845C225.88 615.755 223.92 617.715 220.01 619.665C218.05 620.645 214.14 620.645 212.19 618.685L204.37 609.885C202.41 606.955 201.44 604.015 199.48 602.065L195.57 594.245C194.59 591.315 195.57 587.405 198.5 584.465C199.48 582.505 202.41 581.535 204.37 582.505C207.3 584.465 210.23 585.445 211.21 588.375ZM205.34 305.785L199.47 312.625L202.4 321.425V322.405H203.38L207.29 317.515L210.22 310.675L212.18 302.855C213.16 302.855 212.18 301.875 212.18 301.875C212.18 300.895 213.16 299.915 212.18 299.915C212.18 299.915 211.2 298.935 211.2 299.915C210.22 299.915 210.22 300.895 209.24 301.875L205.34 305.785ZM214.14 313.605C214.14 314.585 213.16 315.565 213.16 316.535C212.18 317.515 211.2 318.495 211.2 320.445L207.29 328.265C206.31 329.245 205.33 330.225 205.33 331.195C205.33 332.175 205.33 333.155 206.31 334.125C207.29 336.075 207.29 338.035 208.27 339.015V339.995C209.25 340.975 209.25 340.975 210.23 339.995L216.1 330.215C217.08 325.325 219.03 320.435 220.99 315.545C221.97 314.565 221.97 311.635 222.95 309.675V304.785C223.93 302.825 223.93 299.895 223.93 297.945V294.035C223.93 291.105 223.93 291.105 221 293.055C220.02 293.055 220.02 294.035 219.04 294.035C217.08 295.015 217.08 295.995 217.08 296.965V303.805C216.1 304.785 217.08 305.765 216.1 307.715L214.14 313.605ZM220.01 231.475C220.01 232.455 220.99 232.455 221.97 231.475C226.86 228.545 231.75 227.565 236.64 225.605C238.6 224.625 240.55 224.625 241.53 223.645V212.885C241.53 211.905 241.53 211.905 240.55 211.905L236.64 213.865L228.82 216.795C227.84 216.795 227.84 217.775 227.84 217.775C227.84 218.755 227.84 218.755 228.82 218.755C229.8 221.685 229.8 222.665 227.84 223.645C226.86 224.625 226.86 224.625 225.88 224.625C223.92 225.605 221.97 225.605 220.01 223.645L218.05 221.685H217.07L208.27 224.615V225.595L220.01 231.475ZM242.5 407.475V399.655C241.52 396.725 242.5 392.815 241.52 388.895C241.52 386.935 240.54 385.965 240.54 384.005L238.58 379.115C237.6 375.205 235.65 372.275 234.67 369.335C232.71 363.465 228.8 358.575 225.87 353.685C223.91 350.755 221.96 346.845 219.03 344.885L216.1 340.975C214.14 341.955 214.14 343.905 213.17 344.885C212.19 344.885 211.21 345.865 211.21 346.845C211.21 347.825 210.23 347.825 210.23 348.805C212.19 350.765 211.21 352.715 212.19 353.695C212.19 356.625 214.15 357.605 215.12 360.535C215.12 362.495 216.1 365.425 217.08 368.355C220.99 382.045 226.86 395.735 230.77 409.425C230.77 411.385 231.75 411.385 232.73 410.405C235.66 408.445 237.62 408.445 240.55 408.445C242.5 409.435 242.5 409.435 242.5 407.475ZM214.14 584.465C212.18 582.505 212.18 580.555 211.21 578.595C210.23 578.595 211.21 577.615 211.21 577.615L212.19 576.635L219.03 583.475C223.92 590.315 228.81 597.165 232.72 604.005L234.68 607.915L233.7 608.895C232.72 609.875 232.72 609.875 231.74 609.875L228.81 605.965C225.88 603.035 223.92 599.125 221.97 596.185C219.03 592.285 216.1 588.375 214.14 584.465ZM241.52 370.325C242.5 368.365 243.48 367.395 242.5 366.415V357.615C241.52 354.685 240.54 351.745 238.59 348.815C235.66 344.905 233.7 340.015 229.79 337.085L228.81 336.105C227.83 333.175 224.9 331.215 222.94 329.265C222.94 328.285 221.96 328.285 220.98 329.265L217.07 337.085C217.07 338.065 217.07 338.065 218.05 338.065C220.98 339.045 221.96 341.975 224.89 343.935C224.89 343.935 225.87 343.935 225.87 344.915L228.8 348.825C229.78 349.805 230.76 349.805 230.76 350.785C233.69 355.675 236.63 359.585 238.58 364.475L241.52 370.325ZM219.03 492.545C220.01 490.585 220.01 488.635 220.01 486.675V483.745C220.01 481.785 220.99 479.835 221.97 478.855H224.9C227.83 481.785 230.77 483.745 233.7 485.695L237.61 488.625L238.59 490.585V491.565C238.59 492.545 237.61 493.525 237.61 494.495C235.65 496.455 234.68 499.385 234.68 502.315C234.68 503.295 233.7 504.275 232.72 505.245C232.72 506.225 230.76 506.225 229.79 506.225V505.245C226.86 502.315 222.95 501.335 220.01 498.405H219.03C218.05 497.425 218.05 496.445 218.05 495.475C218.05 494.505 219.03 493.525 219.03 492.545ZM225.88 249.075C228.81 255.915 230.77 261.785 234.68 267.655C234.68 268.635 235.66 270.585 236.64 271.565C237.62 272.545 239.57 274.495 240.55 273.515C243.48 272.535 241.53 270.585 241.53 269.605C242.51 268.625 242.51 267.645 241.53 266.675C241.53 264.715 240.55 262.765 241.53 260.805V259.825C240.55 258.845 241.53 257.865 240.55 256.895C240.55 254.935 240.55 253.965 239.57 252.985C239.57 252.005 238.59 252.005 238.59 252.005C236.63 252.005 234.68 251.025 232.72 252.985C231.74 253.965 230.76 253.965 229.79 252.985C228.81 252.005 228.81 251.025 228.81 250.055L233.7 246.145L234.68 245.165H233.7C232.72 245.165 231.74 244.185 229.79 244.185H226.86C226.86 244.185 225.88 244.185 225.88 243.205V242.225C226.86 241.245 228.81 240.265 229.79 240.265H234.68C235.66 240.265 236.64 241.245 236.64 241.245L241.53 246.135V245.155C242.51 241.245 241.53 237.335 242.51 233.425V232.445C242.51 229.515 242.51 229.515 240.55 230.485L227.84 234.395C225.88 234.395 223.93 236.355 221.97 236.355C220.99 237.335 220.99 237.335 220.99 238.315C220.99 239.295 221.97 240.275 221.97 241.245L225.88 249.075ZM222.94 265.695C222.94 265.695 223.92 266.675 224.9 266.675H225.88C227.84 266.675 227.84 266.675 226.86 264.715C226.86 263.735 225.88 262.755 224.9 261.785C224.9 260.805 224.9 260.805 223.92 260.805L222.94 261.785V265.695ZM223.92 276.455C224.9 278.415 225.88 279.385 226.85 279.385C227.82 279.385 228.81 279.385 229.78 278.405C230.76 278.405 231.74 277.425 231.74 276.445C232.72 276.445 232.72 275.465 232.72 275.465V274.485L229.79 270.575C228.81 269.595 228.81 270.575 227.83 270.575L226.85 271.555H227.83L229.79 274.485C229.79 275.465 229.79 276.445 228.81 277.415C227.83 277.415 227.83 277.415 227.83 276.435C226.85 276.435 226.85 275.455 225.87 275.455C225.87 274.475 224.89 274.475 224.89 275.455L223.92 276.455ZM223.92 323.385C223.92 323.385 223.92 324.365 224.9 325.345C229.79 328.275 233.7 333.165 237.61 337.075C237.61 337.075 237.61 338.055 238.59 339.035L241.52 343.925V342.945C241.52 342.945 242.5 341.965 241.52 341.965L237.61 329.255C235.65 324.365 233.7 320.455 232.72 315.565L229.79 308.725C229.79 307.745 228.81 307.745 228.81 307.745V308.725C228.81 311.655 227.83 314.595 225.88 318.505L223.92 323.385ZM230.77 438.765C233.7 438.765 234.68 438.765 236.64 437.785C238.6 437.785 239.57 437.785 240.55 436.805V434.845C239.57 431.915 237.62 428.975 237.62 426.045C237.62 425.065 236.64 425.065 236.64 424.085C234.68 423.105 232.73 421.155 230.77 422.125C228.81 422.125 226.86 423.105 225.88 423.105C224.9 424.085 224.9 425.065 224.9 426.035L228.81 435.815C228.81 435.815 228.81 436.795 229.79 438.745C229.79 439.745 229.79 439.745 230.77 438.765ZM242.5 307.745C242.5 303.835 243.48 299.925 242.5 296.015C241.52 295.035 242.5 293.085 241.52 292.105L237.61 290.145C236.63 290.145 236.63 290.145 235.65 289.165H229.78C228.8 289.165 228.8 290.145 228.8 290.145L230.76 296.015L233.69 302.855C236.62 309.695 239.56 316.545 241.51 323.385C242.49 321.425 242.49 319.475 242.49 317.515C243.47 315.555 242.49 313.605 242.49 311.645V307.745H242.5ZM232.72 519.925C231.74 524.815 233.7 528.725 234.68 533.615L240.55 545.345C240.55 546.325 241.53 547.305 241.53 547.305C242.51 549.265 241.53 550.235 240.55 551.215C239.57 551.215 238.59 551.215 237.62 550.235L234.69 543.395C232.73 539.485 231.76 535.575 230.78 531.665C230.78 530.685 229.8 530.685 229.8 529.705C228.82 527.745 228.82 524.815 228.82 522.865C228.82 520.905 228.82 518.955 229.8 516.995C230.78 515.035 231.76 513.085 233.71 511.125C234.69 510.145 235.67 510.145 237.62 510.145H240.55C243.48 510.145 244.46 511.125 246.42 513.075C248.38 515.035 249.35 517.965 248.38 521.875H247.4C246.42 521.875 245.44 520.895 245.44 519.915C244.46 519.915 244.46 518.935 244.46 518.935C243.48 516.005 242.5 515.025 239.57 515.025C236.64 515.025 234.68 516.005 232.73 517.955V519.925H232.72ZM241.52 284.275C241.52 278.405 242.5 279.385 237.61 277.435H236.63C235.65 276.455 235.65 277.435 235.65 277.435C235.65 278.415 234.67 279.395 234.67 280.365C233.69 280.365 232.71 281.345 232.71 282.325C231.73 283.305 231.73 283.305 232.71 283.305C235.64 284.285 238.58 285.265 240.53 287.215C241.51 287.215 241.51 286.235 241.51 286.235V284.275H241.52ZM244.45 469.085C243.47 466.155 244.45 462.245 243.47 458.325C242.49 456.365 242.49 454.415 243.47 452.455C243.47 450.495 242.49 448.545 241.51 446.585C241.51 445.605 241.51 444.625 240.53 443.655C239.55 442.685 238.57 444.635 237.6 444.635C236.62 444.635 234.67 445.615 233.69 445.615C232.71 445.615 232.71 446.595 232.71 446.595V449.525C234.67 456.365 237.6 462.235 239.55 468.105C240.53 472.015 241.51 474.945 243.46 477.885C244.45 474.945 244.45 472.015 244.45 469.085ZM241.52 420.195C242.5 417.265 240.54 415.305 237.61 415.305H235.65V417.265C237.61 418.245 239.56 419.225 241.52 421.175V420.195ZM272.81 198.225C273.79 197.245 272.81 197.245 272.81 196.265C272.81 190.395 273.79 184.535 273.79 177.685C272.81 174.755 270.86 172.795 267.92 174.755C266.94 174.755 266.94 174.755 265.96 175.735C264.98 175.735 264.98 176.715 264.98 177.695V178.675C264.98 181.605 264.98 183.565 264 185.515V189.425L263.02 190.405L262.04 189.425C261.06 189.425 261.06 188.445 261.06 187.465V178.665C260.08 174.755 262.04 172.795 264.97 171.825C266.93 170.845 267.9 169.865 270.84 169.865C271.82 169.865 273.77 170.845 274.75 172.795C275.73 174.755 276.71 176.705 276.71 178.665C275.73 182.575 276.71 186.485 276.71 189.425V202.135C275.73 203.115 276.71 203.115 276.71 204.095L280.62 206.055C279.64 207.035 279.64 207.035 278.66 207.035C277.68 207.035 276.7 208.015 276.7 208.015C274.74 207.035 272.79 207.035 270.83 207.035H267.9C265.94 208.015 264.97 207.035 263.01 205.075C262.03 204.095 261.05 202.145 261.05 200.185V198.225C261.05 196.265 261.05 196.265 259.09 195.295C259.09 195.295 258.11 194.315 259.09 194.315C259.09 193.335 259.09 192.355 260.07 192.355C263 191.375 265.94 192.355 267.89 194.315L270.82 198.225C271.8 199.205 271.8 200.185 272.78 199.205V198.225H272.81ZM278.68 222.675C279.66 224.635 279.66 225.605 277.7 227.565C274.77 230.495 274.77 231.475 271.83 236.365C270.85 237.345 270.85 237.345 269.87 237.345C268.89 237.345 267.91 237.345 267.91 236.365C266.93 235.385 265.95 234.405 265.95 233.435C264.97 230.505 263.02 228.545 261.06 227.565C260.08 226.585 260.08 226.585 260.08 225.605C259.1 224.625 259.1 223.645 260.08 223.645C260.08 222.665 261.06 221.685 262.04 220.715C264.97 219.735 264.97 217.785 265.95 216.805L267.91 212.895C268.89 212.895 268.89 211.915 269.87 212.895H270.85L271.83 213.875C272.81 217.785 275.74 219.745 277.7 221.695L278.68 222.675ZM268.9 203.115C269.88 203.115 269.88 202.135 268.9 202.135V201.155L265.97 198.225C265.97 198.225 264.99 197.245 264.99 198.225V199.205C264.99 201.165 265.97 203.115 267.92 203.115H268.9V203.115ZM279.66 485.705C279.66 484.725 279.66 483.745 278.68 483.745C277.7 483.745 276.72 482.765 276.72 482.765L272.81 477.875C271.83 476.895 271.83 476.895 270.85 476.895V484.715C270.85 488.625 269.87 492.535 271.83 495.475C270.85 498.405 272.81 500.365 273.79 502.315H276.72C277.7 502.315 277.7 502.315 278.68 501.335V500.355C278.68 497.425 279.66 495.465 279.66 492.535V485.705ZM280.63 475.925C279.65 473.965 279.65 472.015 277.7 471.035C276.72 470.055 273.79 471.035 273.79 472.015C273.79 472.015 274.77 472.995 275.75 472.995L278.68 476.905C278.68 477.885 279.66 477.885 279.66 477.885C280.63 476.905 280.63 476.905 280.63 475.925ZM289.43 263.745C290.41 265.705 290.41 267.655 290.41 270.585V319.475L291.39 318.495L298.23 310.675L303.12 307.745C303.12 306.765 304.1 305.785 304.1 304.815C305.08 303.835 303.12 303.835 303.12 303.835C302.14 302.855 302.14 302.855 302.14 301.875C301.16 300.895 300.18 299.915 299.21 299.915C298.23 300.895 297.25 299.915 296.28 299.915C294.32 298.935 293.35 296.985 292.37 295.025C292.37 292.095 291.39 290.135 291.39 287.205C291.39 285.245 291.39 284.275 292.37 283.295C294.33 281.335 294.33 279.385 295.3 278.405C295.3 275.475 297.26 274.495 299.21 274.495H301.17V273.515L300.19 272.535C298.23 270.575 297.26 268.625 299.21 265.695V264.715C300.19 263.735 300.19 262.755 299.21 261.785C298.23 260.805 299.21 258.855 299.21 256.895C299.21 255.915 299.21 255.915 300.19 254.935C300.19 254.935 300.19 253.955 301.17 253.955C302.15 252.975 305.08 251.995 307.04 252.975C308.02 252.975 309 253.955 309.97 253.955C309.97 254.935 310.95 254.935 310.95 253.955C311.93 253.955 311.93 253.955 312.91 252.975C312.91 251.995 313.89 251.995 312.91 251.015C309.98 250.035 309 248.085 308.02 245.145L306.06 241.235C304.1 238.305 303.13 236.345 301.17 235.365L298.24 232.435L293.35 226.565C292.37 224.605 291.39 223.635 290.42 223.635C290.42 222.655 290.42 222.655 289.44 222.655V263.745H289.43ZM311.92 304.805C311.92 305.785 310.94 305.785 310.94 305.785L306.05 309.695L298.23 317.515C298.23 318.495 297.25 318.495 296.27 319.475C294.31 320.455 292.36 320.455 291.38 322.405V337.075C290.4 339.035 290.4 340.005 290.4 341.965V344.895C290.4 344.895 290.4 345.875 291.38 345.875C293.34 346.855 294.31 349.785 296.27 350.765L305.07 361.525L310.94 368.365V361.525C310.94 359.565 311.92 357.615 311.92 355.655C312.9 352.725 312.9 350.765 312.9 348.815L316.81 336.105C320.72 328.285 325.61 320.465 330.5 312.635C331.48 311.655 332.46 309.705 334.41 308.725L339.3 302.855V300.895C335.39 297.965 332.46 294.055 329.52 290.135V289.155H328.54C328.54 290.135 327.56 290.135 326.58 291.115C322.68 296.005 316.81 299.925 311.92 304.805ZM312.9 377.165L309.97 373.255C308.99 372.275 308.01 372.275 308.01 371.295L301.17 363.475L292.37 351.745H291.39V367.395C291.39 369.355 291.39 371.305 294.32 371.305C295.3 371.305 295.3 372.285 296.28 373.265L302.15 379.135C304.11 381.095 307.04 382.065 308.02 385.005C308.02 385.005 309 385.005 309 384.025C309.98 383.045 310.96 382.065 310.96 381.095C311.92 380.105 312.9 378.145 312.9 377.165ZM317.79 457.345L313.88 464.185C313.88 465.165 313.88 466.145 312.9 467.115C313.88 468.095 313.88 469.075 313.88 469.075C313.88 470.055 312.9 472.005 311.92 472.005C308.99 472.985 307.03 471.025 306.05 469.075C305.07 468.095 306.05 467.115 306.05 466.145C308.98 466.145 308.98 463.215 309.96 461.255L312.89 456.365C312.89 456.365 313.87 455.385 312.89 455.385H310.93C310.93 455.385 309.95 455.385 308.97 456.365L305.06 458.325C303.1 459.305 302.13 460.285 301.15 460.285C300.17 461.265 300.17 461.265 300.17 462.245V464.205C300.17 465.185 299.19 466.165 298.21 465.185C296.25 464.205 293.32 464.205 292.34 461.275C291.36 461.275 291.36 459.315 292.34 459.315H293.32C297.23 459.315 299.19 456.385 301.14 455.405C303.1 455.405 304.07 453.445 305.05 453.445C307.01 452.465 307.01 451.485 307.98 449.535C307.98 447.575 308.96 444.645 307.98 441.715V433.895C308.96 433.895 307.98 432.915 308.96 431.935C308.96 430.955 308.96 429.975 307.98 429.975C307 428.015 307 427.045 307.98 426.065H308.96C310.92 427.045 313.85 427.045 315.8 428.995C315.8 429.975 315.8 430.955 314.82 431.925H313.84C312.86 431.925 312.86 432.905 312.86 432.905V447.575C312.86 447.575 312.86 448.555 313.84 448.555L317.75 446.595L319.71 442.685L321.67 437.795C322.65 436.815 322.65 435.835 321.67 434.865C320.69 434.865 320.69 433.885 320.69 433.885L322.65 431.925C325.58 432.905 327.54 432.905 328.52 434.855C329.5 435.835 329.5 436.815 328.52 437.785C328.52 438.765 327.54 438.765 327.54 438.765C326.56 437.785 325.58 437.785 325.58 438.765C324.6 442.675 322.65 445.605 320.69 448.545L317.79 457.345ZM303.12 287.205L298.23 284.275C297.25 284.275 296.27 284.275 296.27 285.255C296.27 286.235 295.29 287.215 295.29 288.185V290.145C296.27 291.125 296.27 292.105 296.27 293.075C296.27 295.035 298.23 296.005 300.18 296.005C300.18 296.005 301.16 296.985 301.16 296.005C302.14 296.005 304.09 295.025 304.09 293.075C304.09 291.125 304.09 290.145 305.07 289.165C305.08 288.185 305.08 287.205 303.12 287.205ZM321.7 289.165C316.81 284.275 310.94 280.365 303.12 277.435C301.16 277.435 300.19 278.415 299.21 279.395C299.21 280.375 300.19 281.355 300.19 281.355C301.17 281.355 303.12 282.335 304.1 282.335C306.06 282.335 308.01 283.315 309.97 284.295C311.93 284.295 312.9 286.255 311.93 289.185C310.95 290.165 310.95 292.115 311.93 294.075C312.91 294.075 312.91 295.055 313.89 296.035H315.85C316.83 294.075 317.81 293.105 319.76 292.125C320.74 292.125 320.74 291.145 321.72 290.165V289.165H321.7ZM304.1 266.675C303.12 267.655 302.14 267.655 303.12 269.605C303.12 270.585 303.12 270.585 304.1 270.585C306.06 270.585 308.01 269.605 308.01 267.655C308.99 267.655 308.01 266.675 308.01 266.675C308.01 266.675 307.03 265.695 307.03 266.675H304.1ZM303.12 259.835C304.1 259.835 304.1 260.815 305.08 260.815C306.06 261.795 307.04 260.815 307.04 259.835C306.06 258.855 306.06 257.875 305.08 257.875C304.1 256.895 304.1 257.875 303.12 258.855V259.835ZM305.08 298.945C305.08 299.925 306.06 299.925 307.04 300.905C307.04 301.885 308.02 301.885 309.97 300.905L310.95 299.925L308.02 296.015H307.04C307.04 296.995 306.06 296.995 306.06 297.975L305.08 298.945ZM317.79 268.635C316.81 266.675 314.86 266.675 313.88 266.675H312.9V268.635C313.88 270.595 314.86 271.565 316.81 270.595C317.79 270.595 317.79 270.595 318.77 269.615C318.77 269.605 318.77 268.635 317.79 268.635ZM313.88 259.835C313.88 260.815 314.86 261.795 315.84 261.795H316.82C317.8 261.795 318.78 260.815 319.75 259.835C319.75 258.855 318.77 258.855 318.77 257.875V256.895H317.79C315.83 256.895 314.86 257.875 313.88 258.855C312.9 258.855 312.9 259.835 313.88 259.835ZM339.3 310.675L337.34 312.635C335.38 314.595 333.43 316.545 332.45 319.475C329.52 322.405 327.56 326.315 325.61 330.235C323.65 332.195 322.68 335.125 321.7 338.055L318.77 347.835C317.79 349.795 317.79 350.765 317.79 352.725C316.81 354.685 317.79 355.655 316.81 357.615C315.83 359.575 315.83 360.545 315.83 362.505C315.83 363.485 315.83 365.435 316.81 366.415V367.395C317.79 368.375 317.79 367.395 317.79 366.415L326.59 349.795C331.48 338.065 337.35 327.305 343.21 316.545L349.08 304.815C352.01 297.975 355.92 291.125 359.84 284.285C359.84 283.305 359.84 282.325 358.86 282.325C357.88 282.325 355.93 282.325 354.95 281.345C353.97 280.365 352.99 281.345 352.99 283.305V287.215C352.99 289.175 352.01 290.145 352.01 292.105C351.03 295.035 350.05 297.975 348.1 300.905C345.17 303.835 343.21 307.745 339.3 310.675ZM343.21 139.555C342.23 139.555 341.25 140.535 339.3 140.535C335.39 141.515 331.48 142.495 327.57 144.445L317.79 147.375V148.355H327.57C329.53 147.375 331.48 147.375 333.44 147.375H348.11C349.09 146.395 350.07 146.395 352.02 146.395H353.98C354.96 146.395 354.96 146.395 354.96 145.415C352.01 141.515 348.1 139.555 343.21 139.555ZM337.35 414.325C338.33 415.305 338.33 416.285 338.33 417.255C338.33 418.235 337.35 419.215 336.37 420.185C335.39 420.185 334.41 420.185 333.44 421.165C330.51 422.145 327.57 424.095 324.64 426.055C324.64 427.035 323.66 427.035 322.68 428.015C322.68 428.015 320.72 427.035 320.72 426.055C320.72 424.095 320.72 422.145 319.74 420.185V412.365C318.76 410.405 318.76 409.435 320.72 408.455L329.52 404.545C330.5 403.565 331.48 402.585 331.48 401.615C332.46 400.635 333.44 400.635 334.41 400.635C335.38 400.635 337.34 401.615 337.34 403.565V414.325H337.35ZM332.46 286.235C333.44 288.195 335.39 289.165 336.37 290.145C336.37 291.125 337.35 291.125 337.35 290.145C339.31 288.185 339.31 286.235 338.33 284.275C338.33 282.315 339.31 281.345 338.33 280.365V279.385C336.37 281.345 334.42 284.275 332.46 285.255V286.235ZM366.68 403.565C370.59 394.765 374.5 385.965 380.37 378.145V375.215C379.39 373.255 380.37 371.305 379.39 369.345C378.41 368.365 379.39 366.415 378.41 364.455V359.565C377.43 360.545 376.45 362.495 376.45 363.475L367.65 382.055L358.85 401.615L350.05 419.215L340.27 439.745L334.4 452.455C333.42 453.435 334.4 454.415 335.38 455.385H336.36C337.34 456.365 337.34 456.365 337.34 455.385L341.25 450.495C342.23 448.535 344.18 446.585 346.14 444.625C348.1 442.665 349.07 440.715 349.07 437.785C350.05 436.805 350.05 436.805 350.05 435.825C351.03 430.935 353.96 427.025 355.92 422.135L366.68 403.565ZM342.24 296.005V296.985C344.2 297.965 344.2 297.965 345.17 296.985C348.1 293.075 350.06 289.165 349.08 284.275C349.08 282.315 350.06 280.365 349.08 279.385C348.1 279.385 347.12 278.405 345.17 278.405C344.19 278.405 343.21 278.405 343.21 277.425C342.23 277.425 342.23 277.425 342.23 278.405C343.21 280.365 342.23 282.315 343.21 284.275C343.21 288.185 344.19 291.115 342.23 294.055C341.26 295.035 341.26 296.005 342.24 296.005ZM344.19 273.515V274.495C346.15 274.495 347.12 275.475 349.08 275.475C351.04 275.475 352.01 276.455 353.97 276.455C355.93 276.455 356.9 277.435 358.86 278.415H359.84C361.8 278.415 362.77 278.415 362.77 277.435L364.73 274.505C367.66 268.635 369.62 262.775 373.53 256.905C374.51 255.925 373.53 254.945 373.53 254.945C371.57 253.965 369.62 253.965 368.64 252.985H366.68C366.68 252.985 365.7 252.985 365.7 253.965L359.83 259.835L352.99 265.705C351.03 267.665 350.06 269.615 348.1 270.595L344.19 273.515ZM349.08 253.965C350.06 256.895 349.08 259.835 349.08 261.785C349.08 261.785 349.08 262.765 350.06 262.765C350.06 263.745 350.06 262.765 351.04 262.765C353 259.835 354.95 257.875 357.88 255.925C358.86 255.925 358.86 254.945 358.86 253.965C357.88 252.985 357.88 251.035 357.88 249.075C357.88 247.115 357.88 245.165 358.86 243.205C358.86 241.245 359.84 238.315 360.82 235.385L363.75 225.605L369.62 214.845C372.55 212.885 372.55 209.955 372.55 206.045V196.275H371.57C370.59 197.255 369.61 198.235 369.61 199.205C366.68 202.135 364.72 207.025 361.79 210.935C359.83 215.825 356.9 220.715 355.92 226.585C353.96 230.495 352.99 234.405 352.01 239.295C351.03 242.225 350.05 244.185 350.05 246.135C350.06 249.075 349.08 252.005 349.08 253.965ZM376.46 440.725C377.44 439.745 377.44 438.765 376.46 437.795C376.46 437.795 376.46 436.815 375.48 436.815C375.48 435.835 376.46 435.835 376.46 435.835H377.44C378.42 435.835 379.4 436.815 380.37 436.815L384.28 441.705H385.26C385.26 442.685 384.28 443.665 384.28 443.665C383.3 443.665 383.3 444.645 382.32 443.665C382.32 443.665 381.34 443.665 380.36 442.685L379.38 443.665L376.45 448.555V449.535C376.45 450.515 377.43 451.495 378.41 452.465C379.39 453.445 380.37 455.395 381.34 454.425C383.3 454.425 384.27 453.445 386.23 453.445C387.21 452.465 388.19 451.485 389.16 451.485V450.505C388.18 449.525 387.2 449.525 387.2 448.545C387.2 447.565 387.2 447.565 388.18 446.585C388.18 445.605 389.16 445.605 390.14 445.605C393.07 447.565 395.03 449.515 396.98 452.445C396.98 453.425 396 454.405 395.02 455.375C395.02 454.395 395.02 454.395 394.04 454.395C394.04 454.395 393.06 454.395 392.08 453.415H391.1L384.26 459.285L373.5 466.125L366.66 471.015C365.68 471.015 363.73 471.995 362.75 471.995C361.77 472.975 361.77 472.975 360.79 472.975C360.79 471.995 359.81 471.995 358.83 471.995V470.035L360.79 466.125C364.7 460.255 367.63 454.395 370.57 448.525C372.53 447.545 373.5 445.595 374.48 443.635L376.46 440.725ZM390.15 394.765C388.19 392.805 386.24 389.875 385.26 386.945L383.3 383.035V382.055H382.32C382.32 383.035 381.34 383.035 381.34 384.015L374.5 397.705C371.57 405.525 368.63 412.375 364.72 419.215L361.79 425.085V426.065H362.77L388.19 399.665C389.17 399.665 390.15 398.685 390.15 397.705C391.13 395.745 391.13 395.745 390.15 394.765ZM372.55 226.585V221.695L371.57 220.715C370.59 222.675 369.61 224.625 369.61 226.585L364.72 236.365C363.74 239.295 362.76 242.235 362.76 245.165V248.095C362.76 249.075 363.74 250.055 364.72 249.075L369.61 245.165L375.48 240.275C376.46 240.275 376.46 240.275 375.48 238.315C374.5 236.355 373.52 234.405 373.52 231.475C372.55 230.495 373.53 228.545 372.55 226.585ZM377.44 457.345C376.46 456.365 376.46 455.385 375.48 455.385C373.52 453.425 373.52 453.425 371.57 455.385C371.57 456.365 370.59 457.345 369.61 459.295L367.65 463.205H368.63C371.56 461.245 374.5 459.295 377.43 458.315V457.345H377.44ZM379.39 244.185C379.39 243.205 378.41 242.225 377.43 242.225H376.45L374.49 244.185L371.56 249.075C372.54 250.055 374.49 251.035 375.47 251.035C376.45 251.035 376.45 251.035 376.45 250.055C378.41 249.075 378.41 247.125 379.38 245.165V244.185H379.39ZM375.48 193.335C376.46 194.315 375.48 196.265 376.46 197.245C378.42 198.225 379.39 195.285 380.37 194.315C381.35 194.315 381.35 194.315 382.33 193.335C384.29 192.355 385.26 190.405 386.24 188.445V187.465H379.4C375.49 188.445 375.49 188.445 375.49 191.375V193.335H375.48ZM391.13 191.385L389.17 194.315L384.28 198.225C382.32 200.185 380.37 202.135 377.44 202.135C376.46 202.135 375.48 203.115 375.48 204.095V205.075C375.48 206.055 376.46 206.055 377.44 206.055C378.42 205.075 380.37 204.095 382.33 204.095C383.31 204.095 385.26 204.095 386.24 205.075C388.2 206.055 390.15 207.035 390.15 209.965C391.13 211.925 391.13 212.895 391.13 214.855V218.765L392.11 219.745V218.765C392.11 217.785 393.09 216.805 393.09 215.835C397 210.945 398.96 206.055 401.89 201.165C402.87 199.205 402.87 199.205 400.91 198.235C399.93 198.235 397.98 197.255 397 195.305C396.02 194.325 394.07 193.345 393.09 191.395H391.13V191.385ZM375.48 213.875V215.835H376.46C376.46 217.795 375.48 218.765 376.46 220.725V224.635C377.44 226.595 377.44 227.565 377.44 229.525C377.44 232.455 379.4 235.395 380.37 238.325C381.35 239.305 381.35 240.285 382.33 240.285C383.31 240.285 382.33 239.305 383.31 238.325C384.29 235.395 385.27 232.455 387.22 229.525V219.745H384.29C382.33 220.725 380.38 219.745 378.42 218.765C377.44 217.785 377.44 213.875 379.4 213.875C381.36 213.875 383.31 211.915 385.27 213.875C386.25 213.875 387.23 213.875 387.23 212.895V210.935L383.32 208.005C382.34 208.005 381.36 208.985 380.39 208.985C378.43 208.985 377.46 209.965 376.48 209.965C375.48 210.935 376.46 212.895 375.48 213.875ZM398.95 384.985C396.99 383.025 396.99 380.095 396.02 378.145C396.02 377.165 396.02 375.215 395.04 374.235C395.04 373.255 395.04 372.275 394.06 371.305C394.06 368.375 393.08 365.435 393.08 363.485V342.955C393.08 340.025 393.08 338.065 394.06 336.115V335.135C394.06 334.155 394.06 333.175 393.08 333.175H392.1C391.12 332.195 391.12 332.195 390.14 334.155L386.23 340.995C385.25 342.955 384.27 344.905 384.27 346.865C384.27 348.825 383.29 350.775 383.29 353.705C383.29 353.705 383.29 355.665 384.27 356.635V359.565C384.27 363.475 384.27 366.405 385.25 369.345L387.21 376.185C388.19 377.165 389.17 379.115 389.17 381.075C390.15 384.005 391.13 386.945 393.08 389.875C393.08 390.855 394.06 391.835 395.04 392.805L397.97 389.875C397.97 389.875 397.97 388.895 398.95 387.915C399.93 386.945 399.93 385.965 398.95 384.985ZM408.73 429.965C407.75 431.925 408.73 433.875 408.73 435.835C407.75 436.815 407.75 437.795 406.77 437.795C404.81 438.775 403.84 439.755 401.88 438.775C400.9 437.795 400.9 437.795 399.92 437.795C397.96 439.755 395.03 437.795 393.08 439.755C392.1 440.735 391.12 439.755 391.12 438.775C391.12 436.815 391.12 435.845 392.1 433.885V424.105C392.1 423.125 393.08 422.145 394.06 422.145H399.93C401.89 422.145 403.84 422.145 406.77 420.185H407.75C409.71 419.205 409.71 420.185 410.68 421.165V423.125C410.68 424.105 410.68 425.085 409.7 425.085C408.73 427.035 409.7 428.995 408.73 429.965ZM459.57 297.965C459.57 296.985 460.55 296.985 459.57 296.985H441.97C440.99 297.965 439.04 296.985 437.08 297.965C435.12 297.965 434.15 299.925 433.17 300.895L426.33 304.805C424.37 305.785 422.42 305.785 421.44 306.765C417.53 308.725 413.62 310.675 409.71 311.655H401.89C400.91 311.655 399.93 311.655 399.93 312.635C398.95 313.615 397.97 315.565 397.97 317.525L393.08 327.305C393.08 328.285 394.06 327.305 394.06 327.305C395.04 328.285 396.02 327.305 396.99 327.305C397.96 327.305 399.92 328.285 400.9 327.305C402.86 326.325 404.81 327.305 406.77 326.325C407.75 326.325 408.73 327.305 408.73 326.325H413.62C415.58 325.345 416.55 325.345 418.51 325.345C420.47 323.385 422.42 324.365 424.38 323.385L433.18 319.475C439.05 317.515 442.96 314.585 446.87 312.635L452.74 307.745C453.72 305.785 455.67 303.835 457.63 301.875C457.63 300.895 458.61 300.895 458.61 300.895C459.59 299.915 459.59 299.915 459.59 298.935V297.965H459.57ZM396.02 187.475V188.455C397.98 189.435 399.93 191.385 401.89 193.345C404.82 195.305 404.82 195.305 406.78 191.385C407.76 190.405 408.74 189.425 408.74 188.455C408.74 188.455 408.74 187.475 409.72 187.475C408.74 187.475 408.74 186.495 408.74 186.495C406.78 187.475 405.81 187.475 403.85 187.475H396.02ZM407.75 379.125C407.75 379.125 408.73 378.145 407.75 377.165C405.79 375.205 404.82 373.255 404.82 370.325C403.84 368.365 402.86 365.435 403.84 362.505C401.88 359.575 402.86 356.635 402.86 354.685V346.865C402.86 344.905 401.88 342.955 402.86 340.995C403.84 339.035 402.86 336.105 403.84 334.155C404.82 333.175 403.84 333.175 403.84 333.175H401.88C400.9 333.175 398.95 333.175 397.97 334.155C396.99 335.135 397.97 336.105 397.97 338.065V345.885C397.97 350.775 396.99 356.645 398.95 361.525C397.97 365.435 399.93 368.365 400.91 372.285C401.89 373.265 400.91 374.245 401.89 375.215C401.89 376.195 402.87 378.145 402.87 379.125C402.87 380.105 402.87 381.085 403.85 382.055L407.75 379.125ZM426.33 356.635C425.35 355.655 425.35 354.675 425.35 353.705V351.745C424.37 350.765 424.37 348.815 424.37 346.855C424.37 345.875 423.39 344.895 423.39 342.945V330.235C423.39 329.255 423.39 328.275 421.43 329.255L410.67 332.185H408.71C407.73 332.185 406.75 332.185 406.75 333.165C405.77 333.165 406.75 334.145 406.75 335.125V338.055C406.75 342.945 407.73 347.835 407.73 352.725C407.73 353.705 406.75 354.685 407.73 355.655C407.73 356.635 408.71 357.615 407.73 358.585C407.73 360.545 409.69 361.515 408.71 362.495C408.71 364.455 409.69 366.405 410.67 368.365C410.67 370.325 411.65 372.275 411.65 373.255C411.65 374.235 412.63 374.235 412.63 374.235C412.63 373.255 413.61 373.255 413.61 373.255C418.5 369.345 421.43 364.455 425.34 360.545C427.31 358.585 427.31 358.585 426.33 356.635ZM418.5 208.005C421.43 208.005 422.41 205.075 425.34 205.075C426.32 205.075 427.3 204.095 428.27 203.115C428.27 202.135 430.23 201.155 431.2 200.185C432.18 200.185 433.16 201.165 433.16 201.165V207.035C433.16 208.995 433.16 211.925 434.14 213.875V217.785C434.14 217.785 433.16 217.785 433.16 218.765H432.18L422.4 226.585C421.42 227.565 420.44 227.565 420.44 226.585C419.46 226.585 419.46 225.605 418.48 225.605V218.765C418.48 215.835 417.5 213.875 417.5 210.945C416.55 209.965 417.53 208.005 418.5 208.005ZM440.99 165.965C442.95 164.005 441.97 163.035 440.99 161.075C440.01 161.075 440.99 160.095 441.97 160.095C444.9 159.115 446.86 160.095 448.81 163.025V164.005C447.83 164.985 446.85 165.965 445.88 164.985C445.88 164.005 444.9 164.985 443.92 164.985L440.99 172.805C440.99 173.785 440.01 174.765 440.01 175.735V176.715H440.99L446.86 172.805L450.77 169.875C451.75 169.875 451.75 168.895 451.75 166.945C452.73 165.965 452.73 164.985 454.68 164.985C457.61 164.985 459.57 166.945 461.52 169.875L460.54 171.835H459.56C456.63 171.835 454.67 172.815 452.72 173.795C450.76 174.775 449.79 176.725 447.83 176.725C446.85 177.705 445.87 178.685 445.87 179.655V187.475C444.89 188.455 444.89 189.435 445.87 191.385C446.85 193.335 446.85 193.345 445.87 196.275V198.235C445.87 199.215 445.87 200.195 443.91 200.195C442.93 200.195 441.95 199.215 440.98 198.235C440 198.235 440 197.255 439.02 196.275C438.04 196.275 439.02 195.295 439.02 195.295H440C440.98 194.315 440.98 193.335 440.98 192.365V185.525C440.98 183.565 441.96 182.595 440.98 181.615C440 181.615 438.05 182.595 437.07 182.595C437.07 182.595 436.09 183.575 436.09 184.555L433.16 188.465V193.355C434.14 194.335 432.18 195.315 431.2 195.315L425.33 192.385C424.35 191.405 425.33 189.455 426.31 189.455L429.24 187.495L435.11 175.765L440.99 165.965ZM458.59 306.765L457.61 307.745L454.68 311.655L444.9 319.475L438.06 323.385C437.08 323.385 436.1 324.365 435.13 325.345C434.15 325.345 432.2 325.345 431.22 326.325H430.24C429.26 326.325 429.26 327.305 429.26 327.305C429.26 330.235 428.28 331.215 428.28 333.175V345.885C429.26 347.845 429.26 349.795 429.26 352.725C429.26 352.725 429.26 353.705 430.24 354.685C430.24 355.665 430.24 355.665 431.22 354.685C435.13 349.795 439.04 344.905 443.93 340.015L452.73 332.195C453.71 330.235 455.66 328.285 454.69 326.325C455.67 324.365 455.67 322.415 455.67 321.435C457.63 317.525 457.63 313.615 458.6 309.705V306.765H458.59ZM456.64 266.675V264.715H455.66C453.7 264.715 450.77 265.695 449.79 268.625V269.605C448.81 270.585 447.83 269.605 446.86 269.605L445.88 268.625V259.825C445.88 257.865 445.88 256.895 444.9 256.895C444.9 255.915 443.92 255.915 443.92 255.915C442.94 253.955 440.99 254.935 440.01 253.955C439.03 253.955 438.05 254.935 437.08 255.915L434.15 259.825V268.625C433.17 271.555 433.17 274.495 433.17 277.425C433.17 278.405 433.17 278.405 434.15 278.405C436.11 278.405 438.06 278.405 440.02 277.425C442.95 277.425 444.91 277.425 446.86 278.405H450.77C451.75 278.405 452.73 277.425 452.73 276.445C452.73 273.515 453.71 270.575 454.69 268.625L456.64 266.675ZM455.66 253.965V250.055C455.66 248.095 455.66 246.145 454.68 244.185V243.205C454.68 242.225 454.68 240.275 453.7 239.295C453.7 237.335 453.7 236.365 452.72 235.385C451.74 230.495 450.76 226.585 448.81 222.675V221.695C448.81 220.715 449.79 218.765 450.77 218.765H451.75C453.71 217.785 455.66 217.785 458.59 215.835C458.59 215.835 459.57 214.855 460.55 214.855C463.48 214.855 464.46 212.895 467.39 211.925C470.32 210.945 473.26 208.995 476.19 207.035C477.17 206.055 479.12 206.055 480.1 204.105C481.08 203.125 482.06 203.125 483.03 203.125C484 203.125 484.99 205.085 484.99 205.085V215.845C485.97 218.775 485.97 221.715 487.92 225.625L489.88 233.445V241.265C489.88 242.245 488.9 242.245 488.9 243.225C486.94 243.225 485.97 244.205 484.99 244.205C484.01 244.205 483.03 244.205 482.06 245.185C479.13 246.165 477.17 248.115 473.26 248.115C469.35 251.045 464.46 253.005 460.55 256.915L459.57 257.895C458.59 257.895 457.61 257.895 456.64 255.935C455.66 255.915 455.66 254.945 455.66 253.965ZM485.97 200.185C484.01 199.205 482.06 198.225 480.1 198.225L473.26 195.295C470.33 194.315 467.39 193.335 464.46 191.385C463.48 190.405 462.5 191.385 460.55 191.385C460.55 191.385 459.57 191.385 459.57 192.365L457.61 196.275C456.63 198.235 455.65 200.185 453.7 201.165H452.72L451.74 200.185C451.74 199.205 452.72 198.225 452.72 196.275L456.63 188.455C457.61 187.475 458.59 187.475 459.56 187.475C462.49 187.475 464.45 187.475 466.4 188.455L478.13 194.325C481.06 195.305 483.02 196.285 484.97 198.235C485.95 198.235 486.93 198.235 486.93 200.195H485.97V200.185ZM477.17 287.205C476.19 286.225 475.21 285.245 475.21 284.275C474.23 282.315 472.28 282.315 470.32 282.315H466.41C464.45 282.315 464.45 283.295 464.45 284.275C464.45 285.255 465.43 286.235 465.43 286.235V296.015C463.47 298.945 464.45 301.885 464.45 303.835V305.795C463.47 307.755 463.47 308.725 463.47 310.685C463.47 311.665 462.49 312.645 462.49 314.595C462.49 316.545 461.51 318.505 460.53 320.465V322.425H461.51C462.49 320.465 464.44 318.515 466.4 316.555L475.2 307.755C476.18 306.775 477.16 305.795 477.16 304.825C476.18 299.935 476.18 296.025 476.18 292.115C476.18 290.155 477.16 289.185 477.16 288.205V287.205H477.17ZM503.57 163.025C502.59 157.155 499.66 153.245 495.75 149.335C494.77 148.355 493.79 147.375 492.82 147.375C490.86 147.375 488.91 146.395 486.95 146.395H482.06C480.1 147.375 478.15 147.375 476.19 147.375H468.37C467.39 147.375 467.39 147.375 467.39 148.355L482.06 155.195C486.95 156.175 490.86 158.125 495.75 160.085C498.68 161.065 500.64 163.015 502.59 163.015H503.57V163.025ZM533.89 245.165C533.89 244.185 532.91 244.185 532.91 244.185L529 241.255L522.16 237.345C520.2 238.325 518.25 236.365 515.32 236.365C514.34 236.365 514.34 236.365 513.36 238.325C513.36 241.255 512.38 243.215 509.45 246.145L499.67 253.965L495.76 256.895C495.76 257.875 496.74 257.875 496.74 257.875C497.72 256.895 498.7 255.915 499.67 257.875C502.6 257.875 503.58 259.835 506.51 260.805V262.765C506.51 262.765 506.51 263.745 505.53 263.745C504.55 265.705 503.57 265.705 501.62 264.725L498.69 262.765H497.71C497.71 263.745 496.73 264.725 496.73 265.695L500.64 268.625C502.6 269.605 502.6 271.555 501.62 273.515C501.62 274.495 500.64 274.495 500.64 274.495C499.66 274.495 499.66 273.515 498.68 273.515L494.77 269.605L493.79 270.585V272.545C493.79 276.455 492.81 278.415 490.86 281.345C487.93 284.275 485.97 286.235 482.06 287.215C481.08 287.215 481.08 288.195 480.1 288.195C479.12 288.195 479.12 289.175 480.1 289.175V295.045C481.08 297.005 481.08 297.975 481.08 299.935H482.06C484.02 297.005 486.95 296.025 488.9 293.095H486.94C485.96 294.075 484.98 294.075 484.01 294.075L482.05 292.115C482.05 291.135 482.05 290.155 483.03 290.155C483.03 290.155 483.03 289.175 484.01 289.175C486.94 288.195 487.92 286.245 489.88 284.285C490.86 284.285 491.84 283.305 492.81 283.305C492.81 282.325 492.81 282.325 493.79 282.325V284.275C493.79 284.275 493.79 285.255 492.81 286.235C492.81 287.215 491.83 288.195 491.83 290.145C491.83 289.165 492.81 289.165 492.81 289.165L503.57 277.435L518.24 261.785L521.17 258.855C519.21 257.875 518.24 258.855 517.26 258.855H516.28C513.35 257.875 512.37 255.925 513.35 252.985V251.025C512.37 251.025 511.39 250.045 511.39 250.045C511.39 249.065 510.41 248.085 511.39 248.085C511.39 247.105 513.35 246.125 514.32 246.125L517.25 248.085C520.18 249.065 522.14 251.015 522.14 254.925V256.885H523.12L526.05 253.955L524.09 251.025C523.11 249.065 521.16 247.115 519.2 246.135C518.22 246.135 518.22 245.155 517.24 245.155C516.26 244.175 516.26 243.195 517.24 243.195L519.2 241.235C522.13 242.215 525.07 243.195 527.02 246.125L529.95 249.055C529.95 250.035 529.95 250.035 530.93 250.035C530.93 248.075 532.89 247.105 533.86 246.125V245.165H533.89ZM488.91 200.185C489.89 200.185 490.87 200.185 490.87 201.165C489.88 201.165 488.91 202.135 488.91 200.185ZM534.86 614.775L543.66 599.125V597.165C542.68 597.165 542.68 596.185 542.68 596.185C541.7 595.205 541.7 593.255 542.68 593.255C542.68 592.275 544.64 592.275 545.61 593.255L550.5 597.165V598.145C551.48 599.125 551.48 599.125 551.48 600.105C550.5 601.085 549.52 601.085 548.55 601.085H547.57C547.57 600.105 546.59 601.085 546.59 601.085C545.61 603.045 543.66 605.975 543.66 607.925C542.68 607.925 543.66 609.885 543.66 609.885L547.57 612.815C548.55 613.795 549.53 613.795 549.53 613.795L555.4 609.885C556.38 609.885 555.4 608.905 555.4 608.905C554.42 607.925 554.42 606.945 554.42 604.995L555.4 604.015C557.36 604.015 558.33 604.995 559.31 604.995L562.24 608.905C563.22 609.885 563.22 610.865 562.24 611.835C562.24 612.815 561.26 612.815 560.28 612.815C559.3 611.835 558.32 611.835 557.35 612.815C554.42 615.745 550.51 618.685 546.59 620.635L530.94 632.365H529.96C528.98 632.365 528 631.385 528 631.385C528 629.425 527.02 628.455 528 626.495L529.96 623.565L534.86 614.775ZM582.78 420.195C582.78 423.125 582.78 426.065 583.76 428.995V441.705C583.76 442.685 582.78 443.665 581.8 443.665H579.84C576.91 443.665 574.95 443.665 573.97 442.685C572.02 442.685 569.08 442.685 567.13 443.665H566.15L547.57 447.575L540.73 450.505C538.77 451.485 537.8 450.505 536.82 449.525C535.84 449.525 535.84 448.545 534.86 448.545V446.585L536.82 442.675C537.8 440.715 536.82 438.765 537.8 436.805C539.76 433.875 539.76 430.935 539.76 428.985C540.74 428.005 540.74 426.055 540.74 425.075C541.72 423.115 541.72 421.165 541.72 419.205C541.72 415.295 540.74 412.365 540.74 408.445V406.485C540.74 405.505 539.76 404.525 540.74 403.555C541.72 402.575 542.7 401.595 543.67 401.595H551.49C553.45 401.595 556.38 402.575 558.33 401.595C560.29 400.615 562.24 401.595 564.2 400.615C567.13 399.635 570.07 399.635 572.02 399.635L587.66 393.765C588.64 393.765 589.62 393.765 589.62 394.745V397.675C587.66 399.635 586.69 401.585 586.69 404.515C584.73 407.445 584.73 411.355 582.78 415.275V420.195V420.195ZM564.2 265.695C564.2 266.675 564.2 268.625 565.18 269.605V271.565C565.18 272.545 563.22 273.515 563.22 273.515H560.29C557.36 273.515 554.42 274.495 551.49 275.475C550.51 275.475 549.53 275.475 548.56 274.495C547.58 273.515 546.6 272.535 547.58 271.565C548.56 269.605 547.58 267.655 548.56 265.695V259.825C548.56 258.845 549.54 257.865 550.52 257.865H553.45C556.38 257.865 559.32 257.865 562.25 255.905H564.21C565.19 255.905 566.17 255.905 566.17 257.865C566.17 257.865 566.17 258.845 565.19 258.845C565.18 260.805 564.2 263.745 564.2 265.695ZM577.89 584.465C576.91 586.425 576.91 588.375 576.91 590.335V593.265C576.91 594.245 575.93 595.225 574.95 595.225H573.97C569.08 595.225 565.17 596.205 561.26 598.155H560.28C559.3 599.135 557.35 598.155 557.35 596.195V593.265C558.33 592.285 558.33 591.305 558.33 590.335C558.33 588.375 559.31 587.405 559.31 585.445V580.555C559.31 579.575 559.31 579.575 560.29 579.575C563.22 579.575 566.16 578.595 569.09 578.595C571.05 578.595 572.02 577.615 573 577.615C573.98 576.635 574.96 576.635 575.93 576.635C576.91 576.635 576.91 576.635 576.91 577.615C577.89 578.595 578.87 580.545 577.89 581.525V584.465ZM589.62 241.255L583.75 251.035L580.82 254.945C579.84 255.925 580.82 256.905 580.82 257.875V258.855C580.82 259.835 580.82 260.815 578.86 260.815C577.88 259.835 577.88 259.835 576.9 259.835C575.92 258.855 574.94 257.875 573.97 257.875L572.02 254.945C572.02 253.965 573 252.985 573.97 252.985C576.9 252.985 577.88 251.025 578.86 249.075C579.84 248.095 579.84 248.095 578.86 246.145L577.88 245.165L573.97 242.235L569.08 245.165V247.125C570.06 248.105 569.08 249.085 568.1 250.055H565.17L561.26 245.165V244.185C561.26 243.205 561.26 242.225 562.24 242.225C564.2 242.225 566.15 242.225 567.13 240.265L578.86 232.445C581.79 229.515 585.7 227.555 589.62 224.625C589.62 224.625 590.6 224.625 591.58 223.645C593.54 222.665 595.49 223.645 596.47 225.605C597.45 226.585 597.45 226.585 597.45 227.565C597.45 228.545 596.47 229.525 596.47 230.495C593.53 233.425 591.58 237.345 589.62 241.255ZM583.75 241.255C585.71 238.325 586.68 235.385 589.62 232.455H588.64C585.71 234.415 582.77 236.365 579.84 237.345C578.86 238.325 579.84 238.325 579.84 239.305C579.84 240.285 581.8 241.265 582.77 242.235H583.75V241.255V241.255ZM672.74 255.915C671.76 251.025 667.85 245.155 662.96 242.225C659.05 240.265 655.14 237.335 651.23 236.355L639.5 230.485H638.52V229.505L637.54 230.485H638.52C638.52 231.465 639.5 231.465 640.48 232.445L645.37 236.355C646.35 238.315 648.3 239.285 650.26 241.245L659.06 248.085C662.97 251.995 666.88 254.925 670.79 257.865C670.79 258.845 670.79 258.845 671.77 258.845C671.77 259.825 672.75 259.825 672.75 258.845V255.915H672.74ZM790.07 382.055C790.07 384.015 789.09 384.985 789.09 386.945C789.09 387.925 788.11 389.875 788.11 390.855L785.18 394.765C784.2 397.695 782.25 399.655 779.31 402.585L773.44 408.455C772.46 411.385 770.51 412.365 767.57 415.295L759.75 425.075L748.99 435.835C744.1 441.705 738.23 446.595 734.32 452.455C730.41 456.365 725.52 460.275 721.61 465.165L713.79 473.965L704.01 484.725L697.17 490.595L692.28 496.465C689.35 501.355 684.46 504.285 679.57 507.225C678.59 508.205 677.61 509.185 675.66 509.185C675.66 510.165 674.68 510.165 674.68 510.165V508.205L679.57 502.335L690.33 490.605C690.33 489.625 690.33 489.625 691.31 488.645L703.04 475.935L710.86 467.135L722.59 454.425C726.5 449.535 732.37 444.645 737.26 438.775C741.17 434.865 744.1 429.975 748.99 426.065C751.92 424.105 753.88 421.175 755.83 419.225L771.48 402.605L777.35 397.715L780.28 393.805C782.24 391.845 784.19 388.915 784.19 385.985C785.17 385.985 785.17 385.005 785.17 385.005V381.095C785.17 380.115 785.17 378.165 784.19 377.185L782.23 369.365L776.36 361.545L767.56 352.745L760.72 346.875L751.92 339.055L743.12 332.215L722.59 311.685L717.7 307.775C717.7 307.775 717.7 306.795 718.68 306.795V305.815C719.66 305.815 719.66 306.795 720.64 306.795L730.42 312.665C735.31 315.595 739.22 319.505 743.13 322.445C747.04 327.335 751.93 330.265 756.82 334.175L764.64 341.995L778.33 354.705L786.15 364.485C787.13 366.445 788.11 369.375 788.11 371.325C788.11 372.305 788.11 374.255 789.09 375.235C789.09 377.195 789.09 379.145 790.07 381.105V382.055ZM714.78 419.215C715.76 416.285 715.76 413.345 715.76 410.415V407.485L716.74 406.505H721.63C723.59 407.485 726.52 406.505 728.47 405.525C729.45 405.525 730.43 404.545 731.4 404.545C732.38 404.545 734.33 406.505 733.36 407.475C732.38 410.405 733.36 414.315 733.36 417.255V420.185C733.36 422.145 732.38 423.115 731.4 423.115C728.47 422.135 726.51 423.115 724.56 424.095C721.63 424.095 719.67 424.095 717.72 425.075C717.72 426.055 716.74 425.075 715.76 425.075L713.8 423.115C712.82 423.115 712.82 422.135 713.8 422.135C713.8 421.165 713.8 420.195 714.78 419.215ZM749 403.565C748.02 404.545 747.04 405.525 748.02 406.495V407.475C748.02 409.435 748.02 409.435 746.06 409.435H745.09L740.2 404.545C739.22 404.545 739.22 403.565 739.22 403.565L740.2 401.605H742.16C743.14 401.605 744.12 401.605 744.12 400.625L748.03 395.735L743.14 390.845C741.18 388.885 741.18 388.885 739.23 390.845C737.27 391.825 736.3 392.805 735.32 392.805C735.32 393.785 734.34 393.785 735.32 394.765C735.32 395.745 735.32 395.745 736.3 396.725C736.3 397.705 735.32 398.675 735.32 398.675C734.34 399.655 733.36 398.675 733.36 398.675C731.4 397.695 730.43 397.695 729.45 395.745L726.52 392.815C726.52 391.835 726.52 389.885 728.48 389.885H730.44C730.44 390.865 731.42 390.865 732.4 389.885C738.27 384.995 745.11 381.085 751.96 376.195C753.92 374.235 756.85 373.265 759.78 371.305C760.76 370.325 761.73 370.325 763.69 372.285C763.69 372.285 763.69 373.265 764.67 373.265V376.195L757.83 387.925C756.85 388.905 755.87 389.885 755.87 390.855C753.89 395.745 750.96 399.655 749 403.565Z" fill="url(#paint0_linear_606_48)"/>
<defs>
<linearGradient id="paint0_linear_606_48" x1="0" y1="132" x2="790" y2="657" gradientUnits="userSpaceOnUse">
<stop stop-color="#CD8258"/>
<stop offset="1" stop-color="#74453A"/>
</linearGradient>
</defs>
</svg>
