<svg width="790" height="790" viewBox="0 0 790 790" fill="none" xmlns="http://www.w3.org/2000/svg">
<path d="M239.36 565.854C240.34 565.854 240.34 566.834 240.34 566.834C242.3 569.764 242.3 569.764 239.36 571.724C236.42 573.684 233.49 575.634 230.56 576.614L225.67 578.574C221.76 581.504 216.87 583.464 211 584.444L195.35 590.314L187.53 592.274C186.55 592.274 185.57 593.254 184.6 594.234C177.76 597.164 170.91 599.124 165.04 601.074C163.08 603.034 161.13 602.054 159.17 603.034L154.28 605.964L138.63 612.804C137.65 613.784 136.67 613.784 135.7 613.784C132.77 614.764 130.81 616.714 128.86 617.694C127.88 618.674 126.9 619.654 125.93 619.654C124.95 620.634 123 619.654 123 618.674V608.894C123 607.914 123 605.964 123.98 604.984V600.094C123.98 598.134 123.98 596.184 124.96 594.224V588.354C124.96 587.374 124.96 585.424 125.94 583.464V580.534C125.94 577.604 125.94 575.644 126.92 572.714V567.824C126.92 565.864 126.92 563.914 127.9 561.954V557.064C127.9 554.134 126.92 551.194 128.88 549.244C128.88 545.334 129.86 541.424 129.86 537.514C128.88 535.554 130.84 533.604 130.84 531.644C130.84 529.684 129.86 527.734 130.84 526.754C131.82 523.824 131.82 521.864 131.82 519.914C131.82 516.984 132.8 516.004 132.8 514.044C132.8 512.084 131.82 510.134 132.8 508.174C133.78 506.214 133.78 504.264 133.78 501.334C133.78 500.354 134.76 498.404 134.76 497.424V492.534C135.74 491.554 134.76 490.574 135.74 489.604V485.694C136.72 484.714 135.74 483.734 136.72 481.784V480.804L139.65 470.044C140.63 467.114 141.61 465.154 143.56 463.204C143.56 462.224 143.56 461.244 144.54 461.244C145.52 457.334 147.47 453.424 150.41 450.484C151.39 447.554 152.37 444.614 154.32 442.664C155.3 440.704 157.25 439.734 158.23 438.754C159.21 437.774 159.21 437.774 159.21 438.754C160.19 438.754 160.19 439.734 160.19 439.734L159.21 440.714C156.28 443.644 155.3 446.584 154.32 448.534C154.32 450.494 153.34 451.464 153.34 452.444C150.41 456.354 148.45 459.284 147.47 464.174C144.54 469.064 143.56 473.954 141.6 479.824L140.62 480.804C141.6 483.734 140.62 485.694 139.64 488.624V492.534C138.66 493.514 139.64 495.464 138.66 496.444C138.66 498.404 137.68 500.354 137.68 502.314V505.244C136.7 507.204 137.68 510.134 136.7 512.084C136.7 515.014 136.7 517.954 135.72 520.884C135.72 521.864 136.7 523.814 135.72 524.794V525.774C134.74 529.684 134.74 531.644 134.74 535.554C133.76 537.514 134.74 540.444 134.74 543.374C134.74 545.334 134.74 546.304 133.76 548.264C132.78 549.244 133.76 550.224 133.76 551.194C132.78 553.154 133.76 556.084 132.78 558.034V563.904C131.8 564.884 132.78 566.834 131.8 568.794V572.704C130.82 575.634 131.8 577.594 130.82 579.544C129.84 580.524 130.82 582.474 130.82 583.454C129.84 585.414 130.82 587.364 129.84 589.324C128.86 590.304 129.84 591.284 129.84 592.254V600.074C129.84 602.034 129.84 603.004 128.86 604.964V608.874C128.86 609.854 129.84 610.834 131.79 610.834H132.77L136.68 607.904L144.5 603.994C147.43 603.994 149.39 603.014 152.32 602.034L160.14 598.124C163.07 597.144 166.01 596.164 168.94 594.214L183.61 588.344L200.23 582.474C204.14 581.494 208.05 580.514 211.96 578.564C212.94 578.564 213.92 578.564 213.92 577.584L223.7 574.654C227.61 573.674 230.54 571.724 234.46 569.764C235.44 569.764 235.44 568.784 235.44 567.804C233.48 563.894 231.53 559.984 228.6 557.044C224.69 550.204 220.78 543.354 218.82 536.514C217.84 532.604 215.89 529.674 214.91 526.734C213.93 524.774 212.95 521.844 212.95 518.914H211.97C212.95 515.984 210.99 513.044 210.99 509.134V506.204C210.01 505.224 210.01 504.244 210.01 503.274C210.99 500.344 210.01 496.434 210.99 493.494V489.584C212.95 487.624 211.97 485.674 212.95 483.714C212.95 481.754 213.93 479.804 214.91 477.844C214.91 475.884 216.87 473.934 217.84 471.974C219.8 469.044 222.73 465.134 225.66 463.174L233.48 457.304H235.44C235.44 458.284 234.46 459.264 234.46 459.264L228.59 465.134L225.66 469.044L223.7 471.004C221.74 474.914 219.79 477.844 218.81 481.764C218.81 482.744 217.83 483.724 217.83 485.674C216.85 487.634 216.85 489.584 215.87 490.564V496.434C214.89 500.344 214.89 502.304 215.87 506.214V507.194C215.87 512.084 217.83 515.994 218.8 520.884C218.8 522.844 219.78 524.794 219.78 525.774L221.74 531.644V532.624C224.67 536.534 225.65 541.424 227.61 545.334C229.57 548.264 231.52 551.204 232.5 554.134L235.43 558.044L239.36 565.854ZM552.26 454.384C551.28 455.364 550.3 456.344 548.35 456.344C543.46 455.364 539.55 457.324 533.68 459.274C531.72 459.274 530.75 460.254 528.79 461.234L519.01 469.054C516.08 471.014 513.14 472.964 509.23 473.944C505.32 474.924 502.39 475.904 498.47 474.924C497.49 474.924 495.54 473.944 493.58 473.944C492.6 473.944 491.62 472.964 489.67 472.964C488.69 472.964 486.74 471.984 485.76 471.984C483.8 471.984 482.83 471.004 481.85 470.024L475.98 468.064C474.02 467.084 473.05 465.134 471.09 465.134L467.18 462.204C459.36 456.334 455.45 451.444 451.54 443.624C451.54 442.644 450.56 441.664 450.56 441.664C450.56 438.734 449.58 435.794 448.6 432.864C447.62 429.934 447.62 426.994 447.62 424.064C449.58 423.084 448.6 421.134 449.58 420.154C449.58 418.194 450.56 417.224 450.56 415.264C452.52 410.374 453.49 405.484 453.49 399.614C453.49 398.634 452.51 398.634 452.51 397.654C451.53 395.694 449.58 393.744 447.62 392.764C445.66 390.804 442.73 389.834 440.78 388.854C439.8 387.874 437.85 386.894 435.89 386.894L430.02 382.984C428.06 382.984 427.09 382.004 427.09 380.054C426.11 379.074 425.13 378.104 427.09 376.144V374.184C427.09 373.204 426.11 372.224 425.13 372.224L421.22 369.294C418.29 368.314 417.31 365.384 415.35 363.424C414.37 362.444 414.37 360.494 413.39 358.534C412.41 357.554 413.39 355.604 412.41 353.644H411.43C413.39 350.714 412.41 347.774 412.41 344.844C413.39 342.884 413.39 340.934 413.39 338.974C414.37 337.994 414.37 336.044 414.37 335.064V327.244C414.37 323.334 414.37 319.424 412.41 315.514C411.43 314.534 412.41 312.584 411.43 310.624C409.47 310.624 407.52 309.644 406.54 309.644L393.83 303.774C392.85 302.794 391.87 301.814 391.87 300.844C390.89 298.884 389.91 296.934 389.91 295.954C389.91 292.044 387.95 289.114 384.04 288.134C382.08 286.174 379.15 285.204 376.22 284.224C372.31 283.244 368.4 281.294 363.51 279.334C360.58 277.374 356.67 276.404 352.75 275.424C349.82 273.464 345.91 272.494 341.99 270.534C338.08 269.554 334.17 267.604 330.26 265.644C328.3 265.644 325.37 263.684 323.42 263.684C320.49 262.704 318.53 260.754 316.58 260.754C314.62 258.794 311.69 257.824 308.76 256.844C306.8 256.844 304.85 254.884 301.92 254.884L284.32 247.064C281.39 246.084 277.48 245.104 274.54 243.154C273.56 243.154 272.58 243.154 271.61 242.174H270.63C266.72 241.194 264.76 241.194 263.79 245.104C262.81 246.084 261.83 247.064 261.83 249.014C260.85 251.944 257.92 252.924 255.96 251.944L248.14 249.014L245.21 246.084C244.23 246.084 244.23 246.084 244.23 245.104C244.23 243.144 244.23 241.194 245.21 239.234C245.21 238.254 246.19 236.304 246.19 235.324C247.17 232.394 246.19 232.394 244.23 231.414C241.3 229.454 238.36 228.484 235.43 227.504L231.52 225.544C230.54 225.544 228.59 224.564 226.63 224.564C224.67 224.564 223.7 223.584 222.72 221.634C221.74 218.704 220.76 216.744 222.72 213.814C222.72 212.834 222.72 211.854 221.74 211.854L217.83 209.894L196.32 201.094L181.65 195.224C176.76 192.294 170.89 190.334 165.03 188.384L158.19 185.454C154.28 183.494 149.39 182.524 145.48 179.584C143.52 179.584 141.57 178.604 139.61 177.624L126.9 171.754C124.94 170.774 123.97 169.794 123.97 167.844V154.154L125.93 148.284C127.89 146.324 128.86 143.394 129.84 141.444C131.8 138.514 134.73 136.554 138.64 135.574C138.64 134.594 139.62 134.594 139.62 134.594H141.58C145.49 135.574 147.45 137.524 151.36 138.504H152.34L155.27 135.574C156.25 134.594 157.23 133.614 158.2 133.614C159.18 132.634 161.13 131.654 163.09 132.634H169.93C171.89 132.634 173.84 132.634 175.8 133.614C181.67 135.574 187.53 137.524 192.42 140.454C193.4 140.454 194.38 141.434 194.38 142.414C195.36 143.394 195.36 144.374 194.38 145.344C193.4 147.304 194.38 148.274 193.4 150.234C192.42 151.214 193.4 152.194 192.42 154.144C192.42 154.144 192.42 155.124 193.4 156.104C195.36 156.104 197.31 157.084 199.27 158.064L215.89 164.904C219.8 165.884 224.69 167.834 228.6 169.794C231.53 169.794 233.49 171.754 235.44 172.724C239.35 173.704 243.26 174.684 246.2 176.634C249.13 178.594 253.04 179.564 255.98 180.544L267.71 185.434L276.51 189.344C279.44 189.344 281.4 192.274 284.33 192.274C285.31 192.274 285.31 193.254 286.29 193.254C294.11 196.184 301.93 200.094 309.76 204.014L323.45 209.884C325.41 209.884 327.36 211.844 330.29 211.844C335.18 214.774 340.07 216.734 344.96 218.684C351.8 221.614 358.65 223.574 364.52 226.504C368.43 227.484 372.34 229.434 376.25 231.394L391.89 237.264C392.87 237.264 393.85 237.264 393.85 238.244H395.81C404.61 234.334 413.41 231.404 421.23 227.484L428.07 225.524L433.94 222.594C436.87 222.594 437.85 220.634 439.81 220.634L448.61 216.724C451.54 215.744 455.45 214.764 458.39 212.814C461.32 211.834 464.26 210.854 467.19 208.904C471.1 207.924 473.06 206.944 475.99 204.994L491.64 198.154C497.51 196.194 503.37 193.264 509.24 190.334L529.77 181.534C533.68 180.554 538.57 177.624 543.46 176.644C547.37 174.684 552.26 173.714 557.15 170.774C558.13 170.774 559.11 170.774 560.08 169.794C563.99 168.814 566.92 166.864 569.86 165.884C577.68 162.954 585.51 159.044 593.33 157.084C594.31 157.084 595.29 156.104 595.29 156.104C596.27 155.124 597.25 154.144 597.25 153.174C596.27 151.214 596.27 149.264 595.29 148.284C595.29 147.304 595.29 146.324 594.31 145.354C594.31 142.424 595.29 140.464 598.22 139.484L606.04 136.554C608.97 135.574 610.93 133.624 612.88 133.624C617.77 131.664 623.64 131.664 628.53 132.644C630.49 132.644 633.42 133.624 635.37 136.554C635.37 136.554 636.35 137.534 636.35 138.514H638.31L645.15 135.584C647.11 134.604 649.06 134.604 651.99 135.584C654.92 136.564 656.88 138.514 658.83 140.474C659.81 141.454 660.79 142.434 660.79 143.404L664.7 152.204C665.68 154.164 665.68 155.134 665.68 157.094C666.66 158.074 666.66 159.054 665.68 160.024C665.68 162.954 666.66 165.894 665.68 167.844C665.68 169.804 663.72 170.774 662.75 171.754C660.79 172.734 658.84 174.684 656.88 174.684L651.01 177.614C649.05 177.614 647.1 178.594 645.14 179.574C641.23 181.534 637.32 182.504 634.38 184.464C630.47 185.444 628.51 187.394 625.58 187.394L614.82 192.284L607 195.214L593.31 201.084C587.44 203.044 582.55 205.974 577.66 207.924C575.7 207.924 573.75 208.904 571.79 209.884C570.81 210.864 569.83 210.864 569.83 210.864C567.87 211.844 566.9 211.844 566.9 213.794V218.684C566.9 219.664 567.88 220.644 566.9 220.644C566.9 222.604 564.94 224.554 563.97 224.554C561.04 224.554 558.1 225.534 556.15 226.514C552.24 227.494 547.35 229.444 543.44 232.384C542.46 232.384 542.46 233.364 542.46 234.344C542.46 234.344 543.44 235.324 543.44 236.304C544.42 237.284 544.42 239.234 545.4 241.194C545.4 243.154 545.4 245.104 544.42 246.084C544.42 247.064 543.44 248.044 542.46 248.044L534.64 251.954H530.73C528.77 249.994 527.8 249.024 527.8 247.064C527.8 246.084 526.82 246.084 525.84 245.104C525.84 244.124 525.84 242.174 523.88 241.194H518.99C515.08 243.154 511.17 245.104 507.26 246.084C504.33 248.044 501.39 249.014 497.48 249.994L488.68 253.904C484.77 254.884 481.84 256.834 478.9 257.814C477.92 257.814 477.92 257.814 477.92 258.794H476.94L477.92 259.774L484.76 262.704C489.65 263.684 494.54 265.634 499.43 267.594C505.3 270.524 511.16 272.484 517.03 274.434L524.85 278.344L537.56 284.214L552.23 290.084C557.12 292.044 561.03 293.014 564.94 296.924C567.87 298.884 570.81 300.834 571.78 303.764L574.71 309.634C575.69 312.564 577.64 316.474 581.55 317.454C582.53 318.434 583.51 320.384 585.46 320.384C588.39 321.364 591.33 323.314 594.26 323.314C595.24 323.314 596.22 323.314 596.22 322.334C598.18 322.334 600.13 321.354 602.09 321.354C603.07 320.374 605.02 320.374 606.98 320.374C609.91 318.414 612.85 320.374 614.8 318.414C618.71 318.414 625.56 319.394 628.49 322.324L631.42 324.284C632.4 325.264 633.38 326.244 633.38 327.214V328.194C633.38 331.124 630.45 333.084 627.51 333.084C624.58 332.104 619.69 332.104 615.78 333.084C613.82 334.064 609.91 333.084 607.96 335.044H606C605.02 335.044 605.02 334.064 606 334.064C606 333.084 606.98 332.104 607.96 332.104C609.92 331.124 611.87 329.174 613.83 330.144C616.76 328.184 619.7 329.164 621.65 329.164C624.58 329.164 626.54 329.164 628.49 330.144L629.47 329.164C630.45 328.184 630.45 328.184 629.47 327.204V326.224C626.54 325.244 624.58 324.264 621.65 324.264C619.69 324.264 618.72 324.264 616.76 323.284H614.8C612.84 324.264 611.87 324.264 609.91 324.264C606.98 324.264 604.04 325.244 602.09 325.244C601.11 325.244 600.13 326.224 599.16 326.224C596.23 326.224 594.27 327.204 591.34 327.204L585.47 325.244C582.54 324.264 579.6 323.284 577.65 321.334C576.67 321.334 576.67 320.354 576.67 320.354C575.69 318.394 573.74 316.444 571.78 314.484L567.87 306.664C565.91 303.734 562.98 300.794 560.05 298.844L546.36 292.974L542.45 291.014L522.89 283.194L509.2 277.324C505.29 275.364 501.38 273.414 497.47 272.434C487.69 268.524 477.91 264.614 468.14 261.674C464.23 259.714 461.3 258.744 456.41 257.764C455.43 255.804 454.45 256.784 452.5 255.804H448.59C446.63 255.804 445.66 254.824 442.72 254.824C441.74 254.824 440.76 254.824 439.79 256.784C438.81 258.744 436.86 260.694 436.86 263.624C434.9 266.554 432.95 270.464 431.97 274.384C431.97 274.384 431.97 275.364 430.99 276.344C430.99 277.324 430.01 277.324 428.06 277.324C427.08 277.324 427.08 277.324 427.08 276.344V273.414L430.99 263.634C431.97 262.654 431.97 262.654 431.97 261.674V260.694C430.99 259.714 430.99 259.714 430.01 259.714L422.19 256.784L416.32 253.854C411.43 250.924 405.56 248.964 400.68 247.014C395.79 246.034 391.88 244.084 387.97 242.124L369.39 234.304L356.68 229.414L342.99 223.544L327.34 217.674L317.56 212.784C311.69 210.824 305.83 207.894 299.96 204.964L281.38 197.144C273.56 193.234 265.74 189.324 257.91 187.364C255.95 185.404 253.02 184.434 251.07 183.454L235.43 177.584C231.52 175.624 227.61 173.674 223.7 172.694L219.79 170.734C214.9 169.754 210.99 167.804 206.1 165.844C202.19 163.884 199.26 162.914 195.34 161.934L189.47 159.004L172.85 152.164L161.12 147.274C159.16 146.294 156.23 145.314 154.28 145.314L145.48 142.384C143.52 141.404 141.57 140.424 138.64 140.424L137.66 141.404C135.7 142.384 133.75 144.334 132.77 146.294C130.81 150.204 129.84 154.114 128.86 158.024C127.88 159.004 128.86 161.934 127.88 162.914C127.88 164.874 128.86 165.844 128.86 167.804L129.84 168.784C133.75 169.764 137.66 171.714 140.6 173.674C147.44 175.634 153.31 178.564 159.18 180.514L166.02 183.444L187.53 192.244L190.46 194.204C196.33 195.184 202.19 198.114 208.06 200.074L211.97 202.034L221.75 205.944H222.73C223.71 206.924 224.69 205.944 224.69 204.964C225.67 201.054 228.6 199.094 230.56 195.184L231.54 194.204C232.52 193.224 233.5 194.204 234.47 194.204C235.45 195.184 235.45 196.164 234.47 197.134C234.47 198.114 233.49 199.094 232.51 199.094C230.55 203.004 228.6 207.894 228.6 211.804C227.62 213.764 227.62 215.714 227.62 217.674C227.62 218.654 227.62 219.634 229.58 220.604L241.31 225.494L256.95 231.364C261.84 233.324 265.75 235.274 270.64 236.254C273.57 238.214 277.48 240.164 280.42 240.164L298.02 247.984C299.98 248.964 302.91 248.964 304.86 250.914L343.97 265.584C346.9 267.544 350.81 268.514 354.73 270.474L366.46 274.384C371.35 277.314 377.22 279.274 383.08 281.224L390.9 285.134L397.74 288.064C402.63 289.044 407.52 291.974 412.41 293.934H414.37L417.3 295.894C418.28 294.914 419.26 293.934 419.26 291.984L423.17 284.164C423.17 284.164 424.15 283.184 424.15 282.204C424.15 281.224 425.13 280.244 426.11 280.244C427.09 281.224 427.09 282.204 426.11 284.154L422.2 293.934C422.2 295.894 420.24 296.864 421.22 298.824C421.22 299.804 421.22 299.804 420.24 300.784C419.26 301.764 419.26 302.744 419.26 303.714L416.33 309.584C415.35 311.544 415.35 312.514 416.33 314.474C417.31 315.454 418.29 317.404 418.29 318.384C418.29 321.314 419.27 323.274 419.27 326.204V333.044C419.27 336.954 418.29 340.864 417.31 343.804C417.31 345.764 416.33 346.734 416.33 347.714V350.644C414.37 352.604 416.33 355.534 416.33 357.484L418.29 361.394C419.27 363.354 420.25 364.324 422.2 365.304C424.16 365.304 426.11 367.264 428.07 368.234C430.03 368.234 431 370.194 431 372.144V373.124C430.02 377.034 431.98 378.994 434.91 380.944L440.78 383.874C443.71 384.854 446.65 385.834 449.58 387.784C449.58 387.784 450.56 387.784 450.56 388.764L456.43 391.694C461.32 393.654 464.25 396.584 469.14 399.514H468.16L460.34 396.584C459.36 396.584 458.38 395.604 457.41 395.604H456.43C456.43 397.564 457.41 398.534 457.41 399.514C458.39 402.444 458.39 405.384 457.41 408.314C457.41 411.244 455.45 414.184 455.45 417.114C455.45 418.094 454.47 419.074 454.47 420.044C452.51 423.954 452.51 426.884 452.51 429.824C452.51 431.784 453.49 432.754 453.49 434.714C454.47 439.604 455.45 444.494 459.36 448.404L463.27 453.294C467.18 457.204 472.07 460.134 476.96 463.074L491.63 468.944H493.59C496.52 468.944 498.48 470.904 501.41 469.924C503.37 468.944 506.3 469.924 509.23 468.944C511.19 466.984 513.14 466.014 515.1 465.034C518.03 464.054 519.99 462.104 521.94 460.144L530.74 454.274C532.7 453.294 535.63 452.314 537.58 452.314C539.53 452.314 540.51 451.334 542.47 451.334C543.45 451.334 544.43 451.334 545.4 450.354C544.42 449.374 544.42 449.374 543.44 449.374C540.51 448.394 539.53 446.444 536.6 446.444C532.69 444.484 529.76 442.534 526.82 439.604C525.84 439.604 524.86 438.624 525.84 438.624C526.82 437.644 526.82 437.644 527.8 437.644C527.8 437.644 528.78 438.624 529.76 438.624C530.74 439.604 532.69 440.584 534.65 440.584L544.43 444.494C546.39 445.474 547.36 446.454 548.34 446.454C549.32 446.454 550.3 446.454 551.27 445.474V444.494C550.29 441.564 552.25 439.604 553.23 437.654C553.23 435.694 554.21 434.724 555.19 433.744C555.19 432.764 555.19 432.764 554.21 432.764L551.28 430.804C547.37 429.824 543.46 427.874 540.52 425.914L526.83 419.074C519.01 416.144 512.16 412.234 505.32 408.314C499.45 406.354 493.59 403.424 487.72 400.494C480.88 397.564 474.03 393.654 468.16 391.694L440.78 378.004C439.8 378.004 438.82 377.024 438.82 377.024C437.84 377.024 437.84 376.044 437.84 376.044L438.82 375.064H439.8L448.6 379.954C454.47 381.914 459.36 384.844 464.25 386.794L475.98 392.664C482.82 394.624 488.69 398.534 495.54 401.464C499.45 403.424 503.36 405.374 507.27 406.354L518.03 412.224C521.94 413.204 524.87 415.154 527.81 417.114L536.61 420.044L545.41 423.954L555.19 428.844C556.17 429.824 557.15 428.844 558.12 427.864L562.03 418.084C562.03 416.124 563.99 413.194 564.96 411.244C564.96 409.284 567.89 407.334 567.89 408.314C568.87 409.294 568.87 410.274 567.89 412.224L564.96 420.044L559.09 433.734C559.09 435.694 558.11 437.644 557.13 439.604C556.15 440.584 555.17 442.534 557.13 444.494V446.454H558.11V445.474C560.07 442.544 563 443.514 565.93 444.494C567.89 444.494 569.84 446.454 571.8 447.424C575.71 449.384 579.62 453.294 583.53 457.204C586.46 461.114 589.4 466.004 590.37 470.894C590.37 472.854 591.35 473.824 591.35 475.784C592.33 477.744 592.33 479.694 592.33 481.654V488.494C593.31 490.454 593.31 492.404 593.31 494.364V500.234C592.33 501.214 592.33 503.164 592.33 505.124C592.33 506.104 592.33 508.054 591.35 509.034L586.46 527.614C585.48 530.544 583.53 532.504 583.53 535.434C581.57 536.414 581.57 538.364 580.6 540.324C579.62 541.304 578.64 541.304 578.64 542.284H576.68C575.7 542.284 575.7 541.304 575.7 540.324C576.68 539.344 577.66 537.394 577.66 535.434L581.57 520.764C582.55 517.834 582.55 514.894 584.5 511.964V502.184C584.5 500.224 583.52 497.294 583.52 495.344C583.52 493.384 582.54 491.434 581.56 489.474C581.56 487.514 581.56 485.564 580.58 483.604L577.65 477.734C576.67 474.804 575.69 471.864 573.74 468.934C571.78 465.024 569.83 462.094 565.92 459.154L559.08 454.264L557.12 452.304C555.16 451.324 555.16 451.324 554.19 452.304L552.26 454.384ZM135.71 163.974C134.73 162.994 135.71 162.994 135.71 162.994C134.73 161.034 135.71 159.084 136.69 158.104C136.69 157.124 137.67 157.124 138.65 157.124L139.63 158.104C140.61 161.034 139.63 163.974 136.7 164.944H135.72V163.974H135.71ZM140.6 597.144L136.69 600.074H135.71V598.114C136.69 596.154 138.64 596.154 140.6 596.154V597.144ZM143.53 576.604C141.57 578.564 140.6 578.564 139.62 578.564H138.64C137.66 578.564 136.68 577.584 136.68 577.584C136.68 576.604 137.66 575.624 138.64 575.624C139.62 574.644 141.57 574.644 142.55 574.644C143.53 575.634 143.53 576.604 143.53 576.604ZM142.56 587.364C141.58 588.344 139.63 589.324 138.65 589.324C137.67 589.324 136.69 589.324 136.69 588.344V587.364C137.67 585.404 139.62 584.434 142.56 585.404V587.364V587.364ZM143.53 567.804C142.55 569.764 140.6 570.734 138.64 569.764C137.66 569.764 137.66 568.784 137.66 567.804C136.68 567.804 137.66 566.824 138.64 565.844H140.6C141.58 565.844 142.56 565.844 143.53 566.824V567.804ZM145.49 527.714C145.49 528.694 144.51 530.644 144.51 532.604V537.494C144.51 539.454 143.53 540.424 143.53 542.384V548.254C142.55 549.234 143.53 551.184 142.55 552.164C141.57 554.124 140.59 556.074 140.59 557.054V559.014H139.61C138.63 557.054 139.61 556.084 138.63 554.124C138.63 553.144 139.61 552.164 138.63 551.194V550.214C139.61 548.254 138.63 546.304 138.63 544.344C139.61 542.384 138.63 540.434 139.61 539.454C140.59 538.474 139.61 537.494 139.61 537.494C140.59 535.534 139.61 532.604 140.59 531.624V529.664C140.59 526.734 140.59 524.774 141.57 522.824C142.55 521.844 141.57 520.864 141.57 519.894C141.57 517.934 143.53 515.004 142.55 513.054C142.55 512.074 143.53 512.074 143.53 512.074C143.53 511.094 144.51 511.094 145.49 512.074V527.714ZM145.49 161.044C146.47 160.064 147.45 160.064 148.42 161.044V163.974L146.46 166.904C145.48 166.904 145.48 167.884 144.5 166.904C144.5 166.904 144.5 165.924 143.52 164.944C143.53 162.994 144.51 162.014 145.49 161.044ZM154.29 162.994C156.25 164.954 156.25 164.954 155.27 166.904C155.27 167.884 154.29 168.864 154.29 169.834C153.31 170.814 153.31 170.814 152.33 170.814C152.33 171.794 150.37 170.814 150.37 169.834V168.854C150.37 167.874 150.37 165.924 151.35 164.944C151.35 163.964 152.33 163.964 153.31 162.984H154.29V162.994ZM312.69 263.714C312.69 264.694 312.69 264.694 311.71 264.694C311.71 264.694 310.73 264.694 310.73 265.674C306.82 266.654 303.89 267.634 299.97 269.584L288.24 273.494L280.42 277.404L264.78 283.274L255 288.164L248.16 291.094C245.23 291.094 243.27 293.054 240.34 294.024L233.5 296.954L227.63 299.884C225.67 301.844 222.74 303.794 221.76 307.704C219.8 311.614 216.87 314.544 213.94 318.464C212.96 320.424 211.01 322.374 208.07 323.354C208.07 323.354 207.09 324.334 206.11 324.334C205.13 324.334 204.15 325.314 203.18 326.294H200.25C199.27 327.274 197.32 327.274 196.34 327.274C194.38 327.274 192.43 326.294 190.47 326.294C188.51 326.294 186.56 325.314 184.6 325.314C182.64 324.334 181.67 324.334 179.71 324.334C177.75 324.334 176.78 324.334 174.82 323.354H172.86C170.9 324.334 169.93 324.334 167.97 324.334C165.04 324.334 162.1 325.314 160.15 327.264L159.17 328.244C159.17 329.224 160.15 329.224 160.15 329.224C161.13 330.204 162.11 330.204 162.11 329.224C166.02 328.244 168.95 329.224 172.87 329.224C173.85 330.204 175.8 329.224 176.78 330.204C178.74 330.204 180.69 331.184 182.65 332.164C182.65 333.144 183.63 334.124 183.63 334.124V335.104H181.67C179.71 334.124 177.76 333.144 175.8 333.144C171.89 332.164 167.98 333.144 164.07 332.164C163.09 332.164 163.09 332.164 162.11 333.144C161.13 334.124 159.18 333.144 158.2 332.164C156.24 331.184 155.27 329.234 156.24 327.274C156.24 326.294 156.24 326.294 157.22 325.314C159.18 323.354 161.13 321.404 164.06 320.424C166.99 318.464 170.9 317.494 175.79 319.444H176.77C181.66 319.444 185.57 320.424 189.48 321.404C190.46 322.384 192.41 321.404 194.37 323.364H196.33L203.17 321.404C205.13 319.444 208.06 318.474 210.01 317.494C211.97 315.544 213.92 312.604 214.9 309.674C216.86 303.804 219.79 299.894 224.68 295.984H225.66C230.55 293.054 235.44 291.094 240.33 289.144L246.2 286.214C250.11 285.234 255 283.284 258.91 281.324C262.82 279.364 265.75 277.414 269.67 276.434L280.43 271.544C284.34 270.564 288.25 268.614 292.16 266.654C297.05 265.674 300.96 263.724 304.87 261.764C306.83 261.764 307.8 260.784 309.76 261.764C309.76 262.744 310.74 262.744 311.72 263.724H312.69V263.714ZM158.2 141.484C160.16 142.464 162.11 142.464 163.09 143.444C165.05 144.424 166.02 145.404 167.98 145.404C171.89 146.384 175.8 148.334 178.74 150.294C180.7 150.294 182.65 151.274 184.61 152.254C185.59 152.254 186.57 152.254 186.57 151.274L189.5 145.404C190.48 143.444 189.5 143.444 188.52 142.474L180.7 138.564C176.79 137.584 172.88 135.634 168.97 135.634C167.01 135.634 166.04 136.614 165.06 135.634C162.13 135.634 160.17 137.594 158.22 138.564C157.22 139.524 157.22 140.504 158.2 141.484ZM164.07 167.884C164.07 168.864 165.05 168.864 165.05 169.844L162.12 174.734H161.14C160.16 174.734 160.16 174.734 160.16 173.754V168.864C160.16 168.864 161.14 167.884 162.12 167.884C163.09 166.904 164.07 167.884 164.07 167.884ZM224.69 371.264L220.78 374.194C217.85 376.154 214.91 378.104 212.96 381.034C209.05 384.944 207.09 389.834 205.14 394.724C204.16 395.704 205.14 396.684 205.14 397.654C204.16 400.584 204.16 404.494 204.16 407.434C204.16 408.414 204.16 408.414 203.18 408.414C202.2 408.414 202.2 408.414 202.2 407.434H201.22C201.22 404.504 201.22 404.504 198.29 405.474C193.4 408.404 186.56 412.314 181.67 416.234L175.8 420.144L170.91 424.054V426.984C170.91 426.984 171.89 426.984 171.89 426.004L190.47 418.184C195.36 417.204 200.25 414.274 204.16 413.294L215.89 408.404C216.87 408.404 216.87 407.424 217.85 407.424L218.83 408.404V409.384C217.85 410.364 216.87 411.344 215.9 411.344C214.92 412.324 213.94 412.324 212.97 412.324L205.15 415.254L197.33 419.164L178.75 426.984L170.93 429.914C168.97 431.874 167.02 432.844 164.09 433.824C164.09 433.824 163.11 434.804 162.13 434.804H161.15V432.844L168.97 423.064L180.7 412.304C184.61 409.374 189.5 405.464 194.39 403.504C198.3 401.544 199.28 398.614 201.23 394.704C201.23 392.744 201.23 391.774 202.21 389.814C202.21 388.834 203.19 387.854 203.19 386.884L206.12 383.954C208.08 381.024 209.05 379.064 208.08 376.134V374.174L206.12 370.264C205.14 369.284 204.16 368.304 204.16 366.354L202.2 360.484C201.22 359.504 202.2 357.554 201.22 356.574V355.594C201.22 352.664 200.24 350.704 199.26 348.754L195.35 345.824L188.51 340.934C187.53 339.954 186.55 339.954 186.55 338.974C186.55 337.994 185.57 337.994 186.55 337.994C186.55 337.014 187.53 337.014 187.53 337.014C188.51 337.994 189.49 338.974 190.46 338.974C192.42 340.934 194.37 341.904 196.33 342.884C198.29 343.864 199.26 343.864 200.24 343.864C202.2 343.864 203.17 345.824 203.17 347.774C204.15 347.774 204.15 348.754 204.15 348.754C204.15 350.714 203.17 351.684 204.15 353.644C205.13 354.624 205.13 356.574 205.13 357.554C206.11 359.514 206.11 360.484 206.11 362.444L208.07 366.354C209.05 367.334 210.03 369.284 210.03 370.264L212.96 374.174C213.94 375.154 214.92 375.154 215.89 375.154C215.89 374.174 216.87 374.174 217.85 373.194V371.234C216.87 371.234 216.87 370.254 215.89 369.274L212.96 362.434C211.98 360.474 211 358.524 211 355.594C210.02 351.684 211 348.754 210.02 344.834C210.02 343.854 211 342.874 211 341.904L213.93 332.124L217.84 325.284C217.84 323.324 218.82 321.374 218.82 320.394V318.434C217.84 317.454 217.84 317.454 218.82 316.474C218.82 316.474 219.8 316.474 219.8 318.434C219.8 318.434 220.78 319.414 220.78 320.394L218.82 328.214L215.89 336.034C215.89 337.014 214.91 337.014 214.91 337.994C214.91 339.954 213.93 341.904 213.93 343.864V351.684C215.89 353.644 214.91 356.574 215.89 358.524C215.89 360.484 216.87 362.434 217.85 363.414C217.85 365.374 218.83 367.324 220.78 368.304C222.74 368.304 222.74 369.284 224.69 370.264V371.264V371.264ZM180.69 515.984C180.69 514.024 180.69 514.024 178.73 514.024C177.75 515.004 175.8 514.024 174.82 515.984C172.86 515.984 171.89 516.964 169.93 516.964C168.95 516.964 167 516.964 165.04 517.944H163.08L162.1 516.964V515.004C162.1 515.004 163.08 514.024 164.06 514.024C166.02 513.044 167.97 512.064 170.9 512.064C172.86 512.064 174.81 511.084 177.74 511.084C178.72 510.104 178.72 511.084 179.7 511.084H180.68V510.104C179.7 508.144 178.72 507.174 175.79 506.194C174.81 505.214 172.86 505.214 170.9 504.234C170.9 504.234 169.92 504.234 169.92 505.214H165.03V503.254C166.99 502.274 169.92 500.324 172.85 501.294C174.81 501.294 176.76 501.294 178.72 502.274C179.7 502.274 180.68 503.254 181.65 504.234C185.56 510.104 187.52 514.994 183.61 521.834C181.65 524.764 178.72 526.724 175.79 527.704C174.81 528.684 173.83 527.704 172.86 527.704C168.95 528.684 166.02 526.724 164.06 524.774C163.08 523.794 162.1 522.814 163.08 520.864H164.06C165.04 523.794 167.97 523.794 170.9 523.794C172.86 523.794 175.79 522.814 177.74 520.864C179.71 519.894 180.69 517.944 180.69 515.984ZM173.85 174.724L171.89 178.634C170.91 178.634 170.91 179.614 169.93 179.614C169.93 178.634 168.95 177.654 168.95 176.684C168.95 175.704 169.93 174.724 169.93 172.774C170.91 172.774 171.89 171.794 172.86 171.794C172.87 172.774 173.85 173.754 173.85 174.724ZM180.69 175.704C180.69 175.704 181.67 175.704 181.67 176.684C181.67 178.644 179.71 181.574 177.76 182.554C177.76 182.554 176.78 182.554 176.78 181.574V180.594C176.78 178.634 176.78 176.684 178.74 175.704C179.71 175.704 179.71 174.724 180.69 175.704ZM189.49 182.554C188.51 183.534 188.51 184.514 187.53 184.514C187.53 185.494 185.57 185.494 185.57 185.494C184.59 185.494 184.59 184.514 184.59 183.534C184.59 182.554 185.57 181.574 185.57 180.604L186.55 179.624C187.53 179.624 188.51 179.624 189.48 180.604V182.554H189.49ZM193.4 186.464C193.4 184.504 193.4 183.534 195.36 182.554C196.34 181.574 197.32 181.574 197.32 182.554C197.32 183.534 198.3 183.534 198.3 183.534C198.3 186.464 197.32 187.444 195.37 188.424C195.37 189.404 194.39 189.404 194.39 189.404C193.41 189.404 193.41 188.424 193.41 187.444V186.464H193.4ZM388.96 305.754C388.96 306.734 388.96 306.734 387.98 306.734L380.16 310.644C379.18 310.644 377.23 311.624 377.23 313.574C377.23 315.534 376.25 316.504 376.25 318.464L375.27 319.444V326.284C374.29 328.244 375.27 330.194 374.29 333.124C374.29 334.104 375.27 336.054 375.27 337.034C375.27 338.994 375.27 339.964 376.25 341.924C377.23 344.854 378.21 352.684 377.23 355.614V356.594C376.25 359.524 375.27 362.464 372.34 365.394C370.38 367.354 368.43 370.284 365.5 371.264C364.52 371.264 364.52 371.264 363.54 372.244C362.56 372.244 361.58 374.204 362.56 375.174C363.54 376.154 363.54 377.134 363.54 378.104C362.56 381.034 361.58 382.994 359.63 383.974C356.7 384.954 353.76 385.934 350.83 387.884L342.03 391.794C339.1 393.754 337.14 395.704 336.16 399.614C334.2 403.524 336.16 406.454 337.14 410.374C337.14 412.334 338.12 415.264 340.07 417.214C341.05 419.174 340.07 421.124 341.05 422.104C342.03 425.034 341.05 427.974 341.05 430.904V434.814L339.09 440.684L333.22 452.414C330.29 455.344 328.33 458.284 325.4 460.234C321.49 463.164 317.58 466.104 312.69 468.054C309.76 470.014 305.85 470.984 300.96 472.944C299 472.944 297.05 473.924 294.12 473.924C293.14 473.924 291.19 474.904 290.21 474.904H286.3C284.34 474.904 283.37 473.924 281.41 473.924C278.48 472.944 274.57 471.964 271.63 470.014L259.9 461.214C255.99 459.254 253.06 457.304 249.14 457.304C246.21 456.324 244.25 456.324 241.32 456.324C238.39 456.324 237.41 454.364 235.45 452.414C234.47 452.414 234.47 451.434 233.49 450.454C232.51 454.364 228.6 454.364 227.62 456.324C222.73 459.254 218.82 464.144 215.89 469.034C213.93 470.994 212.96 473.924 211.98 475.874L209.05 483.694C209.05 484.674 208.07 486.624 208.07 487.604C207.09 488.584 207.09 489.564 207.09 491.514C206.11 492.494 207.09 494.444 206.11 495.424C206.11 497.384 205.13 498.354 205.13 500.314V505.204C204.15 506.184 204.15 507.164 205.13 508.134L207.09 517.914C208.07 520.844 209.05 523.784 209.05 526.714C210.03 528.674 211.01 530.624 211.01 532.584L212.97 538.454V542.364H211.99C210.03 541.384 209.06 540.404 208.08 538.454C205.15 533.564 203.19 527.694 201.24 522.804C200.26 519.874 199.28 515.964 199.28 513.024C196.35 501.294 197.32 505.204 197.32 492.494V479.784C198.3 477.824 198.3 473.914 199.28 470.984C200.26 470.004 200.26 468.054 201.24 466.094C202.22 463.164 204.17 460.224 206.13 457.294C207.11 455.334 209.06 453.384 211.02 452.404C213.95 449.474 217.86 446.534 221.78 444.584C225.69 443.604 229.6 442.624 231.56 446.544H232.54C232.54 445.564 232.54 445.564 233.52 444.584C233.52 441.654 233.52 440.674 232.54 438.714L227.65 428.934C225.69 424.044 224.72 418.174 221.78 413.294C221.78 412.314 221.78 410.364 220.8 409.384L221.78 408.404H222.76L225.69 412.314L231.56 426.004C232.54 429.914 233.52 429.914 236.45 427.964C240.36 425.034 245.25 424.054 250.14 422.094C250.14 421.114 251.12 421.114 252.1 421.114C258.94 417.204 265.79 414.274 272.63 411.334L296.1 400.574L304.9 396.664C311.74 392.754 318.59 389.824 326.41 386.884L337.17 381.014L350.86 375.144H351.84V376.124L349.88 378.084C344.99 380.034 340.1 382.974 334.24 384.924C333.26 385.904 331.31 386.884 330.33 386.884L313.71 395.684L300.02 401.554L292.2 404.484C286.33 408.394 280.47 411.324 274.6 414.264L257.98 421.104L250.16 425.014C245.27 427.944 240.38 429.904 235.49 431.854C234.51 432.834 234.51 432.834 234.51 433.814L236.47 437.724C237.45 440.654 239.4 442.614 238.43 445.544C238.43 446.524 239.41 446.524 240.39 446.524L247.23 444.564L260.92 438.694C261.9 437.714 262.88 437.714 263.85 437.714V438.694L260.92 441.624C257.99 443.584 255.05 445.534 252.12 446.514L244.3 450.424H243.32L244.3 451.404C248.21 450.424 250.17 452.384 254.08 452.384C254.08 452.384 255.06 453.364 256.04 453.364C258.97 454.344 261.91 456.294 264.84 458.254C264.84 458.254 265.82 458.254 265.82 459.234C268.75 462.164 272.66 464.124 276.58 467.054C278.54 468.034 281.47 469.014 284.4 469.014C284.4 469.014 285.38 469.014 286.36 469.994H289.29C290.27 469.994 290.27 470.974 291.25 469.994C293.21 469.014 296.14 469.994 298.09 469.014L304.93 467.054L310.8 464.124C315.69 462.164 320.58 459.234 324.49 455.324C328.4 452.394 331.33 448.484 333.29 443.594C334.27 441.634 335.25 438.704 335.25 435.774C336.23 433.814 337.21 431.864 337.21 429.904C337.21 428.924 338.19 428.924 337.21 427.944C336.23 425.984 337.21 423.054 335.25 421.104L333.29 412.304C332.31 411.324 331.33 409.374 332.31 407.414V398.614C333.29 397.634 333.29 396.654 333.29 396.654C333.29 395.674 332.31 395.674 332.31 395.674C328.4 396.654 325.47 398.604 322.53 399.584H320.57C320.57 399.584 320.57 398.604 321.55 398.604C322.53 398.604 322.53 398.604 322.53 397.624L336.22 389.804C340.13 386.874 345.02 385.894 349.91 382.964C351.87 382.964 353.82 381.004 355.78 380.034C356.76 380.034 356.76 379.054 357.74 379.054C358.72 378.074 358.72 377.094 358.72 376.124V374.164C358.72 372.204 359.7 371.234 359.7 369.274C359.7 368.294 360.68 368.294 361.66 368.294L364.59 366.334L369.48 363.404C371.44 361.444 372.41 359.494 373.39 356.564C373.39 353.634 374.37 350.694 373.39 346.784C372.41 344.824 371.43 342.874 371.43 339.944C370.45 337.014 371.43 335.054 370.45 333.104C370.45 330.174 369.47 328.214 370.45 325.284V320.394L373.38 314.524C374.36 313.544 374.36 311.594 373.38 309.634L370.45 304.744C370.45 302.784 370.45 301.814 369.47 301.814C369.47 300.834 368.49 299.854 368.49 298.884C369.47 297.904 368.49 296.924 367.51 294.974C366.53 292.044 364.58 289.104 363.6 285.194V284.214H364.58C365.56 284.214 365.56 285.194 366.54 285.194C366.54 285.194 367.52 286.174 367.52 287.154L370.45 292.044C370.45 293.024 370.45 294.974 372.41 295.954L380.23 292.044C383.16 291.064 385.12 292.044 386.1 294.004V294.984L383.17 296.944L375.35 299.874C374.37 299.874 374.37 299.874 373.39 300.854L375.35 304.764C376.33 306.724 376.33 306.724 378.28 305.744L384.15 302.814C384.15 302.814 385.13 302.814 385.13 301.834C387.09 301.834 388.06 301.834 388.06 302.814C388.96 303.804 388.96 304.774 388.96 305.754ZM205.14 186.464C205.14 187.444 206.12 188.424 205.14 189.394C205.14 190.374 205.14 191.354 204.16 191.354C204.16 192.334 203.18 193.314 202.2 193.314C201.22 194.294 201.22 192.334 201.22 190.384C200.24 189.404 201.22 187.454 202.2 186.474C202.2 186.474 203.18 185.494 204.16 185.494L205.14 186.464ZM208.07 191.354L211 188.424C211.98 188.424 211.98 189.404 212.96 190.384V191.364L211 195.274C211 196.254 210.02 196.254 209.04 196.254C209.04 196.254 208.06 195.274 208.06 194.294V191.354H208.07ZM209.05 558.034L216.87 554.124H217.85C218.83 553.144 220.78 554.124 220.78 555.104C220.78 556.084 219.8 556.084 218.82 557.064C216.86 558.044 213.93 559.024 211.98 559.024H209.05V558.034ZM218.82 560.964H220.78C221.76 560.964 222.74 559.984 223.71 559.984C225.67 559.004 226.64 560.964 226.64 560.964C227.62 561.944 227.62 561.944 227.62 562.924C226.64 563.904 225.66 564.884 224.69 564.884C221.76 565.864 219.8 567.814 217.85 567.814C215.89 568.794 214.92 567.814 212.96 567.814H211C210.02 567.814 210.02 566.834 209.04 566.834C209.04 565.854 210.02 565.854 210.02 565.854C212.96 563.894 215.89 561.944 218.82 560.964ZM210.02 551.184C210.02 551.184 210.02 550.204 211 550.204C211.98 548.244 213.93 547.274 215.89 547.274C215.89 547.274 216.87 547.274 216.87 548.254V549.234C216.87 549.234 215.89 549.234 215.89 550.214C213.93 550.214 212.96 551.194 211.98 552.174C211 552.164 211 551.184 210.02 551.184ZM214.91 199.174V195.264C215.89 193.304 216.87 192.334 217.84 192.334H218.82V195.264C218.82 196.244 217.84 198.194 216.86 199.174C216.86 199.174 215.88 200.154 215.88 199.174H214.91ZM217.85 389.844H219.81C220.79 389.844 220.79 390.824 220.79 391.804C219.81 391.804 219.81 391.804 218.83 392.784L217.85 391.804V389.844ZM224.69 363.444C221.76 361.484 220.78 357.574 219.8 354.644C219.8 351.714 218.82 349.754 218.82 347.804C218.82 346.824 218.82 344.874 219.8 343.894L220.78 342.914L221.76 343.894C221.76 345.854 222.74 347.804 222.74 349.764C222.74 350.744 223.72 351.724 224.7 351.724C225.68 351.724 225.68 352.704 226.66 351.724C231.55 350.744 233.5 352.704 235.46 356.614C236.44 357.594 237.42 359.544 237.42 360.524C238.4 361.504 239.38 362.484 240.35 362.484C242.31 363.464 244.26 363.464 246.22 362.484C248.18 361.504 249.15 361.504 251.11 361.504C252.09 361.504 253.07 361.504 254.04 362.484C254.04 364.444 255.02 364.444 255.02 366.394C255.02 367.374 255.02 367.374 256 368.354C256 368.354 256 370.314 255.02 370.314H254.04C252.08 370.314 251.11 371.294 250.13 371.294H245.24C238.4 372.274 233.51 370.314 227.64 368.364C226.66 368.364 226.66 367.384 225.68 367.384C224.7 367.384 224.7 366.404 225.68 365.424C225.67 364.424 225.67 364.424 224.69 363.444ZM224.69 195.264L225.67 196.244C224.69 198.204 224.69 200.154 222.74 201.134H221.76C220.78 201.134 220.78 201.134 220.78 200.154V199.174C220.78 197.214 221.76 196.244 222.74 195.264H224.69ZM239.36 383.984L238.38 384.964C237.4 384.964 237.4 384.964 237.4 383.984C237.4 383.984 236.42 383.984 237.4 383.004C237.4 382.024 236.42 381.044 235.44 380.074L227.62 374.204C226.64 374.204 226.64 374.204 226.64 373.224L227.62 372.244C229.58 374.204 231.53 375.174 234.46 376.154C238.37 379.084 243.26 380.064 247.17 381.044H257.93C259.89 381.044 260.86 382.024 262.82 383.004C262.82 383.984 262.82 384.964 263.8 384.964C263.8 385.944 264.78 385.944 264.78 385.944H266.74C267.72 384.964 268.7 383.984 267.72 383.014L264.79 375.194L261.86 370.304C260.88 366.394 259.9 363.464 257.95 360.524C256.97 356.614 255.99 352.704 254.04 349.764C254.04 347.804 253.06 346.834 252.08 344.874L250.12 340.964L244.25 325.324C243.27 320.434 241.32 316.524 239.36 311.634C238.38 310.654 238.38 309.674 238.38 307.724H239.36C241.32 308.704 242.29 309.684 242.29 311.634L249.13 328.254L255.97 345.854C257.93 350.744 260.86 355.634 261.84 360.524C261.84 361.504 262.82 362.484 262.82 363.454C265.75 369.324 268.69 374.214 270.64 380.074C270.64 381.054 271.62 382.034 271.62 383.984C272.6 384.964 271.62 386.914 270.64 387.894L266.73 389.854C265.75 389.854 263.8 390.834 262.82 390.834L260.86 387.904C260.86 386.924 259.88 386.924 259.88 385.944C259.88 384.964 258.9 384.964 257.92 384.964H250.1C247.17 384.964 244.23 383.984 241.3 383.004C240.34 383.004 240.34 383.004 239.36 383.984ZM235.45 213.844C236.43 214.824 237.41 215.804 236.43 217.754C235.45 217.754 236.43 219.714 234.47 219.714C234.47 220.694 233.49 220.694 233.49 219.714C232.51 218.734 232.51 216.784 232.51 216.784C232.51 213.854 232.51 212.874 234.47 212.874C234.47 212.864 235.45 212.864 235.45 213.844ZM239.36 399.624V401.584C239.36 402.564 238.38 402.564 237.4 403.544C237.4 404.524 235.44 404.524 235.44 403.544C233.48 402.564 232.51 401.584 232.51 399.634C233.49 397.674 235.44 395.724 237.4 396.704C238.38 397.674 239.36 398.644 239.36 399.624ZM421.23 271.534H418.3C417.32 271.534 416.34 271.534 414.39 270.554C410.48 267.624 404.61 266.644 399.72 264.684L395.81 262.724C390.92 259.794 385.05 258.814 380.17 256.854L373.33 253.924L364.53 250.994C358.66 249.034 352.8 247.084 346.93 244.154L337.15 240.244C335.19 240.244 332.26 239.264 330.31 238.284C326.4 235.354 321.51 233.394 316.62 231.444C315.64 231.444 313.69 230.464 312.71 229.484C307.82 227.524 303.91 225.574 298.04 224.594L286.31 218.724C284.35 217.744 281.42 217.744 280.44 216.764C276.53 215.784 272.62 214.804 268.71 212.854C266.75 210.894 263.82 210.894 260.89 209.924C258.93 208.944 256 207.964 254.05 206.014C250.14 204.054 246.23 202.104 242.32 199.174C241.34 199.174 240.36 199.174 240.36 198.194C239.38 198.194 239.38 198.194 239.38 197.214H241.34L247.21 199.174H248.19L253.08 202.104C256.99 204.064 261.88 205.034 265.79 206.014L272.63 208.944C276.54 210.904 280.45 211.874 283.39 212.854C286.32 212.854 288.28 214.814 291.21 215.784C295.12 217.744 300.01 219.694 305.88 220.674L313.7 224.584L321.52 227.514L330.32 231.424C331.3 231.424 332.28 232.404 333.25 232.404C335.21 234.364 337.16 235.334 340.09 235.334L346.93 238.264C348.89 238.264 351.82 240.224 353.77 241.194L364.53 245.104C368.44 246.084 371.37 247.064 374.31 249.014L388.98 253.904C389.96 253.904 391.91 254.884 392.89 255.864C398.76 258.794 404.62 260.754 410.49 262.704C413.42 263.684 416.36 265.634 419.29 267.594L421.25 269.554V271.534H421.23ZM240.34 218.734C241.32 217.754 242.3 216.774 243.27 216.774C244.24 216.774 245.23 217.754 245.23 218.734C245.23 220.694 245.23 221.664 244.25 222.644C243.27 222.644 243.27 223.624 242.29 223.624C241.31 222.644 240.33 222.644 240.33 221.664V218.734H240.34ZM321.49 276.424C320.51 276.424 318.56 277.404 318.56 278.384C318.56 279.364 319.54 280.344 319.54 281.314C319.54 282.294 320.52 282.294 320.52 283.274L327.36 299.894C328.34 300.874 328.34 301.854 328.34 302.824L335.18 318.464L342.02 336.064L347.89 349.754C347.89 350.734 347.89 351.714 346.91 351.714C346.91 351.714 346.91 352.694 345.93 351.714C344.95 351.714 343.97 350.734 343.97 348.784C343.97 347.804 343.97 347.804 342.99 346.824C342.99 345.844 342.01 345.844 342.01 345.844C336.14 348.774 330.28 350.734 324.41 352.684C321.48 353.664 318.54 354.644 315.61 356.594C311.7 357.574 308.77 359.524 304.85 361.484C303.87 361.484 302.89 362.464 302.89 364.414C302.89 365.394 303.87 365.394 304.85 366.374V367.354C303.87 367.354 303.87 368.334 303.87 367.354C301.91 367.354 298.98 364.424 299.96 362.464C299.96 360.504 299.96 359.534 301.92 358.554L313.65 352.684C315.61 352.684 316.58 351.704 318.54 350.724C319.52 349.744 321.47 349.744 323.43 348.764L338.1 342.894C338.1 341.914 339.08 341.914 339.08 341.914C340.06 341.914 341.04 340.934 340.06 339.954C340.06 338.974 340.06 338.974 339.08 338.974C336.15 341.904 331.26 341.904 328.32 343.864C324.41 344.844 320.5 346.794 316.59 348.754C315.61 348.754 313.66 349.734 311.7 350.714C307.79 351.694 303.88 353.644 298.99 355.604L296.06 357.564L288.24 360.494C286.28 360.494 285.31 360.494 284.33 361.474L275.53 366.364C273.57 367.344 270.64 367.344 268.69 367.344C267.71 367.344 266.73 366.364 266.73 364.414C266.73 362.464 265.75 359.524 264.77 357.574C263.79 356.594 263.79 355.614 263.79 354.644C263.79 352.684 263.79 351.714 264.77 351.714C265.75 351.714 265.75 352.694 266.73 353.674C266.73 355.634 268.69 357.584 269.66 359.544C269.66 360.524 269.66 360.524 270.64 360.524C270.64 361.504 271.62 360.524 271.62 360.524C272.6 359.544 273.58 358.564 272.6 357.594C271.62 356.614 271.62 354.664 270.64 352.704C269.66 351.724 269.66 350.744 269.66 348.794H270.64C273.57 349.774 273.57 352.704 274.55 354.664C275.53 355.644 275.53 356.624 275.53 357.594C276.51 358.574 277.49 358.574 278.46 358.574C278.46 357.594 279.44 357.594 279.44 356.614C280.42 356.614 279.44 355.634 279.44 355.634C278.46 353.674 277.48 351.724 277.48 349.764C276.5 348.784 276.5 346.834 276.5 345.854L277.48 344.874H278.46C279.44 345.854 280.42 346.834 280.42 347.804C282.38 350.734 282.38 352.694 283.35 354.644C284.32 356.594 285.31 358.554 286.28 358.554C288.24 357.574 289.21 356.594 289.21 354.644C289.21 354.644 289.21 353.664 290.19 353.664C290.19 352.684 291.17 352.684 292.15 351.704C293.13 351.704 293.13 350.724 293.13 349.744C292.15 347.784 291.17 345.834 291.17 343.874C290.19 342.894 290.19 341.914 290.19 340.944V339.964C291.17 339.964 291.17 339.964 292.15 340.944C294.11 341.924 295.08 344.854 296.06 346.814V348.774C297.04 349.754 297.04 349.754 298.02 349.754L299 348.774V347.794L296.07 339.974V338.014C297.05 337.034 297.05 337.034 297.05 338.014C298.03 338.014 299.01 338.994 299.98 339.974C299.98 341.934 300.96 343.884 301.94 345.844C301.94 346.824 302.92 346.824 303.9 346.824C304.88 345.844 304.88 345.844 304.88 344.864L301.95 338.024C300.97 337.044 300.97 337.044 301.95 337.044V336.064C301.95 335.084 302.93 335.084 302.93 336.064C303.91 336.064 304.89 337.044 304.89 338.024L307.82 342.914C307.82 343.894 308.8 343.894 309.78 343.894V342.914C309.78 339.984 308.8 338.024 307.82 336.074C307.82 336.074 306.84 335.094 306.84 334.114L307.82 333.134C307.82 332.154 308.8 333.134 309.78 333.134L312.71 339.974C312.71 340.954 312.71 340.954 313.69 341.934L314.67 340.954C315.65 340.954 315.65 339.974 315.65 338.994L312.72 332.154V331.174H313.7C315.66 332.154 317.61 333.134 318.59 336.064C318.59 337.044 318.59 337.044 319.57 338.024C319.57 339.004 319.57 339.004 321.53 338.024C322.51 338.024 322.51 338.024 322.51 337.044L319.58 330.204V328.244H320.56C322.52 330.204 323.49 331.174 325.45 335.084C325.45 336.064 325.45 336.064 326.43 336.064C327.41 336.064 328.39 335.084 328.39 334.104C327.41 333.124 327.41 332.144 327.41 331.174C326.43 330.194 326.43 328.244 326.43 326.284H328.39L331.32 332.154L332.3 333.134C333.28 332.154 335.23 333.134 336.21 331.174L333.28 323.354C333.28 322.374 332.3 321.394 330.35 322.374L326.44 324.334C324.48 325.314 322.53 326.294 320.57 326.294C319.59 327.274 317.64 327.274 315.68 328.254L306.88 332.164C304.92 332.164 302.97 334.124 301.01 333.144H300.03V332.154C301.99 330.194 303.94 330.194 305.9 329.224L319.59 323.354C322.52 321.394 326.43 320.424 330.35 318.464C330.35 318.464 331.33 317.484 330.35 317.484C330.35 315.534 329.37 313.574 328.39 311.614C328.39 310.634 327.41 310.634 326.43 311.614C324.47 312.594 323.5 313.574 321.54 313.574C316.65 316.504 311.76 317.484 306.87 320.414L298.07 323.344C296.11 324.324 295.14 324.324 293.18 323.344C292.2 322.364 291.22 323.344 290.25 324.324C289.27 325.304 289.27 326.284 289.27 327.254C289.27 329.214 290.25 330.184 291.23 332.144C293.19 332.144 294.16 333.124 295.14 333.124C297.1 334.104 297.1 334.104 296.12 334.104C296.12 335.084 295.14 335.084 295.14 335.084H294.16C291.23 334.104 287.32 333.124 286.34 329.214C285.36 326.284 285.36 324.324 286.34 322.374L292.21 317.484L307.85 310.644L316.65 307.714C318.61 305.754 321.54 304.784 323.49 303.804C324.47 303.804 324.47 302.824 324.47 302.824L321.54 295.984C321.54 295.004 320.56 294.024 319.58 295.004H317.62L309.8 297.934C306.87 299.894 303.93 299.894 301.98 301.844C296.11 303.804 290.25 305.754 285.36 308.684L276.56 311.614H275.58C271.67 311.614 271.67 311.614 268.74 312.594C267.76 312.594 266.78 313.574 264.83 313.574C263.85 313.574 262.87 314.554 262.87 316.504L261.89 317.484L252.11 321.394H249.18L248.2 320.414H249.18L253.09 317.484L260.91 313.574L264.82 310.644C266.78 310.644 267.75 309.664 268.73 309.664C270.69 307.704 272.64 307.704 273.62 307.704C276.55 308.684 278.51 307.704 280.46 306.724L300.99 297.924C305.88 294.994 311.75 293.034 317.61 291.084C318.59 291.084 318.59 290.104 319.57 290.104C318.59 290.104 318.59 290.104 318.59 289.124C317.61 288.144 317.61 288.144 316.63 288.144C315.65 288.144 315.65 288.144 314.67 289.124C312.71 289.124 310.76 290.104 308.8 291.084L297.07 295.974L287.29 299.884L280.45 301.844H279.47C276.54 301.844 274.58 300.864 273.6 298.914V297.934C274.58 296.954 274.58 296.954 275.56 297.934C276.54 298.914 277.52 298.914 279.47 297.934C281.43 297.934 285.34 297.934 287.29 295.974L300 291.084C303.91 289.124 307.82 288.154 310.76 286.194H313.69C314.67 286.194 315.65 286.194 316.62 285.214V283.254C316.62 282.274 315.64 280.324 314.66 279.344C312.7 278.364 311.73 280.324 310.75 280.324C309.77 280.324 308.79 281.304 307.82 281.304C303.91 284.234 300 285.214 295.11 287.174L287.29 290.104C284.36 291.084 281.42 293.034 277.51 294.014L267.73 297.924C265.77 297.924 263.82 299.884 261.86 299.884C259.9 300.864 257.95 301.844 255.99 301.844L250.12 304.774C248.16 305.754 246.21 306.734 243.28 305.754V304.774C245.24 302.814 248.17 301.844 250.12 300.864L259.9 296.954L269.68 292.064C273.59 291.084 276.52 290.104 280.44 288.154C288.26 284.244 297.06 281.314 305.86 278.374L314.66 275.444C316.62 274.464 319.55 273.484 321.5 273.484L322.48 274.464V275.444L321.49 276.424ZM254.03 222.644C254.03 224.604 254.03 224.604 253.05 225.574C252.07 226.554 250.12 226.554 249.14 224.594V222.634C249.14 221.654 250.12 220.674 251.1 220.674C252.08 219.694 254.03 219.694 254.03 221.654V222.644ZM260.87 238.284C259.89 238.284 259.89 237.304 259.89 237.304L252.07 234.374C252.07 233.394 251.09 234.374 251.09 235.354C251.09 236.334 251.09 237.314 250.11 238.284C250.11 239.264 250.11 241.214 249.13 242.194C249.13 243.174 249.13 244.154 251.09 244.154L255 246.114C255.98 246.114 256.96 246.114 256.96 245.134C257.94 243.174 259.89 241.224 259.89 239.264C259.89 239.264 259.89 238.284 260.87 238.284ZM262.83 225.574V227.534C261.85 228.514 261.85 229.494 259.9 229.494C258.92 229.494 257.94 228.514 257.94 227.534V224.604C257.94 223.624 259.9 223.624 260.87 223.624C261.84 223.624 261.85 224.594 262.83 225.574ZM268.69 436.784C268.69 438.744 269.67 439.714 268.69 441.674C268.69 445.584 270.65 448.514 272.6 451.454C273.58 453.414 275.53 456.344 277.49 457.324C279.45 459.284 282.38 461.234 285.31 462.214C286.29 462.214 286.29 463.194 286.29 463.194C292.16 463.194 297.05 463.194 302.91 460.264L309.75 456.354L314.64 453.424C318.55 452.444 321.48 449.514 323.44 445.604L326.37 442.674C328.33 439.744 328.33 436.804 329.3 433.874V428.004C329.3 424.094 328.32 421.164 325.39 418.224C324.41 416.264 321.48 415.294 319.52 413.334C317.56 413.334 316.59 412.354 314.63 412.354H304.85C299.96 412.354 295.07 414.314 291.16 418.224L289.2 420.184C288.22 422.144 287.24 424.094 287.24 426.054C287.24 428.984 288.22 430.944 288.22 432.894L291.15 438.764L297.02 446.584C298 447.564 298 448.544 298.98 448.544C299.96 450.504 298.98 452.454 298 453.434H297.02C292.13 457.344 291.15 457.344 287.24 453.434C285.28 450.504 283.33 448.544 282.35 445.614L274.53 432.904C273.55 430.944 272.57 430.944 271.6 431.924C271.6 432.904 270.62 433.884 269.64 434.854H268.66V429.964L270.62 427.034C271.6 425.074 272.58 424.104 274.53 423.124L279.42 419.214C280.4 419.214 281.38 418.234 281.38 418.234L306.8 405.524C308.76 404.544 311.69 404.544 313.64 402.594C314.62 402.594 314.62 401.614 315.6 401.614L316.58 402.594C315.6 404.554 314.62 404.554 312.67 405.524C311.69 405.524 310.71 406.504 309.74 407.484C311.7 407.484 314.63 408.464 316.58 408.464C317.56 408.464 317.56 408.464 318.54 409.444C322.45 410.424 326.36 413.354 329.3 417.264L332.23 423.134C332.23 424.114 332.23 425.094 333.21 427.044V432.914L332.23 433.894C332.23 435.854 331.25 438.784 330.27 440.734C330.27 441.714 329.29 443.664 328.31 444.644C326.35 448.554 323.42 451.484 319.51 453.444L310.71 459.314C307.78 460.294 304.84 461.274 302.89 463.224C299.96 464.204 298 465.184 294.09 465.184H290.18C286.27 466.164 282.36 464.204 278.45 462.254L271.61 457.364C268.68 454.434 267.7 451.494 266.72 447.584C265.74 445.624 265.74 443.674 266.72 440.744C266.72 440.744 266.72 439.764 267.7 438.784V436.824H268.69V436.784ZM271.63 231.444C271.63 230.464 270.65 231.444 270.65 231.444C270.65 232.424 270.65 233.404 269.67 233.404C268.69 233.404 267.71 232.424 267.71 231.444V229.484C267.71 228.504 269.67 227.524 269.67 227.524C269.67 227.524 270.65 228.504 270.65 229.484C271.63 229.484 271.63 229.484 271.63 231.444ZM269.67 402.554V400.594C269.67 399.614 270.65 398.634 271.63 398.634C272.61 397.654 273.59 397.654 275.54 398.634C275.54 399.614 276.52 399.614 276.52 400.594V402.554C276.52 403.534 274.56 404.514 272.61 404.514C271.63 404.514 269.67 403.534 269.67 402.554ZM278.47 231.444C279.45 230.464 280.43 231.444 280.43 232.424V235.354C280.43 236.334 279.45 237.314 278.47 237.314C277.49 237.314 276.51 235.354 276.51 234.384V232.424L278.47 231.444ZM347.9 355.624C347.9 356.604 347.9 357.584 346.92 358.554L335.19 363.444L325.41 367.354C320.52 369.314 316.61 371.264 311.72 372.244C309.76 373.224 306.83 374.204 304.88 376.154L291.19 381.044C287.28 382.024 283.37 383.974 279.46 385.934C278.48 385.934 277.5 385.934 277.5 384.954C276.52 383.974 276.52 383.974 276.52 382.994C277.5 382.014 278.48 381.034 280.43 381.034L291.19 377.124H292.17C296.08 374.194 300.97 373.214 305.86 371.254L322.48 365.384C327.37 362.454 333.24 360.494 339.1 358.544C342.03 357.564 344.97 356.584 346.92 354.634C346.92 353.664 347.9 354.644 347.9 355.624ZM286.29 438.734L283.36 428.954C283.36 426.994 283.36 425.044 284.34 423.084C284.34 422.104 285.32 422.104 285.32 421.124V420.154H284.34L277.5 425.044C277.5 426.024 276.52 426.024 277.5 427.004C279.46 428.964 280.43 430.914 281.41 432.874C281.41 434.834 283.37 436.784 283.37 439.714L286.3 445.584L292.17 452.424H294.13C295.11 452.424 295.11 451.444 294.13 451.444L286.29 438.734ZM290.2 235.354C291.18 236.334 291.18 237.314 290.2 238.284C290.2 239.264 289.22 240.244 288.24 240.244H287.26C287.26 239.264 286.28 238.284 286.28 238.284C286.28 237.304 286.28 235.354 287.26 235.354C288.25 234.374 289.23 234.374 290.2 235.354ZM299 238.284C299 238.284 299.98 239.264 300.96 239.264C300.96 240.244 301.94 241.224 301.94 242.194C301.94 243.174 301.94 244.154 300.96 244.154C300.96 245.134 299.98 246.114 299 246.114C298.02 246.114 297.04 245.134 297.04 245.134V240.244L299 238.284ZM310.74 243.174C311.72 245.134 310.74 247.084 307.81 248.064C306.83 247.084 306.83 246.104 306.83 246.104V244.154C306.83 243.174 308.79 242.194 309.76 242.194C309.76 242.194 310.74 242.194 310.74 243.174ZM319.54 247.084L321.5 249.044C320.52 251.004 320.52 251.974 318.57 252.954C317.59 252.954 316.61 252.954 316.61 251.974V250.014C316.61 249.034 316.61 248.054 317.59 248.054C318.56 247.084 318.56 247.084 319.54 247.084ZM334.21 290.114C333.23 290.114 332.25 291.094 333.23 292.074L336.16 300.874L337.14 301.854C337.14 302.834 339.1 303.814 340.07 302.834C343 300.874 345.94 299.904 349.85 298.924L357.67 295.994C358.65 295.014 360.6 295.994 361.58 295.014C362.56 295.014 363.54 295.014 363.54 295.994C365.5 295.994 365.5 297.954 364.52 298.924L360.61 301.854C357.68 301.854 355.72 303.814 353.77 304.784C351.81 304.784 349.86 305.764 347.9 306.744C345.94 307.724 343.99 308.704 342.03 308.704C340.07 308.704 340.07 309.684 341.05 310.664V311.644C342.03 312.624 342.03 312.624 343.01 311.644C343.99 311.644 345.94 309.684 347.9 309.684C351.81 308.704 354.74 307.724 357.68 305.774C358.66 305.774 359.64 305.774 361.59 304.794C362.57 304.794 363.55 303.814 364.52 303.814C365.5 302.834 366.48 302.834 367.45 304.794C371.36 313.594 373.32 310.664 364.52 315.554C359.63 317.504 354.74 320.444 348.87 321.424C347.89 322.404 346.91 322.404 345.94 322.404C344.97 322.404 344.96 323.384 344.96 323.384C345.94 324.364 345.94 325.344 345.94 325.344L351.81 340.984L354.74 347.824C354.74 348.804 355.72 348.804 355.72 348.804L363.54 345.874C364.52 344.894 366.47 344.894 368.43 344.894V345.874L366.47 347.834L358.65 351.744C357.67 351.744 355.72 350.764 354.74 352.724C353.76 352.724 353.76 351.744 353.76 351.744L351.8 348.814C350.82 343.924 348.87 340.014 346.91 335.124C346.91 334.144 345.93 333.164 345.93 332.194L342.02 324.374L340.06 316.554C340.06 314.594 338.1 312.644 337.13 310.684C337.13 308.724 335.17 306.774 334.2 304.814C333.23 302.854 332.24 301.884 332.24 299.924L326.37 284.274C325.39 282.314 324.41 281.344 324.41 279.384V278.404H326.37C326.37 279.384 326.37 279.384 327.35 280.364L330.28 286.234C330.28 287.214 330.28 286.234 331.26 286.234C333.22 285.254 335.17 284.274 337.13 284.274C340.06 282.314 343.97 280.364 347.89 279.384C348.87 278.404 350.82 278.404 351.8 279.384H352.78V280.364C352.78 280.364 352.78 281.344 351.8 281.344C346.91 284.274 342.02 286.234 337.13 288.184L334.21 290.114ZM330.29 253.934C330.29 253.934 329.31 254.914 329.31 255.894C328.33 256.874 327.35 256.874 326.38 255.894C325.4 253.934 325.4 252.964 326.38 251.004C326.38 250.024 327.36 250.024 328.34 250.024C329.32 250.024 331.27 251.974 330.29 253.934ZM339.1 255.884C340.08 256.864 339.1 259.794 337.14 259.794H336.16V258.814C335.18 257.834 335.18 256.854 335.18 256.854V255.874C335.18 254.894 336.16 253.914 337.14 253.914C338.12 253.914 339.1 254.904 339.1 255.884ZM348.87 261.754C348.87 262.734 347.89 263.714 346.91 264.684C345.93 264.684 345.93 264.684 344.95 263.704C343.97 262.724 343.97 261.744 344.95 260.774V259.794C345.93 258.814 346.91 258.814 346.91 258.814C347.89 258.814 348.87 259.794 348.87 260.774V261.754ZM359.63 263.714C359.63 264.694 358.65 265.674 358.65 266.644C358.65 267.624 357.67 267.624 356.69 268.604C355.71 268.604 354.73 268.604 354.73 267.624V262.734C354.73 261.754 356.69 261.754 356.69 261.754C358.65 261.754 358.65 262.734 359.63 263.714ZM358.65 322.374C360.61 320.414 362.56 319.444 364.52 320.414C365.5 320.414 366.48 322.374 366.48 323.344C366.48 324.324 366.48 325.304 365.5 325.304C365.5 326.284 364.52 327.264 363.54 328.234C361.58 328.234 360.61 327.254 359.63 326.274C358.65 326.274 358.65 325.294 358.65 324.314V322.374V322.374ZM366.47 265.664H367.45C368.43 265.664 369.41 266.644 368.43 267.624C368.43 269.584 368.43 270.554 366.47 271.534H365.49C364.51 271.534 364.51 270.554 364.51 270.554C363.54 267.624 365.5 266.644 366.47 265.664ZM377.23 270.554C378.21 271.534 377.23 274.464 375.27 275.444H374.29C374.29 275.444 373.31 275.444 373.31 274.464V272.504C373.31 272.504 373.31 271.524 374.29 270.544C374.29 269.564 375.27 268.584 375.27 269.564C376.25 269.574 376.25 269.574 377.23 270.554ZM387.01 273.484C387.01 276.414 387.01 277.394 385.05 279.354H384.07C384.07 279.354 383.09 279.354 383.09 278.374V274.464C383.09 272.504 383.09 272.504 385.05 272.504C386.03 272.514 387.01 272.514 387.01 273.484ZM390.92 278.374C390.92 277.394 391.9 276.414 392.88 276.414C393.86 276.414 394.84 277.394 394.84 277.394C394.84 278.374 395.82 278.374 394.84 279.354C394.84 280.334 393.86 281.314 391.91 282.284C390.93 282.284 390.93 282.284 390.93 281.304V278.374H390.92ZM415.36 301.844C416.34 300.864 416.34 299.884 415.36 299.884C409.49 296.954 403.63 295.974 397.76 293.044H395.8C394.82 293.044 394.82 293.044 394.82 294.024C394.82 296.954 395.8 298.914 398.73 299.894L405.57 302.824L411.44 305.754H412.42C413.4 306.734 414.38 305.754 414.38 305.754C414.39 303.804 415.36 302.824 415.36 301.844ZM403.63 281.314C403.63 283.274 403.63 284.244 402.65 284.244C402.65 285.224 401.67 286.204 400.69 286.204C399.71 285.224 400.69 284.244 399.71 284.244C398.73 282.284 399.71 281.314 400.69 279.354C400.69 278.374 400.69 278.374 401.67 278.374C402.65 278.374 403.63 279.354 403.63 280.334V281.314ZM404.61 242.194L413.41 246.104C414.39 247.084 415.37 247.084 416.34 247.084C416.34 248.064 417.32 248.064 417.32 248.064C420.25 247.084 421.23 245.134 424.16 245.134C428.07 243.174 432.96 242.204 437.85 240.244C440.78 238.284 443.72 237.314 446.65 236.334C450.56 235.354 455.45 233.404 458.38 231.444L465.22 228.514L479.89 222.644C481.85 221.664 483.8 220.684 485.76 220.684C486.74 220.684 486.74 220.684 487.72 219.704C491.63 218.724 495.54 217.744 498.48 215.794L505.32 212.864C509.23 211.884 514.12 210.904 518.03 208.954L524.87 206.024C525.85 205.044 527.8 206.024 529.76 205.044L534.65 202.114C538.56 200.154 543.45 199.184 548.34 197.224H550.3C550.3 197.224 550.3 198.204 549.32 199.184C547.36 199.184 546.39 200.164 545.41 201.144L536.61 205.054C534.65 207.014 532.7 207.984 530.74 208.964L522.92 211.894L517.05 213.854L513.14 215.814L507.27 217.774L496.51 221.684L491.62 224.614C486.73 225.594 482.82 226.574 478.91 229.504L470.11 232.434C467.18 234.394 463.27 235.364 459.35 237.324C457.39 239.284 454.46 240.254 451.53 241.234C446.64 242.214 441.75 244.164 436.86 246.124C433.93 248.084 430.02 250.034 426.1 250.034C426.1 250.034 426.1 251.014 425.12 251.014V251.994L433.92 254.924C434.9 254.924 434.9 255.904 435.88 254.924C435.88 253.944 435.88 252.974 436.86 252.974C436.86 251.994 437.84 251.014 437.84 251.014C441.75 250.034 444.68 250.034 448.6 250.034C449.58 251.014 450.56 251.014 451.53 251.014C452.51 251.014 453.49 251.014 454.46 251.994H457.39C458.37 251.994 458.37 251.994 459.35 251.014L460.33 250.034C461.31 249.054 463.26 250.034 464.24 251.994V252.974C464.24 253.954 464.24 254.924 465.22 254.924C466.2 254.924 467.18 255.904 469.13 255.904C469.13 256.884 470.11 256.884 470.11 255.904L480.87 251.994L492.6 247.104L514.11 238.304L533.67 231.464L548.34 225.594L560.07 220.704C561.05 220.704 561.05 219.724 562.03 218.744C563.01 217.764 563.01 217.764 562.03 215.814V213.854C561.05 208.964 559.1 204.074 557.14 199.184C556.16 199.184 556.16 198.204 555.18 198.204V195.274C555.18 195.274 555.18 194.294 556.16 194.294H557.14C559.1 195.274 561.05 197.224 562.03 199.184L564.96 205.054C564.96 206.034 566.92 207.014 567.89 206.034C568.87 205.054 570.82 204.074 572.78 204.074C575.71 203.094 578.65 201.144 582.56 200.164C585.49 199.184 588.43 198.204 591.36 196.254L600.16 193.324L604.07 191.364C609.94 189.404 615.8 187.454 621.67 184.524L627.54 181.594C632.43 180.614 636.34 178.664 641.23 176.704C647.1 174.744 651.99 171.814 657.85 168.884C661.76 167.904 660.78 167.904 660.78 163.014C661.76 161.054 659.8 158.124 660.78 155.194L654.91 143.464L652.95 141.504C650.99 140.524 649.04 140.524 647.08 141.504C642.19 143.464 637.3 144.434 633.39 145.414L626.55 147.374C621.66 150.304 615.79 152.264 610.9 154.214L601.12 159.104L585.47 164.974L575.69 168.884L567.87 171.814L558.09 175.724L547.33 180.614L536.57 184.524L528.75 188.434L514.08 194.304L493.55 203.104L476.93 210.924L467.15 214.834C464.22 216.794 461.28 217.764 457.37 218.744L436.84 227.544C433.91 229.504 430 230.474 426.08 231.454C422.17 233.414 418.26 235.364 414.35 236.344C411.42 238.304 408.48 240.254 404.57 241.234V242.194H404.61ZM411.45 284.244V285.224C411.45 287.184 409.49 289.134 408.52 289.134L407.54 288.154C406.56 287.174 406.56 285.224 407.54 284.244C407.54 284.244 407.54 283.264 408.52 283.264C408.52 282.284 409.5 282.284 410.48 282.284C411.45 283.264 411.45 283.264 411.45 284.244ZM418.3 286.204C418.3 287.184 418.3 288.164 417.32 289.134C416.34 290.114 415.36 291.094 414.39 291.094C413.41 292.074 413.41 291.094 413.41 291.094V288.154C413.41 285.224 414.39 285.224 417.32 285.224C417.32 285.224 418.3 285.224 418.3 286.204ZM425.14 345.844L432.96 348.774C433.94 348.774 433.94 348.774 433.94 347.794C435.9 344.864 436.87 342.904 437.85 338.994L443.72 325.304V324.324C443.72 323.344 443.72 322.364 442.74 322.364C437.85 321.384 431.98 318.454 427.09 316.494L421.22 313.564C420.24 313.564 419.26 312.584 419.26 311.604C418.28 311.604 418.28 310.624 418.28 310.624C420.24 308.664 420.24 306.714 422.19 304.754C423.17 302.794 424.15 302.794 425.12 303.774C430.99 306.704 436.85 307.684 441.74 309.644L447.61 312.574C448.59 312.574 448.59 312.574 448.59 311.594V309.634C448.59 309.634 448.59 308.654 447.61 308.654C445.65 308.654 444.68 307.674 442.72 307.674C437.83 304.744 432.94 303.764 429.03 300.834C428.05 300.834 426.1 299.854 425.12 297.904V295.944C426.1 294.964 427.08 294.964 427.08 294.964C430.01 295.944 433.92 295.944 436.86 297.894C438.82 297.894 440.77 298.874 442.73 299.854C445.66 300.834 448.6 301.814 450.55 303.764H451.53C452.51 302.784 453.49 301.804 453.49 300.834L456.42 291.054C457.4 291.054 457.4 290.074 455.44 290.074C449.57 287.144 442.73 285.184 437.84 281.274L433.93 279.314V277.354H434.91C436.87 277.354 437.84 277.354 438.82 278.334C442.73 279.314 446.64 280.294 450.55 282.244L458.37 286.154V287.134L459.35 286.154L462.28 280.284C462.28 280.284 462.28 279.304 463.26 279.304C464.24 277.344 464.24 277.344 465.22 278.324C466.2 279.304 465.22 279.304 465.22 280.284C463.26 283.214 462.29 287.124 461.31 290.064C459.35 294.954 457.4 298.864 456.42 302.774C455.44 304.734 454.46 304.734 454.46 305.704C452.5 309.614 450.55 314.504 449.57 318.414C448.59 322.324 446.64 325.254 445.66 328.194L441.75 336.994L438.82 344.814C438.82 346.774 437.84 347.744 437.84 348.724C436.86 349.704 436.86 350.684 435.88 350.684C435.88 351.664 435.88 351.664 433.92 351.664C430.01 351.664 428.05 349.704 425.12 348.734L421.21 346.774V345.794C421.21 345.794 421.21 344.814 422.19 344.814C423.17 344.814 424.16 344.864 425.14 345.844ZM424.16 326.284C424.16 325.304 423.18 325.304 423.18 324.324V322.364C425.14 320.404 427.09 319.434 429.05 320.404C430.03 320.404 430.03 321.384 431.01 322.364V323.344C431.01 326.274 429.05 328.234 427.1 328.234L424.16 326.284ZM442.74 358.554L440.78 356.594C440.78 355.614 440.78 355.614 441.76 354.634H442.74C445.67 356.594 448.61 357.564 451.54 358.544L458.38 361.474L468.16 365.384C471.09 366.364 474.03 368.314 476.96 368.314C480.87 371.244 485.76 372.224 489.67 373.204C490.65 374.184 491.63 374.184 491.63 374.184L507.28 380.054L512.17 382.014V382.994C512.17 384.954 511.19 385.924 510.21 384.954C508.25 384.954 505.32 383.974 503.37 382.994L491.64 378.104L483.82 375.174L466.22 368.334L452.53 362.464L442.74 358.554ZM516.08 366.384C512.17 365.404 509.24 363.454 506.3 362.474C503.37 361.494 501.41 358.564 497.5 359.544L492.61 356.614L481.85 351.724L466.21 345.854C463.28 343.894 460.34 342.924 457.41 341.944C455.45 341.944 453.5 340.964 451.54 339.014C450.56 338.034 450.56 338.034 449.58 339.014C449.58 339.994 448.6 339.994 448.6 340.974C448.6 340.974 448.6 341.954 449.58 341.954C453.49 342.934 457.4 345.864 462.29 346.844L476.96 352.714L485.76 357.604C485.76 357.604 486.74 357.604 486.74 358.584C489.67 359.564 489.67 362.494 489.67 365.424L488.69 366.404C487.71 366.404 486.73 367.384 485.76 367.384C485.76 367.384 484.78 367.384 483.8 366.404H484.78C484.78 365.424 485.76 365.424 485.76 365.424C486.74 364.444 486.74 363.464 485.76 362.494L481.85 359.564C476.96 356.634 470.12 354.674 464.25 352.724L456.43 349.794C453.5 348.814 450.56 347.834 448.61 345.884C447.63 345.884 446.65 345.884 446.65 346.864C445.67 348.824 444.69 349.794 444.69 350.774C444.69 351.754 443.71 351.754 442.73 352.734V351.754C442.73 350.774 441.75 350.774 441.75 349.794L443.71 345.884L448.6 333.174C449.58 331.214 450.56 327.304 452.51 325.354C454.47 317.534 458.38 311.664 460.33 303.844L463.26 296.024C464.24 295.044 465.22 293.094 465.22 292.114L470.11 282.334V280.374C471.09 279.394 470.11 277.444 469.13 276.464C468.15 276.464 467.17 275.484 467.17 275.484V274.504C468.15 273.524 470.1 273.524 471.08 274.504C474.01 275.484 475.97 275.484 478.9 277.434C479.88 277.434 481.83 277.434 482.81 278.414L490.63 280.374L523.88 294.064C525.84 294.064 526.81 296.024 528.77 296.024L536.59 299.934C539.52 300.914 542.46 301.894 545.39 303.844C545.39 303.844 546.37 303.844 546.37 304.824V305.804H545.39C543.43 306.784 541.48 305.804 539.52 304.824C536.59 303.844 533.65 301.894 530.72 301.894L522.9 297.984C518.99 297.004 516.06 296.024 512.14 294.074L500.41 289.184L489.65 285.274C486.72 284.294 483.78 283.314 481.83 281.364C479.87 281.364 477.92 280.384 475.96 279.404C475.96 279.404 474.98 279.404 474 280.384C474 281.364 474 281.364 473.02 282.344C473.02 283.324 472.04 284.304 473.02 284.304C473.02 285.284 474 286.264 474.98 286.264C478.89 286.264 481.82 288.224 485.74 290.174L495.52 294.084L504.32 297.014C506.28 297.994 508.23 297.014 509.21 297.994C511.17 297.994 512.14 298.974 514.1 297.994C514.1 297.014 515.08 297.014 515.08 297.994H516.06V298.974L512.15 301.904C510.19 301.904 509.22 301.904 507.26 300.924C506.28 299.944 504.33 300.924 502.37 299.944C498.46 298.964 494.55 297.014 490.64 295.054C487.71 294.074 484.77 293.094 481.84 291.144C478.91 290.164 475.97 290.164 474.02 288.214C473.04 287.234 471.09 288.214 471.09 290.174C470.11 290.174 471.09 290.174 471.09 291.154H473.05L480.87 294.084L489.67 297.994L506.29 305.814C508.25 305.814 510.2 306.794 512.16 307.774H515.09C517.05 307.774 519 307.774 519.98 308.754L523.89 310.714C524.87 310.714 526.82 311.694 526.82 312.674L536.6 317.564L540.51 320.494V321.474C540.51 322.454 540.51 322.454 539.53 321.474L530.73 318.544C528.77 318.544 526.82 317.564 526.82 315.614L524.86 313.654C522.9 313.654 521.93 312.674 520.95 312.674C518.99 311.694 518.02 311.694 517.04 311.694C516.06 310.714 516.06 310.714 515.08 311.694H513.12C510.19 310.714 508.23 310.714 505.3 308.764C502.37 306.804 497.48 305.834 493.57 303.874L481.84 298.984C478.91 298.004 475 297.024 472.06 295.074H470.1C469.12 294.094 468.14 295.074 468.14 296.054C467.16 297.034 467.16 298.984 466.18 300.944C466.18 301.924 465.2 302.904 465.2 303.874C466.18 303.874 467.16 304.854 468.13 304.854L474.97 307.784L482.79 311.694C485.72 312.674 488.66 314.624 491.59 314.624C494.52 315.604 497.46 317.554 500.39 319.514L501.37 320.494C505.28 324.404 504.3 332.224 499.41 334.184C497.45 334.184 496.48 335.164 494.52 335.164H493.54V334.184L496.47 332.224C498.43 332.224 499.4 331.244 500.38 329.294V326.364C500.38 325.384 499.4 324.404 498.42 323.434H495.49C493.53 324.414 492.56 324.414 491.58 323.434L477.89 318.544L467.13 313.654L462.24 310.724C462.24 310.724 461.26 310.724 461.26 311.704V313.664C460.28 314.644 459.3 315.624 459.3 317.574L463.21 320.504L484.72 330.284C485.7 330.284 487.65 331.264 488.63 332.244C489.61 332.244 489.61 332.244 489.61 333.224H486.68L474.95 329.314C472.02 327.354 468.11 326.384 465.17 325.404L460.28 322.474H456.37L453.44 330.294V332.254C455.4 333.234 456.37 333.234 457.35 333.234H458.33C458.33 331.274 459.31 329.324 460.29 327.364L461.27 326.384H463.23L464.21 327.364L462.25 331.274C462.25 332.254 462.25 333.234 461.27 334.204V335.184C462.25 336.164 462.25 336.164 463.23 336.164C463.23 336.164 464.21 336.164 464.21 335.184C464.21 333.224 466.17 332.254 467.14 331.274C467.14 330.294 468.12 329.314 468.12 328.344H470.08V329.324L467.15 336.164V338.124C468.13 338.124 468.13 339.104 469.11 339.104C469.11 339.104 470.09 339.104 470.09 338.124L472.05 334.214L474.98 331.284H475.96V334.214C474.98 336.174 474 338.124 474 340.084C474 341.064 474 341.064 474.98 342.044H475.96C476.94 340.084 476.94 338.134 477.92 337.154L480.85 333.244H481.83L482.81 334.224V335.204L478.9 343.024C478.9 343.024 478.9 344.004 479.88 344.004H481.84C481.84 343.024 482.82 342.044 482.82 341.074L485.75 336.184C485.75 336.184 486.73 335.204 487.71 336.184C487.71 336.184 488.69 336.184 488.69 337.164L484.78 344.004C484.78 344.984 484.78 345.964 485.76 346.934H487.72C487.72 344.974 488.7 343.024 489.68 341.064C489.68 340.084 490.66 339.104 491.64 338.134C491.64 337.154 492.62 337.154 493.6 338.134C494.58 338.134 494.58 339.114 493.6 339.114L490.67 347.914C490.67 347.914 490.67 348.894 491.65 349.874C492.63 349.874 492.63 349.874 493.61 348.894C493.61 347.914 493.61 346.934 494.59 345.964C494.59 344.004 495.57 343.034 496.55 341.074C497.53 341.074 497.53 340.094 498.51 340.094C499.49 340.094 500.47 341.074 499.49 341.074C498.51 344.004 497.53 345.964 497.53 348.894C497.53 349.874 495.57 349.874 496.55 350.854C496.55 351.834 497.53 352.814 498.51 352.814C499.49 353.794 500.47 354.774 500.47 356.724C501.45 356.724 501.45 356.724 501.45 357.704C502.43 358.684 504.38 358.684 505.36 357.704C505.36 355.744 506.34 354.774 506.34 353.794L510.25 345.974C510.25 345.974 510.25 344.994 511.23 344.994C511.23 344.994 512.21 344.994 512.21 345.974V350.864L510.25 355.754V356.734C510.25 357.714 513.18 358.694 513.18 358.694L514.16 357.714C514.16 354.784 516.12 352.824 517.09 349.894L518.07 348.914C519.05 347.934 519.05 348.914 519.05 348.914C520.03 348.914 520.03 349.894 520.03 350.874L517.1 357.714L516.12 358.694C516.12 359.674 516.12 359.674 517.1 360.654C517.1 360.654 518.08 360.654 519.06 361.634C519.06 361.634 519.06 360.654 520.04 360.654V359.674L522 356.744C522 354.784 522.98 353.814 523.96 352.834C523.96 351.854 523.96 351.854 524.94 351.854H525.92L526.9 352.834C526.9 353.814 526.9 353.814 525.92 354.794C524.94 356.754 524.94 359.684 522.99 362.614V364.574C523.97 365.554 522.01 367.504 522.01 367.504C519.01 367.354 517.06 367.354 516.08 366.384ZM479.9 407.444V406.464C478.92 406.464 477.94 405.484 475.99 404.504C475.01 404.504 474.03 404.504 473.06 402.544C474.04 401.564 475.02 401.564 475.99 402.544L483.81 406.454L496.52 412.324L509.23 419.164C510.21 419.164 511.19 420.144 512.16 421.124C512.16 422.104 513.14 422.104 514.12 423.084C517.05 425.044 517.05 425.044 519.01 427.974C520.97 428.954 520.97 430.904 520.97 433.844H519.01L518.03 432.864C517.05 430.904 515.1 430.904 515.1 432.864C514.12 432.864 514.12 433.844 513.14 434.824C511.18 438.734 509.23 443.624 506.3 447.534C504.34 450.464 502.39 453.404 499.46 455.354C497.5 456.334 496.53 456.334 495.55 455.354C494.57 455.354 492.62 453.394 491.64 452.424C490.66 451.444 489.68 449.494 490.66 448.514C491.64 448.514 491.64 447.534 491.64 447.534C494.57 445.574 496.53 441.664 498.48 438.734L501.41 431.894C502.39 429.934 501.41 427.984 502.39 426.024C502.39 422.114 499.46 419.184 497.5 417.224L492.61 414.294C490.65 413.314 489.68 412.334 487.72 412.334H475.99C472.08 412.334 468.17 414.294 466.21 416.244C463.28 419.174 461.32 421.134 460.34 424.064V430.904C460.34 431.884 461.32 433.834 461.32 434.814V439.704L466.21 446.544C467.19 448.504 469.14 449.474 471.1 451.434L472.08 452.414C475.99 454.374 479.9 456.324 483.81 459.254L492.61 462.184C495.54 463.164 498.48 463.164 501.41 463.164C503.37 463.164 504.34 462.184 506.3 461.204C511.19 459.244 515.1 455.334 518.03 451.424C519.01 448.494 519.99 446.534 519.99 442.624V439.694C519.99 438.714 520.97 437.734 520.97 436.764H521.95C521.95 438.724 522.93 440.674 522.93 442.634V445.564C522.93 449.474 521.95 452.404 520 454.364C518.04 458.274 515.11 460.234 511.2 462.184L508.27 464.144C505.34 465.124 503.38 466.104 500.45 465.124H497.52C493.61 466.104 489.7 465.124 486.76 463.164C479.92 460.234 474.05 456.324 468.18 452.404C465.25 450.444 463.29 448.494 462.31 446.534L460.35 443.604C458.39 440.674 457.42 435.784 457.42 431.874V426.984C457.42 421.114 459.38 417.204 463.29 413.294L471.11 409.384C472.09 409.384 473.07 408.404 474.04 408.404C475.99 408.424 477.94 407.444 479.9 407.444ZM473.05 249.044C473.05 251.004 473.05 251.974 472.07 252.954H471.09L469.13 250.994C468.15 249.034 469.13 247.084 471.09 247.084C471.09 247.084 472.07 247.084 472.07 248.064C473.05 248.064 473.05 249.044 473.05 249.044ZM482.83 245.134V246.114C482.83 246.114 482.83 247.094 481.85 247.094C481.85 248.074 480.87 248.074 479.89 248.074C479.89 247.094 478.91 247.094 478.91 246.114C477.93 245.134 477.93 244.154 478.91 243.184C478.91 242.204 479.89 242.204 480.87 242.204C481.85 242.204 482.83 243.174 482.83 245.134ZM493.59 243.174L491.63 246.104H490.65C489.67 246.104 487.72 244.144 487.72 243.174C487.72 241.214 488.7 239.264 489.68 239.264C490.66 238.284 490.66 238.284 490.66 239.264C492.61 239.264 493.59 241.224 493.59 243.174ZM503.37 437.764C500.44 442.654 498.48 447.544 495.55 450.474V452.434H496.53L500.44 449.504C500.44 449.504 501.42 448.524 501.42 447.544L506.31 437.764C508.27 434.834 509.24 430.924 510.22 428.964C511.2 427.984 512.18 427.004 512.18 426.034L509.25 423.104L505.34 420.174H504.36V421.154C505.34 422.134 505.34 423.114 505.34 424.084C506.3 428.964 505.32 433.844 503.37 437.764ZM503.37 236.334V238.294C503.37 238.294 502.39 238.294 502.39 239.274C502.39 240.254 501.41 240.254 500.43 240.254C499.45 239.274 498.47 239.274 498.47 238.294V237.314C498.47 235.354 499.45 234.384 501.4 235.354C502.39 235.354 502.39 235.354 503.37 236.334ZM512.17 232.424V237.314H510.21L508.25 234.384C508.25 233.404 508.25 232.424 509.23 231.454C509.23 231.454 510.21 230.474 510.21 231.454C511.19 231.444 512.17 231.444 512.17 232.424ZM517.06 404.514C514.13 404.514 513.15 403.534 513.15 401.584C513.15 400.604 513.15 398.654 515.11 398.654C516.09 397.674 518.04 398.654 519.02 399.634C520 400.614 520 403.544 518.04 404.524H517.06V404.514ZM563.01 373.224C562.03 374.204 562.03 375.184 561.05 375.184L553.23 381.054C552.25 381.054 552.25 382.034 553.23 383.014C553.23 383.994 552.25 383.994 552.25 384.974C551.27 384.974 550.29 384.974 550.29 383.994C549.31 383.014 548.33 383.014 546.38 383.994C545.4 383.994 544.42 384.974 542.47 384.974H532.69C530.73 384.974 529.76 384.974 528.78 386.934C528.78 387.914 527.8 388.894 526.82 389.864C525.84 390.844 525.84 390.844 524.86 390.844C522.9 389.864 519.97 388.884 518.02 386.934C517.04 386.934 517.04 384.974 517.04 384.004C518.02 382.044 519.97 380.094 519.97 377.164L522.9 370.324C522.9 369.344 523.88 368.364 524.86 366.414L527.79 360.544C527.79 358.584 529.75 357.614 529.75 355.654L533.66 344.894L535.62 339.024L538.55 333.154C539.53 331.194 540.51 329.244 540.51 326.314L541.49 325.334C543.45 321.424 545.4 317.514 546.38 313.604L549.31 307.734H550.29C550.29 307.734 551.27 307.734 551.27 308.714C550.29 310.674 550.29 313.604 549.31 314.584L544.42 327.294V328.274C542.46 331.204 541.49 335.114 540.51 338.054L531.71 358.584L526.82 371.294L520.95 383.024C520.95 384.004 520.95 384.984 521.93 384.984C521.93 384.984 522.91 385.964 523.89 385.964C524.87 385.964 525.85 385.964 525.85 384.984L527.81 382.054C527.81 382.054 528.79 381.074 530.74 381.074H538.56C541.49 381.074 544.43 381.074 547.36 380.094C552.25 378.144 557.14 376.184 561.05 373.254C561.05 373.254 561.05 372.274 562.03 373.254H563.01V373.224ZM521.95 229.484C521.95 231.444 520.97 233.394 519.99 233.394C518.03 232.414 518.03 231.434 518.03 229.484C518.03 228.504 519.01 227.524 519.99 227.524C520.97 227.524 520.97 228.504 521.95 229.484ZM531.72 224.594V226.554C531.72 227.534 531.72 227.534 530.74 228.514C530.74 228.514 530.74 229.494 529.76 229.494C527.8 229.494 526.83 228.514 526.83 226.564C526.83 225.584 527.81 223.634 528.79 223.634C529.77 223.624 530.75 223.624 531.72 224.594ZM540.52 243.174V242.194C540.52 241.214 539.54 241.214 539.54 240.234C539.54 238.274 538.56 238.274 538.56 236.324C538.56 234.364 538.56 234.364 535.63 235.344C533.67 235.344 531.72 236.324 529.76 237.304C529.76 237.304 528.78 238.284 529.76 239.264L532.69 246.104H533.67C535.63 245.124 538.56 245.124 539.54 243.174H540.52V243.174ZM563.01 364.424C562.03 366.384 563.99 365.404 563.99 366.384C564.97 366.384 564.97 367.364 563.99 367.364L559.1 369.324H557.14C556.16 370.304 555.18 370.304 554.21 370.304C553.24 370.304 552.25 371.284 551.28 371.284H539.55C538.57 371.284 536.62 371.284 535.64 370.304H533.68V368.344C533.68 367.364 534.66 365.414 534.66 364.434C535.64 362.474 536.62 361.504 537.59 361.504C538.57 360.524 540.52 360.524 541.5 361.504C544.43 363.464 546.39 362.484 549.32 362.484C551.28 361.504 552.25 360.524 553.23 358.574C553.23 357.594 554.21 356.614 554.21 355.644C556.17 351.734 558.12 350.754 563.01 351.734C563.99 352.714 563.99 352.714 564.97 351.734C566.93 350.754 566.93 348.804 566.93 346.844C567.91 345.864 566.93 344.884 567.91 343.914C568.89 342.934 568.89 342.934 569.87 343.914C569.87 344.894 570.85 346.844 569.87 348.804V349.784C569.87 355.654 567.91 360.544 564 364.454H563.01V364.424ZM540.52 221.664V223.624L539.54 225.584C539.54 226.564 538.56 226.564 537.58 226.564C536.6 225.584 535.62 224.604 535.62 223.634C534.64 223.634 535.62 222.654 535.62 221.674L536.6 220.694C537.58 219.714 538.56 219.714 539.53 220.694C539.55 220.684 539.55 221.664 540.52 221.664ZM549.32 219.704C549.32 219.704 549.32 220.684 548.34 221.664C548.34 222.644 547.36 222.644 547.36 223.624C546.38 223.624 546.38 222.644 546.38 222.644C544.42 222.644 544.42 221.664 543.45 219.714C543.45 218.734 544.43 217.754 544.43 217.754C545.41 216.774 545.41 216.774 546.39 216.774C547.37 216.774 548.35 217.754 549.32 219.704ZM666.66 617.674C666.66 618.654 665.68 618.654 665.68 619.634C664.7 620.614 664.7 619.634 663.72 619.634C662.74 618.654 661.76 618.654 660.79 618.654C658.83 615.724 654.92 614.744 651.99 613.764C649.06 611.804 646.12 610.834 643.19 609.854C639.28 606.924 634.39 604.964 629.5 603.014C626.57 602.034 622.66 601.054 618.74 599.104L609.94 596.174C607.01 594.214 604.07 593.244 601.14 592.264C599.18 592.264 597.23 591.284 594.3 590.304C591.37 589.324 588.43 587.374 585.5 587.374C580.61 585.414 576.7 583.464 571.81 582.484L566.92 580.524L555.19 574.654C552.26 573.674 550.3 572.694 548.35 570.744C547.37 569.764 547.37 569.764 548.35 568.784C549.33 566.824 549.33 565.854 551.28 563.894C551.28 563.894 552.26 562.914 552.26 561.934L560.08 547.264C561.06 546.284 562.04 545.304 562.04 544.334C563.02 541.404 564 538.464 565.95 536.514C565.95 534.554 566.93 533.584 567.91 531.624C567.91 529.664 568.89 528.694 569.87 526.734L571.83 516.954C572.81 514.994 573.79 513.044 572.81 510.114C573.79 508.154 573.79 506.204 573.79 504.244V497.404C573.79 495.444 572.81 494.474 572.81 492.514C572.81 490.554 572.81 489.584 571.83 487.624C571.83 486.644 571.83 484.694 570.85 483.714C571.83 481.754 569.87 479.804 568.89 476.874C568.89 475.894 567.91 474.914 566.93 473.944V471.984L562.04 466.114L559.11 463.184L556.18 459.274C555.2 459.274 554.22 458.294 554.22 458.294V457.314H555.2C556.18 457.314 557.16 458.294 558.13 459.274C560.09 460.254 562.04 461.234 563.02 463.184C564.98 463.184 565.95 465.144 566.93 466.114C568.89 469.044 570.84 471.984 573.77 474.914C573.77 475.894 574.75 476.874 574.75 477.844C575.73 480.774 576.71 482.734 576.71 485.664C577.69 485.664 577.69 486.644 577.69 486.644C577.69 489.574 577.69 491.534 578.67 493.484V505.214C578.67 507.174 578.67 509.124 577.69 512.054C577.69 513.034 578.67 515.964 576.71 517.924C576.71 521.834 574.75 525.744 573.78 529.654C572.8 533.564 570.85 537.474 568.89 540.414L557.16 562.904L554.23 567.794C553.25 568.774 554.23 569.754 555.21 569.754C555.21 569.754 556.19 569.754 557.17 570.734L571.84 576.604C573.8 576.604 575.75 578.564 576.73 578.564C579.66 578.564 580.64 580.524 582.6 580.524C584.56 580.524 586.51 581.504 588.47 582.484L606.07 588.354C606.07 589.334 606.07 589.334 607.05 589.334L617.81 593.244L628.57 598.134C631.5 599.114 635.41 600.094 638.35 602.044C643.24 603.024 647.15 605.954 652.04 607.914C653.02 607.914 654.97 608.894 655.95 610.844H660.84C660.84 608.884 661.82 607.914 660.84 606.934V604.004C659.86 601.074 660.84 599.114 659.86 597.164V588.364C659.86 586.404 659.86 584.454 658.88 582.494C657.9 581.514 658.88 580.534 658.88 579.564C657.9 577.604 658.88 574.674 657.9 571.744C656.92 570.764 657.9 569.784 657.9 567.834C657.9 565.874 657.9 563.924 656.92 561.964V560.004C656.92 557.074 656.92 555.114 655.94 552.184C654.96 550.224 655.94 547.294 655.94 545.344C655.94 544.364 655.94 542.414 654.96 541.434V531.654C654.96 529.694 654.96 528.724 653.98 527.744V524.814C653.98 522.854 653.98 519.924 653 516.994V514.064C653 511.134 653 509.174 652.02 506.244V504.284C652.02 502.324 652.02 501.354 651.04 499.394C650.06 497.434 651.04 494.504 650.06 492.554C650.06 489.624 649.08 486.684 649.08 483.754C649.08 481.794 648.1 480.824 648.1 479.844C647.12 477.884 646.14 474.954 646.14 473.004C646.14 471.054 645.16 470.074 644.18 468.114L639.29 457.354C639.29 456.374 639.29 456.374 638.31 455.394L633.42 446.594C633.42 444.634 632.44 442.684 631.46 441.704L629.5 439.744V438.764C630.48 437.784 630.48 437.784 631.46 438.764H632.44C634.4 441.694 636.35 443.654 637.33 446.584C639.29 449.514 640.26 452.454 642.22 454.404C643.2 455.384 643.2 456.364 643.2 457.334L646.13 462.224C647.11 463.204 648.09 465.154 648.09 466.134C649.07 468.094 650.05 469.064 650.05 471.024C650.05 472.984 651.03 473.954 651.03 475.914C652.01 477.874 652.99 480.804 652.99 482.754C652.99 484.704 652.99 486.664 653.97 488.624C654.95 490.584 654.95 492.534 654.95 494.494C654.95 495.474 654.95 496.454 655.93 498.404C655.93 499.384 654.95 500.364 655.93 501.334C656.91 502.314 656.91 503.294 656.91 503.294C656.91 506.224 655.93 509.164 657.89 512.094V516.004C657.89 517.964 656.91 519.914 657.89 520.894C658.87 521.874 658.87 522.854 658.87 523.824V530.664C659.85 531.644 659.85 533.594 659.85 534.574C659.85 536.534 658.87 538.484 660.83 540.444V542.404C660.83 546.314 660.83 550.224 661.81 553.164V556.094C661.81 558.054 661.81 560.984 662.79 563.914C662.79 565.874 661.81 567.824 662.79 569.784C663.77 571.744 662.79 574.674 663.77 576.624C664.75 579.554 663.77 582.494 664.75 585.424C664.75 587.384 663.77 589.334 664.75 590.314C664.75 593.244 664.75 595.204 665.73 597.154C665.73 599.114 664.75 600.084 665.73 602.044C666.71 603.024 665.73 604.004 665.73 604.974C666.71 607.904 666.71 610.844 666.71 613.774V617.674H666.66ZM554.21 396.694C555.19 396.694 556.17 397.674 556.17 398.654C557.15 398.654 557.15 399.634 557.15 399.634L555.19 403.544C554.21 403.544 553.23 403.544 553.23 404.524C552.25 403.544 552.25 403.544 551.27 403.544C551.27 402.564 550.29 401.584 550.29 399.634C550.29 398.654 551.27 396.704 553.22 396.704H554.21V396.694ZM553.24 214.824C553.24 213.844 554.22 212.864 555.2 212.864C555.2 212.864 557.16 213.844 557.16 214.824V216.784C557.16 217.764 557.16 218.744 556.18 219.714C556.18 220.694 555.2 220.694 555.2 219.714C553.24 218.734 553.24 216.774 553.24 214.824ZM577.68 564.874C578.66 564.874 579.64 565.854 580.61 565.854C580.61 566.834 580.61 567.814 579.63 567.814H575.72C570.83 567.814 566.92 565.854 563.01 563.904C563.01 563.904 563.01 562.924 562.03 562.924C562.03 561.944 562.03 561.944 563.01 560.964C563.99 560.964 564.97 559.004 566.92 560.964C570.84 560.964 574.75 562.924 577.68 564.874ZM564.97 199.174C563.99 198.194 563.99 197.214 563.99 196.244C564.97 196.244 564.97 195.264 564.97 195.264H566.93C568.89 196.244 568.89 198.194 568.89 199.174C568.89 200.154 568.89 200.154 567.91 201.134C566.92 200.154 565.95 199.174 564.97 199.174ZM628.53 434.824H627.55C623.64 432.864 620.71 430.914 616.79 429.934C612.88 427.004 607.99 426.024 603.1 424.064C602.12 423.084 601.14 423.084 600.17 423.084C596.26 420.154 592.35 419.174 588.44 417.214L577.68 413.304L571.81 410.374C570.83 410.374 570.83 409.394 570.83 408.414L571.81 407.434L575.72 409.394L591.36 415.264C592.34 415.264 592.34 415.264 593.32 416.244L608.96 422.114L618.74 427.004C619.72 426.024 619.72 426.024 618.74 426.024C616.78 423.094 613.85 420.154 610.92 418.204L595.28 407.444C594.3 407.444 593.32 405.484 591.37 405.484C590.39 405.484 589.41 404.504 588.44 405.484V407.444C587.46 407.444 587.46 408.424 587.46 408.424H586.48C585.5 408.424 585.5 408.424 585.5 407.444V405.484C585.5 404.504 585.5 402.554 584.52 400.594V394.724C584.52 393.744 584.52 392.764 583.54 391.794C583.54 391.794 583.54 390.814 582.56 390.814C579.63 383.974 579.63 383.974 574.74 379.084C572.78 377.124 569.85 374.194 566.92 373.214C565.94 373.214 565.94 372.234 564.96 371.254V370.274C565.94 369.294 566.92 368.314 567.89 368.314C569.85 368.314 570.82 366.354 571.8 364.404L573.76 360.494C574.74 358.534 573.76 357.564 574.74 355.604V340.934C574.74 338.004 573.76 335.064 572.78 332.134C571.8 331.154 570.82 329.204 570.82 327.244C569.84 324.314 568.86 321.374 569.84 318.444V316.484H570.82V319.414C569.84 321.374 571.8 323.324 571.8 325.284C573.76 327.244 573.76 330.174 575.71 332.124C575.71 333.104 576.69 335.054 576.69 336.034C578.65 339.944 578.65 343.854 578.65 347.764V350.694C578.65 355.584 577.67 359.494 575.72 363.404C574.74 366.334 573.76 369.274 571.81 371.224V373.184L574.74 375.144H575.72C575.72 374.164 576.7 374.164 577.68 373.184C580.61 368.294 582.57 364.384 583.55 358.514C584.53 355.584 585.51 352.644 585.51 349.714C585.51 348.734 585.51 347.754 586.49 346.784C586.49 344.824 587.47 343.854 589.42 343.854C591.37 343.854 593.33 342.874 594.31 341.894L600.18 337.984C601.16 337.984 601.16 337.984 602.14 337.004L603.12 337.984V338.964C601.16 340.924 600.19 342.874 598.23 343.854C597.25 343.854 596.27 344.834 594.32 345.814C592.36 346.794 590.41 348.744 589.43 350.704C588.45 351.684 588.45 352.664 588.45 354.614V358.524C587.47 359.504 587.47 361.454 587.47 362.434C586.49 364.394 585.51 365.364 585.51 367.324L582.58 372.214L580.62 378.084C581.6 379.064 581.6 380.034 581.6 381.994H582.58C583.56 384.924 585.51 386.884 587.47 388.834L589.43 395.674C589.43 397.634 590.41 398.604 591.39 399.584C591.39 401.544 592.37 401.544 593.35 402.514C593.35 402.514 594.33 402.514 594.33 403.494C598.24 404.474 601.17 406.424 604.11 409.364C608.02 411.324 610.95 414.254 613.89 417.184C615.85 418.164 617.8 419.144 618.78 421.094C622.69 424.024 625.62 427.934 627.58 431.854C627.58 432.834 628.56 432.834 628.56 433.814C629.5 433.844 628.53 434.824 628.53 434.824ZM581.59 558.034H580.61C579.63 559.014 578.65 559.014 577.68 559.014C574.75 559.014 572.79 558.034 569.86 556.084C568.88 556.084 568.88 556.084 568.88 555.104C567.9 555.104 568.88 554.124 568.88 554.124C570.84 553.144 572.79 554.124 575.72 555.104L581.59 558.034ZM569.86 392.784C569.86 391.804 568.88 391.804 568.88 391.804C568.88 390.824 568.88 389.844 569.86 389.844H570.84C571.82 389.844 571.82 390.824 571.82 391.804C570.84 391.804 570.84 391.804 569.86 392.784ZM572.79 199.174L569.86 195.264C569.86 194.284 569.86 193.304 570.84 192.334H572.8C574.76 194.294 574.76 196.244 574.76 198.204V199.184H572.79V199.174ZM577.68 552.164L572.79 549.234L571.81 548.254C572.79 547.274 572.79 547.274 573.77 547.274C575.73 548.254 577.68 548.254 578.66 550.204C579.64 550.204 579.64 550.204 579.64 551.184C578.66 551.184 578.66 552.164 577.68 552.164ZM578.66 195.264C577.68 194.284 576.7 192.334 576.7 190.374L577.68 189.394C577.68 188.414 578.66 188.414 579.64 188.414C580.62 190.374 581.6 191.344 581.6 194.284C581.6 194.284 581.6 195.264 580.62 195.264C580.61 196.244 579.64 196.244 578.66 195.264ZM584.53 190.374C584.53 189.394 584.53 189.394 583.55 188.414C583.55 187.434 584.53 186.454 584.53 185.484C585.51 185.484 586.49 185.484 587.46 186.464C588.44 187.444 589.42 189.394 589.42 191.354C589.42 192.334 588.44 193.314 588.44 193.314C587.46 193.314 587.46 194.294 587.46 194.294C587.46 193.314 586.48 193.314 586.48 193.314L584.53 190.374ZM592.35 186.464C591.37 184.504 591.37 184.504 592.35 182.554L593.33 181.574C594.31 182.554 595.29 182.554 595.29 182.554C596.27 184.514 597.25 185.484 596.27 187.444V188.424C595.29 189.404 594.31 189.404 594.31 189.404C593.33 188.414 592.35 187.444 592.35 186.464ZM602.13 142.464C599.2 143.444 599.2 144.424 600.17 146.374L603.1 151.264C603.1 152.244 603.1 152.244 604.08 152.244H605.06L617.77 146.374C620.7 146.374 622.66 144.414 624.61 144.414L632.43 140.504C631.45 138.544 630.47 137.574 628.52 136.594C626.56 135.614 623.63 135.614 621.68 135.614C617.77 135.614 612.88 136.594 608.97 138.544C607.99 139.524 607.01 139.524 606.04 139.524L602.13 142.464ZM603.1 185.484L600.17 181.574C600.17 181.574 600.17 180.594 601.15 179.614C602.13 179.614 604.08 179.614 604.08 181.574V185.484H603.1ZM607.99 514.024C607.99 517.934 610.92 520.864 613.86 522.824C616.79 523.804 619.73 523.804 621.68 523.804L626.57 520.874C626.57 521.854 627.55 522.834 626.57 522.834C624.61 525.764 621.68 527.724 617.77 528.704C613.86 528.704 610.93 527.724 608.97 524.794L606.04 522.834C605.06 520.874 604.08 518.924 604.08 516.964V514.034C604.08 510.124 606.04 507.194 607.99 504.254C609.95 502.294 612.88 501.324 614.83 501.324C616.79 500.344 619.72 501.324 621.67 501.324L624.6 504.254V505.234H621.67C620.69 505.234 619.71 504.254 618.74 504.254C617.76 505.234 616.78 505.234 615.81 505.234C612.88 505.234 610.92 507.194 608.97 509.144C608.97 510.124 608.97 510.124 609.95 510.124C610.93 511.104 611.91 511.104 612.88 511.104C614.84 511.104 616.79 513.064 618.75 512.084C620.71 514.044 622.66 513.064 624.62 514.044C625.6 514.044 626.58 515.024 627.55 516.004C627.55 516.004 628.53 516.004 627.55 516.984L626.57 517.964H624.61C622.65 516.004 619.72 516.984 617.77 516.004C615.81 515.024 613.86 515.024 611.9 515.024C610.92 515.024 609.94 514.044 609.94 514.044C607.99 513.054 607.99 514.024 607.99 514.024ZM608.97 179.614C607.99 179.614 607.99 178.634 607.99 177.654C607.99 176.674 608.97 175.694 608.97 175.694C609.95 174.714 611.9 176.674 611.9 177.654C611.9 178.634 612.88 178.634 612.88 179.614V181.574C611.9 182.554 611.9 182.554 610.92 182.554L608.97 179.614ZM618.75 179.614C616.79 177.654 614.84 176.684 615.82 173.744C615.82 172.764 616.8 171.784 617.78 172.764C619.74 173.744 620.71 174.724 620.71 175.694V177.654C620.71 177.654 619.73 178.634 619.73 179.614H618.75ZM625.59 169.844C624.61 168.864 625.59 167.884 626.57 167.884H627.55C629.51 168.864 629.51 170.814 630.48 171.794C630.48 172.774 630.48 173.754 629.5 173.754C629.5 173.754 629.5 174.734 628.52 174.734C627.54 174.734 627.54 174.734 627.54 173.754C626.57 172.774 625.59 171.794 625.59 169.844ZM633.42 165.924C633.42 165.924 633.42 164.944 634.4 163.964C635.38 162.984 636.36 162.984 636.36 162.984C638.32 164.944 639.29 166.894 639.29 168.854V170.814C638.31 170.814 637.33 171.794 636.36 170.814L633.42 165.924ZM643.19 166.904C641.23 165.924 641.23 162.994 641.23 162.014C640.25 162.014 642.21 160.054 643.19 160.054C643.19 160.054 645.15 161.034 645.15 162.014C645.15 162.994 645.15 163.974 646.13 164.944C646.13 164.944 645.15 165.924 645.15 166.904H643.19ZM647.11 517.944C647.11 518.924 647.11 519.904 648.09 520.874V527.714C649.07 529.674 649.07 530.644 649.07 532.604C649.07 534.564 649.07 535.534 650.05 537.494V542.384C651.03 542.384 651.03 543.364 651.03 544.344V556.074C651.03 557.054 650.05 558.034 650.05 559.004H649.07C649.07 558.024 648.09 557.044 648.09 556.074C648.09 554.114 647.11 553.144 647.11 551.184C647.11 550.204 646.13 548.254 646.13 546.294C646.13 545.314 646.13 544.334 645.15 543.364V542.384C645.15 539.454 646.13 536.514 644.17 534.564V526.744C644.17 524.784 644.17 523.814 643.19 521.854V520.874C643.19 518.914 644.17 517.944 644.17 516.964V513.054C644.17 513.054 644.17 512.074 645.15 512.074H646.13C646.13 513.054 647.11 513.054 647.11 514.034V517.944ZM651.02 565.854L652.98 567.814C652.98 568.794 651.02 569.774 650.05 569.774C649.07 570.754 648.09 569.774 647.12 568.794C646.14 568.794 646.14 567.814 646.14 566.834C646.14 566.834 647.12 566.834 647.12 565.854H651.02ZM646.13 577.584V575.624L647.11 574.644H649.07C650.05 574.644 651.03 575.624 652 576.604C652.98 576.604 652 578.564 651.02 578.564C649.06 579.544 648.08 578.564 646.13 577.584ZM652.97 588.344C652.97 589.324 651.99 589.324 651.01 589.324H650.03C649.05 589.324 649.05 588.344 648.07 588.344C646.11 587.364 646.11 586.384 646.11 585.414H649.04C650.02 585.414 651 586.394 651.97 586.394C652.94 586.394 652.97 587.364 652.97 588.344ZM648.08 597.144C649.06 596.164 649.06 596.164 650.04 596.164C651.02 596.164 652.97 597.144 653.95 598.124C653.95 598.124 654.93 599.104 653.95 599.104H652.97C651.01 600.084 650.04 599.104 649.06 598.124L648.08 597.144ZM649.06 160.064C649.06 159.084 650.04 157.134 651.02 157.134C652 157.134 652.98 157.134 653.95 158.114V163.004C653.95 164.964 653.95 164.964 652.97 164.964C651.99 164.964 651.01 164.964 651.01 163.984C650.04 162.994 649.06 161.044 649.06 160.064Z" fill="url(#paint0_linear_606_47)"/>
<defs>
<linearGradient id="paint0_linear_606_47" x1="123" y1="132" x2="667" y2="620" gradientUnits="userSpaceOnUse">
<stop stop-color="#CD8258"/>
<stop offset="1" stop-color="#74453A"/>
</linearGradient>
</defs>
</svg>
